    -1
    15
         1         0         0         0      7.81760     -4.63530      0.63576
         2         0         0         0      9.70720     -4.63530      0.73676
         3         0         0         0      9.02168     -4.53370      0.69505
         4         0         0         0      9.37747     -4.53370      0.69810
         5         0         0         0      8.56214     -3.82250      0.69839
         6         0         0         0      9.24877     -3.82250      0.69834
         7         0         0         0      8.12068     -3.06050      0.70675
         8         0         0         0      9.10008     -3.06050      0.70036
         9         0         0         0      7.43669     -2.01910      0.71479
        10         0         0         0      8.88655     -1.99370      0.70320
        11         0         0         0      7.48304     -1.08778      0.75700
        12         0         0         0      8.36919     -1.08570      0.73723
        13         0         0         0      7.81760      4.63530      0.63576
        14         0         0         0      9.70720      4.63530      0.73676
        15         0         0         0      9.02168      4.53370      0.69505
        16         0         0         0      9.37747      4.53370      0.69810
        17         0         0         0      8.56214      3.82250      0.69839
        18         0         0         0      9.24877      3.82250      0.69834
        19         0         0         0      8.12068      3.06050      0.70675
        20         0         0         0      9.10008      3.06050      0.70036
        21         0         0         0      7.43669      2.01910      0.71479
        22         0         0         0      8.88655      1.99370      0.70320
        23         0         0         0      7.48304      1.08778      0.75700
        24         0         0         0      8.36919      1.08570      0.73723
    -1
    -1
    55                                                                          
Mode 1                                                                          
EMA                                                                             
Acceleration shapes (Uz only)                                                   
LoadCase 1                                                                      
                                                                                
         1         2         2        12         2         3
         2         4         1         1
  5.53163e+00  0.00000e+00  0.00000e+00  0.00000e+00
         1
  0.00000e+00  0.00000e+00  6.21940e-01
         2
  0.00000e+00  0.00000e+00  1.43831e-01
         3
  0.00000e+00  0.00000e+00  2.75028e-01
         4
  0.00000e+00  0.00000e+00  2.08054e-01
         5
  0.00000e+00  0.00000e+00  7.17800e-02
         6
  0.00000e+00  0.00000e+00  8.51991e-02
         7
  0.00000e+00  0.00000e+00  1.29020e-02
         8
  0.00000e+00  0.00000e+00  1.47880e-02
         9
  0.00000e+00  0.00000e+00 -1.40873e-02
        10
  0.00000e+00  0.00000e+00 -1.36761e-02
        11
  0.00000e+00  0.00000e+00 -3.81917e-02
        12
  0.00000e+00  0.00000e+00 -4.13161e-02
        13
  0.00000e+00  0.00000e+00  5.55593e-01
        14
  0.00000e+00  0.00000e+00  1.48582e-01
        15
  0.00000e+00  0.00000e+00  2.68090e-01
        16
  0.00000e+00  0.00000e+00  2.00056e-01
        17
  0.00000e+00  0.00000e+00  6.39502e-02
        18
  0.00000e+00  0.00000e+00  7.58581e-02
        19
  0.00000e+00  0.00000e+00  1.52902e-02
        20
  0.00000e+00  0.00000e+00  3.20071e-02
        21
  0.00000e+00  0.00000e+00 -1.46494e-02
        22
  0.00000e+00  0.00000e+00 -3.48985e-03
        23
  0.00000e+00  0.00000e+00 -3.99254e-02
        24
  0.00000e+00  0.00000e+00 -4.06306e-02
    -1
    -1
    55                                                                          
Mode 2                                                                          
EMA                                                                             
Acceleration shapes (Uz only)                                                   
LoadCase 1                                                                      
                                                                                
         1         2         2        12         2         3
         2         4         1         2
  8.09656e+00  0.00000e+00  0.00000e+00  0.00000e+00
         1
  0.00000e+00  0.00000e+00 -2.19508e-01
         2
  0.00000e+00  0.00000e+00  4.88000e-01
         3
  0.00000e+00  0.00000e+00  2.34273e-01
         4
  0.00000e+00  0.00000e+00  3.34489e-01
         5
  0.00000e+00  0.00000e+00  1.01931e-01
         6
  0.00000e+00  0.00000e+00  1.76676e-01
         7
  0.00000e+00  0.00000e+00  4.42730e-02
         8
  0.00000e+00  0.00000e+00  7.91205e-02
         9
  0.00000e+00  0.00000e+00  1.51847e-03
        10
  0.00000e+00  0.00000e+00  1.83794e-02
        11
  0.00000e+00  0.00000e+00 -7.53605e-03
        12
  0.00000e+00  0.00000e+00 -9.10408e-03
        13
  0.00000e+00  0.00000e+00 -2.36691e-01
        14
  0.00000e+00  0.00000e+00  4.87572e-01
        15
  0.00000e+00  0.00000e+00  2.21845e-01
        16
  0.00000e+00  0.00000e+00  3.30291e-01
        17
  0.00000e+00  0.00000e+00  9.62991e-02
        18
  0.00000e+00  0.00000e+00  1.64649e-01
        19
  0.00000e+00  0.00000e+00  3.74294e-02
        20
  0.00000e+00  0.00000e+00  7.94924e-02
        21
  0.00000e+00  0.00000e+00 -1.28648e-03
        22
  0.00000e+00  0.00000e+00  1.75844e-02
        23
  0.00000e+00  0.00000e+00 -7.45612e-03
        24
  0.00000e+00  0.00000e+00 -8.67339e-03
    -1
    -1
    55                                                                          
Mode 3                                                                          
EMA                                                                             
Acceleration shapes (Uz only)                                                   
LoadCase 1                                                                      
                                                                                
         1         2         2        12         2         3
         2         4         1         3
  1.48544e+01  0.00000e+00  0.00000e+00  0.00000e+00
         1
  0.00000e+00  0.00000e+00  2.30143e-02
         2
  0.00000e+00  0.00000e+00 -1.94558e-01
         3
  0.00000e+00  0.00000e+00 -7.53981e-02
         4
  0.00000e+00  0.00000e+00 -1.06822e-01
         5
  0.00000e+00  0.00000e+00 -5.21599e-02
         6
  0.00000e+00  0.00000e+00  9.78208e-02
         7
  0.00000e+00  0.00000e+00  2.13204e-01
         8
  0.00000e+00  0.00000e+00  1.45584e-01
         9
  0.00000e+00  0.00000e+00  3.49064e-01
        10
  0.00000e+00  0.00000e+00  2.24732e-01
        11
  0.00000e+00  0.00000e+00  3.14826e-01
        12
  0.00000e+00  0.00000e+00  2.34027e-01
        13
  0.00000e+00  0.00000e+00 -2.67957e-02
        14
  0.00000e+00  0.00000e+00 -2.96522e-01
        15
  0.00000e+00  0.00000e+00 -1.10182e-01
        16
  0.00000e+00  0.00000e+00 -1.54613e-01
        17
  0.00000e+00  0.00000e+00 -3.75018e-02
        18
  0.00000e+00  0.00000e+00  5.53551e-02
        19
  0.00000e+00  0.00000e+00  2.39584e-01
        20
  0.00000e+00  0.00000e+00  1.40803e-01
        21
  0.00000e+00  0.00000e+00  3.56871e-01
        22
  0.00000e+00  0.00000e+00  2.11547e-01
        23
  0.00000e+00  0.00000e+00  3.18579e-01
        24
  0.00000e+00  0.00000e+00  2.43641e-01
    -1
    -1
    55                                                                          
Mode 4                                                                          
EMA                                                                             
Acceleration shapes (Uz only)                                                   
LoadCase 1                                                                      
                                                                                
         1         2         2        12         2         3
         2         4         1         4
  2.30707e+01  0.00000e+00  0.00000e+00  0.00000e+00
         1
  0.00000e+00  0.00000e+00 -1.31221e-01
         2
  0.00000e+00  0.00000e+00  1.02290e-01
         3
  0.00000e+00  0.00000e+00 -7.45046e-02
         4
  0.00000e+00  0.00000e+00 -5.49501e-02
         5
  0.00000e+00  0.00000e+00 -3.50456e-01
         6
  0.00000e+00  0.00000e+00 -3.72961e-01
         7
  0.00000e+00  0.00000e+00 -3.11722e-01
         8
  0.00000e+00  0.00000e+00 -3.59904e-01
         9
  0.00000e+00  0.00000e+00 -9.53270e-02
        10
  0.00000e+00  0.00000e+00 -1.50051e-01
        11
  0.00000e+00  0.00000e+00  1.12620e-02
        12
  0.00000e+00  0.00000e+00 -1.37005e-03
        13
  0.00000e+00  0.00000e+00 -1.15154e-01
        14
  0.00000e+00  0.00000e+00  1.42800e-01
        15
  0.00000e+00  0.00000e+00 -5.34495e-02
        16
  0.00000e+00  0.00000e+00 -3.31172e-02
        17
  0.00000e+00  0.00000e+00 -3.15292e-01
        18
  0.00000e+00  0.00000e+00 -3.35973e-01
        19
  0.00000e+00  0.00000e+00 -2.65211e-01
        20
  0.00000e+00  0.00000e+00 -3.14878e-01
        21
  0.00000e+00  0.00000e+00 -7.92300e-02
        22
  0.00000e+00  0.00000e+00 -1.31663e-01
        23
  0.00000e+00  0.00000e+00  1.88884e-02
        24
  0.00000e+00  0.00000e+00  6.92924e-03
    -1
    -1
    55                                                                          
Mode 5                                                                          
EMA                                                                             
Acceleration shapes (Uz only)                                                   
LoadCase 1                                                                      
                                                                                
         1         2         2        12         2         3
         2         4         1         5
  3.73053e+01  0.00000e+00  0.00000e+00  0.00000e+00
         1
  0.00000e+00  0.00000e+00 -3.03837e-01
         2
  0.00000e+00  0.00000e+00 -3.25288e-01
         3
  0.00000e+00  0.00000e+00 -1.76710e-01
         4
  0.00000e+00  0.00000e+00 -2.61711e-01
         5
  0.00000e+00  0.00000e+00  1.40997e-02
         6
  0.00000e+00  0.00000e+00 -2.16067e-02
         7
  0.00000e+00  0.00000e+00  1.86934e-01
         8
  0.00000e+00  0.00000e+00  1.02124e-01
         9
  0.00000e+00  0.00000e+00  1.07121e-01
        10
  0.00000e+00  0.00000e+00  6.82415e-02
        11
  0.00000e+00  0.00000e+00 -4.70308e-03
        12
  0.00000e+00  0.00000e+00 -5.56972e-03
        13
  0.00000e+00  0.00000e+00 -4.62954e-01
        14
  0.00000e+00  0.00000e+00 -3.89353e-01
        15
  0.00000e+00  0.00000e+00 -2.26270e-01
        16
  0.00000e+00  0.00000e+00 -3.40006e-01
        17
  0.00000e+00  0.00000e+00  4.42293e-02
        18
  0.00000e+00  0.00000e+00 -6.48264e-02
        19
  0.00000e+00  0.00000e+00  2.46889e-01
        20
  0.00000e+00  0.00000e+00  1.05036e-01
        21
  0.00000e+00  0.00000e+00  1.51367e-01
        22
  0.00000e+00  0.00000e+00  7.72117e-02
        23
  0.00000e+00  0.00000e+00 -4.68233e-03
        24
  0.00000e+00  0.00000e+00 -1.27111e-02
    -1
    -1
    55                                                                          
Mode 6                                                                          
EMA                                                                             
Acceleration shapes (Uz only)                                                   
LoadCase 1                                                                      
                                                                                
         1         2         2        12         2         3
         2         4         1         6
  4.26573e+01  0.00000e+00  0.00000e+00  0.00000e+00
         1
  0.00000e+00  0.00000e+00  8.97654e-02
         2
  0.00000e+00  0.00000e+00 -2.71376e-01
         3
  0.00000e+00  0.00000e+00  9.64980e-02
         4
  0.00000e+00  0.00000e+00 -7.27662e-02
         5
  0.00000e+00  0.00000e+00  6.14741e-02
         6
  0.00000e+00  0.00000e+00 -2.18935e-01
         7
  0.00000e+00  0.00000e+00  2.79200e-01
         8
  0.00000e+00  0.00000e+00 -2.67990e-01
         9
  0.00000e+00  0.00000e+00  1.88646e-01
        10
  0.00000e+00  0.00000e+00 -1.40345e-01
        11
  0.00000e+00  0.00000e+00 -5.33881e-03
        12
  0.00000e+00  0.00000e+00 -1.28258e-02
        13
  0.00000e+00  0.00000e+00  2.41216e-01
        14
  0.00000e+00  0.00000e+00 -2.41969e-01
        15
  0.00000e+00  0.00000e+00  1.56700e-01
        16
  0.00000e+00  0.00000e+00 -5.15267e-02
        17
  0.00000e+00  0.00000e+00  5.71873e-02
        18
  0.00000e+00  0.00000e+00 -3.52081e-01
        19
  0.00000e+00  0.00000e+00  3.24647e-01
        20
  0.00000e+00  0.00000e+00 -3.84816e-01
        21
  0.00000e+00  0.00000e+00  2.83904e-01
        22
  0.00000e+00  0.00000e+00 -2.02586e-01
        23
  0.00000e+00  0.00000e+00  1.99213e-02
        24
  0.00000e+00  0.00000e+00 -6.08315e-03
    -1
    -1
    55                                                                          
Mode 7                                                                          
EMA                                                                             
Acceleration shapes (Uz only)                                                   
LoadCase 1                                                                      
                                                                                
         1         2         2        12         2         3
         2         4         1         7
  4.61194e+01  0.00000e+00  0.00000e+00  0.00000e+00
         1
  0.00000e+00  0.00000e+00 -9.37077e-03
         2
  0.00000e+00  0.00000e+00  5.26939e-01
         3
  0.00000e+00  0.00000e+00  1.20001e-01
         4
  0.00000e+00  0.00000e+00  2.59980e-01
         5
  0.00000e+00  0.00000e+00  2.20095e-01
         6
  0.00000e+00  0.00000e+00 -9.27257e-02
         7
  0.00000e+00  0.00000e+00 -2.37181e-01
         8
  0.00000e+00  0.00000e+00 -1.76052e-01
         9
  0.00000e+00  0.00000e+00 -1.12720e-01
        10
  0.00000e+00  0.00000e+00 -1.23784e-01
        11
  0.00000e+00  0.00000e+00  9.89317e-02
        12
  0.00000e+00  0.00000e+00  4.08380e-02
        13
  0.00000e+00  0.00000e+00 -6.81733e-02
        14
  0.00000e+00  0.00000e+00  5.57541e-01
        15
  0.00000e+00  0.00000e+00 -2.01016e-01
        16
  0.00000e+00  0.00000e+00  6.39219e-02
        17
  0.00000e+00  0.00000e+00  1.14440e-01
        18
  0.00000e+00  0.00000e+00 -9.13331e-02
        19
  0.00000e+00  0.00000e+00 -2.12644e-01
        20
  0.00000e+00  0.00000e+00 -5.18226e-02
        21
  0.00000e+00  0.00000e+00 -9.73857e-02
        22
  0.00000e+00  0.00000e+00 -4.35297e-02
        23
  0.00000e+00  0.00000e+00  1.15148e-01
        24
  0.00000e+00  0.00000e+00  5.01285e-02
    -1
    -1
    55                                                                          
Mode 8                                                                          
EMA                                                                             
Acceleration shapes (Uz only)                                                   
LoadCase 1                                                                      
                                                                                
         1         2         2        12         2         3
         2         4         1         8
  5.86255e+01  0.00000e+00  0.00000e+00  0.00000e+00
         1
  0.00000e+00  0.00000e+00 -4.55775e-02
         2
  0.00000e+00  0.00000e+00 -1.67573e-01
         3
  0.00000e+00  0.00000e+00  2.13462e-02
         4
  0.00000e+00  0.00000e+00  5.32828e-02
         5
  0.00000e+00  0.00000e+00  4.86851e-02
         6
  0.00000e+00  0.00000e+00  5.24412e-01
         7
  0.00000e+00  0.00000e+00 -5.59719e-02
         8
  0.00000e+00  0.00000e+00  3.83712e-01
         9
  0.00000e+00  0.00000e+00 -1.50704e-01
        10
  0.00000e+00  0.00000e+00  1.15579e-01
        11
  0.00000e+00  0.00000e+00 -8.57540e-03
        12
  0.00000e+00  0.00000e+00  8.48057e-03
        13
  0.00000e+00  0.00000e+00  2.52629e-02
        14
  0.00000e+00  0.00000e+00 -3.09659e-01
        15
  0.00000e+00  0.00000e+00  2.73181e-02
        16
  0.00000e+00  0.00000e+00  1.16208e-02
        17
  0.00000e+00  0.00000e+00  1.07478e-01
        18
  0.00000e+00  0.00000e+00  5.19593e-01
        19
  0.00000e+00  0.00000e+00 -6.25374e-02
        20
  0.00000e+00  0.00000e+00  2.94489e-01
        21
  0.00000e+00  0.00000e+00 -1.79042e-01
        22
  0.00000e+00  0.00000e+00  1.82259e-02
        23
  0.00000e+00  0.00000e+00 -2.31831e-02
        24
  0.00000e+00  0.00000e+00 -9.41561e-03
    -1
    -1
    55                                                                          
Mode 9                                                                          
EMA                                                                             
Acceleration shapes (Uz only)                                                   
LoadCase 1                                                                      
                                                                                
         1         2         2        12         2         3
         2         4         1         9
  6.69040e+01  0.00000e+00  0.00000e+00  0.00000e+00
         1
  0.00000e+00  0.00000e+00  1.14536e-01
         2
  0.00000e+00  0.00000e+00 -4.24804e-01
         3
  0.00000e+00  0.00000e+00  1.20900e-01
         4
  0.00000e+00  0.00000e+00 -1.04130e-01
         5
  0.00000e+00  0.00000e+00  2.22950e-01
         6
  0.00000e+00  0.00000e+00 -1.35390e-01
         7
  0.00000e+00  0.00000e+00 -1.85604e-02
         8
  0.00000e+00  0.00000e+00 -1.93570e-01
         9
  0.00000e+00  0.00000e+00 -1.54893e-01
        10
  0.00000e+00  0.00000e+00 -1.03396e-01
        11
  0.00000e+00  0.00000e+00  6.39300e-03
        12
  0.00000e+00  0.00000e+00  7.47152e-03
        13
  0.00000e+00  0.00000e+00  2.19771e-01
        14
  0.00000e+00  0.00000e+00 -5.24058e-01
        15
  0.00000e+00  0.00000e+00  1.74947e-01
        16
  0.00000e+00  0.00000e+00 -1.52557e-01
        17
  0.00000e+00  0.00000e+00  2.69225e-01
        18
  0.00000e+00  0.00000e+00 -3.06362e-01
        19
  0.00000e+00  0.00000e+00  3.69621e-02
        20
  0.00000e+00  0.00000e+00 -2.61850e-01
        21
  0.00000e+00  0.00000e+00 -1.33673e-01
        22
  0.00000e+00  0.00000e+00 -9.63828e-02
        23
  0.00000e+00  0.00000e+00 -8.40346e-03
        24
  0.00000e+00  0.00000e+00  4.00307e-03
    -1
