    -1
    15
         1         0         0         0      7.81760     -4.63530      0.63576
         2         0         0         0      9.70720     -4.63530      0.73676
         3         0         0         0      9.02168     -4.53370      0.69505
         4         0         0         0      9.37747     -4.53370      0.69810
         5         0         0         0      8.56214     -3.82250      0.69839
         6         0         0         0      9.24877     -3.82250      0.69834
         7         0         0         0      8.12068     -3.06050      0.70675
         8         0         0         0      9.10008     -3.06050      0.70036
         9         0         0         0      7.43669     -2.01910      0.71479
        10         0         0         0      8.88655     -1.99370      0.70320
        11         0         0         0      7.48304     -1.08778      0.75700
        12         0         0         0      8.36919     -1.08570      0.73723
        13         0         0         0      7.81760      4.63530      0.63576
        14         0         0         0      9.70720      4.63530      0.73676
        15         0         0         0      9.02168      4.53370      0.69505
        16         0         0         0      9.37747      4.53370      0.69810
        17         0         0         0      8.56214      3.82250      0.69839
        18         0         0         0      9.24877      3.82250      0.69834
        19         0         0         0      8.12068      3.06050      0.70675
        20         0         0         0      9.10008      3.06050      0.70036
        21         0         0         0      7.43669      2.01910      0.71479
        22         0         0         0      8.88655      1.99370      0.70320
        23         0         0         0      7.48304      1.08778      0.75700
        24         0         0         0      8.36919      1.08570      0.73723
    -1
    -1
    55                                                                          
Mode 1                                                                          
EMA                                                                             
Acceleration shapes (Uz only)                                                   
LoadCase 1                                                                      
                                                                                
         1         2         2        12         2         3
         2         4         1         1
  7.20406e+00  0.00000e+00  0.00000e+00  0.00000e+00
         1
  0.00000e+00  0.00000e+00 -4.43372e-01
         2
  0.00000e+00  0.00000e+00  4.07679e-01
         3
  0.00000e+00  0.00000e+00  1.29625e-01
         4
  0.00000e+00  0.00000e+00  2.53532e-01
         5
  0.00000e+00  0.00000e+00  8.88935e-02
         6
  0.00000e+00  0.00000e+00  1.73862e-01
         7
  0.00000e+00  0.00000e+00  8.41316e-02
         8
  0.00000e+00  0.00000e+00  1.18559e-01
         9
  0.00000e+00  0.00000e+00  5.43808e-02
        10
  0.00000e+00  0.00000e+00  6.75477e-02
        11
  0.00000e+00  0.00000e+00  3.35955e-02
        12
  0.00000e+00  0.00000e+00  3.23796e-02
        13
  0.00000e+00  0.00000e+00  4.70831e-01
        14
  0.00000e+00  0.00000e+00 -3.76259e-01
        15
  0.00000e+00  0.00000e+00 -1.04409e-01
        16
  0.00000e+00  0.00000e+00 -2.28509e-01
        17
  0.00000e+00  0.00000e+00 -8.24965e-02
        18
  0.00000e+00  0.00000e+00 -1.55306e-01
        19
  0.00000e+00  0.00000e+00 -8.04369e-02
        20
  0.00000e+00  0.00000e+00 -1.13669e-01
        21
  0.00000e+00  0.00000e+00 -5.91674e-02
        22
  0.00000e+00  0.00000e+00 -6.85055e-02
        23
  0.00000e+00  0.00000e+00 -3.33798e-02
        24
  0.00000e+00  0.00000e+00 -3.43756e-02
    -1
    -1
    55                                                                          
Mode 2                                                                          
EMA                                                                             
Acceleration shapes (Uz only)                                                   
LoadCase 1                                                                      
                                                                                
         1         2         2        12         2         3
         2         4         1         2
  1.06472e+01  0.00000e+00  0.00000e+00  0.00000e+00
         1
  0.00000e+00  0.00000e+00 -1.22162e-02
         2
  0.00000e+00  0.00000e+00  4.91989e-01
         3
  0.00000e+00  0.00000e+00  2.65331e-01
         4
  0.00000e+00  0.00000e+00  3.29633e-01
         5
  0.00000e+00  0.00000e+00  2.48491e-02
         6
  0.00000e+00  0.00000e+00  3.46292e-02
         7
  0.00000e+00  0.00000e+00 -1.18546e-01
         8
  0.00000e+00  0.00000e+00 -6.65038e-02
         9
  0.00000e+00  0.00000e+00 -1.34865e-01
        10
  0.00000e+00  0.00000e+00 -9.69705e-02
        11
  0.00000e+00  0.00000e+00 -8.94639e-02
        12
  0.00000e+00  0.00000e+00 -8.22783e-02
        13
  0.00000e+00  0.00000e+00  1.03301e-02
        14
  0.00000e+00  0.00000e+00 -5.15696e-01
        15
  0.00000e+00  0.00000e+00 -2.60565e-01
        16
  0.00000e+00  0.00000e+00 -3.44027e-01
        17
  0.00000e+00  0.00000e+00  3.45235e-03
        18
  0.00000e+00  0.00000e+00 -3.36104e-02
        19
  0.00000e+00  0.00000e+00  1.37239e-01
        20
  0.00000e+00  0.00000e+00  5.34694e-02
        21
  0.00000e+00  0.00000e+00  1.42148e-01
        22
  0.00000e+00  0.00000e+00  8.91291e-02
        23
  0.00000e+00  0.00000e+00  8.14827e-02
        24
  0.00000e+00  0.00000e+00  7.84782e-02
    -1
    -1
    55                                                                          
Mode 3                                                                          
EMA                                                                             
Acceleration shapes (Uz only)                                                   
LoadCase 1                                                                      
                                                                                
         1         2         2        12         2         3
         2         4         1         3
  1.60750e+01  0.00000e+00  0.00000e+00  0.00000e+00
         1
  0.00000e+00  0.00000e+00  1.15798e-01
         2
  0.00000e+00  0.00000e+00  3.28908e-01
         3
  0.00000e+00  0.00000e+00  3.56809e-02
         4
  0.00000e+00  0.00000e+00  1.57650e-01
         5
  0.00000e+00  0.00000e+00 -4.26248e-01
         6
  0.00000e+00  0.00000e+00 -2.22859e-01
         7
  0.00000e+00  0.00000e+00 -2.96657e-01
         8
  0.00000e+00  0.00000e+00 -2.28839e-01
         9
  0.00000e+00  0.00000e+00 -1.26738e-01
        10
  0.00000e+00  0.00000e+00 -1.37844e-01
        11
  0.00000e+00  0.00000e+00 -8.52417e-02
        12
  0.00000e+00  0.00000e+00 -7.38092e-02
        13
  0.00000e+00  0.00000e+00 -1.08291e-01
        14
  0.00000e+00  0.00000e+00 -2.50555e-01
        15
  0.00000e+00  0.00000e+00 -4.08792e-02
        16
  0.00000e+00  0.00000e+00 -1.33622e-01
        17
  0.00000e+00  0.00000e+00  4.35518e-01
        18
  0.00000e+00  0.00000e+00  1.98567e-01
        19
  0.00000e+00  0.00000e+00  2.41860e-01
        20
  0.00000e+00  0.00000e+00  1.02495e-01
        21
  0.00000e+00  0.00000e+00  1.11915e-01
        22
  0.00000e+00  0.00000e+00  6.95001e-02
        23
  0.00000e+00  0.00000e+00  1.22055e-01
        24
  0.00000e+00  0.00000e+00  9.16026e-02
    -1
    -1
    55                                                                          
Mode 4                                                                          
EMA                                                                             
Acceleration shapes (Uz only)                                                   
LoadCase 1                                                                      
                                                                                
         1         2         2        12         2         3
         2         4         1         4
  1.73254e+01  0.00000e+00  0.00000e+00  0.00000e+00
         1
  0.00000e+00  0.00000e+00  2.48389e-01
         2
  0.00000e+00  0.00000e+00  2.76474e-01
         3
  0.00000e+00  0.00000e+00 -6.67430e-02
         4
  0.00000e+00  0.00000e+00  1.06442e-01
         5
  0.00000e+00  0.00000e+00 -6.07334e-01
         6
  0.00000e+00  0.00000e+00 -9.45103e-02
         7
  0.00000e+00  0.00000e+00 -8.55132e-02
         8
  0.00000e+00  0.00000e+00 -5.41781e-02
         9
  0.00000e+00  0.00000e+00  1.26615e-01
        10
  0.00000e+00  0.00000e+00 -7.29677e-03
        11
  0.00000e+00  0.00000e+00  1.02845e-02
        12
  0.00000e+00  0.00000e+00 -9.45821e-03
        13
  0.00000e+00  0.00000e+00 -2.21657e-01
        14
  0.00000e+00  0.00000e+00  1.86118e-02
        15
  0.00000e+00  0.00000e+00  8.20722e-02
        16
  0.00000e+00  0.00000e+00  3.52292e-02
        17
  0.00000e+00  0.00000e+00  4.89132e-01
        18
  0.00000e+00  0.00000e+00  1.76536e-02
        19
  0.00000e+00  0.00000e+00 -1.43920e-01
        20
  0.00000e+00  0.00000e+00 -2.02808e-01
        21
  0.00000e+00  0.00000e+00 -2.32154e-01
        22
  0.00000e+00  0.00000e+00 -1.55946e-01
        23
  0.00000e+00  0.00000e+00  5.50121e-02
        24
  0.00000e+00  0.00000e+00  4.07974e-02
    -1
    -1
    55                                                                          
Mode 5                                                                          
EMA                                                                             
Acceleration shapes (Uz only)                                                   
LoadCase 1                                                                      
                                                                                
         1         2         2        12         2         3
         2         4         1         5
  1.86165e+01  0.00000e+00  0.00000e+00  0.00000e+00
         1
  0.00000e+00  0.00000e+00  1.91906e-01
         2
  0.00000e+00  0.00000e+00 -8.76269e-02
         3
  0.00000e+00  0.00000e+00 -3.59227e-02
         4
  0.00000e+00  0.00000e+00  6.58127e-02
         5
  0.00000e+00  0.00000e+00 -1.34098e-01
         6
  0.00000e+00  0.00000e+00  3.45149e-01
         7
  0.00000e+00  0.00000e+00  2.61739e-01
         8
  0.00000e+00  0.00000e+00  2.97192e-01
         9
  0.00000e+00  0.00000e+00  2.04137e-01
        10
  0.00000e+00  0.00000e+00  1.52929e-01
        11
  0.00000e+00  0.00000e+00  5.35502e-02
        12
  0.00000e+00  0.00000e+00  4.70266e-02
        13
  0.00000e+00  0.00000e+00 -1.66000e-01
        14
  0.00000e+00  0.00000e+00  2.60770e-01
        15
  0.00000e+00  0.00000e+00  3.34049e-02
        16
  0.00000e+00  0.00000e+00  2.82005e-02
        17
  0.00000e+00  0.00000e+00  2.91276e-02
        18
  0.00000e+00  0.00000e+00 -3.25262e-01
        19
  0.00000e+00  0.00000e+00 -3.85777e-01
        20
  0.00000e+00  0.00000e+00 -3.53312e-01
        21
  0.00000e+00  0.00000e+00 -2.58822e-01
        22
  0.00000e+00  0.00000e+00 -2.01432e-01
        23
  0.00000e+00  0.00000e+00 -1.01230e-02
        24
  0.00000e+00  0.00000e+00 -1.90246e-02
    -1
    -1
    55                                                                          
Mode 6                                                                          
EMA                                                                             
Acceleration shapes (Uz only)                                                   
LoadCase 1                                                                      
                                                                                
         1         2         2        12         2         3
         2         4         1         6
  2.24549e+01  0.00000e+00  0.00000e+00  0.00000e+00
         1
  0.00000e+00  0.00000e+00  1.25019e-01
         2
  0.00000e+00  0.00000e+00 -5.91439e-02
         3
  0.00000e+00  0.00000e+00  9.35899e-02
         4
  0.00000e+00  0.00000e+00  6.41709e-02
         5
  0.00000e+00  0.00000e+00  2.88994e-01
         6
  0.00000e+00  0.00000e+00  3.15787e-01
         7
  0.00000e+00  0.00000e+00  2.79300e-01
         8
  0.00000e+00  0.00000e+00  2.85166e-01
         9
  0.00000e+00  0.00000e+00  9.35868e-02
        10
  0.00000e+00  0.00000e+00  1.17975e-01
        11
  0.00000e+00  0.00000e+00  2.62056e-03
        12
  0.00000e+00  0.00000e+00  9.02442e-03
        13
  0.00000e+00  0.00000e+00 -1.44896e-01
        14
  0.00000e+00  0.00000e+00  1.54101e-01
        15
  0.00000e+00  0.00000e+00 -8.29717e-02
        16
  0.00000e+00  0.00000e+00 -2.98465e-02
        17
  0.00000e+00  0.00000e+00 -3.72911e-01
        18
  0.00000e+00  0.00000e+00 -3.80268e-01
        19
  0.00000e+00  0.00000e+00 -3.37651e-01
        20
  0.00000e+00  0.00000e+00 -3.44685e-01
        21
  0.00000e+00  0.00000e+00 -1.12053e-01
        22
  0.00000e+00  0.00000e+00 -1.44819e-01
        23
  0.00000e+00  0.00000e+00  1.16093e-02
        24
  0.00000e+00  0.00000e+00 -7.29585e-04
    -1
    -1
    55                                                                          
Mode 7                                                                          
EMA                                                                             
Acceleration shapes (Uz only)                                                   
LoadCase 1                                                                      
                                                                                
         1         2         2        12         2         3
         2         4         1         7
  2.45249e+01  0.00000e+00  0.00000e+00  0.00000e+00
         1
  0.00000e+00  0.00000e+00 -4.14004e-02
         2
  0.00000e+00  0.00000e+00  1.77407e-01
         3
  0.00000e+00  0.00000e+00  3.48248e-02
         4
  0.00000e+00  0.00000e+00 -5.94174e-02
         5
  0.00000e+00  0.00000e+00 -1.31451e-01
         6
  0.00000e+00  0.00000e+00 -3.92669e-01
         7
  0.00000e+00  0.00000e+00 -1.65656e-01
         8
  0.00000e+00  0.00000e+00 -2.98741e-01
         9
  0.00000e+00  0.00000e+00 -1.54282e-03
        10
  0.00000e+00  0.00000e+00 -5.60118e-02
        11
  0.00000e+00  0.00000e+00  2.42570e-02
        12
  0.00000e+00  0.00000e+00  3.85348e-02
        13
  0.00000e+00  0.00000e+00  5.75840e-02
        14
  0.00000e+00  0.00000e+00 -2.52040e-01
        15
  0.00000e+00  0.00000e+00 -1.05967e-02
        16
  0.00000e+00  0.00000e+00  5.20576e-02
        17
  0.00000e+00  0.00000e+00  3.14071e-01
        18
  0.00000e+00  0.00000e+00  4.87386e-01
        19
  0.00000e+00  0.00000e+00  3.04873e-01
        20
  0.00000e+00  0.00000e+00  3.88279e-01
        21
  0.00000e+00  0.00000e+00  5.69540e-02
        22
  0.00000e+00  0.00000e+00  1.08029e-01
        23
  0.00000e+00  0.00000e+00 -3.68380e-02
        24
  0.00000e+00  0.00000e+00 -5.36007e-02
    -1
    -1
    55                                                                          
Mode 8                                                                          
EMA                                                                             
Acceleration shapes (Uz only)                                                   
LoadCase 1                                                                      
                                                                                
         1         2         2        12         2         3
         2         4         1         8
  2.71498e+01  0.00000e+00  0.00000e+00  0.00000e+00
         1
  0.00000e+00  0.00000e+00 -1.98748e-01
         2
  0.00000e+00  0.00000e+00 -1.61898e-02
         3
  0.00000e+00  0.00000e+00 -1.62123e-01
         4
  0.00000e+00  0.00000e+00 -1.66247e-01
         5
  0.00000e+00  0.00000e+00 -2.80273e-01
         6
  0.00000e+00  0.00000e+00 -4.20076e-01
         7
  0.00000e+00  0.00000e+00 -1.90161e-01
         8
  0.00000e+00  0.00000e+00 -2.95637e-01
         9
  0.00000e+00  0.00000e+00  6.29897e-02
        10
  0.00000e+00  0.00000e+00 -5.18161e-02
        11
  0.00000e+00  0.00000e+00  9.22364e-02
        12
  0.00000e+00  0.00000e+00  6.43723e-02
        13
  0.00000e+00  0.00000e+00  2.22949e-01
        14
  0.00000e+00  0.00000e+00 -5.12188e-02
        15
  0.00000e+00  0.00000e+00  1.62468e-01
        16
  0.00000e+00  0.00000e+00  1.40851e-01
        17
  0.00000e+00  0.00000e+00  3.14286e-01
        18
  0.00000e+00  0.00000e+00  4.13158e-01
        19
  0.00000e+00  0.00000e+00  2.03326e-01
        20
  0.00000e+00  0.00000e+00  2.82491e-01
        21
  0.00000e+00  0.00000e+00 -5.08067e-02
        22
  0.00000e+00  0.00000e+00  5.06957e-02
        23
  0.00000e+00  0.00000e+00 -9.63774e-02
        24
  0.00000e+00  0.00000e+00 -6.93457e-02
    -1
    -1
    55                                                                          
Mode 9                                                                          
EMA                                                                             
Acceleration shapes (Uz only)                                                   
LoadCase 1                                                                      
                                                                                
         1         2         2        12         2         3
         2         4         1         9
  2.90473e+01  0.00000e+00  0.00000e+00  0.00000e+00
         1
  0.00000e+00  0.00000e+00  8.87016e-02
         2
  0.00000e+00  0.00000e+00 -3.05097e-02
         3
  0.00000e+00  0.00000e+00  1.46065e-01
         4
  0.00000e+00  0.00000e+00  1.27320e-01
         5
  0.00000e+00  0.00000e+00  2.10240e-01
         6
  0.00000e+00  0.00000e+00  3.30278e-01
         7
  0.00000e+00  0.00000e+00  1.36971e-01
         8
  0.00000e+00  0.00000e+00  1.35011e-01
         9
  0.00000e+00  0.00000e+00 -8.45829e-02
        10
  0.00000e+00  0.00000e+00 -7.85410e-02
        11
  0.00000e+00  0.00000e+00 -7.89866e-02
        12
  0.00000e+00  0.00000e+00 -1.06996e-01
        13
  0.00000e+00  0.00000e+00 -2.93152e-01
        14
  0.00000e+00  0.00000e+00  4.25625e-02
        15
  0.00000e+00  0.00000e+00 -2.66259e-01
        16
  0.00000e+00  0.00000e+00 -1.89797e-01
        17
  0.00000e+00  0.00000e+00 -4.37867e-01
        18
  0.00000e+00  0.00000e+00 -4.49623e-01
        19
  0.00000e+00  0.00000e+00 -2.58208e-01
        20
  0.00000e+00  0.00000e+00 -1.93741e-01
        21
  0.00000e+00  0.00000e+00  6.57362e-02
        22
  0.00000e+00  0.00000e+00  7.36649e-02
        23
  0.00000e+00  0.00000e+00  1.05995e-01
        24
  0.00000e+00  0.00000e+00  1.36483e-01
    -1
    -1
    55                                                                          
Mode 10                                                                         
EMA                                                                             
Acceleration shapes (Uz only)                                                   
LoadCase 1                                                                      
                                                                                
         1         2         2        12         2         3
         2         4         1        10
  3.12492e+01  0.00000e+00  0.00000e+00  0.00000e+00
         1
  0.00000e+00  0.00000e+00  5.02625e-01
         2
  0.00000e+00  0.00000e+00  3.60443e-01
         3
  0.00000e+00  0.00000e+00  2.92897e-01
         4
  0.00000e+00  0.00000e+00  3.71197e-01
         5
  0.00000e+00  0.00000e+00  2.22122e-02
         6
  0.00000e+00  0.00000e+00  3.24342e-01
         7
  0.00000e+00  0.00000e+00  2.78855e-03
         8
  0.00000e+00  0.00000e+00  1.27629e-01
         9
  0.00000e+00  0.00000e+00 -8.86613e-02
        10
  0.00000e+00  0.00000e+00 -2.17948e-02
        11
  0.00000e+00  0.00000e+00 -9.48522e-02
        12
  0.00000e+00  0.00000e+00 -8.34856e-02
        13
  0.00000e+00  0.00000e+00 -2.71741e-01
        14
  0.00000e+00  0.00000e+00 -9.72281e-02
        15
  0.00000e+00  0.00000e+00 -1.34691e-01
        16
  0.00000e+00  0.00000e+00 -1.94441e-01
        17
  0.00000e+00  0.00000e+00  4.35661e-02
        18
  0.00000e+00  0.00000e+00 -2.54045e-01
        19
  0.00000e+00  0.00000e+00 -2.44479e-02
        20
  0.00000e+00  0.00000e+00 -1.45413e-01
        21
  0.00000e+00  0.00000e+00  5.95718e-02
        22
  0.00000e+00  0.00000e+00 -9.12228e-04
        23
  0.00000e+00  0.00000e+00  9.77942e-02
        24
  0.00000e+00  0.00000e+00  8.39296e-02
    -1
    -1
    55                                                                          
Mode 11                                                                         
EMA                                                                             
Acceleration shapes (Uz only)                                                   
LoadCase 1                                                                      
                                                                                
         1         2         2        12         2         3
         2         4         1        11
  3.74552e+01  0.00000e+00  0.00000e+00  0.00000e+00
         1
  0.00000e+00  0.00000e+00 -2.46310e-01
         2
  0.00000e+00  0.00000e+00 -1.98276e-01
         3
  0.00000e+00  0.00000e+00 -1.39005e-01
         4
  0.00000e+00  0.00000e+00 -1.87506e-01
         5
  0.00000e+00  0.00000e+00  3.15589e-02
         6
  0.00000e+00  0.00000e+00 -3.43804e-02
         7
  0.00000e+00  0.00000e+00  1.59928e-01
         8
  0.00000e+00  0.00000e+00  3.86288e-02
         9
  0.00000e+00  0.00000e+00  7.96135e-02
        10
  0.00000e+00  0.00000e+00  2.82678e-03
        11
  0.00000e+00  0.00000e+00 -5.42850e-03
        12
  0.00000e+00  0.00000e+00 -2.25235e-02
        13
  0.00000e+00  0.00000e+00  5.69965e-01
        14
  0.00000e+00  0.00000e+00  3.61818e-01
        15
  0.00000e+00  0.00000e+00  2.79477e-01
        16
  0.00000e+00  0.00000e+00  3.78432e-01
        17
  0.00000e+00  0.00000e+00 -8.81358e-02
        18
  0.00000e+00  0.00000e+00  1.00768e-01
        19
  0.00000e+00  0.00000e+00 -2.85697e-01
        20
  0.00000e+00  0.00000e+00 -7.65556e-02
        21
  0.00000e+00  0.00000e+00 -1.57448e-01
        22
  0.00000e+00  0.00000e+00 -3.50506e-02
        23
  0.00000e+00  0.00000e+00  6.50150e-03
        24
  0.00000e+00  0.00000e+00  2.91577e-02
    -1
    -1
    55                                                                          
Mode 12                                                                         
EMA                                                                             
Acceleration shapes (Uz only)                                                   
LoadCase 1                                                                      
                                                                                
         1         2         2        12         2         3
         2         4         1        12
  4.27581e+01  0.00000e+00  0.00000e+00  0.00000e+00
         1
  0.00000e+00  0.00000e+00  2.74343e-01
         2
  0.00000e+00  0.00000e+00  1.24676e-01
         3
  0.00000e+00  0.00000e+00  3.55424e-01
         4
  0.00000e+00  0.00000e+00  2.66958e-01
         5
  0.00000e+00  0.00000e+00  2.73575e-01
         6
  0.00000e+00  0.00000e+00 -1.56562e-01
         7
  0.00000e+00  0.00000e+00  2.16414e-02
         8
  0.00000e+00  0.00000e+00 -4.33506e-01
         9
  0.00000e+00  0.00000e+00 -4.75337e-02
        10
  0.00000e+00  0.00000e+00 -3.09019e-01
        11
  0.00000e+00  0.00000e+00  6.48088e-03
        12
  0.00000e+00  0.00000e+00 -2.15400e-02
        13
  0.00000e+00  0.00000e+00 -9.80049e-02
        14
  0.00000e+00  0.00000e+00  6.82982e-02
        15
  0.00000e+00  0.00000e+00 -1.05382e-01
        16
  0.00000e+00  0.00000e+00 -5.38364e-03
        17
  0.00000e+00  0.00000e+00 -2.86994e-01
        18
  0.00000e+00  0.00000e+00  1.97707e-01
        19
  0.00000e+00  0.00000e+00 -1.47756e-01
        20
  0.00000e+00  0.00000e+00  3.15852e-01
        21
  0.00000e+00  0.00000e+00 -4.09372e-02
        22
  0.00000e+00  0.00000e+00  2.33738e-01
        23
  0.00000e+00  0.00000e+00 -2.74378e-02
        24
  0.00000e+00  0.00000e+00  8.76787e-03
    -1
    -1
    55                                                                          
Mode 13                                                                         
EMA                                                                             
Acceleration shapes (Uz only)                                                   
LoadCase 1                                                                      
                                                                                
         1         2         2        12         2         3
         2         4         1        13
  4.61219e+01  0.00000e+00  0.00000e+00  0.00000e+00
         1
  0.00000e+00  0.00000e+00  2.76607e-01
         2
  0.00000e+00  0.00000e+00  2.68883e-01
         3
  0.00000e+00  0.00000e+00  2.83661e-01
         4
  0.00000e+00  0.00000e+00  3.06129e-01
         5
  0.00000e+00  0.00000e+00 -4.77940e-02
         6
  0.00000e+00  0.00000e+00 -8.79199e-02
         7
  0.00000e+00  0.00000e+00 -3.29114e-01
         8
  0.00000e+00  0.00000e+00 -1.09652e-01
         9
  0.00000e+00  0.00000e+00  3.09191e-02
        10
  0.00000e+00  0.00000e+00  7.56364e-02
        11
  0.00000e+00  0.00000e+00  1.26663e-01
        12
  0.00000e+00  0.00000e+00  9.02206e-02
        13
  0.00000e+00  0.00000e+00 -4.45621e-01
        14
  0.00000e+00  0.00000e+00 -2.50129e-01
        15
  0.00000e+00  0.00000e+00  1.89398e-01
        16
  0.00000e+00  0.00000e+00  5.16104e-02
        17
  0.00000e+00  0.00000e+00  2.25540e-01
        18
  0.00000e+00  0.00000e+00  1.89760e-01
        19
  0.00000e+00  0.00000e+00  1.98138e-01
        20
  0.00000e+00  0.00000e+00 -5.33335e-02
        21
  0.00000e+00  0.00000e+00 -1.24801e-01
        22
  0.00000e+00  0.00000e+00 -2.05380e-01
        23
  0.00000e+00  0.00000e+00 -1.36935e-01
        24
  0.00000e+00  0.00000e+00 -1.03114e-01
    -1
    -1
    55                                                                          
Mode 14                                                                         
EMA                                                                             
Acceleration shapes (Uz only)                                                   
LoadCase 1                                                                      
                                                                                
         1         2         2        12         2         3
         2         4         1        14
  5.06345e+01  0.00000e+00  0.00000e+00  0.00000e+00
         1
  0.00000e+00  0.00000e+00  2.59008e-01
         2
  0.00000e+00  0.00000e+00  2.52229e-01
         3
  0.00000e+00  0.00000e+00  1.71815e-01
         4
  0.00000e+00  0.00000e+00  2.06254e-01
         5
  0.00000e+00  0.00000e+00 -1.80795e-01
         6
  0.00000e+00  0.00000e+00 -2.43921e-01
         7
  0.00000e+00  0.00000e+00 -2.89818e-01
         8
  0.00000e+00  0.00000e+00 -1.97108e-01
         9
  0.00000e+00  0.00000e+00  1.74066e-01
        10
  0.00000e+00  0.00000e+00  8.86480e-02
        11
  0.00000e+00  0.00000e+00  1.82040e-01
        12
  0.00000e+00  0.00000e+00  1.27607e-01
        13
  0.00000e+00  0.00000e+00  1.08463e-01
        14
  0.00000e+00  0.00000e+00 -3.04971e-01
        15
  0.00000e+00  0.00000e+00 -2.14199e-01
        16
  0.00000e+00  0.00000e+00 -2.90260e-01
        17
  0.00000e+00  0.00000e+00  1.99361e-01
        18
  0.00000e+00  0.00000e+00  9.06232e-02
        19
  0.00000e+00  0.00000e+00  3.52301e-01
        20
  0.00000e+00  0.00000e+00  1.11953e-01
        21
  0.00000e+00  0.00000e+00 -9.81937e-02
        22
  0.00000e+00  0.00000e+00 -1.00388e-01
        23
  0.00000e+00  0.00000e+00 -1.98513e-01
        24
  0.00000e+00  0.00000e+00 -1.26439e-01
    -1
    -1
    55                                                                          
Mode 15                                                                         
EMA                                                                             
Acceleration shapes (Uz only)                                                   
LoadCase 1                                                                      
                                                                                
         1         2         2        12         2         3
         2         4         1        15
  6.02699e+01  0.00000e+00  0.00000e+00  0.00000e+00
         1
  0.00000e+00  0.00000e+00  1.30354e-01
         2
  0.00000e+00  0.00000e+00 -2.74517e-02
         3
  0.00000e+00  0.00000e+00  6.20413e-02
         4
  0.00000e+00  0.00000e+00 -7.57832e-02
         5
  0.00000e+00  0.00000e+00  8.84255e-02
         6
  0.00000e+00  0.00000e+00 -5.54736e-01
         7
  0.00000e+00  0.00000e+00  1.73786e-02
         8
  0.00000e+00  0.00000e+00 -4.15638e-01
         9
  0.00000e+00  0.00000e+00  1.13566e-01
        10
  0.00000e+00  0.00000e+00 -1.13899e-01
        11
  0.00000e+00  0.00000e+00  2.46825e-02
        12
  0.00000e+00  0.00000e+00  1.09815e-03
        13
  0.00000e+00  0.00000e+00 -6.43378e-02
        14
  0.00000e+00  0.00000e+00 -9.19639e-02
        15
  0.00000e+00  0.00000e+00 -5.33302e-02
        16
  0.00000e+00  0.00000e+00  4.66509e-02
        17
  0.00000e+00  0.00000e+00 -2.77769e-02
        18
  0.00000e+00  0.00000e+00  5.53360e-01
        19
  0.00000e+00  0.00000e+00 -2.87428e-02
        20
  0.00000e+00  0.00000e+00  3.23622e-01
        21
  0.00000e+00  0.00000e+00 -1.52223e-01
        22
  0.00000e+00  0.00000e+00  1.12205e-02
        23
  0.00000e+00  0.00000e+00 -5.63217e-02
        24
  0.00000e+00  0.00000e+00 -3.08209e-02
    -1
    -1
    55                                                                          
Mode 16                                                                         
EMA                                                                             
Acceleration shapes (Uz only)                                                   
LoadCase 1                                                                      
                                                                                
         1         2         2        12         2         3
         2         4         1        16
  6.37939e+01  0.00000e+00  0.00000e+00  0.00000e+00
         1
  0.00000e+00  0.00000e+00 -5.58834e-02
         2
  0.00000e+00  0.00000e+00  2.11161e-01
         3
  0.00000e+00  0.00000e+00 -6.74057e-02
         4
  0.00000e+00  0.00000e+00  1.03257e-01
         5
  0.00000e+00  0.00000e+00 -1.97030e-01
         6
  0.00000e+00  0.00000e+00  3.16817e-01
         7
  0.00000e+00  0.00000e+00 -4.34732e-02
         8
  0.00000e+00  0.00000e+00  3.59400e-01
         9
  0.00000e+00  0.00000e+00  6.93749e-02
        10
  0.00000e+00  0.00000e+00  2.25897e-01
        11
  0.00000e+00  0.00000e+00  8.92696e-03
        12
  0.00000e+00  0.00000e+00  4.37384e-02
        13
  0.00000e+00  0.00000e+00  1.10052e-01
        14
  0.00000e+00  0.00000e+00 -2.45482e-01
        15
  0.00000e+00  0.00000e+00  1.03533e-01
        16
  0.00000e+00  0.00000e+00 -1.42420e-01
        17
  0.00000e+00  0.00000e+00  2.49244e-01
        18
  0.00000e+00  0.00000e+00 -4.93504e-01
        19
  0.00000e+00  0.00000e+00  1.04724e-01
        20
  0.00000e+00  0.00000e+00 -3.95564e-01
        21
  0.00000e+00  0.00000e+00 -6.06792e-02
        22
  0.00000e+00  0.00000e+00 -1.64501e-01
        23
  0.00000e+00  0.00000e+00 -2.81445e-02
        24
  0.00000e+00  0.00000e+00 -3.12845e-02
    -1
    -1
    55                                                                          
Mode 17                                                                         
EMA                                                                             
Acceleration shapes (Uz only)                                                   
LoadCase 1                                                                      
                                                                                
         1         2         2        12         2         3
         2         4         1        17
  7.54209e+01  0.00000e+00  0.00000e+00  0.00000e+00
         1
  0.00000e+00  0.00000e+00  2.76237e-01
         2
  0.00000e+00  0.00000e+00 -5.41110e-01
         3
  0.00000e+00  0.00000e+00  1.68865e-01
         4
  0.00000e+00  0.00000e+00 -4.87992e-02
         5
  0.00000e+00  0.00000e+00 -2.81528e-03
         6
  0.00000e+00  0.00000e+00  6.52088e-02
         7
  0.00000e+00  0.00000e+00 -8.34004e-02
         8
  0.00000e+00  0.00000e+00  4.19301e-02
         9
  0.00000e+00  0.00000e+00 -1.29585e-02
        10
  0.00000e+00  0.00000e+00  5.76112e-02
        11
  0.00000e+00  0.00000e+00  1.44490e-02
        12
  0.00000e+00  0.00000e+00  2.21413e-02
        13
  0.00000e+00  0.00000e+00 -3.61784e-01
        14
  0.00000e+00  0.00000e+00  6.09856e-01
        15
  0.00000e+00  0.00000e+00 -2.19829e-01
        16
  0.00000e+00  0.00000e+00  4.85113e-02
        17
  0.00000e+00  0.00000e+00  8.62877e-02
        18
  0.00000e+00  0.00000e+00 -3.71036e-02
        19
  0.00000e+00  0.00000e+00  9.24138e-02
        20
  0.00000e+00  0.00000e+00 -4.45486e-02
        21
  0.00000e+00  0.00000e+00 -2.78054e-02
        22
  0.00000e+00  0.00000e+00 -8.99336e-02
        23
  0.00000e+00  0.00000e+00 -1.70878e-02
        24
  0.00000e+00  0.00000e+00 -2.91021e-02
    -1
