    -1
   151
Unknown                                                                         
Unknown                                                                         
NX: Advanced Simulation                                                         
Unknown   Unknown            0         0         0
Unknown   Unknown   
NX: Correlation                                                                 
24-NOV-25   23:38:50 2412    1    0    0    0
    -1
    -1
   164
         1Meter (newton)               2
  1.00000000000000000D+00  1.00000000000000000D+00  1.00000000000000000D+00
  2.73149999999999977D+02
    -1
    -1
  2400
          13     7    -1           0
Fem1                                                                            
                                                                                
 0 0 0 0 0 0 0 0 0 0 0 0 0 0 0 0 0 0 0 0 0 0 0 0 0 0 0 0 0 0 0 0
24-NOV-25   23:38:50           0           0           0
           0
    -1
    -1
  2420
         1
Part1
         1         0         2
CS1
   1.0000000000000000D+00   0.0000000000000000D+00   0.0000000000000000D+00
   0.0000000000000000D+00   1.0000000000000000D+00   0.0000000000000000D+00
   0.0000000000000000D+00   0.0000000000000000D+00   1.0000000000000000D+00
   0.0000000000000000D+00   0.0000000000000000D+00   0.0000000000000000D+00
    -1
    -1
  2411
    121464         1         1        11
   7.7633977539062498D+00  -4.6349501953125003D+00   5.9896598510742183D-01
    121479         1         1        11
   9.7662650634765633D+00  -4.6349501953125003D+00   7.0601349334716790D-01
    126150         1         1        11
   7.4909513882562253D+00  -1.0741667407773539D+00   7.4128540321371361D-01
    127032         1         1        11
   8.3861453033007329D+00  -1.0920785407841458D+00   7.2874391085275392D-01
    129813         1         1        11
   8.5656689347244654D+00  -3.8111213984168755D+00   6.9914563100762928D-01
    130039         1         1        11
   9.0211216883366543D+00  -4.5241315656325600D+00   6.9534800882421632D-01
    130066         1         1        11
   9.2332402546547243D+00  -3.8177943888344319D+00   6.9910134570535176D-01
    130937         1         1        11
   9.3928190460087997D+00  -4.5197577996729503D+00   6.9750946620827758D-01
    131560         1         1        11
   8.1099279676167271D+00  -3.0434831234195618D+00   7.0689627574046965D-01
    131964         1         1        11
   9.0998983367384891D+00  -3.0465422571204837D+00   7.0021699626639800D-01
    159845         1         1        11
   7.4487767072902997D+00  -2.0175918461390450D+00   7.1562637418263941D-01
    160320         1         1        11
   8.8802468252267932D+00  -1.9924144139216009D+00   7.0361227683766414D-01
    185255         1         1        11
   7.7633977539062498D+00   4.6349501953125003D+00   5.9896598510742183D-01
    185270         1         1        11
   9.7662650634765633D+00   4.6349501953125003D+00   7.0601349334716790D-01
    185574         1         1        11
   7.4909513882562253D+00   1.0741667407773539D+00   7.4128540321371361D-01
    185906         1         1        11
   8.3861453033007329D+00   1.0920785407841458D+00   7.2874391085275392D-01 
    187401         1         1        11
   8.5656689347244654D+00   3.8111213984168755D+00   6.9914563100762928D-01
    187627         1         1        11
   9.0211216883366543D+00   4.5241315656325600D+00   6.9534800882421632D-01
    187654         1         1        11
   9.2332402546547243D+00   3.8177943888344319D+00   6.9910134570535176D-01
    189148         1         1        11
   8.1099279676167271D+00   3.0434831234195618D+00   7.0689627574046965D-01
    189552         1         1        11
   9.0998983367384891D+00   3.0465422571204837D+00   7.0021699626639800D-01
    192710         1         1        11
   9.3927219559900177D+00   4.5191951370287216D+00   6.7276369575045269D-01
    193875         1         1        11
   7.4487767072902997D+00   2.0175918461390450D+00   7.1562637418263941D-01
    194350         1         1        11
   8.8802468252267932D+00   1.9924144139216009D+00   7.0361227683766414D-01
    -1
    -1
    82
         1         2         4
Uz                                                                              
    121464    129813
    -1
    -1
    82
         2         2         4
Uz                                                                              
    121464    130039
    -1
    -1
    82
         3         2         4
Uz                                                                              
    121464    131560
    -1
    -1
    82
         4         2         4
Uz                                                                              
    121479    130066
    -1
    -1
    82
         5         2         4
Uz                                                                              
    121479    130937
    -1
    -1
    82
         6         2         4
Uz                                                                              
    126150    127032
    -1
    -1
    82
         7         2         4
Uz                                                                              
    126150    159845
    -1
    -1
    82
         8         2         4
Uz                                                                              
    126150    160320
    -1
    -1
    82
         9         2         4
Uz                                                                              
    127032    159845
    -1
    -1
    82
        10         2         4
Uz                                                                              
    127032    160320
    -1
    -1
    82
        11         2         4
Uz                                                                              
    129813    130039
    -1
    -1
    82
        12         2         4
Uz                                                                              
    129813    130066
    -1
    -1
    82
        13         2         4
Uz                                                                              
    129813    131560
    -1
    -1
    82
        14         2         4
Uz                                                                              
    130039    130066
    -1
    -1
    82
        15         2         4
Uz                                                                              
    130039    130937
    -1
    -1
    82
        16         2         4
Uz                                                                              
    130066    131964
    -1
    -1
    82
        17         2         4
Uz                                                                              
    131560    131964
    -1
    -1
    82
        18         2         4
Uz                                                                              
    131560    159845
    -1
    -1
    82
        19         2         4
Uz                                                                              
    131964    160320
    -1
    -1
    82
        20         2         4
Uz                                                                              
    159845    160320
    -1
    -1
    82
        21         2         4
Uz                                                                              
    185255    187401
    -1
    -1
    82
        22         2         4
Uz                                                                              
    185255    187627
    -1
    -1
    82
        23         2         4
Uz                                                                              
    185255    189148
    -1
    -1
    82
        24         2         4
Uz                                                                              
    185270    187654
    -1
    -1
    82
        25         2         4
Uz                                                                              
    185270    192710
    -1
    -1
    82
        26         2         4
Uz                                                                              
    185574    185906
    -1
    -1
    82
        27         2         4
Uz                                                                              
    185574    193875
    -1
    -1
    82
        28         2         4
Uz                                                                              
    185574    194350
    -1
    -1
    82
        29         2         4
Uz                                                                              
    185906    193875
    -1
    -1
    82
        30         2         4
Uz                                                                              
    185906    194350
    -1
    -1
    82
        31         2         4
Uz                                                                              
    187401    187627
    -1
    -1
    82
        32         2         4
Uz                                                                              
    187401    187654
    -1
    -1
    82
        33         2         4
Uz                                                                              
    187401    189148
    -1
    -1
    82
        34         2         4
Uz                                                                              
    187627    187654
    -1
    -1
    82
        35         2         4
Uz                                                                              
    187627    192710
    -1
    -1
    82
        36         2         4
Uz                                                                              
    187654    189552
    -1
    -1
    82
        37         2         4
Uz                                                                              
    189148    189552
    -1
    -1
    82
        38         2         4
Uz                                                                              
    189148    193875
    -1
    -1
    82
        39         2         4
Uz                                                                              
    189552    194350
    -1
    -1
    82
        40         2         4
Uz                                                                              
    193875    194350
    -1
    -1
  2414
         1
Mode shape record 1
         1
NONE
NONE
NONE
NONE
NONE
         1         2         2         8         2         3
         0         0         1         0         0         1         0         0
         0         0
  0.00000E+00  7.20406E+00  0.00000E+00  1.00000E+00  0.00000E+00  0.00000E+00
  0.00000E+00  0.00000E+00  0.00000E+00  0.00000E+00  0.00000E+00  0.00000E+00
        121464
  0.00000e+00  0.00000e+00 -4.43372e-01
        121479
  0.00000e+00  0.00000e+00  4.07679e-01
        130039
  0.00000e+00  0.00000e+00  1.29625e-01
        130937
  0.00000e+00  0.00000e+00  2.53532e-01
        129813
  0.00000e+00  0.00000e+00  8.88935e-02
        130066
  0.00000e+00  0.00000e+00  1.73862e-01
        131560
  0.00000e+00  0.00000e+00  8.41316e-02
        131964
  0.00000e+00  0.00000e+00  1.18559e-01
        159845
  0.00000e+00  0.00000e+00  5.43808e-02
        160320
  0.00000e+00  0.00000e+00  6.75477e-02
        126150
  0.00000e+00  0.00000e+00  3.35955e-02
        127032
  0.00000e+00  0.00000e+00  3.23796e-02
        185255
  0.00000e+00  0.00000e+00  4.70831e-01
        185270
  0.00000e+00  0.00000e+00 -3.76259e-01
        187627
  0.00000e+00  0.00000e+00 -1.04409e-01
        192710
  0.00000e+00  0.00000e+00 -2.28509e-01
        187401
  0.00000e+00  0.00000e+00 -8.24965e-02
        187654
  0.00000e+00  0.00000e+00 -1.55306e-01
        189148
  0.00000e+00  0.00000e+00 -8.04369e-02
        189552
  0.00000e+00  0.00000e+00 -1.13669e-01
        193875
  0.00000e+00  0.00000e+00 -5.91674e-02
        194350
  0.00000e+00  0.00000e+00 -6.85055e-02
        185574
  0.00000e+00  0.00000e+00 -3.33798e-02
        185906
  0.00000e+00  0.00000e+00 -3.43756e-02
    -1
    -1
  2414
         2
Mode shape record 2
         1
NONE
NONE
NONE
NONE
NONE
         1         2         2         8         2         3
         0         0         1         0         0         2         0         0
         0         0
  0.00000E+00  1.06472E+01  0.00000E+00  1.00000E+00  0.00000E+00  0.00000E+00
  0.00000E+00  0.00000E+00  0.00000E+00  0.00000E+00  0.00000E+00  0.00000E+00
        121464
  0.00000e+00  0.00000e+00 -1.22162e-02
        121479
  0.00000e+00  0.00000e+00  4.91989e-01
        130039
  0.00000e+00  0.00000e+00  2.65331e-01
        130937
  0.00000e+00  0.00000e+00  3.29633e-01
        129813
  0.00000e+00  0.00000e+00  2.48491e-02
        130066
  0.00000e+00  0.00000e+00  3.46292e-02
        131560
  0.00000e+00  0.00000e+00 -1.18546e-01
        131964
  0.00000e+00  0.00000e+00 -6.65038e-02
        159845
  0.00000e+00  0.00000e+00 -1.34865e-01
        160320
  0.00000e+00  0.00000e+00 -9.69705e-02
        126150
  0.00000e+00  0.00000e+00 -8.94639e-02
        127032
  0.00000e+00  0.00000e+00 -8.22783e-02
        185255
  0.00000e+00  0.00000e+00  1.03301e-02
        185270
  0.00000e+00  0.00000e+00 -5.15696e-01
        187627
  0.00000e+00  0.00000e+00 -2.60565e-01
        192710
  0.00000e+00  0.00000e+00 -3.44027e-01
        187401
  0.00000e+00  0.00000e+00  3.45235e-03
        187654
  0.00000e+00  0.00000e+00 -3.36104e-02
        189148
  0.00000e+00  0.00000e+00  1.37239e-01
        189552
  0.00000e+00  0.00000e+00  5.34694e-02
        193875
  0.00000e+00  0.00000e+00  1.42148e-01
        194350
  0.00000e+00  0.00000e+00  8.91291e-02
        185574
  0.00000e+00  0.00000e+00  8.14827e-02
        185906
  0.00000e+00  0.00000e+00  7.84782e-02
    -1
    -1
  2414
         3
Mode shape record 3
         1
NONE
NONE
NONE
NONE
NONE
         1         2         2         8         2         3
         0         0         1         0         0         3         0         0
         0         0
  0.00000E+00  1.60750E+01  0.00000E+00  1.00000E+00  0.00000E+00  0.00000E+00
  0.00000E+00  0.00000E+00  0.00000E+00  0.00000E+00  0.00000E+00  0.00000E+00
        121464
  0.00000e+00  0.00000e+00  1.15798e-01
        121479
  0.00000e+00  0.00000e+00  3.28908e-01
        130039
  0.00000e+00  0.00000e+00  3.56809e-02
        130937
  0.00000e+00  0.00000e+00  1.57650e-01
        129813
  0.00000e+00  0.00000e+00 -4.26248e-01
        130066
  0.00000e+00  0.00000e+00 -2.22859e-01
        131560
  0.00000e+00  0.00000e+00 -2.96657e-01
        131964
  0.00000e+00  0.00000e+00 -2.28839e-01
        159845
  0.00000e+00  0.00000e+00 -1.26738e-01
        160320
  0.00000e+00  0.00000e+00 -1.37844e-01
        126150
  0.00000e+00  0.00000e+00 -8.52417e-02
        127032
  0.00000e+00  0.00000e+00 -7.38092e-02
        185255
  0.00000e+00  0.00000e+00 -1.08291e-01
        185270
  0.00000e+00  0.00000e+00 -2.50555e-01
        187627
  0.00000e+00  0.00000e+00 -4.08792e-02
        192710
  0.00000e+00  0.00000e+00 -1.33622e-01
        187401
  0.00000e+00  0.00000e+00  4.35518e-01
        187654
  0.00000e+00  0.00000e+00  1.98567e-01
        189148
  0.00000e+00  0.00000e+00  2.41860e-01
        189552
  0.00000e+00  0.00000e+00  1.02495e-01
        193875
  0.00000e+00  0.00000e+00  1.11915e-01
        194350
  0.00000e+00  0.00000e+00  6.95001e-02
        185574
  0.00000e+00  0.00000e+00  1.22055e-01
        185906
  0.00000e+00  0.00000e+00  9.16026e-02
    -1
    -1
  2414
         4
Mode shape record 4
         1
NONE
NONE
NONE
NONE
NONE
         1         2         2         8         2         3
         0         0         1         0         0         4         0         0
         0         0
  0.00000E+00  1.73254E+01  0.00000E+00  1.00000E+00  0.00000E+00  0.00000E+00
  0.00000E+00  0.00000E+00  0.00000E+00  0.00000E+00  0.00000E+00  0.00000E+00
        121464
  0.00000e+00  0.00000e+00  2.48389e-01
        121479
  0.00000e+00  0.00000e+00  2.76474e-01
        130039
  0.00000e+00  0.00000e+00 -6.67430e-02
        130937
  0.00000e+00  0.00000e+00  1.06442e-01
        129813
  0.00000e+00  0.00000e+00 -6.07334e-01
        130066
  0.00000e+00  0.00000e+00 -9.45103e-02
        131560
  0.00000e+00  0.00000e+00 -8.55132e-02
        131964
  0.00000e+00  0.00000e+00 -5.41781e-02
        159845
  0.00000e+00  0.00000e+00  1.26615e-01
        160320
  0.00000e+00  0.00000e+00 -7.29677e-03
        126150
  0.00000e+00  0.00000e+00  1.02845e-02
        127032
  0.00000e+00  0.00000e+00 -9.45821e-03
        185255
  0.00000e+00  0.00000e+00 -2.21657e-01
        185270
  0.00000e+00  0.00000e+00  1.86118e-02
        187627
  0.00000e+00  0.00000e+00  8.20722e-02
        192710
  0.00000e+00  0.00000e+00  3.52292e-02
        187401
  0.00000e+00  0.00000e+00  4.89132e-01
        187654
  0.00000e+00  0.00000e+00  1.76536e-02
        189148
  0.00000e+00  0.00000e+00 -1.43920e-01
        189552
  0.00000e+00  0.00000e+00 -2.02808e-01
        193875
  0.00000e+00  0.00000e+00 -2.32154e-01
        194350
  0.00000e+00  0.00000e+00 -1.55946e-01
        185574
  0.00000e+00  0.00000e+00  5.50121e-02
        185906
  0.00000e+00  0.00000e+00  4.07974e-02
    -1
    -1
  2414
         5
Mode shape record 5
         1
NONE
NONE
NONE
NONE
NONE
         1         2         2         8         2         3
         0         0         1         0         0         5         0         0
         0         0
  0.00000E+00  1.86165E+01  0.00000E+00  1.00000E+00  0.00000E+00  0.00000E+00
  0.00000E+00  0.00000E+00  0.00000E+00  0.00000E+00  0.00000E+00  0.00000E+00
        121464
  0.00000e+00  0.00000e+00  1.91906e-01
        121479
  0.00000e+00  0.00000e+00 -8.76269e-02
        130039
  0.00000e+00  0.00000e+00 -3.59227e-02
        130937
  0.00000e+00  0.00000e+00  6.58127e-02
        129813
  0.00000e+00  0.00000e+00 -1.34098e-01
        130066
  0.00000e+00  0.00000e+00  3.45149e-01
        131560
  0.00000e+00  0.00000e+00  2.61739e-01
        131964
  0.00000e+00  0.00000e+00  2.97192e-01
        159845
  0.00000e+00  0.00000e+00  2.04137e-01
        160320
  0.00000e+00  0.00000e+00  1.52929e-01
        126150
  0.00000e+00  0.00000e+00  5.35502e-02
        127032
  0.00000e+00  0.00000e+00  4.70266e-02
        185255
  0.00000e+00  0.00000e+00 -1.66000e-01
        185270
  0.00000e+00  0.00000e+00  2.60770e-01
        187627
  0.00000e+00  0.00000e+00  3.34049e-02
        192710
  0.00000e+00  0.00000e+00  2.82005e-02
        187401
  0.00000e+00  0.00000e+00  2.91276e-02
        187654
  0.00000e+00  0.00000e+00 -3.25262e-01
        189148
  0.00000e+00  0.00000e+00 -3.85777e-01
        189552
  0.00000e+00  0.00000e+00 -3.53312e-01
        193875
  0.00000e+00  0.00000e+00 -2.58822e-01
        194350
  0.00000e+00  0.00000e+00 -2.01432e-01
        185574
  0.00000e+00  0.00000e+00 -1.01230e-02
        185906
  0.00000e+00  0.00000e+00 -1.90246e-02
    -1
    -1
  2414
         6
Mode shape record 6
         1
NONE
NONE
NONE
NONE
NONE
         1         2         2         8         2         3
         0         0         1         0         0         6         0         0
         0         0
  0.00000E+00  2.24549E+01  0.00000E+00  1.00000E+00  0.00000E+00  0.00000E+00
  0.00000E+00  0.00000E+00  0.00000E+00  0.00000E+00  0.00000E+00  0.00000E+00
        121464
  0.00000e+00  0.00000e+00  1.25019e-01
        121479
  0.00000e+00  0.00000e+00 -5.91439e-02
        130039
  0.00000e+00  0.00000e+00  9.35899e-02
        130937
  0.00000e+00  0.00000e+00  6.41709e-02
        129813
  0.00000e+00  0.00000e+00  2.88994e-01
        130066
  0.00000e+00  0.00000e+00  3.15787e-01
        131560
  0.00000e+00  0.00000e+00  2.79300e-01
        131964
  0.00000e+00  0.00000e+00  2.85166e-01
        159845
  0.00000e+00  0.00000e+00  9.35868e-02
        160320
  0.00000e+00  0.00000e+00  1.17975e-01
        126150
  0.00000e+00  0.00000e+00  2.62056e-03
        127032
  0.00000e+00  0.00000e+00  9.02442e-03
        185255
  0.00000e+00  0.00000e+00 -1.44896e-01
        185270
  0.00000e+00  0.00000e+00  1.54101e-01
        187627
  0.00000e+00  0.00000e+00 -8.29717e-02
        192710
  0.00000e+00  0.00000e+00 -2.98465e-02
        187401
  0.00000e+00  0.00000e+00 -3.72911e-01
        187654
  0.00000e+00  0.00000e+00 -3.80268e-01
        189148
  0.00000e+00  0.00000e+00 -3.37651e-01
        189552
  0.00000e+00  0.00000e+00 -3.44685e-01
        193875
  0.00000e+00  0.00000e+00 -1.12053e-01
        194350
  0.00000e+00  0.00000e+00 -1.44819e-01
        185574
  0.00000e+00  0.00000e+00  1.16093e-02
        185906
  0.00000e+00  0.00000e+00 -7.29585e-04
    -1
    -1
  1802
         1Sensors                     24
Sensor DOFs                                                                     
    121464Z+      121479Z+      126150Z+      127032Z+      129813Z+  
    130039Z+      130066Z+      130937Z+      131560Z+      131964Z+  
    159845Z+      160320Z+      185255Z+      185270Z+      185574Z+  
    185906Z+      187401Z+      187627Z+      187654Z+      189148Z+  
    189552Z+      192710Z+      193875Z+      194350Z+  
    -1
