    -1
   151
Unknown                                                                         
Unknown                                                                         
NX: Advanced Simulation                                                         
Unknown   Unknown            0         0         0
Unknown   Unknown   
NX: Correlation                                                                 
24-NOV-25   23:38:50 2412    1    0    0    0
    -1
    -1
   164
         1Meter (newton)               2
  1.00000000000000000D+00  1.00000000000000000D+00  1.00000000000000000D+00
  2.73149999999999977D+02
    -1
    -1
  2400
          13     7    -1           0
Fem1                                                                            
                                                                                
 0 0 0 0 0 0 0 0 0 0 0 0 0 0 0 0 0 0 0 0 0 0 0 0 0 0 0 0 0 0 0 0
24-NOV-25   23:38:50           0           0           0
           0
    -1
    -1
  2420
         1
Part1
         1         0         2
CS1
   1.0000000000000000D+00   0.0000000000000000D+00   0.0000000000000000D+00
   0.0000000000000000D+00   1.0000000000000000D+00   0.0000000000000000D+00
   0.0000000000000000D+00   0.0000000000000000D+00   1.0000000000000000D+00
   0.0000000000000000D+00   0.0000000000000000D+00   0.0000000000000000D+00
    -1
    -1
  2411
    121464         1         1        11
   7.7633977539062498D+00  -4.6349501953125003D+00   5.9896598510742183D-01
    121479         1         1        11
   9.7662650634765633D+00  -4.6349501953125003D+00   7.0601349334716790D-01
    126150         1         1        11
   7.4909513882562253D+00  -1.0741667407773539D+00   7.4128540321371361D-01
    127032         1         1        11
   8.3861453033007329D+00  -1.0920785407841458D+00   7.2874391085275392D-01
    129813         1         1        11
   8.5656689347244654D+00  -3.8111213984168755D+00   6.9914563100762928D-01
    130039         1         1        11
   9.0211216883366543D+00  -4.5241315656325600D+00   6.9534800882421632D-01
    130066         1         1        11
   9.2332402546547243D+00  -3.8177943888344319D+00   6.9910134570535176D-01
    130937         1         1        11
   9.3928190460087997D+00  -4.5197577996729503D+00   6.9750946620827758D-01
    131560         1         1        11
   8.1099279676167271D+00  -3.0434831234195618D+00   7.0689627574046965D-01
    131964         1         1        11
   9.0998983367384891D+00  -3.0465422571204837D+00   7.0021699626639800D-01
    159845         1         1        11
   7.4487767072902997D+00  -2.0175918461390450D+00   7.1562637418263941D-01
    160320         1         1        11
   8.8802468252267932D+00  -1.9924144139216009D+00   7.0361227683766414D-01
    185255         1         1        11
   7.7633977539062498D+00   4.6349501953125003D+00   5.9896598510742183D-01
    185270         1         1        11
   9.7662650634765633D+00   4.6349501953125003D+00   7.0601349334716790D-01
    185574         1         1        11
   7.4909513882562253D+00   1.0741667407773539D+00   7.4128540321371361D-01
    185906         1         1        11
   8.3861453033007329D+00   1.0920785407841458D+00   7.2874391085275392D-01 
    187401         1         1        11
   8.5656689347244654D+00   3.8111213984168755D+00   6.9914563100762928D-01
    187627         1         1        11
   9.0211216883366543D+00   4.5241315656325600D+00   6.9534800882421632D-01
    187654         1         1        11
   9.2332402546547243D+00   3.8177943888344319D+00   6.9910134570535176D-01
    189148         1         1        11
   8.1099279676167271D+00   3.0434831234195618D+00   7.0689627574046965D-01
    189552         1         1        11
   9.0998983367384891D+00   3.0465422571204837D+00   7.0021699626639800D-01
    192710         1         1        11
   9.3927219559900177D+00   4.5191951370287216D+00   6.7276369575045269D-01
    193875         1         1        11
   7.4487767072902997D+00   2.0175918461390450D+00   7.1562637418263941D-01
    194350         1         1        11
   8.8802468252267932D+00   1.9924144139216009D+00   7.0361227683766414D-01
    -1
    -1
    82
         1         2         4
Uz                                                                              
    121464    129813
    -1
    -1
    82
         2         2         4
Uz                                                                              
    121464    130039
    -1
    -1
    82
         3         2         4
Uz                                                                              
    121464    131560
    -1
    -1
    82
         4         2         4
Uz                                                                              
    121479    130066
    -1
    -1
    82
         5         2         4
Uz                                                                              
    121479    130937
    -1
    -1
    82
         6         2         4
Uz                                                                              
    126150    127032
    -1
    -1
    82
         7         2         4
Uz                                                                              
    126150    159845
    -1
    -1
    82
         8         2         4
Uz                                                                              
    126150    160320
    -1
    -1
    82
         9         2         4
Uz                                                                              
    127032    159845
    -1
    -1
    82
        10         2         4
Uz                                                                              
    127032    160320
    -1
    -1
    82
        11         2         4
Uz                                                                              
    129813    130039
    -1
    -1
    82
        12         2         4
Uz                                                                              
    129813    130066
    -1
    -1
    82
        13         2         4
Uz                                                                              
    129813    131560
    -1
    -1
    82
        14         2         4
Uz                                                                              
    130039    130066
    -1
    -1
    82
        15         2         4
Uz                                                                              
    130039    130937
    -1
    -1
    82
        16         2         4
Uz                                                                              
    130066    131964
    -1
    -1
    82
        17         2         4
Uz                                                                              
    131560    131964
    -1
    -1
    82
        18         2         4
Uz                                                                              
    131560    159845
    -1
    -1
    82
        19         2         4
Uz                                                                              
    131964    160320
    -1
    -1
    82
        20         2         4
Uz                                                                              
    159845    160320
    -1
    -1
    82
        21         2         4
Uz                                                                              
    185255    187401
    -1
    -1
    82
        22         2         4
Uz                                                                              
    185255    187627
    -1
    -1
    82
        23         2         4
Uz                                                                              
    185255    189148
    -1
    -1
    82
        24         2         4
Uz                                                                              
    185270    187654
    -1
    -1
    82
        25         2         4
Uz                                                                              
    185270    192710
    -1
    -1
    82
        26         2         4
Uz                                                                              
    185574    185906
    -1
    -1
    82
        27         2         4
Uz                                                                              
    185574    193875
    -1
    -1
    82
        28         2         4
Uz                                                                              
    185574    194350
    -1
    -1
    82
        29         2         4
Uz                                                                              
    185906    193875
    -1
    -1
    82
        30         2         4
Uz                                                                              
    185906    194350
    -1
    -1
    82
        31         2         4
Uz                                                                              
    187401    187627
    -1
    -1
    82
        32         2         4
Uz                                                                              
    187401    187654
    -1
    -1
    82
        33         2         4
Uz                                                                              
    187401    189148
    -1
    -1
    82
        34         2         4
Uz                                                                              
    187627    187654
    -1
    -1
    82
        35         2         4
Uz                                                                              
    187627    192710
    -1
    -1
    82
        36         2         4
Uz                                                                              
    187654    189552
    -1
    -1
    82
        37         2         4
Uz                                                                              
    189148    189552
    -1
    -1
    82
        38         2         4
Uz                                                                              
    189148    193875
    -1
    -1
    82
        39         2         4
Uz                                                                              
    189552    194350
    -1
    -1
    82
        40         2         4
Uz                                                                              
    193875    194350
    -1
    -1
  2414
         1
Mode shape record 1
         1
NONE
NONE
NONE
NONE
NONE
         1         2         2         8         2         3
         0         0         1         0         0         1         0         0
         0         0
  0.00000E+00  5.53163E+00  0.00000E+00  1.00000E+00  0.00000E+00  0.00000E+00
  0.00000E+00  0.00000E+00  0.00000E+00  0.00000E+00  0.00000E+00  0.00000E+00
        121464
  0.00000e+00  0.00000e+00  6.21940e-01
        121479
  0.00000e+00  0.00000e+00  1.43831e-01
        130039
  0.00000e+00  0.00000e+00  2.75028e-01
        130937
  0.00000e+00  0.00000e+00  2.08054e-01
        129813
  0.00000e+00  0.00000e+00  7.17800e-02
        130066
  0.00000e+00  0.00000e+00  8.51991e-02
        131560
  0.00000e+00  0.00000e+00  1.29020e-02
        131964
  0.00000e+00  0.00000e+00  1.47880e-02
        159845
  0.00000e+00  0.00000e+00 -1.40873e-02
        160320
  0.00000e+00  0.00000e+00 -1.36761e-02
        126150
  0.00000e+00  0.00000e+00 -3.81917e-02
        127032
  0.00000e+00  0.00000e+00 -4.13161e-02
        185255
  0.00000e+00  0.00000e+00  5.55593e-01
        185270
  0.00000e+00  0.00000e+00  1.48582e-01
        187627
  0.00000e+00  0.00000e+00  2.68090e-01
        192710
  0.00000e+00  0.00000e+00  2.00056e-01
        187401
  0.00000e+00  0.00000e+00  6.39502e-02
        187654
  0.00000e+00  0.00000e+00  7.58581e-02
        189148
  0.00000e+00  0.00000e+00  1.52902e-02
        189552
  0.00000e+00  0.00000e+00  3.20071e-02
        193875
  0.00000e+00  0.00000e+00 -1.46494e-02
        194350
  0.00000e+00  0.00000e+00 -3.48985e-03
        185574
  0.00000e+00  0.00000e+00 -3.99254e-02
        185906
  0.00000e+00  0.00000e+00 -4.06306e-02
    -1
    -1
  2414
         2
Mode shape record 2
         1
NONE
NONE
NONE
NONE
NONE
         1         2         2         8         2         3
         0         0         1         0         0         2         0         0
         0         0
  0.00000E+00  8.09656E+00  0.00000E+00  1.00000E+00  0.00000E+00  0.00000E+00
  0.00000E+00  0.00000E+00  0.00000E+00  0.00000E+00  0.00000E+00  0.00000E+00
        121464
  0.00000e+00  0.00000e+00 -2.19508e-01
        121479
  0.00000e+00  0.00000e+00  4.88000e-01
        130039
  0.00000e+00  0.00000e+00  2.34273e-01
        130937
  0.00000e+00  0.00000e+00  3.34489e-01
        129813
  0.00000e+00  0.00000e+00  1.01931e-01
        130066
  0.00000e+00  0.00000e+00  1.76676e-01
        131560
  0.00000e+00  0.00000e+00  4.42730e-02
        131964
  0.00000e+00  0.00000e+00  7.91205e-02
        159845
  0.00000e+00  0.00000e+00  1.51847e-03
        160320
  0.00000e+00  0.00000e+00  1.83794e-02
        126150
  0.00000e+00  0.00000e+00 -7.53605e-03
        127032
  0.00000e+00  0.00000e+00 -9.10408e-03
        185255
  0.00000e+00  0.00000e+00 -2.36691e-01
        185270
  0.00000e+00  0.00000e+00  4.87572e-01
        187627
  0.00000e+00  0.00000e+00  2.21845e-01
        192710
  0.00000e+00  0.00000e+00  3.30291e-01
        187401
  0.00000e+00  0.00000e+00  9.62991e-02
        187654
  0.00000e+00  0.00000e+00  1.64649e-01
        189148
  0.00000e+00  0.00000e+00  3.74294e-02
        189552
  0.00000e+00  0.00000e+00  7.94924e-02
        193875
  0.00000e+00  0.00000e+00 -1.28648e-03
        194350
  0.00000e+00  0.00000e+00  1.75844e-02
        185574
  0.00000e+00  0.00000e+00 -7.45612e-03
        185906
  0.00000e+00  0.00000e+00 -8.67339e-03
    -1
    -1
  2414
         3
Mode shape record 3
         1
NONE
NONE
NONE
NONE
NONE
         1         2         2         8         2         3
         0         0         1         0         0         3         0         0
         0         0
  0.00000E+00  1.48544E+01  0.00000E+00  1.00000E+00  0.00000E+00  0.00000E+00
  0.00000E+00  0.00000E+00  0.00000E+00  0.00000E+00  0.00000E+00  0.00000E+00
        121464
  0.00000e+00  0.00000e+00  2.30143e-02
        121479
  0.00000e+00  0.00000e+00 -1.94558e-01
        130039
  0.00000e+00  0.00000e+00 -7.53981e-02
        130937
  0.00000e+00  0.00000e+00 -1.06822e-01
        129813
  0.00000e+00  0.00000e+00 -5.21599e-02
        130066
  0.00000e+00  0.00000e+00  9.78208e-02
        131560
  0.00000e+00  0.00000e+00  2.13204e-01
        131964
  0.00000e+00  0.00000e+00  1.45584e-01
        159845
  0.00000e+00  0.00000e+00  3.49064e-01
        160320
  0.00000e+00  0.00000e+00  2.24732e-01
        126150
  0.00000e+00  0.00000e+00  3.14826e-01
        127032
  0.00000e+00  0.00000e+00  2.34027e-01
        185255
  0.00000e+00  0.00000e+00 -2.67957e-02
        185270
  0.00000e+00  0.00000e+00 -2.96522e-01
        187627
  0.00000e+00  0.00000e+00 -1.10182e-01
        192710
  0.00000e+00  0.00000e+00 -1.54613e-01
        187401
  0.00000e+00  0.00000e+00 -3.75018e-02
        187654
  0.00000e+00  0.00000e+00  5.53551e-02
        189148
  0.00000e+00  0.00000e+00  2.39584e-01
        189552
  0.00000e+00  0.00000e+00  1.40803e-01
        193875
  0.00000e+00  0.00000e+00  3.56871e-01
        194350
  0.00000e+00  0.00000e+00  2.11547e-01
        185574
  0.00000e+00  0.00000e+00  3.18579e-01
        185906
  0.00000e+00  0.00000e+00  2.43641e-01
    -1
    -1
  2414
         4
Mode shape record 4
         1
NONE
NONE
NONE
NONE
NONE
         1         2         2         8         2         3
         0         0         1         0         0         4         0         0
         0         0
  0.00000E+00  2.30707E+01  0.00000E+00  1.00000E+00  0.00000E+00  0.00000E+00
  0.00000E+00  0.00000E+00  0.00000E+00  0.00000E+00  0.00000E+00  0.00000E+00
        121464
  0.00000e+00  0.00000e+00 -1.31221e-01
        121479
  0.00000e+00  0.00000e+00  1.02290e-01
        130039
  0.00000e+00  0.00000e+00 -7.45046e-02
        130937
  0.00000e+00  0.00000e+00 -5.49501e-02
        129813
  0.00000e+00  0.00000e+00 -3.50456e-01
        130066
  0.00000e+00  0.00000e+00 -3.72961e-01
        131560
  0.00000e+00  0.00000e+00 -3.11722e-01
        131964
  0.00000e+00  0.00000e+00 -3.59904e-01
        159845
  0.00000e+00  0.00000e+00 -9.53270e-02
        160320
  0.00000e+00  0.00000e+00 -1.50051e-01
        126150
  0.00000e+00  0.00000e+00  1.12620e-02
        127032
  0.00000e+00  0.00000e+00 -1.37005e-03
        185255
  0.00000e+00  0.00000e+00 -1.15154e-01
        185270
  0.00000e+00  0.00000e+00  1.42800e-01
        187627
  0.00000e+00  0.00000e+00 -5.34495e-02
        192710
  0.00000e+00  0.00000e+00 -3.31172e-02
        187401
  0.00000e+00  0.00000e+00 -3.15292e-01
        187654
  0.00000e+00  0.00000e+00 -3.35973e-01
        189148
  0.00000e+00  0.00000e+00 -2.65211e-01
        189552
  0.00000e+00  0.00000e+00 -3.14878e-01
        193875
  0.00000e+00  0.00000e+00 -7.92300e-02
        194350
  0.00000e+00  0.00000e+00 -1.31663e-01
        185574
  0.00000e+00  0.00000e+00  1.88884e-02
        185906
  0.00000e+00  0.00000e+00  6.92924e-03
    -1
    -1
  2414
         5
Mode shape record 5
         1
NONE
NONE
NONE
NONE
NONE
         1         2         2         8         2         3
         0         0         1         0         0         5         0         0
         0         0
  0.00000E+00  3.73053E+01  0.00000E+00  1.00000E+00  0.00000E+00  0.00000E+00
  0.00000E+00  0.00000E+00  0.00000E+00  0.00000E+00  0.00000E+00  0.00000E+00
        121464
  0.00000e+00  0.00000e+00 -3.03837e-01
        121479
  0.00000e+00  0.00000e+00 -3.25288e-01
        130039
  0.00000e+00  0.00000e+00 -1.76710e-01
        130937
  0.00000e+00  0.00000e+00 -2.61711e-01
        129813
  0.00000e+00  0.00000e+00  1.40997e-02
        130066
  0.00000e+00  0.00000e+00 -2.16067e-02
        131560
  0.00000e+00  0.00000e+00  1.86934e-01
        131964
  0.00000e+00  0.00000e+00  1.02124e-01
        159845
  0.00000e+00  0.00000e+00  1.07121e-01
        160320
  0.00000e+00  0.00000e+00  6.82415e-02
        126150
  0.00000e+00  0.00000e+00 -4.70308e-03
        127032
  0.00000e+00  0.00000e+00 -5.56972e-03
        185255
  0.00000e+00  0.00000e+00 -4.62954e-01
        185270
  0.00000e+00  0.00000e+00 -3.89353e-01
        187627
  0.00000e+00  0.00000e+00 -2.26270e-01
        192710
  0.00000e+00  0.00000e+00 -3.40006e-01
        187401
  0.00000e+00  0.00000e+00  4.42293e-02
        187654
  0.00000e+00  0.00000e+00 -6.48264e-02
        189148
  0.00000e+00  0.00000e+00  2.46889e-01
        189552
  0.00000e+00  0.00000e+00  1.05036e-01
        193875
  0.00000e+00  0.00000e+00  1.51367e-01
        194350
  0.00000e+00  0.00000e+00  7.72117e-02
        185574
  0.00000e+00  0.00000e+00 -4.68233e-03
        185906
  0.00000e+00  0.00000e+00 -1.27111e-02
    -1
    -1
  2414
         6
Mode shape record 6
         1
NONE
NONE
NONE
NONE
NONE
         1         2         2         8         2         3
         0         0         1         0         0         6         0         0
         0         0
  0.00000E+00  4.26573E+01  0.00000E+00  1.00000E+00  0.00000E+00  0.00000E+00
  0.00000E+00  0.00000E+00  0.00000E+00  0.00000E+00  0.00000E+00  0.00000E+00
        121464
  0.00000e+00  0.00000e+00  8.97654e-02
        121479
  0.00000e+00  0.00000e+00 -2.71376e-01
        130039
  0.00000e+00  0.00000e+00  9.64980e-02
        130937
  0.00000e+00  0.00000e+00 -7.27662e-02
        129813
  0.00000e+00  0.00000e+00  6.14741e-02
        130066
  0.00000e+00  0.00000e+00 -2.18935e-01
        131560
  0.00000e+00  0.00000e+00  2.79200e-01
        131964
  0.00000e+00  0.00000e+00 -2.67990e-01
        159845
  0.00000e+00  0.00000e+00  1.88646e-01
        160320
  0.00000e+00  0.00000e+00 -1.40345e-01
        126150
  0.00000e+00  0.00000e+00 -5.33881e-03
        127032
  0.00000e+00  0.00000e+00 -1.28258e-02
        185255
  0.00000e+00  0.00000e+00  2.41216e-01
        185270
  0.00000e+00  0.00000e+00 -2.41969e-01
        187627
  0.00000e+00  0.00000e+00  1.56700e-01
        192710
  0.00000e+00  0.00000e+00 -5.15267e-02
        187401
  0.00000e+00  0.00000e+00  5.71873e-02
        187654
  0.00000e+00  0.00000e+00 -3.52081e-01
        189148
  0.00000e+00  0.00000e+00  3.24647e-01
        189552
  0.00000e+00  0.00000e+00 -3.84816e-01
        193875
  0.00000e+00  0.00000e+00  2.83904e-01
        194350
  0.00000e+00  0.00000e+00 -2.02586e-01
        185574
  0.00000e+00  0.00000e+00  1.99213e-02
        185906
  0.00000e+00  0.00000e+00 -6.08315e-03
    -1
    -1
  1802
         1Sensors                     24
Sensor DOFs                                                                     
    121464Z+      121479Z+      126150Z+      127032Z+      129813Z+  
    130039Z+      130066Z+      130937Z+      131560Z+      131964Z+  
    159845Z+      160320Z+      185255Z+      185270Z+      185574Z+  
    185906Z+      187401Z+      187627Z+      187654Z+      189148Z+  
    189552Z+      192710Z+      193875Z+      194350Z+  
    -1
