    -1
    15
         1         0         0         0      7.81760     -4.63530      0.63576
         2         0         0         0      9.70720     -4.63530      0.73676
         3         0         0         0      9.02168     -4.53370      0.69505
         4         0         0         0      9.37747     -4.53370      0.69810
         5         0         0         0      8.56214     -3.82250      0.69839
         6         0         0         0      9.24877     -3.82250      0.69834
         7         0         0         0      8.12068     -3.06050      0.70675
         8         0         0         0      9.10008     -3.06050      0.70036
         9         0         0         0      7.43669     -2.01910      0.71479
        10         0         0         0      8.88655     -1.99370      0.70320
        11         0         0         0      7.48304     -1.08778      0.75700
        12         0         0         0      8.36919     -1.08570      0.73723
        13         0         0         0      7.81760      4.63530      0.63576
        14         0         0         0      9.70720      4.63530      0.73676
        15         0         0         0      9.02168      4.53370      0.69505
        16         0         0         0      9.37747      4.53370      0.69810
        17         0         0         0      8.56214      3.82250      0.69839
        18         0         0         0      9.24877      3.82250      0.69834
        19         0         0         0      8.12068      3.06050      0.70675
        20         0         0         0      9.10008      3.06050      0.70036
        21         0         0         0      7.43669      2.01910      0.71479
        22         0         0         0      8.88655      1.99370      0.70320
        23         0         0         0      7.48304      1.08778      0.75700
        24         0         0         0      8.36919      1.08570      0.73723
    -1
    -1
    55                                                                          
Mode 1                                                                          
EMA                                                                             
Acceleration shapes (Uz only)                                                   
LoadCase 1                                                                      
                                                                                
         1         2         2        12         2         3
         2         4         1         1
  5.65164e+00  0.00000e+00  0.00000e+00  0.00000e+00
         1
  0.00000e+00  0.00000e+00  5.68486e-01
         2
  0.00000e+00  0.00000e+00  1.69277e-01
         3
  0.00000e+00  0.00000e+00  2.84603e-01
         4
  0.00000e+00  0.00000e+00  2.25085e-01
         5
  0.00000e+00  0.00000e+00  1.36960e-01
         6
  0.00000e+00  0.00000e+00  1.21043e-01
         7
  0.00000e+00  0.00000e+00  3.61815e-02
         8
  0.00000e+00  0.00000e+00  3.61573e-02
         9
  0.00000e+00  0.00000e+00 -2.28515e-02
        10
  0.00000e+00  0.00000e+00 -1.90868e-02
        11
  0.00000e+00  0.00000e+00 -4.34818e-02
        12
  0.00000e+00  0.00000e+00 -4.11297e-02
        13
  0.00000e+00  0.00000e+00  5.00045e-01
        14
  0.00000e+00  0.00000e+00  2.17476e-01
        15
  0.00000e+00  0.00000e+00  2.80912e-01
        16
  0.00000e+00  0.00000e+00  2.35867e-01
        17
  0.00000e+00  0.00000e+00  1.41254e-01
        18
  0.00000e+00  0.00000e+00  1.28573e-01
        19
  0.00000e+00  0.00000e+00  4.64493e-02
        20
  0.00000e+00  0.00000e+00  4.55428e-02
        21
  0.00000e+00  0.00000e+00 -1.65053e-02
        22
  0.00000e+00  0.00000e+00 -9.75324e-03
        23
  0.00000e+00  0.00000e+00 -4.00475e-02
        24
  0.00000e+00  0.00000e+00 -3.79399e-02
    -1
    -1
    55                                                                          
Mode 2                                                                          
EMA                                                                             
Acceleration shapes (Uz only)                                                   
LoadCase 1                                                                      
                                                                                
         1         2         2        12         2         3
         2         4         1         2
  7.70103e+00  0.00000e+00  0.00000e+00  0.00000e+00
         1
  0.00000e+00  0.00000e+00  5.21852e-01
         2
  0.00000e+00  0.00000e+00 -4.86477e-01
         3
  0.00000e+00  0.00000e+00 -1.72760e-01
         4
  0.00000e+00  0.00000e+00 -3.13739e-01
         5
  0.00000e+00  0.00000e+00 -7.42304e-02
         6
  0.00000e+00  0.00000e+00 -2.31635e-01
         7
  0.00000e+00  0.00000e+00 -8.63086e-02
         8
  0.00000e+00  0.00000e+00 -1.41276e-01
         9
  0.00000e+00  0.00000e+00 -5.43259e-02
        10
  0.00000e+00  0.00000e+00 -7.69205e-02
        11
  0.00000e+00  0.00000e+00 -2.71700e-02
        12
  0.00000e+00  0.00000e+00 -2.68949e-02
        13
  0.00000e+00  0.00000e+00 -3.86092e-01
        14
  0.00000e+00  0.00000e+00  2.37886e-01
        15
  0.00000e+00  0.00000e+00  2.29540e-02
        16
  0.00000e+00  0.00000e+00  1.17081e-01
        17
  0.00000e+00  0.00000e+00  8.30948e-02
        18
  0.00000e+00  0.00000e+00  8.85378e-02
        19
  0.00000e+00  0.00000e+00  7.42810e-02
        20
  0.00000e+00  0.00000e+00  1.11627e-01
        21
  0.00000e+00  0.00000e+00  6.37173e-02
        22
  0.00000e+00  0.00000e+00  7.58300e-02
        23
  0.00000e+00  0.00000e+00  4.25298e-02
        24
  0.00000e+00  0.00000e+00  3.99752e-02
    -1
    -1
    55                                                                          
Mode 3                                                                          
EMA                                                                             
Acceleration shapes (Uz only)                                                   
LoadCase 1                                                                      
                                                                                
         1         2         2        12         2         3
         2         4         1         3
  8.52115e+00  0.00000e+00  0.00000e+00  0.00000e+00
         1
  0.00000e+00  0.00000e+00  2.32687e-01
         2
  0.00000e+00  0.00000e+00 -4.49135e-01
         3
  0.00000e+00  0.00000e+00 -2.05683e-01
         4
  0.00000e+00  0.00000e+00 -3.03182e-01
         5
  0.00000e+00  0.00000e+00 -7.34263e-02
         6
  0.00000e+00  0.00000e+00 -1.58792e-01
         7
  0.00000e+00  0.00000e+00 -3.15765e-02
         8
  0.00000e+00  0.00000e+00 -7.25747e-02
         9
  0.00000e+00  0.00000e+00  1.29277e-03
        10
  0.00000e+00  0.00000e+00 -1.74573e-02
        11
  0.00000e+00  0.00000e+00  9.69923e-03
        12
  0.00000e+00  0.00000e+00  9.13910e-03
        13
  0.00000e+00  0.00000e+00  3.47959e-01
        14
  0.00000e+00  0.00000e+00 -5.07276e-01
        15
  0.00000e+00  0.00000e+00 -2.02632e-01
        16
  0.00000e+00  0.00000e+00 -3.29127e-01
        17
  0.00000e+00  0.00000e+00 -7.74117e-02
        18
  0.00000e+00  0.00000e+00 -1.68798e-01
        19
  0.00000e+00  0.00000e+00 -3.93792e-02
        20
  0.00000e+00  0.00000e+00 -8.81060e-02
        21
  0.00000e+00  0.00000e+00 -8.76380e-03
        22
  0.00000e+00  0.00000e+00 -2.95017e-02
        23
  0.00000e+00  0.00000e+00  3.62303e-03
        24
  0.00000e+00  0.00000e+00  2.77158e-03
    -1
    -1
    55                                                                          
Mode 4                                                                          
EMA                                                                             
Acceleration shapes (Uz only)                                                   
LoadCase 1                                                                      
                                                                                
         1         2         2        12         2         3
         2         4         1         4
  1.48555e+01  0.00000e+00  0.00000e+00  0.00000e+00
         1
  0.00000e+00  0.00000e+00  1.67175e-02
         2
  0.00000e+00  0.00000e+00 -2.46506e-01
         3
  0.00000e+00  0.00000e+00 -7.66548e-02
         4
  0.00000e+00  0.00000e+00 -1.15350e-01
         5
  0.00000e+00  0.00000e+00  3.28554e-02
         6
  0.00000e+00  0.00000e+00  1.84534e-01
         7
  0.00000e+00  0.00000e+00  2.71676e-01
         8
  0.00000e+00  0.00000e+00  2.25203e-01
         9
  0.00000e+00  0.00000e+00  3.20594e-01
        10
  0.00000e+00  0.00000e+00  2.30786e-01
        11
  0.00000e+00  0.00000e+00  2.65134e-01
        12
  0.00000e+00  0.00000e+00  2.08477e-01
        13
  0.00000e+00  0.00000e+00 -3.85770e-02
        14
  0.00000e+00  0.00000e+00 -2.83269e-01
        15
  0.00000e+00  0.00000e+00 -1.02796e-01
        16
  0.00000e+00  0.00000e+00 -1.40916e-01
        17
  0.00000e+00  0.00000e+00  4.78193e-02
        18
  0.00000e+00  0.00000e+00  1.35315e-01
        19
  0.00000e+00  0.00000e+00  2.79448e-01
        20
  0.00000e+00  0.00000e+00  1.64223e-01
        21
  0.00000e+00  0.00000e+00  3.19147e-01
        22
  0.00000e+00  0.00000e+00  1.96064e-01
        23
  0.00000e+00  0.00000e+00  2.62079e-01
        24
  0.00000e+00  0.00000e+00  2.08624e-01
    -1
    -1
    55                                                                          
Mode 5                                                                          
EMA                                                                             
Acceleration shapes (Uz only)                                                   
LoadCase 1                                                                      
                                                                                
         1         2         2        12         2         3
         2         4         1         5
  2.28163e+01  0.00000e+00  0.00000e+00  0.00000e+00
         1
  0.00000e+00  0.00000e+00 -1.10471e-01
         2
  0.00000e+00  0.00000e+00  1.24208e-01
         3
  0.00000e+00  0.00000e+00 -7.01750e-02
         4
  0.00000e+00  0.00000e+00 -5.70076e-02
         5
  0.00000e+00  0.00000e+00 -3.42207e-01
         6
  0.00000e+00  0.00000e+00 -3.75242e-01
         7
  0.00000e+00  0.00000e+00 -3.10820e-01
         8
  0.00000e+00  0.00000e+00 -3.59752e-01
         9
  0.00000e+00  0.00000e+00 -9.60614e-02
        10
  0.00000e+00  0.00000e+00 -1.52509e-01
        11
  0.00000e+00  0.00000e+00  6.22565e-03
        12
  0.00000e+00  0.00000e+00 -8.71085e-03
        13
  0.00000e+00  0.00000e+00 -8.83564e-02
        14
  0.00000e+00  0.00000e+00  9.72978e-02
        15
  0.00000e+00  0.00000e+00 -7.47934e-02
        16
  0.00000e+00  0.00000e+00 -9.48051e-02
        17
  0.00000e+00  0.00000e+00 -3.11671e-01
        18
  0.00000e+00  0.00000e+00 -3.68495e-01
        19
  0.00000e+00  0.00000e+00 -2.48703e-01
        20
  0.00000e+00  0.00000e+00 -3.18341e-01
        21
  0.00000e+00  0.00000e+00 -6.02301e-02
        22
  0.00000e+00  0.00000e+00 -1.24339e-01
        23
  0.00000e+00  0.00000e+00  2.24658e-02
        24
  0.00000e+00  0.00000e+00  8.96387e-03
    -1
    -1
    55                                                                          
Mode 6                                                                          
EMA                                                                             
Acceleration shapes (Uz only)                                                   
LoadCase 1                                                                      
                                                                                
         1         2         2        12         2         3
         2         4         1         6
  2.40635e+01  0.00000e+00  0.00000e+00  0.00000e+00
         1
  0.00000e+00  0.00000e+00  8.42712e-02
         2
  0.00000e+00  0.00000e+00 -1.19060e-01
         3
  0.00000e+00  0.00000e+00  1.25037e-02
         4
  0.00000e+00  0.00000e+00 -2.76210e-03
         5
  0.00000e+00  0.00000e+00  3.02960e-01
         6
  0.00000e+00  0.00000e+00  3.50979e-01
         7
  0.00000e+00  0.00000e+00  3.06276e-01
         8
  0.00000e+00  0.00000e+00  3.58147e-01
         9
  0.00000e+00  0.00000e+00  9.67985e-02
        10
  0.00000e+00  0.00000e+00  1.53746e-01
        11
  0.00000e+00  0.00000e+00 -1.68682e-02
        12
  0.00000e+00  0.00000e+00 -4.01014e-03
        13
  0.00000e+00  0.00000e+00  1.11668e-01
        14
  0.00000e+00  0.00000e+00 -2.41985e-01
        15
  0.00000e+00  0.00000e+00 -1.61905e-02
        16
  0.00000e+00  0.00000e+00 -8.77037e-02
        17
  0.00000e+00  0.00000e+00  3.11351e-01
        18
  0.00000e+00  0.00000e+00  3.03242e-01
        19
  0.00000e+00  0.00000e+00  3.12391e-01
        20
  0.00000e+00  0.00000e+00  3.26380e-01
        21
  0.00000e+00  0.00000e+00  1.11025e-01
        22
  0.00000e+00  0.00000e+00  1.53443e-01
        23
  0.00000e+00  0.00000e+00 -1.85948e-02
        24
  0.00000e+00  0.00000e+00 -2.36928e-04
    -1
    -1
    55                                                                          
Mode 7                                                                          
EMA                                                                             
Acceleration shapes (Uz only)                                                   
LoadCase 1                                                                      
                                                                                
         1         2         2        12         2         3
         2         4         1         7
  2.85210e+01  0.00000e+00  0.00000e+00  0.00000e+00
         1
  0.00000e+00  0.00000e+00  2.61574e-01
         2
  0.00000e+00  0.00000e+00  4.19347e-02
         3
  0.00000e+00  0.00000e+00  1.20180e-01
         4
  0.00000e+00  0.00000e+00  1.73075e-01
         5
  0.00000e+00  0.00000e+00  3.19844e-02
         6
  0.00000e+00  0.00000e+00  5.00647e-01
         7
  0.00000e+00  0.00000e+00  2.59680e-01
         8
  0.00000e+00  0.00000e+00  3.31500e-01
         9
  0.00000e+00  0.00000e+00  6.26728e-02
        10
  0.00000e+00  0.00000e+00  5.23757e-02
        11
  0.00000e+00  0.00000e+00 -1.20384e-01
        12
  0.00000e+00  0.00000e+00 -1.71609e-01
        13
  0.00000e+00  0.00000e+00  1.26845e-01
        14
  0.00000e+00  0.00000e+00 -2.57848e-03
        15
  0.00000e+00  0.00000e+00  6.42513e-02
        16
  0.00000e+00  0.00000e+00  9.71446e-02
        17
  0.00000e+00  0.00000e+00  5.68651e-02
        18
  0.00000e+00  0.00000e+00  3.94238e-01
        19
  0.00000e+00  0.00000e+00  3.21768e-01
        20
  0.00000e+00  0.00000e+00  2.54564e-01
        21
  0.00000e+00  0.00000e+00  1.27425e-01
        22
  0.00000e+00  0.00000e+00  3.77769e-02
        23
  0.00000e+00  0.00000e+00 -9.78834e-02
        24
  0.00000e+00  0.00000e+00 -1.48026e-01
    -1
    -1
    55                                                                          
Mode 8                                                                          
EMA                                                                             
Acceleration shapes (Uz only)                                                   
LoadCase 1                                                                      
                                                                                
         1         2         2        12         2         3
         2         4         1         8
  3.18936e+01  0.00000e+00  0.00000e+00  0.00000e+00
         1
  0.00000e+00  0.00000e+00  2.55566e-01
         2
  0.00000e+00  0.00000e+00  4.13034e-01
         3
  0.00000e+00  0.00000e+00 -4.35370e-02
         4
  0.00000e+00  0.00000e+00  2.41413e-01
         5
  0.00000e+00  0.00000e+00 -6.01796e-03
         6
  0.00000e+00  0.00000e+00 -1.02051e-01
         7
  0.00000e+00  0.00000e+00 -4.53621e-01
         8
  0.00000e+00  0.00000e+00 -2.05216e-01
         9
  0.00000e+00  0.00000e+00 -2.68257e-01
        10
  0.00000e+00  0.00000e+00 -1.48867e-01
        11
  0.00000e+00  0.00000e+00  5.08012e-02
        12
  0.00000e+00  0.00000e+00  7.02895e-02
        13
  0.00000e+00  0.00000e+00 -6.26681e-03
        14
  0.00000e+00  0.00000e+00 -1.79511e-01
        15
  0.00000e+00  0.00000e+00  4.75064e-02
        16
  0.00000e+00  0.00000e+00  3.58709e-02
        17
  0.00000e+00  0.00000e+00  4.58731e-01
        18
  0.00000e+00  0.00000e+00  7.58329e-02
        19
  0.00000e+00  0.00000e+00 -1.18422e-01
        20
  0.00000e+00  0.00000e+00 -1.23839e-02
        21
  0.00000e+00  0.00000e+00 -2.25473e-01
        22
  0.00000e+00  0.00000e+00 -1.53735e-01
        23
  0.00000e+00  0.00000e+00 -2.64428e-02
        24
  0.00000e+00  0.00000e+00 -5.09170e-02
    -1
    -1
    55                                                                          
Mode 9                                                                          
EMA                                                                             
Acceleration shapes (Uz only)                                                   
LoadCase 1                                                                      
                                                                                
         1         2         2        12         2         3
         2         4         1         9
  4.21114e+01  0.00000e+00  0.00000e+00  0.00000e+00
         1
  0.00000e+00  0.00000e+00  1.24266e-01
         2
  0.00000e+00  0.00000e+00  1.45467e-01
         3
  0.00000e+00  0.00000e+00  1.41040e-01
         4
  0.00000e+00  0.00000e+00  2.05658e-01
         5
  0.00000e+00  0.00000e+00  1.12123e-01
         6
  0.00000e+00  0.00000e+00  2.70283e-01
         7
  0.00000e+00  0.00000e+00 -2.36671e-01
         8
  0.00000e+00  0.00000e+00  2.12603e-01
         9
  0.00000e+00  0.00000e+00 -1.82613e-01
        10
  0.00000e+00  0.00000e+00  8.18706e-02
        11
  0.00000e+00  0.00000e+00  2.25873e-03
        12
  0.00000e+00  0.00000e+00  9.19702e-03
        13
  0.00000e+00  0.00000e+00  3.25017e-01
        14
  0.00000e+00  0.00000e+00  1.42688e-01
        15
  0.00000e+00  0.00000e+00  2.12753e-01
        16
  0.00000e+00  0.00000e+00  3.00200e-01
        17
  0.00000e+00  0.00000e+00  1.45898e-02
        18
  0.00000e+00  0.00000e+00  3.56519e-01
        19
  0.00000e+00  0.00000e+00 -3.92664e-01
        20
  0.00000e+00  0.00000e+00  2.20427e-01
        21
  0.00000e+00  0.00000e+00 -2.72003e-01
        22
  0.00000e+00  0.00000e+00  9.27157e-02
        23
  0.00000e+00  0.00000e+00  2.55150e-04
        24
  0.00000e+00  0.00000e+00  1.33852e-02
    -1
    -1
    55                                                                          
Mode 10                                                                         
EMA                                                                             
Acceleration shapes (Uz only)                                                   
LoadCase 1                                                                      
                                                                                
         1         2         2        12         2         3
         2         4         1        10
  4.53994e+01  0.00000e+00  0.00000e+00  0.00000e+00
         1
  0.00000e+00  0.00000e+00  4.00064e-01
         2
  0.00000e+00  0.00000e+00  3.00094e-01
         3
  0.00000e+00  0.00000e+00  3.25311e-01
         4
  0.00000e+00  0.00000e+00  3.60994e-01
         5
  0.00000e+00  0.00000e+00  5.42874e-02
         6
  0.00000e+00  0.00000e+00  6.13518e-02
         7
  0.00000e+00  0.00000e+00 -5.39688e-02
         8
  0.00000e+00  0.00000e+00 -1.50623e-01
         9
  0.00000e+00  0.00000e+00 -2.11654e-02
        10
  0.00000e+00  0.00000e+00 -1.03578e-01
        11
  0.00000e+00  0.00000e+00 -1.04138e-02
        12
  0.00000e+00  0.00000e+00 -1.12156e-02
        13
  0.00000e+00  0.00000e+00  4.36875e-01
        14
  0.00000e+00  0.00000e+00  2.57572e-01
        15
  0.00000e+00  0.00000e+00  2.70183e-01
        16
  0.00000e+00  0.00000e+00  3.12589e-01
        17
  0.00000e+00  0.00000e+00  1.31156e-02
        18
  0.00000e+00  0.00000e+00  2.23056e-02
        19
  0.00000e+00  0.00000e+00 -3.57563e-02
        20
  0.00000e+00  0.00000e+00 -1.59688e-01
        21
  0.00000e+00  0.00000e+00  1.81099e-02
        22
  0.00000e+00  0.00000e+00 -1.19214e-01
        23
  0.00000e+00  0.00000e+00  3.54971e-03
        24
  0.00000e+00  0.00000e+00 -1.05889e-02
    -1
    -1
    55                                                                          
Mode 11                                                                         
EMA                                                                             
Acceleration shapes (Uz only)                                                   
LoadCase 1                                                                      
                                                                                
         1         2         2        12         2         3
         2         4         1        11
  6.01405e+01  0.00000e+00  0.00000e+00  0.00000e+00
         1
  0.00000e+00  0.00000e+00  1.82982e-01
         2
  0.00000e+00  0.00000e+00  7.09725e-02
         3
  0.00000e+00  0.00000e+00  9.82802e-02
         4
  0.00000e+00  0.00000e+00  7.72429e-03
         5
  0.00000e+00  0.00000e+00  5.48849e-02
         6
  0.00000e+00  0.00000e+00 -4.83983e-01
         7
  0.00000e+00  0.00000e+00  2.64574e-02
         8
  0.00000e+00  0.00000e+00 -4.26887e-01
         9
  0.00000e+00  0.00000e+00  1.26860e-01
        10
  0.00000e+00  0.00000e+00 -1.58255e-01
        11
  0.00000e+00  0.00000e+00  1.54639e-02
        12
  0.00000e+00  0.00000e+00 -9.45896e-03
        13
  0.00000e+00  0.00000e+00  3.01844e-01
        14
  0.00000e+00  0.00000e+00  1.82175e-01
        15
  0.00000e+00  0.00000e+00  1.14743e-01
        16
  0.00000e+00  0.00000e+00  6.97220e-02
        17
  0.00000e+00  0.00000e+00 -5.81840e-02
        18
  0.00000e+00  0.00000e+00 -4.54449e-01
        19
  0.00000e+00  0.00000e+00 -4.76092e-03
        20
  0.00000e+00  0.00000e+00 -3.27349e-01
        21
  0.00000e+00  0.00000e+00  1.64648e-01
        22
  0.00000e+00  0.00000e+00 -4.53015e-02
        23
  0.00000e+00  0.00000e+00  3.60949e-02
        24
  0.00000e+00  0.00000e+00  1.52439e-02
    -1
    -1
    55                                                                          
Mode 12                                                                         
EMA                                                                             
Acceleration shapes (Uz only)                                                   
LoadCase 1                                                                      
                                                                                
         1         2         2        12         2         3
         2         4         1        12
  6.83590e+01  0.00000e+00  0.00000e+00  0.00000e+00
         1
  0.00000e+00  0.00000e+00  1.39515e-01
         2
  0.00000e+00  0.00000e+00  3.08652e-01
         3
  0.00000e+00  0.00000e+00  1.28059e-02
         4
  0.00000e+00  0.00000e+00  1.56743e-01
         5
  0.00000e+00  0.00000e+00 -2.71150e-01
         6
  0.00000e+00  0.00000e+00  4.76804e-02
         7
  0.00000e+00  0.00000e+00  2.98557e-02
         8
  0.00000e+00  0.00000e+00  1.27688e-01
         9
  0.00000e+00  0.00000e+00  2.68461e-01
        10
  0.00000e+00  0.00000e+00  1.09072e-01
        11
  0.00000e+00  0.00000e+00 -3.47133e-03
        12
  0.00000e+00  0.00000e+00 -1.13106e-02
        13
  0.00000e+00  0.00000e+00  1.61286e-01
        14
  0.00000e+00  0.00000e+00  2.38759e-01
        15
  0.00000e+00  0.00000e+00 -3.68923e-02
        16
  0.00000e+00  0.00000e+00  1.89486e-01
        17
  0.00000e+00  0.00000e+00 -4.18028e-01
        18
  0.00000e+00  0.00000e+00  4.14112e-01
        19
  0.00000e+00  0.00000e+00 -1.16432e-01
        20
  0.00000e+00  0.00000e+00  3.48451e-01
        21
  0.00000e+00  0.00000e+00  2.33371e-01
        22
  0.00000e+00  0.00000e+00  1.64697e-01
        23
  0.00000e+00  0.00000e+00  1.88594e-02
        24
  0.00000e+00  0.00000e+00 -3.68857e-04
    -1
