    -1
    15
         1         0         0         0      7.81760     -4.63530      0.63576
         2         0         0         0      9.70720     -4.63530      0.73676
         3         0         0         0      9.02168     -4.53370      0.69505
         4         0         0         0      9.37747     -4.53370      0.69810
         5         0         0         0      8.56214     -3.82250      0.69839
         6         0         0         0      9.24877     -3.82250      0.69834
         7         0         0         0      8.12068     -3.06050      0.70675
         8         0         0         0      9.10008     -3.06050      0.70036
         9         0         0         0      7.43669     -2.01910      0.71479
        10         0         0         0      8.88655     -1.99370      0.70320
        11         0         0         0      7.48304     -1.08778      0.75700
        12         0         0         0      8.36919     -1.08570      0.73723
        13         0         0         0      7.81760      4.63530      0.63576
        14         0         0         0      9.70720      4.63530      0.73676
        15         0         0         0      9.02168      4.53370      0.69505
        16         0         0         0      9.37747      4.53370      0.69810
        17         0         0         0      8.56214      3.82250      0.69839
        18         0         0         0      9.24877      3.82250      0.69834
        19         0         0         0      8.12068      3.06050      0.70675
        20         0         0         0      9.10008      3.06050      0.70036
        21         0         0         0      7.43669      2.01910      0.71479
        22         0         0         0      8.88655      1.99370      0.70320
        23         0         0         0      7.48304      1.08778      0.75700
        24         0         0         0      8.36919      1.08570      0.73723
    -1
    -1
    55                                                                          
Mode 1                                                                          
EMA                                                                             
Acceleration shapes (Uz only)                                                   
LoadCase 1                                                                      
                                                                                
         1         2         2        12         2         3
         2         4         1         1
  7.71676e+00  0.00000e+00  0.00000e+00  0.00000e+00
         1
  0.00000e+00  0.00000e+00  4.86080e-01
         2
  0.00000e+00  0.00000e+00 -4.45124e-01
         3
  0.00000e+00  0.00000e+00 -1.42899e-01
         4
  0.00000e+00  0.00000e+00 -2.71616e-01
         5
  0.00000e+00  0.00000e+00 -9.22262e-02
         6
  0.00000e+00  0.00000e+00 -1.89381e-01
         7
  0.00000e+00  0.00000e+00 -8.71208e-02
         8
  0.00000e+00  0.00000e+00 -1.25922e-01
         9
  0.00000e+00  0.00000e+00 -5.56552e-02
        10
  0.00000e+00  0.00000e+00 -6.93309e-02
        11
  0.00000e+00  0.00000e+00 -3.08454e-02
        12
  0.00000e+00  0.00000e+00 -3.14787e-02
        13
  0.00000e+00  0.00000e+00 -4.88147e-01
        14
  0.00000e+00  0.00000e+00  2.90716e-01
        15
  0.00000e+00  0.00000e+00  4.82482e-02
        16
  0.00000e+00  0.00000e+00  1.64513e-01
        17
  0.00000e+00  0.00000e+00  5.38435e-02
        18
  0.00000e+00  0.00000e+00  1.21346e-01
        19
  0.00000e+00  0.00000e+00  6.77808e-02
        20
  0.00000e+00  0.00000e+00  9.58079e-02
        21
  0.00000e+00  0.00000e+00  5.81138e-02
        22
  0.00000e+00  0.00000e+00  6.39648e-02
        23
  0.00000e+00  0.00000e+00  3.64190e-02
        24
  0.00000e+00  0.00000e+00  3.66468e-02
    -1
    -1
    55                                                                          
Mode 2                                                                          
EMA                                                                             
Acceleration shapes (Uz only)                                                   
LoadCase 1                                                                      
                                                                                
         1         2         2        12         2         3
         2         4         1         2
  1.07002e+01  0.00000e+00  0.00000e+00  0.00000e+00
         1
  0.00000e+00  0.00000e+00 -3.29259e-02
         2
  0.00000e+00  0.00000e+00  5.26341e-01
         3
  0.00000e+00  0.00000e+00  2.31137e-01
         4
  0.00000e+00  0.00000e+00  3.32061e-01
         5
  0.00000e+00  0.00000e+00 -1.26328e-02
         6
  0.00000e+00  0.00000e+00  2.01003e-02
         7
  0.00000e+00  0.00000e+00 -1.01726e-01
         8
  0.00000e+00  0.00000e+00 -5.53589e-02
         9
  0.00000e+00  0.00000e+00 -1.01696e-01
        10
  0.00000e+00  0.00000e+00 -7.65307e-02
        11
  0.00000e+00  0.00000e+00 -7.36196e-02
        12
  0.00000e+00  0.00000e+00 -6.95286e-02
        13
  0.00000e+00  0.00000e+00  4.07461e-03
        14
  0.00000e+00  0.00000e+00 -5.53485e-01
        15
  0.00000e+00  0.00000e+00 -2.41376e-01
        16
  0.00000e+00  0.00000e+00 -3.38491e-01
        17
  0.00000e+00  0.00000e+00  4.37986e-02
        18
  0.00000e+00  0.00000e+00 -3.77678e-02
        19
  0.00000e+00  0.00000e+00  1.03646e-01
        20
  0.00000e+00  0.00000e+00  2.07055e-02
        21
  0.00000e+00  0.00000e+00  1.01221e-01
        22
  0.00000e+00  0.00000e+00  5.69260e-02
        23
  0.00000e+00  0.00000e+00  7.61716e-02
        24
  0.00000e+00  0.00000e+00  6.89796e-02
    -1
    -1
    55                                                                          
Mode 3                                                                          
EMA                                                                             
Acceleration shapes (Uz only)                                                   
LoadCase 1                                                                      
                                                                                
         1         2         2        12         2         3
         2         4         1         3
  1.61162e+01  0.00000e+00  0.00000e+00  0.00000e+00
         1
  0.00000e+00  0.00000e+00  1.01118e-01
         2
  0.00000e+00  0.00000e+00  3.86530e-01
         3
  0.00000e+00  0.00000e+00  5.08301e-02
         4
  0.00000e+00  0.00000e+00  1.73548e-01
         5
  0.00000e+00  0.00000e+00 -3.79820e-01
         6
  0.00000e+00  0.00000e+00 -2.14312e-01
         7
  0.00000e+00  0.00000e+00 -2.29285e-01
         8
  0.00000e+00  0.00000e+00 -2.09920e-01
         9
  0.00000e+00  0.00000e+00 -4.43032e-02
        10
  0.00000e+00  0.00000e+00 -8.00053e-02
        11
  0.00000e+00  0.00000e+00 -4.30505e-02
        12
  0.00000e+00  0.00000e+00 -3.37276e-02
        13
  0.00000e+00  0.00000e+00 -2.14822e-01
        14
  0.00000e+00  0.00000e+00 -3.81742e-01
        15
  0.00000e+00  0.00000e+00 -4.36549e-02
        16
  0.00000e+00  0.00000e+00 -1.75744e-01
        17
  0.00000e+00  0.00000e+00  4.35459e-01
        18
  0.00000e+00  0.00000e+00  1.82030e-01
        19
  0.00000e+00  0.00000e+00  2.03497e-01
        20
  0.00000e+00  0.00000e+00  1.12275e-01
        21
  0.00000e+00  0.00000e+00  3.97109e-02
        22
  0.00000e+00  0.00000e+00  3.30414e-02
        23
  0.00000e+00  0.00000e+00  6.16255e-02
        24
  0.00000e+00  0.00000e+00  3.96491e-02
    -1
    -1
    55                                                                          
Mode 4                                                                          
EMA                                                                             
Acceleration shapes (Uz only)                                                   
LoadCase 1                                                                      
                                                                                
         1         2         2        12         2         3
         2         4         1         4
  1.74081e+01  0.00000e+00  0.00000e+00  0.00000e+00
         1
  0.00000e+00  0.00000e+00 -1.64331e-01
         2
  0.00000e+00  0.00000e+00 -3.72749e-01
         3
  0.00000e+00  0.00000e+00  2.07429e-03
         4
  0.00000e+00  0.00000e+00 -1.31590e-01
         5
  0.00000e+00  0.00000e+00  4.52573e-01
         6
  0.00000e+00  0.00000e+00  1.92005e-01
         7
  0.00000e+00  0.00000e+00  1.06889e-01
         8
  0.00000e+00  0.00000e+00  1.31888e-01
         9
  0.00000e+00  0.00000e+00 -1.35614e-01
        10
  0.00000e+00  0.00000e+00 -1.78180e-02
        11
  0.00000e+00  0.00000e+00 -3.24689e-02
        12
  0.00000e+00  0.00000e+00 -2.29846e-02
        13
  0.00000e+00  0.00000e+00  3.31896e-01
        14
  0.00000e+00  0.00000e+00  3.26871e-01
        15
  0.00000e+00  0.00000e+00 -2.50939e-02
        16
  0.00000e+00  0.00000e+00  1.20838e-01
        17
  0.00000e+00  0.00000e+00 -4.89812e-01
        18
  0.00000e+00  0.00000e+00 -1.26086e-01
        19
  0.00000e+00  0.00000e+00 -3.58546e-02
        20
  0.00000e+00  0.00000e+00  1.79917e-02
        21
  0.00000e+00  0.00000e+00  1.61894e-01
        22
  0.00000e+00  0.00000e+00  9.90829e-02
        23
  0.00000e+00  0.00000e+00  6.23702e-03
        24
  0.00000e+00  0.00000e+00  1.46319e-02
    -1
    -1
    55                                                                          
Mode 5                                                                          
EMA                                                                             
Acceleration shapes (Uz only)                                                   
LoadCase 1                                                                      
                                                                                
         1         2         2        12         2         3
         2         4         1         5
  1.86651e+01  0.00000e+00  0.00000e+00  0.00000e+00
         1
  0.00000e+00  0.00000e+00  2.24295e-01
         2
  0.00000e+00  0.00000e+00  2.43382e-01
         3
  0.00000e+00  0.00000e+00 -3.21530e-02
         4
  0.00000e+00  0.00000e+00  1.07288e-01
         5
  0.00000e+00  0.00000e+00 -4.14645e-01
         6
  0.00000e+00  0.00000e+00 -2.50488e-02
         7
  0.00000e+00  0.00000e+00  6.82880e-02
         8
  0.00000e+00  0.00000e+00  4.54569e-02
         9
  0.00000e+00  0.00000e+00  2.69829e-01
        10
  0.00000e+00  0.00000e+00  1.37272e-01
        11
  0.00000e+00  0.00000e+00  7.71689e-02
        12
  0.00000e+00  0.00000e+00  6.80136e-02
        13
  0.00000e+00  0.00000e+00 -3.89376e-01
        14
  0.00000e+00  0.00000e+00 -1.66191e-01
        15
  0.00000e+00  0.00000e+00  6.36366e-02
        16
  0.00000e+00  0.00000e+00 -9.34009e-02
        17
  0.00000e+00  0.00000e+00  4.07543e-01
        18
  0.00000e+00  0.00000e+00 -4.98567e-02
        19
  0.00000e+00  0.00000e+00 -1.74003e-01
        20
  0.00000e+00  0.00000e+00 -2.13014e-01
        21
  0.00000e+00  0.00000e+00 -3.12626e-01
        22
  0.00000e+00  0.00000e+00 -2.34798e-01
        23
  0.00000e+00  0.00000e+00 -5.47627e-02
        24
  0.00000e+00  0.00000e+00 -6.55247e-02
    -1
    -1
    55                                                                          
Mode 6                                                                          
EMA                                                                             
Acceleration shapes (Uz only)                                                   
LoadCase 1                                                                      
                                                                                
         1         2         2        12         2         3
         2         4         1         6
  2.25726e+01  0.00000e+00  0.00000e+00  0.00000e+00
         1
  0.00000e+00  0.00000e+00  7.62716e-02
         2
  0.00000e+00  0.00000e+00 -1.07748e-01
         3
  0.00000e+00  0.00000e+00  4.84028e-02
         4
  0.00000e+00  0.00000e+00  1.29644e-03
         5
  0.00000e+00  0.00000e+00  2.85096e-01
         6
  0.00000e+00  0.00000e+00  3.05176e-01
         7
  0.00000e+00  0.00000e+00  3.00040e-01
         8
  0.00000e+00  0.00000e+00  2.93916e-01
         9
  0.00000e+00  0.00000e+00  9.86665e-02
        10
  0.00000e+00  0.00000e+00  1.24925e-01
        11
  0.00000e+00  0.00000e+00 -3.24179e-03
        12
  0.00000e+00  0.00000e+00  5.22981e-03
        13
  0.00000e+00  0.00000e+00 -7.42180e-02
        14
  0.00000e+00  0.00000e+00  1.53659e-01
        15
  0.00000e+00  0.00000e+00 -5.84820e-02
        16
  0.00000e+00  0.00000e+00 -1.53292e-02
        17
  0.00000e+00  0.00000e+00 -3.82426e-01
        18
  0.00000e+00  0.00000e+00 -3.83181e-01
        19
  0.00000e+00  0.00000e+00 -3.51446e-01
        20
  0.00000e+00  0.00000e+00 -3.48440e-01
        21
  0.00000e+00  0.00000e+00 -1.07593e-01
        22
  0.00000e+00  0.00000e+00 -1.46374e-01
        23
  0.00000e+00  0.00000e+00  1.57459e-02
        24
  0.00000e+00  0.00000e+00 -5.57594e-04
    -1
    -1
    55                                                                          
Mode 7                                                                          
EMA                                                                             
Acceleration shapes (Uz only)                                                   
LoadCase 1                                                                      
                                                                                
         1         2         2        12         2         3
         2         4         1         7
  2.39466e+01  0.00000e+00  0.00000e+00  0.00000e+00
         1
  0.00000e+00  0.00000e+00  2.28645e-01
         2
  0.00000e+00  0.00000e+00 -2.91505e-03
         3
  0.00000e+00  0.00000e+00  9.81138e-02
         4
  0.00000e+00  0.00000e+00  1.58349e-01
         5
  0.00000e+00  0.00000e+00  1.02214e-01
         6
  0.00000e+00  0.00000e+00  4.28034e-01
         7
  0.00000e+00  0.00000e+00  3.06877e-01
         8
  0.00000e+00  0.00000e+00  3.46744e-01
         9
  0.00000e+00  0.00000e+00  1.49667e-01
        10
  0.00000e+00  0.00000e+00  1.26673e-01
        11
  0.00000e+00  0.00000e+00 -8.99368e-03
        12
  0.00000e+00  0.00000e+00 -2.62788e-02
        13
  0.00000e+00  0.00000e+00 -2.38299e-01
        14
  0.00000e+00  0.00000e+00  9.47068e-02
        15
  0.00000e+00  0.00000e+00 -1.12545e-01
        16
  0.00000e+00  0.00000e+00 -1.54309e-01
        17
  0.00000e+00  0.00000e+00 -1.10397e-01
        18
  0.00000e+00  0.00000e+00 -3.61381e-01
        19
  0.00000e+00  0.00000e+00 -3.06898e-01
        20
  0.00000e+00  0.00000e+00 -2.95094e-01
        21
  0.00000e+00  0.00000e+00 -1.54765e-01
        22
  0.00000e+00  0.00000e+00 -1.16087e-01
        23
  0.00000e+00  0.00000e+00  2.11374e-02
        24
  0.00000e+00  0.00000e+00  3.96248e-02
    -1
    -1
    55                                                                          
Mode 8                                                                          
EMA                                                                             
Acceleration shapes (Uz only)                                                   
LoadCase 1                                                                      
                                                                                
         1         2         2        12         2         3
         2         4         1         8
  2.53348e+01  0.00000e+00  0.00000e+00  0.00000e+00
         1
  0.00000e+00  0.00000e+00 -1.37592e-01
         2
  0.00000e+00  0.00000e+00  6.13396e-03
         3
  0.00000e+00  0.00000e+00  4.97739e-02
         4
  0.00000e+00  0.00000e+00 -4.56588e-02
         5
  0.00000e+00  0.00000e+00  3.06336e-01
         6
  0.00000e+00  0.00000e+00 -2.11708e-01
         7
  0.00000e+00  0.00000e+00 -1.00800e-01
         8
  0.00000e+00  0.00000e+00 -1.19839e-01
         9
  0.00000e+00  0.00000e+00 -9.71817e-02
        10
  0.00000e+00  0.00000e+00 -2.05273e-02
        11
  0.00000e+00  0.00000e+00  2.12145e-02
        12
  0.00000e+00  0.00000e+00  5.36750e-02
        13
  0.00000e+00  0.00000e+00  2.52465e-01
        14
  0.00000e+00  0.00000e+00 -1.27537e-01
        15
  0.00000e+00  0.00000e+00 -4.66975e-02
        16
  0.00000e+00  0.00000e+00  3.73668e-02
        17
  0.00000e+00  0.00000e+00  8.77275e-02
        18
  0.00000e+00  0.00000e+00  4.89672e-01
        19
  0.00000e+00  0.00000e+00  4.46650e-01
        20
  0.00000e+00  0.00000e+00  4.34571e-01
        21
  0.00000e+00  0.00000e+00  1.96709e-01
        22
  0.00000e+00  0.00000e+00  1.88036e-01
        23
  0.00000e+00  0.00000e+00 -5.95900e-02
        24
  0.00000e+00  0.00000e+00 -5.55072e-02
    -1
    -1
    55                                                                          
Mode 9                                                                          
EMA                                                                             
Acceleration shapes (Uz only)                                                   
LoadCase 1                                                                      
                                                                                
         1         2         2        12         2         3
         2         4         1         9
  2.74224e+01  0.00000e+00  0.00000e+00  0.00000e+00
         1
  0.00000e+00  0.00000e+00  2.35824e-01
         2
  0.00000e+00  0.00000e+00  5.67227e-02
         3
  0.00000e+00  0.00000e+00  1.43976e-01
         4
  0.00000e+00  0.00000e+00  1.72241e-01
         5
  0.00000e+00  0.00000e+00  2.32066e-01
         6
  0.00000e+00  0.00000e+00  4.38801e-01
         7
  0.00000e+00  0.00000e+00  2.52790e-01
         8
  0.00000e+00  0.00000e+00  3.58008e-01
         9
  0.00000e+00  0.00000e+00  2.77079e-02
        10
  0.00000e+00  0.00000e+00  1.17351e-01
        11
  0.00000e+00  0.00000e+00 -7.58428e-02
        12
  0.00000e+00  0.00000e+00 -4.95042e-02
        13
  0.00000e+00  0.00000e+00 -2.35741e-01
        14
  0.00000e+00  0.00000e+00  5.11598e-02
        15
  0.00000e+00  0.00000e+00 -8.98112e-02
        16
  0.00000e+00  0.00000e+00 -1.00588e-01
        17
  0.00000e+00  0.00000e+00 -1.85317e-01
        18
  0.00000e+00  0.00000e+00 -3.72845e-01
        19
  0.00000e+00  0.00000e+00 -2.27876e-01
        20
  0.00000e+00  0.00000e+00 -3.23002e-01
        21
  0.00000e+00  0.00000e+00 -3.45280e-02
        22
  0.00000e+00  0.00000e+00 -1.22477e-01
        23
  0.00000e+00  0.00000e+00  7.48489e-02
        24
  0.00000e+00  0.00000e+00  4.21204e-02
    -1
    -1
    55                                                                          
Mode 10                                                                         
EMA                                                                             
Acceleration shapes (Uz only)                                                   
LoadCase 1                                                                      
                                                                                
         1         2         2        12         2         3
         2         4         1        10
  3.18478e+01  0.00000e+00  0.00000e+00  0.00000e+00
         1
  0.00000e+00  0.00000e+00 -1.34177e-01
         2
  0.00000e+00  0.00000e+00  8.33731e-02
         3
  0.00000e+00  0.00000e+00 -1.82450e-01
         4
  0.00000e+00  0.00000e+00 -1.16854e-01
         5
  0.00000e+00  0.00000e+00 -3.17692e-01
         6
  0.00000e+00  0.00000e+00 -3.92740e-01
         7
  0.00000e+00  0.00000e+00 -2.68580e-01
         8
  0.00000e+00  0.00000e+00 -3.08415e-01
         9
  0.00000e+00  0.00000e+00 -5.28129e-03
        10
  0.00000e+00  0.00000e+00 -5.42872e-02
        11
  0.00000e+00  0.00000e+00  9.88310e-02
        12
  0.00000e+00  0.00000e+00  9.86941e-02
        13
  0.00000e+00  0.00000e+00  3.10659e-01
        14
  0.00000e+00  0.00000e+00  2.97848e-02
        15
  0.00000e+00  0.00000e+00  1.52450e-01
        16
  0.00000e+00  0.00000e+00  2.04810e-01
        17
  0.00000e+00  0.00000e+00  1.72287e-01
        18
  0.00000e+00  0.00000e+00  4.12943e-01
        19
  0.00000e+00  0.00000e+00  1.21369e-01
        20
  0.00000e+00  0.00000e+00  2.79554e-01
        21
  0.00000e+00  0.00000e+00 -5.69398e-02
        22
  0.00000e+00  0.00000e+00  3.52864e-02
        23
  0.00000e+00  0.00000e+00 -1.09267e-01
        24
  0.00000e+00  0.00000e+00 -1.05334e-01
    -1
    -1
    55                                                                          
Mode 11                                                                         
EMA                                                                             
Acceleration shapes (Uz only)                                                   
LoadCase 1                                                                      
                                                                                
         1         2         2        12         2         3
         2         4         1        11
  4.17126e+01  0.00000e+00  0.00000e+00  0.00000e+00
         1
  0.00000e+00  0.00000e+00  3.64484e-01
         2
  0.00000e+00  0.00000e+00  3.16479e-01
         3
  0.00000e+00  0.00000e+00  2.44161e-01
         4
  0.00000e+00  0.00000e+00  3.59466e-01
         5
  0.00000e+00  0.00000e+00 -1.26258e-01
         6
  0.00000e+00  0.00000e+00  2.63131e-01
         7
  0.00000e+00  0.00000e+00 -2.31528e-01
         8
  0.00000e+00  0.00000e+00  1.28990e-01
         9
  0.00000e+00  0.00000e+00 -4.79791e-02
        10
  0.00000e+00  0.00000e+00  9.92782e-02
        11
  0.00000e+00  0.00000e+00  2.53843e-02
        12
  0.00000e+00  0.00000e+00  2.40359e-02
        13
  0.00000e+00  0.00000e+00 -3.80878e-01
        14
  0.00000e+00  0.00000e+00 -2.42685e-01
        15
  0.00000e+00  0.00000e+00 -1.84327e-01
        16
  0.00000e+00  0.00000e+00 -2.79542e-01
        17
  0.00000e+00  0.00000e+00  1.59939e-01
        18
  0.00000e+00  0.00000e+00 -1.68258e-01
        19
  0.00000e+00  0.00000e+00  1.72571e-01
        20
  0.00000e+00  0.00000e+00 -6.82987e-02
        21
  0.00000e+00  0.00000e+00 -7.57652e-03
        22
  0.00000e+00  0.00000e+00 -6.04350e-02
        23
  0.00000e+00  0.00000e+00 -3.13291e-02
        24
  0.00000e+00  0.00000e+00 -1.56868e-02
    -1
    -1
    55                                                                          
Mode 12                                                                         
EMA                                                                             
Acceleration shapes (Uz only)                                                   
LoadCase 1                                                                      
                                                                                
         1         2         2        12         2         3
         2         4         1        12
  4.48287e+01  0.00000e+00  0.00000e+00  0.00000e+00
         1
  0.00000e+00  0.00000e+00 -4.41002e-01
         2
  0.00000e+00  0.00000e+00 -2.95245e-01
         3
  0.00000e+00  0.00000e+00 -3.51240e-01
         4
  0.00000e+00  0.00000e+00 -3.79952e-01
         5
  0.00000e+00  0.00000e+00 -6.49667e-02
         6
  0.00000e+00  0.00000e+00 -6.46510e-02
         7
  0.00000e+00  0.00000e+00  3.92507e-02
         8
  0.00000e+00  0.00000e+00  1.83758e-01
         9
  0.00000e+00  0.00000e+00  1.01968e-02
        10
  0.00000e+00  0.00000e+00  1.36064e-01
        11
  0.00000e+00  0.00000e+00  4.18991e-03
        12
  0.00000e+00  0.00000e+00  1.26016e-02
        13
  0.00000e+00  0.00000e+00  3.65824e-01
        14
  0.00000e+00  0.00000e+00  2.14501e-01
        15
  0.00000e+00  0.00000e+00  2.31534e-01
        16
  0.00000e+00  0.00000e+00  2.42010e-01
        17
  0.00000e+00  0.00000e+00  4.74074e-02
        18
  0.00000e+00  0.00000e+00 -8.24437e-02
        19
  0.00000e+00  0.00000e+00  6.08753e-02
        20
  0.00000e+00  0.00000e+00 -2.30509e-01
        21
  0.00000e+00  0.00000e+00  8.24758e-02
        22
  0.00000e+00  0.00000e+00 -1.52352e-01
        23
  0.00000e+00  0.00000e+00  9.24957e-03
        24
  0.00000e+00  0.00000e+00 -1.06509e-02
    -1
    -1
    55                                                                          
Mode 13                                                                         
EMA                                                                             
Acceleration shapes (Uz only)                                                   
LoadCase 1                                                                      
                                                                                
         1         2         2        12         2         3
         2         4         1        13
  6.03772e+01  0.00000e+00  0.00000e+00  0.00000e+00
         1
  0.00000e+00  0.00000e+00  2.50461e-01
         2
  0.00000e+00  0.00000e+00  1.50024e-01
         3
  0.00000e+00  0.00000e+00  1.41144e-01
         4
  0.00000e+00  0.00000e+00  8.23191e-02
         5
  0.00000e+00  0.00000e+00 -1.79970e-02
         6
  0.00000e+00  0.00000e+00 -4.50885e-01
         7
  0.00000e+00  0.00000e+00 -5.04449e-02
         8
  0.00000e+00  0.00000e+00 -3.45817e-01
         9
  0.00000e+00  0.00000e+00  2.23211e-01
        10
  0.00000e+00  0.00000e+00 -2.86819e-02
        11
  0.00000e+00  0.00000e+00  5.91682e-02
        12
  0.00000e+00  0.00000e+00  2.99207e-02
        13
  0.00000e+00  0.00000e+00 -3.55092e-01
        14
  0.00000e+00  0.00000e+00 -2.56354e-01
        15
  0.00000e+00  0.00000e+00 -1.38308e-01
        16
  0.00000e+00  0.00000e+00 -1.54999e-01
        17
  0.00000e+00  0.00000e+00  1.76825e-01
        18
  0.00000e+00  0.00000e+00  3.18287e-01
        19
  0.00000e+00  0.00000e+00  1.06566e-01
        20
  0.00000e+00  0.00000e+00  1.93901e-01
        21
  0.00000e+00  0.00000e+00 -2.60948e-01
        22
  0.00000e+00  0.00000e+00 -7.78945e-02
        23
  0.00000e+00  0.00000e+00 -1.08608e-01
        24
  0.00000e+00  0.00000e+00 -6.94294e-02
    -1
    -1
    55                                                                          
Mode 14                                                                         
EMA                                                                             
Acceleration shapes (Uz only)                                                   
LoadCase 1                                                                      
                                                                                
         1         2         2        12         2         3
         2         4         1        14
  6.34710e+01  0.00000e+00  0.00000e+00  0.00000e+00
         1
  0.00000e+00  0.00000e+00  1.02686e-01
         2
  0.00000e+00  0.00000e+00 -1.45809e-01
         3
  0.00000e+00  0.00000e+00  1.25439e-01
         4
  0.00000e+00  0.00000e+00 -1.98073e-02
         5
  0.00000e+00  0.00000e+00  2.31968e-01
         6
  0.00000e+00  0.00000e+00 -2.52220e-01
         7
  0.00000e+00  0.00000e+00 -5.79611e-02
         8
  0.00000e+00  0.00000e+00 -3.50147e-01
         9
  0.00000e+00  0.00000e+00 -8.33002e-02
        10
  0.00000e+00  0.00000e+00 -2.23859e-01
        11
  0.00000e+00  0.00000e+00  3.67222e-02
        12
  0.00000e+00  0.00000e+00 -1.76759e-02
        13
  0.00000e+00  0.00000e+00 -1.04121e-01
        14
  0.00000e+00  0.00000e+00  4.43544e-02
        15
  0.00000e+00  0.00000e+00 -1.48331e-01
        16
  0.00000e+00  0.00000e+00  2.79852e-02
        17
  0.00000e+00  0.00000e+00 -2.85235e-01
        18
  0.00000e+00  0.00000e+00  5.12654e-01
        19
  0.00000e+00  0.00000e+00 -1.91405e-02
        20
  0.00000e+00  0.00000e+00  4.75448e-01
        21
  0.00000e+00  0.00000e+00  6.30468e-02
        22
  0.00000e+00  0.00000e+00  1.97809e-01
        23
  0.00000e+00  0.00000e+00 -2.57643e-02
        24
  0.00000e+00  0.00000e+00  4.19406e-03
    -1
