    -1
   151
Unknown                                                                         
Unknown                                                                         
NX: Advanced Simulation                                                         
Unknown   Unknown            0         0         0
Unknown   Unknown   
NX: Correlation                                                                 
24-NOV-25   23:38:50 2412    1    0    0    0
    -1
    -1
   164
         1Meter (newton)               2
  1.00000000000000000D+00  1.00000000000000000D+00  1.00000000000000000D+00
  2.73149999999999977D+02
    -1
    -1
  2400
          13     7    -1           0
Fem1                                                                            
                                                                                
 0 0 0 0 0 0 0 0 0 0 0 0 0 0 0 0 0 0 0 0 0 0 0 0 0 0 0 0 0 0 0 0
24-NOV-25   23:38:50           0           0           0
           0
    -1
    -1
  2420
         1
Part1
         1         0         2
CS1
   1.0000000000000000D+00   0.0000000000000000D+00   0.0000000000000000D+00
   0.0000000000000000D+00   1.0000000000000000D+00   0.0000000000000000D+00
   0.0000000000000000D+00   0.0000000000000000D+00   1.0000000000000000D+00
   0.0000000000000000D+00   0.0000000000000000D+00   0.0000000000000000D+00
    -1
    -1
  2411
    121464         1         1        11
   7.7633977539062498D+00  -4.6349501953125003D+00   5.9896598510742183D-01
    121479         1         1        11
   9.7662650634765633D+00  -4.6349501953125003D+00   7.0601349334716790D-01
    126150         1         1        11
   7.4909513882562253D+00  -1.0741667407773539D+00   7.4128540321371361D-01
    127032         1         1        11
   8.3861453033007329D+00  -1.0920785407841458D+00   7.2874391085275392D-01
    129813         1         1        11
   8.5656689347244654D+00  -3.8111213984168755D+00   6.9914563100762928D-01
    130039         1         1        11
   9.0211216883366543D+00  -4.5241315656325600D+00   6.9534800882421632D-01
    130066         1         1        11
   9.2332402546547243D+00  -3.8177943888344319D+00   6.9910134570535176D-01
    130937         1         1        11
   9.3928190460087997D+00  -4.5197577996729503D+00   6.9750946620827758D-01
    131560         1         1        11
   8.1099279676167271D+00  -3.0434831234195618D+00   7.0689627574046965D-01
    131964         1         1        11
   9.0998983367384891D+00  -3.0465422571204837D+00   7.0021699626639800D-01
    159845         1         1        11
   7.4487767072902997D+00  -2.0175918461390450D+00   7.1562637418263941D-01
    160320         1         1        11
   8.8802468252267932D+00  -1.9924144139216009D+00   7.0361227683766414D-01
    185255         1         1        11
   7.7633977539062498D+00   4.6349501953125003D+00   5.9896598510742183D-01
    185270         1         1        11
   9.7662650634765633D+00   4.6349501953125003D+00   7.0601349334716790D-01
    185574         1         1        11
   7.4909513882562253D+00   1.0741667407773539D+00   7.4128540321371361D-01
    185906         1         1        11
   8.3861453033007329D+00   1.0920785407841458D+00   7.2874391085275392D-01 
    187401         1         1        11
   8.5656689347244654D+00   3.8111213984168755D+00   6.9914563100762928D-01
    187627         1         1        11
   9.0211216883366543D+00   4.5241315656325600D+00   6.9534800882421632D-01
    187654         1         1        11
   9.2332402546547243D+00   3.8177943888344319D+00   6.9910134570535176D-01
    189148         1         1        11
   8.1099279676167271D+00   3.0434831234195618D+00   7.0689627574046965D-01
    189552         1         1        11
   9.0998983367384891D+00   3.0465422571204837D+00   7.0021699626639800D-01
    192710         1         1        11
   9.3927219559900177D+00   4.5191951370287216D+00   6.7276369575045269D-01
    193875         1         1        11
   7.4487767072902997D+00   2.0175918461390450D+00   7.1562637418263941D-01
    194350         1         1        11
   8.8802468252267932D+00   1.9924144139216009D+00   7.0361227683766414D-01
    -1
    -1
    82
         1         2         4
Uz                                                                              
    121464    129813
    -1
    -1
    82
         2         2         4
Uz                                                                              
    121464    130039
    -1
    -1
    82
         3         2         4
Uz                                                                              
    121464    131560
    -1
    -1
    82
         4         2         4
Uz                                                                              
    121479    130066
    -1
    -1
    82
         5         2         4
Uz                                                                              
    121479    130937
    -1
    -1
    82
         6         2         4
Uz                                                                              
    126150    127032
    -1
    -1
    82
         7         2         4
Uz                                                                              
    126150    159845
    -1
    -1
    82
         8         2         4
Uz                                                                              
    126150    160320
    -1
    -1
    82
         9         2         4
Uz                                                                              
    127032    159845
    -1
    -1
    82
        10         2         4
Uz                                                                              
    127032    160320
    -1
    -1
    82
        11         2         4
Uz                                                                              
    129813    130039
    -1
    -1
    82
        12         2         4
Uz                                                                              
    129813    130066
    -1
    -1
    82
        13         2         4
Uz                                                                              
    129813    131560
    -1
    -1
    82
        14         2         4
Uz                                                                              
    130039    130066
    -1
    -1
    82
        15         2         4
Uz                                                                              
    130039    130937
    -1
    -1
    82
        16         2         4
Uz                                                                              
    130066    131964
    -1
    -1
    82
        17         2         4
Uz                                                                              
    131560    131964
    -1
    -1
    82
        18         2         4
Uz                                                                              
    131560    159845
    -1
    -1
    82
        19         2         4
Uz                                                                              
    131964    160320
    -1
    -1
    82
        20         2         4
Uz                                                                              
    159845    160320
    -1
    -1
    82
        21         2         4
Uz                                                                              
    185255    187401
    -1
    -1
    82
        22         2         4
Uz                                                                              
    185255    187627
    -1
    -1
    82
        23         2         4
Uz                                                                              
    185255    189148
    -1
    -1
    82
        24         2         4
Uz                                                                              
    185270    187654
    -1
    -1
    82
        25         2         4
Uz                                                                              
    185270    192710
    -1
    -1
    82
        26         2         4
Uz                                                                              
    185574    185906
    -1
    -1
    82
        27         2         4
Uz                                                                              
    185574    193875
    -1
    -1
    82
        28         2         4
Uz                                                                              
    185574    194350
    -1
    -1
    82
        29         2         4
Uz                                                                              
    185906    193875
    -1
    -1
    82
        30         2         4
Uz                                                                              
    185906    194350
    -1
    -1
    82
        31         2         4
Uz                                                                              
    187401    187627
    -1
    -1
    82
        32         2         4
Uz                                                                              
    187401    187654
    -1
    -1
    82
        33         2         4
Uz                                                                              
    187401    189148
    -1
    -1
    82
        34         2         4
Uz                                                                              
    187627    187654
    -1
    -1
    82
        35         2         4
Uz                                                                              
    187627    192710
    -1
    -1
    82
        36         2         4
Uz                                                                              
    187654    189552
    -1
    -1
    82
        37         2         4
Uz                                                                              
    189148    189552
    -1
    -1
    82
        38         2         4
Uz                                                                              
    189148    193875
    -1
    -1
    82
        39         2         4
Uz                                                                              
    189552    194350
    -1
    -1
    82
        40         2         4
Uz                                                                              
    193875    194350
    -1
    -1
  2414
         1
Mode shape record 1
         1
NONE
NONE
NONE
NONE
NONE
         1         2         2         8         2         3
         0         0         1         0         0         1         0         0
         0         0
  0.00000E+00  7.70000E+00  0.00000E+00  1.00000E+00  0.00000E+00  0.00000E+00
  0.00000E+00  0.00000E+00  0.00000E+00  0.00000E+00  0.00000E+00  0.00000E+00
        121464
  0.00000e+00  0.00000e+00  5.21852e-01
        121479
  0.00000e+00  0.00000e+00 -4.86477e-01
        130039
  0.00000e+00  0.00000e+00 -1.72760e-01
        130937
  0.00000e+00  0.00000e+00 -3.13739e-01
        129813
  0.00000e+00  0.00000e+00 -7.42304e-02
        130066
  0.00000e+00  0.00000e+00 -2.31635e-01
        131560
  0.00000e+00  0.00000e+00 -8.63086e-02
        131964
  0.00000e+00  0.00000e+00 -1.41276e-01
        159845
  0.00000e+00  0.00000e+00 -5.43259e-02
        160320
  0.00000e+00  0.00000e+00 -7.69205e-02
        126150
  0.00000e+00  0.00000e+00 -2.71700e-02
        127032
  0.00000e+00  0.00000e+00 -2.68949e-02
        185255
  0.00000e+00  0.00000e+00 -3.86092e-01
        185270
  0.00000e+00  0.00000e+00  2.37886e-01
        187627
  0.00000e+00  0.00000e+00  2.29540e-02
        192710
  0.00000e+00  0.00000e+00  1.17081e-01
        187401
  0.00000e+00  0.00000e+00  8.30948e-02
        187654
  0.00000e+00  0.00000e+00  8.85378e-02
        189148
  0.00000e+00  0.00000e+00  7.42810e-02
        189552
  0.00000e+00  0.00000e+00  1.11627e-01
        193875
  0.00000e+00  0.00000e+00  6.37173e-02
        194350
  0.00000e+00  0.00000e+00  7.58300e-02
        185574
  0.00000e+00  0.00000e+00  4.25298e-02
        185906
  0.00000e+00  0.00000e+00  3.99752e-02
    -1
    -1
  2414
         2
Mode shape record 2
         1
NONE
NONE
NONE
NONE
NONE
         1         2         2         8         2         3
         0         0         1         0         0         2         0         0
         0         0
  0.00000E+00  8.52000E+00  0.00000E+00  1.00000E+00  0.00000E+00  0.00000E+00
  0.00000E+00  0.00000E+00  0.00000E+00  0.00000E+00  0.00000E+00  0.00000E+00
        121464
  0.00000e+00  0.00000e+00  2.32687e-01
        121479
  0.00000e+00  0.00000e+00 -4.49135e-01
        130039
  0.00000e+00  0.00000e+00 -2.05683e-01
        130937
  0.00000e+00  0.00000e+00 -3.03182e-01
        129813
  0.00000e+00  0.00000e+00 -7.34263e-02
        130066
  0.00000e+00  0.00000e+00 -1.58792e-01
        131560
  0.00000e+00  0.00000e+00 -3.15765e-02
        131964
  0.00000e+00  0.00000e+00 -7.25747e-02
        159845
  0.00000e+00  0.00000e+00  1.29277e-03
        160320
  0.00000e+00  0.00000e+00 -1.74573e-02
        126150
  0.00000e+00  0.00000e+00  9.69923e-03
        127032
  0.00000e+00  0.00000e+00  9.13910e-03
        185255
  0.00000e+00  0.00000e+00  3.47959e-01
        185270
  0.00000e+00  0.00000e+00 -5.07276e-01
        187627
  0.00000e+00  0.00000e+00 -2.02632e-01
        192710
  0.00000e+00  0.00000e+00 -3.29127e-01
        187401
  0.00000e+00  0.00000e+00 -7.74117e-02
        187654
  0.00000e+00  0.00000e+00 -1.68798e-01
        189148
  0.00000e+00  0.00000e+00 -3.93792e-02
        189552
  0.00000e+00  0.00000e+00 -8.81060e-02
        193875
  0.00000e+00  0.00000e+00 -8.76380e-03
        194350
  0.00000e+00  0.00000e+00 -2.95017e-02
        185574
  0.00000e+00  0.00000e+00  3.62303e-03
        185906
  0.00000e+00  0.00000e+00  2.77158e-03
    -1
    -1
  2414
         3
Mode shape record 3
         1
NONE
NONE
NONE
NONE
NONE
         1         2         2         8         2         3
         0         0         1         0         0         3         0         0
         0         0
  0.00000E+00  1.48555E+01  0.00000E+00  1.00000E+00  0.00000E+00  0.00000E+00
  0.00000E+00  0.00000E+00  0.00000E+00  0.00000E+00  0.00000E+00  0.00000E+00
        121464
  0.00000e+00  0.00000e+00  1.67175e-02
        121479
  0.00000e+00  0.00000e+00 -2.46506e-01
        130039
  0.00000e+00  0.00000e+00 -7.66548e-02
        130937
  0.00000e+00  0.00000e+00 -1.15350e-01
        129813
  0.00000e+00  0.00000e+00  3.28554e-02
        130066
  0.00000e+00  0.00000e+00  1.84534e-01
        131560
  0.00000e+00  0.00000e+00  2.71676e-01
        131964
  0.00000e+00  0.00000e+00  2.25203e-01
        159845
  0.00000e+00  0.00000e+00  3.20594e-01
        160320
  0.00000e+00  0.00000e+00  2.30786e-01
        126150
  0.00000e+00  0.00000e+00  2.65134e-01
        127032
  0.00000e+00  0.00000e+00  2.08477e-01
        185255
  0.00000e+00  0.00000e+00 -3.85770e-02
        185270
  0.00000e+00  0.00000e+00 -2.83269e-01
        187627
  0.00000e+00  0.00000e+00 -1.02796e-01
        192710
  0.00000e+00  0.00000e+00 -1.40916e-01
        187401
  0.00000e+00  0.00000e+00  4.78193e-02
        187654
  0.00000e+00  0.00000e+00  1.35315e-01
        189148
  0.00000e+00  0.00000e+00  2.79448e-01
        189552
  0.00000e+00  0.00000e+00  1.64223e-01
        193875
  0.00000e+00  0.00000e+00  3.19147e-01
        194350
  0.00000e+00  0.00000e+00  1.96064e-01
        185574
  0.00000e+00  0.00000e+00  2.62079e-01
        185906
  0.00000e+00  0.00000e+00  2.08624e-01
    -1
    -1
  2414
         4
Mode shape record 4
         1
NONE
NONE
NONE
NONE
NONE
         1         2         2         8         2         3
         0         0         1         0         0         4         0         0
         0         0
  0.00000E+00  2.28100E+01  0.00000E+00  1.00000E+00  0.00000E+00  0.00000E+00
  0.00000E+00  0.00000E+00  0.00000E+00  0.00000E+00  0.00000E+00  0.00000E+00
        121464
  0.00000e+00  0.00000e+00 -1.10471e-01
        121479
  0.00000e+00  0.00000e+00  1.24208e-01
        130039
  0.00000e+00  0.00000e+00 -7.01750e-02
        130937
  0.00000e+00  0.00000e+00 -5.70076e-02
        129813
  0.00000e+00  0.00000e+00 -3.42207e-01
        130066
  0.00000e+00  0.00000e+00 -3.75242e-01
        131560
  0.00000e+00  0.00000e+00 -3.10820e-01
        131964
  0.00000e+00  0.00000e+00 -3.59752e-01
        159845
  0.00000e+00  0.00000e+00 -9.60614e-02
        160320
  0.00000e+00  0.00000e+00 -1.52509e-01
        126150
  0.00000e+00  0.00000e+00  6.22565e-03
        127032
  0.00000e+00  0.00000e+00 -8.71085e-03
        185255
  0.00000e+00  0.00000e+00 -8.83564e-02
        185270
  0.00000e+00  0.00000e+00  9.72978e-02
        187627
  0.00000e+00  0.00000e+00 -7.47934e-02
        192710
  0.00000e+00  0.00000e+00 -9.48051e-02
        187401
  0.00000e+00  0.00000e+00 -3.11671e-01
        187654
  0.00000e+00  0.00000e+00 -3.68495e-01
        189148
  0.00000e+00  0.00000e+00 -2.48703e-01
        189552
  0.00000e+00  0.00000e+00 -3.18341e-01
        193875
  0.00000e+00  0.00000e+00 -6.02301e-02
        194350
  0.00000e+00  0.00000e+00 -1.24339e-01
        185574
  0.00000e+00  0.00000e+00  2.24658e-02
        185906
  0.00000e+00  0.00000e+00  8.96387e-03
    -1
    -1
  2414
         5
Mode shape record 5
         1
NONE
NONE
NONE
NONE
NONE
         1         2         2         8         2         3
         0         0         1         0         0         5         0         0
         0         0
  0.00000E+00  2.40600E+01  0.00000E+00  1.00000E+00  0.00000E+00  0.00000E+00
  0.00000E+00  0.00000E+00  0.00000E+00  0.00000E+00  0.00000E+00  0.00000E+00
        121464
  0.00000e+00  0.00000e+00  8.42712e-02
        121479
  0.00000e+00  0.00000e+00 -1.19060e-01
        130039
  0.00000e+00  0.00000e+00  1.25037e-02
        130937
  0.00000e+00  0.00000e+00 -2.76210e-03
        129813
  0.00000e+00  0.00000e+00  3.02960e-01
        130066
  0.00000e+00  0.00000e+00  3.50979e-01
        131560
  0.00000e+00  0.00000e+00  3.06276e-01
        131964
  0.00000e+00  0.00000e+00  3.58147e-01
        159845
  0.00000e+00  0.00000e+00  9.67985e-02
        160320
  0.00000e+00  0.00000e+00  1.53746e-01
        126150
  0.00000e+00  0.00000e+00 -1.68682e-02
        127032
  0.00000e+00  0.00000e+00 -4.01014e-03
        185255
  0.00000e+00  0.00000e+00  1.11668e-01
        185270
  0.00000e+00  0.00000e+00 -2.41985e-01
        187627
  0.00000e+00  0.00000e+00 -1.61905e-02
        192710
  0.00000e+00  0.00000e+00 -8.77037e-02
        187401
  0.00000e+00  0.00000e+00  3.11351e-01
        187654
  0.00000e+00  0.00000e+00  3.03242e-01
        189148
  0.00000e+00  0.00000e+00  3.12391e-01
        189552
  0.00000e+00  0.00000e+00  3.26380e-01
        193875
  0.00000e+00  0.00000e+00  1.11025e-01
        194350
  0.00000e+00  0.00000e+00  1.53443e-01
        185574
  0.00000e+00  0.00000e+00 -1.85948e-02
        185906
  0.00000e+00  0.00000e+00 -2.36928e-04
    -1
    -1
  2414
         6
Mode shape record 6
         1
NONE
NONE
NONE
NONE
NONE
         1         2         2         8         2         3
         0         0         1         0         0         6         0         0
         0         0
  0.00000E+00  2.85000E+01  0.00000E+00  1.00000E+00  0.00000E+00  0.00000E+00
  0.00000E+00  0.00000E+00  0.00000E+00  0.00000E+00  0.00000E+00  0.00000E+00
        121464
  0.00000e+00  0.00000e+00  2.61574e-01
        121479
  0.00000e+00  0.00000e+00  4.19347e-02
        130039
  0.00000e+00  0.00000e+00  1.20180e-01
        130937
  0.00000e+00  0.00000e+00  1.73075e-01
        129813
  0.00000e+00  0.00000e+00  3.19844e-02
        130066
  0.00000e+00  0.00000e+00  5.00647e-01
        131560
  0.00000e+00  0.00000e+00  2.59680e-01
        131964
  0.00000e+00  0.00000e+00  3.31500e-01
        159845
  0.00000e+00  0.00000e+00  6.26728e-02
        160320
  0.00000e+00  0.00000e+00  5.23757e-02
        126150
  0.00000e+00  0.00000e+00 -1.20384e-01
        127032
  0.00000e+00  0.00000e+00 -1.71609e-01
        185255
  0.00000e+00  0.00000e+00  1.26845e-01
        185270
  0.00000e+00  0.00000e+00 -2.57848e-03
        187627
  0.00000e+00  0.00000e+00  6.42513e-02
        192710
  0.00000e+00  0.00000e+00  9.71446e-02
        187401
  0.00000e+00  0.00000e+00  5.68651e-02
        187654
  0.00000e+00  0.00000e+00  3.94238e-01
        189148
  0.00000e+00  0.00000e+00  3.21768e-01
        189552
  0.00000e+00  0.00000e+00  2.54564e-01
        193875
  0.00000e+00  0.00000e+00  1.27425e-01
        194350
  0.00000e+00  0.00000e+00  3.77769e-02
        185574
  0.00000e+00  0.00000e+00 -9.78834e-02
        185906
  0.00000e+00  0.00000e+00 -1.48026e-01
    -1
    -1
  1802
         1Sensors                     24
Sensor DOFs                                                                     
    121464Z+      121479Z+      126150Z+      127032Z+      129813Z+  
    130039Z+      130066Z+      130937Z+      131560Z+      131964Z+  
    159845Z+      160320Z+      185255Z+      185270Z+      185574Z+  
    185906Z+      187401Z+      187627Z+      187654Z+      189148Z+  
    189552Z+      192710Z+      193875Z+      194350Z+  
    -1
