    -1
   151
Unknown                                                                         
Unknown                                                                         
NX: Advanced Simulation                                                         
Unknown   Unknown            0         0         0
Unknown   Unknown   
NX: Correlation                                                                 
24-NOV-25   23:38:50 2412    1    0    0    0
    -1
    -1
   164
         1Meter (newton)               2
  1.00000000000000000D+00  1.00000000000000000D+00  1.00000000000000000D+00
  2.73149999999999977D+02
    -1
    -1
  2400
          13     7    -1           0
Fem1                                                                            
                                                                                
 0 0 0 0 0 0 0 0 0 0 0 0 0 0 0 0 0 0 0 0 0 0 0 0 0 0 0 0 0 0 0 0
24-NOV-25   23:38:50           0           0           0
           0
    -1
    -1
  2420
         1
Part1
         1         0         2
CS1
   1.0000000000000000D+00   0.0000000000000000D+00   0.0000000000000000D+00
   0.0000000000000000D+00   1.0000000000000000D+00   0.0000000000000000D+00
   0.0000000000000000D+00   0.0000000000000000D+00   1.0000000000000000D+00
   0.0000000000000000D+00   0.0000000000000000D+00   0.0000000000000000D+00
    -1
    -1
  2411
    121464         1         1        11
   7.7633977539062498D+00  -4.6349501953125003D+00   5.9896598510742183D-01
    121479         1         1        11
   9.7662650634765633D+00  -4.6349501953125003D+00   7.0601349334716790D-01
    126150         1         1        11
   7.4909513882562253D+00  -1.0741667407773539D+00   7.4128540321371361D-01
    127032         1         1        11
   8.3861453033007329D+00  -1.0920785407841458D+00   7.2874391085275392D-01
    129813         1         1        11
   8.5656689347244654D+00  -3.8111213984168755D+00   6.9914563100762928D-01
    130039         1         1        11
   9.0211216883366543D+00  -4.5241315656325600D+00   6.9534800882421632D-01
    130066         1         1        11
   9.2332402546547243D+00  -3.8177943888344319D+00   6.9910134570535176D-01
    130937         1         1        11
   9.3928190460087997D+00  -4.5197577996729503D+00   6.9750946620827758D-01
    131560         1         1        11
   8.1099279676167271D+00  -3.0434831234195618D+00   7.0689627574046965D-01
    131964         1         1        11
   9.0998983367384891D+00  -3.0465422571204837D+00   7.0021699626639800D-01
    159845         1         1        11
   7.4487767072902997D+00  -2.0175918461390450D+00   7.1562637418263941D-01
    160320         1         1        11
   8.8802468252267932D+00  -1.9924144139216009D+00   7.0361227683766414D-01
    185255         1         1        11
   7.7633977539062498D+00   4.6349501953125003D+00   5.9896598510742183D-01
    185270         1         1        11
   9.7662650634765633D+00   4.6349501953125003D+00   7.0601349334716790D-01
    185574         1         1        11
   7.4909513882562253D+00   1.0741667407773539D+00   7.4128540321371361D-01
    185906         1         1        11
   8.3861453033007329D+00   1.0920785407841458D+00   7.2874391085275392D-01 
    187401         1         1        11
   8.5656689347244654D+00   3.8111213984168755D+00   6.9914563100762928D-01
    187627         1         1        11
   9.0211216883366543D+00   4.5241315656325600D+00   6.9534800882421632D-01
    187654         1         1        11
   9.2332402546547243D+00   3.8177943888344319D+00   6.9910134570535176D-01
    189148         1         1        11
   8.1099279676167271D+00   3.0434831234195618D+00   7.0689627574046965D-01
    189552         1         1        11
   9.0998983367384891D+00   3.0465422571204837D+00   7.0021699626639800D-01
    192710         1         1        11
   9.3927219559900177D+00   4.5191951370287216D+00   6.7276369575045269D-01
    193875         1         1        11
   7.4487767072902997D+00   2.0175918461390450D+00   7.1562637418263941D-01
    194350         1         1        11
   8.8802468252267932D+00   1.9924144139216009D+00   7.0361227683766414D-01
    -1
    -1
    82
         1         2         4
Uz                                                                              
    121464    129813
    -1
    -1
    82
         2         2         4
Uz                                                                              
    121464    130039
    -1
    -1
    82
         3         2         4
Uz                                                                              
    121464    131560
    -1
    -1
    82
         4         2         4
Uz                                                                              
    121479    130066
    -1
    -1
    82
         5         2         4
Uz                                                                              
    121479    130937
    -1
    -1
    82
         6         2         4
Uz                                                                              
    126150    127032
    -1
    -1
    82
         7         2         4
Uz                                                                              
    126150    159845
    -1
    -1
    82
         8         2         4
Uz                                                                              
    126150    160320
    -1
    -1
    82
         9         2         4
Uz                                                                              
    127032    159845
    -1
    -1
    82
        10         2         4
Uz                                                                              
    127032    160320
    -1
    -1
    82
        11         2         4
Uz                                                                              
    129813    130039
    -1
    -1
    82
        12         2         4
Uz                                                                              
    129813    130066
    -1
    -1
    82
        13         2         4
Uz                                                                              
    129813    131560
    -1
    -1
    82
        14         2         4
Uz                                                                              
    130039    130066
    -1
    -1
    82
        15         2         4
Uz                                                                              
    130039    130937
    -1
    -1
    82
        16         2         4
Uz                                                                              
    130066    131964
    -1
    -1
    82
        17         2         4
Uz                                                                              
    131560    131964
    -1
    -1
    82
        18         2         4
Uz                                                                              
    131560    159845
    -1
    -1
    82
        19         2         4
Uz                                                                              
    131964    160320
    -1
    -1
    82
        20         2         4
Uz                                                                              
    159845    160320
    -1
    -1
    82
        21         2         4
Uz                                                                              
    185255    187401
    -1
    -1
    82
        22         2         4
Uz                                                                              
    185255    187627
    -1
    -1
    82
        23         2         4
Uz                                                                              
    185255    189148
    -1
    -1
    82
        24         2         4
Uz                                                                              
    185270    187654
    -1
    -1
    82
        25         2         4
Uz                                                                              
    185270    192710
    -1
    -1
    82
        26         2         4
Uz                                                                              
    185574    185906
    -1
    -1
    82
        27         2         4
Uz                                                                              
    185574    193875
    -1
    -1
    82
        28         2         4
Uz                                                                              
    185574    194350
    -1
    -1
    82
        29         2         4
Uz                                                                              
    185906    193875
    -1
    -1
    82
        30         2         4
Uz                                                                              
    185906    194350
    -1
    -1
    82
        31         2         4
Uz                                                                              
    187401    187627
    -1
    -1
    82
        32         2         4
Uz                                                                              
    187401    187654
    -1
    -1
    82
        33         2         4
Uz                                                                              
    187401    189148
    -1
    -1
    82
        34         2         4
Uz                                                                              
    187627    187654
    -1
    -1
    82
        35         2         4
Uz                                                                              
    187627    192710
    -1
    -1
    82
        36         2         4
Uz                                                                              
    187654    189552
    -1
    -1
    82
        37         2         4
Uz                                                                              
    189148    189552
    -1
    -1
    82
        38         2         4
Uz                                                                              
    189148    193875
    -1
    -1
    82
        39         2         4
Uz                                                                              
    189552    194350
    -1
    -1
    82
        40         2         4
Uz                                                                              
    193875    194350
    -1
    -1
  2414
         1
Mode shape record 1
         1
NONE
NONE
NONE
NONE
NONE
         1         2         2         8         2         3
         0         0         1         0         0         1         0         0
         0         0
  0.00000E+00  7.71676E+00  0.00000E+00  1.00000E+00  0.00000E+00  0.00000E+00
  0.00000E+00  0.00000E+00  0.00000E+00  0.00000E+00  0.00000E+00  0.00000E+00
        121464
  0.00000e+00  0.00000e+00  4.86080e-01
        121479
  0.00000e+00  0.00000e+00 -4.45124e-01
        130039
  0.00000e+00  0.00000e+00 -1.42899e-01
        130937
  0.00000e+00  0.00000e+00 -2.71616e-01
        129813
  0.00000e+00  0.00000e+00 -9.22262e-02
        130066
  0.00000e+00  0.00000e+00 -1.89381e-01
        131560
  0.00000e+00  0.00000e+00 -8.71208e-02
        131964
  0.00000e+00  0.00000e+00 -1.25922e-01
        159845
  0.00000e+00  0.00000e+00 -5.56552e-02
        160320
  0.00000e+00  0.00000e+00 -6.93309e-02
        126150
  0.00000e+00  0.00000e+00 -3.08454e-02
        127032
  0.00000e+00  0.00000e+00 -3.14787e-02
        185255
  0.00000e+00  0.00000e+00 -4.88147e-01
        185270
  0.00000e+00  0.00000e+00  2.90716e-01
        187627
  0.00000e+00  0.00000e+00  4.82482e-02
        192710
  0.00000e+00  0.00000e+00  1.64513e-01
        187401
  0.00000e+00  0.00000e+00  5.38435e-02
        187654
  0.00000e+00  0.00000e+00  1.21346e-01
        189148
  0.00000e+00  0.00000e+00  6.77808e-02
        189552
  0.00000e+00  0.00000e+00  9.58079e-02
        193875
  0.00000e+00  0.00000e+00  5.81138e-02
        194350
  0.00000e+00  0.00000e+00  6.39648e-02
        185574
  0.00000e+00  0.00000e+00  3.64190e-02
        185906
  0.00000e+00  0.00000e+00  3.66468e-02
    -1
    -1
  2414
         2
Mode shape record 2
         1
NONE
NONE
NONE
NONE
NONE
         1         2         2         8         2         3
         0         0         1         0         0         2         0         0
         0         0
  0.00000E+00  1.07002E+01  0.00000E+00  1.00000E+00  0.00000E+00  0.00000E+00
  0.00000E+00  0.00000E+00  0.00000E+00  0.00000E+00  0.00000E+00  0.00000E+00
        121464
  0.00000e+00  0.00000e+00 -3.29259e-02
        121479
  0.00000e+00  0.00000e+00  5.26341e-01
        130039
  0.00000e+00  0.00000e+00  2.31137e-01
        130937
  0.00000e+00  0.00000e+00  3.32061e-01
        129813
  0.00000e+00  0.00000e+00 -1.26328e-02
        130066
  0.00000e+00  0.00000e+00  2.01003e-02
        131560
  0.00000e+00  0.00000e+00 -1.01726e-01
        131964
  0.00000e+00  0.00000e+00 -5.53589e-02
        159845
  0.00000e+00  0.00000e+00 -1.01696e-01
        160320
  0.00000e+00  0.00000e+00 -7.65307e-02
        126150
  0.00000e+00  0.00000e+00 -7.36196e-02
        127032
  0.00000e+00  0.00000e+00 -6.95286e-02
        185255
  0.00000e+00  0.00000e+00  4.07461e-03
        185270
  0.00000e+00  0.00000e+00 -5.53485e-01
        187627
  0.00000e+00  0.00000e+00 -2.41376e-01
        192710
  0.00000e+00  0.00000e+00 -3.38491e-01
        187401
  0.00000e+00  0.00000e+00  4.37986e-02
        187654
  0.00000e+00  0.00000e+00 -3.77678e-02
        189148
  0.00000e+00  0.00000e+00  1.03646e-01
        189552
  0.00000e+00  0.00000e+00  2.07055e-02
        193875
  0.00000e+00  0.00000e+00  1.01221e-01
        194350
  0.00000e+00  0.00000e+00  5.69260e-02
        185574
  0.00000e+00  0.00000e+00  7.61716e-02
        185906
  0.00000e+00  0.00000e+00  6.89796e-02
    -1
    -1
  2414
         3
Mode shape record 3
         1
NONE
NONE
NONE
NONE
NONE
         1         2         2         8         2         3
         0         0         1         0         0         3         0         0
         0         0
  0.00000E+00  1.61162E+01  0.00000E+00  1.00000E+00  0.00000E+00  0.00000E+00
  0.00000E+00  0.00000E+00  0.00000E+00  0.00000E+00  0.00000E+00  0.00000E+00
        121464
  0.00000e+00  0.00000e+00  1.01118e-01
        121479
  0.00000e+00  0.00000e+00  3.86530e-01
        130039
  0.00000e+00  0.00000e+00  5.08301e-02
        130937
  0.00000e+00  0.00000e+00  1.73548e-01
        129813
  0.00000e+00  0.00000e+00 -3.79820e-01
        130066
  0.00000e+00  0.00000e+00 -2.14312e-01
        131560
  0.00000e+00  0.00000e+00 -2.29285e-01
        131964
  0.00000e+00  0.00000e+00 -2.09920e-01
        159845
  0.00000e+00  0.00000e+00 -4.43032e-02
        160320
  0.00000e+00  0.00000e+00 -8.00053e-02
        126150
  0.00000e+00  0.00000e+00 -4.30505e-02
        127032
  0.00000e+00  0.00000e+00 -3.37276e-02
        185255
  0.00000e+00  0.00000e+00 -2.14822e-01
        185270
  0.00000e+00  0.00000e+00 -3.81742e-01
        187627
  0.00000e+00  0.00000e+00 -4.36549e-02
        192710
  0.00000e+00  0.00000e+00 -1.75744e-01
        187401
  0.00000e+00  0.00000e+00  4.35459e-01
        187654
  0.00000e+00  0.00000e+00  1.82030e-01
        189148
  0.00000e+00  0.00000e+00  2.03497e-01
        189552
  0.00000e+00  0.00000e+00  1.12275e-01
        193875
  0.00000e+00  0.00000e+00  3.97109e-02
        194350
  0.00000e+00  0.00000e+00  3.30414e-02
        185574
  0.00000e+00  0.00000e+00  6.16255e-02
        185906
  0.00000e+00  0.00000e+00  3.96491e-02
    -1
    -1
  2414
         4
Mode shape record 4
         1
NONE
NONE
NONE
NONE
NONE
         1         2         2         8         2         3
         0         0         1         0         0         4         0         0
         0         0
  0.00000E+00  1.74081E+01  0.00000E+00  1.00000E+00  0.00000E+00  0.00000E+00
  0.00000E+00  0.00000E+00  0.00000E+00  0.00000E+00  0.00000E+00  0.00000E+00
        121464
  0.00000e+00  0.00000e+00 -1.64331e-01
        121479
  0.00000e+00  0.00000e+00 -3.72749e-01
        130039
  0.00000e+00  0.00000e+00  2.07429e-03
        130937
  0.00000e+00  0.00000e+00 -1.31590e-01
        129813
  0.00000e+00  0.00000e+00  4.52573e-01
        130066
  0.00000e+00  0.00000e+00  1.92005e-01
        131560
  0.00000e+00  0.00000e+00  1.06889e-01
        131964
  0.00000e+00  0.00000e+00  1.31888e-01
        159845
  0.00000e+00  0.00000e+00 -1.35614e-01
        160320
  0.00000e+00  0.00000e+00 -1.78180e-02
        126150
  0.00000e+00  0.00000e+00 -3.24689e-02
        127032
  0.00000e+00  0.00000e+00 -2.29846e-02
        185255
  0.00000e+00  0.00000e+00  3.31896e-01
        185270
  0.00000e+00  0.00000e+00  3.26871e-01
        187627
  0.00000e+00  0.00000e+00 -2.50939e-02
        192710
  0.00000e+00  0.00000e+00  1.20838e-01
        187401
  0.00000e+00  0.00000e+00 -4.89812e-01
        187654
  0.00000e+00  0.00000e+00 -1.26086e-01
        189148
  0.00000e+00  0.00000e+00 -3.58546e-02
        189552
  0.00000e+00  0.00000e+00  1.79917e-02
        193875
  0.00000e+00  0.00000e+00  1.61894e-01
        194350
  0.00000e+00  0.00000e+00  9.90829e-02
        185574
  0.00000e+00  0.00000e+00  6.23702e-03
        185906
  0.00000e+00  0.00000e+00  1.46319e-02
    -1
    -1
  2414
         5
Mode shape record 5
         1
NONE
NONE
NONE
NONE
NONE
         1         2         2         8         2         3
         0         0         1         0         0         5         0         0
         0         0
  0.00000E+00  1.86651E+01  0.00000E+00  1.00000E+00  0.00000E+00  0.00000E+00
  0.00000E+00  0.00000E+00  0.00000E+00  0.00000E+00  0.00000E+00  0.00000E+00
        121464
  0.00000e+00  0.00000e+00  2.24295e-01
        121479
  0.00000e+00  0.00000e+00  2.43382e-01
        130039
  0.00000e+00  0.00000e+00 -3.21530e-02
        130937
  0.00000e+00  0.00000e+00  1.07288e-01
        129813
  0.00000e+00  0.00000e+00 -4.14645e-01
        130066
  0.00000e+00  0.00000e+00 -2.50488e-02
        131560
  0.00000e+00  0.00000e+00  6.82880e-02
        131964
  0.00000e+00  0.00000e+00  4.54569e-02
        159845
  0.00000e+00  0.00000e+00  2.69829e-01
        160320
  0.00000e+00  0.00000e+00  1.37272e-01
        126150
  0.00000e+00  0.00000e+00  7.71689e-02
        127032
  0.00000e+00  0.00000e+00  6.80136e-02
        185255
  0.00000e+00  0.00000e+00 -3.89376e-01
        185270
  0.00000e+00  0.00000e+00 -1.66191e-01
        187627
  0.00000e+00  0.00000e+00  6.36366e-02
        192710
  0.00000e+00  0.00000e+00 -9.34009e-02
        187401
  0.00000e+00  0.00000e+00  4.07543e-01
        187654
  0.00000e+00  0.00000e+00 -4.98567e-02
        189148
  0.00000e+00  0.00000e+00 -1.74003e-01
        189552
  0.00000e+00  0.00000e+00 -2.13014e-01
        193875
  0.00000e+00  0.00000e+00 -3.12626e-01
        194350
  0.00000e+00  0.00000e+00 -2.34798e-01
        185574
  0.00000e+00  0.00000e+00 -5.47627e-02
        185906
  0.00000e+00  0.00000e+00 -6.55247e-02
    -1
    -1
  2414
         6
Mode shape record 6
         1
NONE
NONE
NONE
NONE
NONE
         1         2         2         8         2         3
         0         0         1         0         0         6         0         0
         0         0
  0.00000E+00  2.25726E+01  0.00000E+00  1.00000E+00  0.00000E+00  0.00000E+00
  0.00000E+00  0.00000E+00  0.00000E+00  0.00000E+00  0.00000E+00  0.00000E+00
        121464
  0.00000e+00  0.00000e+00  7.62716e-02
        121479
  0.00000e+00  0.00000e+00 -1.07748e-01
        130039
  0.00000e+00  0.00000e+00  4.84028e-02
        130937
  0.00000e+00  0.00000e+00  1.29644e-03
        129813
  0.00000e+00  0.00000e+00  2.85096e-01
        130066
  0.00000e+00  0.00000e+00  3.05176e-01
        131560
  0.00000e+00  0.00000e+00  3.00040e-01
        131964
  0.00000e+00  0.00000e+00  2.93916e-01
        159845
  0.00000e+00  0.00000e+00  9.86665e-02
        160320
  0.00000e+00  0.00000e+00  1.24925e-01
        126150
  0.00000e+00  0.00000e+00 -3.24179e-03
        127032
  0.00000e+00  0.00000e+00  5.22981e-03
        185255
  0.00000e+00  0.00000e+00 -7.42180e-02
        185270
  0.00000e+00  0.00000e+00  1.53659e-01
        187627
  0.00000e+00  0.00000e+00 -5.84820e-02
        192710
  0.00000e+00  0.00000e+00 -1.53292e-02
        187401
  0.00000e+00  0.00000e+00 -3.82426e-01
        187654
  0.00000e+00  0.00000e+00 -3.83181e-01
        189148
  0.00000e+00  0.00000e+00 -3.51446e-01
        189552
  0.00000e+00  0.00000e+00 -3.48440e-01
        193875
  0.00000e+00  0.00000e+00 -1.07593e-01
        194350
  0.00000e+00  0.00000e+00 -1.46374e-01
        185574
  0.00000e+00  0.00000e+00  1.57459e-02
        185906
  0.00000e+00  0.00000e+00 -5.57594e-04
    -1
    -1
  2414
         7
Mode shape record 7
         1
NONE
NONE
NONE
NONE
NONE
         1         2         2         8         2         3
         0         0         1         0         0         7         0         0
         0         0
  0.00000E+00  2.39466E+01  0.00000E+00  1.00000E+00  0.00000E+00  0.00000E+00
  0.00000E+00  0.00000E+00  0.00000E+00  0.00000E+00  0.00000E+00  0.00000E+00
        121464
  0.00000e+00  0.00000e+00  2.28645e-01
        121479
  0.00000e+00  0.00000e+00 -2.91505e-03
        130039
  0.00000e+00  0.00000e+00  9.81138e-02
        130937
  0.00000e+00  0.00000e+00  1.58349e-01
        129813
  0.00000e+00  0.00000e+00  1.02214e-01
        130066
  0.00000e+00  0.00000e+00  4.28034e-01
        131560
  0.00000e+00  0.00000e+00  3.06877e-01
        131964
  0.00000e+00  0.00000e+00  3.46744e-01
        159845
  0.00000e+00  0.00000e+00  1.49667e-01
        160320
  0.00000e+00  0.00000e+00  1.26673e-01
        126150
  0.00000e+00  0.00000e+00 -8.99368e-03
        127032
  0.00000e+00  0.00000e+00 -2.62788e-02
        185255
  0.00000e+00  0.00000e+00 -2.38299e-01
        185270
  0.00000e+00  0.00000e+00  9.47068e-02
        187627
  0.00000e+00  0.00000e+00 -1.12545e-01
        192710
  0.00000e+00  0.00000e+00 -1.54309e-01
        187401
  0.00000e+00  0.00000e+00 -1.10397e-01
        187654
  0.00000e+00  0.00000e+00 -3.61381e-01
        189148
  0.00000e+00  0.00000e+00 -3.06898e-01
        189552
  0.00000e+00  0.00000e+00 -2.95094e-01
        193875
  0.00000e+00  0.00000e+00 -1.54765e-01
        194350
  0.00000e+00  0.00000e+00 -1.16087e-01
        185574
  0.00000e+00  0.00000e+00  2.11374e-02
        185906
  0.00000e+00  0.00000e+00  3.96248e-02
    -1
    -1
  2414
         8
Mode shape record 8
         1
NONE
NONE
NONE
NONE
NONE
         1         2         2         8         2         3
         0         0         1         0         0         8         0         0
         0         0
  0.00000E+00  2.53348E+01  0.00000E+00  1.00000E+00  0.00000E+00  0.00000E+00
  0.00000E+00  0.00000E+00  0.00000E+00  0.00000E+00  0.00000E+00  0.00000E+00
        121464
  0.00000e+00  0.00000e+00 -1.37592e-01
        121479
  0.00000e+00  0.00000e+00  6.13396e-03
        130039
  0.00000e+00  0.00000e+00  4.97739e-02
        130937
  0.00000e+00  0.00000e+00 -4.56588e-02
        129813
  0.00000e+00  0.00000e+00  3.06336e-01
        130066
  0.00000e+00  0.00000e+00 -2.11708e-01
        131560
  0.00000e+00  0.00000e+00 -1.00800e-01
        131964
  0.00000e+00  0.00000e+00 -1.19839e-01
        159845
  0.00000e+00  0.00000e+00 -9.71817e-02
        160320
  0.00000e+00  0.00000e+00 -2.05273e-02
        126150
  0.00000e+00  0.00000e+00  2.12145e-02
        127032
  0.00000e+00  0.00000e+00  5.36750e-02
        185255
  0.00000e+00  0.00000e+00  2.52465e-01
        185270
  0.00000e+00  0.00000e+00 -1.27537e-01
        187627
  0.00000e+00  0.00000e+00 -4.66975e-02
        192710
  0.00000e+00  0.00000e+00  3.73668e-02
        187401
  0.00000e+00  0.00000e+00  8.77275e-02
        187654
  0.00000e+00  0.00000e+00  4.89672e-01
        189148
  0.00000e+00  0.00000e+00  4.46650e-01
        189552
  0.00000e+00  0.00000e+00  4.34571e-01
        193875
  0.00000e+00  0.00000e+00  1.96709e-01
        194350
  0.00000e+00  0.00000e+00  1.88036e-01
        185574
  0.00000e+00  0.00000e+00 -5.95900e-02
        185906
  0.00000e+00  0.00000e+00 -5.55072e-02
    -1
    -1
  1802
         1Sensors                     24
Sensor DOFs                                                                     
    121464Z+      121479Z+      126150Z+      127032Z+      129813Z+  
    130039Z+      130066Z+      130937Z+      131560Z+      131964Z+  
    159845Z+      160320Z+      185255Z+      185270Z+      185574Z+  
    185906Z+      187401Z+      187627Z+      187654Z+      189148Z+  
    189552Z+      192710Z+      193875Z+      194350Z+  
    -1
