    -1
    15
         1         0         0         0      9.02168     -4.53370      0.69505
         2         0         0         0      9.37747     -4.53370      0.69810
         3         0         0         0      8.56214     -3.82250      0.69839
         4         0         0         0      9.24877     -3.82250      0.69834
         5         0         0         0      8.12068     -3.06050      0.70675
         6         0         0         0      9.10008     -3.06050      0.70036
         7         0         0         0      7.43669     -2.01910      0.71479
         8         0         0         0      8.88655     -1.99370      0.70320
         9         0         0         0      7.48304     -1.08778      0.75700
        10         0         0         0      8.36919     -1.08570      0.73723
        11         0         0         0      9.02168      4.53370      0.69505
        12         0         0         0      9.37747      4.53370      0.69810
        13         0         0         0      8.56214      3.82250      0.69839
        14         0         0         0      9.24877      3.82250      0.69834
        15         0         0         0      8.12068      3.06050      0.70675
        16         0         0         0      9.10008      3.06050      0.70036
        17         0         0         0      7.43669      2.01910      0.71479
        18         0         0         0      8.88655      1.99370      0.70320
        19         0         0         0      7.48304      1.08778      0.75700
        20         0         0         0      8.36919      1.08570      0.73723
    -1
    -1
    55                                                                          
Mode 1                                                                          
EMA                                                                             
Acceleration shapes (Uz only)                                                   
LoadCase 1                                                                      
                                                                                
         1         2         2        12         2         3
         2         4         1         1
  4.52965e+00  0.00000e+00  0.00000e+00  0.00000e+00
         1
  0.00000e+00  0.00000e+00 -2.34530e-01
         2
  0.00000e+00  0.00000e+00 -4.47699e-01
         3
  0.00000e+00  0.00000e+00  1.98085e-01
         4
  0.00000e+00  0.00000e+00  2.74322e-02
         5
  0.00000e+00  0.00000e+00 -2.62497e-01
         6
  0.00000e+00  0.00000e+00 -6.69745e-02
         7
  0.00000e+00  0.00000e+00 -3.14170e-01
         8
  0.00000e+00  0.00000e+00 -1.47011e-01
         9
  0.00000e+00  0.00000e+00 -3.19258e-02
        10
  0.00000e+00  0.00000e+00 -2.45188e-02
        11
  0.00000e+00  0.00000e+00  3.06975e-01
        12
  0.00000e+00  0.00000e+00  5.20835e-02
        13
  0.00000e+00  0.00000e+00  5.40295e-01
        14
  0.00000e+00  0.00000e+00  2.74944e-01
        15
  0.00000e+00  0.00000e+00  2.20151e-02
        16
  0.00000e+00  0.00000e+00  1.32232e-01
        17
  0.00000e+00  0.00000e+00 -1.34326e-01
        18
  0.00000e+00  0.00000e+00  1.93426e-02
        19
  0.00000e+00  0.00000e+00  6.66903e-02
        20
  0.00000e+00  0.00000e+00  6.28593e-02
    -1
    -1
    55                                                                          
Mode 2                                                                          
EMA                                                                             
Acceleration shapes (Uz only)                                                   
LoadCase 1                                                                      
                                                                                
         1         2         2        12         2         3
         2         4         1         2
  8.80354e+00  0.00000e+00  0.00000e+00  0.00000e+00
         1
  0.00000e+00  0.00000e+00  4.48856e-01
         2
  0.00000e+00  0.00000e+00  4.05835e-01
         3
  0.00000e+00  0.00000e+00  2.70731e-01
         4
  0.00000e+00  0.00000e+00  2.61318e-01
         5
  0.00000e+00  0.00000e+00  1.22909e-01
         6
  0.00000e+00  0.00000e+00  1.34740e-01
         7
  0.00000e+00  0.00000e+00  1.76886e-02
         8
  0.00000e+00  0.00000e+00  2.92697e-02
         9
  0.00000e+00  0.00000e+00 -1.29946e-02
        10
  0.00000e+00  0.00000e+00 -1.25137e-02
        11
  0.00000e+00  0.00000e+00  4.15259e-01
        12
  0.00000e+00  0.00000e+00  3.72644e-01
        13
  0.00000e+00  0.00000e+00  2.49108e-01
        14
  0.00000e+00  0.00000e+00  2.32775e-01
        15
  0.00000e+00  0.00000e+00  1.13412e-01
        16
  0.00000e+00  0.00000e+00  1.23570e-01
        17
  0.00000e+00  0.00000e+00  1.93007e-02
        18
  0.00000e+00  0.00000e+00  3.42351e-02
        19
  0.00000e+00  0.00000e+00 -1.11318e-02
        20
  0.00000e+00  0.00000e+00 -1.19828e-02
    -1
    -1
    55                                                                          
Mode 3                                                                          
EMA                                                                             
Acceleration shapes (Uz only)                                                   
LoadCase 1                                                                      
                                                                                
         1         2         2        12         2         3
         2         4         1         3
  1.12878e+01  0.00000e+00  0.00000e+00  0.00000e+00
         1
  0.00000e+00  0.00000e+00 -1.53429e-01
         2
  0.00000e+00  0.00000e+00  8.45728e-02
         3
  0.00000e+00  0.00000e+00 -4.66972e-01
         4
  0.00000e+00  0.00000e+00 -3.88184e-01
         5
  0.00000e+00  0.00000e+00 -1.15455e-03
         6
  0.00000e+00  0.00000e+00 -1.89459e-01
         7
  0.00000e+00  0.00000e+00  1.83752e-01
         8
  0.00000e+00  0.00000e+00  1.66355e-02
         9
  0.00000e+00  0.00000e+00 -2.15011e-02
        10
  0.00000e+00  0.00000e+00 -1.87376e-02
        11
  0.00000e+00  0.00000e+00  2.45942e-01
        12
  0.00000e+00  0.00000e+00  5.17398e-01
        13
  0.00000e+00  0.00000e+00 -1.21168e-01
        14
  0.00000e+00  0.00000e+00  7.62715e-02
        15
  0.00000e+00  0.00000e+00  2.09078e-01
        16
  0.00000e+00  0.00000e+00  1.57428e-01
        17
  0.00000e+00  0.00000e+00  2.76783e-01
        18
  0.00000e+00  0.00000e+00  1.81113e-01
        19
  0.00000e+00  0.00000e+00  3.88949e-02
        20
  0.00000e+00  0.00000e+00  4.12079e-02
    -1
    -1
    55                                                                          
Mode 4                                                                          
EMA                                                                             
Acceleration shapes (Uz only)                                                   
LoadCase 1                                                                      
                                                                                
         1         2         2        12         2         3
         2         4         1         4
  1.32423e+01  0.00000e+00  0.00000e+00  0.00000e+00
         1
  0.00000e+00  0.00000e+00  3.05189e-01
         2
  0.00000e+00  0.00000e+00  4.70042e-01
         3
  0.00000e+00  0.00000e+00  1.60792e-01
         4
  0.00000e+00  0.00000e+00  2.97331e-01
         5
  0.00000e+00  0.00000e+00  1.04840e-01
         6
  0.00000e+00  0.00000e+00  1.74681e-01
         7
  0.00000e+00  0.00000e+00  3.84815e-02
         8
  0.00000e+00  0.00000e+00  6.76823e-02
         9
  0.00000e+00  0.00000e+00  1.19618e-02
        10
  0.00000e+00  0.00000e+00  1.14264e-02
        11
  0.00000e+00  0.00000e+00  3.29406e-01
        12
  0.00000e+00  0.00000e+00  4.95870e-01
        13
  0.00000e+00  0.00000e+00  1.74191e-01
        14
  0.00000e+00  0.00000e+00  3.02560e-01
        15
  0.00000e+00  0.00000e+00  1.01425e-01
        16
  0.00000e+00  0.00000e+00  1.76166e-01
        17
  0.00000e+00  0.00000e+00  3.49084e-02
        18
  0.00000e+00  0.00000e+00  6.98644e-02
        19
  0.00000e+00  0.00000e+00  7.97645e-03
        20
  0.00000e+00  0.00000e+00  7.38281e-03
    -1
    -1
    55                                                                          
Mode 5                                                                          
EMA                                                                             
Acceleration shapes (Uz only)                                                   
LoadCase 1                                                                      
                                                                                
         1         2         2        12         2         3
         2         4         1         5
  1.45012e+01  0.00000e+00  0.00000e+00  0.00000e+00
         1
  0.00000e+00  0.00000e+00 -4.27733e-01
         2
  0.00000e+00  0.00000e+00 -5.33876e-01
         3
  0.00000e+00  0.00000e+00 -1.68109e-01
         4
  0.00000e+00  0.00000e+00 -4.17415e-01
         5
  0.00000e+00  0.00000e+00 -6.79906e-02
         6
  0.00000e+00  0.00000e+00 -1.86581e-01
         7
  0.00000e+00  0.00000e+00  6.07697e-02
         8
  0.00000e+00  0.00000e+00 -3.60693e-02
         9
  0.00000e+00  0.00000e+00  3.35009e-02
        10
  0.00000e+00  0.00000e+00  2.74421e-02
        11
  0.00000e+00  0.00000e+00  2.63353e-01
        12
  0.00000e+00  0.00000e+00  4.19391e-01
        13
  0.00000e+00  0.00000e+00  1.35909e-01
        14
  0.00000e+00  0.00000e+00  1.16493e-01
        15
  0.00000e+00  0.00000e+00  1.50986e-02
        16
  0.00000e+00  0.00000e+00  6.96104e-02
        17
  0.00000e+00  0.00000e+00 -8.95644e-03
        18
  0.00000e+00  0.00000e+00  1.25107e-02
        19
  0.00000e+00  0.00000e+00 -1.86126e-02
        20
  0.00000e+00  0.00000e+00 -1.66686e-02
    -1
    -1
    55                                                                          
Mode 6                                                                          
EMA                                                                             
Acceleration shapes (Uz only)                                                   
LoadCase 1                                                                      
                                                                                
         1         2         2        12         2         3
         2         4         1         6
  1.50601e+01  0.00000e+00  0.00000e+00  0.00000e+00
         1
  0.00000e+00  0.00000e+00  2.08694e-01
         2
  0.00000e+00  0.00000e+00  3.99443e-01
         3
  0.00000e+00  0.00000e+00 -1.45363e-01
         4
  0.00000e+00  0.00000e+00  2.89057e-02
         5
  0.00000e+00  0.00000e+00 -5.29561e-02
         6
  0.00000e+00  0.00000e+00 -3.28546e-02
         7
  0.00000e+00  0.00000e+00 -4.40168e-02
         8
  0.00000e+00  0.00000e+00 -3.37102e-02
         9
  0.00000e+00  0.00000e+00 -1.29176e-01
        10
  0.00000e+00  0.00000e+00 -1.01736e-01
        11
  0.00000e+00  0.00000e+00  4.46187e-01
        12
  0.00000e+00  0.00000e+00  6.56694e-01
        13
  0.00000e+00  0.00000e+00  3.14686e-02
        14
  0.00000e+00  0.00000e+00  2.63086e-01
        15
  0.00000e+00  0.00000e+00  5.16311e-02
        16
  0.00000e+00  0.00000e+00  1.40886e-01
        17
  0.00000e+00  0.00000e+00  9.09918e-03
        18
  0.00000e+00  0.00000e+00  5.60204e-02
        19
  0.00000e+00  0.00000e+00 -9.80472e-02
        20
  0.00000e+00  0.00000e+00 -7.10535e-02
    -1
    -1
    55                                                                          
Mode 7                                                                          
EMA                                                                             
Acceleration shapes (Uz only)                                                   
LoadCase 1                                                                      
                                                                                
         1         2         2        12         2         3
         2         4         1         7
  2.78691e+01  0.00000e+00  0.00000e+00  0.00000e+00
         1
  0.00000e+00  0.00000e+00  3.20801e-01
         2
  0.00000e+00  0.00000e+00  4.18738e-01
         3
  0.00000e+00  0.00000e+00 -1.62706e-02
         4
  0.00000e+00  0.00000e+00 -6.51418e-02
         5
  0.00000e+00  0.00000e+00 -3.43967e-01
         6
  0.00000e+00  0.00000e+00 -2.32674e-01
         7
  0.00000e+00  0.00000e+00 -1.66375e-01
         8
  0.00000e+00  0.00000e+00 -1.92530e-01
         9
  0.00000e+00  0.00000e+00 -2.26113e-02
        10
  0.00000e+00  0.00000e+00 -6.30416e-02
        11
  0.00000e+00  0.00000e+00  3.63137e-01
        12
  0.00000e+00  0.00000e+00  3.78254e-01
        13
  0.00000e+00  0.00000e+00 -1.33065e-02
        14
  0.00000e+00  0.00000e+00 -1.35283e-01
        15
  0.00000e+00  0.00000e+00 -2.94418e-01
        16
  0.00000e+00  0.00000e+00 -2.40243e-01
        17
  0.00000e+00  0.00000e+00 -1.25506e-01
        18
  0.00000e+00  0.00000e+00 -1.45145e-01
        19
  0.00000e+00  0.00000e+00  1.94558e-02
        20
  0.00000e+00  0.00000e+00 -2.31141e-02
    -1
    -1
    55                                                                          
Mode 8                                                                          
EMA                                                                             
Acceleration shapes (Uz only)                                                   
LoadCase 1                                                                      
                                                                                
         1         2         2        12         2         3
         2         4         1         8
  2.91354e+01  0.00000e+00  0.00000e+00  0.00000e+00
         1
  0.00000e+00  0.00000e+00  2.27448e-01
         2
  0.00000e+00  0.00000e+00  2.11777e-01
         3
  0.00000e+00  0.00000e+00  4.52664e-01
         4
  0.00000e+00  0.00000e+00  2.62153e-01
         5
  0.00000e+00  0.00000e+00 -2.11739e-01
         6
  0.00000e+00  0.00000e+00  7.46910e-02
         7
  0.00000e+00  0.00000e+00 -2.89061e-01
         8
  0.00000e+00  0.00000e+00 -1.04918e-01
         9
  0.00000e+00  0.00000e+00  1.01367e-03
        10
  0.00000e+00  0.00000e+00  6.81071e-03
        11
  0.00000e+00  0.00000e+00  2.21065e-01
        12
  0.00000e+00  0.00000e+00  1.33282e-01
        13
  0.00000e+00  0.00000e+00  3.20720e-01
        14
  0.00000e+00  0.00000e+00 -6.96346e-02
        15
  0.00000e+00  0.00000e+00 -3.00250e-01
        16
  0.00000e+00  0.00000e+00 -2.20870e-01
        17
  0.00000e+00  0.00000e+00 -3.38524e-01
        18
  0.00000e+00  0.00000e+00 -2.33730e-01
        19
  0.00000e+00  0.00000e+00 -2.89302e-02
        20
  0.00000e+00  0.00000e+00 -3.77238e-02
    -1
    -1
    55                                                                          
Mode 9                                                                          
EMA                                                                             
Acceleration shapes (Uz only)                                                   
LoadCase 1                                                                      
                                                                                
         1         2         2        12         2         3
         2         4         1         9
  3.11123e+01  0.00000e+00  0.00000e+00  0.00000e+00
         1
  0.00000e+00  0.00000e+00  3.69535e-01
         2
  0.00000e+00  0.00000e+00  4.52417e-01
         3
  0.00000e+00  0.00000e+00 -1.35253e-01
         4
  0.00000e+00  0.00000e+00 -5.30937e-02
         5
  0.00000e+00  0.00000e+00 -2.96758e-01
         6
  0.00000e+00  0.00000e+00 -2.42901e-01
         7
  0.00000e+00  0.00000e+00 -1.36155e-01
         8
  0.00000e+00  0.00000e+00 -1.15958e-01
         9
  0.00000e+00  0.00000e+00  2.05888e-02
        10
  0.00000e+00  0.00000e+00  3.25621e-02
        11
  0.00000e+00  0.00000e+00  2.88245e-01
        12
  0.00000e+00  0.00000e+00  4.35394e-01
        13
  0.00000e+00  0.00000e+00 -1.67493e-01
        14
  0.00000e+00  0.00000e+00 -3.64443e-02
        15
  0.00000e+00  0.00000e+00 -2.91587e-01
        16
  0.00000e+00  0.00000e+00 -1.90635e-01
        17
  0.00000e+00  0.00000e+00 -1.56656e-01
        18
  0.00000e+00  0.00000e+00 -9.33030e-02
        19
  0.00000e+00  0.00000e+00  5.98509e-03
        20
  0.00000e+00  0.00000e+00  2.07970e-02
    -1
    -1
    55                                                                          
Mode 10                                                                         
EMA                                                                             
Acceleration shapes (Uz only)                                                   
LoadCase 1                                                                      
                                                                                
         1         2         2        12         2         3
         2         4         1        10
  3.65387e+01  0.00000e+00  0.00000e+00  0.00000e+00
         1
  0.00000e+00  0.00000e+00  1.60471e-01
         2
  0.00000e+00  0.00000e+00  3.07667e-01
         3
  0.00000e+00  0.00000e+00  3.34361e-01
         4
  0.00000e+00  0.00000e+00  5.04307e-01
         5
  0.00000e+00  0.00000e+00 -1.68911e-01
         6
  0.00000e+00  0.00000e+00  2.95665e-01
         7
  0.00000e+00  0.00000e+00 -2.76449e-01
         8
  0.00000e+00  0.00000e+00  5.62870e-02
         9
  0.00000e+00  0.00000e+00  2.56917e-02
        10
  0.00000e+00  0.00000e+00  6.07349e-02
        11
  0.00000e+00  0.00000e+00  2.95245e-02
        12
  0.00000e+00  0.00000e+00 -2.11482e-01
        13
  0.00000e+00  0.00000e+00  2.69712e-01
        14
  0.00000e+00  0.00000e+00 -2.15386e-01
        15
  0.00000e+00  0.00000e+00 -1.30585e-01
        16
  0.00000e+00  0.00000e+00 -2.47270e-01
        17
  0.00000e+00  0.00000e+00 -1.90238e-01
        18
  0.00000e+00  0.00000e+00 -1.77503e-01
        19
  0.00000e+00  0.00000e+00  3.89024e-02
        20
  0.00000e+00  0.00000e+00  3.79251e-02
    -1
