    -1
    15
         1         0         0         0      7.81760     -4.63530      0.63576
         2         0         0         0      9.02168     -4.53370      0.69505
         3         0         0         0      9.37747     -4.53370      0.69810
         4         0         0         0      8.56214     -3.82250      0.69839
         5         0         0         0      9.24877     -3.82250      0.69834
         6         0         0         0      8.12068     -3.06050      0.70675
         7         0         0         0      9.10008     -3.06050      0.70036
         8         0         0         0      7.43669     -2.01910      0.71479
         9         0         0         0      8.88655     -1.99370      0.70320
        10         0         0         0      7.48304     -1.08778      0.75700
        11         0         0         0      8.36919     -1.08570      0.73723
        12         0         0         0      7.81760      4.63530      0.63576
        13         0         0         0      9.02168      4.53370      0.69505
        14         0         0         0      9.37747      4.53370      0.69810
        15         0         0         0      8.56214      3.82250      0.69839
        16         0         0         0      9.24877      3.82250      0.69834
        17         0         0         0      8.12068      3.06050      0.70675
        18         0         0         0      9.10008      3.06050      0.70036
        19         0         0         0      7.43669      2.01910      0.71479
        20         0         0         0      8.88655      1.99370      0.70320
        21         0         0         0      7.48304      1.08778      0.75700
        22         0         0         0      8.36919      1.08570      0.73723
    -1
    -1
    55                                                                          
Mode 1                                                                          
EMA                                                                             
Acceleration shapes (Uz only)                                                   
LoadCase 1                                                                      
                                                                                
         1         2         2        12         2         3
         2         4         1         1
  8.87349e+00  0.00000e+00  0.00000e+00  0.00000e+00
         1
  0.00000e+00  0.00000e+00 -2.47185e-01
         2
  0.00000e+00  0.00000e+00 -2.19356e-01
         3
  0.00000e+00  0.00000e+00 -3.23355e-02
         4
  0.00000e+00  0.00000e+00 -2.26257e-01
         5
  0.00000e+00  0.00000e+00 -1.36193e-01
         6
  0.00000e+00  0.00000e+00  2.56996e-02
         7
  0.00000e+00  0.00000e+00 -4.01845e-02
         8
  0.00000e+00  0.00000e+00  5.33122e-02
         9
  0.00000e+00  0.00000e+00  8.56184e-03
        10
  0.00000e+00  0.00000e+00  1.29526e-02
        11
  0.00000e+00  0.00000e+00  1.19790e-02
        12
  0.00000e+00  0.00000e+00 -7.06571e-01
        13
  0.00000e+00  0.00000e+00 -2.57748e-01
        14
  0.00000e+00  0.00000e+00 -3.83942e-01
        15
  0.00000e+00  0.00000e+00 -8.88171e-02
        16
  0.00000e+00  0.00000e+00 -1.65570e-01
        17
  0.00000e+00  0.00000e+00 -1.59089e-01
        18
  0.00000e+00  0.00000e+00 -1.59283e-01
        19
  0.00000e+00  0.00000e+00 -8.57488e-02
        20
  0.00000e+00  0.00000e+00 -8.67286e-02
        21
  0.00000e+00  0.00000e+00  2.28880e-02
        22
  0.00000e+00  0.00000e+00  5.04005e-03
    -1
    -1
    55                                                                          
Mode 2                                                                          
EMA                                                                             
Acceleration shapes (Uz only)                                                   
LoadCase 1                                                                      
                                                                                
         1         2         2        12         2         3
         2         4         1         2
  1.13165e+01  0.00000e+00  0.00000e+00  0.00000e+00
         1
  0.00000e+00  0.00000e+00  6.44416e-01
         2
  0.00000e+00  0.00000e+00  5.75999e-02
         3
  0.00000e+00  0.00000e+00  1.86228e-01
         4
  0.00000e+00  0.00000e+00 -1.01650e-01
         5
  0.00000e+00  0.00000e+00 -5.69933e-02
         6
  0.00000e+00  0.00000e+00  5.21577e-02
         7
  0.00000e+00  0.00000e+00 -2.87261e-02
         8
  0.00000e+00  0.00000e+00  3.65609e-02
         9
  0.00000e+00  0.00000e+00 -1.34197e-02
        10
  0.00000e+00  0.00000e+00 -1.70858e-02
        11
  0.00000e+00  0.00000e+00 -1.37122e-02
        12
  0.00000e+00  0.00000e+00 -6.90718e-01
        13
  0.00000e+00  0.00000e+00 -5.87783e-02
        14
  0.00000e+00  0.00000e+00 -1.78729e-01
        15
  0.00000e+00  0.00000e+00  7.77968e-02
        16
  0.00000e+00  0.00000e+00  1.12570e-02
        17
  0.00000e+00  0.00000e+00 -5.37711e-02
        18
  0.00000e+00  0.00000e+00 -3.68086e-02
        19
  0.00000e+00  0.00000e+00 -4.58670e-02
        20
  0.00000e+00  0.00000e+00 -3.06558e-02
        21
  0.00000e+00  0.00000e+00  3.65121e-02
        22
  0.00000e+00  0.00000e+00  1.77253e-02
    -1
    -1
    55                                                                          
Mode 3                                                                          
EMA                                                                             
Acceleration shapes (Uz only)                                                   
LoadCase 1                                                                      
                                                                                
         1         2         2        12         2         3
         2         4         1         3
  1.31423e+01  0.00000e+00  0.00000e+00  0.00000e+00
         1
  0.00000e+00  0.00000e+00  6.23269e-01
         2
  0.00000e+00  0.00000e+00 -1.81663e-01
         3
  0.00000e+00  0.00000e+00 -1.67228e-01
         4
  0.00000e+00  0.00000e+00 -8.73452e-02
         5
  0.00000e+00  0.00000e+00 -2.21923e-01
         6
  0.00000e+00  0.00000e+00  7.36951e-03
         7
  0.00000e+00  0.00000e+00 -9.63250e-02
         8
  0.00000e+00  0.00000e+00  4.04470e-02
         9
  0.00000e+00  0.00000e+00 -2.86729e-02
        10
  0.00000e+00  0.00000e+00  8.68979e-03
        11
  0.00000e+00  0.00000e+00  7.32454e-04
        12
  0.00000e+00  0.00000e+00  2.95534e-01
        13
  0.00000e+00  0.00000e+00 -2.26438e-01
        14
  0.00000e+00  0.00000e+00 -4.72896e-01
        15
  0.00000e+00  0.00000e+00 -1.37739e-01
        16
  0.00000e+00  0.00000e+00 -1.89106e-01
        17
  0.00000e+00  0.00000e+00 -1.23193e-01
        18
  0.00000e+00  0.00000e+00 -1.76812e-01
        19
  0.00000e+00  0.00000e+00 -8.93214e-02
        20
  0.00000e+00  0.00000e+00 -1.00223e-01
        21
  0.00000e+00  0.00000e+00 -8.10526e-03
        22
  0.00000e+00  0.00000e+00 -1.78292e-02
    -1
    -1
    55                                                                          
Mode 4                                                                          
EMA                                                                             
Acceleration shapes (Uz only)                                                   
LoadCase 1                                                                      
                                                                                
         1         2         2        12         2         3
         2         4         1         4
  1.45099e+01  0.00000e+00  0.00000e+00  0.00000e+00
         1
  0.00000e+00  0.00000e+00 -2.54143e-01
         2
  0.00000e+00  0.00000e+00  3.69644e-01
         3
  0.00000e+00  0.00000e+00  4.83342e-01
         4
  0.00000e+00  0.00000e+00  1.42347e-01
         5
  0.00000e+00  0.00000e+00  2.54644e-01
         6
  0.00000e+00  0.00000e+00  3.33166e-02
         7
  0.00000e+00  0.00000e+00  1.03021e-01
         8
  0.00000e+00  0.00000e+00 -4.20950e-02
         9
  0.00000e+00  0.00000e+00  2.68641e-04
        10
  0.00000e+00  0.00000e+00 -3.99115e-02
        11
  0.00000e+00  0.00000e+00 -3.47883e-02
        12
  0.00000e+00  0.00000e+00  2.95773e-01
        13
  0.00000e+00  0.00000e+00 -3.26804e-01
        14
  0.00000e+00  0.00000e+00 -4.36926e-01
        15
  0.00000e+00  0.00000e+00 -1.25450e-01
        16
  0.00000e+00  0.00000e+00 -2.24344e-01
        17
  0.00000e+00  0.00000e+00 -2.82565e-02
        18
  0.00000e+00  0.00000e+00 -9.22247e-02
        19
  0.00000e+00  0.00000e+00  3.52820e-02
        20
  0.00000e+00  0.00000e+00 -4.99450e-03
        21
  0.00000e+00  0.00000e+00  3.20086e-02
        22
  0.00000e+00  0.00000e+00  2.99675e-02
    -1
    -1
    55                                                                          
Mode 5                                                                          
EMA                                                                             
Acceleration shapes (Uz only)                                                   
LoadCase 1                                                                      
                                                                                
         1         2         2        12         2         3
         2         4         1         5
  1.67149e+01  0.00000e+00  0.00000e+00  0.00000e+00
         1
  0.00000e+00  0.00000e+00  1.98070e-01
         2
  0.00000e+00  0.00000e+00  3.01015e-01
         3
  0.00000e+00  0.00000e+00  5.61728e-01
         4
  0.00000e+00  0.00000e+00 -2.78832e-01
         5
  0.00000e+00  0.00000e+00  8.26980e-02
         6
  0.00000e+00  0.00000e+00 -7.18747e-02
         7
  0.00000e+00  0.00000e+00 -5.50962e-02
         8
  0.00000e+00  0.00000e+00 -6.52549e-02
         9
  0.00000e+00  0.00000e+00 -4.19808e-02
        10
  0.00000e+00  0.00000e+00 -8.35081e-02
        11
  0.00000e+00  0.00000e+00 -4.56937e-02
        12
  0.00000e+00  0.00000e+00 -2.09300e-01
        13
  0.00000e+00  0.00000e+00 -2.74043e-01
        14
  0.00000e+00  0.00000e+00 -4.86708e-01
        15
  0.00000e+00  0.00000e+00  2.36375e-01
        16
  0.00000e+00  0.00000e+00 -1.10083e-01
        17
  0.00000e+00  0.00000e+00  4.95382e-02
        18
  0.00000e+00  0.00000e+00  9.35853e-03
        19
  0.00000e+00  0.00000e+00  6.34398e-02
        20
  0.00000e+00  0.00000e+00  3.57831e-02
        21
  0.00000e+00  0.00000e+00  1.01468e-01
        22
  0.00000e+00  0.00000e+00  6.94637e-02
    -1
    -1
    55                                                                          
Mode 6                                                                          
EMA                                                                             
Acceleration shapes (Uz only)                                                   
LoadCase 1                                                                      
                                                                                
         1         2         2        12         2         3
         2         4         1         6
  1.85086e+01  0.00000e+00  0.00000e+00  0.00000e+00
         1
  0.00000e+00  0.00000e+00 -4.61908e-01
         2
  0.00000e+00  0.00000e+00 -1.49413e-01
         3
  0.00000e+00  0.00000e+00 -4.07034e-01
         4
  0.00000e+00  0.00000e+00  3.34229e-01
         5
  0.00000e+00  0.00000e+00  1.06307e-01
         6
  0.00000e+00  0.00000e+00  5.03039e-02
         7
  0.00000e+00  0.00000e+00  1.29822e-01
         8
  0.00000e+00  0.00000e+00 -1.84292e-02
         9
  0.00000e+00  0.00000e+00  3.75855e-02
        10
  0.00000e+00  0.00000e+00  4.33914e-02
        11
  0.00000e+00  0.00000e+00  1.62720e-02
        12
  0.00000e+00  0.00000e+00  4.45878e-01
        13
  0.00000e+00  0.00000e+00  1.22267e-01
        14
  0.00000e+00  0.00000e+00  3.64971e-01
        15
  0.00000e+00  0.00000e+00 -3.07458e-01
        16
  0.00000e+00  0.00000e+00 -3.97827e-02
        17
  0.00000e+00  0.00000e+00 -3.06889e-02
        18
  0.00000e+00  0.00000e+00 -4.38251e-02
        19
  0.00000e+00  0.00000e+00  3.35329e-02
        20
  0.00000e+00  0.00000e+00  1.30588e-03
        21
  0.00000e+00  0.00000e+00 -6.39074e-02
        22
  0.00000e+00  0.00000e+00 -3.46350e-02
    -1
    -1
    55                                                                          
Mode 7                                                                          
EMA                                                                             
Acceleration shapes (Uz only)                                                   
LoadCase 1                                                                      
                                                                                
         1         2         2        12         2         3
         2         4         1         7
  2.39757e+01  0.00000e+00  0.00000e+00  0.00000e+00
         1
  0.00000e+00  0.00000e+00  4.08712e-01
         2
  0.00000e+00  0.00000e+00  2.80318e-01
         3
  0.00000e+00  0.00000e+00  3.86101e-01
         4
  0.00000e+00  0.00000e+00 -1.23951e-02
         5
  0.00000e+00  0.00000e+00 -1.07437e-01
         6
  0.00000e+00  0.00000e+00 -1.60409e-01
         7
  0.00000e+00  0.00000e+00 -1.79517e-01
         8
  0.00000e+00  0.00000e+00 -6.72921e-02
         9
  0.00000e+00  0.00000e+00 -1.14399e-01
        10
  0.00000e+00  0.00000e+00 -2.90584e-02
        11
  0.00000e+00  0.00000e+00 -3.72188e-02
        12
  0.00000e+00  0.00000e+00 -3.19599e-01
        13
  0.00000e+00  0.00000e+00 -2.92374e-01
        14
  0.00000e+00  0.00000e+00 -4.88203e-01
        15
  0.00000e+00  0.00000e+00  8.94621e-02
        16
  0.00000e+00  0.00000e+00  8.34080e-02
        17
  0.00000e+00  0.00000e+00  2.02980e-01
        18
  0.00000e+00  0.00000e+00  1.43836e-01
        19
  0.00000e+00  0.00000e+00  7.53018e-02
        20
  0.00000e+00  0.00000e+00  7.48209e-02
        21
  0.00000e+00  0.00000e+00  3.13834e-02
        22
  0.00000e+00  0.00000e+00  2.70595e-02
    -1
    -1
    55                                                                          
Mode 8                                                                          
EMA                                                                             
Acceleration shapes (Uz only)                                                   
LoadCase 1                                                                      
                                                                                
         1         2         2        12         2         3
         2         4         1         8
  3.44963e+01  0.00000e+00  0.00000e+00  0.00000e+00
         1
  0.00000e+00  0.00000e+00 -1.84874e-01
         2
  0.00000e+00  0.00000e+00  3.05146e-01
         3
  0.00000e+00  0.00000e+00  4.77171e-01
         4
  0.00000e+00  0.00000e+00 -1.75065e-01
         5
  0.00000e+00  0.00000e+00 -4.83238e-02
         6
  0.00000e+00  0.00000e+00 -2.68803e-01
         7
  0.00000e+00  0.00000e+00 -1.93225e-01
         8
  0.00000e+00  0.00000e+00 -5.38675e-02
         9
  0.00000e+00  0.00000e+00 -5.63473e-02
        10
  0.00000e+00  0.00000e+00  4.36123e-02
        11
  0.00000e+00  0.00000e+00  4.36651e-02
        12
  0.00000e+00  0.00000e+00  1.46097e-01
        13
  0.00000e+00  0.00000e+00 -2.89890e-01
        14
  0.00000e+00  0.00000e+00 -4.72176e-01
        15
  0.00000e+00  0.00000e+00  2.08276e-01
        16
  0.00000e+00  0.00000e+00  6.31542e-02
        17
  0.00000e+00  0.00000e+00  2.70637e-01
        18
  0.00000e+00  0.00000e+00  1.82398e-01
        19
  0.00000e+00  0.00000e+00  5.89756e-02
        20
  0.00000e+00  0.00000e+00  4.16717e-02
        21
  0.00000e+00  0.00000e+00 -4.87369e-02
        22
  0.00000e+00  0.00000e+00 -5.24948e-02
    -1
    -1
    55                                                                          
Mode 9                                                                          
EMA                                                                             
Acceleration shapes (Uz only)                                                   
LoadCase 1                                                                      
                                                                                
         1         2         2        12         2         3
         2         4         1         9
  3.93329e+01  0.00000e+00  0.00000e+00  0.00000e+00
         1
  0.00000e+00  0.00000e+00  1.09020e-01
         2
  0.00000e+00  0.00000e+00 -3.27177e-01
         3
  0.00000e+00  0.00000e+00 -2.07952e-01
         4
  0.00000e+00  0.00000e+00 -3.23990e-01
         5
  0.00000e+00  0.00000e+00  2.50008e-01
         6
  0.00000e+00  0.00000e+00  2.63862e-01
         7
  0.00000e+00  0.00000e+00  3.48217e-01
         8
  0.00000e+00  0.00000e+00  2.19947e-02
         9
  0.00000e+00  0.00000e+00  1.72512e-01
        10
  0.00000e+00  0.00000e+00 -1.21460e-01
        11
  0.00000e+00  0.00000e+00 -5.53836e-02
        12
  0.00000e+00  0.00000e+00  6.53386e-02
        13
  0.00000e+00  0.00000e+00  2.11866e-01
        14
  0.00000e+00  0.00000e+00  8.60521e-02
        15
  0.00000e+00  0.00000e+00  3.10079e-01
        16
  0.00000e+00  0.00000e+00 -3.19566e-01
        17
  0.00000e+00  0.00000e+00 -1.79705e-01
        18
  0.00000e+00  0.00000e+00 -3.20479e-01
        19
  0.00000e+00  0.00000e+00  3.88223e-06
        20
  0.00000e+00  0.00000e+00 -1.53244e-01
        21
  0.00000e+00  0.00000e+00  1.24965e-01
        22
  0.00000e+00  0.00000e+00  4.97699e-02
    -1
    -1
    55                                                                          
Mode 10                                                                         
EMA                                                                             
Acceleration shapes (Uz only)                                                   
LoadCase 1                                                                      
                                                                                
         1         2         2        12         2         3
         2         4         1        10
  4.24546e+01  0.00000e+00  0.00000e+00  0.00000e+00
         1
  0.00000e+00  0.00000e+00 -4.23654e-01
         2
  0.00000e+00  0.00000e+00 -4.75802e-02
         3
  0.00000e+00  0.00000e+00  2.38131e-01
         4
  0.00000e+00  0.00000e+00 -2.92656e-01
         5
  0.00000e+00  0.00000e+00 -2.10948e-01
         6
  0.00000e+00  0.00000e+00  3.25823e-01
         7
  0.00000e+00  0.00000e+00 -1.68515e-01
         8
  0.00000e+00  0.00000e+00  3.20618e-01
         9
  0.00000e+00  0.00000e+00 -1.88235e-02
        10
  0.00000e+00  0.00000e+00 -1.38712e-02
        11
  0.00000e+00  0.00000e+00 -6.14212e-03
        12
  0.00000e+00  0.00000e+00  1.49097e-01
        13
  0.00000e+00  0.00000e+00  5.51598e-02
        14
  0.00000e+00  0.00000e+00 -2.74344e-01
        15
  0.00000e+00  0.00000e+00  4.16806e-01
        16
  0.00000e+00  0.00000e+00  3.25111e-02
        17
  0.00000e+00  0.00000e+00 -1.78044e-01
        18
  0.00000e+00  0.00000e+00 -1.04999e-02
        19
  0.00000e+00  0.00000e+00 -2.83100e-01
        20
  0.00000e+00  0.00000e+00 -7.75901e-02
        21
  0.00000e+00  0.00000e+00  5.79272e-03
        22
  0.00000e+00  0.00000e+00  1.15046e-02
    -1
    -1
    55                                                                          
Mode 11                                                                         
EMA                                                                             
Acceleration shapes (Uz only)                                                   
LoadCase 1                                                                      
                                                                                
         1         2         2        12         2         3
         2         4         1        11
  4.70762e+01  0.00000e+00  0.00000e+00  0.00000e+00
         1
  0.00000e+00  0.00000e+00 -7.00939e-03
         2
  0.00000e+00  0.00000e+00  2.32946e-01
         3
  0.00000e+00  0.00000e+00  3.51181e-01
         4
  0.00000e+00  0.00000e+00 -1.64190e-01
         5
  0.00000e+00  0.00000e+00 -2.84588e-01
         6
  0.00000e+00  0.00000e+00 -2.54955e-01
         7
  0.00000e+00  0.00000e+00 -2.88242e-01
         8
  0.00000e+00  0.00000e+00  2.20226e-01
         9
  0.00000e+00  0.00000e+00 -1.05044e-02
        10
  0.00000e+00  0.00000e+00  1.69905e-01
        11
  0.00000e+00  0.00000e+00  8.14630e-02
        12
  0.00000e+00  0.00000e+00 -4.33158e-01
        13
  0.00000e+00  0.00000e+00 -5.95562e-02
        14
  0.00000e+00  0.00000e+00 -2.23592e-01
        15
  0.00000e+00  0.00000e+00  2.67810e-01
        16
  0.00000e+00  0.00000e+00  4.16264e-02
        17
  0.00000e+00  0.00000e+00  3.09957e-01
        18
  0.00000e+00  0.00000e+00 -3.52096e-02
        19
  0.00000e+00  0.00000e+00 -9.92186e-02
        20
  0.00000e+00  0.00000e+00 -1.73950e-01
        21
  0.00000e+00  0.00000e+00 -1.42361e-01
        22
  0.00000e+00  0.00000e+00 -9.95348e-02
    -1
    -1
    55                                                                          
Mode 12                                                                         
EMA                                                                             
Acceleration shapes (Uz only)                                                   
LoadCase 1                                                                      
                                                                                
         1         2         2        12         2         3
         2         4         1        12
  5.01271e+01  0.00000e+00  0.00000e+00  0.00000e+00
         1
  0.00000e+00  0.00000e+00  3.67615e-02
         2
  0.00000e+00  0.00000e+00  2.66710e-01
         3
  0.00000e+00  0.00000e+00  3.43712e-01
         4
  0.00000e+00  0.00000e+00 -2.00020e-01
         5
  0.00000e+00  0.00000e+00 -2.74614e-01
         6
  0.00000e+00  0.00000e+00 -3.09842e-01
         7
  0.00000e+00  0.00000e+00 -3.01608e-01
         8
  0.00000e+00  0.00000e+00  2.22219e-01
         9
  0.00000e+00  0.00000e+00 -3.13088e-03
        10
  0.00000e+00  0.00000e+00  2.00451e-01
        11
  0.00000e+00  0.00000e+00  1.02634e-01
        12
  0.00000e+00  0.00000e+00 -2.78426e-01
        13
  0.00000e+00  0.00000e+00 -1.32043e-01
        14
  0.00000e+00  0.00000e+00 -2.52419e-01
        15
  0.00000e+00  0.00000e+00  2.44196e-01
        16
  0.00000e+00  0.00000e+00  8.07353e-02
        17
  0.00000e+00  0.00000e+00  3.23554e-01
        18
  0.00000e+00  0.00000e+00  5.65953e-02
        19
  0.00000e+00  0.00000e+00 -1.17895e-01
        20
  0.00000e+00  0.00000e+00 -1.16866e-01
        21
  0.00000e+00  0.00000e+00 -1.85182e-01
        22
  0.00000e+00  0.00000e+00 -1.10996e-01
    -1
