    -1
    15
         1         0         0         0      9.02168     -4.53370      0.69505
         2         0         0         0      9.37747     -4.53370      0.69810
         3         0         0         0      8.56214     -3.82250      0.69839
         4         0         0         0      9.24877     -3.82250      0.69834
         5         0         0         0      8.12068     -3.06050      0.70675
         6         0         0         0      9.10008     -3.06050      0.70036
         7         0         0         0      7.43669     -2.01910      0.71479
         8         0         0         0      8.88655     -1.99370      0.70320
         9         0         0         0      7.48304     -1.08778      0.75700
        10         0         0         0      8.36919     -1.08570      0.73723
        11         0         0         0      9.02168      4.53370      0.69505
        12         0         0         0      9.37747      4.53370      0.69810
        13         0         0         0      8.56214      3.82250      0.69839
        14         0         0         0      9.24877      3.82250      0.69834
        15         0         0         0      8.12068      3.06050      0.70675
        16         0         0         0      9.10008      3.06050      0.70036
        17         0         0         0      7.43669      2.01910      0.71479
        18         0         0         0      8.88655      1.99370      0.70320
        19         0         0         0      7.48304      1.08778      0.75700
        20         0         0         0      8.36919      1.08570      0.73723
    -1
    -1
    55                                                                          
Mode 1                                                                          
EMA                                                                             
Acceleration shapes (Uz only)                                                   
LoadCase 1                                                                      
                                                                                
         1         2         2        12         2         3
         2         4         1         1
  4.59798e+00  0.00000e+00  0.00000e+00  0.00000e+00
         1
  0.00000e+00  0.00000e+00  3.92554e-01
         2
  0.00000e+00  0.00000e+00  3.47987e-01
         3
  0.00000e+00  0.00000e+00  2.87694e-01
         4
  0.00000e+00  0.00000e+00  2.28602e-01
         5
  0.00000e+00  0.00000e+00  1.08281e-01
         6
  0.00000e+00  0.00000e+00  1.59037e-01
         7
  0.00000e+00  0.00000e+00  1.19104e-01
         8
  0.00000e+00  0.00000e+00  1.02395e-01
         9
  0.00000e+00  0.00000e+00  6.72810e-02
        10
  0.00000e+00  0.00000e+00  8.27677e-02
        11
  0.00000e+00  0.00000e+00 -3.68467e-01
        12
  0.00000e+00  0.00000e+00 -3.70743e-01
        13
  0.00000e+00  0.00000e+00 -2.59439e-01
        14
  0.00000e+00  0.00000e+00 -2.52506e-01
        15
  0.00000e+00  0.00000e+00 -1.64971e-01
        16
  0.00000e+00  0.00000e+00 -1.69673e-01
        17
  0.00000e+00  0.00000e+00 -1.52197e-01
        18
  0.00000e+00  0.00000e+00 -1.12815e-01
        19
  0.00000e+00  0.00000e+00 -1.00614e-01
        20
  0.00000e+00  0.00000e+00 -1.02026e-01
    -1
    -1
    55                                                                          
Mode 2                                                                          
EMA                                                                             
Acceleration shapes (Uz only)                                                   
LoadCase 1                                                                      
                                                                                
         1         2         2        12         2         3
         2         4         1         2
  8.86954e+00  0.00000e+00  0.00000e+00  0.00000e+00
         1
  0.00000e+00  0.00000e+00 -4.22899e-01
         2
  0.00000e+00  0.00000e+00 -3.56431e-01
         3
  0.00000e+00  0.00000e+00 -1.55193e-01
         4
  0.00000e+00  0.00000e+00 -2.08027e-01
         5
  0.00000e+00  0.00000e+00 -1.82388e-02
         6
  0.00000e+00  0.00000e+00 -6.83651e-02
         7
  0.00000e+00  0.00000e+00  7.29033e-03
         8
  0.00000e+00  0.00000e+00 -1.47660e-02
         9
  0.00000e+00  0.00000e+00  2.01684e-02
        10
  0.00000e+00  0.00000e+00  8.49228e-03
        11
  0.00000e+00  0.00000e+00 -4.22857e-01
        12
  0.00000e+00  0.00000e+00 -4.25483e-01
        13
  0.00000e+00  0.00000e+00 -3.38563e-01
        14
  0.00000e+00  0.00000e+00 -2.54416e-01
        15
  0.00000e+00  0.00000e+00 -1.91170e-01
        16
  0.00000e+00  0.00000e+00 -1.91833e-01
        17
  0.00000e+00  0.00000e+00 -5.19938e-02
        18
  0.00000e+00  0.00000e+00 -7.34034e-02
        19
  0.00000e+00  0.00000e+00  1.65647e-02
        20
  0.00000e+00  0.00000e+00  9.38475e-03
    -1
    -1
    55                                                                          
Mode 3                                                                          
EMA                                                                             
Acceleration shapes (Uz only)                                                   
LoadCase 1                                                                      
                                                                                
         1         2         2        12         2         3
         2         4         1         3
  1.13147e+01  0.00000e+00  0.00000e+00  0.00000e+00
         1
  0.00000e+00  0.00000e+00  1.74282e-01
         2
  0.00000e+00  0.00000e+00  1.40754e-01
         3
  0.00000e+00  0.00000e+00  2.47902e-01
         4
  0.00000e+00  0.00000e+00  4.15228e-01
         5
  0.00000e+00  0.00000e+00  3.78232e-01
         6
  0.00000e+00  0.00000e+00  3.31936e-01
         7
  0.00000e+00  0.00000e+00  4.69881e-02
         8
  0.00000e+00  0.00000e+00  1.09341e-01
         9
  0.00000e+00  0.00000e+00 -1.59683e-02
        10
  0.00000e+00  0.00000e+00 -1.32886e-02
        11
  0.00000e+00  0.00000e+00 -1.86625e-01
        12
  0.00000e+00  0.00000e+00 -1.28856e-01
        13
  0.00000e+00  0.00000e+00 -2.84392e-01
        14
  0.00000e+00  0.00000e+00 -3.53875e-01
        15
  0.00000e+00  0.00000e+00 -3.32694e-01
        16
  0.00000e+00  0.00000e+00 -2.63708e-01
        17
  0.00000e+00  0.00000e+00 -4.17824e-02
        18
  0.00000e+00  0.00000e+00 -8.18463e-02
        19
  0.00000e+00  0.00000e+00  4.10564e-02
        20
  0.00000e+00  0.00000e+00  1.45287e-02
    -1
    -1
    55                                                                          
Mode 4                                                                          
EMA                                                                             
Acceleration shapes (Uz only)                                                   
LoadCase 1                                                                      
                                                                                
         1         2         2        12         2         3
         2         4         1         4
  1.31320e+01  0.00000e+00  0.00000e+00  0.00000e+00
         1
  0.00000e+00  0.00000e+00  4.65097e-01
         2
  0.00000e+00  0.00000e+00  6.33512e-01
         3
  0.00000e+00  0.00000e+00  6.74828e-02
         4
  0.00000e+00  0.00000e+00  3.90511e-01
         5
  0.00000e+00  0.00000e+00  6.13226e-02
         6
  0.00000e+00  0.00000e+00  1.71307e-01
         7
  0.00000e+00  0.00000e+00  1.13491e-02
         8
  0.00000e+00  0.00000e+00  6.50240e-02
         9
  0.00000e+00  0.00000e+00 -1.97260e-02
        10
  0.00000e+00  0.00000e+00 -4.28906e-03
        11
  0.00000e+00  0.00000e+00  1.14309e-01
        12
  0.00000e+00  0.00000e+00  2.55018e-01
        13
  0.00000e+00  0.00000e+00  2.32363e-01
        14
  0.00000e+00  0.00000e+00  1.30916e-01
        15
  0.00000e+00  0.00000e+00  9.10584e-02
        16
  0.00000e+00  0.00000e+00  1.45929e-01
        17
  0.00000e+00  0.00000e+00  4.31926e-02
        18
  0.00000e+00  0.00000e+00  7.40074e-02
        19
  0.00000e+00  0.00000e+00  2.39130e-02
        20
  0.00000e+00  0.00000e+00  2.62650e-02
    -1
    -1
    55                                                                          
Mode 5                                                                          
EMA                                                                             
Acceleration shapes (Uz only)                                                   
LoadCase 1                                                                      
                                                                                
         1         2         2        12         2         3
         2         4         1         5
  1.44716e+01  0.00000e+00  0.00000e+00  0.00000e+00
         1
  0.00000e+00  0.00000e+00 -4.02878e-01
         2
  0.00000e+00  0.00000e+00 -5.22648e-01
         3
  0.00000e+00  0.00000e+00 -1.58983e-01
         4
  0.00000e+00  0.00000e+00 -2.75219e-01
         5
  0.00000e+00  0.00000e+00 -3.45752e-02
         6
  0.00000e+00  0.00000e+00 -1.10892e-01
         7
  0.00000e+00  0.00000e+00  4.31810e-02
         8
  0.00000e+00  0.00000e+00 -1.03162e-03
         9
  0.00000e+00  0.00000e+00  4.13621e-02
        10
  0.00000e+00  0.00000e+00  3.66996e-02
        11
  0.00000e+00  0.00000e+00  3.56813e-01
        12
  0.00000e+00  0.00000e+00  4.74866e-01
        13
  0.00000e+00  0.00000e+00  1.38801e-01
        14
  0.00000e+00  0.00000e+00  2.42917e-01
        15
  0.00000e+00  0.00000e+00  2.89970e-02
        16
  0.00000e+00  0.00000e+00  9.92204e-02
        17
  0.00000e+00  0.00000e+00 -3.60485e-02
        18
  0.00000e+00  0.00000e+00  6.25633e-03
        19
  0.00000e+00  0.00000e+00 -3.20362e-02
        20
  0.00000e+00  0.00000e+00 -3.08734e-02
    -1
    -1
    55                                                                          
Mode 6                                                                          
EMA                                                                             
Acceleration shapes (Uz only)                                                   
LoadCase 1                                                                      
                                                                                
         1         2         2        12         2         3
         2         4         1         6
  1.66344e+01  0.00000e+00  0.00000e+00  0.00000e+00
         1
  0.00000e+00  0.00000e+00 -3.71217e-01
         2
  0.00000e+00  0.00000e+00 -4.88045e-01
         3
  0.00000e+00  0.00000e+00  2.46716e-01
         4
  0.00000e+00  0.00000e+00 -8.02723e-02
         5
  0.00000e+00  0.00000e+00  2.46093e-01
         6
  0.00000e+00  0.00000e+00  1.24792e-01
         7
  0.00000e+00  0.00000e+00  1.10243e-01
         8
  0.00000e+00  0.00000e+00  6.28552e-02
         9
  0.00000e+00  0.00000e+00  6.94026e-02
        10
  0.00000e+00  0.00000e+00  4.23862e-02
        11
  0.00000e+00  0.00000e+00  3.52463e-01
        12
  0.00000e+00  0.00000e+00  4.37243e-01
        13
  0.00000e+00  0.00000e+00 -2.25172e-01
        14
  0.00000e+00  0.00000e+00  9.86406e-02
        15
  0.00000e+00  0.00000e+00 -2.00795e-01
        16
  0.00000e+00  0.00000e+00 -1.08803e-01
        17
  0.00000e+00  0.00000e+00 -1.21021e-01
        18
  0.00000e+00  0.00000e+00 -8.97501e-02
        19
  0.00000e+00  0.00000e+00 -6.02937e-02
        20
  0.00000e+00  0.00000e+00 -5.92299e-02
    -1
    -1
    55                                                                          
Mode 7                                                                          
EMA                                                                             
Acceleration shapes (Uz only)                                                   
LoadCase 1                                                                      
                                                                                
         1         2         2        12         2         3
         2         4         1         7
  1.85189e+01  0.00000e+00  0.00000e+00  0.00000e+00
         1
  0.00000e+00  0.00000e+00  3.01997e-01
         2
  0.00000e+00  0.00000e+00  3.35150e-01
         3
  0.00000e+00  0.00000e+00 -2.54121e-01
         4
  0.00000e+00  0.00000e+00 -1.47457e-01
         5
  0.00000e+00  0.00000e+00 -4.17728e-01
         6
  0.00000e+00  0.00000e+00 -2.80212e-01
         7
  0.00000e+00  0.00000e+00 -1.06583e-01
         8
  0.00000e+00  0.00000e+00 -1.01637e-01
         9
  0.00000e+00  0.00000e+00 -1.16280e-02
        10
  0.00000e+00  0.00000e+00 -9.38681e-03
        11
  0.00000e+00  0.00000e+00 -2.64208e-01
        12
  0.00000e+00  0.00000e+00 -3.09657e-01
        13
  0.00000e+00  0.00000e+00  2.54443e-01
        14
  0.00000e+00  0.00000e+00  9.84644e-02
        15
  0.00000e+00  0.00000e+00  3.43697e-01
        16
  0.00000e+00  0.00000e+00  2.32962e-01
        17
  0.00000e+00  0.00000e+00  1.05372e-01
        18
  0.00000e+00  0.00000e+00  1.05308e-01
        19
  0.00000e+00  0.00000e+00 -3.31296e-03
        20
  0.00000e+00  0.00000e+00  2.21311e-02
    -1
    -1
    55                                                                          
Mode 8                                                                          
EMA                                                                             
Acceleration shapes (Uz only)                                                   
LoadCase 1                                                                      
                                                                                
         1         2         2        12         2         3
         2         4         1         8
  2.39829e+01  0.00000e+00  0.00000e+00  0.00000e+00
         1
  0.00000e+00  0.00000e+00 -3.45661e-01
         2
  0.00000e+00  0.00000e+00 -3.51570e-01
         3
  0.00000e+00  0.00000e+00 -2.59081e-01
         4
  0.00000e+00  0.00000e+00 -9.85690e-02
         5
  0.00000e+00  0.00000e+00  1.75406e-01
         6
  0.00000e+00  0.00000e+00  5.97066e-02
         7
  0.00000e+00  0.00000e+00  2.46613e-01
         8
  0.00000e+00  0.00000e+00  1.59709e-01
         9
  0.00000e+00  0.00000e+00  7.59656e-02
        10
  0.00000e+00  0.00000e+00  8.67228e-02
        11
  0.00000e+00  0.00000e+00  3.74941e-01
        12
  0.00000e+00  0.00000e+00  4.46528e-01
        13
  0.00000e+00  0.00000e+00  1.89593e-01
        14
  0.00000e+00  0.00000e+00  4.13586e-02
        15
  0.00000e+00  0.00000e+00 -2.32671e-01
        16
  0.00000e+00  0.00000e+00 -1.05096e-01
        17
  0.00000e+00  0.00000e+00 -2.63682e-01
        18
  0.00000e+00  0.00000e+00 -1.49374e-01
        19
  0.00000e+00  0.00000e+00 -7.94358e-02
        20
  0.00000e+00  0.00000e+00 -7.19193e-02
    -1
    -1
    55                                                                          
Mode 9                                                                          
EMA                                                                             
Acceleration shapes (Uz only)                                                   
LoadCase 1                                                                      
                                                                                
         1         2         2        12         2         3
         2         4         1         9
  3.45628e+01  0.00000e+00  0.00000e+00  0.00000e+00
         1
  0.00000e+00  0.00000e+00  3.31309e-01
         2
  0.00000e+00  0.00000e+00  4.88199e-01
         3
  0.00000e+00  0.00000e+00 -1.46818e-01
         4
  0.00000e+00  0.00000e+00 -2.44441e-02
         5
  0.00000e+00  0.00000e+00 -2.81228e-01
         6
  0.00000e+00  0.00000e+00 -1.95470e-01
         7
  0.00000e+00  0.00000e+00 -1.01647e-01
         8
  0.00000e+00  0.00000e+00 -7.57703e-02
         9
  0.00000e+00  0.00000e+00  3.26910e-02
        10
  0.00000e+00  0.00000e+00  3.96589e-02
        11
  0.00000e+00  0.00000e+00 -3.16400e-01
        12
  0.00000e+00  0.00000e+00 -4.72197e-01
        13
  0.00000e+00  0.00000e+00  1.73305e-01
        14
  0.00000e+00  0.00000e+00  5.34446e-02
        15
  0.00000e+00  0.00000e+00  2.83809e-01
        16
  0.00000e+00  0.00000e+00  1.94852e-01
        17
  0.00000e+00  0.00000e+00  1.06848e-01
        18
  0.00000e+00  0.00000e+00  6.56247e-02
        19
  0.00000e+00  0.00000e+00 -3.60201e-02
        20
  0.00000e+00  0.00000e+00 -4.71853e-02
    -1
