    -1
  2411                                                                          
    -1
  2411                                                                          
         0         0         0         0
   7.8176000000000005e+00  -4.6353000000000000e+00   6.3575999999999999e-01
         1         0         0         0
   9.7072000000000003e+00  -4.6353000000000000e+00   7.3675999999999997e-01
         2         0         0         0
   9.0216799999999999e+00  -4.5336999999999996e+00   6.9504999999999995e-01
         3         0         0         0
   9.3774699999999989e+00  -4.5336999999999996e+00   6.9810000000000005e-01
         4         0         0         0
   8.5621399999999994e+00  -3.8224999999999998e+00   6.9838999999999996e-01
         5         0         0         0
   9.2487700000000004e+00  -3.8224999999999998e+00   6.9834000000000007e-01
         6         0         0         0
   8.1206800000000001e+00  -3.0605000000000002e+00   7.0674999999999999e-01
         7         0         0         0
   9.1000800000000002e+00  -3.0605000000000002e+00   7.0035999999999998e-01
         8         0         0         0
   7.4366899999999996e+00  -2.0190999999999999e+00   7.1478999999999993e-01
         9         0         0         0
   8.8865499999999997e+00  -1.9937000000000000e+00   7.0320000000000005e-01
        10         0         0         0
   7.4830399999999999e+00  -1.0877800000000000e+00   7.5700000000000001e-01
        11         0         0         0
   8.3691899999999997e+00  -1.0857000000000001e+00   7.3723000000000005e-01
        12         0         0         0
   7.8176000000000005e+00   4.6353000000000000e+00   6.3575999999999999e-01
        13         0         0         0
   9.7072000000000003e+00   4.6353000000000000e+00   7.3675999999999997e-01
        14         0         0         0
   9.0216799999999999e+00   4.5336999999999996e+00   6.9504999999999995e-01
        15         0         0         0
   9.3774699999999989e+00   4.5336999999999996e+00   6.9810000000000005e-01
        16         0         0         0
   8.5621399999999994e+00   3.8224999999999998e+00   6.9838999999999996e-01
        17         0         0         0
   9.2487700000000004e+00   3.8224999999999998e+00   6.9834000000000007e-01
        18         0         0         0
   8.1206800000000001e+00   3.0605000000000002e+00   7.0674999999999999e-01
        19         0         0         0
   9.1000800000000002e+00   3.0605000000000002e+00   7.0035999999999998e-01
        20         0         0         0
   7.4366899999999996e+00   2.0190999999999999e+00   7.1478999999999993e-01
        21         0         0         0
   8.8865499999999997e+00   1.9937000000000000e+00   7.0320000000000005e-01
        22         0         0         0
   7.4830399999999999e+00   1.0877800000000000e+00   7.5700000000000001e-01
        23         0         0         0
   8.3691899999999997e+00   1.0857000000000001e+00   7.3723000000000005e-01
    -1
    -1
  2412                                                                          
    -1
  2411                                                                          
         0         0         0         0
   7.8176000000000005e+00  -4.6353000000000000e+00   6.3575999999999999e-01
         1         0         0         0
   9.7072000000000003e+00  -4.6353000000000000e+00   7.3675999999999997e-01
         2         0         0         0
   9.0216799999999999e+00  -4.5336999999999996e+00   6.9504999999999995e-01
         3         0         0         0
   9.3774699999999989e+00  -4.5336999999999996e+00   6.9810000000000005e-01
         4         0         0         0
   8.5621399999999994e+00  -3.8224999999999998e+00   6.9838999999999996e-01
         5         0         0         0
   9.2487700000000004e+00  -3.8224999999999998e+00   6.9834000000000007e-01
         6         0         0         0
   8.1206800000000001e+00  -3.0605000000000002e+00   7.0674999999999999e-01
         7         0         0         0
   9.1000800000000002e+00  -3.0605000000000002e+00   7.0035999999999998e-01
         8         0         0         0
   7.4366899999999996e+00  -2.0190999999999999e+00   7.1478999999999993e-01
         9         0         0         0
   8.8865499999999997e+00  -1.9937000000000000e+00   7.0320000000000005e-01
        10         0         0         0
   7.4830399999999999e+00  -1.0877800000000000e+00   7.5700000000000001e-01
        11         0         0         0
   8.3691899999999997e+00  -1.0857000000000001e+00   7.3723000000000005e-01
        12         0         0         0
   7.8176000000000005e+00   4.6353000000000000e+00   6.3575999999999999e-01
        13         0         0         0
   9.7072000000000003e+00   4.6353000000000000e+00   7.3675999999999997e-01
        14         0         0         0
   9.0216799999999999e+00   4.5336999999999996e+00   6.9504999999999995e-01
        15         0         0         0
   9.3774699999999989e+00   4.5336999999999996e+00   6.9810000000000005e-01
        16         0         0         0
   8.5621399999999994e+00   3.8224999999999998e+00   6.9838999999999996e-01
        17         0         0         0
   9.2487700000000004e+00   3.8224999999999998e+00   6.9834000000000007e-01
        18         0         0         0
   8.1206800000000001e+00   3.0605000000000002e+00   7.0674999999999999e-01
        19         0         0         0
   9.1000800000000002e+00   3.0605000000000002e+00   7.0035999999999998e-01
        20         0         0         0
   7.4366899999999996e+00   2.0190999999999999e+00   7.1478999999999993e-01
        21         0         0         0
   8.8865499999999997e+00   1.9937000000000000e+00   7.0320000000000005e-01
        22         0         0         0
   7.4830399999999999e+00   1.0877800000000000e+00   7.5700000000000001e-01
        23         0         0         0
   8.3691899999999997e+00   1.0857000000000001e+00   7.3723000000000005e-01
    -1
    -1
  2412                                                                          
    -1
  2411                                                                          
         0         0         0         0
   7.8176000000000005e+00  -4.6353000000000000e+00   6.3575999999999999e-01
         1         0         0         0
   9.7072000000000003e+00  -4.6353000000000000e+00   7.3675999999999997e-01
         2         0         0         0
   9.0216799999999999e+00  -4.5336999999999996e+00   6.9504999999999995e-01
         3         0         0         0
   9.3774699999999989e+00  -4.5336999999999996e+00   6.9810000000000005e-01
         4         0         0         0
   8.5621399999999994e+00  -3.8224999999999998e+00   6.9838999999999996e-01
         5         0         0         0
   9.2487700000000004e+00  -3.8224999999999998e+00   6.9834000000000007e-01
         6         0         0         0
   8.1206800000000001e+00  -3.0605000000000002e+00   7.0674999999999999e-01
         7         0         0         0
   9.1000800000000002e+00  -3.0605000000000002e+00   7.0035999999999998e-01
         8         0         0         0
   7.4366899999999996e+00  -2.0190999999999999e+00   7.1478999999999993e-01
         9         0         0         0
   8.8865499999999997e+00  -1.9937000000000000e+00   7.0320000000000005e-01
        10         0         0         0
   7.4830399999999999e+00  -1.0877800000000000e+00   7.5700000000000001e-01
        11         0         0         0
   8.3691899999999997e+00  -1.0857000000000001e+00   7.3723000000000005e-01
        12         0         0         0
   7.8176000000000005e+00   4.6353000000000000e+00   6.3575999999999999e-01
        13         0         0         0
   9.7072000000000003e+00   4.6353000000000000e+00   7.3675999999999997e-01
        14         0         0         0
   9.0216799999999999e+00   4.5336999999999996e+00   6.9504999999999995e-01
        15         0         0         0
   9.3774699999999989e+00   4.5336999999999996e+00   6.9810000000000005e-01
        16         0         0         0
   8.5621399999999994e+00   3.8224999999999998e+00   6.9838999999999996e-01
        17         0         0         0
   9.2487700000000004e+00   3.8224999999999998e+00   6.9834000000000007e-01
        18         0         0         0
   8.1206800000000001e+00   3.0605000000000002e+00   7.0674999999999999e-01
        19         0         0         0
   9.1000800000000002e+00   3.0605000000000002e+00   7.0035999999999998e-01
        20         0         0         0
   7.4366899999999996e+00   2.0190999999999999e+00   7.1478999999999993e-01
        21         0         0         0
   8.8865499999999997e+00   1.9937000000000000e+00   7.0320000000000005e-01
        22         0         0         0
   7.4830399999999999e+00   1.0877800000000000e+00   7.5700000000000001e-01
        23         0         0         0
   8.3691899999999997e+00   1.0857000000000001e+00   7.3723000000000005e-01
    -1
    -1
  2412                                                                          
    -1
  2411                                                                          
         0         0         0         0
   7.8176000000000005e+00  -4.6353000000000000e+00   6.3575999999999999e-01
         1         0         0         0
   9.7072000000000003e+00  -4.6353000000000000e+00   7.3675999999999997e-01
         2         0         0         0
   9.0216799999999999e+00  -4.5336999999999996e+00   6.9504999999999995e-01
         3         0         0         0
   9.3774699999999989e+00  -4.5336999999999996e+00   6.9810000000000005e-01
         4         0         0         0
   8.5621399999999994e+00  -3.8224999999999998e+00   6.9838999999999996e-01
         5         0         0         0
   9.2487700000000004e+00  -3.8224999999999998e+00   6.9834000000000007e-01
         6         0         0         0
   8.1206800000000001e+00  -3.0605000000000002e+00   7.0674999999999999e-01
         7         0         0         0
   9.1000800000000002e+00  -3.0605000000000002e+00   7.0035999999999998e-01
         8         0         0         0
   7.4366899999999996e+00  -2.0190999999999999e+00   7.1478999999999993e-01
         9         0         0         0
   8.8865499999999997e+00  -1.9937000000000000e+00   7.0320000000000005e-01
        10         0         0         0
   7.4830399999999999e+00  -1.0877800000000000e+00   7.5700000000000001e-01
        11         0         0         0
   8.3691899999999997e+00  -1.0857000000000001e+00   7.3723000000000005e-01
        12         0         0         0
   7.8176000000000005e+00   4.6353000000000000e+00   6.3575999999999999e-01
        13         0         0         0
   9.7072000000000003e+00   4.6353000000000000e+00   7.3675999999999997e-01
        14         0         0         0
   9.0216799999999999e+00   4.5336999999999996e+00   6.9504999999999995e-01
        15         0         0         0
   9.3774699999999989e+00   4.5336999999999996e+00   6.9810000000000005e-01
        16         0         0         0
   8.5621399999999994e+00   3.8224999999999998e+00   6.9838999999999996e-01
        17         0         0         0
   9.2487700000000004e+00   3.8224999999999998e+00   6.9834000000000007e-01
        18         0         0         0
   8.1206800000000001e+00   3.0605000000000002e+00   7.0674999999999999e-01
        19         0         0         0
   9.1000800000000002e+00   3.0605000000000002e+00   7.0035999999999998e-01
        20         0         0         0
   7.4366899999999996e+00   2.0190999999999999e+00   7.1478999999999993e-01
        21         0         0         0
   8.8865499999999997e+00   1.9937000000000000e+00   7.0320000000000005e-01
        22         0         0         0
   7.4830399999999999e+00   1.0877800000000000e+00   7.5700000000000001e-01
        23         0         0         0
   8.3691899999999997e+00   1.0857000000000001e+00   7.3723000000000005e-01
    -1
    -1
  2412                                                                          
    -1
  2411                                                                          
         0         0         0         0
   7.8176000000000005e+00  -4.6353000000000000e+00   6.3575999999999999e-01
         1         0         0         0
   9.7072000000000003e+00  -4.6353000000000000e+00   7.3675999999999997e-01
         2         0         0         0
   9.0216799999999999e+00  -4.5336999999999996e+00   6.9504999999999995e-01
         3         0         0         0
   9.3774699999999989e+00  -4.5336999999999996e+00   6.9810000000000005e-01
         4         0         0         0
   8.5621399999999994e+00  -3.8224999999999998e+00   6.9838999999999996e-01
         5         0         0         0
   9.2487700000000004e+00  -3.8224999999999998e+00   6.9834000000000007e-01
         6         0         0         0
   8.1206800000000001e+00  -3.0605000000000002e+00   7.0674999999999999e-01
         7         0         0         0
   9.1000800000000002e+00  -3.0605000000000002e+00   7.0035999999999998e-01
         8         0         0         0
   7.4366899999999996e+00  -2.0190999999999999e+00   7.1478999999999993e-01
         9         0         0         0
   8.8865499999999997e+00  -1.9937000000000000e+00   7.0320000000000005e-01
        10         0         0         0
   7.4830399999999999e+00  -1.0877800000000000e+00   7.5700000000000001e-01
        11         0         0         0
   8.3691899999999997e+00  -1.0857000000000001e+00   7.3723000000000005e-01
        12         0         0         0
   7.8176000000000005e+00   4.6353000000000000e+00   6.3575999999999999e-01
        13         0         0         0
   9.7072000000000003e+00   4.6353000000000000e+00   7.3675999999999997e-01
        14         0         0         0
   9.0216799999999999e+00   4.5336999999999996e+00   6.9504999999999995e-01
        15         0         0         0
   9.3774699999999989e+00   4.5336999999999996e+00   6.9810000000000005e-01
        16         0         0         0
   8.5621399999999994e+00   3.8224999999999998e+00   6.9838999999999996e-01
        17         0         0         0
   9.2487700000000004e+00   3.8224999999999998e+00   6.9834000000000007e-01
        18         0         0         0
   8.1206800000000001e+00   3.0605000000000002e+00   7.0674999999999999e-01
        19         0         0         0
   9.1000800000000002e+00   3.0605000000000002e+00   7.0035999999999998e-01
        20         0         0         0
   7.4366899999999996e+00   2.0190999999999999e+00   7.1478999999999993e-01
        21         0         0         0
   8.8865499999999997e+00   1.9937000000000000e+00   7.0320000000000005e-01
        22         0         0         0
   7.4830399999999999e+00   1.0877800000000000e+00   7.5700000000000001e-01
        23         0         0         0
   8.3691899999999997e+00   1.0857000000000001e+00   7.3723000000000005e-01
    -1
    -1
  2412                                                                          
    -1
  2411                                                                          
         0         0         0         0
   7.8176000000000005e+00  -4.6353000000000000e+00   6.3575999999999999e-01
         1         0         0         0
   9.7072000000000003e+00  -4.6353000000000000e+00   7.3675999999999997e-01
         2         0         0         0
   9.0216799999999999e+00  -4.5336999999999996e+00   6.9504999999999995e-01
         3         0         0         0
   9.3774699999999989e+00  -4.5336999999999996e+00   6.9810000000000005e-01
         4         0         0         0
   8.5621399999999994e+00  -3.8224999999999998e+00   6.9838999999999996e-01
         5         0         0         0
   9.2487700000000004e+00  -3.8224999999999998e+00   6.9834000000000007e-01
         6         0         0         0
   8.1206800000000001e+00  -3.0605000000000002e+00   7.0674999999999999e-01
         7         0         0         0
   9.1000800000000002e+00  -3.0605000000000002e+00   7.0035999999999998e-01
         8         0         0         0
   7.4366899999999996e+00  -2.0190999999999999e+00   7.1478999999999993e-01
         9         0         0         0
   8.8865499999999997e+00  -1.9937000000000000e+00   7.0320000000000005e-01
        10         0         0         0
   7.4830399999999999e+00  -1.0877800000000000e+00   7.5700000000000001e-01
        11         0         0         0
   8.3691899999999997e+00  -1.0857000000000001e+00   7.3723000000000005e-01
        12         0         0         0
   7.8176000000000005e+00   4.6353000000000000e+00   6.3575999999999999e-01
        13         0         0         0
   9.7072000000000003e+00   4.6353000000000000e+00   7.3675999999999997e-01
        14         0         0         0
   9.0216799999999999e+00   4.5336999999999996e+00   6.9504999999999995e-01
        15         0         0         0
   9.3774699999999989e+00   4.5336999999999996e+00   6.9810000000000005e-01
        16         0         0         0
   8.5621399999999994e+00   3.8224999999999998e+00   6.9838999999999996e-01
        17         0         0         0
   9.2487700000000004e+00   3.8224999999999998e+00   6.9834000000000007e-01
        18         0         0         0
   8.1206800000000001e+00   3.0605000000000002e+00   7.0674999999999999e-01
        19         0         0         0
   9.1000800000000002e+00   3.0605000000000002e+00   7.0035999999999998e-01
        20         0         0         0
   7.4366899999999996e+00   2.0190999999999999e+00   7.1478999999999993e-01
        21         0         0         0
   8.8865499999999997e+00   1.9937000000000000e+00   7.0320000000000005e-01
        22         0         0         0
   7.4830399999999999e+00   1.0877800000000000e+00   7.5700000000000001e-01
        23         0         0         0
   8.3691899999999997e+00   1.0857000000000001e+00   7.3723000000000005e-01
    -1
    -1
  2412                                                                          
    -1
  2411                                                                          
         0         0         0         0
   7.8176000000000005e+00  -4.6353000000000000e+00   6.3575999999999999e-01
         1         0         0         0
   9.7072000000000003e+00  -4.6353000000000000e+00   7.3675999999999997e-01
         2         0         0         0
   9.0216799999999999e+00  -4.5336999999999996e+00   6.9504999999999995e-01
         3         0         0         0
   9.3774699999999989e+00  -4.5336999999999996e+00   6.9810000000000005e-01
         4         0         0         0
   8.5621399999999994e+00  -3.8224999999999998e+00   6.9838999999999996e-01
         5         0         0         0
   9.2487700000000004e+00  -3.8224999999999998e+00   6.9834000000000007e-01
         6         0         0         0
   8.1206800000000001e+00  -3.0605000000000002e+00   7.0674999999999999e-01
         7         0         0         0
   9.1000800000000002e+00  -3.0605000000000002e+00   7.0035999999999998e-01
         8         0         0         0
   7.4366899999999996e+00  -2.0190999999999999e+00   7.1478999999999993e-01
         9         0         0         0
   8.8865499999999997e+00  -1.9937000000000000e+00   7.0320000000000005e-01
        10         0         0         0
   7.4830399999999999e+00  -1.0877800000000000e+00   7.5700000000000001e-01
        11         0         0         0
   8.3691899999999997e+00  -1.0857000000000001e+00   7.3723000000000005e-01
        12         0         0         0
   7.8176000000000005e+00   4.6353000000000000e+00   6.3575999999999999e-01
        13         0         0         0
   9.7072000000000003e+00   4.6353000000000000e+00   7.3675999999999997e-01
        14         0         0         0
   9.0216799999999999e+00   4.5336999999999996e+00   6.9504999999999995e-01
        15         0         0         0
   9.3774699999999989e+00   4.5336999999999996e+00   6.9810000000000005e-01
        16         0         0         0
   8.5621399999999994e+00   3.8224999999999998e+00   6.9838999999999996e-01
        17         0         0         0
   9.2487700000000004e+00   3.8224999999999998e+00   6.9834000000000007e-01
        18         0         0         0
   8.1206800000000001e+00   3.0605000000000002e+00   7.0674999999999999e-01
        19         0         0         0
   9.1000800000000002e+00   3.0605000000000002e+00   7.0035999999999998e-01
        20         0         0         0
   7.4366899999999996e+00   2.0190999999999999e+00   7.1478999999999993e-01
        21         0         0         0
   8.8865499999999997e+00   1.9937000000000000e+00   7.0320000000000005e-01
        22         0         0         0
   7.4830399999999999e+00   1.0877800000000000e+00   7.5700000000000001e-01
        23         0         0         0
   8.3691899999999997e+00   1.0857000000000001e+00   7.3723000000000005e-01
    -1
    -1
  2412                                                                          
    -1
  2411                                                                          
         0         0         0         0
   7.8176000000000005e+00  -4.6353000000000000e+00   6.3575999999999999e-01
         1         0         0         0
   9.7072000000000003e+00  -4.6353000000000000e+00   7.3675999999999997e-01
         2         0         0         0
   9.0216799999999999e+00  -4.5336999999999996e+00   6.9504999999999995e-01
         3         0         0         0
   9.3774699999999989e+00  -4.5336999999999996e+00   6.9810000000000005e-01
         4         0         0         0
   8.5621399999999994e+00  -3.8224999999999998e+00   6.9838999999999996e-01
         5         0         0         0
   9.2487700000000004e+00  -3.8224999999999998e+00   6.9834000000000007e-01
         6         0         0         0
   8.1206800000000001e+00  -3.0605000000000002e+00   7.0674999999999999e-01
         7         0         0         0
   9.1000800000000002e+00  -3.0605000000000002e+00   7.0035999999999998e-01
         8         0         0         0
   7.4366899999999996e+00  -2.0190999999999999e+00   7.1478999999999993e-01
         9         0         0         0
   8.8865499999999997e+00  -1.9937000000000000e+00   7.0320000000000005e-01
        10         0         0         0
   7.4830399999999999e+00  -1.0877800000000000e+00   7.5700000000000001e-01
        11         0         0         0
   8.3691899999999997e+00  -1.0857000000000001e+00   7.3723000000000005e-01
        12         0         0         0
   7.8176000000000005e+00   4.6353000000000000e+00   6.3575999999999999e-01
        13         0         0         0
   9.7072000000000003e+00   4.6353000000000000e+00   7.3675999999999997e-01
        14         0         0         0
   9.0216799999999999e+00   4.5336999999999996e+00   6.9504999999999995e-01
        15         0         0         0
   9.3774699999999989e+00   4.5336999999999996e+00   6.9810000000000005e-01
        16         0         0         0
   8.5621399999999994e+00   3.8224999999999998e+00   6.9838999999999996e-01
        17         0         0         0
   9.2487700000000004e+00   3.8224999999999998e+00   6.9834000000000007e-01
        18         0         0         0
   8.1206800000000001e+00   3.0605000000000002e+00   7.0674999999999999e-01
        19         0         0         0
   9.1000800000000002e+00   3.0605000000000002e+00   7.0035999999999998e-01
        20         0         0         0
   7.4366899999999996e+00   2.0190999999999999e+00   7.1478999999999993e-01
        21         0         0         0
   8.8865499999999997e+00   1.9937000000000000e+00   7.0320000000000005e-01
        22         0         0         0
   7.4830399999999999e+00   1.0877800000000000e+00   7.5700000000000001e-01
        23         0         0         0
   8.3691899999999997e+00   1.0857000000000001e+00   7.3723000000000005e-01
    -1
    -1
    55                                                                          
Mode 1                                                                          
EMA                                                                             
Acceleration shapes (Uz only)                                                   
LoadCase 1                                                                      
                                                                                
         1         2         2        12         2         3
         2         4         1         1
  4.54161e+00  0.00000e+00  0.00000e+00  0.00000e+00
         1
  0.00000e+00  0.00000e+00 -3.59475e-01
         2
  0.00000e+00  0.00000e+00 -6.36216e-01
         3
  0.00000e+00  0.00000e+00 -9.08338e-02
         4
  0.00000e+00  0.00000e+00 -2.28741e-01
         5
  0.00000e+00  0.00000e+00  1.47049e-01
         6
  0.00000e+00  0.00000e+00  4.76453e-02
         7
  0.00000e+00  0.00000e+00 -1.41957e-01
         8
  0.00000e+00  0.00000e+00 -2.71785e-02
         9
  0.00000e+00  0.00000e+00 -1.85432e-01
        10
  0.00000e+00  0.00000e+00 -8.41362e-02
        11
  0.00000e+00  0.00000e+00 -1.45148e-02
        12
  0.00000e+00  0.00000e+00 -1.10829e-02
        13
  0.00000e+00  0.00000e+00 -1.49299e-01
        14
  0.00000e+00  0.00000e+00 -4.16116e-01
        15
  0.00000e+00  0.00000e+00  1.34151e-01
        16
  0.00000e+00  0.00000e+00 -3.46865e-02
        17
  0.00000e+00  0.00000e+00  2.77987e-01
        18
  0.00000e+00  0.00000e+00  1.09608e-01
        19
  0.00000e+00  0.00000e+00 -2.47695e-02
        20
  0.00000e+00  0.00000e+00  2.71333e-02
        21
  0.00000e+00  0.00000e+00 -1.07890e-01
        22
  0.00000e+00  0.00000e+00 -2.43384e-02
        23
  0.00000e+00  0.00000e+00  2.61636e-02
        24
  0.00000e+00  0.00000e+00  2.55246e-02
    -1
    -1
    55                                                                          
Mode 2                                                                          
EMA                                                                             
Acceleration shapes (Uz only)                                                   
LoadCase 1                                                                      
                                                                                
         1         2         2        12         2         3
         2         4         1         2
  8.80576e+00  0.00000e+00  0.00000e+00  0.00000e+00
         1
  0.00000e+00  0.00000e+00 -5.13472e-01
         2
  0.00000e+00  0.00000e+00 -2.40711e-01
         3
  0.00000e+00  0.00000e+00 -2.82122e-01
         4
  0.00000e+00  0.00000e+00 -2.57294e-01
         5
  0.00000e+00  0.00000e+00 -1.67879e-01
         6
  0.00000e+00  0.00000e+00 -1.62648e-01
         7
  0.00000e+00  0.00000e+00 -7.73780e-02
         8
  0.00000e+00  0.00000e+00 -8.40229e-02
         9
  0.00000e+00  0.00000e+00 -1.23476e-02
        10
  0.00000e+00  0.00000e+00 -1.86872e-02
        11
  0.00000e+00  0.00000e+00  8.17419e-03
        12
  0.00000e+00  0.00000e+00  7.86738e-03
        13
  0.00000e+00  0.00000e+00 -4.73292e-01
        14
  0.00000e+00  0.00000e+00 -2.33388e-01
        15
  0.00000e+00  0.00000e+00 -2.63836e-01
        16
  0.00000e+00  0.00000e+00 -2.39790e-01
        17
  0.00000e+00  0.00000e+00 -1.56574e-01
        18
  0.00000e+00  0.00000e+00 -1.47770e-01
        19
  0.00000e+00  0.00000e+00 -7.27127e-02
        20
  0.00000e+00  0.00000e+00 -7.91588e-02
        21
  0.00000e+00  0.00000e+00 -1.38384e-02
        22
  0.00000e+00  0.00000e+00 -2.27870e-02
        23
  0.00000e+00  0.00000e+00  6.71904e-03
        24
  0.00000e+00  0.00000e+00  7.23872e-03
    -1
    -1
    55                                                                          
Mode 3                                                                          
EMA                                                                             
Acceleration shapes (Uz only)                                                   
LoadCase 1                                                                      
                                                                                
         1         2         2        12         2         3
         2         4         1         3
  1.31924e+01  0.00000e+00  0.00000e+00  0.00000e+00
         1
  0.00000e+00  0.00000e+00 -4.43644e-01
         2
  0.00000e+00  0.00000e+00  3.71837e-01
         3
  0.00000e+00  0.00000e+00  1.74145e-01
         4
  0.00000e+00  0.00000e+00  2.65994e-01
         5
  0.00000e+00  0.00000e+00  9.61271e-02
         6
  0.00000e+00  0.00000e+00  1.72696e-01
         7
  0.00000e+00  0.00000e+00  5.94526e-02
         8
  0.00000e+00  0.00000e+00  1.01605e-01
         9
  0.00000e+00  0.00000e+00  2.05352e-02
        10
  0.00000e+00  0.00000e+00  3.87986e-02
        11
  0.00000e+00  0.00000e+00  7.43362e-03
        12
  0.00000e+00  0.00000e+00  7.03646e-03
        13
  0.00000e+00  0.00000e+00 -4.29074e-01
        14
  0.00000e+00  0.00000e+00  3.90745e-01
        15
  0.00000e+00  0.00000e+00  1.89079e-01
        16
  0.00000e+00  0.00000e+00  2.83082e-01
        17
  0.00000e+00  0.00000e+00  1.02664e-01
        18
  0.00000e+00  0.00000e+00  1.74677e-01
        19
  0.00000e+00  0.00000e+00  5.62525e-02
        20
  0.00000e+00  0.00000e+00  1.00761e-01
        21
  0.00000e+00  0.00000e+00  1.73023e-02
        22
  0.00000e+00  0.00000e+00  3.88450e-02
        23
  0.00000e+00  0.00000e+00  4.31234e-03
        24
  0.00000e+00  0.00000e+00  3.91293e-03
    -1
    -1
    55                                                                          
Mode 4                                                                          
EMA                                                                             
Acceleration shapes (Uz only)                                                   
LoadCase 1                                                                      
                                                                                
         1         2         2        12         2         3
         2         4         1         4
  1.50587e+01  0.00000e+00  0.00000e+00  0.00000e+00
         1
  0.00000e+00  0.00000e+00 -1.39554e-01
         2
  0.00000e+00  0.00000e+00  6.37624e-01
         3
  0.00000e+00  0.00000e+00  2.00311e-01
         4
  0.00000e+00  0.00000e+00  3.49139e-01
         5
  0.00000e+00  0.00000e+00 -6.67577e-02
         6
  0.00000e+00  0.00000e+00  5.74630e-02
         7
  0.00000e+00  0.00000e+00 -4.40659e-02
         8
  0.00000e+00  0.00000e+00 -6.68284e-03
         9
  0.00000e+00  0.00000e+00 -3.79323e-02
        10
  0.00000e+00  0.00000e+00 -2.38898e-02
        11
  0.00000e+00  0.00000e+00 -8.34077e-02
        12
  0.00000e+00  0.00000e+00 -6.73954e-02
        13
  0.00000e+00  0.00000e+00  3.11407e-01
        14
  0.00000e+00  0.00000e+00  4.47053e-01
        15
  0.00000e+00  0.00000e+00  1.51171e-01
        16
  0.00000e+00  0.00000e+00  2.38307e-01
        17
  0.00000e+00  0.00000e+00 -3.41476e-02
        18
  0.00000e+00  0.00000e+00  6.67377e-02
        19
  0.00000e+00  0.00000e+00  1.27462e-02
        20
  0.00000e+00  0.00000e+00  4.84792e-02
        21
  0.00000e+00  0.00000e+00  2.36149e-02
        22
  0.00000e+00  0.00000e+00  3.65154e-02
        23
  0.00000e+00  0.00000e+00 -3.93400e-02
        24
  0.00000e+00  0.00000e+00 -2.52845e-02
    -1
    -1
    55                                                                          
Mode 5                                                                          
EMA                                                                             
Acceleration shapes (Uz only)                                                   
LoadCase 1                                                                      
                                                                                
         1         2         2        12         2         3
         2         4         1         5
  2.77682e+01  0.00000e+00  0.00000e+00  0.00000e+00
         1
  0.00000e+00  0.00000e+00 -1.85305e-02
         2
  0.00000e+00  0.00000e+00  4.55613e-01
         3
  0.00000e+00  0.00000e+00  2.22369e-01
         4
  0.00000e+00  0.00000e+00  3.04797e-01
         5
  0.00000e+00  0.00000e+00 -4.39476e-02
         6
  0.00000e+00  0.00000e+00 -2.73687e-02
         7
  0.00000e+00  0.00000e+00 -2.15016e-01
         8
  0.00000e+00  0.00000e+00 -1.47457e-01
         9
  0.00000e+00  0.00000e+00 -1.03181e-01
        10
  0.00000e+00  0.00000e+00 -1.09615e-01
        11
  0.00000e+00  0.00000e+00 -7.54522e-03
        12
  0.00000e+00  0.00000e+00 -2.50879e-02
        13
  0.00000e+00  0.00000e+00  3.55678e-01
        14
  0.00000e+00  0.00000e+00  4.23946e-01
        15
  0.00000e+00  0.00000e+00  2.64165e-01
        16
  0.00000e+00  0.00000e+00  2.88642e-01
        17
  0.00000e+00  0.00000e+00 -4.27155e-02
        18
  0.00000e+00  0.00000e+00 -8.16699e-02
        19
  0.00000e+00  0.00000e+00 -1.98388e-01
        20
  0.00000e+00  0.00000e+00 -1.72818e-01
        21
  0.00000e+00  0.00000e+00 -9.14218e-02
        22
  0.00000e+00  0.00000e+00 -1.00599e-01
        23
  0.00000e+00  0.00000e+00  7.07575e-03
        24
  0.00000e+00  0.00000e+00 -1.18483e-02
    -1
    -1
    55                                                                          
Mode 6                                                                          
EMA                                                                             
Acceleration shapes (Uz only)                                                   
LoadCase 1                                                                      
                                                                                
         1         2         2        12         2         3
         2         4         1         6
  3.11496e+01  0.00000e+00  0.00000e+00  0.00000e+00
         1
  0.00000e+00  0.00000e+00  9.57341e-02
         2
  0.00000e+00  0.00000e+00  4.63871e-01
         3
  0.00000e+00  0.00000e+00  2.55656e-01
         4
  0.00000e+00  0.00000e+00  3.20307e-01
         5
  0.00000e+00  0.00000e+00 -9.91585e-02
         6
  0.00000e+00  0.00000e+00 -4.03193e-02
         7
  0.00000e+00  0.00000e+00 -2.13653e-01
         8
  0.00000e+00  0.00000e+00 -1.70706e-01
         9
  0.00000e+00  0.00000e+00 -9.42118e-02
        10
  0.00000e+00  0.00000e+00 -8.01351e-02
        11
  0.00000e+00  0.00000e+00  1.49625e-02
        12
  0.00000e+00  0.00000e+00  2.30110e-02
        13
  0.00000e+00  0.00000e+00 -1.20699e-01
        14
  0.00000e+00  0.00000e+00  5.07969e-01
        15
  0.00000e+00  0.00000e+00  2.07546e-01
        16
  0.00000e+00  0.00000e+00  3.15736e-01
        17
  0.00000e+00  0.00000e+00 -1.19243e-01
        18
  0.00000e+00  0.00000e+00 -2.47603e-02
        19
  0.00000e+00  0.00000e+00 -2.07420e-01
        20
  0.00000e+00  0.00000e+00 -1.30846e-01
        21
  0.00000e+00  0.00000e+00 -1.05152e-01
        22
  0.00000e+00  0.00000e+00 -5.99898e-02
        23
  0.00000e+00  0.00000e+00  8.35444e-03
        24
  0.00000e+00  0.00000e+00  1.83965e-02
    -1
