    -1
    15
         1         0         0         0      7.81760     -4.63530      0.63576
         2         0         0         0      9.70720     -4.63530      0.73676
         3         0         0         0      9.02168     -4.53370      0.69505
         4         0         0         0      9.37747     -4.53370      0.69810
         5         0         0         0      8.56214     -3.82250      0.69839
         6         0         0         0      9.24877     -3.82250      0.69834
         7         0         0         0      8.12068     -3.06050      0.70675
         8         0         0         0      9.10008     -3.06050      0.70036
         9         0         0         0      7.43669     -2.01910      0.71479
        10         0         0         0      8.88655     -1.99370      0.70320
        11         0         0         0      7.48304     -1.08778      0.75700
        12         0         0         0      8.36919     -1.08570      0.73723
        13         0         0         0      7.81760      4.63530      0.63576
        14         0         0         0      9.70720      4.63530      0.73676
        15         0         0         0      9.02168      4.53370      0.69505
        16         0         0         0      9.37747      4.53370      0.69810
        17         0         0         0      8.56214      3.82250      0.69839
        18         0         0         0      9.24877      3.82250      0.69834
        19         0         0         0      8.12068      3.06050      0.70675
        20         0         0         0      9.10008      3.06050      0.70036
        21         0         0         0      7.43669      2.01910      0.71479
        22         0         0         0      8.88655      1.99370      0.70320
        23         0         0         0      7.48304      1.08778      0.75700
        24         0         0         0      8.36919      1.08570      0.73723
    -1
    -1
    55                                                                          
Mode 1                                                                          
EMA                                                                             
Acceleration shapes (Uz only)                                                   
LoadCase 1                                                                      
                                                                                
         1         2         2        12         2         3
         2         4         1         1
  4.58746e+00  0.00000e+00  0.00000e+00  0.00000e+00
         1
  0.00000e+00  0.00000e+00  3.00657e-01
         2
  0.00000e+00  0.00000e+00  4.59279e-01
         3
  0.00000e+00  0.00000e+00  2.21442e-01
         4
  0.00000e+00  0.00000e+00  2.78348e-01
         5
  0.00000e+00  0.00000e+00  8.61064e-02
         6
  0.00000e+00  0.00000e+00  1.38354e-01
         7
  0.00000e+00  0.00000e+00  1.12574e-01
         8
  0.00000e+00  0.00000e+00  1.11600e-01
         9
  0.00000e+00  0.00000e+00  9.34105e-02
        10
  0.00000e+00  0.00000e+00  7.32261e-02
        11
  0.00000e+00  0.00000e+00  2.74978e-02
        12
  0.00000e+00  0.00000e+00  4.28784e-02
        13
  0.00000e+00  0.00000e+00 -3.25051e-01
        14
  0.00000e+00  0.00000e+00 -4.29607e-01
        15
  0.00000e+00  0.00000e+00 -2.06089e-01
        16
  0.00000e+00  0.00000e+00 -2.78011e-01
        17
  0.00000e+00  0.00000e+00 -9.14925e-02
        18
  0.00000e+00  0.00000e+00 -1.48193e-01
        19
  0.00000e+00  0.00000e+00 -1.52435e-01
        20
  0.00000e+00  0.00000e+00 -1.19287e-01
        21
  0.00000e+00  0.00000e+00 -1.24948e-01
        22
  0.00000e+00  0.00000e+00 -8.11982e-02
        23
  0.00000e+00  0.00000e+00 -3.76446e-02
        24
  0.00000e+00  0.00000e+00 -4.88395e-02
    -1
    -1
    55                                                                          
Mode 2                                                                          
EMA                                                                             
Acceleration shapes (Uz only)                                                   
LoadCase 1                                                                      
                                                                                
         1         2         2        12         2         3
         2         4         1         2
  8.86878e+00  0.00000e+00  0.00000e+00  0.00000e+00
         1
  0.00000e+00  0.00000e+00 -4.44248e-01
         2
  0.00000e+00  0.00000e+00 -1.19995e-01
         3
  0.00000e+00  0.00000e+00 -2.55872e-01
         4
  0.00000e+00  0.00000e+00 -2.06059e-01
         5
  0.00000e+00  0.00000e+00 -1.05012e-01
         6
  0.00000e+00  0.00000e+00 -1.38819e-01
         7
  0.00000e+00  0.00000e+00 -2.53325e-02
         8
  0.00000e+00  0.00000e+00 -5.20305e-02
         9
  0.00000e+00  0.00000e+00  9.20872e-03
        10
  0.00000e+00  0.00000e+00 -9.71702e-03
        11
  0.00000e+00  0.00000e+00  1.81768e-02
        12
  0.00000e+00  0.00000e+00  7.76999e-03
        13
  0.00000e+00  0.00000e+00 -5.33497e-01
        14
  0.00000e+00  0.00000e+00 -3.52818e-01
        15
  0.00000e+00  0.00000e+00 -2.63675e-01
        16
  0.00000e+00  0.00000e+00 -2.75028e-01
        17
  0.00000e+00  0.00000e+00 -1.98655e-01
        18
  0.00000e+00  0.00000e+00 -1.54579e-01
        19
  0.00000e+00  0.00000e+00 -1.03732e-01
        20
  0.00000e+00  0.00000e+00 -1.18480e-01
        21
  0.00000e+00  0.00000e+00 -3.37449e-02
        22
  0.00000e+00  0.00000e+00 -5.00022e-02
        23
  0.00000e+00  0.00000e+00  5.33446e-03
        24
  0.00000e+00  0.00000e+00  3.00912e-03
    -1
    -1
    55                                                                          
Mode 3                                                                          
EMA                                                                             
Acceleration shapes (Uz only)                                                   
LoadCase 1                                                                      
                                                                                
         1         2         2        12         2         3
         2         4         1         3
  1.13146e+01  0.00000e+00  0.00000e+00  0.00000e+00
         1
  0.00000e+00  0.00000e+00  6.70831e-01
         2
  0.00000e+00  0.00000e+00  9.70789e-03
         3
  0.00000e+00  0.00000e+00  3.49955e-02
         4
  0.00000e+00  0.00000e+00 -9.70796e-03
         5
  0.00000e+00  0.00000e+00  6.80427e-02
         6
  0.00000e+00  0.00000e+00 -7.95381e-02
         7
  0.00000e+00  0.00000e+00 -1.84720e-03
         8
  0.00000e+00  0.00000e+00 -5.59423e-02
         9
  0.00000e+00  0.00000e+00 -1.62599e-02
        10
  0.00000e+00  0.00000e+00 -4.80301e-02
        11
  0.00000e+00  0.00000e+00 -1.31237e-02
        12
  0.00000e+00  0.00000e+00 -2.44033e-02
        13
  0.00000e+00  0.00000e+00 -7.11106e-01
        14
  0.00000e+00  0.00000e+00 -1.06041e-01
        15
  0.00000e+00  0.00000e+00 -6.70497e-02
        16
  0.00000e+00  0.00000e+00 -4.38263e-02
        17
  0.00000e+00  0.00000e+00 -6.05187e-02
        18
  0.00000e+00  0.00000e+00  4.60080e-02
        19
  0.00000e+00  0.00000e+00  1.76943e-02
        20
  0.00000e+00  0.00000e+00  1.63490e-02
        21
  0.00000e+00  0.00000e+00  2.03767e-02
        22
  0.00000e+00  0.00000e+00  1.53707e-02
        23
  0.00000e+00  0.00000e+00  2.08583e-02
        24
  0.00000e+00  0.00000e+00  1.91427e-02
    -1
    -1
    55                                                                          
Mode 4                                                                          
EMA                                                                             
Acceleration shapes (Uz only)                                                   
LoadCase 1                                                                      
                                                                                
         1         2         2        12         2         3
         2         4         1         4
  1.31345e+01  0.00000e+00  0.00000e+00  0.00000e+00
         1
  0.00000e+00  0.00000e+00 -4.61109e-01
         2
  0.00000e+00  0.00000e+00  3.89279e-01
         3
  0.00000e+00  0.00000e+00  2.46423e-01
         4
  0.00000e+00  0.00000e+00  3.32138e-01
         5
  0.00000e+00  0.00000e+00  4.21647e-02
         6
  0.00000e+00  0.00000e+00  2.40171e-01
         7
  0.00000e+00  0.00000e+00  3.21704e-02
         8
  0.00000e+00  0.00000e+00  1.15627e-01
         9
  0.00000e+00  0.00000e+00 -1.11144e-02
        10
  0.00000e+00  0.00000e+00  4.12214e-02
        11
  0.00000e+00  0.00000e+00 -1.56539e-02
        12
  0.00000e+00  0.00000e+00 -2.65236e-03
        13
  0.00000e+00  0.00000e+00 -3.04572e-01
        14
  0.00000e+00  0.00000e+00  4.21670e-01
        15
  0.00000e+00  0.00000e+00  1.13842e-01
        16
  0.00000e+00  0.00000e+00  2.31299e-01
        17
  0.00000e+00  0.00000e+00  1.37735e-01
        18
  0.00000e+00  0.00000e+00  1.10537e-01
        19
  0.00000e+00  0.00000e+00  5.46537e-02
        20
  0.00000e+00  0.00000e+00  1.08717e-01
        21
  0.00000e+00  0.00000e+00  3.82866e-02
        22
  0.00000e+00  0.00000e+00  6.07170e-02
        23
  0.00000e+00  0.00000e+00  1.83484e-02
        24
  0.00000e+00  0.00000e+00  1.86307e-02
    -1
    -1
    55                                                                          
Mode 5                                                                          
EMA                                                                             
Acceleration shapes (Uz only)                                                   
LoadCase 1                                                                      
                                                                                
         1         2         2        12         2         3
         2         4         1         5
  1.44802e+01  0.00000e+00  0.00000e+00  0.00000e+00
         1
  0.00000e+00  0.00000e+00 -1.96704e-01
         2
  0.00000e+00  0.00000e+00  4.72465e-01
         3
  0.00000e+00  0.00000e+00  2.82270e-01
         4
  0.00000e+00  0.00000e+00  3.65521e-01
         5
  0.00000e+00  0.00000e+00  1.13161e-01
         6
  0.00000e+00  0.00000e+00  1.95506e-01
         7
  0.00000e+00  0.00000e+00  2.46816e-02
         8
  0.00000e+00  0.00000e+00  7.97913e-02
         9
  0.00000e+00  0.00000e+00 -3.23858e-02
        10
  0.00000e+00  0.00000e+00  7.45167e-04
        11
  0.00000e+00  0.00000e+00 -2.99862e-02
        12
  0.00000e+00  0.00000e+00 -2.62245e-02
        13
  0.00000e+00  0.00000e+00  2.30451e-01
        14
  0.00000e+00  0.00000e+00 -4.37922e-01
        15
  0.00000e+00  0.00000e+00 -2.50611e-01
        16
  0.00000e+00  0.00000e+00 -3.32063e-01
        17
  0.00000e+00  0.00000e+00 -9.99503e-02
        18
  0.00000e+00  0.00000e+00 -1.70853e-01
        19
  0.00000e+00  0.00000e+00 -2.16797e-02
        20
  0.00000e+00  0.00000e+00 -6.93379e-02
        21
  0.00000e+00  0.00000e+00  2.64878e-02
        22
  0.00000e+00  0.00000e+00 -3.15819e-03
        23
  0.00000e+00  0.00000e+00  2.32945e-02
        24
  0.00000e+00  0.00000e+00  2.22591e-02
    -1
    -1
    55                                                                          
Mode 6                                                                          
EMA                                                                             
Acceleration shapes (Uz only)                                                   
LoadCase 1                                                                      
                                                                                
         1         2         2        12         2         3
         2         4         1         6
  1.67226e+01  0.00000e+00  0.00000e+00  0.00000e+00
    -1
    -1
    55                                                                          
Mode 7                                                                          
EMA                                                                             
Acceleration shapes (Uz only)                                                   
LoadCase 1                                                                      
                                                                                
         1         2         2        12         2         3
         2         4         1         7
  1.85177e+01  0.00000e+00  0.00000e+00  0.00000e+00
         1
  0.00000e+00  0.00000e+00  2.21842e-01
         2
  0.00000e+00  0.00000e+00  3.42742e-01
         3
  0.00000e+00  0.00000e+00  2.18473e-01
         4
  0.00000e+00  0.00000e+00  2.32122e-01
         5
  0.00000e+00  0.00000e+00 -1.31389e-01
         6
  0.00000e+00  0.00000e+00 -1.60648e-01
         7
  0.00000e+00  0.00000e+00 -2.73418e-01
         8
  0.00000e+00  0.00000e+00 -2.49709e-01
         9
  0.00000e+00  0.00000e+00 -9.11446e-02
        10
  0.00000e+00  0.00000e+00 -1.12292e-01
        11
  0.00000e+00  0.00000e+00 -4.18063e-02
        12
  0.00000e+00  0.00000e+00 -2.34683e-02
        13
  0.00000e+00  0.00000e+00 -1.59942e-01
        14
  0.00000e+00  0.00000e+00 -4.67829e-01
        15
  0.00000e+00  0.00000e+00 -2.13493e-01
        16
  0.00000e+00  0.00000e+00 -2.57024e-01
        17
  0.00000e+00  0.00000e+00  1.68068e-01
        18
  0.00000e+00  0.00000e+00  1.29133e-01
        19
  0.00000e+00  0.00000e+00  2.39568e-01
        20
  0.00000e+00  0.00000e+00  2.22244e-01
        21
  0.00000e+00  0.00000e+00  8.04193e-02
        22
  0.00000e+00  0.00000e+00  1.12495e-01
        23
  0.00000e+00  0.00000e+00  2.24041e-02
        24
  0.00000e+00  0.00000e+00  2.97767e-02
    -1
    -1
    55                                                                          
Mode 8                                                                          
EMA                                                                             
Acceleration shapes (Uz only)                                                   
LoadCase 1                                                                      
                                                                                
         1         2         2        12         2         3
         2         4         1         8
  2.39607e+01  0.00000e+00  0.00000e+00  0.00000e+00
         1
  0.00000e+00  0.00000e+00 -1.41761e-01
         2
  0.00000e+00  0.00000e+00 -3.50650e-01
         3
  0.00000e+00  0.00000e+00 -2.71764e-01
         4
  0.00000e+00  0.00000e+00 -3.01574e-01
         5
  0.00000e+00  0.00000e+00 -1.24362e-01
         6
  0.00000e+00  0.00000e+00  2.13011e-02
         7
  0.00000e+00  0.00000e+00  1.44256e-01
         8
  0.00000e+00  0.00000e+00  1.26098e-01
         9
  0.00000e+00  0.00000e+00  1.09341e-01
        10
  0.00000e+00  0.00000e+00  1.22164e-01
        11
  0.00000e+00  0.00000e+00  3.02745e-02
        12
  0.00000e+00  0.00000e+00  4.75677e-02
        13
  0.00000e+00  0.00000e+00  1.47391e-01
        14
  0.00000e+00  0.00000e+00  5.44120e-01
        15
  0.00000e+00  0.00000e+00  2.70859e-01
        16
  0.00000e+00  0.00000e+00  3.68142e-01
        17
  0.00000e+00  0.00000e+00  3.75275e-02
        18
  0.00000e+00  0.00000e+00 -1.70297e-03
        19
  0.00000e+00  0.00000e+00 -2.10772e-01
        20
  0.00000e+00  0.00000e+00 -9.01795e-02
        21
  0.00000e+00  0.00000e+00 -1.43594e-01
        22
  0.00000e+00  0.00000e+00 -7.80373e-02
        23
  0.00000e+00  0.00000e+00 -3.16310e-02
        24
  0.00000e+00  0.00000e+00 -3.30839e-02
    -1
    -1
    55                                                                          
Mode 9                                                                          
EMA                                                                             
Acceleration shapes (Uz only)                                                   
LoadCase 1                                                                      
                                                                                
         1         2         2        12         2         3
         2         4         1         9
  3.45290e+01  0.00000e+00  0.00000e+00  0.00000e+00
         1
  0.00000e+00  0.00000e+00 -1.24529e-01
         2
  0.00000e+00  0.00000e+00  5.18886e-01
         3
  0.00000e+00  0.00000e+00  2.13474e-01
         4
  0.00000e+00  0.00000e+00  3.21151e-01
         5
  0.00000e+00  0.00000e+00 -1.07955e-01
         6
  0.00000e+00  0.00000e+00 -3.43601e-02
         7
  0.00000e+00  0.00000e+00 -1.82015e-01
         8
  0.00000e+00  0.00000e+00 -1.38185e-01
         9
  0.00000e+00  0.00000e+00 -4.19859e-02
        10
  0.00000e+00  0.00000e+00 -4.52114e-02
        11
  0.00000e+00  0.00000e+00  2.98068e-02
        12
  0.00000e+00  0.00000e+00  2.94284e-02
        13
  0.00000e+00  0.00000e+00  8.22575e-02
        14
  0.00000e+00  0.00000e+00 -5.27374e-01
        15
  0.00000e+00  0.00000e+00 -1.96864e-01
        16
  0.00000e+00  0.00000e+00 -3.10537e-01
        17
  0.00000e+00  0.00000e+00  1.35156e-01
        18
  0.00000e+00  0.00000e+00  3.36012e-02
        19
  0.00000e+00  0.00000e+00  1.91867e-01
        20
  0.00000e+00  0.00000e+00  1.17190e-01
        21
  0.00000e+00  0.00000e+00  5.34840e-02
        22
  0.00000e+00  0.00000e+00  2.75924e-02
        23
  0.00000e+00  0.00000e+00 -3.17825e-02
        24
  0.00000e+00  0.00000e+00 -3.55893e-02
    -1
    -1
    55                                                                          
Mode 10                                                                         
EMA                                                                             
Acceleration shapes (Uz only)                                                   
LoadCase 1                                                                      
                                                                                
         1         2         2        12         2         3
         2         4         1        10
  4.56910e+01  0.00000e+00  0.00000e+00  0.00000e+00
         1
  0.00000e+00  0.00000e+00 -1.48898e-01
         2
  0.00000e+00  0.00000e+00  5.11915e-01
         3
  0.00000e+00  0.00000e+00  1.09910e-01
         4
  0.00000e+00  0.00000e+00  2.16815e-01
         5
  0.00000e+00  0.00000e+00 -1.67933e-01
         6
  0.00000e+00  0.00000e+00 -2.13114e-01
         7
  0.00000e+00  0.00000e+00 -8.60737e-02
         8
  0.00000e+00  0.00000e+00 -2.00761e-01
         9
  0.00000e+00  0.00000e+00  2.08001e-01
        10
  0.00000e+00  0.00000e+00  2.27971e-03
        11
  0.00000e+00  0.00000e+00  9.41998e-02
        12
  0.00000e+00  0.00000e+00  4.62775e-02
        13
  0.00000e+00  0.00000e+00 -2.13660e-01
        14
  0.00000e+00  0.00000e+00 -4.83964e-01
        15
  0.00000e+00  0.00000e+00  1.58367e-03
        16
  0.00000e+00  0.00000e+00 -1.68782e-01
        17
  0.00000e+00  0.00000e+00  2.97625e-01
        18
  0.00000e+00  0.00000e+00 -1.51339e-02
        19
  0.00000e+00  0.00000e+00  1.86469e-01
        20
  0.00000e+00  0.00000e+00 -6.38862e-02
        21
  0.00000e+00  0.00000e+00 -1.05380e-01
        22
  0.00000e+00  0.00000e+00 -1.50209e-01
        23
  0.00000e+00  0.00000e+00 -8.64961e-02
        24
  0.00000e+00  0.00000e+00 -6.23989e-02
    -1
    -1
    55                                                                          
Mode 11                                                                         
EMA                                                                             
Acceleration shapes (Uz only)                                                   
LoadCase 1                                                                      
                                                                                
         1         2         2        12         2         3
         2         4         1        11
  4.99188e+01  0.00000e+00  0.00000e+00  0.00000e+00
         1
  0.00000e+00  0.00000e+00  1.18850e-02
         2
  0.00000e+00  0.00000e+00  4.82706e-01
         3
  0.00000e+00  0.00000e+00  1.63577e-01
         4
  0.00000e+00  0.00000e+00  2.49300e-01
         5
  0.00000e+00  0.00000e+00 -1.78248e-01
         6
  0.00000e+00  0.00000e+00 -2.05849e-01
         7
  0.00000e+00  0.00000e+00 -1.97966e-01
         8
  0.00000e+00  0.00000e+00 -2.01995e-01
         9
  0.00000e+00  0.00000e+00  1.86293e-01
        10
  0.00000e+00  0.00000e+00  1.66663e-02
        11
  0.00000e+00  0.00000e+00  1.34094e-01
        12
  0.00000e+00  0.00000e+00  7.15086e-02
        13
  0.00000e+00  0.00000e+00 -1.03853e-01
        14
  0.00000e+00  0.00000e+00 -4.98651e-01
        15
  0.00000e+00  0.00000e+00 -9.62654e-02
        16
  0.00000e+00  0.00000e+00 -2.28332e-01
        17
  0.00000e+00  0.00000e+00  2.00434e-01
        18
  0.00000e+00  0.00000e+00  1.13843e-01
        19
  0.00000e+00  0.00000e+00  1.79731e-01
        20
  0.00000e+00  0.00000e+00  8.78580e-02
        21
  0.00000e+00  0.00000e+00 -1.52152e-01
        22
  0.00000e+00  0.00000e+00 -6.62898e-02
        23
  0.00000e+00  0.00000e+00 -1.35579e-01
        24
  0.00000e+00  0.00000e+00 -7.61991e-02
    -1
