    -1
    15
         1         0         0         0      7.81760     -4.63530      0.63576
         2         0         0         0      9.70720     -4.63530      0.73676
         3         0         0         0      9.02168     -4.53370      0.69505
         4         0         0         0      9.37747     -4.53370      0.69810
         5         0         0         0      8.56214     -3.82250      0.69839
         6         0         0         0      9.24877     -3.82250      0.69834
         7         0         0         0      8.12068     -3.06050      0.70675
         8         0         0         0      9.10008     -3.06050      0.70036
         9         0         0         0      7.43669     -2.01910      0.71479
        10         0         0         0      8.88655     -1.99370      0.70320
        11         0         0         0      7.48304     -1.08778      0.75700
        12         0         0         0      8.36919     -1.08570      0.73723
        13         0         0         0     12.54050     -2.55219      0.07744
        14         0         0         0     12.83915     -2.43623     -0.02122
        15         0         0         0     11.03013     -1.02766      0.96333
        16         0         0         0     13.00227     -0.87670      0.19341
        17         0         0         0      7.81760      4.63530      0.63576
        18         0         0         0      9.70720      4.63530      0.73676
        19         0         0         0      9.02168      4.53370      0.69505
        20         0         0         0      9.37747      4.53370      0.69810
        21         0         0         0      8.56214      3.82250      0.69839
        22         0         0         0      9.24877      3.82250      0.69834
        23         0         0         0      8.12068      3.06050      0.70675
        24         0         0         0      9.10008      3.06050      0.70036
        25         0         0         0      7.43669      2.01910      0.71479
        26         0         0         0      8.88655      1.99370      0.70320
        27         0         0         0      7.48304      1.08778      0.75700
        28         0         0         0      8.36919      1.08570      0.73723
        29         0         0         0     12.54050      2.55219      0.07744
        30         0         0         0     12.83915      2.43623     -0.02122
        31         0         0         0     11.03013      1.02766      0.96333
        32         0         0         0     13.00227      0.87670      0.19341
        33         0         0         0     11.19392      0.04761      2.07857
        34         0         0         0     11.85028      0.05765      1.81122
        35         0         0         0     12.28934      0.02106      3.57360
        36         0         0         0     12.60714      0.02271      3.57360
    -1
    -1
    55                                                                          
Mode 1                                                                          
EMA                                                                             
Acceleration shapes (Uz only)                                                   
LoadCase 1                                                                      
                                                                                
         1         2         2        12         2         3
         2         4         1         1
  4.58537e+00  0.00000e+00  0.00000e+00  0.00000e+00
         1
  0.00000e+00  0.00000e+00  1.77820e-01
         2
  0.00000e+00  0.00000e+00  5.62389e-01
         3
  0.00000e+00  0.00000e+00  1.66563e-01
         4
  0.00000e+00  0.00000e+00  2.74466e-01
         5
  0.00000e+00  0.00000e+00 -4.36238e-03
         6
  0.00000e+00  0.00000e+00  7.19444e-02
         7
  0.00000e+00  0.00000e+00  1.09583e-01
         8
  0.00000e+00  0.00000e+00  6.29253e-02
         9
  0.00000e+00  0.00000e+00  1.19488e-01
        10
  0.00000e+00  0.00000e+00  6.08306e-02
        11
  0.00000e+00  0.00000e+00  2.50214e-02
        12
  0.00000e+00  0.00000e+00  3.21846e-02
        13
  0.00000e+00  0.00000e+00  6.51349e-02
        14
  0.00000e+00  0.00000e+00  5.75620e-02
        15
  0.00000e+00  0.00000e+00  1.89167e-02
        16
  0.00000e+00  0.00000e+00  2.00931e-04
        17
  0.00000e+00  0.00000e+00 -2.52872e-01
        18
  0.00000e+00  0.00000e+00 -5.14775e-01
        19
  0.00000e+00  0.00000e+00 -1.43852e-01
        20
  0.00000e+00  0.00000e+00 -2.64635e-01
        21
  0.00000e+00  0.00000e+00  1.06280e-02
        22
  0.00000e+00  0.00000e+00 -1.11185e-01
        23
  0.00000e+00  0.00000e+00 -1.21183e-01
        24
  0.00000e+00  0.00000e+00 -1.07822e-01
        25
  0.00000e+00  0.00000e+00 -1.32156e-01
        26
  0.00000e+00  0.00000e+00 -8.95585e-02
        27
  0.00000e+00  0.00000e+00 -2.72189e-02
        28
  0.00000e+00  0.00000e+00 -3.67521e-02
        29
  0.00000e+00  0.00000e+00 -6.48846e-02
        30
  0.00000e+00  0.00000e+00 -5.48044e-02
        31
  0.00000e+00  0.00000e+00 -1.49915e-02
        32
  0.00000e+00  0.00000e+00 -2.75141e-02
        33
  0.00000e+00  0.00000e+00 -1.07025e-02
        34
  0.00000e+00  0.00000e+00 -1.52141e-02
        35
  0.00000e+00  0.00000e+00 -5.98938e-02
        36
  0.00000e+00  0.00000e+00 -4.63890e-02
    -1
    -1
    55                                                                          
Mode 2                                                                          
EMA                                                                             
Acceleration shapes (Uz only)                                                   
LoadCase 1                                                                      
                                                                                
         1         2         2        12         2         3
         2         4         1         2
  8.87347e+00  0.00000e+00  0.00000e+00  0.00000e+00
         1
  0.00000e+00  0.00000e+00  4.24748e-01
         2
  0.00000e+00  0.00000e+00  1.64105e-01
         3
  0.00000e+00  0.00000e+00  2.67310e-01
         4
  0.00000e+00  0.00000e+00  2.29829e-01
         5
  0.00000e+00  0.00000e+00  1.04898e-01
         6
  0.00000e+00  0.00000e+00  1.45868e-01
         7
  0.00000e+00  0.00000e+00  2.41616e-02
         8
  0.00000e+00  0.00000e+00  5.63757e-02
         9
  0.00000e+00  0.00000e+00 -2.46591e-03
        10
  0.00000e+00  0.00000e+00  1.38185e-02
        11
  0.00000e+00  0.00000e+00 -1.38062e-02
        12
  0.00000e+00  0.00000e+00 -6.23962e-03
        13
  0.00000e+00  0.00000e+00 -6.31844e-02
        14
  0.00000e+00  0.00000e+00 -6.28647e-02
        15
  0.00000e+00  0.00000e+00 -1.57794e-02
        16
  0.00000e+00  0.00000e+00 -4.17971e-02
        17
  0.00000e+00  0.00000e+00  5.41892e-01
        18
  0.00000e+00  0.00000e+00  3.19971e-01
        19
  0.00000e+00  0.00000e+00  2.59214e-01
        20
  0.00000e+00  0.00000e+00  2.58578e-01
        21
  0.00000e+00  0.00000e+00  2.01994e-01
        22
  0.00000e+00  0.00000e+00  1.44854e-01
        23
  0.00000e+00  0.00000e+00  1.07916e-01
        24
  0.00000e+00  0.00000e+00  1.08250e-01
        25
  0.00000e+00  0.00000e+00  3.02043e-02
        26
  0.00000e+00  0.00000e+00  4.16896e-02
        27
  0.00000e+00  0.00000e+00 -8.79059e-03
        28
  0.00000e+00  0.00000e+00 -5.09780e-03
        29
  0.00000e+00  0.00000e+00 -1.12269e-02
        30
  0.00000e+00  0.00000e+00 -1.08178e-02
        31
  0.00000e+00  0.00000e+00 -8.68190e-03
        32
  0.00000e+00  0.00000e+00 -2.41632e-02
        33
  0.00000e+00  0.00000e+00  2.21270e-02
        34
  0.00000e+00  0.00000e+00  1.10486e-02
        35
  0.00000e+00  0.00000e+00  3.74905e-02
        36
  0.00000e+00  0.00000e+00  3.26963e-02
    -1
    -1
    55                                                                          
Mode 3                                                                          
EMA                                                                             
Acceleration shapes (Uz only)                                                   
LoadCase 1                                                                      
                                                                                
         1         2         2        12         2         3
         2         4         1         3
  1.13168e+01  0.00000e+00  0.00000e+00  0.00000e+00
         1
  0.00000e+00  0.00000e+00 -6.78656e-01
         2
  0.00000e+00  0.00000e+00  4.24808e-02
         3
  0.00000e+00  0.00000e+00 -1.82337e-02
         4
  0.00000e+00  0.00000e+00  3.71658e-02
         5
  0.00000e+00  0.00000e+00 -6.53143e-02
         6
  0.00000e+00  0.00000e+00  7.98547e-02
         7
  0.00000e+00  0.00000e+00  1.07817e-02
         8
  0.00000e+00  0.00000e+00  5.32943e-02
         9
  0.00000e+00  0.00000e+00  2.87367e-02
        10
  0.00000e+00  0.00000e+00  4.77235e-02
        11
  0.00000e+00  0.00000e+00  1.32556e-02
        12
  0.00000e+00  0.00000e+00  2.24997e-02
        13
  0.00000e+00  0.00000e+00  3.42460e-02
        14
  0.00000e+00  0.00000e+00  2.54673e-02
        15
  0.00000e+00  0.00000e+00  2.08370e-02
        16
  0.00000e+00  0.00000e+00  1.30324e-02
        17
  0.00000e+00  0.00000e+00  6.90660e-01
        18
  0.00000e+00  0.00000e+00  5.22545e-02
        19
  0.00000e+00  0.00000e+00  5.29988e-02
        20
  0.00000e+00  0.00000e+00  1.59645e-02
        21
  0.00000e+00  0.00000e+00  6.68989e-02
        22
  0.00000e+00  0.00000e+00 -5.84557e-02
        23
  0.00000e+00  0.00000e+00 -1.69193e-02
        24
  0.00000e+00  0.00000e+00 -2.75998e-02
        25
  0.00000e+00  0.00000e+00 -2.67435e-02
        26
  0.00000e+00  0.00000e+00 -2.42003e-02
        27
  0.00000e+00  0.00000e+00 -2.08562e-02
        28
  0.00000e+00  0.00000e+00 -1.87701e-02
        29
  0.00000e+00  0.00000e+00 -5.27158e-02
        30
  0.00000e+00  0.00000e+00 -4.40857e-02
        31
  0.00000e+00  0.00000e+00 -1.63371e-02
        32
  0.00000e+00  0.00000e+00 -3.47919e-02
        33
  0.00000e+00  0.00000e+00 -2.23700e-02
        34
  0.00000e+00  0.00000e+00 -2.37429e-02
        35
  0.00000e+00  0.00000e+00 -8.40986e-02
        36
  0.00000e+00  0.00000e+00 -8.90354e-02
    -1
    -1
    55                                                                          
Mode 4                                                                          
EMA                                                                             
Acceleration shapes (Uz only)                                                   
LoadCase 1                                                                      
                                                                                
         1         2         2        12         2         3
         2         4         1         4
  1.31339e+01  0.00000e+00  0.00000e+00  0.00000e+00
         1
  0.00000e+00  0.00000e+00  4.85261e-01
         2
  0.00000e+00  0.00000e+00 -4.54054e-01
         3
  0.00000e+00  0.00000e+00 -2.57170e-01
         4
  0.00000e+00  0.00000e+00 -3.58944e-01
         5
  0.00000e+00  0.00000e+00 -4.03310e-02
         6
  0.00000e+00  0.00000e+00 -2.26872e-01
         7
  0.00000e+00  0.00000e+00 -3.69771e-02
         8
  0.00000e+00  0.00000e+00 -1.03718e-01
         9
  0.00000e+00  0.00000e+00 -6.94226e-03
        10
  0.00000e+00  0.00000e+00 -3.90624e-02
        11
  0.00000e+00  0.00000e+00  1.33038e-02
        12
  0.00000e+00  0.00000e+00  3.68377e-03
        13
  0.00000e+00  0.00000e+00  1.25394e-01
        14
  0.00000e+00  0.00000e+00  1.28001e-01
        15
  0.00000e+00  0.00000e+00  2.13409e-02
        16
  0.00000e+00  0.00000e+00  5.85850e-02
        17
  0.00000e+00  0.00000e+00  2.33683e-01
        18
  0.00000e+00  0.00000e+00 -2.79218e-01
        19
  0.00000e+00  0.00000e+00 -7.53727e-02
        20
  0.00000e+00  0.00000e+00 -1.52608e-01
        21
  0.00000e+00  0.00000e+00 -1.35137e-01
        22
  0.00000e+00  0.00000e+00 -7.46630e-02
        23
  0.00000e+00  0.00000e+00 -5.26575e-02
        24
  0.00000e+00  0.00000e+00 -8.08164e-02
        25
  0.00000e+00  0.00000e+00 -2.50052e-02
        26
  0.00000e+00  0.00000e+00 -4.14927e-02
        27
  0.00000e+00  0.00000e+00 -1.46870e-02
        28
  0.00000e+00  0.00000e+00 -1.60394e-02
        29
  0.00000e+00  0.00000e+00 -3.69903e-02
        30
  0.00000e+00  0.00000e+00 -3.79083e-02
        31
  0.00000e+00  0.00000e+00 -7.64758e-03
        32
  0.00000e+00  0.00000e+00  1.50572e-02
        33
  0.00000e+00  0.00000e+00 -4.57692e-02
        34
  0.00000e+00  0.00000e+00 -3.35983e-02
        35
  0.00000e+00  0.00000e+00 -1.61760e-01
        36
  0.00000e+00  0.00000e+00 -1.74400e-01
    -1
    -1
    55                                                                          
Mode 5                                                                          
EMA                                                                             
Acceleration shapes (Uz only)                                                   
LoadCase 1                                                                      
                                                                                
         1         2         2        12         2         3
         2         4         1         5
  1.44594e+01  0.00000e+00  0.00000e+00  0.00000e+00
         1
  0.00000e+00  0.00000e+00 -1.59911e-01
         2
  0.00000e+00  0.00000e+00  3.76516e-01
         3
  0.00000e+00  0.00000e+00  2.22939e-01
         4
  0.00000e+00  0.00000e+00  2.89885e-01
         5
  0.00000e+00  0.00000e+00  8.78852e-02
         6
  0.00000e+00  0.00000e+00  1.53993e-01
         7
  0.00000e+00  0.00000e+00  2.02363e-02
         8
  0.00000e+00  0.00000e+00  6.27160e-02
         9
  0.00000e+00  0.00000e+00 -2.36622e-02
        10
  0.00000e+00  0.00000e+00  1.09267e-03
        11
  0.00000e+00  0.00000e+00 -2.32344e-02
        12
  0.00000e+00  0.00000e+00 -2.04889e-02
        13
  0.00000e+00  0.00000e+00 -1.09716e-01
        14
  0.00000e+00  0.00000e+00 -1.06007e-01
        15
  0.00000e+00  0.00000e+00 -2.18246e-02
        16
  0.00000e+00  0.00000e+00 -3.81279e-02
        17
  0.00000e+00  0.00000e+00  1.83232e-01
        18
  0.00000e+00  0.00000e+00 -3.48596e-01
        19
  0.00000e+00  0.00000e+00 -1.97651e-01
        20
  0.00000e+00  0.00000e+00 -2.63284e-01
        21
  0.00000e+00  0.00000e+00 -7.67945e-02
        22
  0.00000e+00  0.00000e+00 -1.35971e-01
        23
  0.00000e+00  0.00000e+00 -1.69990e-02
        24
  0.00000e+00  0.00000e+00 -5.59216e-02
        25
  0.00000e+00  0.00000e+00  1.98021e-02
        26
  0.00000e+00  0.00000e+00 -3.74647e-03
        27
  0.00000e+00  0.00000e+00  1.80467e-02
        28
  0.00000e+00  0.00000e+00  1.73182e-02
        29
  0.00000e+00  0.00000e+00  1.23959e-01
        30
  0.00000e+00  0.00000e+00  1.23045e-01
        31
  0.00000e+00  0.00000e+00  2.37927e-02
        32
  0.00000e+00  0.00000e+00  5.00405e-02
        33
  0.00000e+00  0.00000e+00  7.48714e-02
        34
  0.00000e+00  0.00000e+00  6.60348e-02
        35
  0.00000e+00  0.00000e+00  3.69282e-01
        36
  0.00000e+00  0.00000e+00  4.05217e-01
    -1
    -1
    55                                                                          
Mode 6                                                                          
EMA                                                                             
Acceleration shapes (Uz only)                                                   
LoadCase 1                                                                      
                                                                                
         1         2         2        12         2         3
         2         4         1         6
  1.66323e+01  0.00000e+00  0.00000e+00  0.00000e+00
         1
  0.00000e+00  0.00000e+00 -5.27388e-02
         2
  0.00000e+00  0.00000e+00  1.73398e-01
         3
  0.00000e+00  0.00000e+00  9.48781e-02
         4
  0.00000e+00  0.00000e+00  1.33008e-01
         5
  0.00000e+00  0.00000e+00 -5.90639e-02
         6
  0.00000e+00  0.00000e+00  4.89960e-02
         7
  0.00000e+00  0.00000e+00 -3.47257e-02
         8
  0.00000e+00  0.00000e+00 -8.30975e-03
         9
  0.00000e+00  0.00000e+00 -2.72299e-02
        10
  0.00000e+00  0.00000e+00 -1.02594e-02
        11
  0.00000e+00  0.00000e+00 -2.64643e-02
        12
  0.00000e+00  0.00000e+00 -1.65683e-02
        13
  0.00000e+00  0.00000e+00 -1.25601e-01
        14
  0.00000e+00  0.00000e+00 -1.16414e-01
        15
  0.00000e+00  0.00000e+00  1.33364e-03
        16
  0.00000e+00  0.00000e+00 -4.35035e-02
        17
  0.00000e+00  0.00000e+00  3.14728e-02
        18
  0.00000e+00  0.00000e+00 -1.35015e-01
        19
  0.00000e+00  0.00000e+00 -9.39875e-02
        20
  0.00000e+00  0.00000e+00 -1.18348e-01
        21
  0.00000e+00  0.00000e+00  5.14960e-02
        22
  0.00000e+00  0.00000e+00 -5.03637e-02
        23
  0.00000e+00  0.00000e+00  2.82746e-02
        24
  0.00000e+00  0.00000e+00  9.10024e-03
        25
  0.00000e+00  0.00000e+00  3.08199e-02
        26
  0.00000e+00  0.00000e+00  1.93400e-02
        27
  0.00000e+00  0.00000e+00  2.47065e-02
        28
  0.00000e+00  0.00000e+00  2.07588e-02
        29
  0.00000e+00  0.00000e+00  9.64102e-02
        30
  0.00000e+00  0.00000e+00  9.34775e-02
        31
  0.00000e+00  0.00000e+00 -4.62238e-05
        32
  0.00000e+00  0.00000e+00  2.53100e-02
        33
  0.00000e+00  0.00000e+00 -6.20297e-02
        34
  0.00000e+00  0.00000e+00 -7.88172e-02
        35
  0.00000e+00  0.00000e+00 -5.97197e-01
        36
  0.00000e+00  0.00000e+00 -6.81453e-01
    -1
    -1
    55                                                                          
Mode 7                                                                          
EMA                                                                             
Acceleration shapes (Uz only)                                                   
LoadCase 1                                                                      
                                                                                
         1         2         2        12         2         3
         2         4         1         7
  1.85167e+01  0.00000e+00  0.00000e+00  0.00000e+00
         1
  0.00000e+00  0.00000e+00  1.07214e-02
         2
  0.00000e+00  0.00000e+00  2.18945e-01
         3
  0.00000e+00  0.00000e+00  8.55209e-02
         4
  0.00000e+00  0.00000e+00  1.26863e-01
         5
  0.00000e+00  0.00000e+00 -1.97652e-01
         6
  0.00000e+00  0.00000e+00 -5.45093e-02
         7
  0.00000e+00  0.00000e+00 -1.60365e-01
         8
  0.00000e+00  0.00000e+00 -1.09956e-01
         9
  0.00000e+00  0.00000e+00 -2.55627e-02
        10
  0.00000e+00  0.00000e+00 -2.67785e-02
        11
  0.00000e+00  0.00000e+00 -1.22447e-02
        12
  0.00000e+00  0.00000e+00 -4.15614e-03
        13
  0.00000e+00  0.00000e+00 -1.04514e-01
        14
  0.00000e+00  0.00000e+00 -9.75117e-02
        15
  0.00000e+00  0.00000e+00 -4.01800e-03
        16
  0.00000e+00  0.00000e+00 -2.52670e-02
        17
  0.00000e+00  0.00000e+00 -3.74813e-02
        18
  0.00000e+00  0.00000e+00 -1.63075e-01
        19
  0.00000e+00  0.00000e+00 -7.27186e-02
        20
  0.00000e+00  0.00000e+00 -9.43943e-02
        21
  0.00000e+00  0.00000e+00  1.81396e-01
        22
  0.00000e+00  0.00000e+00  2.87531e-02
        23
  0.00000e+00  0.00000e+00  1.21243e-01
        24
  0.00000e+00  0.00000e+00  8.97673e-02
        25
  0.00000e+00  0.00000e+00  2.33937e-02
        26
  0.00000e+00  0.00000e+00  3.41665e-02
        27
  0.00000e+00  0.00000e+00  4.44285e-03
        28
  0.00000e+00  0.00000e+00  1.21810e-02
        29
  0.00000e+00  0.00000e+00  3.81175e-02
        30
  0.00000e+00  0.00000e+00  3.36075e-02
        31
  0.00000e+00  0.00000e+00  2.84052e-02
        32
  0.00000e+00  0.00000e+00 -9.59452e-03
        33
  0.00000e+00  0.00000e+00  8.52307e-04
        34
  0.00000e+00  0.00000e+00  8.42427e-03
        35
  0.00000e+00  0.00000e+00 -5.51224e-01
        36
  0.00000e+00  0.00000e+00 -6.46607e-01
    -1
    -1
    55                                                                          
Mode 8                                                                          
EMA                                                                             
Acceleration shapes (Uz only)                                                   
LoadCase 1                                                                      
                                                                                
         1         2         2        12         2         3
         2         4         1         8
  2.39687e+01  0.00000e+00  0.00000e+00  0.00000e+00
         1
  0.00000e+00  0.00000e+00 -9.91592e-02
         2
  0.00000e+00  0.00000e+00 -8.77459e-02
         3
  0.00000e+00  0.00000e+00 -9.75294e-02
         4
  0.00000e+00  0.00000e+00 -9.70233e-02
         5
  0.00000e+00  0.00000e+00 -4.70940e-02
         6
  0.00000e+00  0.00000e+00 -7.87252e-03
         7
  0.00000e+00  0.00000e+00  6.18932e-02
         8
  0.00000e+00  0.00000e+00  3.42906e-02
         9
  0.00000e+00  0.00000e+00  6.09556e-02
        10
  0.00000e+00  0.00000e+00  4.39018e-02
        11
  0.00000e+00  0.00000e+00  1.44294e-02
        12
  0.00000e+00  0.00000e+00  1.80320e-02
        13
  0.00000e+00  0.00000e+00 -4.79634e-01
        14
  0.00000e+00  0.00000e+00 -4.93966e-01
        15
  0.00000e+00  0.00000e+00  5.88839e-02
        16
  0.00000e+00  0.00000e+00 -1.69543e-01
        17
  0.00000e+00  0.00000e+00  6.26587e-02
        18
  0.00000e+00  0.00000e+00  1.46155e-01
        19
  0.00000e+00  0.00000e+00  9.98799e-02
        20
  0.00000e+00  0.00000e+00  1.16828e-01
        21
  0.00000e+00  0.00000e+00  3.29895e-02
        22
  0.00000e+00  0.00000e+00 -1.69585e-03
        23
  0.00000e+00  0.00000e+00 -6.96384e-02
        24
  0.00000e+00  0.00000e+00 -3.91874e-02
        25
  0.00000e+00  0.00000e+00 -6.38637e-02
        26
  0.00000e+00  0.00000e+00 -3.97719e-02
        27
  0.00000e+00  0.00000e+00 -1.55197e-02
        28
  0.00000e+00  0.00000e+00 -1.52929e-02
        29
  0.00000e+00  0.00000e+00  4.08238e-01
        30
  0.00000e+00  0.00000e+00  4.34123e-01
        31
  0.00000e+00  0.00000e+00 -5.53005e-02
        32
  0.00000e+00  0.00000e+00  1.50095e-01
        33
  0.00000e+00  0.00000e+00 -5.08567e-04
        34
  0.00000e+00  0.00000e+00 -3.18442e-03
        35
  0.00000e+00  0.00000e+00  1.22519e-02
        36
  0.00000e+00  0.00000e+00  2.06011e-02
    -1
    -1
    55                                                                          
Mode 9                                                                          
EMA                                                                             
Acceleration shapes (Uz only)                                                   
LoadCase 1                                                                      
                                                                                
         1         2         2        12         2         3
         2         4         1         9
  2.71375e+01  0.00000e+00  0.00000e+00  0.00000e+00
         1
  0.00000e+00  0.00000e+00 -4.31211e-01
         2
  0.00000e+00  0.00000e+00  2.64927e-02
         3
  0.00000e+00  0.00000e+00 -1.52231e-01
         4
  0.00000e+00  0.00000e+00 -5.43237e-02
         5
  0.00000e+00  0.00000e+00 -9.43870e-02
         6
  0.00000e+00  0.00000e+00  8.91795e-02
         7
  0.00000e+00  0.00000e+00  1.37733e-01
         8
  0.00000e+00  0.00000e+00  1.25209e-01
         9
  0.00000e+00  0.00000e+00  8.81093e-02
        10
  0.00000e+00  0.00000e+00  7.77977e-02
        11
  0.00000e+00  0.00000e+00 -3.22491e-03
        12
  0.00000e+00  0.00000e+00  3.49223e-03
        13
  0.00000e+00  0.00000e+00 -2.90057e-01
        14
  0.00000e+00  0.00000e+00 -3.20361e-01
        15
  0.00000e+00  0.00000e+00 -3.40965e-02
        16
  0.00000e+00  0.00000e+00 -1.03277e-02
        17
  0.00000e+00  0.00000e+00  2.30571e-01
        18
  0.00000e+00  0.00000e+00  1.52763e-01
        19
  0.00000e+00  0.00000e+00  1.57153e-01
        20
  0.00000e+00  0.00000e+00  1.24258e-01
        21
  0.00000e+00  0.00000e+00  6.26721e-02
        22
  0.00000e+00  0.00000e+00 -8.07706e-02
        23
  0.00000e+00  0.00000e+00 -1.46333e-01
        24
  0.00000e+00  0.00000e+00 -1.16693e-01
        25
  0.00000e+00  0.00000e+00 -9.49827e-02
        26
  0.00000e+00  0.00000e+00 -7.05796e-02
        27
  0.00000e+00  0.00000e+00  3.29761e-03
        28
  0.00000e+00  0.00000e+00  1.43113e-03
        29
  0.00000e+00  0.00000e+00  3.70389e-01
        30
  0.00000e+00  0.00000e+00  4.03042e-01
        31
  0.00000e+00  0.00000e+00  3.05038e-02
        32
  0.00000e+00  0.00000e+00  2.41982e-02
        33
  0.00000e+00  0.00000e+00  3.81535e-02
        34
  0.00000e+00  0.00000e+00  6.51613e-02
        35
  0.00000e+00  0.00000e+00 -1.52576e-01
        36
  0.00000e+00  0.00000e+00 -1.66090e-01
    -1
    -1
    55                                                                          
Mode 10                                                                         
EMA                                                                             
Acceleration shapes (Uz only)                                                   
LoadCase 1                                                                      
                                                                                
         1         2         2        12         2         3
         2         4         1        10
  3.45540e+01  0.00000e+00  0.00000e+00  0.00000e+00
         1
  0.00000e+00  0.00000e+00  1.04504e-01
         2
  0.00000e+00  0.00000e+00 -3.72464e-01
         3
  0.00000e+00  0.00000e+00 -1.56503e-01
         4
  0.00000e+00  0.00000e+00 -2.35861e-01
         5
  0.00000e+00  0.00000e+00  7.09505e-02
         6
  0.00000e+00  0.00000e+00  6.42378e-03
         7
  0.00000e+00  0.00000e+00  1.30568e-01
         8
  0.00000e+00  0.00000e+00  8.84078e-02
         9
  0.00000e+00  0.00000e+00  4.68491e-02
        10
  0.00000e+00  0.00000e+00  3.37330e-02
        11
  0.00000e+00  0.00000e+00 -1.52889e-02
        12
  0.00000e+00  0.00000e+00 -1.89184e-02
        13
  0.00000e+00  0.00000e+00  2.88139e-01
        14
  0.00000e+00  0.00000e+00  3.26808e-01
        15
  0.00000e+00  0.00000e+00 -6.08448e-02
        16
  0.00000e+00  0.00000e+00  4.70696e-02
        17
  0.00000e+00  0.00000e+00 -9.01472e-02
        18
  0.00000e+00  0.00000e+00  3.79975e-01
        19
  0.00000e+00  0.00000e+00  1.51592e-01
        20
  0.00000e+00  0.00000e+00  2.31235e-01
        21
  0.00000e+00  0.00000e+00 -8.54036e-02
        22
  0.00000e+00  0.00000e+00 -2.03531e-02
        23
  0.00000e+00  0.00000e+00 -1.34755e-01
        24
  0.00000e+00  0.00000e+00 -8.94656e-02
        25
  0.00000e+00  0.00000e+00 -5.03504e-02
        26
  0.00000e+00  0.00000e+00 -2.90639e-02
        27
  0.00000e+00  0.00000e+00  1.71569e-02
        28
  0.00000e+00  0.00000e+00  2.30686e-02
        29
  0.00000e+00  0.00000e+00 -3.29217e-01
        30
  0.00000e+00  0.00000e+00 -3.78517e-01
        31
  0.00000e+00  0.00000e+00  7.89100e-02
        32
  0.00000e+00  0.00000e+00 -6.71051e-02
        33
  0.00000e+00  0.00000e+00  5.29363e-02
        34
  0.00000e+00  0.00000e+00  2.86528e-02
        35
  0.00000e+00  0.00000e+00 -3.17971e-02
        36
  0.00000e+00  0.00000e+00 -8.09946e-02
    -1
