    -1
    15
         1         0         0         0      7.81760     -4.63530      0.63576
         2         0         0         0      9.02168     -4.53370      0.69505
         3         0         0         0      9.37747     -4.53370      0.69810
         4         0         0         0      8.56214     -3.82250      0.69839
         5         0         0         0      9.24877     -3.82250      0.69834
         6         0         0         0      8.12068     -3.06050      0.70675
         7         0         0         0      9.10008     -3.06050      0.70036
         8         0         0         0      7.43669     -2.01910      0.71479
         9         0         0         0      8.88655     -1.99370      0.70320
        10         0         0         0      7.48304     -1.08778      0.75700
        11         0         0         0      8.36919     -1.08570      0.73723
        12         0         0         0      7.81760      4.63530      0.63576
        13         0         0         0      9.02168      4.53370      0.69505
        14         0         0         0      9.37747      4.53370      0.69810
        15         0         0         0      8.56214      3.82250      0.69839
        16         0         0         0      9.24877      3.82250      0.69834
        17         0         0         0      8.12068      3.06050      0.70675
        18         0         0         0      9.10008      3.06050      0.70036
        19         0         0         0      7.43669      2.01910      0.71479
        20         0         0         0      8.88655      1.99370      0.70320
        21         0         0         0      7.48304      1.08778      0.75700
        22         0         0         0      8.36919      1.08570      0.73723
    -1
    -1
    55                                                                          
Mode 1                                                                          
EMA                                                                             
Acceleration shapes (Uz only)                                                   
LoadCase 1                                                                      
                                                                                
         1         2         2        12         2         3
         2         4         1         1
  8.84595e+00  0.00000e+00  0.00000e+00  0.00000e+00
         1
  0.00000e+00  0.00000e+00 -5.42916e-01
         2
  0.00000e+00  0.00000e+00 -2.99677e-01
         3
  0.00000e+00  0.00000e+00 -2.80311e-01
         4
  0.00000e+00  0.00000e+00 -1.69530e-01
         5
  0.00000e+00  0.00000e+00 -1.68990e-01
         6
  0.00000e+00  0.00000e+00 -8.52903e-02
         7
  0.00000e+00  0.00000e+00 -8.87109e-02
         8
  0.00000e+00  0.00000e+00 -1.89823e-02
         9
  0.00000e+00  0.00000e+00 -2.23148e-02
        10
  0.00000e+00  0.00000e+00  8.56257e-03
        11
  0.00000e+00  0.00000e+00  8.24248e-03
        12
  0.00000e+00  0.00000e+00 -5.03307e-01
        13
  0.00000e+00  0.00000e+00 -2.78648e-01
        14
  0.00000e+00  0.00000e+00 -2.60791e-01
        15
  0.00000e+00  0.00000e+00 -1.58219e-01
        16
  0.00000e+00  0.00000e+00 -1.56144e-01
        17
  0.00000e+00  0.00000e+00 -8.01595e-02
        18
  0.00000e+00  0.00000e+00 -8.57823e-02
        19
  0.00000e+00  0.00000e+00 -2.01586e-02
        20
  0.00000e+00  0.00000e+00 -2.70546e-02
        21
  0.00000e+00  0.00000e+00  7.10143e-03
        22
  0.00000e+00  0.00000e+00  7.62478e-03
    -1
    -1
    55                                                                          
Mode 2                                                                          
EMA                                                                             
Acceleration shapes (Uz only)                                                   
LoadCase 1                                                                      
                                                                                
         1         2         2        12         2         3
         2         4         1         2
  1.31219e+01  0.00000e+00  0.00000e+00  0.00000e+00
         1
  0.00000e+00  0.00000e+00 -5.18173e-01
         2
  0.00000e+00  0.00000e+00  2.17396e-01
         3
  0.00000e+00  0.00000e+00  3.12691e-01
         4
  0.00000e+00  0.00000e+00  1.36005e-01
         5
  0.00000e+00  0.00000e+00  2.20808e-01
         6
  0.00000e+00  0.00000e+00  6.81921e-02
         7
  0.00000e+00  0.00000e+00  1.25935e-01
         8
  0.00000e+00  0.00000e+00  1.28912e-02
         9
  0.00000e+00  0.00000e+00  4.24625e-02
        10
  0.00000e+00  0.00000e+00  7.73614e-03
        11
  0.00000e+00  0.00000e+00  7.47280e-03
        12
  0.00000e+00  0.00000e+00 -5.03459e-01
        13
  0.00000e+00  0.00000e+00  2.30897e-01
        14
  0.00000e+00  0.00000e+00  3.24562e-01
        15
  0.00000e+00  0.00000e+00  1.39940e-01
        16
  0.00000e+00  0.00000e+00  2.11925e-01
        17
  0.00000e+00  0.00000e+00  6.44982e-02
        18
  0.00000e+00  0.00000e+00  1.18183e-01
        19
  0.00000e+00  0.00000e+00  1.09838e-02
        20
  0.00000e+00  0.00000e+00  4.12400e-02
        21
  0.00000e+00  0.00000e+00  4.79133e-03
        22
  0.00000e+00  0.00000e+00  4.43347e-03
    -1
    -1
    55                                                                          
Mode 3                                                                          
EMA                                                                             
Acceleration shapes (Uz only)                                                   
LoadCase 1                                                                      
                                                                                
         1         2         2        12         2         3
         2         4         1         3
  1.45001e+01  0.00000e+00  0.00000e+00  0.00000e+00
         1
  0.00000e+00  0.00000e+00  9.84692e-02
         2
  0.00000e+00  0.00000e+00  8.41325e-02
         3
  0.00000e+00  0.00000e+00  2.19254e-01
         4
  0.00000e+00  0.00000e+00 -2.27169e-01
         5
  0.00000e+00  0.00000e+00 -4.48269e-02
         6
  0.00000e+00  0.00000e+00  1.39873e-02
         7
  0.00000e+00  0.00000e+00 -3.12424e-02
         8
  0.00000e+00  0.00000e+00  7.21649e-02
         9
  0.00000e+00  0.00000e+00  2.84526e-02
        10
  0.00000e+00  0.00000e+00 -2.88358e-02
        11
  0.00000e+00  0.00000e+00 -2.72678e-02
        12
  0.00000e+00  0.00000e+00  5.96987e-01
        13
  0.00000e+00  0.00000e+00 -3.59725e-01
        14
  0.00000e+00  0.00000e+00 -3.78920e-01
        15
  0.00000e+00  0.00000e+00 -3.76008e-01
        16
  0.00000e+00  0.00000e+00 -2.67954e-01
        17
  0.00000e+00  0.00000e+00 -5.23867e-03
        18
  0.00000e+00  0.00000e+00 -9.46903e-02
        19
  0.00000e+00  0.00000e+00  1.35830e-01
        20
  0.00000e+00  0.00000e+00  4.21811e-02
        21
  0.00000e+00  0.00000e+00  2.30894e-02
        22
  0.00000e+00  0.00000e+00  2.14683e-02
    -1
    -1
    55                                                                          
Mode 4                                                                          
EMA                                                                             
Acceleration shapes (Uz only)                                                   
LoadCase 1                                                                      
                                                                                
         1         2         2        12         2         3
         2         4         1         4
  1.50584e+01  0.00000e+00  0.00000e+00  0.00000e+00
         1
  0.00000e+00  0.00000e+00 -1.52299e-02
         2
  0.00000e+00  0.00000e+00  1.28786e-01
         3
  0.00000e+00  0.00000e+00  4.94360e-01
         4
  0.00000e+00  0.00000e+00 -3.89326e-01
         5
  0.00000e+00  0.00000e+00 -1.45655e-01
         6
  0.00000e+00  0.00000e+00  3.72162e-02
         7
  0.00000e+00  0.00000e+00 -6.04068e-02
         8
  0.00000e+00  0.00000e+00  1.54658e-01
         9
  0.00000e+00  0.00000e+00  4.40335e-02
        10
  0.00000e+00  0.00000e+00 -9.62599e-02
        11
  0.00000e+00  0.00000e+00 -7.51349e-02
        12
  0.00000e+00  0.00000e+00  1.68487e-01
        13
  0.00000e+00  0.00000e+00  1.34969e-01
        14
  0.00000e+00  0.00000e+00  5.55269e-01
        15
  0.00000e+00  0.00000e+00 -3.51729e-01
        16
  0.00000e+00  0.00000e+00  2.82793e-02
        17
  0.00000e+00  0.00000e+00  1.48896e-02
        18
  0.00000e+00  0.00000e+00  5.48189e-02
        19
  0.00000e+00  0.00000e+00  1.16422e-01
        20
  0.00000e+00  0.00000e+00  6.87642e-02
        21
  0.00000e+00  0.00000e+00 -1.09275e-01
        22
  0.00000e+00  0.00000e+00 -8.54697e-02
    -1
    -1
    55                                                                          
Mode 5                                                                          
EMA                                                                             
Acceleration shapes (Uz only)                                                   
LoadCase 1                                                                      
                                                                                
         1         2         2        12         2         3
         2         4         1         5
  2.77507e+01  0.00000e+00  0.00000e+00  0.00000e+00
         1
  0.00000e+00  0.00000e+00  4.86935e-02
         2
  0.00000e+00  0.00000e+00 -3.00420e-01
         3
  0.00000e+00  0.00000e+00 -4.46420e-01
         4
  0.00000e+00  0.00000e+00  9.38930e-02
         5
  0.00000e+00  0.00000e+00  4.89472e-02
         6
  0.00000e+00  0.00000e+00  2.58705e-01
         7
  0.00000e+00  0.00000e+00  1.93204e-01
         8
  0.00000e+00  0.00000e+00  1.00647e-01
         9
  0.00000e+00  0.00000e+00  1.30448e-01
        10
  0.00000e+00  0.00000e+00  5.65341e-03
        11
  0.00000e+00  0.00000e+00  3.00131e-02
        12
  0.00000e+00  0.00000e+00 -3.67961e-01
        13
  0.00000e+00  0.00000e+00 -2.95662e-01
        14
  0.00000e+00  0.00000e+00 -3.74979e-01
        15
  0.00000e+00  0.00000e+00  1.29819e-01
        16
  0.00000e+00  0.00000e+00  1.42284e-01
        17
  0.00000e+00  0.00000e+00  2.69808e-01
        18
  0.00000e+00  0.00000e+00  2.45513e-01
        19
  0.00000e+00  0.00000e+00  1.07772e-01
        20
  0.00000e+00  0.00000e+00  1.36845e-01
        21
  0.00000e+00  0.00000e+00 -1.26860e-03
        22
  0.00000e+00  0.00000e+00  2.45689e-02
    -1
    -1
    55                                                                          
Mode 6                                                                          
EMA                                                                             
Acceleration shapes (Uz only)                                                   
LoadCase 1                                                                      
                                                                                
         1         2         2        12         2         3
         2         4         1         6
  3.11569e+01  0.00000e+00  0.00000e+00  0.00000e+00
         1
  0.00000e+00  0.00000e+00 -1.29422e-01
         2
  0.00000e+00  0.00000e+00 -3.54213e-01
         3
  0.00000e+00  0.00000e+00 -4.29395e-01
         4
  0.00000e+00  0.00000e+00  1.21685e-01
         5
  0.00000e+00  0.00000e+00  5.05768e-02
         6
  0.00000e+00  0.00000e+00  3.03744e-01
         7
  0.00000e+00  0.00000e+00  2.38932e-01
         8
  0.00000e+00  0.00000e+00  1.44228e-01
         9
  0.00000e+00  0.00000e+00  1.18869e-01
        10
  0.00000e+00  0.00000e+00 -1.87734e-02
        11
  0.00000e+00  0.00000e+00 -2.98979e-02
        12
  0.00000e+00  0.00000e+00  1.32889e-01
        13
  0.00000e+00  0.00000e+00 -3.07548e-01
        14
  0.00000e+00  0.00000e+00 -4.36872e-01
        15
  0.00000e+00  0.00000e+00  1.39730e-01
        16
  0.00000e+00  0.00000e+00  2.72789e-02
        17
  0.00000e+00  0.00000e+00  2.86909e-01
        18
  0.00000e+00  0.00000e+00  1.81606e-01
        19
  0.00000e+00  0.00000e+00  1.53179e-01
        20
  0.00000e+00  0.00000e+00  8.64484e-02
        21
  0.00000e+00  0.00000e+00 -1.33049e-02
        22
  0.00000e+00  0.00000e+00 -2.69956e-02
    -1
    -1
    15
         1         0         0         0      7.81760     -4.63530      0.63576
         2         0         0         0      9.02168     -4.53370      0.69505
         3         0         0         0      9.37747     -4.53370      0.69810
         4         0         0         0      8.56214     -3.82250      0.69839
         5         0         0         0      9.24877     -3.82250      0.69834
         6         0         0         0      8.12068     -3.06050      0.70675
         7         0         0         0      9.10008     -3.06050      0.70036
         8         0         0         0      7.43669     -2.01910      0.71479
         9         0         0         0      8.88655     -1.99370      0.70320
        10         0         0         0      7.48304     -1.08778      0.75700
        11         0         0         0      8.36919     -1.08570      0.73723
        12         0         0         0      7.81760      4.63530      0.63576
        13         0         0         0      9.02168      4.53370      0.69505
        14         0         0         0      9.37747      4.53370      0.69810
        15         0         0         0      8.56214      3.82250      0.69839
        16         0         0         0      9.24877      3.82250      0.69834
        17         0         0         0      8.12068      3.06050      0.70675
        18         0         0         0      9.10008      3.06050      0.70036
        19         0         0         0      7.43669      2.01910      0.71479
        20         0         0         0      8.88655      1.99370      0.70320
        21         0         0         0      7.48304      1.08778      0.75700
        22         0         0         0      8.36919      1.08570      0.73723
    -1
    -1
    55                                                                          
Mode 1                                                                          
EMA                                                                             
Acceleration shapes (Uz only)                                                   
LoadCase 1                                                                      
                                                                                
         1         2         2        12         2         3
         2         4         1         1
  3.11279e+00  0.00000e+00  0.00000e+00  0.00000e+00
         1
  0.00000e+00  0.00000e+00  3.94107e-01
         2
  0.00000e+00  0.00000e+00 -5.38821e-02
         3
  0.00000e+00  0.00000e+00  2.10851e-01
         4
  0.00000e+00  0.00000e+00 -3.64777e-01
         5
  0.00000e+00  0.00000e+00 -1.47553e-01
         6
  0.00000e+00  0.00000e+00  2.12830e-01
         7
  0.00000e+00  0.00000e+00  5.52113e-02
         8
  0.00000e+00  0.00000e+00  2.90197e-01
         9
  0.00000e+00  0.00000e+00  1.63666e-01
        10
  0.00000e+00  0.00000e+00  9.76256e-03
        11
  0.00000e+00  0.00000e+00  2.89002e-03
        12
  0.00000e+00  0.00000e+00  3.93079e-01
        13
  0.00000e+00  0.00000e+00 -1.06632e-01
        14
  0.00000e+00  0.00000e+00  1.90266e-01
        15
  0.00000e+00  0.00000e+00 -3.26642e-01
        16
  0.00000e+00  0.00000e+00 -9.36791e-03
        17
  0.00000e+00  0.00000e+00  2.08082e-01
        18
  0.00000e+00  0.00000e+00  1.41678e-01
        19
  0.00000e+00  0.00000e+00  2.85494e-01
        20
  0.00000e+00  0.00000e+00  1.70914e-01
        21
  0.00000e+00  0.00000e+00 -5.07411e-03
        22
  0.00000e+00  0.00000e+00 -7.30990e-03
    -1
    -1
    55                                                                          
Mode 2                                                                          
EMA                                                                             
Acceleration shapes (Uz only)                                                   
LoadCase 1                                                                      
                                                                                
         1         2         2        12         2         3
         2         4         1         2
  8.79867e+00  0.00000e+00  0.00000e+00  0.00000e+00
         1
  0.00000e+00  0.00000e+00 -5.42519e-01
         2
  0.00000e+00  0.00000e+00 -3.03006e-01
         3
  0.00000e+00  0.00000e+00 -2.75953e-01
         4
  0.00000e+00  0.00000e+00 -1.79428e-01
         5
  0.00000e+00  0.00000e+00 -1.73743e-01
         6
  0.00000e+00  0.00000e+00 -7.85471e-02
         7
  0.00000e+00  0.00000e+00 -8.73850e-02
         8
  0.00000e+00  0.00000e+00 -1.00177e-02
         9
  0.00000e+00  0.00000e+00 -1.80335e-02
        10
  0.00000e+00  0.00000e+00  8.62078e-03
        11
  0.00000e+00  0.00000e+00  8.35318e-03
        12
  0.00000e+00  0.00000e+00 -4.99596e-01
        13
  0.00000e+00  0.00000e+00 -2.83255e-01
        14
  0.00000e+00  0.00000e+00 -2.56560e-01
        15
  0.00000e+00  0.00000e+00 -1.66998e-01
        16
  0.00000e+00  0.00000e+00 -1.56549e-01
        17
  0.00000e+00  0.00000e+00 -7.39477e-02
        18
  0.00000e+00  0.00000e+00 -8.17280e-02
        19
  0.00000e+00  0.00000e+00 -1.19604e-02
        20
  0.00000e+00  0.00000e+00 -2.25383e-02
        21
  0.00000e+00  0.00000e+00  6.99861e-03
        22
  0.00000e+00  0.00000e+00  7.54192e-03
    -1
    -1
    55                                                                          
Mode 3                                                                          
EMA                                                                             
Acceleration shapes (Uz only)                                                   
LoadCase 1                                                                      
                                                                                
         1         2         2        12         2         3
         2         4         1         3
  1.31901e+01  0.00000e+00  0.00000e+00  0.00000e+00
         1
  0.00000e+00  0.00000e+00 -5.33414e-01
         2
  0.00000e+00  0.00000e+00  2.06682e-01
         3
  0.00000e+00  0.00000e+00  3.13760e-01
         4
  0.00000e+00  0.00000e+00  1.14742e-01
         5
  0.00000e+00  0.00000e+00  2.06514e-01
         6
  0.00000e+00  0.00000e+00  6.62690e-02
         7
  0.00000e+00  0.00000e+00  1.19538e-01
         8
  0.00000e+00  0.00000e+00  1.99649e-02
         9
  0.00000e+00  0.00000e+00  4.45804e-02
        10
  0.00000e+00  0.00000e+00  8.90640e-03
        11
  0.00000e+00  0.00000e+00  8.41051e-03
        12
  0.00000e+00  0.00000e+00 -5.16316e-01
        13
  0.00000e+00  0.00000e+00  2.19729e-01
        14
  0.00000e+00  0.00000e+00  3.27108e-01
        15
  0.00000e+00  0.00000e+00  1.20234e-01
        16
  0.00000e+00  0.00000e+00  2.03483e-01
        17
  0.00000e+00  0.00000e+00  6.25439e-02
        18
  0.00000e+00  0.00000e+00  1.15634e-01
        19
  0.00000e+00  0.00000e+00  1.71219e-02
        20
  0.00000e+00  0.00000e+00  4.38455e-02
        21
  0.00000e+00  0.00000e+00  5.36490e-03
        22
  0.00000e+00  0.00000e+00  4.95282e-03
    -1
    -1
    55                                                                          
Mode 4                                                                          
EMA                                                                             
Acceleration shapes (Uz only)                                                   
LoadCase 1                                                                      
                                                                                
         1         2         2        12         2         3
         2         4         1         4
  1.45302e+01  0.00000e+00  0.00000e+00  0.00000e+00
         1
  0.00000e+00  0.00000e+00 -5.71072e-01
         2
  0.00000e+00  0.00000e+00  5.38181e-02
         3
  0.00000e+00  0.00000e+00  5.74974e-02
         4
  0.00000e+00  0.00000e+00  7.11507e-02
         5
  0.00000e+00  0.00000e+00  2.51872e-01
         6
  0.00000e+00  0.00000e+00  9.92861e-02
         7
  0.00000e+00  0.00000e+00  1.71947e-01
         8
  0.00000e+00  0.00000e+00 -4.50284e-02
         9
  0.00000e+00  0.00000e+00  5.90355e-02
        10
  0.00000e+00  0.00000e+00 -2.96267e-02
        11
  0.00000e+00  0.00000e+00 -2.63144e-02
        12
  0.00000e+00  0.00000e+00 -1.29861e-01
        13
  0.00000e+00  0.00000e+00 -3.80574e-01
        14
  0.00000e+00  0.00000e+00 -5.98007e-01
        15
  0.00000e+00  0.00000e+00 -8.46053e-02
        16
  0.00000e+00  0.00000e+00 -1.07512e-01
        17
  0.00000e+00  0.00000e+00  9.42348e-02
        18
  0.00000e+00  0.00000e+00  3.78595e-03
        19
  0.00000e+00  0.00000e+00  5.92459e-02
        20
  0.00000e+00  0.00000e+00  3.69849e-02
        21
  0.00000e+00  0.00000e+00  2.04352e-02
        22
  0.00000e+00  0.00000e+00  2.11103e-02
    -1
    -1
    55                                                                          
Mode 5                                                                          
EMA                                                                             
Acceleration shapes (Uz only)                                                   
LoadCase 1                                                                      
                                                                                
         1         2         2        12         2         3
         2         4         1         5
  1.51014e+01  0.00000e+00  0.00000e+00  0.00000e+00
         1
  0.00000e+00  0.00000e+00 -7.19542e-02
         2
  0.00000e+00  0.00000e+00 -3.54940e-01
         3
  0.00000e+00  0.00000e+00 -4.84951e-01
         4
  0.00000e+00  0.00000e+00  3.50472e-02
         5
  0.00000e+00  0.00000e+00 -3.10142e-02
         6
  0.00000e+00  0.00000e+00  1.88699e-01
         7
  0.00000e+00  0.00000e+00  1.12572e-01
         8
  0.00000e+00  0.00000e+00  9.90602e-02
         9
  0.00000e+00  0.00000e+00  9.46426e-02
        10
  0.00000e+00  0.00000e+00  7.06088e-02
        11
  0.00000e+00  0.00000e+00  5.31977e-02
        12
  0.00000e+00  0.00000e+00 -1.10495e-01
        13
  0.00000e+00  0.00000e+00 -3.87697e-01
        14
  0.00000e+00  0.00000e+00 -5.62342e-01
        15
  0.00000e+00  0.00000e+00  3.00569e-02
        16
  0.00000e+00  0.00000e+00 -9.27059e-02
        17
  0.00000e+00  0.00000e+00  1.90460e-01
        18
  0.00000e+00  0.00000e+00  6.01651e-02
        19
  0.00000e+00  0.00000e+00  1.27358e-01
        20
  0.00000e+00  0.00000e+00  6.81067e-02
        21
  0.00000e+00  0.00000e+00  6.86844e-02
        22
  0.00000e+00  0.00000e+00  5.37701e-02
    -1
