    -1
    15
         1         0         0         0      7.81760     -4.63530      0.63576
         2         0         0         0      9.70720     -4.63530      0.73676
         3         0         0         0      9.02168     -4.53370      0.69505
         4         0         0         0      9.37747     -4.53370      0.69810
         5         0         0         0      8.56214     -3.82250      0.69839
         6         0         0         0      9.24877     -3.82250      0.69834
         7         0         0         0      8.12068     -3.06050      0.70675
         8         0         0         0      9.10008     -3.06050      0.70036
         9         0         0         0      7.43669     -2.01910      0.71479
        10         0         0         0      8.88655     -1.99370      0.70320
        11         0         0         0      7.48304     -1.08778      0.75700
        12         0         0         0      8.36919     -1.08570      0.73723
        13         0         0         0     12.54050     -2.55219      0.07744
        14         0         0         0     12.83915     -2.43623     -0.02122
        15         0         0         0     11.03013     -1.02766      0.96333
        16         0         0         0     13.00227     -0.87670      0.19341
        17         0         0         0      7.81760      4.63530      0.63576
        18         0         0         0      9.70720      4.63530      0.73676
        19         0         0         0      9.02168      4.53370      0.69505
        20         0         0         0      9.37747      4.53370      0.69810
        21         0         0         0      8.56214      3.82250      0.69839
        22         0         0         0      9.24877      3.82250      0.69834
        23         0         0         0      8.12068      3.06050      0.70675
        24         0         0         0      9.10008      3.06050      0.70036
        25         0         0         0      7.43669      2.01910      0.71479
        26         0         0         0      8.88655      1.99370      0.70320
        27         0         0         0      7.48304      1.08778      0.75700
        28         0         0         0      8.36919      1.08570      0.73723
        29         0         0         0     12.54050      2.55219      0.07744
        30         0         0         0     12.83915      2.43623     -0.02122
        31         0         0         0     11.03013      1.02766      0.96333
        32         0         0         0     13.00227      0.87670      0.19341
        33         0         0         0     11.19392      0.04761      2.07857
        34         0         0         0     11.85028      0.05765      1.81122
        35         0         0         0     12.28934      0.02106      3.57360
        36         0         0         0     12.60714      0.02271      3.57360
    -1
    -1
    55                                                                          
Mode 1                                                                          
EMA                                                                             
Acceleration shapes (Uz only)                                                   
LoadCase 1                                                                      
                                                                                
         1         2         2        12         2         3
         2         4         1         1
  4.52770e+00  0.00000e+00  0.00000e+00  0.00000e+00
         1
  0.00000e+00  0.00000e+00 -4.14460e-01
         2
  0.00000e+00  0.00000e+00 -6.19438e-01
         3
  0.00000e+00  0.00000e+00 -1.41753e-01
         4
  0.00000e+00  0.00000e+00 -2.59731e-01
         5
  0.00000e+00  0.00000e+00  7.49416e-02
         6
  0.00000e+00  0.00000e+00 -1.79220e-02
         7
  0.00000e+00  0.00000e+00 -1.88051e-01
         8
  0.00000e+00  0.00000e+00 -7.36701e-02
         9
  0.00000e+00  0.00000e+00 -1.89642e-01
        10
  0.00000e+00  0.00000e+00 -9.75177e-02
        11
  0.00000e+00  0.00000e+00 -1.74068e-02
        12
  0.00000e+00  0.00000e+00 -1.39245e-02
        13
  0.00000e+00  0.00000e+00 -7.53113e-02
        14
  0.00000e+00  0.00000e+00 -6.91142e-02
        15
  0.00000e+00  0.00000e+00 -1.40976e-02
        16
  0.00000e+00  0.00000e+00 -1.67879e-02
        17
  0.00000e+00  0.00000e+00 -6.08133e-02
        18
  0.00000e+00  0.00000e+00 -2.66421e-01
        19
  0.00000e+00  0.00000e+00  1.94336e-01
        20
  0.00000e+00  0.00000e+00  5.61533e-02
        21
  0.00000e+00  0.00000e+00  2.95096e-01
        22
  0.00000e+00  0.00000e+00  1.56490e-01
        23
  0.00000e+00  0.00000e+00 -4.30991e-03
        24
  0.00000e+00  0.00000e+00  6.96124e-02
        25
  0.00000e+00  0.00000e+00 -7.78436e-02
        26
  0.00000e+00  0.00000e+00  1.34977e-02
        27
  0.00000e+00  0.00000e+00  4.32643e-02
        28
  0.00000e+00  0.00000e+00  4.18607e-02
        29
  0.00000e+00  0.00000e+00  3.12019e-02
        30
  0.00000e+00  0.00000e+00  3.58069e-02
        31
  0.00000e+00  0.00000e+00  2.10018e-02
        32
  0.00000e+00  0.00000e+00  2.03304e-02
        33
  0.00000e+00  0.00000e+00  2.76777e-02
        34
  0.00000e+00  0.00000e+00  1.87781e-02
        35
  0.00000e+00  0.00000e+00  6.25090e-02
        36
  0.00000e+00  0.00000e+00  5.74581e-02
    -1
    -1
    55                                                                          
Mode 2                                                                          
EMA                                                                             
Acceleration shapes (Uz only)                                                   
LoadCase 1                                                                      
                                                                                
         1         2         2        12         2         3
         2         4         1         2
  8.79648e+00  0.00000e+00  0.00000e+00  0.00000e+00
         1
  0.00000e+00  0.00000e+00  5.15840e-01
         2
  0.00000e+00  0.00000e+00  2.34846e-01
         3
  0.00000e+00  0.00000e+00  2.84226e-01
         4
  0.00000e+00  0.00000e+00  2.57117e-01
         5
  0.00000e+00  0.00000e+00  1.71291e-01
         6
  0.00000e+00  0.00000e+00  1.65608e-01
         7
  0.00000e+00  0.00000e+00  7.79623e-02
         8
  0.00000e+00  0.00000e+00  8.54032e-02
         9
  0.00000e+00  0.00000e+00  1.12843e-02
        10
  0.00000e+00  0.00000e+00  1.86244e-02
        11
  0.00000e+00  0.00000e+00 -8.19732e-03
        12
  0.00000e+00  0.00000e+00 -7.89803e-03
        13
  0.00000e+00  0.00000e+00 -2.96316e-02
        14
  0.00000e+00  0.00000e+00 -3.04792e-02
        15
  0.00000e+00  0.00000e+00 -1.73929e-02
        16
  0.00000e+00  0.00000e+00 -2.64226e-02
        17
  0.00000e+00  0.00000e+00  4.71327e-01
        18
  0.00000e+00  0.00000e+00  2.23615e-01
        19
  0.00000e+00  0.00000e+00  2.62777e-01
        20
  0.00000e+00  0.00000e+00  2.35966e-01
        21
  0.00000e+00  0.00000e+00  1.57517e-01
        22
  0.00000e+00  0.00000e+00  1.47523e-01
        23
  0.00000e+00  0.00000e+00  7.18399e-02
        24
  0.00000e+00  0.00000e+00  7.82982e-02
        25
  0.00000e+00  0.00000e+00  1.22697e-02
        26
  0.00000e+00  0.00000e+00  2.17004e-02
        27
  0.00000e+00  0.00000e+00 -7.07874e-03
        28
  0.00000e+00  0.00000e+00 -7.60576e-03
        29
  0.00000e+00  0.00000e+00 -2.97879e-02
        30
  0.00000e+00  0.00000e+00 -3.06423e-02
        31
  0.00000e+00  0.00000e+00 -1.68088e-02
        32
  0.00000e+00  0.00000e+00 -2.67923e-02
        33
  0.00000e+00  0.00000e+00  1.18092e-03
        34
  0.00000e+00  0.00000e+00 -1.42557e-04
        35
  0.00000e+00  0.00000e+00  1.50239e-03
        36
  0.00000e+00  0.00000e+00  1.30196e-03
    -1
    -1
    55                                                                          
Mode 3                                                                          
EMA                                                                             
Acceleration shapes (Uz only)                                                   
LoadCase 1                                                                      
                                                                                
         1         2         2        12         2         3
         2         4         1         3
  1.13070e+01  0.00000e+00  0.00000e+00  0.00000e+00
         1
  0.00000e+00  0.00000e+00  1.80641e-01
         2
  0.00000e+00  0.00000e+00  4.11911e-01
         3
  0.00000e+00  0.00000e+00 -3.58428e-02
         4
  0.00000e+00  0.00000e+00  7.56297e-02
         5
  0.00000e+00  0.00000e+00 -1.62991e-01
         6
  0.00000e+00  0.00000e+00 -1.38282e-01
         7
  0.00000e+00  0.00000e+00  3.28941e-02
         8
  0.00000e+00  0.00000e+00 -5.41693e-02
         9
  0.00000e+00  0.00000e+00  9.26442e-02
        10
  0.00000e+00  0.00000e+00  1.65799e-02
        11
  0.00000e+00  0.00000e+00 -9.97584e-03
        12
  0.00000e+00  0.00000e+00 -7.94123e-03
        13
  0.00000e+00  0.00000e+00 -3.11560e-02
        14
  0.00000e+00  0.00000e+00 -2.89882e-02
        15
  0.00000e+00  0.00000e+00 -1.07272e-02
        16
  0.00000e+00  0.00000e+00 -1.56649e-03
        17
  0.00000e+00  0.00000e+00  4.78263e-01
        18
  0.00000e+00  0.00000e+00  6.01026e-01
        19
  0.00000e+00  0.00000e+00  1.27763e-01
        20
  0.00000e+00  0.00000e+00  2.61039e-01
        21
  0.00000e+00  0.00000e+00 -1.99703e-02
        22
  0.00000e+00  0.00000e+00  5.76787e-02
        23
  0.00000e+00  0.00000e+00  1.17873e-01
        24
  0.00000e+00  0.00000e+00  9.13685e-02
        25
  0.00000e+00  0.00000e+00  1.29867e-01
        26
  0.00000e+00  0.00000e+00  8.66710e-02
        27
  0.00000e+00  0.00000e+00  1.55726e-02
        28
  0.00000e+00  0.00000e+00  1.73508e-02
        29
  0.00000e+00  0.00000e+00  3.84590e-02
        30
  0.00000e+00  0.00000e+00  3.95397e-02
        31
  0.00000e+00  0.00000e+00  1.03454e-02
        32
  0.00000e+00  0.00000e+00  6.88295e-03
        33
  0.00000e+00  0.00000e+00  1.75263e-02
        34
  0.00000e+00  0.00000e+00  9.80941e-03
        35
  0.00000e+00  0.00000e+00  2.74937e-02
        36
  0.00000e+00  0.00000e+00  1.90714e-02
    -1
    -1
    55                                                                          
Mode 4                                                                          
EMA                                                                             
Acceleration shapes (Uz only)                                                   
LoadCase 1                                                                      
                                                                                
         1         2         2        12         2         3
         2         4         1         4
  1.32329e+01  0.00000e+00  0.00000e+00  0.00000e+00
         1
  0.00000e+00  0.00000e+00 -4.43897e-01
         2
  0.00000e+00  0.00000e+00  3.74865e-01
         3
  0.00000e+00  0.00000e+00  1.72916e-01
         4
  0.00000e+00  0.00000e+00  2.65861e-01
         5
  0.00000e+00  0.00000e+00  9.40861e-02
         6
  0.00000e+00  0.00000e+00  1.71857e-01
         7
  0.00000e+00  0.00000e+00  6.17298e-02
         8
  0.00000e+00  0.00000e+00  1.01803e-01
         9
  0.00000e+00  0.00000e+00  2.18146e-02
        10
  0.00000e+00  0.00000e+00  3.92805e-02
        11
  0.00000e+00  0.00000e+00  6.81020e-03
        12
  0.00000e+00  0.00000e+00  6.60533e-03
        13
  0.00000e+00  0.00000e+00 -3.41155e-02
        14
  0.00000e+00  0.00000e+00 -3.70295e-02
        15
  0.00000e+00  0.00000e+00 -1.05275e-02
        16
  0.00000e+00  0.00000e+00 -3.11224e-02
        17
  0.00000e+00  0.00000e+00 -4.22753e-01
        18
  0.00000e+00  0.00000e+00  3.87128e-01
        19
  0.00000e+00  0.00000e+00  1.85175e-01
        20
  0.00000e+00  0.00000e+00  2.78700e-01
        21
  0.00000e+00  0.00000e+00  1.00223e-01
        22
  0.00000e+00  0.00000e+00  1.72477e-01
        23
  0.00000e+00  0.00000e+00  5.85166e-02
        24
  0.00000e+00  0.00000e+00  1.00529e-01
        25
  0.00000e+00  0.00000e+00  1.92545e-02
        26
  0.00000e+00  0.00000e+00  3.93019e-02
        27
  0.00000e+00  0.00000e+00  4.15222e-03
        28
  0.00000e+00  0.00000e+00  3.85003e-03
        29
  0.00000e+00  0.00000e+00 -5.08710e-02
        30
  0.00000e+00  0.00000e+00 -5.34653e-02
        31
  0.00000e+00  0.00000e+00 -1.24343e-02
        32
  0.00000e+00  0.00000e+00 -3.84210e-02
        33
  0.00000e+00  0.00000e+00 -2.79064e-03
        34
  0.00000e+00  0.00000e+00 -3.64384e-03
        35
  0.00000e+00  0.00000e+00 -1.66271e-02
        36
  0.00000e+00  0.00000e+00 -1.91666e-02
    -1
    -1
    55                                                                          
Mode 5                                                                          
EMA                                                                             
Acceleration shapes (Uz only)                                                   
LoadCase 1                                                                      
                                                                                
         1         2         2        12         2         3
         2         4         1         5
  1.44969e+01  0.00000e+00  0.00000e+00  0.00000e+00
         1
  0.00000e+00  0.00000e+00  4.01641e-01
         2
  0.00000e+00  0.00000e+00 -2.67928e-01
         3
  0.00000e+00  0.00000e+00 -2.16335e-01
         4
  0.00000e+00  0.00000e+00 -2.70578e-01
         5
  0.00000e+00  0.00000e+00 -9.15721e-02
         6
  0.00000e+00  0.00000e+00 -2.23240e-01
         7
  0.00000e+00  0.00000e+00 -4.10430e-02
         8
  0.00000e+00  0.00000e+00 -1.03657e-01
         9
  0.00000e+00  0.00000e+00  3.34412e-02
        10
  0.00000e+00  0.00000e+00 -2.00947e-02
        11
  0.00000e+00  0.00000e+00  1.97257e-02
        12
  0.00000e+00  0.00000e+00  1.61418e-02
        13
  0.00000e+00  0.00000e+00  8.06533e-02
        14
  0.00000e+00  0.00000e+00  7.64222e-02
        15
  0.00000e+00  0.00000e+00  2.26771e-02
        16
  0.00000e+00  0.00000e+00  4.08379e-02
        17
  0.00000e+00  0.00000e+00  1.10582e-01
        18
  0.00000e+00  0.00000e+00  4.50831e-01
        19
  0.00000e+00  0.00000e+00  1.70152e-01
        20
  0.00000e+00  0.00000e+00  2.62927e-01
        21
  0.00000e+00  0.00000e+00  7.89442e-02
        22
  0.00000e+00  0.00000e+00  7.73398e-02
        23
  0.00000e+00  0.00000e+00  6.12904e-03
        24
  0.00000e+00  0.00000e+00  4.21979e-02
        25
  0.00000e+00  0.00000e+00 -5.88153e-03
        26
  0.00000e+00  0.00000e+00  8.51159e-03
        27
  0.00000e+00  0.00000e+00 -9.65198e-03
        28
  0.00000e+00  0.00000e+00 -8.54588e-03
        29
  0.00000e+00  0.00000e+00 -9.25798e-02
        30
  0.00000e+00  0.00000e+00 -9.16407e-02
        31
  0.00000e+00  0.00000e+00 -1.75772e-02
        32
  0.00000e+00  0.00000e+00 -3.06607e-02
        33
  0.00000e+00  0.00000e+00 -5.97541e-02
        34
  0.00000e+00  0.00000e+00 -5.51750e-02
        35
  0.00000e+00  0.00000e+00 -3.05071e-01
        36
  0.00000e+00  0.00000e+00 -3.37298e-01
    -1
    -1
    55                                                                          
Mode 6                                                                          
EMA                                                                             
Acceleration shapes (Uz only)                                                   
LoadCase 1                                                                      
                                                                                
         1         2         2        12         2         3
         2         4         1         6
  1.50626e+01  0.00000e+00  0.00000e+00  0.00000e+00
         1
  0.00000e+00  0.00000e+00 -6.71332e-02
         2
  0.00000e+00  0.00000e+00  4.01784e-01
         3
  0.00000e+00  0.00000e+00  9.27280e-02
         4
  0.00000e+00  0.00000e+00  1.92066e-01
         5
  0.00000e+00  0.00000e+00 -7.77632e-02
         6
  0.00000e+00  0.00000e+00  9.65737e-03
         7
  0.00000e+00  0.00000e+00 -1.19468e-02
         8
  0.00000e+00  0.00000e+00 -1.16205e-02
         9
  0.00000e+00  0.00000e+00 -1.42816e-02
        10
  0.00000e+00  0.00000e+00 -1.29667e-02
        11
  0.00000e+00  0.00000e+00 -6.96422e-02
        12
  0.00000e+00  0.00000e+00 -5.41049e-02
        13
  0.00000e+00  0.00000e+00  1.93405e-01
        14
  0.00000e+00  0.00000e+00  2.11462e-01
        15
  0.00000e+00  0.00000e+00  1.17857e-02
        16
  0.00000e+00  0.00000e+00  1.48646e-01
        17
  0.00000e+00  0.00000e+00  1.05118e-01
        18
  0.00000e+00  0.00000e+00  5.71297e-01
        19
  0.00000e+00  0.00000e+00  2.30549e-01
        20
  0.00000e+00  0.00000e+00  3.45020e-01
        21
  0.00000e+00  0.00000e+00  2.23960e-02
        22
  0.00000e+00  0.00000e+00  1.45035e-01
        23
  0.00000e+00  0.00000e+00  4.44958e-02
        24
  0.00000e+00  0.00000e+00  8.55465e-02
        25
  0.00000e+00  0.00000e+00  1.42672e-02
        26
  0.00000e+00  0.00000e+00  3.58945e-02
        27
  0.00000e+00  0.00000e+00 -5.28193e-02
        28
  0.00000e+00  0.00000e+00 -3.77755e-02
        29
  0.00000e+00  0.00000e+00  2.10387e-01
        30
  0.00000e+00  0.00000e+00  2.29584e-01
        31
  0.00000e+00  0.00000e+00  2.58038e-02
        32
  0.00000e+00  0.00000e+00  1.50122e-01
        33
  0.00000e+00  0.00000e+00 -4.82985e-04
        34
  0.00000e+00  0.00000e+00  2.69585e-03
        35
  0.00000e+00  0.00000e+00 -3.80396e-02
        36
  0.00000e+00  0.00000e+00 -4.30922e-02
    -1
    -1
    55                                                                          
Mode 7                                                                          
EMA                                                                             
Acceleration shapes (Uz only)                                                   
LoadCase 1                                                                      
                                                                                
         1         2         2        12         2         3
         2         4         1         7
  2.35454e+01  0.00000e+00  0.00000e+00  0.00000e+00
         1
  0.00000e+00  0.00000e+00  9.70802e-02
         2
  0.00000e+00  0.00000e+00  2.30695e-01
         3
  0.00000e+00  0.00000e+00 -1.25565e-01
         4
  0.00000e+00  0.00000e+00 -3.43333e-02
         5
  0.00000e+00  0.00000e+00 -2.09750e-01
         6
  0.00000e+00  0.00000e+00 -1.93333e-01
         7
  0.00000e+00  0.00000e+00 -5.31525e-02
         8
  0.00000e+00  0.00000e+00 -8.36340e-02
         9
  0.00000e+00  0.00000e+00  8.70489e-02
        10
  0.00000e+00  0.00000e+00  1.60624e-02
        11
  0.00000e+00  0.00000e+00  3.94552e-03
        12
  0.00000e+00  0.00000e+00 -6.18549e-04
        13
  0.00000e+00  0.00000e+00 -2.30524e-01
        14
  0.00000e+00  0.00000e+00 -2.30955e-01
        15
  0.00000e+00  0.00000e+00 -2.17448e-02
        16
  0.00000e+00  0.00000e+00 -4.49606e-02
        17
  0.00000e+00  0.00000e+00  5.53313e-01
        18
  0.00000e+00  0.00000e+00  5.27785e-01
        19
  0.00000e+00  0.00000e+00  9.06741e-02
        20
  0.00000e+00  0.00000e+00  2.17989e-01
        21
  0.00000e+00  0.00000e+00 -6.89177e-02
        22
  0.00000e+00  0.00000e+00  5.75321e-02
        23
  0.00000e+00  0.00000e+00  4.38080e-02
        24
  0.00000e+00  0.00000e+00  1.10362e-01
        25
  0.00000e+00  0.00000e+00  1.42367e-01
        26
  0.00000e+00  0.00000e+00  1.35448e-01
        27
  0.00000e+00  0.00000e+00  5.26639e-02
        28
  0.00000e+00  0.00000e+00  5.61590e-02
        29
  0.00000e+00  0.00000e+00 -2.91238e-02
        30
  0.00000e+00  0.00000e+00 -3.13192e-02
        31
  0.00000e+00  0.00000e+00  1.88266e-02
        32
  0.00000e+00  0.00000e+00 -3.40097e-03
        33
  0.00000e+00  0.00000e+00  3.73189e-02
        34
  0.00000e+00  0.00000e+00  2.90061e-02
        35
  0.00000e+00  0.00000e+00 -2.92713e-03
        36
  0.00000e+00  0.00000e+00 -2.82545e-02
    -1
    -1
    55                                                                          
Mode 8                                                                          
EMA                                                                             
Acceleration shapes (Uz only)                                                   
LoadCase 1                                                                      
                                                                                
         1         2         2        12         2         3
         2         4         1         8
  2.77385e+01  0.00000e+00  0.00000e+00  0.00000e+00
         1
  0.00000e+00  0.00000e+00 -7.41062e-02
         2
  0.00000e+00  0.00000e+00 -4.36581e-01
         3
  0.00000e+00  0.00000e+00 -2.09918e-01
         4
  0.00000e+00  0.00000e+00 -2.80497e-01
         5
  0.00000e+00  0.00000e+00  4.67744e-02
         6
  0.00000e+00  0.00000e+00  5.78259e-02
         7
  0.00000e+00  0.00000e+00  2.29318e-01
         8
  0.00000e+00  0.00000e+00  1.59715e-01
         9
  0.00000e+00  0.00000e+00  9.57969e-02
        10
  0.00000e+00  0.00000e+00  1.07889e-01
        11
  0.00000e+00  0.00000e+00  3.40279e-03
        12
  0.00000e+00  0.00000e+00  2.06580e-02
        13
  0.00000e+00  0.00000e+00  1.57245e-02
        14
  0.00000e+00  0.00000e+00  8.06681e-04
        15
  0.00000e+00  0.00000e+00 -1.79229e-02
        16
  0.00000e+00  0.00000e+00 -2.73508e-02
        17
  0.00000e+00  0.00000e+00 -3.78828e-01
        18
  0.00000e+00  0.00000e+00 -4.36280e-01
        19
  0.00000e+00  0.00000e+00 -2.38289e-01
        20
  0.00000e+00  0.00000e+00 -2.84426e-01
        21
  0.00000e+00  0.00000e+00  3.93563e-02
        22
  0.00000e+00  0.00000e+00  6.31384e-02
        23
  0.00000e+00  0.00000e+00  1.97463e-01
        24
  0.00000e+00  0.00000e+00  1.36370e-01
        25
  0.00000e+00  0.00000e+00  7.81883e-02
        26
  0.00000e+00  0.00000e+00  7.09436e-02
        27
  0.00000e+00  0.00000e+00 -1.70317e-02
        28
  0.00000e+00  0.00000e+00 -4.24029e-04
        29
  0.00000e+00  0.00000e+00  1.17784e-01
        30
  0.00000e+00  0.00000e+00  1.16353e-01
        31
  0.00000e+00  0.00000e+00 -2.24450e-02
        32
  0.00000e+00  0.00000e+00 -1.12303e-02
        33
  0.00000e+00  0.00000e+00  3.13039e-03
        34
  0.00000e+00  0.00000e+00  6.04087e-03
        35
  0.00000e+00  0.00000e+00 -1.67110e-02
        36
  0.00000e+00  0.00000e+00 -2.24287e-02
    -1
    -1
    55                                                                          
Mode 9                                                                          
EMA                                                                             
Acceleration shapes (Uz only)                                                   
LoadCase 1                                                                      
                                                                                
         1         2         2        12         2         3
         2         4         1         9
  2.91019e+01  0.00000e+00  0.00000e+00  0.00000e+00
         1
  0.00000e+00  0.00000e+00 -1.55446e-01
         2
  0.00000e+00  0.00000e+00 -7.25856e-02
         3
  0.00000e+00  0.00000e+00  1.53273e-01
         4
  0.00000e+00  0.00000e+00  1.27109e-01
         5
  0.00000e+00  0.00000e+00  1.71894e-01
         6
  0.00000e+00  0.00000e+00  1.55451e-01
         7
  0.00000e+00  0.00000e+00 -5.27215e-02
         8
  0.00000e+00  0.00000e+00  2.83721e-02
         9
  0.00000e+00  0.00000e+00 -1.30537e-01
        10
  0.00000e+00  0.00000e+00 -3.71800e-02
        11
  0.00000e+00  0.00000e+00  1.03645e-02
        12
  0.00000e+00  0.00000e+00  2.65666e-02
        13
  0.00000e+00  0.00000e+00 -3.03012e-01
        14
  0.00000e+00  0.00000e+00 -3.63981e-01
        15
  0.00000e+00  0.00000e+00  7.79383e-02
        16
  0.00000e+00  0.00000e+00 -1.24060e-01
        17
  0.00000e+00  0.00000e+00 -5.37612e-01
        18
  0.00000e+00  0.00000e+00 -7.86059e-02
        19
  0.00000e+00  0.00000e+00  9.42843e-02
        20
  0.00000e+00  0.00000e+00  2.99745e-02
        21
  0.00000e+00  0.00000e+00  8.05555e-02
        22
  0.00000e+00  0.00000e+00 -5.13650e-02
        23
  0.00000e+00  0.00000e+00 -1.40550e-01
        24
  0.00000e+00  0.00000e+00 -1.64062e-01
        25
  0.00000e+00  0.00000e+00 -2.00517e-01
        26
  0.00000e+00  0.00000e+00 -1.57074e-01
        27
  0.00000e+00  0.00000e+00 -4.68482e-02
        28
  0.00000e+00  0.00000e+00 -3.57147e-02
        29
  0.00000e+00  0.00000e+00  2.91359e-01
        30
  0.00000e+00  0.00000e+00  2.99388e-01
        31
  0.00000e+00  0.00000e+00 -5.13322e-02
        32
  0.00000e+00  0.00000e+00  1.35457e-02
        33
  0.00000e+00  0.00000e+00 -3.84592e-02
        34
  0.00000e+00  0.00000e+00 -8.48977e-03
        35
  0.00000e+00  0.00000e+00 -2.36741e-02
        36
  0.00000e+00  0.00000e+00  5.18147e-03
    -1
    -1
    55                                                                          
Mode 10                                                                         
EMA                                                                             
Acceleration shapes (Uz only)                                                   
LoadCase 1                                                                      
                                                                                
         1         2         2        12         2         3
         2         4         1        10
  3.10735e+01  0.00000e+00  0.00000e+00  0.00000e+00
         1
  0.00000e+00  0.00000e+00  1.01384e-01
         2
  0.00000e+00  0.00000e+00  4.34450e-01
         3
  0.00000e+00  0.00000e+00  2.45603e-01
         4
  0.00000e+00  0.00000e+00  3.05172e-01
         5
  0.00000e+00  0.00000e+00 -9.97646e-02
         6
  0.00000e+00  0.00000e+00 -3.55929e-02
         7
  0.00000e+00  0.00000e+00 -2.06229e-01
         8
  0.00000e+00  0.00000e+00 -1.61451e-01
         9
  0.00000e+00  0.00000e+00 -9.16602e-02
        10
  0.00000e+00  0.00000e+00 -7.32804e-02
        11
  0.00000e+00  0.00000e+00  1.61198e-02
        12
  0.00000e+00  0.00000e+00  2.49234e-02
        13
  0.00000e+00  0.00000e+00 -1.44996e-01
        14
  0.00000e+00  0.00000e+00 -1.83568e-01
        15
  0.00000e+00  0.00000e+00  2.43359e-03
        16
  0.00000e+00  0.00000e+00 -4.74336e-02
        17
  0.00000e+00  0.00000e+00 -1.87963e-01
        18
  0.00000e+00  0.00000e+00  4.85930e-01
        19
  0.00000e+00  0.00000e+00  1.87760e-01
        20
  0.00000e+00  0.00000e+00  2.99883e-01
        21
  0.00000e+00  0.00000e+00 -1.16394e-01
        22
  0.00000e+00  0.00000e+00 -1.24595e-02
        23
  0.00000e+00  0.00000e+00 -1.96771e-01
        24
  0.00000e+00  0.00000e+00 -1.16609e-01
        25
  0.00000e+00  0.00000e+00 -1.04101e-01
        26
  0.00000e+00  0.00000e+00 -5.48527e-02
        27
  0.00000e+00  0.00000e+00  5.81979e-03
        28
  0.00000e+00  0.00000e+00  1.69245e-02
        29
  0.00000e+00  0.00000e+00 -8.24672e-02
        30
  0.00000e+00  0.00000e+00 -1.04939e-01
        31
  0.00000e+00  0.00000e+00 -1.56927e-02
        32
  0.00000e+00  0.00000e+00 -3.42792e-02
        33
  0.00000e+00  0.00000e+00  1.70149e-03
        34
  0.00000e+00  0.00000e+00  1.09037e-03
        35
  0.00000e+00  0.00000e+00  2.93569e-03
        36
  0.00000e+00  0.00000e+00 -1.73221e-03
    -1
    -1
    55                                                                          
Mode 11                                                                         
EMA                                                                             
Acceleration shapes (Uz only)                                                   
LoadCase 1                                                                      
                                                                                
         1         2         2        12         2         3
         2         4         1        11
  3.63577e+01  0.00000e+00  0.00000e+00  0.00000e+00
         1
  0.00000e+00  0.00000e+00 -1.37030e-01
         2
  0.00000e+00  0.00000e+00 -8.24653e-03
         3
  0.00000e+00  0.00000e+00  7.07186e-03
         4
  0.00000e+00  0.00000e+00  1.81690e-02
         5
  0.00000e+00  0.00000e+00  6.21815e-02
         6
  0.00000e+00  0.00000e+00  7.62794e-02
         7
  0.00000e+00  0.00000e+00 -7.09797e-03
         8
  0.00000e+00  0.00000e+00  5.33431e-02
         9
  0.00000e+00  0.00000e+00 -3.54557e-02
        10
  0.00000e+00  0.00000e+00  1.09879e-02
        11
  0.00000e+00  0.00000e+00  2.25179e-03
        12
  0.00000e+00  0.00000e+00  6.67242e-03
        13
  0.00000e+00  0.00000e+00  4.51799e-01
        14
  0.00000e+00  0.00000e+00  5.08023e-01
        15
  0.00000e+00  0.00000e+00 -2.44407e-02
        16
  0.00000e+00  0.00000e+00  1.49298e-02
        17
  0.00000e+00  0.00000e+00 -3.78695e-02
        18
  0.00000e+00  0.00000e+00 -1.15006e-01
        19
  0.00000e+00  0.00000e+00 -6.56453e-03
        20
  0.00000e+00  0.00000e+00 -4.36775e-02
        21
  0.00000e+00  0.00000e+00  4.40562e-02
        22
  0.00000e+00  0.00000e+00 -2.68455e-02
        23
  0.00000e+00  0.00000e+00 -1.26823e-02
        24
  0.00000e+00  0.00000e+00 -2.91897e-02
        25
  0.00000e+00  0.00000e+00 -2.72799e-02
        26
  0.00000e+00  0.00000e+00 -2.38141e-02
        27
  0.00000e+00  0.00000e+00  4.11773e-03
        28
  0.00000e+00  0.00000e+00  4.38491e-03
        29
  0.00000e+00  0.00000e+00  4.63766e-01
        30
  0.00000e+00  0.00000e+00  5.16374e-01
        31
  0.00000e+00  0.00000e+00 -9.87388e-03
        32
  0.00000e+00  0.00000e+00  4.27938e-03
        33
  0.00000e+00  0.00000e+00  1.45212e-03
        34
  0.00000e+00  0.00000e+00  1.74513e-03
        35
  0.00000e+00  0.00000e+00 -1.10537e-02
        36
  0.00000e+00  0.00000e+00 -1.18047e-02
    -1
