    -1
    15
         1         0         0         0      7.81760     -4.63530      0.63576
         2         0         0         0      9.70720     -4.63530      0.73676
         3         0         0         0      9.02168     -4.53370      0.69505
         4         0         0         0      9.37747     -4.53370      0.69810
         5         0         0         0      8.56214     -3.82250      0.69839
         6         0         0         0      9.24877     -3.82250      0.69834
         7         0         0         0      8.12068     -3.06050      0.70675
         8         0         0         0      9.10008     -3.06050      0.70036
         9         0         0         0      7.43669     -2.01910      0.71479
        10         0         0         0      8.88655     -1.99370      0.70320
        11         0         0         0      7.48304     -1.08778      0.75700
        12         0         0         0      8.36919     -1.08570      0.73723
        13         0         0         0      7.81760      4.63530      0.63576
        14         0         0         0      9.70720      4.63530      0.73676
        15         0         0         0      9.02168      4.53370      0.69505
        16         0         0         0      9.37747      4.53370      0.69810
        17         0         0         0      8.56214      3.82250      0.69839
        18         0         0         0      9.24877      3.82250      0.69834
        19         0         0         0      8.12068      3.06050      0.70675
        20         0         0         0      9.10008      3.06050      0.70036
        21         0         0         0      7.43669      2.01910      0.71479
        22         0         0         0      8.88655      1.99370      0.70320
        23         0         0         0      7.48304      1.08778      0.75700
        24         0         0         0      8.36919      1.08570      0.73723
    -1
    -1
    55                                                                          
Mode 1                                                                          
EMA                                                                             
Acceleration shapes (Uz only)                                                   
LoadCase 1                                                                      
                                                                                
         1         2         2        12         2         3
         2         4         1         1
  4.45440e+00  0.00000e+00  0.00000e+00  0.00000e+00
         121464
  0.00000e+00  0.00000e+00 -2.41527e-01
         121479
  0.00000e+00  0.00000e+00 -5.61365e-01
         130039
  0.00000e+00  0.00000e+00  1.53084e-02
         130937
  0.00000e+00  0.00000e+00 -1.30823e-01
         129813
  0.00000e+00  0.00000e+00  2.75559e-01
         130066
  0.00000e+00  0.00000e+00  1.34306e-01
         131560
  0.00000e+00  0.00000e+00 -9.86193e-02
         131964
  0.00000e+00  0.00000e+00  2.78516e-02
         159845
  0.00000e+00  0.00000e+00 -1.65076e-01
        160320
  0.00000e+00  0.00000e+00 -5.76299e-02
        126150
  0.00000e+00  0.00000e+00  1.00367e-02
        127032
  0.00000e+00  0.00000e+00  5.27019e-03
        185255
  0.00000e+00  0.00000e+00 -2.67424e-01
        185270
  0.00000e+00  0.00000e+00 -5.43398e-01
        187627 
  0.00000e+00  0.00000e+00  2.60768e-02
        192710  
  0.00000e+00  0.00000e+00 -1.34317e-01
        187401
  0.00000e+00  0.00000e+00  2.11979e-01
        187654
  0.00000e+00  0.00000e+00  2.15323e-02
        189148
  0.00000e+00  0.00000e+00 -1.09910e-01
        189552
  0.00000e+00  0.00000e+00 -4.86073e-02
        193875
  0.00000e+00  0.00000e+00 -1.52644e-01
        194350
  0.00000e+00  0.00000e+00 -7.01851e-02
        185574
  0.00000e+00  0.00000e+00  6.92331e-03
        185906 
  0.00000e+00  0.00000e+00  1.94734e-02
    -1
    -1
    55                                                                          
Mode 2                                                                          
EMA                                                                             
Acceleration shapes (Uz only)                                                   
LoadCase 1                                                                      
                                                                                
         1         2         2        12         2         3
         2         4         1         2
  8.80519e+00  0.00000e+00  0.00000e+00  0.00000e+00
         1
  0.00000e+00  0.00000e+00  5.13638e-01
         2
  0.00000e+00  0.00000e+00  2.36494e-01
         3
  0.00000e+00  0.00000e+00  2.83648e-01
         4
  0.00000e+00  0.00000e+00  2.57212e-01
         5
  0.00000e+00  0.00000e+00  1.70550e-01
         6
  0.00000e+00  0.00000e+00  1.64959e-01
         7
  0.00000e+00  0.00000e+00  7.74119e-02
         8
  0.00000e+00  0.00000e+00  8.49882e-02
         9
  0.00000e+00  0.00000e+00  1.11267e-02
        10
  0.00000e+00  0.00000e+00  1.84109e-02
        11
  0.00000e+00  0.00000e+00 -8.32517e-03
        12
  0.00000e+00  0.00000e+00 -8.01832e-03
        13
  0.00000e+00  0.00000e+00  4.73279e-01
        14
  0.00000e+00  0.00000e+00  2.28171e-01
        15
  0.00000e+00  0.00000e+00  2.65162e-01
        16
  0.00000e+00  0.00000e+00  2.38985e-01
        17
  0.00000e+00  0.00000e+00  1.59219e-01
        18
  0.00000e+00  0.00000e+00  1.49119e-01
        19
  0.00000e+00  0.00000e+00  7.30515e-02
        20
  0.00000e+00  0.00000e+00  7.96565e-02
        21
  0.00000e+00  0.00000e+00  1.30094e-02
        22
  0.00000e+00  0.00000e+00  2.25215e-02
        23
  0.00000e+00  0.00000e+00 -6.70862e-03
        24
  0.00000e+00  0.00000e+00 -7.23010e-03
    -1
    -1
    55                                                                          
Mode 3                                                                          
EMA                                                                             
Acceleration shapes (Uz only)                                                   
LoadCase 1                                                                      
                                                                                
         1         2         2        12         2         3
         2         4         1         3
  1.13454e+01  0.00000e+00  0.00000e+00  0.00000e+00
         1
  0.00000e+00  0.00000e+00 -2.75750e-01
         2
  0.00000e+00  0.00000e+00 -5.82735e-01
         3
  0.00000e+00  0.00000e+00 -6.63103e-02
         4
  0.00000e+00  0.00000e+00 -2.00278e-01
         5
  0.00000e+00  0.00000e+00  1.13582e-01
         6
  0.00000e+00  0.00000e+00  7.41482e-02
         7
  0.00000e+00  0.00000e+00 -8.72577e-02
         8
  0.00000e+00  0.00000e+00  6.86362e-03
         9
  0.00000e+00  0.00000e+00 -1.36932e-01
        10
  0.00000e+00  0.00000e+00 -4.95188e-02
        11
  0.00000e+00  0.00000e+00 -6.60276e-03
        12
  0.00000e+00  0.00000e+00 -3.68040e-03
        13
  0.00000e+00  0.00000e+00 -3.48094e-01
        14
  0.00000e+00  0.00000e+00 -5.50281e-01
        15
  0.00000e+00  0.00000e+00 -1.49753e-02
        16
  0.00000e+00  0.00000e+00 -1.76955e-01
        17
  0.00000e+00  0.00000e+00  1.34416e-01
        18
  0.00000e+00  0.00000e+00  2.69807e-02
        19
  0.00000e+00  0.00000e+00 -5.53895e-02
        20
  0.00000e+00  0.00000e+00 -2.55168e-02
        21
  0.00000e+00  0.00000e+00 -1.09275e-01
        22
  0.00000e+00  0.00000e+00 -5.03697e-02
        23
  0.00000e+00  0.00000e+00  6.42185e-03
        24
  0.00000e+00  0.00000e+00  1.75399e-03
    -1
    -1
    55                                                                          
Mode 4                                                                          
EMA                                                                             
Acceleration shapes (Uz only)                                                   
LoadCase 1                                                                      
                                                                                
         1         2         2        12         2         3
         2         4         1         4
  1.31924e+01  0.00000e+00  0.00000e+00  0.00000e+00
        121464
  0.00000e+00  0.00000e+00 -4.47664e-01
        121479
  0.00000e+00  0.00000e+00  3.74718e-01
        130039
  0.00000e+00  0.00000e+00  1.76624e-01
        130937
  0.00000e+00  0.00000e+00  2.68856e-01
        129813
  0.00000e+00  0.00000e+00  9.74465e-02
        130066
  0.00000e+00  0.00000e+00  1.75420e-01
        131560
  0.00000e+00  0.00000e+00  6.10536e-02
        131964
  0.00000e+00  0.00000e+00  1.03124e-01
        159845
  0.00000e+00  0.00000e+00  2.06362e-02
        160320
  0.00000e+00  0.00000e+00  3.92229e-02
        126150
  0.00000e+00  0.00000e+00  7.16075e-03
        127032
  0.00000e+00  0.00000e+00  6.78368e-03
        185255
  0.00000e+00  0.00000e+00 -4.28563e-01
        185270
  0.00000e+00  0.00000e+00  3.83826e-01
        187627
  0.00000e+00  0.00000e+00  1.86396e-01
        192710
  0.00000e+00  0.00000e+00  2.78830e-01
        187401
  0.00000e+00  0.00000e+00  1.01733e-01
        187654
  0.00000e+00  0.00000e+00  1.73437e-01
        189148
  0.00000e+00  0.00000e+00  5.69333e-02
        189552
  0.00000e+00  0.00000e+00  1.00204e-01
        193875
  0.00000e+00  0.00000e+00  1.75482e-02
        194350
  0.00000e+00  0.00000e+00  3.85172e-02
        185574
  0.00000e+00  0.00000e+00  4.10013e-03
        185906
  0.00000e+00  0.00000e+00  3.77778e-03
    -1
    -1
    55                                                                          
Mode 5                                                                          
EMA                                                                             
Acceleration shapes (Uz only)                                                   
LoadCase 1                                                                      
                                                                                
         1         2         2        12         2         3
         2         4         1         5
  1.44971e+01  0.00000e+00  0.00000e+00  0.00000e+00
         1
  0.00000e+00  0.00000e+00  4.52450e-01
         2
  0.00000e+00  0.00000e+00  8.20763e-02
         3
  0.00000e+00  0.00000e+00 -1.42864e-01
         4
  0.00000e+00  0.00000e+00 -1.14806e-01
         5
  0.00000e+00  0.00000e+00 -1.18894e-01
         6
  0.00000e+00  0.00000e+00 -2.10539e-01
         7
  0.00000e+00  0.00000e+00  1.91122e-02
         8
  0.00000e+00  0.00000e+00 -7.63796e-02
         9
  0.00000e+00  0.00000e+00  1.04834e-01
        10
  0.00000e+00  0.00000e+00  1.67483e-02
        11
  0.00000e+00  0.00000e+00  2.47414e-02
        12
  0.00000e+00  0.00000e+00  1.92356e-02
        13
  0.00000e+00  0.00000e+00  1.20000e-01
        14
  0.00000e+00  0.00000e+00  7.15373e-01
        15
  0.00000e+00  0.00000e+00  1.56949e-01
        16
  0.00000e+00  0.00000e+00  3.42649e-01
        17
  0.00000e+00  0.00000e+00 -6.04782e-03
        18
  0.00000e+00  0.00000e+00  6.28173e-02
        19
  0.00000e+00  0.00000e+00  2.03877e-02
        20
  0.00000e+00  0.00000e+00  4.94415e-02
        21
  0.00000e+00  0.00000e+00  4.12602e-02
        22
  0.00000e+00  0.00000e+00  2.87025e-02
        23
  0.00000e+00  0.00000e+00 -1.73979e-02
        24
  0.00000e+00  0.00000e+00 -1.32681e-02
    -1
    -1
    55                                                                          
Mode 6                                                                          
EMA                                                                             
Acceleration shapes (Uz only)                                                   
LoadCase 1                                                                      
                                                                                
         1         2         2        12         2         3
         2         4         1         6
  1.50579e+01  0.00000e+00  0.00000e+00  0.00000e+00
         1
  0.00000e+00  0.00000e+00 -1.26147e-01
         2
  0.00000e+00  0.00000e+00 -5.76535e-01
         3
  0.00000e+00  0.00000e+00 -1.46954e-01
         4
  0.00000e+00  0.00000e+00 -2.73598e-01
         5
  0.00000e+00  0.00000e+00  6.72070e-02
         6
  0.00000e+00  0.00000e+00 -6.17067e-03
         7
  0.00000e+00  0.00000e+00 -1.91372e-02
         8
  0.00000e+00  0.00000e+00  1.34751e-03
         9
  0.00000e+00  0.00000e+00 -3.14188e-02
        10
  0.00000e+00  0.00000e+00 -6.15285e-03
        11
  0.00000e+00  0.00000e+00  5.70426e-02
        12
  0.00000e+00  0.00000e+00  4.62113e-02
        13
  0.00000e+00  0.00000e+00 -1.66712e-01
        14
  0.00000e+00  0.00000e+00 -6.20475e-01
        15
  0.00000e+00  0.00000e+00 -1.47661e-01
        16
  0.00000e+00  0.00000e+00 -3.03592e-01
        17
  0.00000e+00  0.00000e+00  6.98670e-02
        18
  0.00000e+00  0.00000e+00 -6.26227e-02
        19
  0.00000e+00  0.00000e+00 -2.30850e-03
        20
  0.00000e+00  0.00000e+00 -3.64492e-02
        21
  0.00000e+00  0.00000e+00 -1.56256e-02
        22
  0.00000e+00  0.00000e+00 -1.69619e-02
        23
  0.00000e+00  0.00000e+00  6.49538e-02
        24
  0.00000e+00  0.00000e+00  4.75778e-02
    -1
    -1
    55                                                                          
Mode 7                                                                          
EMA                                                                             
Acceleration shapes (Uz only)                                                   
LoadCase 1                                                                      
                                                                                
         1         2         2        12         2         3
         2         4         1         7
  2.56773e+01  0.00000e+00  0.00000e+00  0.00000e+00
         1
  0.00000e+00  0.00000e+00  2.66977e-01
         2
  0.00000e+00  0.00000e+00  3.86765e-01
         3
  0.00000e+00  0.00000e+00 -7.63690e-02
         4
  0.00000e+00  0.00000e+00  4.43194e-02
         5
  0.00000e+00  0.00000e+00 -2.56026e-01
         6
  0.00000e+00  0.00000e+00 -1.31065e-01
         7
  0.00000e+00  0.00000e+00  6.43008e-02
         8
  0.00000e+00  0.00000e+00 -3.83926e-03
         9
  0.00000e+00  0.00000e+00  1.90243e-01
        10
  0.00000e+00  0.00000e+00  9.25472e-02
        11
  0.00000e+00  0.00000e+00  2.08308e-02
        12
  0.00000e+00  0.00000e+00  7.09611e-03
        13
  0.00000e+00  0.00000e+00  6.18799e-01
        14
  0.00000e+00  0.00000e+00  3.49402e-01
        15
  0.00000e+00  0.00000e+00 -6.88888e-02
        16
  0.00000e+00  0.00000e+00  4.27021e-02
        17
  0.00000e+00  0.00000e+00 -2.76935e-01
        18
  0.00000e+00  0.00000e+00 -7.65202e-02
        19
  0.00000e+00  0.00000e+00  3.12473e-02
        20
  0.00000e+00  0.00000e+00  2.39902e-02
        21
  0.00000e+00  0.00000e+00  1.78674e-01
        22
  0.00000e+00  0.00000e+00  1.01582e-01
        23
  0.00000e+00  0.00000e+00  2.52055e-02
        24
  0.00000e+00  0.00000e+00  2.60802e-02
    -1
    -1
    55                                                                          
Mode 8                                                                          
EMA                                                                             
Acceleration shapes (Uz only)                                                   
LoadCase 1                                                                      
                                                                                
         1         2         2        12         2         3
         2         4         1         8
  2.77949e+01  0.00000e+00  0.00000e+00  0.00000e+00
         1
  0.00000e+00  0.00000e+00  4.92972e-02
         2
  0.00000e+00  0.00000e+00  5.18039e-01
         3
  0.00000e+00  0.00000e+00  2.32409e-01
         4
  0.00000e+00  0.00000e+00  3.24831e-01
         5
  0.00000e+00  0.00000e+00 -2.52413e-02
         6
  0.00000e+00  0.00000e+00 -1.83509e-02
         7
  0.00000e+00  0.00000e+00 -1.93589e-01
         8
  0.00000e+00  0.00000e+00 -1.23081e-01
         9
  0.00000e+00  0.00000e+00 -7.70150e-02
        10
  0.00000e+00  0.00000e+00 -9.18443e-02
        11
  0.00000e+00  0.00000e+00 -2.92040e-03
        12
  0.00000e+00  0.00000e+00 -2.45138e-02
        13
  0.00000e+00  0.00000e+00  3.95168e-01
        14
  0.00000e+00  0.00000e+00  3.93049e-01
        15
  0.00000e+00  0.00000e+00  1.99033e-01
        16
  0.00000e+00  0.00000e+00  2.41063e-01
        17
  0.00000e+00  0.00000e+00 -6.56172e-02
        18
  0.00000e+00  0.00000e+00 -1.02035e-01
        19
  0.00000e+00  0.00000e+00 -1.96121e-01
        20
  0.00000e+00  0.00000e+00 -1.62279e-01
        21
  0.00000e+00  0.00000e+00 -7.23093e-02
        22
  0.00000e+00  0.00000e+00 -8.81864e-02
        23
  0.00000e+00  0.00000e+00  8.74284e-03
        24
  0.00000e+00  0.00000e+00 -1.15473e-02
    -1
    -1
    55                                                                          
Mode 9                                                                          
EMA                                                                             
Acceleration shapes (Uz only)                                                   
LoadCase 1                                                                      
                                                                                
         1         2         2        12         2         3
         2         4         1         9
  2.91958e+01  0.00000e+00  0.00000e+00  0.00000e+00
         1
  0.00000e+00  0.00000e+00  2.85765e-01
         2
  0.00000e+00  0.00000e+00 -2.00440e-02
         3
  0.00000e+00  0.00000e+00 -2.05283e-01
         4
  0.00000e+00  0.00000e+00 -1.99751e-01
         5
  0.00000e+00  0.00000e+00 -1.84906e-01
         6
  0.00000e+00  0.00000e+00 -1.17922e-01
         7
  0.00000e+00  0.00000e+00  2.08756e-01
         8
  0.00000e+00  0.00000e+00  6.48313e-02
         9
  0.00000e+00  0.00000e+00  2.30412e-01
        10
  0.00000e+00  0.00000e+00  1.20419e-01
        11
  0.00000e+00  0.00000e+00  4.85805e-03
        12
  0.00000e+00  0.00000e+00 -8.05641e-03
        13
  0.00000e+00  0.00000e+00  5.11074e-01
        14
  0.00000e+00  0.00000e+00 -2.34733e-01
        15
  0.00000e+00  0.00000e+00 -2.95391e-01
        16
  0.00000e+00  0.00000e+00 -2.74671e-01
        17
  0.00000e+00  0.00000e+00 -1.78895e-01
        18
  0.00000e+00  0.00000e+00 -1.70468e-02
        19
  0.00000e+00  0.00000e+00  2.17393e-01
        20
  0.00000e+00  0.00000e+00  1.62012e-01
        21
  0.00000e+00  0.00000e+00  2.46373e-01
        22
  0.00000e+00  0.00000e+00  1.61948e-01
        23
  0.00000e+00  0.00000e+00  1.75072e-02
        24
  0.00000e+00  0.00000e+00  1.75178e-02
    -1
    -1
    55                                                                          
Mode 10                                                                         
EMA                                                                             
Acceleration shapes (Uz only)                                                   
LoadCase 1                                                                      
                                                                                
         1         2         2        12         2         3
         2         4         1        10
  3.10220e+01  0.00000e+00  0.00000e+00  0.00000e+00
         1
  0.00000e+00  0.00000e+00 -7.97307e-02
         2
  0.00000e+00  0.00000e+00 -4.36135e-01
         3
  0.00000e+00  0.00000e+00 -2.50897e-01
         4
  0.00000e+00  0.00000e+00 -3.09882e-01
         5
  0.00000e+00  0.00000e+00  1.00553e-01
         6
  0.00000e+00  0.00000e+00  4.18249e-02
         7
  0.00000e+00  0.00000e+00  2.19243e-01
         8
  0.00000e+00  0.00000e+00  1.75838e-01
         9
  0.00000e+00  0.00000e+00  1.02656e-01
        10
  0.00000e+00  0.00000e+00  8.51760e-02
        11
  0.00000e+00  0.00000e+00 -1.32386e-02
        12
  0.00000e+00  0.00000e+00 -2.22177e-02
        13
  0.00000e+00  0.00000e+00  1.68545e-01
        14
  0.00000e+00  0.00000e+00 -5.15573e-01
        15
  0.00000e+00  0.00000e+00 -2.19232e-01
        16
  0.00000e+00  0.00000e+00 -3.28398e-01
        17
  0.00000e+00  0.00000e+00  1.07327e-01
        18
  0.00000e+00  0.00000e+00  9.39807e-03
        19
  0.00000e+00  0.00000e+00  2.04444e-01
        20
  0.00000e+00  0.00000e+00  1.24273e-01
        21
  0.00000e+00  0.00000e+00  1.10386e-01
        22
  0.00000e+00  0.00000e+00  5.99864e-02
        23
  0.00000e+00  0.00000e+00 -7.81888e-03
        24
  0.00000e+00  0.00000e+00 -1.78953e-02
    -1
