    -1
    15
         1         0         0         0      9.02168     -4.53370      0.69505
         2         0         0         0      9.37747     -4.53370      0.69810
         3         0         0         0      8.56214     -3.82250      0.69839
         4         0         0         0      9.24877     -3.82250      0.69834
         5         0         0         0      8.12068     -3.06050      0.70675
         6         0         0         0      9.10008     -3.06050      0.70036
         7         0         0         0      7.43669     -2.01910      0.71479
         8         0         0         0      8.88655     -1.99370      0.70320
         9         0         0         0      7.48304     -1.08778      0.75700
        10         0         0         0      8.36919     -1.08570      0.73723
        11         0         0         0      9.02168      4.53370      0.69505
        12         0         0         0      9.37747      4.53370      0.69810
        13         0         0         0      8.56214      3.82250      0.69839
        14         0         0         0      9.24877      3.82250      0.69834
        15         0         0         0      8.12068      3.06050      0.70675
        16         0         0         0      9.10008      3.06050      0.70036
        17         0         0         0      7.43669      2.01910      0.71479
        18         0         0         0      8.88655      1.99370      0.70320
        19         0         0         0      7.48304      1.08778      0.75700
        20         0         0         0      8.36919      1.08570      0.73723
    -1
    -1
    55                                                                          
Mode 1                                                                          
EMA                                                                             
Acceleration shapes (Uz only)                                                   
LoadCase 1                                                                      
                                                                                
         1         2         2        12         2         3
         2         4         1         1
  8.87331e+00  0.00000e+00  0.00000e+00  0.00000e+00
         1
  0.00000e+00  0.00000e+00 -6.40877e-02
         2
  0.00000e+00  0.00000e+00  3.59036e-01
         3
  0.00000e+00  0.00000e+00 -4.76815e-01
         4
  0.00000e+00  0.00000e+00 -2.00152e-01
         5
  0.00000e+00  0.00000e+00  1.58043e-01
         6
  0.00000e+00  0.00000e+00 -6.99655e-02
         7
  0.00000e+00  0.00000e+00  2.89773e-01
         8
  0.00000e+00  0.00000e+00  7.43307e-02
         9
  0.00000e+00  0.00000e+00  2.36295e-02
        10
  0.00000e+00  0.00000e+00  2.44688e-02
        11
  0.00000e+00  0.00000e+00  9.37438e-02
        12
  0.00000e+00  0.00000e+00 -3.24845e-01
        13
  0.00000e+00  0.00000e+00  4.63879e-01
        14
  0.00000e+00  0.00000e+00  5.45287e-02
        15
  0.00000e+00  0.00000e+00 -1.44572e-01
        16
  0.00000e+00  0.00000e+00 -1.02691e-01
        17
  0.00000e+00  0.00000e+00 -2.92811e-01
        18
  0.00000e+00  0.00000e+00 -1.70581e-01
        19
  0.00000e+00  0.00000e+00  5.62319e-03
        20
  0.00000e+00  0.00000e+00 -1.62992e-02
    -1
    -1
    55                                                                          
Mode 2                                                                          
EMA                                                                             
Acceleration shapes (Uz only)                                                   
LoadCase 1                                                                      
                                                                                
         1         2         2        12         2         3
         2         4         1         2
  1.13146e+01  0.00000e+00  0.00000e+00  0.00000e+00
         1
  0.00000e+00  0.00000e+00 -6.82603e-02
         2
  0.00000e+00  0.00000e+00  3.35794e-01
         3
  0.00000e+00  0.00000e+00 -5.16591e-01
         4
  0.00000e+00  0.00000e+00 -2.47505e-01
         5
  0.00000e+00  0.00000e+00  5.58632e-02
         6
  0.00000e+00  0.00000e+00 -1.27812e-01
         7
  0.00000e+00  0.00000e+00  2.59897e-01
         8
  0.00000e+00  0.00000e+00  5.68500e-02
         9
  0.00000e+00  0.00000e+00  3.41949e-02
        10
  0.00000e+00  0.00000e+00  3.42012e-02
        11
  0.00000e+00  0.00000e+00  9.19912e-02
        12
  0.00000e+00  0.00000e+00 -3.13889e-01
        13
  0.00000e+00  0.00000e+00  4.97844e-01
        14
  0.00000e+00  0.00000e+00  9.67375e-02
        15
  0.00000e+00  0.00000e+00 -6.08387e-02
        16
  0.00000e+00  0.00000e+00 -4.48062e-02
        17
  0.00000e+00  0.00000e+00 -2.63932e-01
        18
  0.00000e+00  0.00000e+00 -1.46799e-01
        19
  0.00000e+00  0.00000e+00 -1.11043e-02
        20
  0.00000e+00  0.00000e+00 -2.54080e-02
    -1
    -1
    55                                                                          
Mode 3                                                                          
EMA                                                                             
Acceleration shapes (Uz only)                                                   
LoadCase 1                                                                      
                                                                                
         1         2         2        12         2         3
         2         4         1         3
  1.31391e+01  0.00000e+00  0.00000e+00  0.00000e+00
         1
  0.00000e+00  0.00000e+00  9.70824e-02
         2
  0.00000e+00  0.00000e+00  4.10890e-01
         3
  0.00000e+00  0.00000e+00 -3.67978e-01
         4
  0.00000e+00  0.00000e+00 -4.18683e-02
         5
  0.00000e+00  0.00000e+00  5.98347e-03
         6
  0.00000e+00  0.00000e+00 -4.55703e-02
         7
  0.00000e+00  0.00000e+00  1.73182e-01
         8
  0.00000e+00  0.00000e+00  6.72691e-02
         9
  0.00000e+00  0.00000e+00  2.92847e-02
        10
  0.00000e+00  0.00000e+00  3.44602e-02
        11
  0.00000e+00  0.00000e+00  3.26383e-01
        12
  0.00000e+00  0.00000e+00  2.28196e-01
        13
  0.00000e+00  0.00000e+00  5.77154e-01
        14
  0.00000e+00  0.00000e+00  3.16009e-01
        15
  0.00000e+00  0.00000e+00  1.00291e-01
        16
  0.00000e+00  0.00000e+00  1.63044e-01
        17
  0.00000e+00  0.00000e+00 -1.30719e-01
        18
  0.00000e+00  0.00000e+00 -2.04166e-02
        19
  0.00000e+00  0.00000e+00 -8.81490e-03
        20
  0.00000e+00  0.00000e+00 -1.08002e-02
    -1
    -1
    55                                                                          
Mode 4                                                                          
EMA                                                                             
Acceleration shapes (Uz only)                                                   
LoadCase 1                                                                      
                                                                                
         1         2         2        12         2         3
         2         4         1         4
  1.45398e+01  0.00000e+00  0.00000e+00  0.00000e+00
         1
  0.00000e+00  0.00000e+00  4.00938e-01
         2
  0.00000e+00  0.00000e+00  5.34190e-01
         3
  0.00000e+00  0.00000e+00  1.41481e-01
         4
  0.00000e+00  0.00000e+00  2.67471e-01
         5
  0.00000e+00  0.00000e+00  3.51353e-02
         6
  0.00000e+00  0.00000e+00  1.06686e-01
         7
  0.00000e+00  0.00000e+00 -3.55451e-02
         8
  0.00000e+00  0.00000e+00  2.73959e-03
         9
  0.00000e+00  0.00000e+00 -4.04755e-02
        10
  0.00000e+00  0.00000e+00 -3.60228e-02
        11
  0.00000e+00  0.00000e+00 -3.53208e-01
        12
  0.00000e+00  0.00000e+00 -4.84947e-01
        13
  0.00000e+00  0.00000e+00 -1.21223e-01
        14
  0.00000e+00  0.00000e+00 -2.39122e-01
        15
  0.00000e+00  0.00000e+00 -2.90852e-02
        16
  0.00000e+00  0.00000e+00 -9.99351e-02
        17
  0.00000e+00  0.00000e+00  2.85063e-02
        18
  0.00000e+00  0.00000e+00 -1.06490e-02
        19
  0.00000e+00  0.00000e+00  3.19329e-02
        20
  0.00000e+00  0.00000e+00  3.04402e-02
    -1
    -1
    55                                                                          
Mode 5                                                                          
EMA                                                                             
Acceleration shapes (Uz only)                                                   
LoadCase 1                                                                      
                                                                                
         1         2         2        12         2         3
         2         4         1         5
  1.66313e+01  0.00000e+00  0.00000e+00  0.00000e+00
         1
  0.00000e+00  0.00000e+00  3.18183e-01
         2
  0.00000e+00  0.00000e+00  5.84404e-01
         3
  0.00000e+00  0.00000e+00 -2.82876e-01
         4
  0.00000e+00  0.00000e+00  4.67799e-02
         5
  0.00000e+00  0.00000e+00 -1.01070e-01
         6
  0.00000e+00  0.00000e+00 -7.46867e-02
         7
  0.00000e+00  0.00000e+00  2.35857e-02
         8
  0.00000e+00  0.00000e+00 -9.20514e-03
         9
  0.00000e+00  0.00000e+00 -3.64646e-02
        10
  0.00000e+00  0.00000e+00 -2.31355e-02
        11
  0.00000e+00  0.00000e+00 -2.78695e-01
        12
  0.00000e+00  0.00000e+00 -5.31818e-01
        13
  0.00000e+00  0.00000e+00  2.76108e-01
        14
  0.00000e+00  0.00000e+00 -9.58077e-02
        15
  0.00000e+00  0.00000e+00  8.59342e-02
        16
  0.00000e+00  0.00000e+00  8.84899e-03
        17
  0.00000e+00  0.00000e+00 -1.81487e-02
        18
  0.00000e+00  0.00000e+00 -1.20355e-02
        19
  0.00000e+00  0.00000e+00  4.15597e-02
        20
  0.00000e+00  0.00000e+00  3.38256e-02
    -1
    -1
    55                                                                          
Mode 6                                                                          
EMA                                                                             
Acceleration shapes (Uz only)                                                   
LoadCase 1                                                                      
                                                                                
         1         2         2        12         2         3
         2         4         1         6
  1.85120e+01  0.00000e+00  0.00000e+00  0.00000e+00
         1
  0.00000e+00  0.00000e+00  2.25785e-01
         2
  0.00000e+00  0.00000e+00  4.99875e-01
         3
  0.00000e+00  0.00000e+00 -4.04407e-01
         4
  0.00000e+00  0.00000e+00 -1.45697e-01
         5
  0.00000e+00  0.00000e+00 -1.69525e-01
         6
  0.00000e+00  0.00000e+00 -1.91649e-01
         7
  0.00000e+00  0.00000e+00  7.91683e-02
         8
  0.00000e+00  0.00000e+00 -1.75035e-02
         9
  0.00000e+00  0.00000e+00  9.63789e-03
        10
  0.00000e+00  0.00000e+00  1.01298e-02
        11
  0.00000e+00  0.00000e+00 -1.82061e-01
        12
  0.00000e+00  0.00000e+00 -4.63730e-01
        13
  0.00000e+00  0.00000e+00  3.97202e-01
        14
  0.00000e+00  0.00000e+00  5.25935e-02
        15
  0.00000e+00  0.00000e+00  1.40032e-01
        16
  0.00000e+00  0.00000e+00  7.93007e-02
        17
  0.00000e+00  0.00000e+00 -8.06800e-02
        18
  0.00000e+00  0.00000e+00 -3.16371e-02
        19
  0.00000e+00  0.00000e+00  8.47694e-04
        20
  0.00000e+00  0.00000e+00  6.66018e-05
    -1
    -1
    55                                                                          
Mode 7                                                                          
EMA                                                                             
Acceleration shapes (Uz only)                                                   
LoadCase 1                                                                      
                                                                                
         1         2         2        12         2         3
         2         4         1         7
  2.39668e+01  0.00000e+00  0.00000e+00  0.00000e+00
         1
  0.00000e+00  0.00000e+00  3.62427e-01
         2
  0.00000e+00  0.00000e+00  3.46308e-01
         3
  0.00000e+00  0.00000e+00  1.82894e-01
         4
  0.00000e+00  0.00000e+00  2.69323e-03
         5
  0.00000e+00  0.00000e+00 -2.57693e-01
         6
  0.00000e+00  0.00000e+00 -1.54548e-01
         7
  0.00000e+00  0.00000e+00 -2.31272e-01
         8
  0.00000e+00  0.00000e+00 -1.68181e-01
         9
  0.00000e+00  0.00000e+00 -4.07473e-02
        10
  0.00000e+00  0.00000e+00 -5.18657e-02
        11
  0.00000e+00  0.00000e+00 -3.77310e-01
        12
  0.00000e+00  0.00000e+00 -4.22151e-01
        13
  0.00000e+00  0.00000e+00 -1.25965e-01
        14
  0.00000e+00  0.00000e+00  3.90827e-02
        15
  0.00000e+00  0.00000e+00  2.85762e-01
        16
  0.00000e+00  0.00000e+00  1.77682e-01
        17
  0.00000e+00  0.00000e+00  2.43787e-01
        18
  0.00000e+00  0.00000e+00  1.56703e-01
        19
  0.00000e+00  0.00000e+00  4.36833e-02
        20
  0.00000e+00  0.00000e+00  4.18558e-02
    -1
    -1
    55                                                                          
Mode 8                                                                          
EMA                                                                             
Acceleration shapes (Uz only)                                                   
LoadCase 1                                                                      
                                                                                
         1         2         2        12         2         3
         2         4         1         8
  3.45493e+01  0.00000e+00  0.00000e+00  0.00000e+00
         1
  0.00000e+00  0.00000e+00 -3.28797e-01
         2
  0.00000e+00  0.00000e+00 -4.79560e-01
         3
  0.00000e+00  0.00000e+00  1.44185e-01
         4
  0.00000e+00  0.00000e+00  2.12671e-02
         5
  0.00000e+00  0.00000e+00  2.79614e-01
         6
  0.00000e+00  0.00000e+00  1.93080e-01
         7
  0.00000e+00  0.00000e+00  9.74790e-02
         8
  0.00000e+00  0.00000e+00  7.40298e-02
         9
  0.00000e+00  0.00000e+00 -3.37460e-02
        10
  0.00000e+00  0.00000e+00 -3.90745e-02
        11
  0.00000e+00  0.00000e+00  3.21014e-01
        12
  0.00000e+00  0.00000e+00  4.79105e-01
        13
  0.00000e+00  0.00000e+00 -1.77594e-01
        14
  0.00000e+00  0.00000e+00 -4.51072e-02
        15
  0.00000e+00  0.00000e+00 -2.90022e-01
        16
  0.00000e+00  0.00000e+00 -1.94020e-01
        17
  0.00000e+00  0.00000e+00 -1.08072e-01
        18
  0.00000e+00  0.00000e+00 -6.53073e-02
        19
  0.00000e+00  0.00000e+00  3.79328e-02
        20
  0.00000e+00  0.00000e+00  4.74853e-02
    -1
