    -1
    15
         1         0         0         0      7.81760     -4.63530      0.63576
         2         0         0         0      9.70720     -4.63530      0.73676
         3         0         0         0      9.02168     -4.53370      0.69505
         4         0         0         0      9.37747     -4.53370      0.69810
         5         0         0         0      8.56214     -3.82250      0.69839
         6         0         0         0      9.24877     -3.82250      0.69834
         7         0         0         0      8.12068     -3.06050      0.70675
         8         0         0         0      9.10008     -3.06050      0.70036
         9         0         0         0      7.43669     -2.01910      0.71479
        10         0         0         0      8.88655     -1.99370      0.70320
        11         0         0         0      7.48304     -1.08778      0.75700
        12         0         0         0      8.36919     -1.08570      0.73723
        13         0         0         0      7.81760      4.63530      0.63576
        14         0         0         0      9.70720      4.63530      0.73676
        15         0         0         0      9.02168      4.53370      0.69505
        16         0         0         0      9.37747      4.53370      0.69810
        17         0         0         0      8.56214      3.82250      0.69839
        18         0         0         0      9.24877      3.82250      0.69834
        19         0         0         0      8.12068      3.06050      0.70675
        20         0         0         0      9.10008      3.06050      0.70036
        21         0         0         0      7.43669      2.01910      0.71479
        22         0         0         0      8.88655      1.99370      0.70320
        23         0         0         0      7.48304      1.08778      0.75700
        24         0         0         0      8.36919      1.08570      0.73723
    -1
    -1
    55                                                                          
Mode 1                                                                          
EMA                                                                             
Acceleration shapes (Uz only)                                                   
LoadCase 1                                                                      
                                                                                
         1         2         2        12         2         3
         2         4         1         1
  8.41614e+00  0.00000e+00  0.00000e+00  0.00000e+00
         1
  0.00000e+00  0.00000e+00  1.65879e-01
         2
  0.00000e+00  0.00000e+00  5.96006e-01
         3
  0.00000e+00  0.00000e+00  1.02633e-02
         4
  0.00000e+00  0.00000e+00  1.92512e-01
         5
  0.00000e+00  0.00000e+00 -2.37685e-01
         6
  0.00000e+00  0.00000e+00 -2.11049e-02
         7
  0.00000e+00  0.00000e+00  2.77949e-02
         8
  0.00000e+00  0.00000e+00  6.60075e-02
         9
  0.00000e+00  0.00000e+00  1.15380e-01
        10
  0.00000e+00  0.00000e+00  1.05595e-01
        11
  0.00000e+00  0.00000e+00 -8.61442e-03
        12
  0.00000e+00  0.00000e+00  5.25005e-03
        13
  0.00000e+00  0.00000e+00 -1.96177e-01
        14
  0.00000e+00  0.00000e+00 -5.67776e-01
        15
  0.00000e+00  0.00000e+00 -4.22836e-03
        16
  0.00000e+00  0.00000e+00 -1.96329e-01
        17
  0.00000e+00  0.00000e+00  2.37194e-01
        18
  0.00000e+00  0.00000e+00 -6.02459e-02
        19
  0.00000e+00  0.00000e+00 -2.26906e-02
        20
  0.00000e+00  0.00000e+00 -9.83899e-02
        21
  0.00000e+00  0.00000e+00 -1.25319e-01
        22
  0.00000e+00  0.00000e+00 -8.86025e-02
        23
  0.00000e+00  0.00000e+00  1.97186e-02
        24
  0.00000e+00  0.00000e+00  3.48878e-03
    -1
    -1
    55                                                                          
Mode 2                                                                          
EMA                                                                             
Acceleration shapes (Uz only)                                                   
LoadCase 1                                                                      
                                                                                
         1         2         2        12         2         3
         2         4         1         2
  1.26341e+01  0.00000e+00  0.00000e+00  0.00000e+00
         1
  0.00000e+00  0.00000e+00  1.17592e-01
         2
  0.00000e+00  0.00000e+00  6.43538e-01
         3
  0.00000e+00  0.00000e+00  6.30893e-02
         4
  0.00000e+00  0.00000e+00  2.47547e-01
         5
  0.00000e+00  0.00000e+00 -2.20180e-01
         6
  0.00000e+00  0.00000e+00 -1.31805e-02
         7
  0.00000e+00  0.00000e+00 -1.29656e-02
         8
  0.00000e+00  0.00000e+00  4.43531e-02
         9
  0.00000e+00  0.00000e+00  9.60565e-02
        10
  0.00000e+00  0.00000e+00  9.38141e-02
        11
  0.00000e+00  0.00000e+00 -8.26988e-04
        12
  0.00000e+00  0.00000e+00  1.11882e-02
        13
  0.00000e+00  0.00000e+00 -2.24083e-01
        14
  0.00000e+00  0.00000e+00 -5.26190e-01
        15
  0.00000e+00  0.00000e+00 -1.06332e-02
        16
  0.00000e+00  0.00000e+00 -1.83053e-01
        17
  0.00000e+00  0.00000e+00  2.41008e-01
        18
  0.00000e+00  0.00000e+00 -1.50426e-02
        19
  0.00000e+00  0.00000e+00  2.51869e-02
        20
  0.00000e+00  0.00000e+00 -4.95411e-02
        21
  0.00000e+00  0.00000e+00 -1.03163e-01
        22
  0.00000e+00  0.00000e+00 -7.08144e-02
        23
  0.00000e+00  0.00000e+00  6.59523e-03
        24
  0.00000e+00  0.00000e+00 -4.32322e-03
    -1
    -1
    55                                                                          
Mode 3                                                                          
EMA                                                                             
Acceleration shapes (Uz only)                                                   
LoadCase 1                                                                      
                                                                                
         1         2         2        12         2         3
         2         4         1         3
  1.40086e+01  0.00000e+00  0.00000e+00  0.00000e+00
         1
  0.00000e+00  0.00000e+00  1.34961e-01
         2
  0.00000e+00  0.00000e+00 -4.59163e-01
         3
  0.00000e+00  0.00000e+00 -2.37691e-01
         4
  0.00000e+00  0.00000e+00 -3.27596e-01
         5
  0.00000e+00  0.00000e+00 -5.12815e-02
         6
  0.00000e+00  0.00000e+00 -1.50017e-01
         7
  0.00000e+00  0.00000e+00  6.41904e-03
         8
  0.00000e+00  0.00000e+00 -4.92423e-02
         9
  0.00000e+00  0.00000e+00  3.70202e-02
        10
  0.00000e+00  0.00000e+00  8.86383e-03
        11
  0.00000e+00  0.00000e+00  3.65125e-02
        12
  0.00000e+00  0.00000e+00  2.99388e-02
        13
  0.00000e+00  0.00000e+00 -2.93634e-01
        14
  0.00000e+00  0.00000e+00  5.11728e-01
        15
  0.00000e+00  0.00000e+00  2.41385e-01
        16
  0.00000e+00  0.00000e+00  3.55746e-01
        17
  0.00000e+00  0.00000e+00  6.86597e-02
        18
  0.00000e+00  0.00000e+00  1.74965e-01
        19
  0.00000e+00  0.00000e+00  1.56159e-02
        20
  0.00000e+00  0.00000e+00  7.93965e-02
        21
  0.00000e+00  0.00000e+00 -1.37251e-02
        22
  0.00000e+00  0.00000e+00  1.60903e-02
        23
  0.00000e+00  0.00000e+00 -1.81603e-02
        24
  0.00000e+00  0.00000e+00 -1.73096e-02
    -1
    -1
    55                                                                          
Mode 4                                                                          
EMA                                                                             
Acceleration shapes (Uz only)                                                   
LoadCase 1                                                                      
                                                                                
         1         2         2        12         2         3
         2         4         1         4
  1.59328e+01  0.00000e+00  0.00000e+00  0.00000e+00
         1
  0.00000e+00  0.00000e+00 -1.48235e-01
         2
  0.00000e+00  0.00000e+00 -5.88501e-01
         3
  0.00000e+00  0.00000e+00 -9.00816e-02
         4
  0.00000e+00  0.00000e+00 -2.49681e-01
         5
  0.00000e+00  0.00000e+00  2.01096e-01
         6
  0.00000e+00  0.00000e+00  2.29615e-02
         7
  0.00000e+00  0.00000e+00  5.55921e-02
         8
  0.00000e+00  0.00000e+00 -7.43071e-03
         9
  0.00000e+00  0.00000e+00 -6.61794e-02
        10
  0.00000e+00  0.00000e+00 -6.84459e-02
        11
  0.00000e+00  0.00000e+00 -6.08232e-03
        12
  0.00000e+00  0.00000e+00 -1.45963e-02
        13
  0.00000e+00  0.00000e+00  1.21193e-01
        14
  0.00000e+00  0.00000e+00  6.00488e-01
        15
  0.00000e+00  0.00000e+00  9.50801e-02
        16
  0.00000e+00  0.00000e+00  2.70975e-01
        17
  0.00000e+00  0.00000e+00 -1.93466e-01
        18
  0.00000e+00  0.00000e+00  3.86624e-02
        19
  0.00000e+00  0.00000e+00 -5.66346e-02
        20
  0.00000e+00  0.00000e+00  3.23090e-02
        21
  0.00000e+00  0.00000e+00  6.36241e-02
        22
  0.00000e+00  0.00000e+00  5.28455e-02
        23
  0.00000e+00  0.00000e+00 -6.96603e-03
        24
  0.00000e+00  0.00000e+00  2.40075e-03
    -1
