    -1
    15
         1         0         0         0      7.81760     -4.63530      0.63576
         2         0         0         0      9.70720     -4.63530      0.73676
         3         0         0         0      9.02168     -4.53370      0.69505
         4         0         0         0      9.37747     -4.53370      0.69810
         5         0         0         0      8.56214     -3.82250      0.69839
         6         0         0         0      9.24877     -3.82250      0.69834
         7         0         0         0      8.12068     -3.06050      0.70675
         8         0         0         0      9.10008     -3.06050      0.70036
         9         0         0         0      7.43669     -2.01910      0.71479
        10         0         0         0      8.88655     -1.99370      0.70320
        11         0         0         0      7.48304     -1.08778      0.75700
        12         0         0         0      8.36919     -1.08570      0.73723
        13         0         0         0      7.81760      4.63530      0.63576
        14         0         0         0      9.70720      4.63530      0.73676
        15         0         0         0      9.02168      4.53370      0.69505
        16         0         0         0      9.37747      4.53370      0.69810
        17         0         0         0      8.56214      3.82250      0.69839
        18         0         0         0      9.24877      3.82250      0.69834
        19         0         0         0      8.12068      3.06050      0.70675
        20         0         0         0      9.10008      3.06050      0.70036
        21         0         0         0      7.43669      2.01910      0.71479
        22         0         0         0      8.88655      1.99370      0.70320
        23         0         0         0      7.48304      1.08778      0.75700
        24         0         0         0      8.36919      1.08570      0.73723
    -1
    -1
    55                                                                          
Mode 1                                                                          
EMA                                                                             
Acceleration shapes (Uz only)                                                   
LoadCase 1                                                                      
                                                                                
         1         2         2        12         2         3
         2         4         1         1
  4.55101e+00  0.00000e+00  0.00000e+00  0.00000e+00
         1
  0.00000e+00  0.00000e+00  1.20162e-01
         2
  0.00000e+00  0.00000e+00  6.02418e-01
         3
  0.00000e+00  0.00000e+00  6.69510e-02
         4
  0.00000e+00  0.00000e+00  2.17312e-01
         5
  0.00000e+00  0.00000e+00 -2.69915e-01
         6
  0.00000e+00  0.00000e+00 -4.61069e-02
         7
  0.00000e+00  0.00000e+00  1.25851e-02
         8
  0.00000e+00  0.00000e+00  4.04149e-02
         9
  0.00000e+00  0.00000e+00  1.32412e-01
        10
  0.00000e+00  0.00000e+00  1.28276e-01
        11
  0.00000e+00  0.00000e+00 -3.44108e-04
        12
  0.00000e+00  0.00000e+00  1.30981e-02
        13
  0.00000e+00  0.00000e+00  1.89938e-01
        14
  0.00000e+00  0.00000e+00  4.90145e-01
        15
  0.00000e+00  0.00000e+00 -9.13288e-02
        16
  0.00000e+00  0.00000e+00  1.06658e-01
        17
  0.00000e+00  0.00000e+00 -3.64791e-01
        18
  0.00000e+00  0.00000e+00 -2.15267e-02
        19
  0.00000e+00  0.00000e+00 -1.66483e-02
        20
  0.00000e+00  0.00000e+00  5.02567e-02
        21
  0.00000e+00  0.00000e+00  1.35679e-01
        22
  0.00000e+00  0.00000e+00  9.36613e-02
        23
  0.00000e+00  0.00000e+00 -9.61067e-03
        24
  0.00000e+00  0.00000e+00 -1.91538e-02
    -1
    -1
    55                                                                          
Mode 2                                                                          
EMA                                                                             
Acceleration shapes (Uz only)                                                   
LoadCase 1                                                                      
                                                                                
         1         2         2        12         2         3
         2         4         1         2
  8.37931e+00  0.00000e+00  0.00000e+00  0.00000e+00
         1
  0.00000e+00  0.00000e+00 -4.79655e-01
         2
  0.00000e+00  0.00000e+00 -2.66422e-01
         3
  0.00000e+00  0.00000e+00 -2.92008e-01
         4
  0.00000e+00  0.00000e+00 -2.74347e-01
         5
  0.00000e+00  0.00000e+00 -1.71635e-01
         6
  0.00000e+00  0.00000e+00 -1.73697e-01
         7
  0.00000e+00  0.00000e+00 -7.69889e-02
         8
  0.00000e+00  0.00000e+00 -8.74917e-02
         9
  0.00000e+00  0.00000e+00 -8.77027e-03
        10
  0.00000e+00  0.00000e+00 -1.48159e-02
        11
  0.00000e+00  0.00000e+00  1.26472e-02
        12
  0.00000e+00  0.00000e+00  1.22571e-02
        13
  0.00000e+00  0.00000e+00 -4.38714e-01
        14
  0.00000e+00  0.00000e+00 -2.55639e-01
        15
  0.00000e+00  0.00000e+00 -2.71861e-01
        16
  0.00000e+00  0.00000e+00 -2.54295e-01
        17
  0.00000e+00  0.00000e+00 -1.65719e-01
        18
  0.00000e+00  0.00000e+00 -1.59216e-01
        19
  0.00000e+00  0.00000e+00 -8.04361e-02
        20
  0.00000e+00  0.00000e+00 -8.86415e-02
        21
  0.00000e+00  0.00000e+00 -1.61533e-02
        22
  0.00000e+00  0.00000e+00 -2.64561e-02
        23
  0.00000e+00  0.00000e+00  7.02828e-03
        24
  0.00000e+00  0.00000e+00  7.20564e-03
    -1
    -1
    55                                                                          
Mode 3                                                                          
EMA                                                                             
Acceleration shapes (Uz only)                                                   
LoadCase 1                                                                      
                                                                                
         1         2         2        12         2         3
         2         4         1         3
  1.11357e+01  0.00000e+00  0.00000e+00  0.00000e+00
         1
  0.00000e+00  0.00000e+00  7.05237e-01
         2
  0.00000e+00  0.00000e+00 -2.56590e-03
         3
  0.00000e+00  0.00000e+00  4.94879e-02
         4
  0.00000e+00  0.00000e+00 -2.29921e-03
         5
  0.00000e+00  0.00000e+00 -1.17152e-02
         6
  0.00000e+00  0.00000e+00 -7.79091e-02
         7
  0.00000e+00  0.00000e+00 -4.17123e-02
         8
  0.00000e+00  0.00000e+00 -6.34096e-02
         9
  0.00000e+00  0.00000e+00 -2.83789e-02
        10
  0.00000e+00  0.00000e+00 -3.99656e-02
        11
  0.00000e+00  0.00000e+00 -2.64085e-02
        12
  0.00000e+00  0.00000e+00 -2.28763e-02
        13
  0.00000e+00  0.00000e+00 -6.63020e-01
        14
  0.00000e+00  0.00000e+00  1.07223e-01
        15
  0.00000e+00  0.00000e+00 -1.41488e-01
        16
  0.00000e+00  0.00000e+00 -2.94056e-02
        17
  0.00000e+00  0.00000e+00 -6.29382e-02
        18
  0.00000e+00  0.00000e+00 -2.00511e-02
        19
  0.00000e+00  0.00000e+00  5.01737e-03
        20
  0.00000e+00  0.00000e+00  2.54098e-02
        21
  0.00000e+00  0.00000e+00  6.15078e-02
        22
  0.00000e+00  0.00000e+00  4.45884e-02
        23
  0.00000e+00  0.00000e+00  3.23086e-02
        24
  0.00000e+00  0.00000e+00  2.76271e-02
    -1
    -1
    55                                                                          
Mode 4                                                                          
EMA                                                                             
Acceleration shapes (Uz only)                                                   
LoadCase 1                                                                      
                                                                                
         1         2         2        12         2         3
         2         4         1         4
  1.25790e+01  0.00000e+00  0.00000e+00  0.00000e+00
         1
  0.00000e+00  0.00000e+00 -4.26615e-01
         2
  0.00000e+00  0.00000e+00  4.12148e-01
         3
  0.00000e+00  0.00000e+00  2.03861e-01
         4
  0.00000e+00  0.00000e+00  3.00811e-01
         5
  0.00000e+00  0.00000e+00  1.01389e-01
         6
  0.00000e+00  0.00000e+00  1.87164e-01
         7
  0.00000e+00  0.00000e+00  4.65465e-02
         8
  0.00000e+00  0.00000e+00  9.70513e-02
         9
  0.00000e+00  0.00000e+00 -3.10029e-04
        10
  0.00000e+00  0.00000e+00  2.23452e-02
        11
  0.00000e+00  0.00000e+00 -7.31327e-03
        12
  0.00000e+00  0.00000e+00 -7.13024e-03
        13
  0.00000e+00  0.00000e+00 -5.55652e-01
        14
  0.00000e+00  0.00000e+00  2.75631e-01
        15
  0.00000e+00  0.00000e+00  8.96829e-02
        16
  0.00000e+00  0.00000e+00  1.81063e-01
        17
  0.00000e+00  0.00000e+00  6.27907e-02
        18
  0.00000e+00  0.00000e+00  1.27639e-01
        19
  0.00000e+00  0.00000e+00  5.03578e-02
        20
  0.00000e+00  0.00000e+00  8.75230e-02
        21
  0.00000e+00  0.00000e+00  2.53497e-02
        22
  0.00000e+00  0.00000e+00  4.14793e-02
        23
  0.00000e+00  0.00000e+00  1.10046e-02
        24
  0.00000e+00  0.00000e+00  1.11537e-02
    -1
    -1
    55                                                                          
Mode 5                                                                          
EMA                                                                             
Acceleration shapes (Uz only)                                                   
LoadCase 1                                                                      
                                                                                
         1         2         2        12         2         3
         2         4         1         5
  1.42757e+01  0.00000e+00  0.00000e+00  0.00000e+00
         1
  0.00000e+00  0.00000e+00  1.04264e-01
         2
  0.00000e+00  0.00000e+00 -1.15453e-01
         3
  0.00000e+00  0.00000e+00 -8.31880e-02
         4
  0.00000e+00  0.00000e+00 -9.39985e-02
         5
  0.00000e+00  0.00000e+00 -9.54504e-02
         6
  0.00000e+00  0.00000e+00 -5.98135e-02
         7
  0.00000e+00  0.00000e+00 -3.69612e-02
         8
  0.00000e+00  0.00000e+00 -2.00345e-02
         9
  0.00000e+00  0.00000e+00 -9.39353e-03
        10
  0.00000e+00  0.00000e+00  9.72869e-03
        11
  0.00000e+00  0.00000e+00 -2.28798e-02
        12
  0.00000e+00  0.00000e+00 -1.72066e-02
        13
  0.00000e+00  0.00000e+00 -3.26984e-01
        14
  0.00000e+00  0.00000e+00  6.48396e-01
        15
  0.00000e+00  0.00000e+00  3.37129e-01
        16
  0.00000e+00  0.00000e+00  4.68198e-01
        17
  0.00000e+00  0.00000e+00  9.33265e-02
        18
  0.00000e+00  0.00000e+00  2.34923e-01
        19
  0.00000e+00  0.00000e+00  8.01598e-03
        20
  0.00000e+00  0.00000e+00  1.02077e-01
        21
  0.00000e+00  0.00000e+00 -5.63265e-02
        22
  0.00000e+00  0.00000e+00  7.43123e-03
        23
  0.00000e+00  0.00000e+00 -6.55900e-02
        24
  0.00000e+00  0.00000e+00 -4.97238e-02
    -1
    -1
    55                                                                          
Mode 6                                                                          
EMA                                                                             
Acceleration shapes (Uz only)                                                   
LoadCase 1                                                                      
                                                                                
         1         2         2        12         2         3
         2         4         1         6
  2.58560e+01  0.00000e+00  0.00000e+00  0.00000e+00
         1
  0.00000e+00  0.00000e+00 -3.90477e-01
         2
  0.00000e+00  0.00000e+00 -3.26431e-01
         3
  0.00000e+00  0.00000e+00 -2.52790e-01
         4
  0.00000e+00  0.00000e+00 -2.51857e-01
         5
  0.00000e+00  0.00000e+00  4.45878e-02
         6
  0.00000e+00  0.00000e+00  7.01339e-02
         7
  0.00000e+00  0.00000e+00  1.50907e-01
         8
  0.00000e+00  0.00000e+00  1.82263e-01
         9
  0.00000e+00  0.00000e+00  5.99353e-02
        10
  0.00000e+00  0.00000e+00  1.10626e-01
        11
  0.00000e+00  0.00000e+00 -3.60307e-03
        12
  0.00000e+00  0.00000e+00  1.22725e-02
        13
  0.00000e+00  0.00000e+00 -8.59944e-02
        14
  0.00000e+00  0.00000e+00 -5.08107e-01
        15
  0.00000e+00  0.00000e+00 -2.78084e-01
        16
  0.00000e+00  0.00000e+00 -3.46294e-01
        17
  0.00000e+00  0.00000e+00  5.73243e-02
        18
  0.00000e+00  0.00000e+00  2.40621e-02
        19
  0.00000e+00  0.00000e+00  1.70032e-01
        20
  0.00000e+00  0.00000e+00  1.47340e-01
        21
  0.00000e+00  0.00000e+00  8.80522e-02
        22
  0.00000e+00  0.00000e+00  9.61714e-02
        23
  0.00000e+00  0.00000e+00  6.15840e-03
        24
  0.00000e+00  0.00000e+00  1.99719e-02
    -1
    -1
    55                                                                          
Mode 7                                                                          
EMA                                                                             
Acceleration shapes (Uz only)                                                   
LoadCase 1                                                                      
                                                                                
         1         2         2        12         2         3
         2         4         1         7
  2.90402e+01  0.00000e+00  0.00000e+00  0.00000e+00
         1
  0.00000e+00  0.00000e+00 -3.79143e-01
         2
  0.00000e+00  0.00000e+00  6.09836e-01
         3
  0.00000e+00  0.00000e+00  2.13420e-01
         4
  0.00000e+00  0.00000e+00  3.69675e-01
         5
  0.00000e+00  0.00000e+00 -5.30066e-02
         6
  0.00000e+00  0.00000e+00  7.36369e-02
         7
  0.00000e+00  0.00000e+00 -1.58406e-01
         8
  0.00000e+00  0.00000e+00 -6.15559e-02
         9
  0.00000e+00  0.00000e+00 -7.55308e-02
        10
  0.00000e+00  0.00000e+00 -3.21485e-02
        11
  0.00000e+00  0.00000e+00  1.42521e-02
        12
  0.00000e+00  0.00000e+00  3.17083e-02
        13
  0.00000e+00  0.00000e+00  4.98391e-02
        14
  0.00000e+00  0.00000e+00  3.55447e-01
        15
  0.00000e+00  0.00000e+00  1.74651e-01
        16
  0.00000e+00  0.00000e+00  2.32437e-01
        17
  0.00000e+00  0.00000e+00 -5.93348e-02
        18
  0.00000e+00  0.00000e+00 -2.50706e-02
        19
  0.00000e+00  0.00000e+00 -1.49168e-01
        20
  0.00000e+00  0.00000e+00 -1.00024e-01
        21
  0.00000e+00  0.00000e+00 -7.02994e-02
        22
  0.00000e+00  0.00000e+00 -3.44369e-02
        23
  0.00000e+00  0.00000e+00  1.69030e-02
        24
  0.00000e+00  0.00000e+00  3.01055e-02
    -1
    -1
    55                                                                          
Mode 8                                                                          
EMA                                                                             
Acceleration shapes (Uz only)                                                   
LoadCase 1                                                                      
                                                                                
         1         2         2        12         2         3
         2         4         1         8
  4.27423e+01  0.00000e+00  0.00000e+00  0.00000e+00
         1
  0.00000e+00  0.00000e+00  1.84932e-01
         2
  0.00000e+00  0.00000e+00 -1.27274e-01
         3
  0.00000e+00  0.00000e+00 -2.60653e-02
         4
  0.00000e+00  0.00000e+00 -5.12628e-02
         5
  0.00000e+00  0.00000e+00  8.20893e-02
         6
  0.00000e+00  0.00000e+00  5.83094e-02
         7
  0.00000e+00  0.00000e+00 -1.29515e-01
         8
  0.00000e+00  0.00000e+00  6.80031e-02
         9
  0.00000e+00  0.00000e+00 -8.61229e-02
        10
  0.00000e+00  0.00000e+00  2.15036e-02
        11
  0.00000e+00  0.00000e+00  4.33933e-02
        12
  0.00000e+00  0.00000e+00  2.40891e-02
        13
  0.00000e+00  0.00000e+00  4.32350e-01
        14
  0.00000e+00  0.00000e+00 -6.11113e-01
        15
  0.00000e+00  0.00000e+00 -1.96504e-01
        16
  0.00000e+00  0.00000e+00 -2.97346e-01
        17
  0.00000e+00  0.00000e+00  1.06840e-01
        18
  0.00000e+00  0.00000e+00  2.18779e-01
        19
  0.00000e+00  0.00000e+00 -1.62089e-01
        20
  0.00000e+00  0.00000e+00  2.71388e-01
        21
  0.00000e+00  0.00000e+00 -2.13607e-01
        22
  0.00000e+00  0.00000e+00  1.08466e-01
        23
  0.00000e+00  0.00000e+00 -4.53762e-03
        24
  0.00000e+00  0.00000e+00  1.95876e-02
    -1
    -1
    55                                                                          
Mode 9                                                                          
EMA                                                                             
Acceleration shapes (Uz only)                                                   
LoadCase 1                                                                      
                                                                                
         1         2         2        12         2         3
         2         4         1         9
  5.46996e+01  0.00000e+00  0.00000e+00  0.00000e+00
         1
  0.00000e+00  0.00000e+00 -2.44450e-01
         2
  0.00000e+00  0.00000e+00  4.27526e-01
         3
  0.00000e+00  0.00000e+00  1.75880e-01
         4
  0.00000e+00  0.00000e+00  1.74759e-01
         5
  0.00000e+00  0.00000e+00 -1.09140e-02
         6
  0.00000e+00  0.00000e+00 -4.42491e-01
         7
  0.00000e+00  0.00000e+00  1.04829e-01
         8
  0.00000e+00  0.00000e+00 -3.37835e-01
         9
  0.00000e+00  0.00000e+00  1.54786e-01
        10
  0.00000e+00  0.00000e+00 -6.07763e-02
        11
  0.00000e+00  0.00000e+00 -2.72958e-03
        12
  0.00000e+00  0.00000e+00 -3.48037e-03
        13
  0.00000e+00  0.00000e+00  7.43079e-03
        14
  0.00000e+00  0.00000e+00  4.67398e-01
        15
  0.00000e+00  0.00000e+00  9.41682e-02
        16
  0.00000e+00  0.00000e+00  1.83611e-01
        17
  0.00000e+00  0.00000e+00 -1.44756e-01
        18
  0.00000e+00  0.00000e+00 -1.70602e-01
        19
  0.00000e+00  0.00000e+00 -4.22198e-03
        20
  0.00000e+00  0.00000e+00 -1.18780e-01
        21
  0.00000e+00  0.00000e+00  1.38113e-01
        22
  0.00000e+00  0.00000e+00  3.88538e-02
        23
  0.00000e+00  0.00000e+00  2.49301e-02
        24
  0.00000e+00  0.00000e+00  2.81232e-02
    -1
    -1
    55                                                                          
Mode 10                                                                         
EMA                                                                             
Acceleration shapes (Uz only)                                                   
LoadCase 1                                                                      
                                                                                
         1         2         2        12         2         3
         2         4         1        10
  6.00896e+01  0.00000e+00  0.00000e+00  0.00000e+00
         1
  0.00000e+00  0.00000e+00  2.93880e-01
         2
  0.00000e+00  0.00000e+00  5.85032e-01
         3
  0.00000e+00  0.00000e+00 -1.62206e-02
         4
  0.00000e+00  0.00000e+00  2.14158e-01
         5
  0.00000e+00  0.00000e+00 -2.97193e-01
         6
  0.00000e+00  0.00000e+00  1.54015e-01
         7
  0.00000e+00  0.00000e+00 -6.50279e-02
         8
  0.00000e+00  0.00000e+00  1.65049e-01
         9
  0.00000e+00  0.00000e+00  1.36454e-01
        10
  0.00000e+00  0.00000e+00  1.15279e-01
        11
  0.00000e+00  0.00000e+00  1.61050e-02
        12
  0.00000e+00  0.00000e+00  2.23642e-03
        13
  0.00000e+00  0.00000e+00  3.16101e-02
        14
  0.00000e+00  0.00000e+00  4.81794e-01
        15
  0.00000e+00  0.00000e+00  7.03344e-02
        16
  0.00000e+00  0.00000e+00  1.71841e-01
        17
  0.00000e+00  0.00000e+00 -1.60558e-01
        18
  0.00000e+00  0.00000e+00 -1.53279e-01
        19
  0.00000e+00  0.00000e+00  2.07896e-02
        20
  0.00000e+00  0.00000e+00 -9.35476e-02
        21
  0.00000e+00  0.00000e+00  1.51302e-01
        22
  0.00000e+00  0.00000e+00  1.45927e-02
        23
  0.00000e+00  0.00000e+00  7.73916e-05
        24
  0.00000e+00  0.00000e+00 -1.98741e-02
    -1
    -1
    55                                                                          
Mode 11                                                                         
EMA                                                                             
Acceleration shapes (Uz only)                                                   
LoadCase 1                                                                      
                                                                                
         1         2         2        12         2         3
         2         4         1        11
  6.40448e+01  0.00000e+00  0.00000e+00  0.00000e+00
         1
  0.00000e+00  0.00000e+00 -1.82314e-01
         2
  0.00000e+00  0.00000e+00 -5.09196e-01
         3
  0.00000e+00  0.00000e+00 -7.19979e-03
         4
  0.00000e+00  0.00000e+00 -1.72800e-01
         5
  0.00000e+00  0.00000e+00  1.72873e-01
         6
  0.00000e+00  0.00000e+00 -8.84375e-04
         7
  0.00000e+00  0.00000e+00  9.06877e-04
         8
  0.00000e+00  0.00000e+00 -3.88207e-02
         9
  0.00000e+00  0.00000e+00 -1.11776e-01
        10
  0.00000e+00  0.00000e+00 -4.60961e-02
        11
  0.00000e+00  0.00000e+00  7.21594e-03
        12
  0.00000e+00  0.00000e+00  1.40809e-02
        13
  0.00000e+00  0.00000e+00 -3.73265e-01
        14
  0.00000e+00  0.00000e+00 -4.99135e-01
        15
  0.00000e+00  0.00000e+00  7.71009e-02
        16
  0.00000e+00  0.00000e+00 -1.71082e-01
        17
  0.00000e+00  0.00000e+00  2.79300e-01
        18
  0.00000e+00  0.00000e+00 -2.41973e-01
        19
  0.00000e+00  0.00000e+00  7.63436e-02
        20
  0.00000e+00  0.00000e+00 -2.03494e-01
        21
  0.00000e+00  0.00000e+00 -1.19571e-01
        22
  0.00000e+00  0.00000e+00 -9.52426e-02
        23
  0.00000e+00  0.00000e+00 -2.08939e-02
        24
  0.00000e+00  0.00000e+00 -5.23078e-03
    -1
