    -1
    15
         1         0         0         0     12.54050     -2.55219      0.07744
         2         0         0         0     12.83915     -2.43623     -0.02122
         3         0         0         0     11.03013     -1.02766      0.96333
         4         0         0         0     13.00227     -0.87670      0.19341
         5         0         0         0     12.54050      2.55219      0.07744
         6         0         0         0     12.83915      2.43623     -0.02122
         7         0         0         0     11.03013      1.02766      0.96333
         8         0         0         0     13.00227      0.87670      0.19341
         9         0         0         0     11.19392      0.04761      2.07857
        10         0         0         0     11.85028      0.05765      1.81122
        11         0         0         0     12.28934      0.02106      3.57360
        12         0         0         0     12.60714      0.02271      3.57360
    -1
    -1
    55                                                                          
Mode 1                                                                          
EMA                                                                             
Acceleration shapes (Uz only)                                                   
LoadCase 1                                                                      
                                                                                
         1         2         2        12         2         3
         2         4         1         1
  8.84779e+00  0.00000e+00  0.00000e+00  0.00000e+00
         1
  0.00000e+00  0.00000e+00 -4.05671e-01
         2
  0.00000e+00  0.00000e+00 -4.17704e-01
         3
  0.00000e+00  0.00000e+00 -2.31997e-01
         4
  0.00000e+00  0.00000e+00 -3.54825e-01
         5
  0.00000e+00  0.00000e+00 -3.84027e-01
         6
  0.00000e+00  0.00000e+00 -3.95921e-01
         7
  0.00000e+00  0.00000e+00 -2.21449e-01
         8
  0.00000e+00  0.00000e+00 -3.55468e-01
         9
  0.00000e+00  0.00000e+00  1.87396e-02
        10
  0.00000e+00  0.00000e+00 -6.81281e-04
        11
  0.00000e+00  0.00000e+00  2.70527e-02
        12
  0.00000e+00  0.00000e+00  2.28128e-02
    -1
    -1
    55                                                                          
Mode 2                                                                          
EMA                                                                             
Acceleration shapes (Uz only)                                                   
LoadCase 1                                                                      
                                                                                
         1         2         2        12         2         3
         2         4         1         2
  1.13429e+01  0.00000e+00  0.00000e+00  0.00000e+00
         1
  0.00000e+00  0.00000e+00 -7.59271e-02
         2
  0.00000e+00  0.00000e+00  9.25130e-03
         3
  0.00000e+00  0.00000e+00 -2.97512e-01
         4
  0.00000e+00  0.00000e+00 -5.41930e-01
         5
  0.00000e+00  0.00000e+00  1.32070e-01
         6
  0.00000e+00  0.00000e+00  1.80861e-01
         7
  0.00000e+00  0.00000e+00 -3.02296e-02
         8
  0.00000e+00  0.00000e+00 -3.12457e-01
         9
  0.00000e+00  0.00000e+00  1.56320e-01
        10
  0.00000e+00  0.00000e+00  1.72337e-01
        11
  0.00000e+00  0.00000e+00  4.31907e-01
        12
  0.00000e+00  0.00000e+00  4.71776e-01
    -1
    -1
    55                                                                          
Mode 3                                                                          
EMA                                                                             
Acceleration shapes (Uz only)                                                   
LoadCase 1                                                                      
                                                                                
         1         2         2        12         2         3
         2         4         1         3
  1.31942e+01  0.00000e+00  0.00000e+00  0.00000e+00
         1
  0.00000e+00  0.00000e+00 -3.17338e-01
         2
  0.00000e+00  0.00000e+00 -3.45854e-01
         3
  0.00000e+00  0.00000e+00 -9.58959e-02
         4
  0.00000e+00  0.00000e+00 -2.90821e-01
         5
  0.00000e+00  0.00000e+00 -4.79639e-01
         6
  0.00000e+00  0.00000e+00 -5.04248e-01
         7
  0.00000e+00  0.00000e+00 -1.20311e-01
         8
  0.00000e+00  0.00000e+00 -3.57017e-01
         9
  0.00000e+00  0.00000e+00 -3.03515e-02
        10
  0.00000e+00  0.00000e+00 -3.72244e-02
        11
  0.00000e+00  0.00000e+00 -1.58174e-01
        12
  0.00000e+00  0.00000e+00 -1.79798e-01
    -1
    -1
    55                                                                          
Mode 4                                                                          
EMA                                                                             
Acceleration shapes (Uz only)                                                   
LoadCase 1                                                                      
                                                                                
         1         2         2        12         2         3
         2         4         1         4
  1.45000e+01  0.00000e+00  0.00000e+00  0.00000e+00
         1
  0.00000e+00  0.00000e+00  1.76029e-01
         2
  0.00000e+00  0.00000e+00  1.67121e-01
         3
  0.00000e+00  0.00000e+00  5.28735e-02
         4
  0.00000e+00  0.00000e+00  7.62767e-02
         5
  0.00000e+00  0.00000e+00 -1.99456e-01
         6
  0.00000e+00  0.00000e+00 -1.98816e-01
         7
  0.00000e+00  0.00000e+00 -3.58844e-02
         8
  0.00000e+00  0.00000e+00 -7.36895e-02
         9
  0.00000e+00  0.00000e+00 -1.24380e-01
        10
  0.00000e+00  0.00000e+00 -1.12181e-01
        11
  0.00000e+00  0.00000e+00 -6.09510e-01
        12
  0.00000e+00  0.00000e+00 -6.68495e-01
    -1
    -1
    55                                                                          
Mode 5                                                                          
EMA                                                                             
Acceleration shapes (Uz only)                                                   
LoadCase 1                                                                      
                                                                                
         1         2         2        12         2         3
         2         4         1         5
  1.50642e+01  0.00000e+00  0.00000e+00  0.00000e+00
         1
  0.00000e+00  0.00000e+00  4.28944e-01
         2
  0.00000e+00  0.00000e+00  4.58069e-01
         3
  0.00000e+00  0.00000e+00  5.61808e-02
         4
  0.00000e+00  0.00000e+00  3.24021e-01
         5
  0.00000e+00  0.00000e+00  4.03064e-01
         6
  0.00000e+00  0.00000e+00  4.38848e-01
         7
  0.00000e+00  0.00000e+00  4.17533e-02
         8
  0.00000e+00  0.00000e+00  3.17606e-01
         9
  0.00000e+00  0.00000e+00 -3.16725e-02
        10
  0.00000e+00  0.00000e+00 -1.74752e-02
        11
  0.00000e+00  0.00000e+00 -1.38264e-01
        12
  0.00000e+00  0.00000e+00 -1.41222e-01
    -1
    -1
    55                                                                          
Mode 6                                                                          
EMA                                                                             
Acceleration shapes (Uz only)                                                   
LoadCase 1                                                                      
                                                                                
         1         2         2        12         2         3
         2         4         1         6
  1.66807e+01  0.00000e+00  0.00000e+00  0.00000e+00
         1
  0.00000e+00  0.00000e+00  1.03629e-01
         2
  0.00000e+00  0.00000e+00  6.72247e-02
         3
  0.00000e+00  0.00000e+00  8.45402e-02
         4
  0.00000e+00  0.00000e+00  7.65563e-02
         5
  0.00000e+00  0.00000e+00 -2.63707e-01
         6
  0.00000e+00  0.00000e+00 -2.69332e-01
         7
  0.00000e+00  0.00000e+00  1.18424e-03
         8
  0.00000e+00  0.00000e+00 -1.02997e-01
         9
  0.00000e+00  0.00000e+00  4.76300e-02
        10
  0.00000e+00  0.00000e+00  5.94920e-02
        11
  0.00000e+00  0.00000e+00  5.92138e-01
        12
  0.00000e+00  0.00000e+00  6.80153e-01
    -1
    -1
    55                                                                          
Mode 7                                                                          
EMA                                                                             
Acceleration shapes (Uz only)                                                   
LoadCase 1                                                                      
                                                                                
         1         2         2        12         2         3
         2         4         1         7
  1.85137e+01  0.00000e+00  0.00000e+00  0.00000e+00
         1
  0.00000e+00  0.00000e+00 -3.30893e-02
         2
  0.00000e+00  0.00000e+00 -4.47087e-02
         3
  0.00000e+00  0.00000e+00 -2.49288e-02
         4
  0.00000e+00  0.00000e+00  9.50029e-02
         5
  0.00000e+00  0.00000e+00  2.45504e-01
         6
  0.00000e+00  0.00000e+00  2.52498e-01
         7
  0.00000e+00  0.00000e+00  2.08431e-02
         8
  0.00000e+00  0.00000e+00  1.15376e-01
         9
  0.00000e+00  0.00000e+00 -9.45470e-03
        10
  0.00000e+00  0.00000e+00  1.59055e-02
        11
  0.00000e+00  0.00000e+00 -5.99998e-01
        12
  0.00000e+00  0.00000e+00 -6.99390e-01
    -1
    -1
    55                                                                          
Mode 8                                                                          
EMA                                                                             
Acceleration shapes (Uz only)                                                   
LoadCase 1                                                                      
                                                                                
         1         2         2        12         2         3
         2         4         1         8
  2.35564e+01  0.00000e+00  0.00000e+00  0.00000e+00
         1
  0.00000e+00  0.00000e+00 -5.23858e-01
         2
  0.00000e+00  0.00000e+00 -5.27901e-01
         3
  0.00000e+00  0.00000e+00  8.85066e-02
         4
  0.00000e+00  0.00000e+00 -1.61650e-01
         5
  0.00000e+00  0.00000e+00 -4.29394e-01
         6
  0.00000e+00  0.00000e+00 -4.42364e-01
         7
  0.00000e+00  0.00000e+00  7.76753e-02
         8
  0.00000e+00  0.00000e+00 -1.52443e-01
         9
  0.00000e+00  0.00000e+00  6.00422e-04
        10
  0.00000e+00  0.00000e+00  3.40556e-03
        11
  0.00000e+00  0.00000e+00 -4.08064e-02
        12
  0.00000e+00  0.00000e+00 -4.37538e-02
    -1
