    -1
    15
         1         0         0         0     12.54050     -2.55219      0.07744
         2         0         0         0     12.83915     -2.43623     -0.02122
         3         0         0         0     11.03013     -1.02766      0.96333
         4         0         0         0     13.00227     -0.87670      0.19341
         5         0         0         0     12.54050      2.55219      0.07744
         6         0         0         0     12.83915      2.43623     -0.02122
         7         0         0         0     11.03013      1.02766      0.96333
         8         0         0         0     13.00227      0.87670      0.19341
         9         0         0         0     11.19392      0.04761      2.07857
        10         0         0         0     11.85028      0.05765      1.81122
        11         0         0         0     12.28934      0.02106      3.57360
        12         0         0         0     12.60714      0.02271      3.57360
    -1
    -1
    55                                                                          
Mode 1                                                                          
EMA                                                                             
Acceleration shapes (Uz only)                                                   
LoadCase 1                                                                      
                                                                                
         1         2         2        12         2         3
         2         4         1         1
  8.87302e+00  0.00000e+00  0.00000e+00  0.00000e+00
         1
  0.00000e+00  0.00000e+00 -3.95446e-01
         2
  0.00000e+00  0.00000e+00 -4.59328e-01
         3
  0.00000e+00  0.00000e+00  1.97292e-01
         4
  0.00000e+00  0.00000e+00 -7.21581e-02
         5
  0.00000e+00  0.00000e+00  3.65019e-01
         6
  0.00000e+00  0.00000e+00  4.39872e-01
         7
  0.00000e+00  0.00000e+00 -1.89536e-01
         8
  0.00000e+00  0.00000e+00  7.73685e-02
         9
  0.00000e+00  0.00000e+00 -7.22687e-02
        10
  0.00000e+00  0.00000e+00 -5.57018e-02
        11
  0.00000e+00  0.00000e+00  3.25387e-01
        12
  0.00000e+00  0.00000e+00  3.25072e-01
    -1
    -1
    55                                                                          
Mode 2                                                                          
EMA                                                                             
Acceleration shapes (Uz only)                                                   
LoadCase 1                                                                      
                                                                                
         1         2         2        12         2         3
         2         4         1         2
  1.13196e+01  0.00000e+00  0.00000e+00  0.00000e+00
         1
  0.00000e+00  0.00000e+00 -3.25661e-01
         2
  0.00000e+00  0.00000e+00 -3.83856e-01
         3
  0.00000e+00  0.00000e+00  1.59959e-01
         4
  0.00000e+00  0.00000e+00 -4.43958e-02
         5
  0.00000e+00  0.00000e+00  3.39066e-01
         6
  0.00000e+00  0.00000e+00  4.01192e-01
         7
  0.00000e+00  0.00000e+00 -1.52571e-01
         8
  0.00000e+00  0.00000e+00  7.53818e-02
         9
  0.00000e+00  0.00000e+00 -3.57052e-02
        10
  0.00000e+00  0.00000e+00 -2.12481e-02
        11
  0.00000e+00  0.00000e+00  4.49429e-01
        12
  0.00000e+00  0.00000e+00  4.58746e-01
    -1
    -1
    55                                                                          
Mode 3                                                                          
EMA                                                                             
Acceleration shapes (Uz only)                                                   
LoadCase 1                                                                      
                                                                                
         1         2         2        12         2         3
         2         4         1         3
  1.45300e+01  0.00000e+00  0.00000e+00  0.00000e+00
         1
  0.00000e+00  0.00000e+00 -1.81509e-01
         2
  0.00000e+00  0.00000e+00 -1.74995e-01
         3
  0.00000e+00  0.00000e+00 -3.71397e-02
         4
  0.00000e+00  0.00000e+00 -6.32477e-02
         5
  0.00000e+00  0.00000e+00  2.04058e-01
         6
  0.00000e+00  0.00000e+00  2.01959e-01
         7
  0.00000e+00  0.00000e+00  3.98074e-02
         8
  0.00000e+00  0.00000e+00  8.32769e-02
         9
  0.00000e+00  0.00000e+00  1.24068e-01
        10
  0.00000e+00  0.00000e+00  1.09590e-01
        11
  0.00000e+00  0.00000e+00  6.07520e-01
        12
  0.00000e+00  0.00000e+00  6.66049e-01
    -1
    -1
    55                                                                          
Mode 4                                                                          
EMA                                                                             
Acceleration shapes (Uz only)                                                   
LoadCase 1                                                                      
                                                                                
         1         2         2        12         2         3
         2         4         1         4
  1.66148e+01  0.00000e+00  0.00000e+00  0.00000e+00
         1
  0.00000e+00  0.00000e+00 -1.80840e-01
         2
  0.00000e+00  0.00000e+00 -1.66137e-01
         3
  0.00000e+00  0.00000e+00 -1.18502e-02
         4
  0.00000e+00  0.00000e+00 -6.33199e-02
         5
  0.00000e+00  0.00000e+00  1.44725e-01
         6
  0.00000e+00  0.00000e+00  1.36795e-01
         7
  0.00000e+00  0.00000e+00  1.12727e-02
         8
  0.00000e+00  0.00000e+00  4.86149e-02
         9
  0.00000e+00  0.00000e+00 -4.62168e-02
        10
  0.00000e+00  0.00000e+00 -6.91205e-02
        11
  0.00000e+00  0.00000e+00 -6.14928e-01
        12
  0.00000e+00  0.00000e+00 -7.12985e-01
    -1
    -1
    55                                                                          
Mode 5                                                                          
EMA                                                                             
Acceleration shapes (Uz only)                                                   
LoadCase 1                                                                      
                                                                                
         1         2         2        12         2         3
         2         4         1         5
  1.85169e+01  0.00000e+00  0.00000e+00  0.00000e+00
         1
  0.00000e+00  0.00000e+00 -1.88633e-01
         2
  0.00000e+00  0.00000e+00 -1.80162e-01
         3
  0.00000e+00  0.00000e+00 -4.32635e-02
         4
  0.00000e+00  0.00000e+00 -5.28317e-02
         5
  0.00000e+00  0.00000e+00  1.13426e-01
         6
  0.00000e+00  0.00000e+00  1.04407e-01
         7
  0.00000e+00  0.00000e+00  5.06023e-02
         8
  0.00000e+00  0.00000e+00  1.72848e-02
         9
  0.00000e+00  0.00000e+00  2.10226e-02
        10
  0.00000e+00  0.00000e+00  3.29417e-02
        11
  0.00000e+00  0.00000e+00 -6.24825e-01
        12
  0.00000e+00  0.00000e+00 -7.13258e-01
    -1
    -1
    55                                                                          
Mode 6                                                                          
EMA                                                                             
Acceleration shapes (Uz only)                                                   
LoadCase 1                                                                      
                                                                                
         1         2         2        12         2         3
         2         4         1         6
  2.39768e+01  0.00000e+00  0.00000e+00  0.00000e+00
         1
  0.00000e+00  0.00000e+00 -5.11799e-01
         2
  0.00000e+00  0.00000e+00 -5.24081e-01
         3
  0.00000e+00  0.00000e+00  6.33519e-02
         4
  0.00000e+00  0.00000e+00 -1.89735e-01
         5
  0.00000e+00  0.00000e+00  4.28521e-01
         6
  0.00000e+00  0.00000e+00  4.52068e-01
         7
  0.00000e+00  0.00000e+00 -6.25163e-02
         8
  0.00000e+00  0.00000e+00  1.70698e-01
         9
  0.00000e+00  0.00000e+00  3.42784e-03
        10
  0.00000e+00  0.00000e+00  6.10322e-05
        11
  0.00000e+00  0.00000e+00  3.05226e-02
        12
  0.00000e+00  0.00000e+00  3.74526e-02
    -1
    -1
    15
         1         0         0         0     12.54050     -2.55219      0.07744
         2         0         0         0     12.83915     -2.43623     -0.02122
         3         0         0         0     11.03013     -1.02766      0.96333
         4         0         0         0     13.00227     -0.87670      0.19341
         5         0         0         0     12.54050      2.55219      0.07744
         6         0         0         0     12.83915      2.43623     -0.02122
         7         0         0         0     11.03013      1.02766      0.96333
         8         0         0         0     13.00227      0.87670      0.19341
         9         0         0         0     11.19392      0.04761      2.07857
        10         0         0         0     11.85028      0.05765      1.81122
        11         0         0         0     12.28934      0.02106      3.57360
        12         0         0         0     12.60714      0.02271      3.57360
    -1
    -1
    55                                                                          
Mode 1                                                                          
EMA                                                                             
Acceleration shapes (Uz only)                                                   
LoadCase 1                                                                      
                                                                                
         1         2         2        12         2         3
         2         4         1         1
  8.87272e+00  0.00000e+00  0.00000e+00  0.00000e+00
         1
  0.00000e+00  0.00000e+00 -3.97834e-01
         2
  0.00000e+00  0.00000e+00 -4.59675e-01
         3
  0.00000e+00  0.00000e+00  1.94801e-01
         4
  0.00000e+00  0.00000e+00 -7.69863e-02
         5
  0.00000e+00  0.00000e+00  3.69743e-01
         6
  0.00000e+00  0.00000e+00  4.43259e-01
         7
  0.00000e+00  0.00000e+00 -1.88179e-01
         8
  0.00000e+00  0.00000e+00  8.29449e-02
         9
  0.00000e+00  0.00000e+00 -7.22929e-02
        10
  0.00000e+00  0.00000e+00 -5.58468e-02
        11
  0.00000e+00  0.00000e+00  3.17507e-01
        12
  0.00000e+00  0.00000e+00  3.19244e-01
    -1
    -1
    55                                                                          
Mode 2                                                                          
EMA                                                                             
Acceleration shapes (Uz only)                                                   
LoadCase 1                                                                      
                                                                                
         1         2         2        12         2         3
         2         4         1         2
  1.13201e+01  0.00000e+00  0.00000e+00  0.00000e+00
         1
  0.00000e+00  0.00000e+00  2.98793e-01
         2
  0.00000e+00  0.00000e+00  3.55261e-01
         3
  0.00000e+00  0.00000e+00 -1.66022e-01
         4
  0.00000e+00  0.00000e+00  3.36074e-02
         5
  0.00000e+00  0.00000e+00 -3.48752e-01
         6
  0.00000e+00  0.00000e+00 -4.10749e-01
         7
  0.00000e+00  0.00000e+00  1.52774e-01
         8
  0.00000e+00  0.00000e+00 -9.11600e-02
         9
  0.00000e+00  0.00000e+00  4.18221e-02
        10
  0.00000e+00  0.00000e+00  2.45252e-02
        11
  0.00000e+00  0.00000e+00 -4.56413e-01
        12
  0.00000e+00  0.00000e+00 -4.72403e-01
    -1
    -1
    55                                                                          
Mode 3                                                                          
EMA                                                                             
Acceleration shapes (Uz only)                                                   
LoadCase 1                                                                      
                                                                                
         1         2         2        12         2         3
         2         4         1         3
  1.31146e+01  0.00000e+00  0.00000e+00  0.00000e+00
         1
  0.00000e+00  0.00000e+00 -2.73151e-01
         2
  0.00000e+00  0.00000e+00 -3.40394e-01
         3
  0.00000e+00  0.00000e+00  1.80644e-01
         4
  0.00000e+00  0.00000e+00 -6.19840e-03
         5
  0.00000e+00  0.00000e+00  3.27675e-01
         6
  0.00000e+00  0.00000e+00  4.01688e-01
         7
  0.00000e+00  0.00000e+00 -1.66000e-01
         8
  0.00000e+00  0.00000e+00  6.49713e-02
         9
  0.00000e+00  0.00000e+00 -4.26371e-02
        10
  0.00000e+00  0.00000e+00 -2.70935e-02
        11
  0.00000e+00  0.00000e+00  4.82705e-01
        12
  0.00000e+00  0.00000e+00  4.90707e-01
    -1
    -1
    55                                                                          
Mode 4                                                                          
EMA                                                                             
Acceleration shapes (Uz only)                                                   
LoadCase 1                                                                      
                                                                                
         1         2         2        12         2         3
         2         4         1         4
  1.45312e+01  0.00000e+00  0.00000e+00  0.00000e+00
         1
  0.00000e+00  0.00000e+00 -1.80145e-01
         2
  0.00000e+00  0.00000e+00 -1.73093e-01
         3
  0.00000e+00  0.00000e+00 -3.86311e-02
         4
  0.00000e+00  0.00000e+00 -6.33067e-02
         5
  0.00000e+00  0.00000e+00  2.02977e-01
         6
  0.00000e+00  0.00000e+00  2.00328e-01
         7
  0.00000e+00  0.00000e+00  4.13113e-02
         8
  0.00000e+00  0.00000e+00  8.34499e-02
         9
  0.00000e+00  0.00000e+00  1.25115e-01
        10
  0.00000e+00  0.00000e+00  1.10473e-01
        11
  0.00000e+00  0.00000e+00  6.07945e-01
        12
  0.00000e+00  0.00000e+00  6.66806e-01
    -1
    -1
    55                                                                          
Mode 5                                                                          
EMA                                                                             
Acceleration shapes (Uz only)                                                   
LoadCase 1                                                                      
                                                                                
         1         2         2        12         2         3
         2         4         1         5
  1.66145e+01  0.00000e+00  0.00000e+00  0.00000e+00
         1
  0.00000e+00  0.00000e+00 -1.75031e-01
         2
  0.00000e+00  0.00000e+00 -1.59268e-01
         3
  0.00000e+00  0.00000e+00 -1.52998e-02
         4
  0.00000e+00  0.00000e+00 -6.22837e-02
         5
  0.00000e+00  0.00000e+00  1.38128e-01
         6
  0.00000e+00  0.00000e+00  1.28989e-01
         7
  0.00000e+00  0.00000e+00  1.46249e-02
         8
  0.00000e+00  0.00000e+00  4.67749e-02
         9
  0.00000e+00  0.00000e+00 -4.44974e-02
        10
  0.00000e+00  0.00000e+00 -6.76961e-02
        11
  0.00000e+00  0.00000e+00 -6.18268e-01
        12
  0.00000e+00  0.00000e+00 -7.16203e-01
    -1
    -1
    55                                                                          
Mode 6                                                                          
EMA                                                                             
Acceleration shapes (Uz only)                                                   
LoadCase 1                                                                      
                                                                                
         1         2         2        12         2         3
         2         4         1         6
  1.85170e+01  0.00000e+00  0.00000e+00  0.00000e+00
         1
  0.00000e+00  0.00000e+00 -1.91496e-01
         2
  0.00000e+00  0.00000e+00 -1.82843e-01
         3
  0.00000e+00  0.00000e+00 -4.49719e-02
         4
  0.00000e+00  0.00000e+00 -5.12646e-02
         5
  0.00000e+00  0.00000e+00  1.18783e-01
         6
  0.00000e+00  0.00000e+00  1.09772e-01
         7
  0.00000e+00  0.00000e+00  5.38056e-02
         8
  0.00000e+00  0.00000e+00  1.88187e-02
         9
  0.00000e+00  0.00000e+00  2.47945e-02
        10
  0.00000e+00  0.00000e+00  3.66938e-02
        11
  0.00000e+00  0.00000e+00 -6.22299e-01
        12
  0.00000e+00  0.00000e+00 -7.11774e-01
    -1
    -1
    55                                                                          
Mode 7                                                                          
EMA                                                                             
Acceleration shapes (Uz only)                                                   
LoadCase 1                                                                      
                                                                                
         1         2         2        12         2         3
         2         4         1         7
  2.39711e+01  0.00000e+00  0.00000e+00  0.00000e+00
         1
  0.00000e+00  0.00000e+00 -5.10791e-01
         2
  0.00000e+00  0.00000e+00 -5.22991e-01
         3
  0.00000e+00  0.00000e+00  6.27371e-02
         4
  0.00000e+00  0.00000e+00 -1.89235e-01
         5
  0.00000e+00  0.00000e+00  4.29892e-01
         6
  0.00000e+00  0.00000e+00  4.53408e-01
         7
  0.00000e+00  0.00000e+00 -6.22214e-02
         8
  0.00000e+00  0.00000e+00  1.71029e-01
         9
  0.00000e+00  0.00000e+00  3.91354e-03
        10
  0.00000e+00  0.00000e+00  5.49138e-04
        11
  0.00000e+00  0.00000e+00  3.03719e-02
        12
  0.00000e+00  0.00000e+00  3.71663e-02
    -1
