    -1
    15
         1         0         0         0      7.81760     -4.63530      0.63576
         2         0         0         0      9.70720     -4.63530      0.73676
         3         0         0         0      9.02168     -4.53370      0.69505
         4         0         0         0      9.37747     -4.53370      0.69810
         5         0         0         0      8.56214     -3.82250      0.69839
         6         0         0         0      9.24877     -3.82250      0.69834
         7         0         0         0      8.12068     -3.06050      0.70675
         8         0         0         0      9.10008     -3.06050      0.70036
         9         0         0         0      7.43669     -2.01910      0.71479
        10         0         0         0      8.88655     -1.99370      0.70320
        11         0         0         0      7.48304     -1.08778      0.75700
        12         0         0         0      8.36919     -1.08570      0.73723
        13         0         0         0     12.54050     -2.55219      0.07744
        14         0         0         0     12.83915     -2.43623     -0.02122
        15         0         0         0     11.03013     -1.02766      0.96333
        16         0         0         0     13.00227     -0.87670      0.19341
        17         0         0         0      7.81760      4.63530      0.63576
        18         0         0         0      9.70720      4.63530      0.73676
        19         0         0         0      9.02168      4.53370      0.69505
        20         0         0         0      9.37747      4.53370      0.69810
        21         0         0         0      8.56214      3.82250      0.69839
        22         0         0         0      9.24877      3.82250      0.69834
        23         0         0         0      8.12068      3.06050      0.70675
        24         0         0         0      9.10008      3.06050      0.70036
        25         0         0         0      7.43669      2.01910      0.71479
        26         0         0         0      8.88655      1.99370      0.70320
        27         0         0         0      7.48304      1.08778      0.75700
        28         0         0         0      8.36919      1.08570      0.73723
        29         0         0         0     12.54050      2.55219      0.07744
        30         0         0         0     12.83915      2.43623     -0.02122
        31         0         0         0     11.03013      1.02766      0.96333
        32         0         0         0     13.00227      0.87670      0.19341
        33         0         0         0     11.19392      0.04761      2.07857
        34         0         0         0     11.85028      0.05765      1.81122
        35         0         0         0     12.28934      0.02106      3.57360
        36         0         0         0     12.60714      0.02271      3.57360
    -1
    -1
    55                                                                          
Mode 1                                                                          
EMA                                                                             
Displacement shapes (Uz only)                                                   
LoadCase 1                                                                      
                                                                                
         1         2         2         8         2         3
         2         4         1         1
  8.80612e+00  0.00000e+00  0.00000e+00  0.00000e+00
         1
  0.00000e+00  0.00000e+00  5.14725e-01
         2
  0.00000e+00  0.00000e+00  2.45393e-01
         3
  0.00000e+00  0.00000e+00  2.77703e-01
         4
  0.00000e+00  0.00000e+00  2.55240e-01
         5
  0.00000e+00  0.00000e+00  1.61909e-01
         6
  0.00000e+00  0.00000e+00  1.57746e-01
         7
  0.00000e+00  0.00000e+00  7.76462e-02
         8
  0.00000e+00  0.00000e+00  8.21709e-02
         9
  0.00000e+00  0.00000e+00  1.47320e-02
        10
  0.00000e+00  0.00000e+00  1.92348e-02
        11
  0.00000e+00  0.00000e+00 -8.12279e-03
        12
  0.00000e+00  0.00000e+00 -7.88505e-03
        13
  0.00000e+00  0.00000e+00 -2.93297e-02
        14
  0.00000e+00  0.00000e+00 -3.00623e-02
        15
  0.00000e+00  0.00000e+00 -1.72569e-02
        16
  0.00000e+00  0.00000e+00 -2.56442e-02
        17
  0.00000e+00  0.00000e+00  4.76843e-01
        18
  0.00000e+00  0.00000e+00  2.36842e-01
        19
  0.00000e+00  0.00000e+00  2.58732e-01
        20
  0.00000e+00  0.00000e+00  2.37203e-01
        21
  0.00000e+00  0.00000e+00  1.50994e-01
        22
  0.00000e+00  0.00000e+00  1.44237e-01
        23
  0.00000e+00  0.00000e+00  7.30240e-02
        24
  0.00000e+00  0.00000e+00  7.83225e-02
        25
  0.00000e+00  0.00000e+00  1.61969e-02
        26
  0.00000e+00  0.00000e+00  2.35271e-02
        27
  0.00000e+00  0.00000e+00 -6.65548e-03
        28
  0.00000e+00  0.00000e+00 -7.15702e-03
        29
  0.00000e+00  0.00000e+00 -2.83080e-02
        30
  0.00000e+00  0.00000e+00 -2.90784e-02
        31
  0.00000e+00  0.00000e+00 -1.61639e-02
        32
  0.00000e+00  0.00000e+00 -2.61087e-02
        33
  0.00000e+00  0.00000e+00  1.52255e-03
        34
  0.00000e+00  0.00000e+00  7.58946e-05
        35
  0.00000e+00  0.00000e+00  1.84545e-03
        36
  0.00000e+00  0.00000e+00  1.42330e-03
    -1
    -1
    55                                                                          
Mode 2                                                                          
EMA                                                                             
Displacement shapes (Uz only)                                                   
LoadCase 1                                                                      
                                                                                
         1         2         2         8         2         3
         2         4         1         2
  1.32344e+01  0.00000e+00  0.00000e+00  0.00000e+00
         1
  0.00000e+00  0.00000e+00 -4.18487e-01
         2
  0.00000e+00  0.00000e+00  4.03742e-01
         3
  0.00000e+00  0.00000e+00  1.73919e-01
         4
  0.00000e+00  0.00000e+00  2.73393e-01
         5
  0.00000e+00  0.00000e+00  8.53892e-02
         6
  0.00000e+00  0.00000e+00  1.64094e-01
         7
  0.00000e+00  0.00000e+00  6.41286e-02
         8
  0.00000e+00  0.00000e+00  9.96097e-02
         9
  0.00000e+00  0.00000e+00  2.95606e-02
        10
  0.00000e+00  0.00000e+00  4.14794e-02
        11
  0.00000e+00  0.00000e+00  7.35238e-03
        12
  0.00000e+00  0.00000e+00  6.75716e-03
        13
  0.00000e+00  0.00000e+00 -3.49970e-02
        14
  0.00000e+00  0.00000e+00 -3.80650e-02
        15
  0.00000e+00  0.00000e+00 -1.05743e-02
        16
  0.00000e+00  0.00000e+00 -2.96945e-02
        17
  0.00000e+00  0.00000e+00 -3.97013e-01
        18
  0.00000e+00  0.00000e+00  4.13393e-01
        19
  0.00000e+00  0.00000e+00  1.81621e-01
        20
  0.00000e+00  0.00000e+00  2.83605e-01
        21
  0.00000e+00  0.00000e+00  8.95891e-02
        22
  0.00000e+00  0.00000e+00  1.66995e-01
        23
  0.00000e+00  0.00000e+00  5.89511e-02
        24
  0.00000e+00  0.00000e+00  1.00098e-01
        25
  0.00000e+00  0.00000e+00  2.51611e-02
        26
  0.00000e+00  0.00000e+00  4.17158e-02
        27
  0.00000e+00  0.00000e+00  4.12382e-03
        28
  0.00000e+00  0.00000e+00  3.67076e-03
        29
  0.00000e+00  0.00000e+00 -5.39116e-02
        30
  0.00000e+00  0.00000e+00 -5.67408e-02
        31
  0.00000e+00  0.00000e+00 -1.24042e-02
        32
  0.00000e+00  0.00000e+00 -3.83965e-02
        33
  0.00000e+00  0.00000e+00 -2.81418e-03
        34
  0.00000e+00  0.00000e+00 -3.71243e-03
        35
  0.00000e+00  0.00000e+00 -1.77166e-02
        36
  0.00000e+00  0.00000e+00 -2.05623e-02
    -1
    -1
    55                                                                          
Mode 3                                                                          
EMA                                                                             
Displacement shapes (Uz only)                                                   
LoadCase 1                                                                      
                                                                                
         1         2         2         8         2         3
         2         4         1         3
  2.78166e+01  0.00000e+00  0.00000e+00  0.00000e+00
         1
  0.00000e+00  0.00000e+00  5.98652e-02
         2
  0.00000e+00  0.00000e+00  5.37993e-01
         3
  0.00000e+00  0.00000e+00  1.96756e-01
         4
  0.00000e+00  0.00000e+00  3.05229e-01
         5
  0.00000e+00  0.00000e+00 -8.67501e-02
         6
  0.00000e+00  0.00000e+00 -3.81276e-02
         7
  0.00000e+00  0.00000e+00 -1.47337e-01
         8
  0.00000e+00  0.00000e+00 -1.14827e-01
         9
  0.00000e+00  0.00000e+00 -4.02455e-02
        10
  0.00000e+00  0.00000e+00 -6.67433e-02
        11
  0.00000e+00  0.00000e+00 -5.31351e-03
        12
  0.00000e+00  0.00000e+00 -1.87763e-02
        13
  0.00000e+00  0.00000e+00  8.93379e-02
        14
  0.00000e+00  0.00000e+00  1.12191e-01
        15
  0.00000e+00  0.00000e+00  1.86151e-02
        16
  0.00000e+00  0.00000e+00  3.20433e-02
        17
  0.00000e+00  0.00000e+00  3.05641e-01
        18
  0.00000e+00  0.00000e+00  4.69577e-01
        19
  0.00000e+00  0.00000e+00  1.78568e-01
        20
  0.00000e+00  0.00000e+00  2.51016e-01
        21
  0.00000e+00  0.00000e+00 -1.08187e-01
        22
  0.00000e+00  0.00000e+00 -8.22562e-02
        23
  0.00000e+00  0.00000e+00 -1.53183e-01
        24
  0.00000e+00  0.00000e+00 -1.35488e-01
        25
  0.00000e+00  0.00000e+00 -4.42910e-02
        26
  0.00000e+00  0.00000e+00 -6.70196e-02
        27
  0.00000e+00  0.00000e+00 -5.35642e-04
        28
  0.00000e+00  0.00000e+00 -1.45863e-02
        29
  0.00000e+00  0.00000e+00  1.01953e-01
        30
  0.00000e+00  0.00000e+00  1.22212e-01
        31
  0.00000e+00  0.00000e+00  8.66821e-03
        32
  0.00000e+00  0.00000e+00  3.66087e-02
        33
  0.00000e+00  0.00000e+00 -7.43799e-03
        34
  0.00000e+00  0.00000e+00 -3.58679e-03
        35
  0.00000e+00  0.00000e+00  5.27668e-03
        36
  0.00000e+00  0.00000e+00  1.47582e-02
    -1
    -1
    55                                                                          
Mode 4                                                                          
EMA                                                                             
Displacement shapes (Uz only)                                                   
LoadCase 1                                                                      
                                                                                
         1         2         2         8         2         3
         2         4         1         4
  3.09504e+01  0.00000e+00  0.00000e+00  0.00000e+00
         1
  0.00000e+00  0.00000e+00  7.19859e-02
         2
  0.00000e+00  0.00000e+00  4.29439e-01
         3
  0.00000e+00  0.00000e+00  2.45967e-01
         4
  0.00000e+00  0.00000e+00  3.05220e-01
         5
  0.00000e+00  0.00000e+00 -9.00001e-02
         6
  0.00000e+00  0.00000e+00 -3.62604e-02
         7
  0.00000e+00  0.00000e+00 -2.20759e-01
         8
  0.00000e+00  0.00000e+00 -1.67375e-01
         9
  0.00000e+00  0.00000e+00 -1.03019e-01
        10
  0.00000e+00  0.00000e+00 -8.18789e-02
        11
  0.00000e+00  0.00000e+00  1.43102e-02
        12
  0.00000e+00  0.00000e+00  2.23820e-02
        13
  0.00000e+00  0.00000e+00 -1.24257e-01
        14
  0.00000e+00  0.00000e+00 -1.58211e-01
        15
  0.00000e+00  0.00000e+00  1.63921e-03
        16
  0.00000e+00  0.00000e+00 -4.43937e-02
        17
  0.00000e+00  0.00000e+00 -1.29240e-01
        18
  0.00000e+00  0.00000e+00  4.88240e-01
        19
  0.00000e+00  0.00000e+00  2.11467e-01
        20
  0.00000e+00  0.00000e+00  3.13463e-01
        21
  0.00000e+00  0.00000e+00 -1.02203e-01
        22
  0.00000e+00  0.00000e+00 -1.62286e-02
        23
  0.00000e+00  0.00000e+00 -2.07026e-01
        24
  0.00000e+00  0.00000e+00 -1.24306e-01
        25
  0.00000e+00  0.00000e+00 -1.08376e-01
        26
  0.00000e+00  0.00000e+00 -5.77754e-02
        27
  0.00000e+00  0.00000e+00  1.10716e-02
        28
  0.00000e+00  0.00000e+00  2.08316e-02
        29
  0.00000e+00  0.00000e+00 -1.01274e-01
        30
  0.00000e+00  0.00000e+00 -1.24847e-01
        31
  0.00000e+00  0.00000e+00 -1.10866e-02
        32
  0.00000e+00  0.00000e+00 -3.66724e-02
        33
  0.00000e+00  0.00000e+00  3.10042e-03
        34
  0.00000e+00  0.00000e+00  3.41082e-04
        35
  0.00000e+00  0.00000e+00  7.88888e-03
        36
  0.00000e+00  0.00000e+00  2.87660e-03
    -1
