    -1
    15
         1         0         0         0      9.02168     -4.53370      0.69505
         2         0         0         0      9.37747     -4.53370      0.69810
         3         0         0         0      8.56214     -3.82250      0.69839
         4         0         0         0      9.24877     -3.82250      0.69834
         5         0         0         0      8.12068     -3.06050      0.70675
         6         0         0         0      9.10008     -3.06050      0.70036
         7         0         0         0      7.43669     -2.01910      0.71479
         8         0         0         0      8.88655     -1.99370      0.70320
         9         0         0         0      7.48304     -1.08778      0.75700
        10         0         0         0      8.36919     -1.08570      0.73723
        11         0         0         0      9.02168      4.53370      0.69505
        12         0         0         0      9.37747      4.53370      0.69810
        13         0         0         0      8.56214      3.82250      0.69839
        14         0         0         0      9.24877      3.82250      0.69834
        15         0         0         0      8.12068      3.06050      0.70675
        16         0         0         0      9.10008      3.06050      0.70036
        17         0         0         0      7.43669      2.01910      0.71479
        18         0         0         0      8.88655      1.99370      0.70320
        19         0         0         0      7.48304      1.08778      0.75700
        20         0         0         0      8.36919      1.08570      0.73723
    -1
    -1
    55                                                                          
Mode 1                                                                          
EMA                                                                             
Acceleration shapes (Uz only)                                                   
LoadCase 1                                                                      
                                                                                
         1         2         2        12         2         3
         2         4         1         1
  8.81010e+00  0.00000e+00  0.00000e+00  0.00000e+00
         1
  0.00000e+00  0.00000e+00  4.46693e-01
         2
  0.00000e+00  0.00000e+00  4.04456e-01
         3
  0.00000e+00  0.00000e+00  2.67826e-01
         4
  0.00000e+00  0.00000e+00  2.58530e-01
         5
  0.00000e+00  0.00000e+00  1.21623e-01
         6
  0.00000e+00  0.00000e+00  1.32969e-01
         7
  0.00000e+00  0.00000e+00  1.76909e-02
         8
  0.00000e+00  0.00000e+00  2.88230e-02
         9
  0.00000e+00  0.00000e+00 -1.32369e-02
        10
  0.00000e+00  0.00000e+00 -1.27285e-02
        11
  0.00000e+00  0.00000e+00  4.17988e-01
        12
  0.00000e+00  0.00000e+00  3.76153e-01
        13
  0.00000e+00  0.00000e+00  2.50112e-01
        14
  0.00000e+00  0.00000e+00  2.34147e-01
        15
  0.00000e+00  0.00000e+00  1.14906e-01
        16
  0.00000e+00  0.00000e+00  1.25037e-01
        17
  0.00000e+00  0.00000e+00  2.07402e-02
        18
  0.00000e+00  0.00000e+00  3.55349e-02
        19
  0.00000e+00  0.00000e+00 -1.06005e-02
        20
  0.00000e+00  0.00000e+00 -1.13788e-02
    -1
    -1
    55                                                                          
Mode 2                                                                          
EMA                                                                             
Acceleration shapes (Uz only)                                                   
LoadCase 1                                                                      
                                                                                
         1         2         2        12         2         3
         2         4         1         2
  1.32423e+01  0.00000e+00  0.00000e+00  0.00000e+00
         1
  0.00000e+00  0.00000e+00  3.10177e-01
         2
  0.00000e+00  0.00000e+00  4.70179e-01
         3
  0.00000e+00  0.00000e+00  1.69625e-01
         4
  0.00000e+00  0.00000e+00  3.04426e-01
         5
  0.00000e+00  0.00000e+00  1.04163e-01
         6
  0.00000e+00  0.00000e+00  1.77504e-01
         7
  0.00000e+00  0.00000e+00  3.48419e-02
         8
  0.00000e+00  0.00000e+00  6.70772e-02
         9
  0.00000e+00  0.00000e+00  1.24212e-02
        10
  0.00000e+00  0.00000e+00  1.18275e-02
        11
  0.00000e+00  0.00000e+00  3.27051e-01
        12
  0.00000e+00  0.00000e+00  4.88430e-01
        13
  0.00000e+00  0.00000e+00  1.77079e-01
        14
  0.00000e+00  0.00000e+00  3.01827e-01
        15
  0.00000e+00  0.00000e+00  9.73375e-02
        16
  0.00000e+00  0.00000e+00  1.73394e-01
        17
  0.00000e+00  0.00000e+00  2.95026e-02
        18
  0.00000e+00  0.00000e+00  6.64897e-02
        19
  0.00000e+00  0.00000e+00  7.16076e-03
        20
  0.00000e+00  0.00000e+00  6.66258e-03
    -1
    -1
    55                                                                          
Mode 3                                                                          
EMA                                                                             
Acceleration shapes (Uz only)                                                   
LoadCase 1                                                                      
                                                                                
         1         2         2        12         2         3
         2         4         1         3
  1.45012e+01  0.00000e+00  0.00000e+00  0.00000e+00
         1
  0.00000e+00  0.00000e+00  2.62842e-01
         2
  0.00000e+00  0.00000e+00  1.10791e-01
         3
  0.00000e+00  0.00000e+00  4.69982e-01
         4
  0.00000e+00  0.00000e+00  4.94995e-01
         5
  0.00000e+00  0.00000e+00 -5.11092e-02
         6
  0.00000e+00  0.00000e+00  2.03304e-01
         7
  0.00000e+00  0.00000e+00 -2.71273e-01
         8
  0.00000e+00  0.00000e+00 -4.85163e-02
         9
  0.00000e+00  0.00000e+00 -2.97339e-02
        10
  0.00000e+00  0.00000e+00 -2.33484e-02
        11
  0.00000e+00  0.00000e+00 -6.92104e-02
        12
  0.00000e+00  0.00000e+00 -4.35674e-01
        13
  0.00000e+00  0.00000e+00  3.00976e-01
        14
  0.00000e+00  0.00000e+00  5.82344e-02
        15
  0.00000e+00  0.00000e+00 -5.37253e-02
        16
  0.00000e+00  0.00000e+00 -2.73642e-02
        17
  0.00000e+00  0.00000e+00 -1.78942e-01
        18
  0.00000e+00  0.00000e+00 -7.81386e-02
        19
  0.00000e+00  0.00000e+00  2.34568e-02
        20
  0.00000e+00  0.00000e+00  2.29950e-02
    -1
    -1
    55                                                                          
Mode 4                                                                          
EMA                                                                             
Acceleration shapes (Uz only)                                                   
LoadCase 1                                                                      
                                                                                
         1         2         2        12         2         3
         2         4         1         4
  1.50618e+01  0.00000e+00  0.00000e+00  0.00000e+00
         1
  0.00000e+00  0.00000e+00  2.58068e-01
         2
  0.00000e+00  0.00000e+00  5.44788e-01
         3
  0.00000e+00  0.00000e+00 -2.89349e-01
         4
  0.00000e+00  0.00000e+00 -5.83188e-02
         5
  0.00000e+00  0.00000e+00  3.71285e-02
         6
  0.00000e+00  0.00000e+00 -4.83956e-02
         7
  0.00000e+00  0.00000e+00  1.05860e-01
         8
  0.00000e+00  0.00000e+00  2.32118e-02
         9
  0.00000e+00  0.00000e+00 -1.02044e-01
        10
  0.00000e+00  0.00000e+00 -7.94861e-02
        11
  0.00000e+00  0.00000e+00  2.53997e-01
        12
  0.00000e+00  0.00000e+00  5.88374e-01
        13
  0.00000e+00  0.00000e+00 -2.52879e-01
        14
  0.00000e+00  0.00000e+00  9.40371e-02
        15
  0.00000e+00  0.00000e+00  2.55269e-02
        16
  0.00000e+00  0.00000e+00  6.09158e-02
        17
  0.00000e+00  0.00000e+00  7.94621e-02
        18
  0.00000e+00  0.00000e+00  5.02825e-02
        19
  0.00000e+00  0.00000e+00 -1.12953e-01
        20
  0.00000e+00  0.00000e+00 -8.85032e-02
    -1
    -1
    55                                                                          
Mode 5                                                                          
EMA                                                                             
Acceleration shapes (Uz only)                                                   
LoadCase 1                                                                      
                                                                                
         1         2         2        12         2         3
         2         4         1         5
  2.77830e+01  0.00000e+00  0.00000e+00  0.00000e+00
         1
  0.00000e+00  0.00000e+00 -2.55508e-01
         2
  0.00000e+00  0.00000e+00 -4.77608e-01
         3
  0.00000e+00  0.00000e+00  3.39773e-01
         4
  0.00000e+00  0.00000e+00  1.95403e-01
         5
  0.00000e+00  0.00000e+00  1.83820e-01
         6
  0.00000e+00  0.00000e+00  2.30883e-01
         7
  0.00000e+00  0.00000e+00 -6.84565e-02
         8
  0.00000e+00  0.00000e+00  7.10831e-02
         9
  0.00000e+00  0.00000e+00  1.30563e-03
        10
  0.00000e+00  0.00000e+00  3.60720e-02
        11
  0.00000e+00  0.00000e+00 -2.00844e-01
        12
  0.00000e+00  0.00000e+00 -3.29866e-01
        13
  0.00000e+00  0.00000e+00  3.77610e-01
        14
  0.00000e+00  0.00000e+00  2.42934e-01
        15
  0.00000e+00  0.00000e+00  2.03140e-01
        16
  0.00000e+00  0.00000e+00  2.35553e-01
        17
  0.00000e+00  0.00000e+00 -6.05809e-02
        18
  0.00000e+00  0.00000e+00  5.67506e-02
        19
  0.00000e+00  0.00000e+00 -1.54015e-02
        20
  0.00000e+00  0.00000e+00  1.43020e-02
    -1
    -1
    55                                                                          
Mode 6                                                                          
EMA                                                                             
Acceleration shapes (Uz only)                                                   
LoadCase 1                                                                      
                                                                                
         1         2         2        12         2         3
         2         4         1         6
  2.91213e+01  0.00000e+00  0.00000e+00  0.00000e+00
         1
  0.00000e+00  0.00000e+00  4.93783e-02
         2
  0.00000e+00  0.00000e+00  2.18111e-01
         3
  0.00000e+00  0.00000e+00 -5.50877e-01
         4
  0.00000e+00  0.00000e+00 -3.11326e-01
         5
  0.00000e+00  0.00000e+00  2.43194e-02
         6
  0.00000e+00  0.00000e+00 -1.87572e-01
         7
  0.00000e+00  0.00000e+00  2.67869e-01
         8
  0.00000e+00  0.00000e+00  7.09322e-02
         9
  0.00000e+00  0.00000e+00  2.25410e-02
        10
  0.00000e+00  0.00000e+00  1.58407e-02
        11
  0.00000e+00  0.00000e+00 -1.32988e-01
        12
  0.00000e+00  0.00000e+00  7.03595e-02
        13
  0.00000e+00  0.00000e+00 -5.36796e-01
        14
  0.00000e+00  0.00000e+00 -1.30574e-01
        15
  0.00000e+00  0.00000e+00  5.39666e-02
        16
  0.00000e+00  0.00000e+00  2.07501e-02
        17
  0.00000e+00  0.00000e+00  2.75261e-01
        18
  0.00000e+00  0.00000e+00  1.61279e-01
        19
  0.00000e+00  0.00000e+00  3.68316e-02
        20
  0.00000e+00  0.00000e+00  4.43459e-02
    -1
    -1
    55                                                                          
Mode 7                                                                          
EMA                                                                             
Acceleration shapes (Uz only)                                                   
LoadCase 1                                                                      
                                                                                
         1         2         2        12         2         3
         2         4         1         7
  3.12363e+01  0.00000e+00  0.00000e+00  0.00000e+00
         1
  0.00000e+00  0.00000e+00  3.61783e-01
         2
  0.00000e+00  0.00000e+00  4.25293e-01
         3
  0.00000e+00  0.00000e+00 -1.07739e-01
         4
  0.00000e+00  0.00000e+00 -4.08995e-02
         5
  0.00000e+00  0.00000e+00 -3.12392e-01
         6
  0.00000e+00  0.00000e+00 -2.45782e-01
         7
  0.00000e+00  0.00000e+00 -1.63427e-01
         8
  0.00000e+00  0.00000e+00 -1.29214e-01
         9
  0.00000e+00  0.00000e+00  1.76274e-02
        10
  0.00000e+00  0.00000e+00  3.05010e-02
        11
  0.00000e+00  0.00000e+00  3.20012e-01
        12
  0.00000e+00  0.00000e+00  4.42837e-01
        13
  0.00000e+00  0.00000e+00 -1.20203e-01
        14
  0.00000e+00  0.00000e+00 -1.34416e-02
        15
  0.00000e+00  0.00000e+00 -2.91517e-01
        16
  0.00000e+00  0.00000e+00 -1.85081e-01
        17
  0.00000e+00  0.00000e+00 -1.72525e-01
        18
  0.00000e+00  0.00000e+00 -9.74790e-02
        19
  0.00000e+00  0.00000e+00  9.26963e-03
        20
  0.00000e+00  0.00000e+00  2.41550e-02
    -1
