    -1
    15
         1         0         0         0      7.81760     -4.63530      0.63576
         2         0         0         0      9.70720     -4.63530      0.73676
         3         0         0         0      9.02168     -4.53370      0.69505
         4         0         0         0      9.37747     -4.53370      0.69810
         5         0         0         0      8.56214     -3.82250      0.69839
         6         0         0         0      9.24877     -3.82250      0.69834
         7         0         0         0      8.12068     -3.06050      0.70675
         8         0         0         0      9.10008     -3.06050      0.70036
         9         0         0         0      7.43669     -2.01910      0.71479
        10         0         0         0      8.88655     -1.99370      0.70320
        11         0         0         0      7.48304     -1.08778      0.75700
        12         0         0         0      8.36919     -1.08570      0.73723
        13         0         0         0      7.81760      4.63530      0.63576
        14         0         0         0      9.70720      4.63530      0.73676
        15         0         0         0      9.02168      4.53370      0.69505
        16         0         0         0      9.37747      4.53370      0.69810
        17         0         0         0      8.56214      3.82250      0.69839
        18         0         0         0      9.24877      3.82250      0.69834
        19         0         0         0      8.12068      3.06050      0.70675
        20         0         0         0      9.10008      3.06050      0.70036
        21         0         0         0      7.43669      2.01910      0.71479
        22         0         0         0      8.88655      1.99370      0.70320
        23         0         0         0      7.48304      1.08778      0.75700
        24         0         0         0      8.36919      1.08570      0.73723
    -1
    -1
    55                                                                          
Mode 1                                                                          
EMA                                                                             
Wing acceleration shapes (Uz only)                                              
LoadCase 1                                                                      
                                                                                
         1         2         2        12         2         3
         2         4         1         1
  8.80612e+00  0.00000e+00  0.00000e+00  0.00000e+00
         1
  0.00000e+00  0.00000e+00 -5.13902e-01
         2
  0.00000e+00  0.00000e+00 -2.33610e-01
         3
  0.00000e+00  0.00000e+00 -2.82471e-01
         4
  0.00000e+00  0.00000e+00 -2.55510e-01
         5
  0.00000e+00  0.00000e+00 -1.69817e-01
         6
  0.00000e+00  0.00000e+00 -1.64099e-01
         7
  0.00000e+00  0.00000e+00 -7.68717e-02
         8
  0.00000e+00  0.00000e+00 -8.42965e-02
         9
  0.00000e+00  0.00000e+00 -1.07784e-02
        10
  0.00000e+00  0.00000e+00 -1.81362e-02
        11
  0.00000e+00  0.00000e+00  8.39329e-03
        12
  0.00000e+00  0.00000e+00  8.07661e-03
        13
  0.00000e+00  0.00000e+00 -4.73516e-01
        14
  0.00000e+00  0.00000e+00 -2.25860e-01
        15
  0.00000e+00  0.00000e+00 -2.64416e-01
        16
  0.00000e+00  0.00000e+00 -2.37740e-01
        17
  0.00000e+00  0.00000e+00 -1.58683e-01
        18
  0.00000e+00  0.00000e+00 -1.48634e-01
        19
  0.00000e+00  0.00000e+00 -7.26975e-02
        20
  0.00000e+00  0.00000e+00 -7.92344e-02
        21
  0.00000e+00  0.00000e+00 -1.28607e-02
        22
  0.00000e+00  0.00000e+00 -2.23863e-02
        23
  0.00000e+00  0.00000e+00  6.71381e-03
        24
  0.00000e+00  0.00000e+00  7.18944e-03
    -1
    -1
    55                                                                          
Mode 2                                                                          
EMA                                                                             
Wing acceleration shapes (Uz only)                                              
LoadCase 1                                                                      
                                                                                
         1         2         2        12         2         3
         2         4         1         2
  1.13183e+01  0.00000e+00  0.00000e+00  0.00000e+00
         1
  0.00000e+00  0.00000e+00  2.63262e-01
         2
  0.00000e+00  0.00000e+00  5.75385e-01
         3
  0.00000e+00  0.00000e+00  1.21473e-02
         4
  0.00000e+00  0.00000e+00  1.56450e-01
         5
  0.00000e+00  0.00000e+00 -1.84661e-01
         6
  0.00000e+00  0.00000e+00 -1.11658e-01
         7
  0.00000e+00  0.00000e+00  9.89414e-02
         8
  0.00000e+00  0.00000e+00 -1.82619e-02
         9
  0.00000e+00  0.00000e+00  1.53637e-01
        10
  0.00000e+00  0.00000e+00  5.43713e-02
        11
  0.00000e+00  0.00000e+00  5.21243e-04
        12
  0.00000e+00  0.00000e+00  8.49073e-04
        13
  0.00000e+00  0.00000e+00  3.44423e-01
        14
  0.00000e+00  0.00000e+00  5.37369e-01
        15
  0.00000e+00  0.00000e+00 -2.51794e-02
        16
  0.00000e+00  0.00000e+00  1.38125e-01
        17
  0.00000e+00  0.00000e+00 -1.84636e-01
        18
  0.00000e+00  0.00000e+00 -5.33488e-02
        19
  0.00000e+00  0.00000e+00  7.28119e-02
        20
  0.00000e+00  0.00000e+00  1.71729e-02
        21
  0.00000e+00  0.00000e+00  1.28870e-01
        22
  0.00000e+00  0.00000e+00  5.22415e-02
        23
  0.00000e+00  0.00000e+00 -7.71744e-03
        24
  0.00000e+00  0.00000e+00 -7.66568e-03
    -1
    -1
    55                                                                          
Mode 3                                                                          
EMA                                                                             
Wing acceleration shapes (Uz only)                                              
LoadCase 1                                                                      
                                                                                
         1         2         2        12         2         3
         2         4         1         3
  1.32329e+01  0.00000e+00  0.00000e+00  0.00000e+00
         1
  0.00000e+00  0.00000e+00 -4.42402e-01
         2
  0.00000e+00  0.00000e+00  3.75475e-01
         3
  0.00000e+00  0.00000e+00  1.75517e-01
         4
  0.00000e+00  0.00000e+00  2.67933e-01
         5
  0.00000e+00  0.00000e+00  9.59092e-02
         6
  0.00000e+00  0.00000e+00  1.73914e-01
         7
  0.00000e+00  0.00000e+00  6.18937e-02
         8
  0.00000e+00  0.00000e+00  1.02595e-01
         9
  0.00000e+00  0.00000e+00  2.14094e-02
        10
  0.00000e+00  0.00000e+00  3.93070e-02
        11
  0.00000e+00  0.00000e+00  6.90547e-03
        12
  0.00000e+00  0.00000e+00  6.64181e-03
        13
  0.00000e+00  0.00000e+00 -4.23340e-01
        14
  0.00000e+00  0.00000e+00  3.84521e-01
        15
  0.00000e+00  0.00000e+00  1.85342e-01
        16
  0.00000e+00  0.00000e+00  2.77950e-01
        17
  0.00000e+00  0.00000e+00  1.00158e-01
        18
  0.00000e+00  0.00000e+00  1.71995e-01
        19
  0.00000e+00  0.00000e+00  5.75029e-02
        20
  0.00000e+00  0.00000e+00  9.95282e-02
        21
  0.00000e+00  0.00000e+00  1.82948e-02
        22
  0.00000e+00  0.00000e+00  3.84344e-02
        23
  0.00000e+00  0.00000e+00  3.89864e-03
        24
  0.00000e+00  0.00000e+00  3.60149e-03
    -1
    -1
    55                                                                          
Mode 4                                                                          
EMA                                                                             
Wing acceleration shapes (Uz only)                                              
LoadCase 1                                                                      
                                                                                
         1         2         2        12         2         3
         2         4         1         4
  1.44967e+01  0.00000e+00  0.00000e+00  0.00000e+00
         1
  0.00000e+00  0.00000e+00  4.43684e-01
         2
  0.00000e+00  0.00000e+00  1.02965e-01
         3
  0.00000e+00  0.00000e+00 -1.60233e-01
         4
  0.00000e+00  0.00000e+00 -1.22296e-01
         5
  0.00000e+00  0.00000e+00 -1.83248e-01
         6
  0.00000e+00  0.00000e+00 -2.27260e-01
         7
  0.00000e+00  0.00000e+00  2.84439e-02
         8
  0.00000e+00  0.00000e+00 -8.48061e-02
         9
  0.00000e+00  0.00000e+00  1.16235e-01
        10
  0.00000e+00  0.00000e+00  2.07722e-02
        11
  0.00000e+00  0.00000e+00  1.65397e-02
        12
  0.00000e+00  0.00000e+00  1.33967e-02
        13
  0.00000e+00  0.00000e+00  1.90067e-01
        14
  0.00000e+00  0.00000e+00  6.00508e-01
        15
  0.00000e+00  0.00000e+00  8.05650e-02
        16
  0.00000e+00  0.00000e+00  2.43162e-01
        17
  0.00000e+00  0.00000e+00 -7.81402e-02
        18
  0.00000e+00  0.00000e+00  1.39716e-02
        19
  0.00000e+00  0.00000e+00  3.24268e-02
        20
  0.00000e+00  0.00000e+00  2.98955e-02
        21
  0.00000e+00  0.00000e+00  6.54417e-02
        22
  0.00000e+00  0.00000e+00  3.12004e-02
        23
  0.00000e+00  0.00000e+00 -1.45808e-02
        24
  0.00000e+00  0.00000e+00 -1.44269e-02
    -1
    -1
    55                                                                          
Mode 5                                                                          
EMA                                                                             
Wing acceleration shapes (Uz only)                                              
LoadCase 1                                                                      
                                                                                
         1         2         2        12         2         3
         2         4         1         5
  1.50603e+01  0.00000e+00  0.00000e+00  0.00000e+00
         1
  0.00000e+00  0.00000e+00  6.52283e-02
         2
  0.00000e+00  0.00000e+00  5.48171e-01
         3
  0.00000e+00  0.00000e+00  1.11794e-01
         4
  0.00000e+00  0.00000e+00  2.40790e-01
         5
  0.00000e+00  0.00000e+00 -1.11899e-01
         6
  0.00000e+00  0.00000e+00 -2.27775e-03
         7
  0.00000e+00  0.00000e+00  4.25090e-02
         8
  0.00000e+00  0.00000e+00  2.50121e-03
         9
  0.00000e+00  0.00000e+00  5.14833e-02
        10
  0.00000e+00  0.00000e+00  1.82657e-02
        11
  0.00000e+00  0.00000e+00 -5.14184e-02
        12
  0.00000e+00  0.00000e+00 -4.00422e-02
        13
  0.00000e+00  0.00000e+00  1.20637e-01
        14
  0.00000e+00  0.00000e+00  5.63547e-01
        15
  0.00000e+00  0.00000e+00  1.15602e-01
        16
  0.00000e+00  0.00000e+00  2.59168e-01
        17
  0.00000e+00  0.00000e+00 -9.88489e-02
        18
  0.00000e+00  0.00000e+00  5.39893e-02
        19
  0.00000e+00  0.00000e+00  3.20265e-02
        20
  0.00000e+00  0.00000e+00  3.84270e-02
        21
  0.00000e+00  0.00000e+00  4.21967e-02
        22
  0.00000e+00  0.00000e+00  2.54127e-02
        23
  0.00000e+00  0.00000e+00 -5.39984e-02
        24
  0.00000e+00  0.00000e+00 -4.28426e-02
    -1
    -1
    55                                                                          
Mode 6                                                                          
EMA                                                                             
Wing acceleration shapes (Uz only)                                              
LoadCase 1                                                                      
                                                                                
         1         2         2        12         2         3
         2         4         1         6
  1.66914e+01  0.00000e+00  0.00000e+00  0.00000e+00
         1
  0.00000e+00  0.00000e+00 -2.69535e-01
         2
  0.00000e+00  0.00000e+00 -5.44612e-01
         3
  0.00000e+00  0.00000e+00  9.24738e-03
         4
  0.00000e+00  0.00000e+00 -1.32411e-01
         5
  0.00000e+00  0.00000e+00  2.09270e-01
         6
  0.00000e+00  0.00000e+00  1.40168e-01
         7
  0.00000e+00  0.00000e+00 -7.30762e-02
         8
  0.00000e+00  0.00000e+00  3.77963e-02
         9
  0.00000e+00  0.00000e+00 -1.54528e-01
        10
  0.00000e+00  0.00000e+00 -5.15969e-02
        11
  0.00000e+00  0.00000e+00 -3.56962e-03
        12
  0.00000e+00  0.00000e+00 -8.21816e-04
        13
  0.00000e+00  0.00000e+00 -3.43365e-01
        14
  0.00000e+00  0.00000e+00 -5.51269e-01
        15
  0.00000e+00  0.00000e+00  3.14418e-02
        16
  0.00000e+00  0.00000e+00 -1.39686e-01
        17
  0.00000e+00  0.00000e+00  2.08866e-01
        18
  0.00000e+00  0.00000e+00  5.78162e-02
        19
  0.00000e+00  0.00000e+00 -4.95606e-02
        20
  0.00000e+00  0.00000e+00 -1.58406e-02
        21
  0.00000e+00  0.00000e+00 -1.34122e-01
        22
  0.00000e+00  0.00000e+00 -6.18719e-02
        23
  0.00000e+00  0.00000e+00 -1.16783e-03
        24
  0.00000e+00  0.00000e+00  2.00219e-04
    -1
    -1
    55                                                                          
Mode 7                                                                          
EMA                                                                             
Wing acceleration shapes (Uz only)                                              
LoadCase 1                                                                      
                                                                                
         1         2         2        12         2         3
         2         4         1         7
  2.35300e+01  0.00000e+00  0.00000e+00  0.00000e+00
         1
  0.00000e+00  0.00000e+00  2.37659e-01
         2
  0.00000e+00  0.00000e+00  5.02029e-01
         3
  0.00000e+00  0.00000e+00 -2.62300e-02
         4
  0.00000e+00  0.00000e+00  1.10228e-01
         5
  0.00000e+00  0.00000e+00 -2.43233e-01
         6
  0.00000e+00  0.00000e+00 -1.45162e-01
         7
  0.00000e+00  0.00000e+00  5.43737e-02
         8
  0.00000e+00  0.00000e+00 -4.16140e-02
         9
  0.00000e+00  0.00000e+00  1.63528e-01
        10
  0.00000e+00  0.00000e+00  5.71255e-02
        11
  0.00000e+00  0.00000e+00  8.71865e-03
        12
  0.00000e+00  0.00000e+00  2.31782e-03
        13
  0.00000e+00  0.00000e+00  4.23201e-01
        14
  0.00000e+00  0.00000e+00  5.14828e-01
        15
  0.00000e+00  0.00000e+00 -3.15684e-02
        16
  0.00000e+00  0.00000e+00  1.26596e-01
        17
  0.00000e+00  0.00000e+00 -2.49540e-01
        18
  0.00000e+00  0.00000e+00 -5.97494e-02
        19
  0.00000e+00  0.00000e+00  2.69009e-02
        20
  0.00000e+00  0.00000e+00  1.48040e-02
        21
  0.00000e+00  0.00000e+00  1.45280e-01
        22
  0.00000e+00  0.00000e+00  7.65939e-02
        23
  0.00000e+00  0.00000e+00  1.17933e-02
        24
  0.00000e+00  0.00000e+00  1.03533e-02
    -1
    -1
    55                                                                          
Mode 8                                                                          
EMA                                                                             
Wing acceleration shapes (Uz only)                                              
LoadCase 1                                                                      
                                                                                
         1         2         2        12         2         3
         2         4         1         8
  2.77088e+01  0.00000e+00  0.00000e+00  0.00000e+00
         1
  0.00000e+00  0.00000e+00 -1.29905e-01
         2
  0.00000e+00  0.00000e+00 -5.29439e-01
         3
  0.00000e+00  0.00000e+00 -1.90556e-01
         4
  0.00000e+00  0.00000e+00 -2.87531e-01
         5
  0.00000e+00  0.00000e+00  9.80275e-02
         6
  0.00000e+00  0.00000e+00  6.74266e-02
         7
  0.00000e+00  0.00000e+00  1.50149e-01
         8
  0.00000e+00  0.00000e+00  1.32453e-01
         9
  0.00000e+00  0.00000e+00  2.59804e-02
        10
  0.00000e+00  0.00000e+00  7.05287e-02
        11
  0.00000e+00  0.00000e+00  2.29713e-03
        12
  0.00000e+00  0.00000e+00  1.98949e-02
        13
  0.00000e+00  0.00000e+00 -3.93771e-01
        14
  0.00000e+00  0.00000e+00 -4.42086e-01
        15
  0.00000e+00  0.00000e+00 -1.55879e-01
        16
  0.00000e+00  0.00000e+00 -2.27923e-01
        17
  0.00000e+00  0.00000e+00  1.25323e-01
        18
  0.00000e+00  0.00000e+00  9.30127e-02
        19
  0.00000e+00  0.00000e+00  1.54724e-01
        20
  0.00000e+00  0.00000e+00  1.29924e-01
        21
  0.00000e+00  0.00000e+00  2.89869e-02
        22
  0.00000e+00  0.00000e+00  5.58172e-02
        23
  0.00000e+00  0.00000e+00 -6.41685e-03
        24
  0.00000e+00  0.00000e+00  1.01699e-02
    -1
    -1
    55                                                                          
Mode 9                                                                          
EMA                                                                             
Wing acceleration shapes (Uz only)                                              
LoadCase 1                                                                      
                                                                                
         1         2         2        12         2         3
         2         4         1         9
  2.91081e+01  0.00000e+00  0.00000e+00  0.00000e+00
         1
  0.00000e+00  0.00000e+00  2.07797e-01
         2
  0.00000e+00  0.00000e+00  2.53793e-01
         3
  0.00000e+00  0.00000e+00 -1.30398e-01
         4
  0.00000e+00  0.00000e+00 -5.38679e-02
         5
  0.00000e+00  0.00000e+00 -2.01493e-01
         6
  0.00000e+00  0.00000e+00 -1.16158e-01
         7
  0.00000e+00  0.00000e+00  1.55472e-01
         8
  0.00000e+00  0.00000e+00  3.75146e-02
         9
  0.00000e+00  0.00000e+00  2.07089e-01
        10
  0.00000e+00  0.00000e+00  1.02737e-01
        11
  0.00000e+00  0.00000e+00  2.90750e-03
        12
  0.00000e+00  0.00000e+00 -3.15108e-03
        13
  0.00000e+00  0.00000e+00  4.63048e-01
        14
  0.00000e+00  0.00000e+00  7.99575e-02
        15
  0.00000e+00  0.00000e+00 -2.03899e-01
        16
  0.00000e+00  0.00000e+00 -1.14678e-01
        17
  0.00000e+00  0.00000e+00 -2.10509e-01
        18
  0.00000e+00  0.00000e+00 -3.47891e-02
        19
  0.00000e+00  0.00000e+00  1.46829e-01
        20
  0.00000e+00  0.00000e+00  1.14209e-01
        21
  0.00000e+00  0.00000e+00  2.18297e-01
        22
  0.00000e+00  0.00000e+00  1.40530e-01
        23
  0.00000e+00  0.00000e+00  2.34288e-02
        24
  0.00000e+00  0.00000e+00  2.13493e-02
    -1
    -1
    55                                                                          
Mode 10                                                                         
EMA                                                                             
Wing acceleration shapes (Uz only)                                              
LoadCase 1                                                                      
                                                                                
         1         2         2        12         2         3
         2         4         1        10
  3.10588e+01  0.00000e+00  0.00000e+00  0.00000e+00
         1
  0.00000e+00  0.00000e+00  8.13384e-02
         2
  0.00000e+00  0.00000e+00  4.05887e-01
         3
  0.00000e+00  0.00000e+00  2.44935e-01
         4
  0.00000e+00  0.00000e+00  2.98053e-01
         5
  0.00000e+00  0.00000e+00 -8.99952e-02
         6
  0.00000e+00  0.00000e+00 -3.51152e-02
         7
  0.00000e+00  0.00000e+00 -2.24998e-01
         8
  0.00000e+00  0.00000e+00 -1.68067e-01
         9
  0.00000e+00  0.00000e+00 -1.07779e-01
        10
  0.00000e+00  0.00000e+00 -8.25254e-02
        11
  0.00000e+00  0.00000e+00  1.49601e-02
        12
  0.00000e+00  0.00000e+00  2.31852e-02
        13
  0.00000e+00  0.00000e+00 -1.85521e-01
        14
  0.00000e+00  0.00000e+00  4.81109e-01
        15
  0.00000e+00  0.00000e+00  2.07474e-01
        16
  0.00000e+00  0.00000e+00  3.12303e-01
        17
  0.00000e+00  0.00000e+00 -9.33774e-02
        18
  0.00000e+00  0.00000e+00 -2.10042e-03
        19
  0.00000e+00  0.00000e+00 -2.02998e-01
        20
  0.00000e+00  0.00000e+00 -1.14257e-01
        21
  0.00000e+00  0.00000e+00 -1.12860e-01
        22
  0.00000e+00  0.00000e+00 -5.63895e-02
        23
  0.00000e+00  0.00000e+00  8.78733e-03
        24
  0.00000e+00  0.00000e+00  1.91227e-02
    -1
    -1
    55                                                                          
Mode 11                                                                         
EMA                                                                             
Wing acceleration shapes (Uz only)                                              
LoadCase 1                                                                      
                                                                                
         1         2         2        12         2         3
         2         4         1        11
  3.63678e+01  0.00000e+00  0.00000e+00  0.00000e+00
         1
  0.00000e+00  0.00000e+00 -1.60670e-01
         2
  0.00000e+00  0.00000e+00 -4.32128e-02
         3
  0.00000e+00  0.00000e+00  3.89025e-03
         4
  0.00000e+00  0.00000e+00  7.14121e-03
         5
  0.00000e+00  0.00000e+00  7.05601e-02
         6
  0.00000e+00  0.00000e+00  7.68706e-02
         7
  0.00000e+00  0.00000e+00 -2.30283e-02
         8
  0.00000e+00  0.00000e+00  4.71422e-02
         9
  0.00000e+00  0.00000e+00 -5.07939e-02
        10
  0.00000e+00  0.00000e+00  2.38928e-03
        11
  0.00000e+00  0.00000e+00  8.54174e-04
        12
  0.00000e+00  0.00000e+00  5.14973e-03
        13
  0.00000e+00  0.00000e+00 -3.09973e-02
        14
  0.00000e+00  0.00000e+00 -1.27129e-01
        15
  0.00000e+00  0.00000e+00  1.31933e-02
        16
  0.00000e+00  0.00000e+00 -3.41867e-02
        17
  0.00000e+00  0.00000e+00  6.59431e-02
        18
  0.00000e+00  0.00000e+00 -1.74012e-02
        19
  0.00000e+00  0.00000e+00 -1.67678e-02
        20
  0.00000e+00  0.00000e+00 -2.76637e-02
        21
  0.00000e+00  0.00000e+00 -3.50598e-02
        22
  0.00000e+00  0.00000e+00 -2.52195e-02
        23
  0.00000e+00  0.00000e+00  7.05638e-03
        24
  0.00000e+00  0.00000e+00  7.02748e-03
    -1
