    -1
    15
         1         0         0         0      7.81760     -4.63530      0.63576
         2         0         0         0      9.70720     -4.63530      0.73676
         3         0         0         0      9.02168     -4.53370      0.69505
         4         0         0         0      9.37747     -4.53370      0.69810
         5         0         0         0      8.56214     -3.82250      0.69839
         6         0         0         0      9.24877     -3.82250      0.69834
         7         0         0         0      8.12068     -3.06050      0.70675
         8         0         0         0      9.10008     -3.06050      0.70036
         9         0         0         0      7.43669     -2.01910      0.71479
        10         0         0         0      8.88655     -1.99370      0.70320
        11         0         0         0      7.48304     -1.08778      0.75700
        12         0         0         0      8.36919     -1.08570      0.73723
        13         0         0         0      7.81760      4.63530      0.63576
        14         0         0         0      9.70720      4.63530      0.73676
        15         0         0         0      9.02168      4.53370      0.69505
        16         0         0         0      9.37747      4.53370      0.69810
        17         0         0         0      8.56214      3.82250      0.69839
        18         0         0         0      9.24877      3.82250      0.69834
        19         0         0         0      8.12068      3.06050      0.70675
        20         0         0         0      9.10008      3.06050      0.70036
        21         0         0         0      7.43669      2.01910      0.71479
        22         0         0         0      8.88655      1.99370      0.70320
        23         0         0         0      7.48304      1.08778      0.75700
        24         0         0         0      8.36919      1.08570      0.73723
    -1
    -1
    55                                                                          
Mode 1                                                                          
EMA                                                                             
Wing acceleration shapes (Uz only)                                              
LoadCase 1                                                                      
                                                                                
         1         2         2        12         2         3
         2         4         1         1
  8.87321e+00  0.00000e+00  0.00000e+00  0.00000e+00
         1
  0.00000e+00  0.00000e+00 -8.23837e-02
         2
  0.00000e+00  0.00000e+00 -6.53317e-01
         3
  0.00000e+00  0.00000e+00 -2.44210e-02
         4
  0.00000e+00  0.00000e+00 -2.07955e-01
         5
  0.00000e+00  0.00000e+00  1.83892e-01
         6
  0.00000e+00  0.00000e+00  6.63572e-02
         7
  0.00000e+00  0.00000e+00 -4.90635e-02
         8
  0.00000e+00  0.00000e+00  3.83465e-02
         9
  0.00000e+00  0.00000e+00 -1.02030e-01
        10
  0.00000e+00  0.00000e+00 -1.93410e-02
        11
  0.00000e+00  0.00000e+00 -6.67953e-03
        12
  0.00000e+00  0.00000e+00 -8.13697e-03
        13
  0.00000e+00  0.00000e+00  1.84018e-01
        14
  0.00000e+00  0.00000e+00  5.87839e-01
        15
  0.00000e+00  0.00000e+00  2.01281e-02
        16
  0.00000e+00  0.00000e+00  1.95720e-01
        17
  0.00000e+00  0.00000e+00 -1.70569e-01
        18
  0.00000e+00  0.00000e+00 -5.67332e-03
        19
  0.00000e+00  0.00000e+00  4.97220e-02
        20
  0.00000e+00  0.00000e+00  3.53710e-02
        21
  0.00000e+00  0.00000e+00  1.05288e-01
        22
  0.00000e+00  0.00000e+00  6.01839e-02
        23
  0.00000e+00  0.00000e+00 -5.41320e-03
        24
  0.00000e+00  0.00000e+00  4.27844e-03
    -1
    -1
    55                                                                          
Mode 2                                                                          
EMA                                                                             
Wing acceleration shapes (Uz only)                                              
LoadCase 1                                                                      
                                                                                
         1         2         2        12         2         3
         2         4         1         2
  1.13159e+01  0.00000e+00  0.00000e+00  0.00000e+00
         1
  0.00000e+00  0.00000e+00 -1.93496e-01
         2
  0.00000e+00  0.00000e+00 -6.31768e-01
         3
  0.00000e+00  0.00000e+00 -4.40333e-02
         4
  0.00000e+00  0.00000e+00 -2.08959e-01
         5
  0.00000e+00  0.00000e+00  1.70988e-01
         6
  0.00000e+00  0.00000e+00  7.55431e-02
         7
  0.00000e+00  0.00000e+00 -3.01110e-02
         8
  0.00000e+00  0.00000e+00  5.13422e-02
         9
  0.00000e+00  0.00000e+00 -9.08656e-02
        10
  0.00000e+00  0.00000e+00 -9.79902e-03
        11
  0.00000e+00  0.00000e+00 -4.78299e-03
        12
  0.00000e+00  0.00000e+00 -5.08972e-03
        13
  0.00000e+00  0.00000e+00  2.56247e-01
        14
  0.00000e+00  0.00000e+00  5.66748e-01
        15
  0.00000e+00  0.00000e+00  2.22790e-02
        16
  0.00000e+00  0.00000e+00  1.86795e-01
        17
  0.00000e+00  0.00000e+00 -1.69492e-01
        18
  0.00000e+00  0.00000e+00 -2.30287e-02
        19
  0.00000e+00  0.00000e+00  2.85656e-02
        20
  0.00000e+00  0.00000e+00  1.84002e-02
        21
  0.00000e+00  0.00000e+00  9.37577e-02
        22
  0.00000e+00  0.00000e+00  4.99355e-02
        23
  0.00000e+00  0.00000e+00 -5.49325e-03
        24
  0.00000e+00  0.00000e+00  2.36239e-03
    -1
    -1
    55                                                                          
Mode 3                                                                          
EMA                                                                             
Wing acceleration shapes (Uz only)                                              
LoadCase 1                                                                      
                                                                                
         1         2         2        12         2         3
         2         4         1         3
  1.31321e+01  0.00000e+00  0.00000e+00  0.00000e+00
         1
  0.00000e+00  0.00000e+00  1.11022e-01
         2
  0.00000e+00  0.00000e+00  6.56856e-01
         3
  0.00000e+00  0.00000e+00  5.56626e-02
         4
  0.00000e+00  0.00000e+00  2.30045e-01
         5
  0.00000e+00  0.00000e+00 -1.78016e-01
         6
  0.00000e+00  0.00000e+00 -6.90132e-02
         7
  0.00000e+00  0.00000e+00  1.51693e-02
         8
  0.00000e+00  0.00000e+00 -5.26647e-02
         9
  0.00000e+00  0.00000e+00  9.05520e-02
        10
  0.00000e+00  0.00000e+00  1.28000e-02
        11
  0.00000e+00  0.00000e+00  8.43983e-03
        12
  0.00000e+00  0.00000e+00  8.53614e-03
        13
  0.00000e+00  0.00000e+00 -1.61403e-01
        14
  0.00000e+00  0.00000e+00 -5.79500e-01
        15
  0.00000e+00  0.00000e+00 -2.24665e-02
        16
  0.00000e+00  0.00000e+00 -1.95743e-01
        17
  0.00000e+00  0.00000e+00  1.81132e-01
        18
  0.00000e+00  0.00000e+00  2.17420e-02
        19
  0.00000e+00  0.00000e+00 -1.56679e-02
        20
  0.00000e+00  0.00000e+00 -1.41642e-02
        21
  0.00000e+00  0.00000e+00 -9.35900e-02
        22
  0.00000e+00  0.00000e+00 -5.04029e-02
        23
  0.00000e+00  0.00000e+00 -8.53315e-05
        24
  0.00000e+00  0.00000e+00 -5.63900e-03
    -1
    -1
    55                                                                          
Mode 4                                                                          
EMA                                                                             
Wing acceleration shapes (Uz only)                                              
LoadCase 1                                                                      
                                                                                
         1         2         2        12         2         3
         2         4         1         4
  1.44594e+01  0.00000e+00  0.00000e+00  0.00000e+00
         1
  0.00000e+00  0.00000e+00 -1.53812e-01
         2
  0.00000e+00  0.00000e+00  3.85435e-01
         3
  0.00000e+00  0.00000e+00  2.21648e-01
         4
  0.00000e+00  0.00000e+00  2.91185e-01
         5
  0.00000e+00  0.00000e+00  8.21487e-02
         6
  0.00000e+00  0.00000e+00  1.49607e-01
         7
  0.00000e+00  0.00000e+00  1.90660e-02
         8
  0.00000e+00  0.00000e+00  5.95173e-02
         9
  0.00000e+00  0.00000e+00 -2.21704e-02
        10
  0.00000e+00  0.00000e+00  6.64494e-04
        11
  0.00000e+00  0.00000e+00 -2.28336e-02
        12
  0.00000e+00  0.00000e+00 -2.02598e-02
        13
  0.00000e+00  0.00000e+00  1.76747e-01
        14
  0.00000e+00  0.00000e+00 -3.56276e-01
        15
  0.00000e+00  0.00000e+00 -1.95721e-01
        16
  0.00000e+00  0.00000e+00 -2.63968e-01
        17
  0.00000e+00  0.00000e+00 -7.13135e-02
        18
  0.00000e+00  0.00000e+00 -1.32773e-01
        19
  0.00000e+00  0.00000e+00 -1.59488e-02
        20
  0.00000e+00  0.00000e+00 -5.43404e-02
        21
  0.00000e+00  0.00000e+00  1.83212e-02
        22
  0.00000e+00  0.00000e+00 -4.09119e-03
        23
  0.00000e+00  0.00000e+00  1.80084e-02
        24
  0.00000e+00  0.00000e+00  1.72593e-02
    -1
    -1
    55                                                                          
Mode 5                                                                          
EMA                                                                             
Wing acceleration shapes (Uz only)                                              
LoadCase 1                                                                      
                                                                                
         1         2         2        12         2         3
         2         4         1         5
  1.66372e+01  0.00000e+00  0.00000e+00  0.00000e+00
         1
  0.00000e+00  0.00000e+00  5.05557e-02
         2
  0.00000e+00  0.00000e+00  4.32463e-01
         3
  0.00000e+00  0.00000e+00  9.39002e-02
         4
  0.00000e+00  0.00000e+00  2.00738e-01
         5
  0.00000e+00  0.00000e+00 -1.46593e-01
         6
  0.00000e+00  0.00000e+00 -1.94272e-02
         7
  0.00000e+00  0.00000e+00 -4.02700e-02
         8
  0.00000e+00  0.00000e+00 -5.18965e-02
         9
  0.00000e+00  0.00000e+00  2.00062e-02
        10
  0.00000e+00  0.00000e+00 -7.03206e-03
        11
  0.00000e+00  0.00000e+00 -1.16208e-02
        12
  0.00000e+00  0.00000e+00 -6.01592e-03
        13
  0.00000e+00  0.00000e+00 -8.64346e-02
        14
  0.00000e+00  0.00000e+00 -3.76331e-01
        15
  0.00000e+00  0.00000e+00 -7.86199e-02
        16
  0.00000e+00  0.00000e+00 -1.77200e-01
        17
  0.00000e+00  0.00000e+00  1.39760e-01
        18
  0.00000e+00  0.00000e+00 -8.29533e-03
        19
  0.00000e+00  0.00000e+00  3.25334e-02
        20
  0.00000e+00  0.00000e+00  1.66909e-02
        21
  0.00000e+00  0.00000e+00 -1.69899e-02
        22
  0.00000e+00  0.00000e+00 -4.07810e-03
        23
  0.00000e+00  0.00000e+00  1.67417e-02
        24
  0.00000e+00  0.00000e+00  1.26280e-02
    -1
    -1
    55                                                                          
Mode 6                                                                          
EMA                                                                             
Wing acceleration shapes (Uz only)                                              
LoadCase 1                                                                      
                                                                                
         1         2         2        12         2         3
         2         4         1         6
  1.85192e+01  0.00000e+00  0.00000e+00  0.00000e+00
         1
  0.00000e+00  0.00000e+00  1.60276e-01
         2
  0.00000e+00  0.00000e+00  5.97198e-01
         3
  0.00000e+00  0.00000e+00  9.07364e-02
         4
  0.00000e+00  0.00000e+00  2.31528e-01
         5
  0.00000e+00  0.00000e+00 -1.87335e-01
         6
  0.00000e+00  0.00000e+00 -8.18183e-02
         7
  0.00000e+00  0.00000e+00 -4.84078e-02
         8
  0.00000e+00  0.00000e+00 -8.72716e-02
         9
  0.00000e+00  0.00000e+00  5.67804e-02
        10
  0.00000e+00  0.00000e+00 -5.73198e-03
        11
  0.00000e+00  0.00000e+00  5.56553e-03
        12
  0.00000e+00  0.00000e+00  4.97159e-03
        13
  0.00000e+00  0.00000e+00 -1.93682e-01
        14
  0.00000e+00  0.00000e+00 -5.45749e-01
        15
  0.00000e+00  0.00000e+00 -6.34059e-02
        16
  0.00000e+00  0.00000e+00 -2.07040e-01
        17
  0.00000e+00  0.00000e+00  1.85594e-01
        18
  0.00000e+00  0.00000e+00  3.32470e-02
        19
  0.00000e+00  0.00000e+00  3.81320e-02
        20
  0.00000e+00  0.00000e+00  2.48656e-02
        21
  0.00000e+00  0.00000e+00 -5.76311e-02
        22
  0.00000e+00  0.00000e+00 -2.39474e-02
        23
  0.00000e+00  0.00000e+00  2.55612e-03
        24
  0.00000e+00  0.00000e+00  7.72702e-04
    -1
    -1
    55                                                                          
Mode 7                                                                          
EMA                                                                             
Wing acceleration shapes (Uz only)                                              
LoadCase 1                                                                      
                                                                                
         1         2         2        12         2         3
         2         4         1         7
  2.39672e+01  0.00000e+00  0.00000e+00  0.00000e+00
         1
  0.00000e+00  0.00000e+00  3.36269e-02
         2
  0.00000e+00  0.00000e+00  5.98241e-03
         3
  0.00000e+00  0.00000e+00  7.72128e-02
         4
  0.00000e+00  0.00000e+00  6.23339e-02
         5
  0.00000e+00  0.00000e+00  8.14090e-02
         6
  0.00000e+00  0.00000e+00  3.44339e-02
         7
  0.00000e+00  0.00000e+00 -4.03312e-02
         8
  0.00000e+00  0.00000e+00 -5.33742e-03
         9
  0.00000e+00  0.00000e+00 -6.59121e-02
        10
  0.00000e+00  0.00000e+00 -3.73065e-02
        11
  0.00000e+00  0.00000e+00 -1.88687e-02
        12
  0.00000e+00  0.00000e+00 -2.07233e-02
        13
  0.00000e+00  0.00000e+00 -7.66718e-03
        14
  0.00000e+00  0.00000e+00 -6.81164e-02
        15
  0.00000e+00  0.00000e+00 -8.67928e-02
        16
  0.00000e+00  0.00000e+00 -8.64342e-02
        17
  0.00000e+00  0.00000e+00 -6.49546e-02
        18
  0.00000e+00  0.00000e+00 -1.57766e-02
        19
  0.00000e+00  0.00000e+00  5.31766e-02
        20
  0.00000e+00  0.00000e+00  2.32364e-02
        21
  0.00000e+00  0.00000e+00  6.96398e-02
        22
  0.00000e+00  0.00000e+00  3.87972e-02
        23
  0.00000e+00  0.00000e+00  1.79997e-02
        24
  0.00000e+00  0.00000e+00  1.66480e-02
    -1
    -1
    55                                                                          
Mode 8                                                                          
EMA                                                                             
Wing acceleration shapes (Uz only)                                              
LoadCase 1                                                                      
                                                                                
         1         2         2        12         2         3
         2         4         1         8
  3.45444e+01  0.00000e+00  0.00000e+00  0.00000e+00
         1
  0.00000e+00  0.00000e+00  9.67652e-02
         2
  0.00000e+00  0.00000e+00 -3.46336e-01
         3
  0.00000e+00  0.00000e+00 -1.62709e-01
         4
  0.00000e+00  0.00000e+00 -2.32709e-01
         5
  0.00000e+00  0.00000e+00  6.26666e-02
         6
  0.00000e+00  0.00000e+00  7.07528e-03
         7
  0.00000e+00  0.00000e+00  1.45479e-01
         8
  0.00000e+00  0.00000e+00  9.29656e-02
         9
  0.00000e+00  0.00000e+00  5.57916e-02
        10
  0.00000e+00  0.00000e+00  3.67799e-02
        11
  0.00000e+00  0.00000e+00 -1.69258e-02
        12
  0.00000e+00  0.00000e+00 -2.02949e-02
        13
  0.00000e+00  0.00000e+00 -9.01718e-02
        14
  0.00000e+00  0.00000e+00  3.62965e-01
        15
  0.00000e+00  0.00000e+00  1.58078e-01
        16
  0.00000e+00  0.00000e+00  2.30235e-01
        17
  0.00000e+00  0.00000e+00 -7.78789e-02
        18
  0.00000e+00  0.00000e+00 -2.40545e-02
        19
  0.00000e+00  0.00000e+00 -1.47439e-01
        20
  0.00000e+00  0.00000e+00 -9.72021e-02
        21
  0.00000e+00  0.00000e+00 -5.86165e-02
        22
  0.00000e+00  0.00000e+00 -3.37906e-02
        23
  0.00000e+00  0.00000e+00  2.00450e-02
        24
  0.00000e+00  0.00000e+00  2.50181e-02
    -1
