    -1
    15
         1         0         0         0      9.02168     -4.53370      0.69505
         2         0         0         0      9.37747     -4.53370      0.69810
         3         0         0         0      8.56214     -3.82250      0.69839
         4         0         0         0      9.24877     -3.82250      0.69834
         5         0         0         0      8.12068     -3.06050      0.70675
         6         0         0         0      9.10008     -3.06050      0.70036
         7         0         0         0      7.43669     -2.01910      0.71479
         8         0         0         0      8.88655     -1.99370      0.70320
         9         0         0         0      7.48304     -1.08778      0.75700
        10         0         0         0      8.36919     -1.08570      0.73723
        11         0         0         0      9.02168      4.53370      0.69505
        12         0         0         0      9.37747      4.53370      0.69810
        13         0         0         0      8.56214      3.82250      0.69839
        14         0         0         0      9.24877      3.82250      0.69834
        15         0         0         0      8.12068      3.06050      0.70675
        16         0         0         0      9.10008      3.06050      0.70036
        17         0         0         0      7.43669      2.01910      0.71479
        18         0         0         0      8.88655      1.99370      0.70320
        19         0         0         0      7.48304      1.08778      0.75700
        20         0         0         0      8.36919      1.08570      0.73723
    -1
    -1
    55                                                                          
Mode 1                                                                          
EMA                                                                             
Acceleration shapes (Uz only)                                                   
LoadCase 1                                                                      
                                                                                
         1         2         2        12         2         3
         2         4         1         1
  8.87566e+00  0.00000e+00  0.00000e+00  0.00000e+00
         1
  0.00000e+00  0.00000e+00 -5.18796e-02
         2
  0.00000e+00  0.00000e+00 -4.81420e-01
         3
  0.00000e+00  0.00000e+00  4.33640e-01
         4
  0.00000e+00  0.00000e+00  1.54523e-01
         5
  0.00000e+00  0.00000e+00 -1.19756e-01
         6
  0.00000e+00  0.00000e+00  8.40352e-02
         7
  0.00000e+00  0.00000e+00 -2.46062e-01
         8
  0.00000e+00  0.00000e+00 -5.07682e-02
         9
  0.00000e+00  0.00000e+00 -1.68741e-02
        10
  0.00000e+00  0.00000e+00 -1.99327e-02
        11
  0.00000e+00  0.00000e+00  1.65596e-02
        12
  0.00000e+00  0.00000e+00  4.32971e-01
        13
  0.00000e+00  0.00000e+00 -4.20800e-01
        14
  0.00000e+00  0.00000e+00 -2.49888e-02
        15
  0.00000e+00  0.00000e+00  1.11395e-01
        16
  0.00000e+00  0.00000e+00  8.04730e-02
        17
  0.00000e+00  0.00000e+00  2.51134e-01
        18
  0.00000e+00  0.00000e+00  1.44129e-01
        19
  0.00000e+00  0.00000e+00 -1.02240e-02
        20
  0.00000e+00  0.00000e+00  1.21532e-02
    -1
    -1
    55                                                                          
Mode 2                                                                          
EMA                                                                             
Acceleration shapes (Uz only)                                                   
LoadCase 1                                                                      
                                                                                
         1         2         2        12         2         3
         2         4         1         2
  1.13147e+01  0.00000e+00  0.00000e+00  0.00000e+00
         1
  0.00000e+00  0.00000e+00  6.74424e-02
         2
  0.00000e+00  0.00000e+00  4.75188e-01
         3
  0.00000e+00  0.00000e+00 -4.48240e-01
         4
  0.00000e+00  0.00000e+00 -1.93837e-01
         5
  0.00000e+00  0.00000e+00  6.48186e-02
         6
  0.00000e+00  0.00000e+00 -1.25373e-01
         7
  0.00000e+00  0.00000e+00  2.30145e-01
         8
  0.00000e+00  0.00000e+00  3.35181e-02
         9
  0.00000e+00  0.00000e+00  1.79614e-02
        10
  0.00000e+00  0.00000e+00  1.93831e-02
        11
  0.00000e+00  0.00000e+00 -1.37003e-02
        12
  0.00000e+00  0.00000e+00 -4.20062e-01
        13
  0.00000e+00  0.00000e+00  4.45287e-01
        14
  0.00000e+00  0.00000e+00  6.57261e-02
        15
  0.00000e+00  0.00000e+00 -6.13353e-02
        16
  0.00000e+00  0.00000e+00 -4.08464e-02
        17
  0.00000e+00  0.00000e+00 -2.35563e-01
        18
  0.00000e+00  0.00000e+00 -1.26898e-01
        19
  0.00000e+00  0.00000e+00  5.52525e-03
        20
  0.00000e+00  0.00000e+00 -1.23559e-02
    -1
    -1
    55                                                                          
Mode 3                                                                          
EMA                                                                             
Acceleration shapes (Uz only)                                                   
LoadCase 1                                                                      
                                                                                
         1         2         2        12         2         3
         2         4         1         3
  1.31348e+01  0.00000e+00  0.00000e+00  0.00000e+00
         1
  0.00000e+00  0.00000e+00 -8.98305e-02
         2
  0.00000e+00  0.00000e+00 -4.99337e-01
         3
  0.00000e+00  0.00000e+00  4.50263e-01
         4
  0.00000e+00  0.00000e+00  1.83420e-01
         5
  0.00000e+00  0.00000e+00 -2.98970e-02
         6
  0.00000e+00  0.00000e+00  1.30199e-01
         7
  0.00000e+00  0.00000e+00 -2.24517e-01
         8
  0.00000e+00  0.00000e+00 -3.76862e-02
         9
  0.00000e+00  0.00000e+00 -2.75528e-02
        10
  0.00000e+00  0.00000e+00 -2.75783e-02
        11
  0.00000e+00  0.00000e+00 -2.93584e-02
        12
  0.00000e+00  0.00000e+00  3.52657e-01
        13
  0.00000e+00  0.00000e+00 -4.82927e-01
        14
  0.00000e+00  0.00000e+00 -1.11627e-01
        15
  0.00000e+00  0.00000e+00  1.63910e-02
        16
  0.00000e+00  0.00000e+00  1.17789e-03
        17
  0.00000e+00  0.00000e+00  2.24775e-01
        18
  0.00000e+00  0.00000e+00  1.13725e-01
        19
  0.00000e+00  0.00000e+00  6.17473e-03
        20
  0.00000e+00  0.00000e+00  1.86291e-02
    -1
    -1
    55                                                                          
Mode 4                                                                          
EMA                                                                             
Acceleration shapes (Uz only)                                                   
LoadCase 1                                                                      
                                                                                
         1         2         2        12         2         3
         2         4         1         4
  1.44726e+01  0.00000e+00  0.00000e+00  0.00000e+00
         1
  0.00000e+00  0.00000e+00  4.02183e-01
         2
  0.00000e+00  0.00000e+00  5.27728e-01
         3
  0.00000e+00  0.00000e+00  1.51461e-01
         4
  0.00000e+00  0.00000e+00  2.72376e-01
         5
  0.00000e+00  0.00000e+00  3.50062e-02
         6
  0.00000e+00  0.00000e+00  1.08980e-01
         7
  0.00000e+00  0.00000e+00 -4.06661e-02
         8
  0.00000e+00  0.00000e+00  1.29147e-03
         9
  0.00000e+00  0.00000e+00 -4.13907e-02
        10
  0.00000e+00  0.00000e+00 -3.68064e-02
        11
  0.00000e+00  0.00000e+00 -3.55262e-01
        12
  0.00000e+00  0.00000e+00 -4.78751e-01
        13
  0.00000e+00  0.00000e+00 -1.31392e-01
        14
  0.00000e+00  0.00000e+00 -2.41319e-01
        15
  0.00000e+00  0.00000e+00 -2.90009e-02
        16
  0.00000e+00  0.00000e+00 -9.91117e-02
        17
  0.00000e+00  0.00000e+00  3.36775e-02
        18
  0.00000e+00  0.00000e+00 -7.49801e-03
        19
  0.00000e+00  0.00000e+00  3.25499e-02
        20
  0.00000e+00  0.00000e+00  3.11781e-02
    -1
    -1
    55                                                                          
Mode 5                                                                          
EMA                                                                             
Acceleration shapes (Uz only)                                                   
LoadCase 1                                                                      
                                                                                
         1         2         2        12         2         3
         2         4         1         5
  1.66344e+01  0.00000e+00  0.00000e+00  0.00000e+00
         1
  0.00000e+00  0.00000e+00 -2.17703e-01
         2
  0.00000e+00  0.00000e+00 -5.51358e-01
         3
  0.00000e+00  0.00000e+00  3.94795e-01
         4
  0.00000e+00  0.00000e+00  1.02567e-01
         5
  0.00000e+00  0.00000e+00  7.67728e-02
         6
  0.00000e+00  0.00000e+00  1.40437e-01
         7
  0.00000e+00  0.00000e+00 -1.16272e-01
         8
  0.00000e+00  0.00000e+00 -2.08859e-03
         9
  0.00000e+00  0.00000e+00  4.88600e-05
        10
  0.00000e+00  0.00000e+00 -5.55777e-03
        11
  0.00000e+00  0.00000e+00  1.65635e-01
        12
  0.00000e+00  0.00000e+00  4.93466e-01
        13
  0.00000e+00  0.00000e+00 -3.89518e-01
        14
  0.00000e+00  0.00000e+00 -1.20257e-02
        15
  0.00000e+00  0.00000e+00 -6.25139e-02
        16
  0.00000e+00  0.00000e+00 -2.13816e-02
        17
  0.00000e+00  0.00000e+00  1.11772e-01
        18
  0.00000e+00  0.00000e+00  5.48217e-02
        19
  0.00000e+00  0.00000e+00 -1.74436e-02
        20
  0.00000e+00  0.00000e+00 -8.68516e-03
    -1
    -1
    55                                                                          
Mode 6                                                                          
EMA                                                                             
Acceleration shapes (Uz only)                                                   
LoadCase 1                                                                      
                                                                                
         1         2         2        12         2         3
         2         4         1         6
  1.85100e+01  0.00000e+00  0.00000e+00  0.00000e+00
         1
  0.00000e+00  0.00000e+00 -2.14479e-01
         2
  0.00000e+00  0.00000e+00 -5.23677e-01
         3
  0.00000e+00  0.00000e+00  4.03174e-01
         4
  0.00000e+00  0.00000e+00  1.54927e-01
         5
  0.00000e+00  0.00000e+00  1.08913e-01
         6
  0.00000e+00  0.00000e+00  1.80180e-01
         7
  0.00000e+00  0.00000e+00 -1.16268e-01
         8
  0.00000e+00  0.00000e+00  1.03446e-02
         9
  0.00000e+00  0.00000e+00 -1.01589e-02
        10
  0.00000e+00  0.00000e+00 -9.93163e-03
        11
  0.00000e+00  0.00000e+00  1.57230e-01
        12
  0.00000e+00  0.00000e+00  4.70609e-01
        13
  0.00000e+00  0.00000e+00 -3.99029e-01
        14
  0.00000e+00  0.00000e+00 -5.41310e-02
        15
  0.00000e+00  0.00000e+00 -8.67843e-02
        16
  0.00000e+00  0.00000e+00 -5.08776e-02
        17
  0.00000e+00  0.00000e+00  1.18119e-01
        18
  0.00000e+00  0.00000e+00  5.09867e-02
        19
  0.00000e+00  0.00000e+00 -5.68537e-03
        20
  0.00000e+00  0.00000e+00 -1.61702e-03
    -1
    -1
    55                                                                          
Mode 7                                                                          
EMA                                                                             
Acceleration shapes (Uz only)                                                   
LoadCase 1                                                                      
                                                                                
         1         2         2        12         2         3
         2         4         1         7
  2.39690e+01  0.00000e+00  0.00000e+00  0.00000e+00
         1
  0.00000e+00  0.00000e+00 -3.25622e-01
         2
  0.00000e+00  0.00000e+00 -2.49093e-01
         3
  0.00000e+00  0.00000e+00 -3.59494e-01
         4
  0.00000e+00  0.00000e+00 -1.42737e-01
         5
  0.00000e+00  0.00000e+00  1.67694e-01
         6
  0.00000e+00  0.00000e+00  2.54665e-02
         7
  0.00000e+00  0.00000e+00  2.84986e-01
         8
  0.00000e+00  0.00000e+00  1.63025e-01
         9
  0.00000e+00  0.00000e+00  8.16257e-02
        10
  0.00000e+00  0.00000e+00  8.89465e-02
        11
  0.00000e+00  0.00000e+00  3.64364e-01
        12
  0.00000e+00  0.00000e+00  3.47062e-01
        13
  0.00000e+00  0.00000e+00  2.91507e-01
        14
  0.00000e+00  0.00000e+00  6.12797e-02
        15
  0.00000e+00  0.00000e+00 -2.20265e-01
        16
  0.00000e+00  0.00000e+00 -1.02231e-01
        17
  0.00000e+00  0.00000e+00 -2.99797e-01
        18
  0.00000e+00  0.00000e+00 -1.70266e-01
        19
  0.00000e+00  0.00000e+00 -7.83388e-02
        20
  0.00000e+00  0.00000e+00 -7.25022e-02
    -1
    -1
    55                                                                          
Mode 8                                                                          
EMA                                                                             
Acceleration shapes (Uz only)                                                   
LoadCase 1                                                                      
                                                                                
         1         2         2        12         2         3
         2         4         1         8
  3.46028e+01  0.00000e+00  0.00000e+00  0.00000e+00
         1
  0.00000e+00  0.00000e+00  3.33616e-01
         2
  0.00000e+00  0.00000e+00  4.73720e-01
         3
  0.00000e+00  0.00000e+00 -1.29275e-01
         4
  0.00000e+00  0.00000e+00 -1.76476e-02
         5
  0.00000e+00  0.00000e+00 -2.92201e-01
         6
  0.00000e+00  0.00000e+00 -1.94329e-01
         7
  0.00000e+00  0.00000e+00 -1.12899e-01
         8
  0.00000e+00  0.00000e+00 -7.82655e-02
         9
  0.00000e+00  0.00000e+00  3.30004e-02
        10
  0.00000e+00  0.00000e+00  3.99783e-02
        11
  0.00000e+00  0.00000e+00 -3.23526e-01
        12
  0.00000e+00  0.00000e+00 -4.66696e-01
        13
  0.00000e+00  0.00000e+00  1.59804e-01
        14
  0.00000e+00  0.00000e+00  5.03727e-02
        15
  0.00000e+00  0.00000e+00  2.97003e-01
        16
  0.00000e+00  0.00000e+00  2.01034e-01
        17
  0.00000e+00  0.00000e+00  1.19769e-01
        18
  0.00000e+00  0.00000e+00  7.20066e-02
        19
  0.00000e+00  0.00000e+00 -3.85269e-02
        20
  0.00000e+00  0.00000e+00 -4.87119e-02
    -1
    -1
    15
         1         0         0         0      9.02168     -4.53370      0.69505
         2         0         0         0      9.37747     -4.53370      0.69810
         3         0         0         0      8.56214     -3.82250      0.69839
         4         0         0         0      9.24877     -3.82250      0.69834
         5         0         0         0      8.12068     -3.06050      0.70675
         6         0         0         0      9.10008     -3.06050      0.70036
         7         0         0         0      7.43669     -2.01910      0.71479
         8         0         0         0      8.88655     -1.99370      0.70320
         9         0         0         0      7.48304     -1.08778      0.75700
        10         0         0         0      8.36919     -1.08570      0.73723
        11         0         0         0      9.02168      4.53370      0.69505
        12         0         0         0      9.37747      4.53370      0.69810
        13         0         0         0      8.56214      3.82250      0.69839
        14         0         0         0      9.24877      3.82250      0.69834
        15         0         0         0      8.12068      3.06050      0.70675
        16         0         0         0      9.10008      3.06050      0.70036
        17         0         0         0      7.43669      2.01910      0.71479
        18         0         0         0      8.88655      1.99370      0.70320
        19         0         0         0      7.48304      1.08778      0.75700
        20         0         0         0      8.36919      1.08570      0.73723
    -1
    -1
    55                                                                          
Mode 1                                                                          
EMA                                                                             
Acceleration shapes (Uz only)                                                   
LoadCase 1                                                                      
                                                                                
         1         2         2        12         2         3
         2         4         1         1
  8.87140e+00  0.00000e+00  0.00000e+00  0.00000e+00
         1
  0.00000e+00  0.00000e+00 -3.77966e-01
         2
  0.00000e+00  0.00000e+00 -4.62118e+00
         3
  0.00000e+00  0.00000e+00  4.19933e+00
         4
  0.00000e+00  0.00000e+00  1.50978e+00
         5
  0.00000e+00  0.00000e+00 -1.07976e+00
         6
  0.00000e+00  0.00000e+00  5.26342e-01
         7
  0.00000e+00  0.00000e+00 -2.66768e+00
         8
  0.00000e+00  0.00000e+00 -7.81775e-01
         9
  0.00000e+00  0.00000e+00 -2.60180e-01
        10
  0.00000e+00  0.00000e+00 -2.41748e-01
        11
  0.00000e+00  0.00000e+00 -2.65790e-01
        12
  0.00000e+00  0.00000e+00  4.19355e+00
        13
  0.00000e+00  0.00000e+00 -4.40840e+00
        14
  0.00000e+00  0.00000e+00 -2.73546e-01
        15
  0.00000e+00  0.00000e+00  8.78346e-01
        16
  0.00000e+00  0.00000e+00  1.03389e+00
        17
  0.00000e+00  0.00000e+00  2.70463e+00
        18
  0.00000e+00  0.00000e+00  1.70859e+00
        19
  0.00000e+00  0.00000e+00  5.77388e-02
        20
  0.00000e+00  0.00000e+00  2.19078e-01
    -1
    -1
    55                                                                          
Mode 2                                                                          
EMA                                                                             
Acceleration shapes (Uz only)                                                   
LoadCase 1                                                                      
                                                                                
         1         2         2        12         2         3
         2         4         1         2
  1.13116e+01  0.00000e+00  0.00000e+00  0.00000e+00
         1
  0.00000e+00  0.00000e+00 -7.62036e-01
         2
  0.00000e+00  0.00000e+00  3.13576e+00
         3
  0.00000e+00  0.00000e+00 -4.95047e+00
         4
  0.00000e+00  0.00000e+00 -2.73682e+00
         5
  0.00000e+00  0.00000e+00  3.33716e-01
         6
  0.00000e+00  0.00000e+00 -1.32259e+00
         7
  0.00000e+00  0.00000e+00  2.62614e+00
         8
  0.00000e+00  0.00000e+00  6.16059e-01
         9
  0.00000e+00  0.00000e+00  4.64619e-01
        10
  0.00000e+00  0.00000e+00  4.21327e-01
        11
  0.00000e+00  0.00000e+00  1.02098e+00
        12
  0.00000e+00  0.00000e+00 -3.28307e+00
        13
  0.00000e+00  0.00000e+00  4.97086e+00
        14
  0.00000e+00  0.00000e+00  1.15162e+00
        15
  0.00000e+00  0.00000e+00 -2.96037e-01
        16
  0.00000e+00  0.00000e+00 -4.41183e-01
        17
  0.00000e+00  0.00000e+00 -2.67409e+00
        18
  0.00000e+00  0.00000e+00 -1.59316e+00
        19
  0.00000e+00  0.00000e+00 -2.68658e-01
        20
  0.00000e+00  0.00000e+00 -3.98543e-01
    -1
    -1
    15
         1         0         0         0      9.02168     -4.53370      0.69505
         2         0         0         0      9.37747     -4.53370      0.69810
         3         0         0         0      8.56214     -3.82250      0.69839
         4         0         0         0      9.24877     -3.82250      0.69834
         5         0         0         0      8.12068     -3.06050      0.70675
         6         0         0         0      9.10008     -3.06050      0.70036
         7         0         0         0      7.43669     -2.01910      0.71479
         8         0         0         0      8.88655     -1.99370      0.70320
         9         0         0         0      7.48304     -1.08778      0.75700
        10         0         0         0      8.36919     -1.08570      0.73723
        11         0         0         0      9.02168      4.53370      0.69505
        12         0         0         0      9.37747      4.53370      0.69810
        13         0         0         0      8.56214      3.82250      0.69839
        14         0         0         0      9.24877      3.82250      0.69834
        15         0         0         0      8.12068      3.06050      0.70675
        16         0         0         0      9.10008      3.06050      0.70036
        17         0         0         0      7.43669      2.01910      0.71479
        18         0         0         0      8.88655      1.99370      0.70320
        19         0         0         0      7.48304      1.08778      0.75700
        20         0         0         0      8.36919      1.08570      0.73723
    -1
    -1
    55                                                                          
Mode 1                                                                          
EMA                                                                             
Acceleration shapes (Uz only)                                                   
LoadCase 1                                                                      
                                                                                
         1         2         2        12         2         3
         2         4         1         1
  8.87566e+00  0.00000e+00  0.00000e+00  0.00000e+00
         1
  0.00000e+00  0.00000e+00  1.32256e+00
         2
  0.00000e+00  0.00000e+00 -4.04258e+01
         3
  0.00000e+00  0.00000e+00  4.80222e+01
         4
  0.00000e+00  0.00000e+00  2.18668e+01
         5
  0.00000e+00  0.00000e+00 -1.07499e+01
         6
  0.00000e+00  0.00000e+00  1.17776e+01
         7
  0.00000e+00  0.00000e+00 -2.58524e+01
         8
  0.00000e+00  0.00000e+00 -4.74521e+00
         9
  0.00000e+00  0.00000e+00 -2.50733e+00
        10
  0.00000e+00  0.00000e+00 -2.74197e+00
        11
  0.00000e+00  0.00000e+00 -4.34458e+00
        12
  0.00000e+00  0.00000e+00  3.68140e+01
        13
  0.00000e+00  0.00000e+00 -4.62902e+01
        14
  0.00000e+00  0.00000e+00 -7.36411e+00
        15
  0.00000e+00  0.00000e+00  1.02935e+01
        16
  0.00000e+00  0.00000e+00  5.92918e+00
        17
  0.00000e+00  0.00000e+00  2.63595e+01
        18
  0.00000e+00  0.00000e+00  1.44947e+01
        19
  0.00000e+00  0.00000e+00 -3.84704e-01
        20
  0.00000e+00  0.00000e+00  1.85600e+00
    -1
    -1
    55                                                                          
Mode 2                                                                          
EMA                                                                             
Acceleration shapes (Uz only)                                                   
LoadCase 1                                                                      
                                                                                
         1         2         2        12         2         3
         2         4         1         2
  1.13162e+01  0.00000e+00  0.00000e+00  0.00000e+00
         1
  0.00000e+00  0.00000e+00 -2.82468e+00
         2
  0.00000e+00  0.00000e+00  3.61565e+01
         3
  0.00000e+00  0.00000e+00 -4.99306e+01
         4
  0.00000e+00  0.00000e+00 -2.68699e+01
         5
  0.00000e+00  0.00000e+00  5.11792e+00
         6
  0.00000e+00  0.00000e+00 -1.60543e+01
         7
  0.00000e+00  0.00000e+00  2.42242e+01
         8
  0.00000e+00  0.00000e+00  3.10376e+00
         9
  0.00000e+00  0.00000e+00  2.79578e+00
        10
  0.00000e+00  0.00000e+00  2.85865e+00
        11
  0.00000e+00  0.00000e+00  3.39130e+00
        12
  0.00000e+00  0.00000e+00 -3.76875e+01
        13
  0.00000e+00  0.00000e+00  4.67622e+01
        14
  0.00000e+00  0.00000e+00  9.17563e+00
        15
  0.00000e+00  0.00000e+00 -6.38129e+00
        16
  0.00000e+00  0.00000e+00 -3.60396e+00
        17
  0.00000e+00  0.00000e+00 -2.51199e+01
        18
  0.00000e+00  0.00000e+00 -1.34623e+01
        19
  0.00000e+00  0.00000e+00 -3.43075e-01
        20
  0.00000e+00  0.00000e+00 -2.12028e+00
    -1
    -1
    55                                                                          
Mode 3                                                                          
EMA                                                                             
Acceleration shapes (Uz only)                                                   
LoadCase 1                                                                      
                                                                                
         1         2         2        12         2         3
         2         4         1         3
  1.45420e+01  0.00000e+00  0.00000e+00  0.00000e+00
         1
  0.00000e+00  0.00000e+00  4.03152e+01
         2
  0.00000e+00  0.00000e+00  5.29787e+01
         3
  0.00000e+00  0.00000e+00  1.50304e+01
         4
  0.00000e+00  0.00000e+00  2.71872e+01
         5
  0.00000e+00  0.00000e+00  3.46390e+00
         6
  0.00000e+00  0.00000e+00  1.08371e+01
         7
  0.00000e+00  0.00000e+00 -4.01762e+00
         8
  0.00000e+00  0.00000e+00  1.30269e-01
         9
  0.00000e+00  0.00000e+00 -4.12648e+00
        10
  0.00000e+00  0.00000e+00 -3.66980e+00
        11
  0.00000e+00  0.00000e+00 -3.54584e+01
        12
  0.00000e+00  0.00000e+00 -4.78486e+01
        13
  0.00000e+00  0.00000e+00 -1.29537e+01
        14
  0.00000e+00  0.00000e+00 -2.39933e+01
        15
  0.00000e+00  0.00000e+00 -2.83823e+00
        16
  0.00000e+00  0.00000e+00 -9.82923e+00
        17
  0.00000e+00  0.00000e+00  3.32625e+00
        18
  0.00000e+00  0.00000e+00 -7.47265e-01
        19
  0.00000e+00  0.00000e+00  3.24630e+00
        20
  0.00000e+00  0.00000e+00  3.11283e+00
    -1
    -1
    55                                                                          
Mode 4                                                                          
EMA                                                                             
Acceleration shapes (Uz only)                                                   
LoadCase 1                                                                      
                                                                                
         1         2         2        12         2         3
         2         4         1         4
  1.66337e+01  0.00000e+00  0.00000e+00  0.00000e+00
         1
  0.00000e+00  0.00000e+00 -2.74800e+01
         2
  0.00000e+00  0.00000e+00 -5.91145e+01
         3
  0.00000e+00  0.00000e+00  3.48001e+01
         4
  0.00000e+00  0.00000e+00  3.77658e+00
         5
  0.00000e+00  0.00000e+00  7.58923e+00
         6
  0.00000e+00  0.00000e+00  1.13936e+01
         7
  0.00000e+00  0.00000e+00 -8.45670e+00
         8
  0.00000e+00  0.00000e+00  3.15153e-01
         9
  0.00000e+00  0.00000e+00  1.51901e+00
        10
  0.00000e+00  0.00000e+00  6.25579e-01
        11
  0.00000e+00  0.00000e+00  2.02723e+01
        12
  0.00000e+00  0.00000e+00  4.97468e+01
        13
  0.00000e+00  0.00000e+00 -3.51820e+01
        14
  0.00000e+00  0.00000e+00  1.98453e+00
        15
  0.00000e+00  0.00000e+00 -6.60256e+00
        16
  0.00000e+00  0.00000e+00 -2.21504e+00
        17
  0.00000e+00  0.00000e+00  7.89022e+00
        18
  0.00000e+00  0.00000e+00  3.53986e+00
        19
  0.00000e+00  0.00000e+00 -2.90195e+00
        20
  0.00000e+00  0.00000e+00 -2.03929e+00
    -1
    -1
    55                                                                          
Mode 5                                                                          
EMA                                                                             
Acceleration shapes (Uz only)                                                   
LoadCase 1                                                                      
                                                                                
         1         2         2        12         2         3
         2         4         1         5
  1.85115e+01  0.00000e+00  0.00000e+00  0.00000e+00
         1
  0.00000e+00  0.00000e+00  1.98245e+01
         2
  0.00000e+00  0.00000e+00  5.11903e+01
         3
  0.00000e+00  0.00000e+00 -4.28293e+01
         4
  0.00000e+00  0.00000e+00 -1.71255e+01
         5
  0.00000e+00  0.00000e+00 -1.07185e+01
         6
  0.00000e+00  0.00000e+00 -1.89033e+01
         7
  0.00000e+00  0.00000e+00  1.25193e+01
         8
  0.00000e+00  0.00000e+00 -9.28870e-01
         9
  0.00000e+00  0.00000e+00  1.12287e+00
        10
  0.00000e+00  0.00000e+00  1.14989e+00
        11
  0.00000e+00  0.00000e+00 -1.24043e+01
        12
  0.00000e+00  0.00000e+00 -4.31023e+01
        13
  0.00000e+00  0.00000e+00  4.30267e+01
        14
  0.00000e+00  0.00000e+00  7.97852e+00
        15
  0.00000e+00  0.00000e+00  8.80497e+00
        16
  0.00000e+00  0.00000e+00  6.32749e+00
        17
  0.00000e+00  0.00000e+00 -1.25416e+01
        18
  0.00000e+00  0.00000e+00 -4.96209e+00
        19
  0.00000e+00  0.00000e+00  6.07923e-01
        20
  0.00000e+00  0.00000e+00  1.85999e-01
    -1
    -1
    55                                                                          
Mode 6                                                                          
EMA                                                                             
Acceleration shapes (Uz only)                                                   
LoadCase 1                                                                      
                                                                                
         1         2         2        12         2         3
         2         4         1         6
  2.39826e+01  0.00000e+00  0.00000e+00  0.00000e+00
         1
  0.00000e+00  0.00000e+00 -2.49240e+01
         2
  0.00000e+00  0.00000e+00 -1.13195e+01
         3
  0.00000e+00  0.00000e+00 -4.55957e+01
         4
  0.00000e+00  0.00000e+00 -2.35832e+01
         5
  0.00000e+00  0.00000e+00  9.79532e+00
         6
  0.00000e+00  0.00000e+00 -6.43773e+00
         7
  0.00000e+00  0.00000e+00  3.17933e+01
         8
  0.00000e+00  0.00000e+00  1.50490e+01
         9
  0.00000e+00  0.00000e+00  1.03713e+01
        10
  0.00000e+00  0.00000e+00  1.04198e+01
        11
  0.00000e+00  0.00000e+00  3.11585e+01
        12
  0.00000e+00  0.00000e+00  2.15876e+01
        13
  0.00000e+00  0.00000e+00  3.94704e+01
        14
  0.00000e+00  0.00000e+00  1.23636e+01
        15
  0.00000e+00  0.00000e+00 -1.59938e+01
        16
  0.00000e+00  0.00000e+00 -5.60838e+00
        17
  0.00000e+00  0.00000e+00 -3.32886e+01
        18
  0.00000e+00  0.00000e+00 -1.78756e+01
        19
  0.00000e+00  0.00000e+00 -9.48931e+00
        20
  0.00000e+00  0.00000e+00 -8.49101e+00
    -1
    -1
    55                                                                          
Mode 7                                                                          
EMA                                                                             
Acceleration shapes (Uz only)                                                   
LoadCase 1                                                                      
                                                                                
         1         2         2        12         2         3
         2         4         1         7
  3.45745e+01  0.00000e+00  0.00000e+00  0.00000e+00
         1
  0.00000e+00  0.00000e+00  3.34823e+01
         2
  0.00000e+00  0.00000e+00  4.73769e+01
         3
  0.00000e+00  0.00000e+00 -1.26708e+01
         4
  0.00000e+00  0.00000e+00 -1.67731e+00
         5
  0.00000e+00  0.00000e+00 -2.94002e+01
         6
  0.00000e+00  0.00000e+00 -1.94114e+01
         7
  0.00000e+00  0.00000e+00 -1.14714e+01
         8
  0.00000e+00  0.00000e+00 -7.86763e+00
         9
  0.00000e+00  0.00000e+00  3.31172e+00
        10
  0.00000e+00  0.00000e+00  4.00708e+00
        11
  0.00000e+00  0.00000e+00 -3.23902e+01
        12
  0.00000e+00  0.00000e+00 -4.64797e+01
        13
  0.00000e+00  0.00000e+00  1.56414e+01
        14
  0.00000e+00  0.00000e+00  5.10784e+00
        15
  0.00000e+00  0.00000e+00  2.97425e+01
        16
  0.00000e+00  0.00000e+00  2.01640e+01
        17
  0.00000e+00  0.00000e+00  1.20892e+01
        18
  0.00000e+00  0.00000e+00  7.27951e+00
        19
  0.00000e+00  0.00000e+00 -3.87066e+00
        20
  0.00000e+00  0.00000e+00 -4.87436e+00
    -1
