    -1
    15
         1         0         0         0      7.81760     -4.63530      0.63576
         2         0         0         0      9.70720     -4.63530      0.73676
         3         0         0         0      9.02168     -4.53370      0.69505
         4         0         0         0      9.37747     -4.53370      0.69810
         5         0         0         0      8.56214     -3.82250      0.69839
         6         0         0         0      9.24877     -3.82250      0.69834
         7         0         0         0      8.12068     -3.06050      0.70675
         8         0         0         0      9.10008     -3.06050      0.70036
         9         0         0         0      7.43669     -2.01910      0.71479
        10         0         0         0      8.88655     -1.99370      0.70320
        11         0         0         0      7.48304     -1.08778      0.75700
        12         0         0         0      8.36919     -1.08570      0.73723
        13         0         0         0      7.81760      4.63530      0.63576
        14         0         0         0      9.70720      4.63530      0.73676
        15         0         0         0      9.02168      4.53370      0.69505
        16         0         0         0      9.37747      4.53370      0.69810
        17         0         0         0      8.56214      3.82250      0.69839
        18         0         0         0      9.24877      3.82250      0.69834
        19         0         0         0      8.12068      3.06050      0.70675
        20         0         0         0      9.10008      3.06050      0.70036
        21         0         0         0      7.43669      2.01910      0.71479
        22         0         0         0      8.88655      1.99370      0.70320
        23         0         0         0      7.48304      1.08778      0.75700
        24         0         0         0      8.36919      1.08570      0.73723
    -1
    -1
    55                                                                          
Mode 1                                                                          
EMA                                                                             
Acceleration shapes (Uz only)                                                   
LoadCase 1                                                                      
                                                                                
         1         2         2        12         2         3
         2         4         1         1
  5.53450e+00  0.00000e+00  0.00000e+00  0.00000e+00
         1
  0.00000e+00  0.00000e+00  6.88194e-01
         2
  0.00000e+00  0.00000e+00 -2.78663e-02
         3
  0.00000e+00  0.00000e+00  1.16548e-01
         4
  0.00000e+00  0.00000e+00  5.02968e-02
         5
  0.00000e+00  0.00000e+00 -9.74366e-02
         6
  0.00000e+00  0.00000e+00 -1.83605e-03
         7
  0.00000e+00  0.00000e+00  4.76566e-02
         8
  0.00000e+00  0.00000e+00  6.76487e-02
         9
  0.00000e+00  0.00000e+00  1.03682e-01
        10
  0.00000e+00  0.00000e+00  6.53414e-02
        11
  0.00000e+00  0.00000e+00 -2.33132e-02
        12
  0.00000e+00  0.00000e+00 -2.48039e-02
        13
  0.00000e+00  0.00000e+00  6.32459e-01
        14
  0.00000e+00  0.00000e+00 -2.43237e-02
        15
  0.00000e+00  0.00000e+00  1.32219e-01
        16
  0.00000e+00  0.00000e+00  6.62337e-02
        17
  0.00000e+00  0.00000e+00 -1.12947e-01
        18
  0.00000e+00  0.00000e+00  5.50056e-02
        19
  0.00000e+00  0.00000e+00  3.94986e-02
        20
  0.00000e+00  0.00000e+00  1.24025e-01
        21
  0.00000e+00  0.00000e+00  1.03806e-01
        22
  0.00000e+00  0.00000e+00  9.89343e-02
        23
  0.00000e+00  0.00000e+00 -2.45839e-02
        24
  0.00000e+00  0.00000e+00 -2.48567e-02
    -1
    -1
    55                                                                          
Mode 2                                                                          
EMA                                                                             
Acceleration shapes (Uz only)                                                   
LoadCase 1                                                                      
                                                                                
         1         2         2        12         2         3
         2         4         1         2
  8.28553e+00  0.00000e+00  0.00000e+00  0.00000e+00
         1
  0.00000e+00  0.00000e+00  1.86449e-01
         2
  0.00000e+00  0.00000e+00 -5.15784e-01
         3
  0.00000e+00  0.00000e+00 -2.28762e-01
         4
  0.00000e+00  0.00000e+00 -3.39699e-01
         5
  0.00000e+00  0.00000e+00 -2.92515e-02
         6
  0.00000e+00  0.00000e+00 -1.44855e-01
         7
  0.00000e+00  0.00000e+00 -3.81216e-02
         8
  0.00000e+00  0.00000e+00 -8.91401e-02
         9
  0.00000e+00  0.00000e+00 -4.08584e-02
        10
  0.00000e+00  0.00000e+00 -4.40398e-02
        11
  0.00000e+00  0.00000e+00  3.97111e-03
        12
  0.00000e+00  0.00000e+00  5.14068e-03
        13
  0.00000e+00  0.00000e+00  1.96071e-01
        14
  0.00000e+00  0.00000e+00 -5.04048e-01
        15
  0.00000e+00  0.00000e+00 -2.22012e-01
        16
  0.00000e+00  0.00000e+00 -3.37613e-01
        17
  0.00000e+00  0.00000e+00 -1.58572e-02
        18
  0.00000e+00  0.00000e+00 -1.52656e-01
        19
  0.00000e+00  0.00000e+00 -2.70387e-02
        20
  0.00000e+00  0.00000e+00 -1.08680e-01
        21
  0.00000e+00  0.00000e+00 -3.83263e-02
        22
  0.00000e+00  0.00000e+00 -5.66199e-02
        23
  0.00000e+00  0.00000e+00  3.46704e-03
        24
  0.00000e+00  0.00000e+00  4.73262e-03
    -1
    -1
    55                                                                          
Mode 3                                                                          
EMA                                                                             
Acceleration shapes (Uz only)                                                   
LoadCase 1                                                                      
                                                                                
         1         2         2        12         2         3
         2         4         1         3
  1.48551e+01  0.00000e+00  0.00000e+00  0.00000e+00
         1
  0.00000e+00  0.00000e+00 -3.37616e-02
         2
  0.00000e+00  0.00000e+00  1.31251e-01
         3
  0.00000e+00  0.00000e+00 -9.36484e-02
         4
  0.00000e+00  0.00000e+00 -6.28287e-02
         5
  0.00000e+00  0.00000e+00 -3.22264e-01
         6
  0.00000e+00  0.00000e+00 -4.24688e-01
         7
  0.00000e+00  0.00000e+00 -2.97458e-01
         8
  0.00000e+00  0.00000e+00 -3.25287e-01
         9
  0.00000e+00  0.00000e+00 -6.14330e-02
        10
  0.00000e+00  0.00000e+00 -1.19668e-01
        11
  0.00000e+00  0.00000e+00 -1.55571e-03
        12
  0.00000e+00  0.00000e+00 -3.35322e-03
        13
  0.00000e+00  0.00000e+00 -2.12559e-02
        14
  0.00000e+00  0.00000e+00  1.78696e-01
        15
  0.00000e+00  0.00000e+00 -8.00561e-02
        16
  0.00000e+00  0.00000e+00 -4.08589e-02
        17
  0.00000e+00  0.00000e+00 -3.42113e-01
        18
  0.00000e+00  0.00000e+00 -3.77265e-01
        19
  0.00000e+00  0.00000e+00 -3.01310e-01
        20
  0.00000e+00  0.00000e+00 -2.65039e-01
        21
  0.00000e+00  0.00000e+00 -6.87070e-02
        22
  0.00000e+00  0.00000e+00 -8.18905e-02
        23
  0.00000e+00  0.00000e+00  2.68873e-03
        24
  0.00000e+00  0.00000e+00  7.74736e-05
    -1
