    -1
    15
         1         0         0         0      7.81760     -4.63530      0.63576
         2         0         0         0      9.70720     -4.63530      0.73676
         3         0         0         0      9.02168     -4.53370      0.69505
         4         0         0         0      9.37747     -4.53370      0.69810
         5         0         0         0      8.56214     -3.82250      0.69839
         6         0         0         0      9.24877     -3.82250      0.69834
         7         0         0         0      8.12068     -3.06050      0.70675
         8         0         0         0      9.10008     -3.06050      0.70036
         9         0         0         0      7.43669     -2.01910      0.71479
        10         0         0         0      8.88655     -1.99370      0.70320
        11         0         0         0      7.48304     -1.08778      0.75700
        12         0         0         0      8.36919     -1.08570      0.73723
        13         0         0         0     12.54050     -2.55219      0.07744
        14         0         0         0     12.83915     -2.43623     -0.02122
        15         0         0         0     11.03013     -1.02766      0.96333
        16         0         0         0     13.00227     -0.87670      0.19341
        17         0         0         0      7.81760      4.63530      0.63576
        18         0         0         0      9.70720      4.63530      0.73676
        19         0         0         0      9.02168      4.53370      0.69505
        20         0         0         0      9.37747      4.53370      0.69810
        21         0         0         0      8.56214      3.82250      0.69839
        22         0         0         0      9.24877      3.82250      0.69834
        23         0         0         0      8.12068      3.06050      0.70675
        24         0         0         0      9.10008      3.06050      0.70036
        25         0         0         0      7.43669      2.01910      0.71479
        26         0         0         0      8.88655      1.99370      0.70320
        27         0         0         0      7.48304      1.08778      0.75700
        28         0         0         0      8.36919      1.08570      0.73723
        29         0         0         0     12.54050      2.55219      0.07744
        30         0         0         0     12.83915      2.43623     -0.02122
        31         0         0         0     11.03013      1.02766      0.96333
        32         0         0         0     13.00227      0.87670      0.19341
        33         0         0         0     11.19392      0.04761      2.07857
        34         0         0         0     11.85028      0.05765      1.81122
        35         0         0         0     12.28934      0.02106      3.57360
        36         0         0         0     12.60714      0.02271      3.57360
    -1
    -1
    55                                                                          
Mode 1                                                                          
EMA                                                                             
Acceleration shapes (Uz only)                                                   
LoadCase 1                                                                      
                                                                                
         1         2         2        12         2         3
         2         4         1         1
  5.53497e+00  0.00000e+00  0.00000e+00  0.00000e+00
         1
  0.00000e+00  0.00000e+00 -6.40146e-01
         2
  0.00000e+00  0.00000e+00 -1.06163e-01
         3
  0.00000e+00  0.00000e+00 -2.46719e-01
         4
  0.00000e+00  0.00000e+00 -1.74549e-01
         5
  0.00000e+00  0.00000e+00 -1.11685e-01
         6
  0.00000e+00  0.00000e+00 -9.01893e-02
         7
  0.00000e+00  0.00000e+00 -3.84262e-02
         8
  0.00000e+00  0.00000e+00 -2.23037e-02
         9
  0.00000e+00  0.00000e+00  8.75983e-03
        10
  0.00000e+00  0.00000e+00  1.42712e-02
        11
  0.00000e+00  0.00000e+00  3.74736e-02
        12
  0.00000e+00  0.00000e+00  4.25539e-02
        13
  0.00000e+00  0.00000e+00  5.36935e-02
        14
  0.00000e+00  0.00000e+00  5.02933e-02
        15
  0.00000e+00  0.00000e+00  4.83240e-02
        16
  0.00000e+00  0.00000e+00  4.07231e-02
        17
  0.00000e+00  0.00000e+00 -5.72581e-01
        18
  0.00000e+00  0.00000e+00 -1.22551e-01
        19
  0.00000e+00  0.00000e+00 -2.30991e-01
        20
  0.00000e+00  0.00000e+00 -1.68392e-01
        21
  0.00000e+00  0.00000e+00 -1.02005e-01
        22
  0.00000e+00  0.00000e+00 -8.43595e-02
        23
  0.00000e+00  0.00000e+00 -3.39497e-02
        24
  0.00000e+00  0.00000e+00 -3.90786e-02
        25
  0.00000e+00  0.00000e+00  1.62491e-02
        26
  0.00000e+00  0.00000e+00  7.87092e-03
        27
  0.00000e+00  0.00000e+00  4.02012e-02
        28
  0.00000e+00  0.00000e+00  4.19617e-02
        29
  0.00000e+00  0.00000e+00 -1.44301e-02
        30
  0.00000e+00  0.00000e+00 -2.28430e-02
        31
  0.00000e+00  0.00000e+00  5.08899e-02
        32
  0.00000e+00  0.00000e+00  1.51313e-02
        33
  0.00000e+00  0.00000e+00 -4.20573e-04
        34
  0.00000e+00  0.00000e+00 -4.38138e-04
        35
  0.00000e+00  0.00000e+00 -2.65392e-03
        36
  0.00000e+00  0.00000e+00 -9.00483e-03
    -1
    -1
    55                                                                          
Mode 2                                                                          
EMA                                                                             
Acceleration shapes (Uz only)                                                   
LoadCase 1                                                                      
                                                                                
         1         2         2        12         2         3
         2         4         1         2
  7.19072e+00  0.00000e+00  0.00000e+00  0.00000e+00
         1
  0.00000e+00  0.00000e+00  3.04442e-01
         2
  0.00000e+00  0.00000e+00 -1.55909e-01
         3
  0.00000e+00  0.00000e+00 -1.15170e-01
         4
  0.00000e+00  0.00000e+00 -1.23485e-01
         5
  0.00000e+00  0.00000e+00 -3.13794e-01
         6
  0.00000e+00  0.00000e+00 -9.43205e-02
         7
  0.00000e+00  0.00000e+00  4.71605e-02
         8
  0.00000e+00  0.00000e+00  1.09018e-01
         9
  0.00000e+00  0.00000e+00  2.02775e-01
        10
  0.00000e+00  0.00000e+00  1.41202e-01
        11
  0.00000e+00  0.00000e+00  7.35325e-03
        12
  0.00000e+00  0.00000e+00  9.86192e-03
        13
  0.00000e+00  0.00000e+00  5.09575e-02
        14
  0.00000e+00  0.00000e+00  5.61968e-02
        15
  0.00000e+00  0.00000e+00  1.14706e-02
        16
  0.00000e+00  0.00000e+00  5.36288e-02
        17
  0.00000e+00  0.00000e+00  2.79376e-01
        18
  0.00000e+00  0.00000e+00 -2.27622e-01
        19
  0.00000e+00  0.00000e+00 -1.08096e-01
        20
  0.00000e+00  0.00000e+00 -1.40466e-01
        21
  0.00000e+00  0.00000e+00 -3.86038e-01
        22
  0.00000e+00  0.00000e+00 -6.45641e-02
        23
  0.00000e+00  0.00000e+00  1.98370e-03
        24
  0.00000e+00  0.00000e+00  1.28445e-01
        25
  0.00000e+00  0.00000e+00  2.01637e-01
        26
  0.00000e+00  0.00000e+00  1.61109e-01
        27
  0.00000e+00  0.00000e+00  8.36201e-03
        28
  0.00000e+00  0.00000e+00  5.02374e-03
        29
  0.00000e+00  0.00000e+00  3.38342e-01
        30
  0.00000e+00  0.00000e+00  3.59958e-01
        31
  0.00000e+00  0.00000e+00 -2.91920e-02
        32
  0.00000e+00  0.00000e+00  1.42908e-01
        33
  0.00000e+00  0.00000e+00 -9.45903e-05
        34
  0.00000e+00  0.00000e+00  1.20926e-04
        35
  0.00000e+00  0.00000e+00 -5.61872e-03
        36
  0.00000e+00  0.00000e+00 -4.26065e-03
    -1
    -1
    55                                                                          
Mode 3                                                                          
EMA                                                                             
Acceleration shapes (Uz only)                                                   
LoadCase 1                                                                      
                                                                                
         1         2         2        12         2         3
         2         4         1         3
  8.17776e+00  0.00000e+00  0.00000e+00  0.00000e+00
         1
  0.00000e+00  0.00000e+00 -1.95116e-01
         2
  0.00000e+00  0.00000e+00  4.93310e-01
         3
  0.00000e+00  0.00000e+00  2.36611e-01
         4
  0.00000e+00  0.00000e+00  3.39195e-01
         5
  0.00000e+00  0.00000e+00  8.30984e-02
         6
  0.00000e+00  0.00000e+00  1.77478e-01
         7
  0.00000e+00  0.00000e+00  5.20522e-02
         8
  0.00000e+00  0.00000e+00  9.66519e-02
         9
  0.00000e+00  0.00000e+00  2.08018e-02
        10
  0.00000e+00  0.00000e+00  3.42277e-02
        11
  0.00000e+00  0.00000e+00 -7.01974e-03
        12
  0.00000e+00  0.00000e+00 -7.68829e-03
        13
  0.00000e+00  0.00000e+00 -2.87999e-02
        14
  0.00000e+00  0.00000e+00 -2.97766e-02
        15
  0.00000e+00  0.00000e+00 -1.87497e-02
        16
  0.00000e+00  0.00000e+00 -2.35092e-02
        17
  0.00000e+00  0.00000e+00 -2.17156e-01
        18
  0.00000e+00  0.00000e+00  4.87041e-01
        19
  0.00000e+00  0.00000e+00  2.24186e-01
        20
  0.00000e+00  0.00000e+00  3.32883e-01
        21
  0.00000e+00  0.00000e+00  6.95935e-02
        22
  0.00000e+00  0.00000e+00  1.67503e-01
        23
  0.00000e+00  0.00000e+00  4.10827e-02
        24
  0.00000e+00  0.00000e+00  9.92652e-02
        25
  0.00000e+00  0.00000e+00  1.87527e-02
        26
  0.00000e+00  0.00000e+00  3.73057e-02
        27
  0.00000e+00  0.00000e+00 -6.48158e-03
        28
  0.00000e+00  0.00000e+00 -7.51648e-03
        29
  0.00000e+00  0.00000e+00  1.24031e-02
        30
  0.00000e+00  0.00000e+00  1.42821e-02
        31
  0.00000e+00  0.00000e+00 -2.36225e-02
        32
  0.00000e+00  0.00000e+00 -1.02256e-02
        33
  0.00000e+00  0.00000e+00  8.65041e-04
        34
  0.00000e+00  0.00000e+00 -3.40897e-04
        35
  0.00000e+00  0.00000e+00  1.68155e-03
        36
  0.00000e+00  0.00000e+00  2.20468e-03
    -1
    -1
    55                                                                          
Mode 4                                                                          
EMA                                                                             
Acceleration shapes (Uz only)                                                   
LoadCase 1                                                                      
                                                                                
         1         2         2        12         2         3
         2         4         1         4
  1.48324e+01  0.00000e+00  0.00000e+00  0.00000e+00
         1
  0.00000e+00  0.00000e+00  3.37155e-02
         2
  0.00000e+00  0.00000e+00 -8.54524e-02
         3
  0.00000e+00  0.00000e+00 -1.05834e-02
         4
  0.00000e+00  0.00000e+00 -2.12291e-02
         5
  0.00000e+00  0.00000e+00  5.89795e-02
         6
  0.00000e+00  0.00000e+00  1.40813e-01
         7
  0.00000e+00  0.00000e+00  1.69284e-01
         8
  0.00000e+00  0.00000e+00  1.50290e-01
         9
  0.00000e+00  0.00000e+00  1.73453e-01
        10
  0.00000e+00  0.00000e+00  1.31183e-01
        11
  0.00000e+00  0.00000e+00  1.29305e-01
        12
  0.00000e+00  0.00000e+00  9.59839e-02
        13
  0.00000e+00  0.00000e+00 -4.22407e-01
        14
  0.00000e+00  0.00000e+00 -4.58653e-01
        15
  0.00000e+00  0.00000e+00 -7.82473e-02
        16
  0.00000e+00  0.00000e+00 -3.15946e-01
        17
  0.00000e+00  0.00000e+00  6.63834e-03
        18
  0.00000e+00  0.00000e+00 -1.30280e-01
        19
  0.00000e+00  0.00000e+00 -3.37139e-02
        20
  0.00000e+00  0.00000e+00 -4.47812e-02
        21
  0.00000e+00  0.00000e+00  5.46308e-02
        22
  0.00000e+00  0.00000e+00  1.13810e-01
        23
  0.00000e+00  0.00000e+00  1.66627e-01
        24
  0.00000e+00  0.00000e+00  1.35082e-01
        25
  0.00000e+00  0.00000e+00  1.71103e-01
        26
  0.00000e+00  0.00000e+00  1.18708e-01
        27
  0.00000e+00  0.00000e+00  1.29111e-01
        28
  0.00000e+00  0.00000e+00  9.88431e-02
        29
  0.00000e+00  0.00000e+00 -2.23782e-01
        30
  0.00000e+00  0.00000e+00 -2.49476e-01
        31
  0.00000e+00  0.00000e+00 -8.86489e-02
        32
  0.00000e+00  0.00000e+00 -2.50979e-01
        33
  0.00000e+00  0.00000e+00  2.15206e-02
        34
  0.00000e+00  0.00000e+00  7.41412e-03
        35
  0.00000e+00  0.00000e+00  8.16563e-02
        36
  0.00000e+00  0.00000e+00  7.88497e-02
    -1
    -1
    55                                                                          
Mode 5                                                                          
EMA                                                                             
Acceleration shapes (Uz only)                                                   
LoadCase 1                                                                      
                                                                                
         1         2         2        12         2         3
         2         4         1         5
  1.69348e+01  0.00000e+00  0.00000e+00  0.00000e+00
         1
  0.00000e+00  0.00000e+00  1.18292e-01
         2
  0.00000e+00  0.00000e+00  1.68963e-02
         3
  0.00000e+00  0.00000e+00  3.60136e-02
         4
  0.00000e+00  0.00000e+00  5.04571e-02
         5
  0.00000e+00  0.00000e+00 -4.51151e-02
         6
  0.00000e+00  0.00000e+00  1.66031e-01
         7
  0.00000e+00  0.00000e+00  1.01881e-01
         8
  0.00000e+00  0.00000e+00  1.44658e-01
         9
  0.00000e+00  0.00000e+00  9.92617e-02
        10
  0.00000e+00  0.00000e+00  1.06592e-01
        11
  0.00000e+00  0.00000e+00  1.43380e-02
        12
  0.00000e+00  0.00000e+00  5.50803e-03
        13
  0.00000e+00  0.00000e+00  3.61288e-02
        14
  0.00000e+00  0.00000e+00  2.58484e-02
        15
  0.00000e+00  0.00000e+00 -2.81291e-02
        16
  0.00000e+00  0.00000e+00  1.92851e-02
        17
  0.00000e+00  0.00000e+00  3.45384e-02
        18
  0.00000e+00  0.00000e+00 -1.70358e-02
        19
  0.00000e+00  0.00000e+00 -1.42970e-02
        20
  0.00000e+00  0.00000e+00  1.21215e-02
        21
  0.00000e+00  0.00000e+00 -1.22850e-01
        22
  0.00000e+00  0.00000e+00  7.89498e-02
        23
  0.00000e+00  0.00000e+00  3.89603e-02
        24
  0.00000e+00  0.00000e+00  8.23815e-02
        25
  0.00000e+00  0.00000e+00  6.75515e-02
        26
  0.00000e+00  0.00000e+00  6.54930e-02
        27
  0.00000e+00  0.00000e+00  8.14823e-03
        28
  0.00000e+00  0.00000e+00  9.03245e-04
        29
  0.00000e+00  0.00000e+00  6.08115e-01
        30
  0.00000e+00  0.00000e+00  6.38624e-01
        31
  0.00000e+00  0.00000e+00 -1.01395e-01
        32
  0.00000e+00  0.00000e+00  2.32286e-01
        33
  0.00000e+00  0.00000e+00 -1.04342e-02
        34
  0.00000e+00  0.00000e+00 -1.07569e-02
        35
  0.00000e+00  0.00000e+00 -7.95585e-02
        36
  0.00000e+00  0.00000e+00 -8.69695e-02
    -1
    -1
    55                                                                          
Mode 6                                                                          
EMA                                                                             
Acceleration shapes (Uz only)                                                   
LoadCase 1                                                                      
                                                                                
         1         2         2        12         2         3
         2         4         1         6
  2.27891e+01  0.00000e+00  0.00000e+00  0.00000e+00
         1
  0.00000e+00  0.00000e+00  1.24279e-01
         2
  0.00000e+00  0.00000e+00 -9.40961e-02
         3
  0.00000e+00  0.00000e+00  6.96636e-02
         4
  0.00000e+00  0.00000e+00  5.14287e-02
         5
  0.00000e+00  0.00000e+00  3.33009e-01
         6
  0.00000e+00  0.00000e+00  3.56093e-01
         7
  0.00000e+00  0.00000e+00  3.00335e-01
         8
  0.00000e+00  0.00000e+00  3.45131e-01
         9
  0.00000e+00  0.00000e+00  9.35433e-02
        10
  0.00000e+00  0.00000e+00  1.44302e-01
        11
  0.00000e+00  0.00000e+00 -1.15396e-02
        12
  0.00000e+00  0.00000e+00  4.58574e-04
        13
  0.00000e+00  0.00000e+00  2.88660e-02
        14
  0.00000e+00  0.00000e+00  2.75943e-02
        15
  0.00000e+00  0.00000e+00 -1.28551e-02
        16
  0.00000e+00  0.00000e+00  2.62996e-03
        17
  0.00000e+00  0.00000e+00  1.04587e-01
        18
  0.00000e+00  0.00000e+00 -1.29938e-01
        19
  0.00000e+00  0.00000e+00  4.68903e-02
        20
  0.00000e+00  0.00000e+00  3.02204e-02
        21
  0.00000e+00  0.00000e+00  2.91140e-01
        22
  0.00000e+00  0.00000e+00  3.15825e-01
        23
  0.00000e+00  0.00000e+00  2.49344e-01
        24
  0.00000e+00  0.00000e+00  2.96247e-01
        25
  0.00000e+00  0.00000e+00  7.64517e-02
        26
  0.00000e+00  0.00000e+00  1.24097e-01
        27
  0.00000e+00  0.00000e+00 -1.81500e-02
        28
  0.00000e+00  0.00000e+00 -7.12754e-03
        29
  0.00000e+00  0.00000e+00  2.12053e-01
        30
  0.00000e+00  0.00000e+00  2.21988e-01
        31
  0.00000e+00  0.00000e+00 -4.30029e-02
        32
  0.00000e+00  0.00000e+00  7.95788e-02
        33
  0.00000e+00  0.00000e+00 -9.71122e-04
        34
  0.00000e+00  0.00000e+00 -2.92770e-03
        35
  0.00000e+00  0.00000e+00  1.07328e-02
        36
  0.00000e+00  0.00000e+00  1.27078e-02
    -1
    -1
    55                                                                          
Mode 7                                                                          
EMA                                                                             
Acceleration shapes (Uz only)                                                   
LoadCase 1                                                                      
                                                                                
         1         2         2        12         2         3
         2         4         1         7
  3.72743e+01  0.00000e+00  0.00000e+00  0.00000e+00
         1
  0.00000e+00  0.00000e+00 -1.95897e-01
         2
  0.00000e+00  0.00000e+00 -1.52017e-01
         3
  0.00000e+00  0.00000e+00 -1.23310e-01
         4
  0.00000e+00  0.00000e+00 -1.58359e-01
         5
  0.00000e+00  0.00000e+00 -3.97007e-02
         6
  0.00000e+00  0.00000e+00 -4.95346e-02
         7
  0.00000e+00  0.00000e+00  9.74702e-02
         8
  0.00000e+00  0.00000e+00  4.28505e-02
         9
  0.00000e+00  0.00000e+00  7.93998e-02
        10
  0.00000e+00  0.00000e+00  4.15959e-02
        11
  0.00000e+00  0.00000e+00 -6.03944e-04
        12
  0.00000e+00  0.00000e+00 -4.52817e-03
        13
  0.00000e+00  0.00000e+00 -4.18399e-01
        14
  0.00000e+00  0.00000e+00 -4.67358e-01
        15
  0.00000e+00  0.00000e+00  1.47862e-02
        16
  0.00000e+00  0.00000e+00  8.34718e-03
        17
  0.00000e+00  0.00000e+00 -3.21812e-01
        18
  0.00000e+00  0.00000e+00 -1.94684e-01
        19
  0.00000e+00  0.00000e+00 -1.64588e-01
        20
  0.00000e+00  0.00000e+00 -2.13568e-01
        21
  0.00000e+00  0.00000e+00 -1.06753e-02
        22
  0.00000e+00  0.00000e+00 -6.10033e-02
        23
  0.00000e+00  0.00000e+00  1.46619e-01
        24
  0.00000e+00  0.00000e+00  6.01205e-02
        25
  0.00000e+00  0.00000e+00  1.10166e-01
        26
  0.00000e+00  0.00000e+00  5.00703e-02
        27
  0.00000e+00  0.00000e+00 -2.17165e-04
        28
  0.00000e+00  0.00000e+00 -9.41021e-03
        29
  0.00000e+00  0.00000e+00 -3.19282e-01
        30
  0.00000e+00  0.00000e+00 -3.47757e-01
        31
  0.00000e+00  0.00000e+00  8.48706e-03
        32
  0.00000e+00  0.00000e+00 -3.39343e-03
        33
  0.00000e+00  0.00000e+00 -8.85029e-03
        34
  0.00000e+00  0.00000e+00 -4.57716e-03
        35
  0.00000e+00  0.00000e+00  2.67818e-03
        36
  0.00000e+00  0.00000e+00  1.13894e-02
    -1
