    -1
    15
         1         0         0         0      7.81760     -4.63530      0.63576
         2         0         0         0      9.70720     -4.63530      0.73676
         3         0         0         0      9.02168     -4.53370      0.69505
         4         0         0         0      9.37747     -4.53370      0.69810
         5         0         0         0      8.56214     -3.82250      0.69839
         6         0         0         0      9.24877     -3.82250      0.69834
         7         0         0         0      8.12068     -3.06050      0.70675
         8         0         0         0      9.10008     -3.06050      0.70036
         9         0         0         0      7.43669     -2.01910      0.71479
        10         0         0         0      8.88655     -1.99370      0.70320
        11         0         0         0      7.48304     -1.08778      0.75700
        12         0         0         0      8.36919     -1.08570      0.73723
        13         0         0         0     12.54050     -2.55219      0.07744
        14         0         0         0     12.83915     -2.43623     -0.02122
        15         0         0         0     11.03013     -1.02766      0.96333
        16         0         0         0     13.00227     -0.87670      0.19341
        17         0         0         0      7.81760      4.63530      0.63576
        18         0         0         0      9.70720      4.63530      0.73676
        19         0         0         0      9.02168      4.53370      0.69505
        20         0         0         0      9.37747      4.53370      0.69810
        21         0         0         0      8.56214      3.82250      0.69839
        22         0         0         0      9.24877      3.82250      0.69834
        23         0         0         0      8.12068      3.06050      0.70675
        24         0         0         0      9.10008      3.06050      0.70036
        25         0         0         0      7.43669      2.01910      0.71479
        26         0         0         0      8.88655      1.99370      0.70320
        27         0         0         0      7.48304      1.08778      0.75700
        28         0         0         0      8.36919      1.08570      0.73723
        29         0         0         0     12.54050      2.55219      0.07744
        30         0         0         0     12.83915      2.43623     -0.02122
        31         0         0         0     11.03013      1.02766      0.96333
        32         0         0         0     13.00227      0.87670      0.19341
        33         0         0         0     11.19392      0.04761      2.07857
        34         0         0         0     11.85028      0.05765      1.81122
        35         0         0         0     12.28934      0.02106      3.57360
        36         0         0         0     12.60714      0.02271      3.57360
    -1
    -1
    55                                                                          
Mode 1                                                                          
EMA                                                                             
Acceleration shapes (Uz only)                                                   
LoadCase 1                                                                      
                                                                                
         1         2         2        12         2         3
         2         4         1         1
  5.64746e+00  0.00000e+00  0.00000e+00  0.00000e+00
         1
  0.00000e+00  0.00000e+00 -5.83127e-01
         2
  0.00000e+00  0.00000e+00 -2.21107e-01
         3
  0.00000e+00  0.00000e+00 -2.40150e-01
         4
  0.00000e+00  0.00000e+00 -2.19583e-01
         5
  0.00000e+00  0.00000e+00  1.73345e-03
         6
  0.00000e+00  0.00000e+00 -6.71371e-02
         7
  0.00000e+00  0.00000e+00 -2.88822e-02
         8
  0.00000e+00  0.00000e+00 -2.99823e-02
         9
  0.00000e+00  0.00000e+00 -3.71692e-02
        10
  0.00000e+00  0.00000e+00 -1.22890e-02
        11
  0.00000e+00  0.00000e+00  3.57993e-02
        12
  0.00000e+00  0.00000e+00  3.39442e-02
        13
  0.00000e+00  0.00000e+00  6.37030e-02
        14
  0.00000e+00  0.00000e+00  6.22586e-02
        15
  0.00000e+00  0.00000e+00  3.73487e-02
        16
  0.00000e+00  0.00000e+00  4.22104e-02
        17
  0.00000e+00  0.00000e+00 -5.48502e-01
        18
  0.00000e+00  0.00000e+00 -2.56685e-01
        19
  0.00000e+00  0.00000e+00 -2.24425e-01
        20
  0.00000e+00  0.00000e+00 -2.19305e-01
        21
  0.00000e+00  0.00000e+00  2.58537e-02
        22
  0.00000e+00  0.00000e+00 -8.19377e-02
        23
  0.00000e+00  0.00000e+00 -3.59188e-02
        24
  0.00000e+00  0.00000e+00 -5.63139e-02
        25
  0.00000e+00  0.00000e+00 -4.66952e-02
        26
  0.00000e+00  0.00000e+00 -2.72088e-02
        27
  0.00000e+00  0.00000e+00  3.25226e-02
        28
  0.00000e+00  0.00000e+00  3.21837e-02
        29
  0.00000e+00  0.00000e+00 -9.65850e-03
        30
  0.00000e+00  0.00000e+00 -1.02988e-02
        31
  0.00000e+00  0.00000e+00  3.69878e-02
        32
  0.00000e+00  0.00000e+00  1.37572e-02
        33
  0.00000e+00  0.00000e+00 -4.07772e-03
        34
  0.00000e+00  0.00000e+00 -8.89154e-04
        35
  0.00000e+00  0.00000e+00 -3.76647e-03
        36
  0.00000e+00  0.00000e+00 -4.13506e-03
    -1
    -1
    55                                                                          
Mode 2                                                                          
EMA                                                                             
Acceleration shapes (Uz only)                                                   
LoadCase 1                                                                      
                                                                                
         1         2         2        12         2         3
         2         4         1         2
  8.57029e+00  0.00000e+00  0.00000e+00  0.00000e+00
         1
  0.00000e+00  0.00000e+00  2.28389e-01
         2
  0.00000e+00  0.00000e+00 -4.59726e-01
         3
  0.00000e+00  0.00000e+00 -2.06538e-01
         4
  0.00000e+00  0.00000e+00 -3.07217e-01
         5
  0.00000e+00  0.00000e+00 -6.54928e-02
         6
  0.00000e+00  0.00000e+00 -1.52778e-01
         7
  0.00000e+00  0.00000e+00 -2.94157e-02
         8
  0.00000e+00  0.00000e+00 -7.00519e-02
         9
  0.00000e+00  0.00000e+00 -3.57762e-03
        10
  0.00000e+00  0.00000e+00 -1.88165e-02
        11
  0.00000e+00  0.00000e+00  8.90920e-03
        12
  0.00000e+00  0.00000e+00  8.61658e-03
        13
  0.00000e+00  0.00000e+00  4.45493e-02
        14
  0.00000e+00  0.00000e+00  4.51132e-02
        15
  0.00000e+00  0.00000e+00  1.70002e-02
        16
  0.00000e+00  0.00000e+00  2.90111e-02
        17
  0.00000e+00  0.00000e+00  3.32157e-01
        18
  0.00000e+00  0.00000e+00 -5.10689e-01
        19
  0.00000e+00  0.00000e+00 -2.00723e-01
        20
  0.00000e+00  0.00000e+00 -3.28848e-01
        21
  0.00000e+00  0.00000e+00 -6.39571e-02
        22
  0.00000e+00  0.00000e+00 -1.61792e-01
        23
  0.00000e+00  0.00000e+00 -3.42925e-02
        24
  0.00000e+00  0.00000e+00 -8.62439e-02
        25
  0.00000e+00  0.00000e+00 -1.31339e-02
        26
  0.00000e+00  0.00000e+00 -3.14761e-02
        27
  0.00000e+00  0.00000e+00  2.63279e-03
        28
  0.00000e+00  0.00000e+00  2.32885e-03
        29
  0.00000e+00  0.00000e+00  4.22767e-03
        30
  0.00000e+00  0.00000e+00  5.61055e-03
        31
  0.00000e+00  0.00000e+00  1.36327e-02
        32
  0.00000e+00  0.00000e+00  1.47307e-02
        33
  0.00000e+00  0.00000e+00 -5.62121e-03
        34
  0.00000e+00  0.00000e+00 -3.29876e-03
        35
  0.00000e+00  0.00000e+00 -1.14598e-02
        36
  0.00000e+00  0.00000e+00 -1.14195e-02
    -1
    -1
    55                                                                          
Mode 3                                                                          
EMA                                                                             
Acceleration shapes (Uz only)                                                   
LoadCase 1                                                                      
                                                                                
         1         2         2        12         2         3
         2         4         1         3
  1.48664e+01  0.00000e+00  0.00000e+00  0.00000e+00
         1
  0.00000e+00  0.00000e+00  2.54262e-02
         2
  0.00000e+00  0.00000e+00 -6.61840e-02
         3
  0.00000e+00  0.00000e+00 -2.58785e-02
         4
  0.00000e+00  0.00000e+00 -3.20821e-02
         5
  0.00000e+00  0.00000e+00 -1.93903e-02
         6
  0.00000e+00  0.00000e+00  5.81983e-02
         7
  0.00000e+00  0.00000e+00  1.02552e-01
         8
  0.00000e+00  0.00000e+00  8.28863e-02
         9
  0.00000e+00  0.00000e+00  1.49135e-01
        10
  0.00000e+00  0.00000e+00  1.01012e-01
        11
  0.00000e+00  0.00000e+00  1.16834e-01
        12
  0.00000e+00  0.00000e+00  9.07968e-02
        13
  0.00000e+00  0.00000e+00 -4.60008e-01
        14
  0.00000e+00  0.00000e+00 -4.91114e-01
        15
  0.00000e+00  0.00000e+00 -6.00379e-02
        16
  0.00000e+00  0.00000e+00 -3.15396e-01
        17
  0.00000e+00  0.00000e+00  3.09000e-03
        18
  0.00000e+00  0.00000e+00 -8.51577e-02
        19
  0.00000e+00  0.00000e+00 -4.31518e-02
        20
  0.00000e+00  0.00000e+00 -4.70501e-02
        21
  0.00000e+00  0.00000e+00 -2.54423e-02
        22
  0.00000e+00  0.00000e+00  3.91532e-02
        23
  0.00000e+00  0.00000e+00  1.03338e-01
        24
  0.00000e+00  0.00000e+00  6.30827e-02
        25
  0.00000e+00  0.00000e+00  1.53403e-01
        26
  0.00000e+00  0.00000e+00  9.10328e-02
        27
  0.00000e+00  0.00000e+00  1.19303e-01
        28
  0.00000e+00  0.00000e+00  9.36986e-02
        29
  0.00000e+00  0.00000e+00 -3.00076e-01
        30
  0.00000e+00  0.00000e+00 -3.31731e-01
        31
  0.00000e+00  0.00000e+00 -6.42804e-02
        32
  0.00000e+00  0.00000e+00 -2.64121e-01
        33
  0.00000e+00  0.00000e+00  2.02109e-02
        34
  0.00000e+00  0.00000e+00  4.91666e-03
        35
  0.00000e+00  0.00000e+00  5.10603e-02
        36
  0.00000e+00  0.00000e+00  4.32918e-02
    -1
    -1
    55                                                                          
Mode 4                                                                          
EMA                                                                             
Acceleration shapes (Uz only)                                                   
LoadCase 1                                                                      
                                                                                
         1         2         2        12         2         3
         2         4         1         4
  1.74967e+01  0.00000e+00  0.00000e+00  0.00000e+00
         1
  0.00000e+00  0.00000e+00  9.92748e-02
         2
  0.00000e+00  0.00000e+00  1.40183e-01
         3
  0.00000e+00  0.00000e+00 -6.10863e-04
         4
  0.00000e+00  0.00000e+00  4.79523e-02
         5
  0.00000e+00  0.00000e+00 -2.37733e-01
         6
  0.00000e+00  0.00000e+00 -9.48151e-02
         7
  0.00000e+00  0.00000e+00 -6.28395e-02
         8
  0.00000e+00  0.00000e+00 -4.15197e-02
         9
  0.00000e+00  0.00000e+00  1.03360e-01
        10
  0.00000e+00  0.00000e+00  5.57295e-02
        11
  0.00000e+00  0.00000e+00  3.54134e-02
        12
  0.00000e+00  0.00000e+00  3.06177e-02
        13
  0.00000e+00  0.00000e+00 -4.85806e-01
        14
  0.00000e+00  0.00000e+00 -5.02060e-01
        15
  0.00000e+00  0.00000e+00  1.92713e-02
        16
  0.00000e+00  0.00000e+00 -1.74916e-01
        17
  0.00000e+00  0.00000e+00  1.59002e-01
        18
  0.00000e+00  0.00000e+00  1.26509e-01
        19
  0.00000e+00  0.00000e+00 -3.91134e-02
        20
  0.00000e+00  0.00000e+00  1.37839e-02
        21
  0.00000e+00  0.00000e+00 -3.79816e-01
        22
  0.00000e+00  0.00000e+00 -1.63782e-01
        23
  0.00000e+00  0.00000e+00 -1.54248e-01
        24
  0.00000e+00  0.00000e+00 -8.31239e-02
        25
  0.00000e+00  0.00000e+00  6.59777e-02
        26
  0.00000e+00  0.00000e+00  4.43004e-02
        27
  0.00000e+00  0.00000e+00  3.11830e-02
        28
  0.00000e+00  0.00000e+00  3.13752e-02
        29
  0.00000e+00  0.00000e+00  2.23243e-01
        30
  0.00000e+00  0.00000e+00  2.22649e-01
        31
  0.00000e+00  0.00000e+00 -4.37394e-02
        32
  0.00000e+00  0.00000e+00  8.61703e-02
        33
  0.00000e+00  0.00000e+00  1.16715e-02
        34
  0.00000e+00  0.00000e+00  1.71384e-03
        35
  0.00000e+00  0.00000e+00  3.64099e-03
        36
  0.00000e+00  0.00000e+00 -5.34460e-03
    -1
    -1
    55                                                                          
Mode 5                                                                          
EMA                                                                             
Acceleration shapes (Uz only)                                                   
LoadCase 1                                                                      
                                                                                
         1         2         2        12         2         3
         2         4         1         5
  2.28724e+01  0.00000e+00  0.00000e+00  0.00000e+00
         1
  0.00000e+00  0.00000e+00 -1.16499e-01
         2
  0.00000e+00  0.00000e+00  9.61341e-02
         3
  0.00000e+00  0.00000e+00 -7.05992e-02
         4
  0.00000e+00  0.00000e+00 -6.53768e-02
         5
  0.00000e+00  0.00000e+00 -3.05034e-01
         6
  0.00000e+00  0.00000e+00 -3.53215e-01
         7
  0.00000e+00  0.00000e+00 -2.93933e-01
         8
  0.00000e+00  0.00000e+00 -3.39371e-01
         9
  0.00000e+00  0.00000e+00 -9.81321e-02
        10
  0.00000e+00  0.00000e+00 -1.46441e-01
        11
  0.00000e+00  0.00000e+00  6.90255e-03
        12
  0.00000e+00  0.00000e+00 -6.07995e-03
        13
  0.00000e+00  0.00000e+00  2.36301e-01
        14
  0.00000e+00  0.00000e+00  2.38586e-01
        15
  0.00000e+00  0.00000e+00 -1.63139e-02
        16
  0.00000e+00  0.00000e+00  9.93657e-02
        17
  0.00000e+00  0.00000e+00 -8.99071e-02
        18
  0.00000e+00  0.00000e+00  7.49806e-02
        19
  0.00000e+00  0.00000e+00 -6.69358e-02
        20
  0.00000e+00  0.00000e+00 -9.20616e-02
        21
  0.00000e+00  0.00000e+00 -2.64296e-01
        22
  0.00000e+00  0.00000e+00 -3.36119e-01
        23
  0.00000e+00  0.00000e+00 -2.30739e-01
        24
  0.00000e+00  0.00000e+00 -2.93617e-01
        25
  0.00000e+00  0.00000e+00 -6.62511e-02
        26
  0.00000e+00  0.00000e+00 -1.17158e-01
        27
  0.00000e+00  0.00000e+00  2.07532e-02
        28
  0.00000e+00  0.00000e+00  9.51126e-03
        29
  0.00000e+00  0.00000e+00 -9.41027e-02
        30
  0.00000e+00  0.00000e+00 -9.68271e-02
        31
  0.00000e+00  0.00000e+00  3.40278e-02
        32
  0.00000e+00  0.00000e+00 -4.57422e-02
        33
  0.00000e+00  0.00000e+00  5.51779e-03
        34
  0.00000e+00  0.00000e+00  1.31441e-02
        35
  0.00000e+00  0.00000e+00 -4.69636e-02
        36
  0.00000e+00  0.00000e+00 -5.50003e-02
    -1
    -1
    55                                                                          
Mode 6                                                                          
EMA                                                                             
Acceleration shapes (Uz only)                                                   
LoadCase 1                                                                      
                                                                                
         1         2         2        12         2         3
         2         4         1         6
  2.40578e+01  0.00000e+00  0.00000e+00  0.00000e+00
         1
  0.00000e+00  0.00000e+00 -8.01349e-02
         2
  0.00000e+00  0.00000e+00  1.03941e-01
         3
  0.00000e+00  0.00000e+00 -1.36597e-02
         4
  0.00000e+00  0.00000e+00  6.13621e-04
         5
  0.00000e+00  0.00000e+00 -2.85891e-01
         6
  0.00000e+00  0.00000e+00 -3.01536e-01
         7
  0.00000e+00  0.00000e+00 -2.70391e-01
         8
  0.00000e+00  0.00000e+00 -3.18354e-01
         9
  0.00000e+00  0.00000e+00 -9.28939e-02
        10
  0.00000e+00  0.00000e+00 -1.42048e-01
        11
  0.00000e+00  0.00000e+00  8.24749e-03
        12
  0.00000e+00  0.00000e+00 -4.35693e-03
        13
  0.00000e+00  0.00000e+00 -2.07160e-01
        14
  0.00000e+00  0.00000e+00 -1.99060e-01
        15
  0.00000e+00  0.00000e+00  3.69178e-02
        16
  0.00000e+00  0.00000e+00 -7.25758e-02
        17
  0.00000e+00  0.00000e+00 -1.20113e-01
        18
  0.00000e+00  0.00000e+00  1.96819e-01
        19
  0.00000e+00  0.00000e+00  2.90985e-03
        20
  0.00000e+00  0.00000e+00  5.56279e-02
        21
  0.00000e+00  0.00000e+00 -2.85946e-01
        22
  0.00000e+00  0.00000e+00 -2.77825e-01
        23
  0.00000e+00  0.00000e+00 -2.64352e-01
        24
  0.00000e+00  0.00000e+00 -3.02470e-01
        25
  0.00000e+00  0.00000e+00 -9.85924e-02
        26
  0.00000e+00  0.00000e+00 -1.46888e-01
        27
  0.00000e+00  0.00000e+00  1.07484e-02
        28
  0.00000e+00  0.00000e+00 -5.74611e-03
        29
  0.00000e+00  0.00000e+00 -2.19913e-01
        30
  0.00000e+00  0.00000e+00 -2.29911e-01
        31
  0.00000e+00  0.00000e+00  3.87222e-02
        32
  0.00000e+00  0.00000e+00 -5.91934e-02
        33
  0.00000e+00  0.00000e+00 -8.18959e-03
        34
  0.00000e+00  0.00000e+00 -1.48690e-02
        35
  0.00000e+00  0.00000e+00  3.41648e-02
        36
  0.00000e+00  0.00000e+00  4.11291e-02
    -1
    -1
    55                                                                          
Mode 7                                                                          
EMA                                                                             
Acceleration shapes (Uz only)                                                   
LoadCase 1                                                                      
                                                                                
         1         2         2        12         2         3
         2         4         1         7
  3.18796e+01  0.00000e+00  0.00000e+00  0.00000e+00
         1
  0.00000e+00  0.00000e+00  2.22903e-03
         2
  0.00000e+00  0.00000e+00 -9.42571e-02
         3
  0.00000e+00  0.00000e+00  6.56787e-02
         4
  0.00000e+00  0.00000e+00 -3.20604e-02
         5
  0.00000e+00  0.00000e+00 -5.10517e-02
         6
  0.00000e+00  0.00000e+00  5.99642e-02
         7
  0.00000e+00  0.00000e+00  2.01526e-01
         8
  0.00000e+00  0.00000e+00  9.82988e-02
         9
  0.00000e+00  0.00000e+00  1.69855e-01
        10
  0.00000e+00  0.00000e+00  7.69889e-02
        11
  0.00000e+00  0.00000e+00 -2.39084e-02
        12
  0.00000e+00  0.00000e+00 -4.18540e-02
        13
  0.00000e+00  0.00000e+00  5.43200e-01
        14
  0.00000e+00  0.00000e+00  6.15634e-01
        15
  0.00000e+00  0.00000e+00 -8.63057e-02
        16
  0.00000e+00  0.00000e+00  1.59527e-01
        17
  0.00000e+00  0.00000e+00  1.42808e-01
        18
  0.00000e+00  0.00000e+00  1.65460e-01
        19
  0.00000e+00  0.00000e+00  3.59463e-02
        20
  0.00000e+00  0.00000e+00  7.09055e-02
        21
  0.00000e+00  0.00000e+00 -2.39309e-01
        22
  0.00000e+00  0.00000e+00  3.01120e-02
        23
  0.00000e+00  0.00000e+00  7.27046e-02
        24
  0.00000e+00  0.00000e+00  4.26564e-02
        25
  0.00000e+00  0.00000e+00  1.65246e-01
        26
  0.00000e+00  0.00000e+00  8.08065e-02
        27
  0.00000e+00  0.00000e+00  9.06580e-03
        28
  0.00000e+00  0.00000e+00  2.80889e-03
        29
  0.00000e+00  0.00000e+00 -5.68842e-02
        30
  0.00000e+00  0.00000e+00 -5.26958e-02
        31
  0.00000e+00  0.00000e+00  9.52401e-02
        32
  0.00000e+00  0.00000e+00 -5.23757e-02
        33
  0.00000e+00  0.00000e+00  4.07342e-02
        34
  0.00000e+00  0.00000e+00  3.14749e-02
        35
  0.00000e+00  0.00000e+00 -5.77205e-02
        36
  0.00000e+00  0.00000e+00 -9.00794e-02
    -1
    -1
    55                                                                          
Mode 8                                                                          
EMA                                                                             
Acceleration shapes (Uz only)                                                   
LoadCase 1                                                                      
                                                                                
         1         2         2        12         2         3
         2         4         1         8
  3.62913e+01  0.00000e+00  0.00000e+00  0.00000e+00
         1
  0.00000e+00  0.00000e+00  8.14788e-02
         2
  0.00000e+00  0.00000e+00  7.24790e-02
         3
  0.00000e+00  0.00000e+00  2.57173e-02
         4
  0.00000e+00  0.00000e+00  5.42161e-02
         5
  0.00000e+00  0.00000e+00 -1.31943e-01
         6
  0.00000e+00  0.00000e+00  2.70780e-02
         7
  0.00000e+00  0.00000e+00 -1.09717e-02
         8
  0.00000e+00  0.00000e+00  2.31059e-02
         9
  0.00000e+00  0.00000e+00  4.71410e-02
        10
  0.00000e+00  0.00000e+00  3.62533e-02
        11
  0.00000e+00  0.00000e+00 -5.79800e-03
        12
  0.00000e+00  0.00000e+00 -7.36728e-03
        13
  0.00000e+00  0.00000e+00 -4.11697e-01
        14
  0.00000e+00  0.00000e+00 -4.64403e-01
        15
  0.00000e+00  0.00000e+00  1.59168e-02
        16
  0.00000e+00  0.00000e+00  6.38032e-03
        17
  0.00000e+00  0.00000e+00  1.09959e-01
        18
  0.00000e+00  0.00000e+00  8.06584e-02
        19
  0.00000e+00  0.00000e+00  2.49252e-02
        20
  0.00000e+00  0.00000e+00  6.35528e-02
        21
  0.00000e+00  0.00000e+00 -1.20704e-01
        22
  0.00000e+00  0.00000e+00  6.06562e-02
        23
  0.00000e+00  0.00000e+00  7.54744e-03
        24
  0.00000e+00  0.00000e+00  4.89783e-02
        25
  0.00000e+00  0.00000e+00  5.30293e-02
        26
  0.00000e+00  0.00000e+00  4.12691e-02
        27
  0.00000e+00  0.00000e+00 -7.90476e-03
        28
  0.00000e+00  0.00000e+00 -1.04232e-02
        29
  0.00000e+00  0.00000e+00 -4.88002e-01
        30
  0.00000e+00  0.00000e+00 -5.38184e-01
        31
  0.00000e+00  0.00000e+00  6.36039e-03
        32
  0.00000e+00  0.00000e+00 -8.41517e-03
        33
  0.00000e+00  0.00000e+00 -2.03766e-03
        34
  0.00000e+00  0.00000e+00 -5.20738e-04
        35
  0.00000e+00  0.00000e+00  4.98032e-03
        36
  0.00000e+00  0.00000e+00  7.22187e-03
    -1
