    -1
    15
         1         0         0         0      7.81760     -4.63530      0.63576
         2         0         0         0      9.70720     -4.63530      0.73676
         3         0         0         0      9.02168     -4.53370      0.69505
         4         0         0         0      9.37747     -4.53370      0.69810
         5         0         0         0      8.56214     -3.82250      0.69839
         6         0         0         0      9.24877     -3.82250      0.69834
         7         0         0         0      8.12068     -3.06050      0.70675
         8         0         0         0      9.10008     -3.06050      0.70036
         9         0         0         0      7.43669     -2.01910      0.71479
        10         0         0         0      8.88655     -1.99370      0.70320
        11         0         0         0      7.48304     -1.08778      0.75700
        12         0         0         0      8.36919     -1.08570      0.73723
        13         0         0         0      7.81760      4.63530      0.63576
        14         0         0         0      9.70720      4.63530      0.73676
        15         0         0         0      9.02168      4.53370      0.69505
        16         0         0         0      9.37747      4.53370      0.69810
        17         0         0         0      8.56214      3.82250      0.69839
        18         0         0         0      9.24877      3.82250      0.69834
        19         0         0         0      8.12068      3.06050      0.70675
        20         0         0         0      9.10008      3.06050      0.70036
        21         0         0         0      7.43669      2.01910      0.71479
        22         0         0         0      8.88655      1.99370      0.70320
        23         0         0         0      7.48304      1.08778      0.75700
        24         0         0         0      8.36919      1.08570      0.73723
    -1
    -1
    55                                                                          
Mode 1                                                                          
EMA                                                                             
Acceleration shapes (Uz only)                                                   
LoadCase 1                                                                      
                                                                                
         1         2         2        12         2         3
         2         4         1         1
  8.83485e+00  0.00000e+00  0.00000e+00  0.00000e+00
         1
  0.00000e+00  0.00000e+00 -5.31817e-01
         2
  0.00000e+00  0.00000e+00 -2.32419e-01
         3
  0.00000e+00  0.00000e+00 -2.81237e-01
         4
  0.00000e+00  0.00000e+00 -2.52849e-01
         5
  0.00000e+00  0.00000e+00 -1.66244e-01
         6
  0.00000e+00  0.00000e+00 -1.58739e-01
         7
  0.00000e+00  0.00000e+00 -7.59812e-02
         8
  0.00000e+00  0.00000e+00 -8.13738e-02
         9
  0.00000e+00  0.00000e+00 -1.21112e-02
        10
  0.00000e+00  0.00000e+00 -1.80447e-02
        11
  0.00000e+00  0.00000e+00  8.31868e-03
        12
  0.00000e+00  0.00000e+00  8.03353e-03
        13
  0.00000e+00  0.00000e+00 -4.68377e-01
        14
  0.00000e+00  0.00000e+00 -2.30577e-01
        15
  0.00000e+00  0.00000e+00 -2.61551e-01
        16
  0.00000e+00  0.00000e+00 -2.37523e-01
        17
  0.00000e+00  0.00000e+00 -1.54563e-01
        18
  0.00000e+00  0.00000e+00 -1.45284e-01
        19
  0.00000e+00  0.00000e+00 -7.17217e-02
        20
  0.00000e+00  0.00000e+00 -7.75230e-02
        21
  0.00000e+00  0.00000e+00 -1.33480e-02
        22
  0.00000e+00  0.00000e+00 -2.23092e-02
        23
  0.00000e+00  0.00000e+00  6.62447e-03
        24
  0.00000e+00  0.00000e+00  7.03583e-03
    -1
    -1
    55                                                                          
Mode 2                                                                          
EMA                                                                             
Acceleration shapes (Uz only)                                                   
LoadCase 1                                                                      
                                                                                
         1         2         2        12         2         3
         2         4         1         2
  1.12014e+01  0.00000e+00  0.00000e+00  0.00000e+00
         1
  0.00000e+00  0.00000e+00 -3.72507e-02
         2
  0.00000e+00  0.00000e+00 -6.25338e-01
         3
  0.00000e+00  0.00000e+00 -9.58698e-03
         4
  0.00000e+00  0.00000e+00 -1.87380e-01
         5
  0.00000e+00  0.00000e+00  2.06382e-01
         6
  0.00000e+00  0.00000e+00  1.01787e-01
         7
  0.00000e+00  0.00000e+00 -4.93164e-02
         8
  0.00000e+00  0.00000e+00  3.39579e-02
         9
  0.00000e+00  0.00000e+00 -1.39695e-01
        10
  0.00000e+00  0.00000e+00 -4.61471e-02
        11
  0.00000e+00  0.00000e+00 -8.03460e-03
        12
  0.00000e+00  0.00000e+00 -4.07262e-03
        13
  0.00000e+00  0.00000e+00 -3.36776e-01
        14
  0.00000e+00  0.00000e+00 -5.38307e-01
        15
  0.00000e+00  0.00000e+00  9.43440e-04
        16
  0.00000e+00  0.00000e+00 -1.56994e-01
        17
  0.00000e+00  0.00000e+00  2.15788e-01
        18
  0.00000e+00  0.00000e+00  4.56859e-02
        19
  0.00000e+00  0.00000e+00 -2.34320e-02
        20
  0.00000e+00  0.00000e+00 -1.32692e-03
        21
  0.00000e+00  0.00000e+00 -1.23209e-01
        22
  0.00000e+00  0.00000e+00 -4.30917e-02
        23
  0.00000e+00  0.00000e+00  1.12166e-03
        24
  0.00000e+00  0.00000e+00  3.83767e-03
    -1
    -1
    55                                                                          
Mode 3                                                                          
EMA                                                                             
Acceleration shapes (Uz only)                                                   
LoadCase 1                                                                      
                                                                                
         1         2         2        12         2         3
         2         4         1         3
  1.29646e+01  0.00000e+00  0.00000e+00  0.00000e+00
         1
  0.00000e+00  0.00000e+00 -3.35991e-01
         2
  0.00000e+00  0.00000e+00  4.20338e-01
         3
  0.00000e+00  0.00000e+00  2.31673e-01
         4
  0.00000e+00  0.00000e+00  3.17533e-01
         5
  0.00000e+00  0.00000e+00  1.20184e-01
         6
  0.00000e+00  0.00000e+00  1.97164e-01
         7
  0.00000e+00  0.00000e+00  6.19528e-02
         8
  0.00000e+00  0.00000e+00  1.06425e-01
         9
  0.00000e+00  0.00000e+00  1.27126e-02
        10
  0.00000e+00  0.00000e+00  3.27311e-02
        11
  0.00000e+00  0.00000e+00  6.24413e-04
        12
  0.00000e+00  0.00000e+00  6.23729e-04
        13
  0.00000e+00  0.00000e+00 -4.62618e-01
        14
  0.00000e+00  0.00000e+00  3.58991e-01
        15
  0.00000e+00  0.00000e+00  1.63986e-01
        16
  0.00000e+00  0.00000e+00  2.56605e-01
        17
  0.00000e+00  0.00000e+00  9.33278e-02
        18
  0.00000e+00  0.00000e+00  1.63149e-01
        19
  0.00000e+00  0.00000e+00  5.71027e-02
        20
  0.00000e+00  0.00000e+00  9.79605e-02
        21
  0.00000e+00  0.00000e+00  2.28415e-02
        22
  0.00000e+00  0.00000e+00  4.16094e-02
        23
  0.00000e+00  0.00000e+00  8.68616e-03
        24
  0.00000e+00  0.00000e+00  8.34229e-03
    -1
    -1
    55                                                                          
Mode 4                                                                          
EMA                                                                             
Acceleration shapes (Uz only)                                                   
LoadCase 1                                                                      
                                                                                
         1         2         2        12         2         3
         2         4         1         4
  1.44466e+01  0.00000e+00  0.00000e+00  0.00000e+00
         1
  0.00000e+00  0.00000e+00  1.37197e-01
         2
  0.00000e+00  0.00000e+00  6.08733e-01
         3
  0.00000e+00  0.00000e+00  3.30235e-02
         4
  0.00000e+00  0.00000e+00  1.95470e-01
         5
  0.00000e+00  0.00000e+00 -1.91938e-01
         6
  0.00000e+00  0.00000e+00 -1.08196e-01
         7
  0.00000e+00  0.00000e+00  1.65159e-02
         8
  0.00000e+00  0.00000e+00 -5.43283e-02
         9
  0.00000e+00  0.00000e+00  1.13797e-01
        10
  0.00000e+00  0.00000e+00  2.63674e-02
        11
  0.00000e+00  0.00000e+00  1.76524e-03
        12
  0.00000e+00  0.00000e+00 -2.97713e-03
        13
  0.00000e+00  0.00000e+00  2.53469e-01
        14
  0.00000e+00  0.00000e+00  5.90827e-01
        15
  0.00000e+00  0.00000e+00  2.81069e-02
        16
  0.00000e+00  0.00000e+00  1.96548e-01
        17
  0.00000e+00  0.00000e+00 -1.99216e-01
        18
  0.00000e+00  0.00000e+00 -3.88151e-02
        19
  0.00000e+00  0.00000e+00 -1.83318e-03
        20
  0.00000e+00  0.00000e+00 -3.95515e-03
        21
  0.00000e+00  0.00000e+00  1.02871e-01
        22
  0.00000e+00  0.00000e+00  3.63366e-02
        23
  0.00000e+00  0.00000e+00 -2.17853e-03
        24
  0.00000e+00  0.00000e+00 -5.33881e-03
    -1
    -1
    55                                                                          
Mode 5                                                                          
EMA                                                                             
Acceleration shapes (Uz only)                                                   
LoadCase 1                                                                      
                                                                                
         1         2         2        12         2         3
         2         4         1         5
  1.50620e+01  0.00000e+00  0.00000e+00  0.00000e+00
         1
  0.00000e+00  0.00000e+00 -1.55761e-01
         2
  0.00000e+00  0.00000e+00 -5.51896e-01
         3
  0.00000e+00  0.00000e+00 -6.12770e-02
         4
  0.00000e+00  0.00000e+00 -1.99865e-01
         5
  0.00000e+00  0.00000e+00  1.68776e-01
         6
  0.00000e+00  0.00000e+00  8.24405e-02
         7
  0.00000e+00  0.00000e+00  8.15069e-03
         8
  0.00000e+00  0.00000e+00  5.67071e-02
         9
  0.00000e+00  0.00000e+00 -6.94618e-02
        10
  0.00000e+00  0.00000e+00 -4.08448e-03
        11
  0.00000e+00  0.00000e+00  2.42136e-02
        12
  0.00000e+00  0.00000e+00  2.23207e-02
        13
  0.00000e+00  0.00000e+00 -1.93408e-01
        14
  0.00000e+00  0.00000e+00 -6.50570e-01
        15
  0.00000e+00  0.00000e+00 -1.17226e-01
        16
  0.00000e+00  0.00000e+00 -2.83372e-01
        17
  0.00000e+00  0.00000e+00  1.49880e-01
        18
  0.00000e+00  0.00000e+00 -1.65978e-02
        19
  0.00000e+00  0.00000e+00  1.67804e-02
        20
  0.00000e+00  0.00000e+00 -4.27875e-03
        21
  0.00000e+00  0.00000e+00 -5.48095e-02
        22
  0.00000e+00  0.00000e+00 -1.71183e-02
        23
  0.00000e+00  0.00000e+00  3.26509e-02
        24
  0.00000e+00  0.00000e+00  2.94396e-02
    -1
    -1
    55                                                                          
Mode 6                                                                          
EMA                                                                             
Acceleration shapes (Uz only)                                                   
LoadCase 1                                                                      
                                                                                
         1         2         2        12         2         3
         2         4         1         6
  1.67444e+01  0.00000e+00  0.00000e+00  0.00000e+00
         1
  0.00000e+00  0.00000e+00 -1.55935e-01
         2
  0.00000e+00  0.00000e+00 -1.15877e-01
         3
  0.00000e+00  0.00000e+00  1.77893e-01
         4
  0.00000e+00  0.00000e+00  1.15778e-01
         5
  0.00000e+00  0.00000e+00  2.13296e-01
         6
  0.00000e+00  0.00000e+00  2.01435e-01
         7
  0.00000e+00  0.00000e+00 -1.40105e-02
         8
  0.00000e+00  0.00000e+00  7.86464e-02
         9
  0.00000e+00  0.00000e+00 -1.38989e-01
        10
  0.00000e+00  0.00000e+00 -3.10972e-02
        11
  0.00000e+00  0.00000e+00 -4.46132e-02
        12
  0.00000e+00  0.00000e+00 -3.09278e-02
        13
  0.00000e+00  0.00000e+00 -2.06193e-01
        14
  0.00000e+00  0.00000e+00 -7.39071e-01
        15
  0.00000e+00  0.00000e+00 -2.11500e-01
        16
  0.00000e+00  0.00000e+00 -3.82822e-01
        17
  0.00000e+00  0.00000e+00  1.20667e-01
        18
  0.00000e+00  0.00000e+00 -4.50129e-02
        19
  0.00000e+00  0.00000e+00  5.18891e-02
        20
  0.00000e+00  0.00000e+00  8.68886e-03
        21
  0.00000e+00  0.00000e+00 -1.21328e-02
        22
  0.00000e+00  0.00000e+00  5.41925e-03
        23
  0.00000e+00  0.00000e+00  3.22024e-02
        24
  0.00000e+00  0.00000e+00  3.04321e-02
    -1
    -1
    55                                                                          
Mode 7                                                                          
EMA                                                                             
Acceleration shapes (Uz only)                                                   
LoadCase 1                                                                      
                                                                                
         1         2         2        12         2         3
         2         4         1         7
  2.64476e+01  0.00000e+00  0.00000e+00  0.00000e+00
         1
  0.00000e+00  0.00000e+00  8.66726e-01
         2
  0.00000e+00  0.00000e+00 -2.07966e-01
         3
  0.00000e+00  0.00000e+00  4.24739e-02
         4
  0.00000e+00  0.00000e+00 -9.09350e-02
         5
  0.00000e+00  0.00000e+00 -4.05887e-02
         6
  0.00000e+00  0.00000e+00 -1.87033e-01
         7
  0.00000e+00  0.00000e+00 -7.89187e-02
         8
  0.00000e+00  0.00000e+00 -1.51334e-01
         9
  0.00000e+00  0.00000e+00 -2.22836e-02
        10
  0.00000e+00  0.00000e+00 -5.08144e-02
        11
  0.00000e+00  0.00000e+00  2.85067e-04
        12
  0.00000e+00  0.00000e+00 -1.28702e-02
        13
  0.00000e+00  0.00000e+00  2.19862e-01
        14
  0.00000e+00  0.00000e+00  1.67883e-01
        15
  0.00000e+00  0.00000e+00  1.03477e-01
        16
  0.00000e+00  0.00000e+00  1.04607e-01
        17
  0.00000e+00  0.00000e+00 -4.57652e-02
        18
  0.00000e+00  0.00000e+00 -6.41876e-02
        19
  0.00000e+00  0.00000e+00 -9.03749e-02
        20
  0.00000e+00  0.00000e+00 -9.55086e-02
        21
  0.00000e+00  0.00000e+00 -3.74945e-02
        22
  0.00000e+00  0.00000e+00 -5.66628e-02
        23
  0.00000e+00  0.00000e+00 -2.13784e-03
        24
  0.00000e+00  0.00000e+00 -1.26884e-02
    -1
    -1
    55                                                                          
Mode 8                                                                          
EMA                                                                             
Acceleration shapes (Uz only)                                                   
LoadCase 1                                                                      
                                                                                
         1         2         2        12         2         3
         2         4         1         8
  3.14341e+01  0.00000e+00  0.00000e+00  0.00000e+00
         1
  0.00000e+00  0.00000e+00  1.53311e-01
         2
  0.00000e+00  0.00000e+00 -5.51756e-01
         3
  0.00000e+00  0.00000e+00 -2.33265e-01
         4
  0.00000e+00  0.00000e+00 -3.51414e-01
         5
  0.00000e+00  0.00000e+00  1.03869e-01
         6
  0.00000e+00  0.00000e+00 -8.28349e-03
         7
  0.00000e+00  0.00000e+00  2.10217e-01
         8
  0.00000e+00  0.00000e+00  1.30696e-01
         9
  0.00000e+00  0.00000e+00  9.60136e-02
        10
  0.00000e+00  0.00000e+00  6.84278e-02
        11
  0.00000e+00  0.00000e+00 -1.02449e-02
        12
  0.00000e+00  0.00000e+00 -1.68977e-02
        13
  0.00000e+00  0.00000e+00  3.20943e-02
        14
  0.00000e+00  0.00000e+00 -4.52840e-01
        15
  0.00000e+00  0.00000e+00 -2.02070e-01
        16
  0.00000e+00  0.00000e+00 -2.86245e-01
        17
  0.00000e+00  0.00000e+00  1.06818e-01
        18
  0.00000e+00  0.00000e+00  3.58017e-02
        19
  0.00000e+00  0.00000e+00  1.91319e-01
        20
  0.00000e+00  0.00000e+00  1.30899e-01
        21
  0.00000e+00  0.00000e+00  9.30375e-02
        22
  0.00000e+00  0.00000e+00  5.80180e-02
        23
  0.00000e+00  0.00000e+00 -1.05727e-02
        24
  0.00000e+00  0.00000e+00 -1.76022e-02
    -1
    -1
    55                                                                          
Mode 9                                                                          
EMA                                                                             
Acceleration shapes (Uz only)                                                   
LoadCase 1                                                                      
                                                                                
         1         2         2        12         2         3
         2         4         1         9
  3.95640e+01  0.00000e+00  0.00000e+00  0.00000e+00
         1
  0.00000e+00  0.00000e+00 -4.95156e-01
         2
  0.00000e+00  0.00000e+00  3.69048e-01
         3
  0.00000e+00  0.00000e+00  1.49656e-01
         4
  0.00000e+00  0.00000e+00  1.30764e-01
         5
  0.00000e+00  0.00000e+00  8.26375e-02
         6
  0.00000e+00  0.00000e+00 -3.26841e-01
         7
  0.00000e+00  0.00000e+00  3.23657e-01
         8
  0.00000e+00  0.00000e+00 -3.82161e-01
         9
  0.00000e+00  0.00000e+00  2.97416e-01
        10
  0.00000e+00  0.00000e+00 -1.92383e-01
        11
  0.00000e+00  0.00000e+00  4.11208e-02
        12
  0.00000e+00  0.00000e+00  3.92430e-03
        13
  0.00000e+00  0.00000e+00  2.99782e-02
        14
  0.00000e+00  0.00000e+00  2.06448e-01
        15
  0.00000e+00  0.00000e+00  4.86670e-02
        16
  0.00000e+00  0.00000e+00  4.18117e-02
        17
  0.00000e+00  0.00000e+00 -9.31904e-02
        18
  0.00000e+00  0.00000e+00 -6.65962e-02
        19
  0.00000e+00  0.00000e+00  9.47623e-02
        20
  0.00000e+00  0.00000e+00 -4.83769e-02
        21
  0.00000e+00  0.00000e+00  1.23897e-01
        22
  0.00000e+00  0.00000e+00  7.97969e-03
        23
  0.00000e+00  0.00000e+00  3.13823e-03
        24
  0.00000e+00  0.00000e+00  2.62562e-04
    -1
