    -1
    15
         1         0         0         0      7.81760      4.63530      0.63576
         2         0         0         0      9.70720      4.63530      0.73676
         3         0         0         0      9.02168      4.53370      0.69505
         4         0         0         0      9.37747      4.53370      0.69810
         5         0         0         0      8.56214      3.82250      0.69839
         6         0         0         0      9.24877      3.82250      0.69834
         7         0         0         0      8.12068      3.06050      0.70675
         8         0         0         0      9.10008      3.06050      0.70036
         9         0         0         0      7.43669      2.01910      0.71479
        10         0         0         0      8.88655      1.99370      0.70320
        11         0         0         0      7.48304      1.08778      0.75700
        12         0         0         0      8.36919      1.08570      0.73723
    -1
    -1
    55                                                                          
Mode 1                                                                          
EMA                                                                             
Acceleration shapes (Uz only)                                                   
LoadCase 1                                                                      
                                                                                
         1         2         2        12         2         3
         2         4         1         1
  8.85600e+00  0.00000e+00  0.00000e+00  0.00000e+00
         1
  0.00000e+00  0.00000e+00 -6.95238e-01
         2
  0.00000e+00  0.00000e+00 -3.47433e-01
         3
  0.00000e+00  0.00000e+00 -3.84149e-01
         4
  0.00000e+00  0.00000e+00 -3.51002e-01
         5
  0.00000e+00  0.00000e+00 -2.26305e-01
         6
  0.00000e+00  0.00000e+00 -2.15120e-01
         7
  0.00000e+00  0.00000e+00 -1.10155e-01
         8
  0.00000e+00  0.00000e+00 -1.16873e-01
         9
  0.00000e+00  0.00000e+00 -2.14911e-02
        10
  0.00000e+00  0.00000e+00 -3.45809e-02
        11
  0.00000e+00  0.00000e+00  1.03219e-02
        12
  0.00000e+00  0.00000e+00  1.06614e-02
    -1
    -1
    55                                                                          
Mode 2                                                                          
EMA                                                                             
Acceleration shapes (Uz only)                                                   
LoadCase 1                                                                      
                                                                                
         1         2         2        12         2         3
         2         4         1         2
  1.32025e+01  0.00000e+00  0.00000e+00  0.00000e+00
         1
  0.00000e+00  0.00000e+00  6.00470e-01
         2
  0.00000e+00  0.00000e+00 -5.37522e-01
         3
  0.00000e+00  0.00000e+00 -2.73827e-01
         4
  0.00000e+00  0.00000e+00 -3.99183e-01
         5
  0.00000e+00  0.00000e+00 -1.54090e-01
         6
  0.00000e+00  0.00000e+00 -2.49768e-01
         7
  0.00000e+00  0.00000e+00 -8.05505e-02
         8
  0.00000e+00  0.00000e+00 -1.42036e-01
         9
  0.00000e+00  0.00000e+00 -2.24379e-02
        10
  0.00000e+00  0.00000e+00 -5.31131e-02
        11
  0.00000e+00  0.00000e+00 -5.88666e-03
        12
  0.00000e+00  0.00000e+00 -5.26363e-03
    -1
    -1
    55                                                                          
Mode 3                                                                          
EMA                                                                             
Acceleration shapes (Uz only)                                                   
LoadCase 1                                                                      
                                                                                
         1         2         2        12         2         3
         2         4         1         3
  1.45069e+01  0.00000e+00  0.00000e+00  0.00000e+00
         1
  0.00000e+00  0.00000e+00  1.94655e-01
         2
  0.00000e+00  0.00000e+00 -8.18455e-01
         3
  0.00000e+00  0.00000e+00 -2.34110e-01
         4
  0.00000e+00  0.00000e+00 -4.48157e-01
         5
  0.00000e+00  0.00000e+00 -9.68466e-02
         6
  0.00000e+00  0.00000e+00 -1.37297e-01
         7
  0.00000e+00  0.00000e+00  7.78774e-03
         8
  0.00000e+00  0.00000e+00 -6.72034e-02
         9
  0.00000e+00  0.00000e+00  3.50435e-02
        10
  0.00000e+00  0.00000e+00  7.58323e-03
        11
  0.00000e+00  0.00000e+00  3.62374e-02
        12
  0.00000e+00  0.00000e+00  3.44021e-02
    -1
    -1
    55                                                                          
Mode 4                                                                          
EMA                                                                             
Acceleration shapes (Uz only)                                                   
LoadCase 1                                                                      
                                                                                
         1         2         2        12         2         3
         2         4         1         4
  1.50634e+01  0.00000e+00  0.00000e+00  0.00000e+00
         1
  0.00000e+00  0.00000e+00 -1.42255e-01
         2
  0.00000e+00  0.00000e+00  7.74348e-01
         3
  0.00000e+00  0.00000e+00  2.60722e-01
         4
  0.00000e+00  0.00000e+00  4.47593e-01
         5
  0.00000e+00  0.00000e+00 -5.61415e-02
         6
  0.00000e+00  0.00000e+00  1.62010e-01
         7
  0.00000e+00  0.00000e+00 -4.87312e-03
         8
  0.00000e+00  0.00000e+00  6.46665e-02
         9
  0.00000e+00  0.00000e+00 -1.63273e-01
        10
  0.00000e+00  0.00000e+00 -2.56430e-02
        11
  0.00000e+00  0.00000e+00 -1.83870e-01
        12
  0.00000e+00  0.00000e+00 -1.30786e-01
    -1
    -1
    55                                                                          
Mode 5                                                                          
EMA                                                                             
Acceleration shapes (Uz only)                                                   
LoadCase 1                                                                      
                                                                                
         1         2         2        12         2         3
         2         4         1         5
  2.79218e+01  0.00000e+00  0.00000e+00  0.00000e+00
         1
  0.00000e+00  0.00000e+00 -2.83856e-01
         2
  0.00000e+00  0.00000e+00 -7.47869e-01
         3
  0.00000e+00  0.00000e+00 -2.17936e-01
         4
  0.00000e+00  0.00000e+00 -3.80535e-01
         5
  0.00000e+00  0.00000e+00  2.08568e-01
         6
  0.00000e+00  0.00000e+00  1.06030e-01
         7
  0.00000e+00  0.00000e+00  2.35963e-01
         8
  0.00000e+00  0.00000e+00  1.94905e-01
         9
  0.00000e+00  0.00000e+00  8.07485e-02
        10
  0.00000e+00  0.00000e+00  1.09272e-01
        11
  0.00000e+00  0.00000e+00  9.09053e-03
        12
  0.00000e+00  0.00000e+00  2.93566e-02
    -1
    -1
    55                                                                          
Mode 6                                                                          
EMA                                                                             
Acceleration shapes (Uz only)                                                   
LoadCase 1                                                                      
                                                                                
         1         2         2        12         2         3
         2         4         1         6
  2.92660e+01  0.00000e+00  0.00000e+00  0.00000e+00
         1
  0.00000e+00  0.00000e+00 -2.30739e-01
         2
  0.00000e+00  0.00000e+00 -7.75630e-01
         3
  0.00000e+00  0.00000e+00 -2.12614e-01
         4
  0.00000e+00  0.00000e+00 -3.84286e-01
         5
  0.00000e+00  0.00000e+00  1.91462e-01
         6
  0.00000e+00  0.00000e+00  9.80284e-02
         7
  0.00000e+00  0.00000e+00  2.53174e-01
         8
  0.00000e+00  0.00000e+00  1.74890e-01
         9
  0.00000e+00  0.00000e+00  7.37672e-02
        10
  0.00000e+00  0.00000e+00  7.56610e-02
        11
  0.00000e+00  0.00000e+00 -9.78485e-03
        12
  0.00000e+00  0.00000e+00 -8.05254e-03
    -1
    -1
    55                                                                          
Mode 7                                                                          
EMA                                                                             
Acceleration shapes (Uz only)                                                   
LoadCase 1                                                                      
                                                                                
         1         2         2        12         2         3
         2         4         1         7
  3.09765e+01  0.00000e+00  0.00000e+00  0.00000e+00
         1
  0.00000e+00  0.00000e+00 -1.60951e-01
         2
  0.00000e+00  0.00000e+00  7.69660e-01
         3
  0.00000e+00  0.00000e+00  2.48803e-01
         4
  0.00000e+00  0.00000e+00  4.37270e-01
         5
  0.00000e+00  0.00000e+00 -1.78807e-01
         6
  0.00000e+00  0.00000e+00 -9.18783e-03
         7
  0.00000e+00  0.00000e+00 -2.54467e-01
         8
  0.00000e+00  0.00000e+00 -1.33942e-01
         9
  0.00000e+00  0.00000e+00 -1.02053e-01
        10
  0.00000e+00  0.00000e+00 -5.20238e-02
        11
  0.00000e+00  0.00000e+00  1.32234e-02
        12
  0.00000e+00  0.00000e+00  2.37594e-02
    -1
    -1
    55                                                                          
Mode 8                                                                          
EMA                                                                             
Acceleration shapes (Uz only)                                                   
LoadCase 1                                                                      
                                                                                
         1         2         2        12         2         3
         2         4         1         8
  3.45792e+01  0.00000e+00  0.00000e+00  0.00000e+00
         1
  0.00000e+00  0.00000e+00 -3.71248e-01
         2
  0.00000e+00  0.00000e+00  6.29959e-01
         3
  0.00000e+00  0.00000e+00  3.76911e-01
         4
  0.00000e+00  0.00000e+00  4.67566e-01
         5
  0.00000e+00  0.00000e+00 -7.06315e-03
         6
  0.00000e+00  0.00000e+00  2.97660e-02
         7
  0.00000e+00  0.00000e+00 -2.46880e-01
         8
  0.00000e+00  0.00000e+00 -1.45748e-01
         9
  0.00000e+00  0.00000e+00 -1.23339e-01
        10
  0.00000e+00  0.00000e+00 -7.63116e-02
        11
  0.00000e+00  0.00000e+00  1.05408e-02
        12
  0.00000e+00  0.00000e+00  1.92485e-02
    -1
    -1
    55                                                                          
Mode 9                                                                          
EMA                                                                             
Acceleration shapes (Uz only)                                                   
LoadCase 1                                                                      
                                                                                
         1         2         2        12         2         3
         2         4         1         9
  3.63530e+01  0.00000e+00  0.00000e+00  0.00000e+00
         1
  0.00000e+00  0.00000e+00 -4.85146e-01
         2
  0.00000e+00  0.00000e+00  3.99375e-01
         3
  0.00000e+00  0.00000e+00  4.99759e-01
         4
  0.00000e+00  0.00000e+00  4.48186e-01
         5
  0.00000e+00  0.00000e+00  8.48862e-02
         6
  0.00000e+00  0.00000e+00 -1.22961e-02
         7
  0.00000e+00  0.00000e+00 -2.34704e-01
         8
  0.00000e+00  0.00000e+00 -2.31724e-01
         9
  0.00000e+00  0.00000e+00 -1.47203e-01
        10
  0.00000e+00  0.00000e+00 -1.17234e-01
        11
  0.00000e+00  0.00000e+00  3.39892e-02
        12
  0.00000e+00  0.00000e+00  4.23759e-02
    -1
    -1
    55                                                                          
Mode 10                                                                         
EMA                                                                             
Acceleration shapes (Uz only)                                                   
LoadCase 1                                                                      
                                                                                
         1         2         2        12         2         3
         2         4         1        10
  4.41201e+01  0.00000e+00  0.00000e+00  0.00000e+00
         1
  0.00000e+00  0.00000e+00  7.13502e-01
         2
  0.00000e+00  0.00000e+00  7.89298e-02
         3
  0.00000e+00  0.00000e+00 -2.59111e-01
         4
  0.00000e+00  0.00000e+00 -1.02832e-01
         5
  0.00000e+00  0.00000e+00 -2.41916e-01
         6
  0.00000e+00  0.00000e+00  2.99656e-01
         7
  0.00000e+00  0.00000e+00 -1.83429e-01
         8
  0.00000e+00  0.00000e+00  4.01288e-01
         9
  0.00000e+00  0.00000e+00 -5.29971e-02
        10
  0.00000e+00  0.00000e+00  2.45853e-01
        11
  0.00000e+00  0.00000e+00  1.14375e-02
        12
  0.00000e+00  0.00000e+00  2.43676e-02
    -1
    -1
    55                                                                          
Mode 11                                                                         
EMA                                                                             
Acceleration shapes (Uz only)                                                   
LoadCase 1                                                                      
                                                                                
         1         2         2        12         2         3
         2         4         1        11
  5.88285e+01  0.00000e+00  0.00000e+00  0.00000e+00
         1
  0.00000e+00  0.00000e+00  2.04874e-01
         2
  0.00000e+00  0.00000e+00  8.47093e-01
         3
  0.00000e+00  0.00000e+00 -2.55624e-02
         4
  0.00000e+00  0.00000e+00  2.31638e-01
         5
  0.00000e+00  0.00000e+00 -3.07450e-01
         6
  0.00000e+00  0.00000e+00 -1.39138e-01
         7
  0.00000e+00  0.00000e+00  3.51045e-02
         8
  0.00000e+00  0.00000e+00 -5.44089e-02
         9
  0.00000e+00  0.00000e+00  2.55255e-01
        10
  0.00000e+00  0.00000e+00  5.28456e-02
        11
  0.00000e+00  0.00000e+00  7.67394e-03
        12
  0.00000e+00  0.00000e+00 -8.13514e-03
    -1
