    -1
    15
         1         0         0         0      7.81760     -4.63530      0.63576
         2         0         0         0      9.70720     -4.63530      0.73676
         3         0         0         0      9.02168     -4.53370      0.69505
         4         0         0         0      9.37747     -4.53370      0.69810
         5         0         0         0      8.56214     -3.82250      0.69839
         6         0         0         0      9.24877     -3.82250      0.69834
         7         0         0         0      8.12068     -3.06050      0.70675
         8         0         0         0      9.10008     -3.06050      0.70036
         9         0         0         0      7.43669     -2.01910      0.71479
        10         0         0         0      8.88655     -1.99370      0.70320
        11         0         0         0      7.48304     -1.08778      0.75700
        12         0         0         0      8.36919     -1.08570      0.73723
        13         0         0         0      7.81760      4.63530      0.63576
        14         0         0         0      9.70720      4.63530      0.73676
        15         0         0         0      9.02168      4.53370      0.69505
        16         0         0         0      9.37747      4.53370      0.69810
        17         0         0         0      8.56214      3.82250      0.69839
        18         0         0         0      9.24877      3.82250      0.69834
        19         0         0         0      8.12068      3.06050      0.70675
        20         0         0         0      9.10008      3.06050      0.70036
        21         0         0         0      7.43669      2.01910      0.71479
        22         0         0         0      8.88655      1.99370      0.70320
        23         0         0         0      7.48304      1.08778      0.75700
        24         0         0         0      8.36919      1.08570      0.73723
    -1
    -1
    55                                                                          
Mode 1                                                                          
EMA                                                                             
Acceleration shapes (Uz only)                                                   
LoadCase 1                                                                      
                                                                                
         1         2         2        12         2         3
         2         4         1         1
  4.59663e+00  0.00000e+00  0.00000e+00  0.00000e+00
         1
  0.00000e+00  0.00000e+00  2.93291e-01
         2
  0.00000e+00  0.00000e+00  4.90790e-01
         3
  0.00000e+00  0.00000e+00  1.54394e-01
         4
  0.00000e+00  0.00000e+00  2.39105e-01
         5
  0.00000e+00  0.00000e+00 -1.17821e-01
         6
  0.00000e+00  0.00000e+00 -2.39735e-04
         7
  0.00000e+00  0.00000e+00  5.26483e-02
         8
  0.00000e+00  0.00000e+00  4.74630e-02
         9
  0.00000e+00  0.00000e+00  9.90590e-02
        10
  0.00000e+00  0.00000e+00  8.99382e-02
        11
  0.00000e+00  0.00000e+00 -1.28052e-02
        12
  0.00000e+00  0.00000e+00  1.00068e-03
        13
  0.00000e+00  0.00000e+00  3.72566e-01
        14
  0.00000e+00  0.00000e+00  5.33843e-01
        15
  0.00000e+00  0.00000e+00  8.64226e-02
        16
  0.00000e+00  0.00000e+00  2.30768e-01
        17
  0.00000e+00  0.00000e+00 -1.76792e-01
        18
  0.00000e+00  0.00000e+00  6.75354e-02
        19
  0.00000e+00  0.00000e+00  4.48795e-02
        20
  0.00000e+00  0.00000e+00  9.00095e-02
        21
  0.00000e+00  0.00000e+00  1.28741e-01
        22
  0.00000e+00  0.00000e+00  8.97949e-02
        23
  0.00000e+00  0.00000e+00 -1.68022e-03
        24
  0.00000e+00  0.00000e+00 -5.89217e-03
    -1
    -1
    55                                                                          
Mode 2                                                                          
EMA                                                                             
Acceleration shapes (Uz only)                                                   
LoadCase 1                                                                      
                                                                                
         1         2         2        12         2         3
         2         4         1         2
  8.29898e+00  0.00000e+00  0.00000e+00  0.00000e+00
         1
  0.00000e+00  0.00000e+00  4.82900e-01
         2
  0.00000e+00  0.00000e+00  2.51376e-01
         3
  0.00000e+00  0.00000e+00  2.96128e-01
         4
  0.00000e+00  0.00000e+00  2.72739e-01
         5
  0.00000e+00  0.00000e+00  1.83807e-01
         6
  0.00000e+00  0.00000e+00  1.80523e-01
         7
  0.00000e+00  0.00000e+00  7.82113e-02
         8
  0.00000e+00  0.00000e+00  8.86053e-02
         9
  0.00000e+00  0.00000e+00  4.80604e-03
        10
  0.00000e+00  0.00000e+00  1.12517e-02
        11
  0.00000e+00  0.00000e+00 -1.25484e-02
        12
  0.00000e+00  0.00000e+00 -1.23440e-02
        13
  0.00000e+00  0.00000e+00  4.36431e-01
        14
  0.00000e+00  0.00000e+00  2.37586e-01
        15
  0.00000e+00  0.00000e+00  2.77222e-01
        16
  0.00000e+00  0.00000e+00  2.51840e-01
        17
  0.00000e+00  0.00000e+00  1.79506e-01
        18
  0.00000e+00  0.00000e+00  1.61922e-01
        19
  0.00000e+00  0.00000e+00  8.18678e-02
        20
  0.00000e+00  0.00000e+00  8.74778e-02
        21
  0.00000e+00  0.00000e+00  1.07601e-02
        22
  0.00000e+00  0.00000e+00  2.30602e-02
        23
  0.00000e+00  0.00000e+00 -7.09529e-03
        24
  0.00000e+00  0.00000e+00 -7.06530e-03
    -1
    -1
    55                                                                          
Mode 3                                                                          
EMA                                                                             
Acceleration shapes (Uz only)                                                   
LoadCase 1                                                                      
                                                                                
         1         2         2        12         2         3
         2         4         1         3
  1.11400e+01  0.00000e+00  0.00000e+00  0.00000e+00
         1
  0.00000e+00  0.00000e+00 -8.11244e-01
         2
  0.00000e+00  0.00000e+00 -2.43153e-01
         3
  0.00000e+00  0.00000e+00 -1.75491e-01
         4
  0.00000e+00  0.00000e+00 -1.61120e-01
         5
  0.00000e+00  0.00000e+00 -1.25065e-02
         6
  0.00000e+00  0.00000e+00  1.32948e-02
         7
  0.00000e+00  0.00000e+00  4.12680e-03
         8
  0.00000e+00  0.00000e+00  1.45170e-02
         9
  0.00000e+00  0.00000e+00 -5.05973e-03
        10
  0.00000e+00  0.00000e+00  4.88570e-03
        11
  0.00000e+00  0.00000e+00  2.82449e-02
        12
  0.00000e+00  0.00000e+00  2.45098e-02
        13
  0.00000e+00  0.00000e+00  2.78508e-01
        14
  0.00000e+00  0.00000e+00 -3.27317e-01
        15
  0.00000e+00  0.00000e+00  4.93471e-03
        16
  0.00000e+00  0.00000e+00 -1.23704e-01
        17
  0.00000e+00  0.00000e+00  4.43231e-02
        18
  0.00000e+00  0.00000e+00 -5.10634e-02
        19
  0.00000e+00  0.00000e+00 -3.08411e-02
        20
  0.00000e+00  0.00000e+00 -7.30205e-02
        21
  0.00000e+00  0.00000e+00 -8.72708e-02
        22
  0.00000e+00  0.00000e+00 -6.78722e-02
        23
  0.00000e+00  0.00000e+00 -2.36341e-02
        24
  0.00000e+00  0.00000e+00 -1.81164e-02
    -1
    -1
    55                                                                          
Mode 4                                                                          
EMA                                                                             
Acceleration shapes (Uz only)                                                   
LoadCase 1                                                                      
                                                                                
         1         2         2        12         2         3
         2         4         1         4
  1.25788e+01  0.00000e+00  0.00000e+00  0.00000e+00
         1
  0.00000e+00  0.00000e+00 -4.31922e-01
         2
  0.00000e+00  0.00000e+00  4.14997e-01
         3
  0.00000e+00  0.00000e+00  1.99546e-01
         4
  0.00000e+00  0.00000e+00  2.98305e-01
         5
  0.00000e+00  0.00000e+00  9.58722e-02
         6
  0.00000e+00  0.00000e+00  1.80881e-01
         7
  0.00000e+00  0.00000e+00  4.53991e-02
         8
  0.00000e+00  0.00000e+00  9.41989e-02
         9
  0.00000e+00  0.00000e+00  1.43311e-03
        10
  0.00000e+00  0.00000e+00  2.30618e-02
        11
  0.00000e+00  0.00000e+00 -6.74993e-03
        12
  0.00000e+00  0.00000e+00 -6.72886e-03
        13
  0.00000e+00  0.00000e+00 -5.59070e-01
        14
  0.00000e+00  0.00000e+00  2.77887e-01
        15
  0.00000e+00  0.00000e+00  8.31522e-02
        16
  0.00000e+00  0.00000e+00  1.77611e-01
        17
  0.00000e+00  0.00000e+00  5.50848e-02
        18
  0.00000e+00  0.00000e+00  1.23453e-01
        19
  0.00000e+00  0.00000e+00  4.79191e-02
        20
  0.00000e+00  0.00000e+00  8.58200e-02
        21
  0.00000e+00  0.00000e+00  2.71367e-02
        22
  0.00000e+00  0.00000e+00  4.21280e-02
        23
  0.00000e+00  0.00000e+00  1.14274e-02
        24
  0.00000e+00  0.00000e+00  1.13662e-02
    -1
    -1
    55                                                                          
Mode 5                                                                          
EMA                                                                             
Acceleration shapes (Uz only)                                                   
LoadCase 1                                                                      
                                                                                
         1         2         2        12         2         3
         2         4         1         5
  1.43250e+01  0.00000e+00  0.00000e+00  0.00000e+00
         1
  0.00000e+00  0.00000e+00 -1.71284e-01
         2
  0.00000e+00  0.00000e+00 -6.01657e-02
         3
  0.00000e+00  0.00000e+00  1.73578e-02
         4
  0.00000e+00  0.00000e+00  6.86125e-04
         5
  0.00000e+00  0.00000e+00  8.64450e-02
         6
  0.00000e+00  0.00000e+00  5.99463e-02
         7
  0.00000e+00  0.00000e+00  2.13670e-02
         8
  0.00000e+00  0.00000e+00  1.69450e-02
         9
  0.00000e+00  0.00000e+00 -1.54717e-02
        10
  0.00000e+00  0.00000e+00 -2.22569e-02
        11
  0.00000e+00  0.00000e+00  1.99018e-02
        12
  0.00000e+00  0.00000e+00  1.44321e-02
        13
  0.00000e+00  0.00000e+00  1.97877e-01
        14
  0.00000e+00  0.00000e+00 -7.17675e-01
        15
  0.00000e+00  0.00000e+00 -3.19666e-01
        16
  0.00000e+00  0.00000e+00 -4.76708e-01
        17
  0.00000e+00  0.00000e+00 -5.19994e-02
        18
  0.00000e+00  0.00000e+00 -2.22642e-01
        19
  0.00000e+00  0.00000e+00 -9.34655e-04
        20
  0.00000e+00  0.00000e+00 -1.05593e-01
        21
  0.00000e+00  0.00000e+00  2.62036e-02
        22
  0.00000e+00  0.00000e+00 -2.25734e-02
        23
  0.00000e+00  0.00000e+00  5.68843e-02
        24
  0.00000e+00  0.00000e+00  4.56673e-02
    -1
    -1
    55                                                                          
Mode 6                                                                          
EMA                                                                             
Acceleration shapes (Uz only)                                                   
LoadCase 1                                                                      
                                                                                
         1         2         2        12         2         3
         2         4         1         6
  2.59230e+01  0.00000e+00  0.00000e+00  0.00000e+00
         1
  0.00000e+00  0.00000e+00 -3.44326e-01
         2
  0.00000e+00  0.00000e+00 -3.62521e-01
         3
  0.00000e+00  0.00000e+00 -2.60113e-01
         4
  0.00000e+00  0.00000e+00 -2.72997e-01
         5
  0.00000e+00  0.00000e+00  4.36030e-02
         6
  0.00000e+00  0.00000e+00  5.28812e-02
         7
  0.00000e+00  0.00000e+00  1.51781e-01
         8
  0.00000e+00  0.00000e+00  1.72534e-01
         9
  0.00000e+00  0.00000e+00  5.95099e-02
        10
  0.00000e+00  0.00000e+00  1.06071e-01
        11
  0.00000e+00  0.00000e+00 -4.26985e-03
        12
  0.00000e+00  0.00000e+00  9.90005e-03
        13
  0.00000e+00  0.00000e+00 -9.78753e-02
        14
  0.00000e+00  0.00000e+00 -5.05567e-01
        15
  0.00000e+00  0.00000e+00 -2.81236e-01
        16
  0.00000e+00  0.00000e+00 -3.47789e-01
        17
  0.00000e+00  0.00000e+00  5.44219e-02
        18
  0.00000e+00  0.00000e+00  1.70489e-02
        19
  0.00000e+00  0.00000e+00  1.71484e-01
        20
  0.00000e+00  0.00000e+00  1.42594e-01
        21
  0.00000e+00  0.00000e+00  9.01506e-02
        22
  0.00000e+00  0.00000e+00  9.35620e-02
        23
  0.00000e+00  0.00000e+00  4.85141e-03
        24
  0.00000e+00  0.00000e+00  1.72016e-02
    -1
    -1
    55                                                                          
Mode 7                                                                          
EMA                                                                             
Acceleration shapes (Uz only)                                                   
LoadCase 1                                                                      
                                                                                
         1         2         2        12         2         3
         2         4         1         7
  2.89417e+01  0.00000e+00  0.00000e+00  0.00000e+00
         1
  0.00000e+00  0.00000e+00 -3.74395e-01
         2
  0.00000e+00  0.00000e+00  6.10073e-01
         3
  0.00000e+00  0.00000e+00  2.10767e-01
         4
  0.00000e+00  0.00000e+00  3.70984e-01
         5
  0.00000e+00  0.00000e+00 -6.22322e-02
         6
  0.00000e+00  0.00000e+00  8.66652e-02
         7
  0.00000e+00  0.00000e+00 -1.67547e-01
         8
  0.00000e+00  0.00000e+00 -5.19804e-02
         9
  0.00000e+00  0.00000e+00 -7.94966e-02
        10
  0.00000e+00  0.00000e+00 -2.83595e-02
        11
  0.00000e+00  0.00000e+00  1.36574e-02
        12
  0.00000e+00  0.00000e+00  3.04399e-02
        13
  0.00000e+00  0.00000e+00  4.52019e-02
        14
  0.00000e+00  0.00000e+00  3.48852e-01
        15
  0.00000e+00  0.00000e+00  1.79486e-01
        16
  0.00000e+00  0.00000e+00  2.34548e-01
        17
  0.00000e+00  0.00000e+00 -5.53304e-02
        18
  0.00000e+00  0.00000e+00 -2.13370e-02
        19
  0.00000e+00  0.00000e+00 -1.50588e-01
        20
  0.00000e+00  0.00000e+00 -1.00265e-01
        21
  0.00000e+00  0.00000e+00 -7.38291e-02
        22
  0.00000e+00  0.00000e+00 -3.69382e-02
        23
  0.00000e+00  0.00000e+00  1.74662e-02
        24
  0.00000e+00  0.00000e+00  2.92702e-02
    -1
    -1
    55                                                                          
Mode 8                                                                          
EMA                                                                             
Acceleration shapes (Uz only)                                                   
LoadCase 1                                                                      
                                                                                
         1         2         2        12         2         3
         2         4         1         8
  4.27128e+01  0.00000e+00  0.00000e+00  0.00000e+00
         1
  0.00000e+00  0.00000e+00 -2.54820e-01
         2
  0.00000e+00  0.00000e+00  4.50975e-01
         3
  0.00000e+00  0.00000e+00  1.23248e-01
         4
  0.00000e+00  0.00000e+00  1.99379e-01
         5
  0.00000e+00  0.00000e+00 -9.32790e-02
         6
  0.00000e+00  0.00000e+00 -2.01165e-01
         7
  0.00000e+00  0.00000e+00  1.35879e-01
         8
  0.00000e+00  0.00000e+00 -1.96808e-01
         9
  0.00000e+00  0.00000e+00  1.74695e-01
        10
  0.00000e+00  0.00000e+00 -5.18034e-02
        11
  0.00000e+00  0.00000e+00 -1.27449e-03
        12
  0.00000e+00  0.00000e+00 -7.92472e-03
        13
  0.00000e+00  0.00000e+00 -4.78389e-02
        14
  0.00000e+00  0.00000e+00  5.79253e-01
        15
  0.00000e+00  0.00000e+00  1.33365e-01
        16
  0.00000e+00  0.00000e+00  2.52494e-01
        17
  0.00000e+00  0.00000e+00 -1.86977e-01
        18
  0.00000e+00  0.00000e+00 -1.33259e-01
        19
  0.00000e+00  0.00000e+00  7.09719e-02
        20
  0.00000e+00  0.00000e+00 -1.43821e-01
        21
  0.00000e+00  0.00000e+00  1.96356e-01
        22
  0.00000e+00  0.00000e+00 -1.63926e-02
        23
  0.00000e+00  0.00000e+00  2.19413e-02
        24
  0.00000e+00  0.00000e+00  2.70619e-03
    -1
    -1
    55                                                                          
Mode 9                                                                          
EMA                                                                             
Acceleration shapes (Uz only)                                                   
LoadCase 1                                                                      
                                                                                
         1         2         2        12         2         3
         2         4         1         9
  6.00896e+01  0.00000e+00  0.00000e+00  0.00000e+00
         1
  0.00000e+00  0.00000e+00  3.02087e-01
         2
  0.00000e+00  0.00000e+00  5.94171e-01
         3
  0.00000e+00  0.00000e+00 -1.47789e-02
         4
  0.00000e+00  0.00000e+00  2.17768e-01
         5
  0.00000e+00  0.00000e+00 -2.97258e-01
         6
  0.00000e+00  0.00000e+00  1.53954e-01
         7
  0.00000e+00  0.00000e+00 -5.69235e-02
         8
  0.00000e+00  0.00000e+00  1.65563e-01
         9
  0.00000e+00  0.00000e+00  1.38617e-01
        10
  0.00000e+00  0.00000e+00  1.14633e-01
        11
  0.00000e+00  0.00000e+00  9.90146e-03
        12
  0.00000e+00  0.00000e+00 -9.17732e-04
        13
  0.00000e+00  0.00000e+00  7.99249e-02
        14
  0.00000e+00  0.00000e+00  4.79046e-01
        15
  0.00000e+00  0.00000e+00  5.12956e-02
        16
  0.00000e+00  0.00000e+00  1.72232e-01
        17
  0.00000e+00  0.00000e+00 -1.78389e-01
        18
  0.00000e+00  0.00000e+00 -9.08071e-02
        19
  0.00000e+00  0.00000e+00  7.99418e-03
        20
  0.00000e+00  0.00000e+00 -4.65694e-02
        21
  0.00000e+00  0.00000e+00  1.46056e-01
        22
  0.00000e+00  0.00000e+00  2.82068e-02
        23
  0.00000e+00  0.00000e+00  2.27674e-03
        24
  0.00000e+00  0.00000e+00 -1.70332e-02
    -1
