    -1
    15
         1         0         0         0      7.81760     -4.63530      0.63576
         2         0         0         0      9.70720     -4.63530      0.73676
         3         0         0         0      9.02168     -4.53370      0.69505
         4         0         0         0      9.37747     -4.53370      0.69810
         5         0         0         0      8.56214     -3.82250      0.69839
         6         0         0         0      9.24877     -3.82250      0.69834
         7         0         0         0      8.12068     -3.06050      0.70675
         8         0         0         0      9.10008     -3.06050      0.70036
         9         0         0         0      7.43669     -2.01910      0.71479
        10         0         0         0      8.88655     -1.99370      0.70320
        11         0         0         0      7.48304     -1.08778      0.75700
        12         0         0         0      8.36919     -1.08570      0.73723
        13         0         0         0      7.81760      4.63530      0.63576
        14         0         0         0      9.70720      4.63530      0.73676
        15         0         0         0      9.02168      4.53370      0.69505
        16         0         0         0      9.37747      4.53370      0.69810
        17         0         0         0      8.56214      3.82250      0.69839
        18         0         0         0      9.24877      3.82250      0.69834
        19         0         0         0      8.12068      3.06050      0.70675
        20         0         0         0      9.10008      3.06050      0.70036
        21         0         0         0      7.43669      2.01910      0.71479
        22         0         0         0      8.88655      1.99370      0.70320
        23         0         0         0      7.48304      1.08778      0.75700
        24         0         0         0      8.36919      1.08570      0.73723
    -1
    -1
    55                                                                          
Mode 1                                                                          
EMA                                                                             
Acceleration shapes (Uz only)                                                   
LoadCase 1                                                                      
                                                                                
         1         2         2        12         2         3
         2         4         1         1
  8.41620e+00  0.00000e+00  0.00000e+00  0.00000e+00
         1
  0.00000e+00  0.00000e+00 -1.63183e-01
         2
  0.00000e+00  0.00000e+00 -5.88485e-01
         3
  0.00000e+00  0.00000e+00 -2.42557e-02
         4
  0.00000e+00  0.00000e+00 -1.95952e-01
         5
  0.00000e+00  0.00000e+00  1.97610e-01
         6
  0.00000e+00  0.00000e+00  1.84218e-02
         7
  0.00000e+00  0.00000e+00 -4.44895e-02
         8
  0.00000e+00  0.00000e+00 -4.30262e-02
         9
  0.00000e+00  0.00000e+00 -7.55453e-02
        10
  0.00000e+00  0.00000e+00 -6.02726e-02
        11
  0.00000e+00  0.00000e+00  2.13082e-02
        12
  0.00000e+00  0.00000e+00  6.02805e-03
        13
  0.00000e+00  0.00000e+00  2.88000e-01
        14
  0.00000e+00  0.00000e+00  5.61085e-01
        15
  0.00000e+00  0.00000e+00  4.52140e-02
        16
  0.00000e+00  0.00000e+00  2.25048e-01
        17
  0.00000e+00  0.00000e+00 -1.65412e-01
        18
  0.00000e+00  0.00000e+00  1.42435e-01
        19
  0.00000e+00  0.00000e+00  6.08206e-02
        20
  0.00000e+00  0.00000e+00  1.38685e-01
        21
  0.00000e+00  0.00000e+00  9.05449e-02
        22
  0.00000e+00  0.00000e+00  6.05824e-02
        23
  0.00000e+00  0.00000e+00 -4.35977e-02
        24
  0.00000e+00  0.00000e+00 -1.47845e-02
    -1
    -1
    55                                                                          
Mode 2                                                                          
EMA                                                                             
Acceleration shapes (Uz only)                                                   
LoadCase 1                                                                      
                                                                                
         1         2         2        12         2         3
         2         4         1         2
  1.12061e+01  0.00000e+00  0.00000e+00  0.00000e+00
         1
  0.00000e+00  0.00000e+00  2.47916e-01
         2
  0.00000e+00  0.00000e+00  6.20061e-01
         3
  0.00000e+00  0.00000e+00  4.97266e-02
         4
  0.00000e+00  0.00000e+00  2.19802e-01
         5
  0.00000e+00  0.00000e+00 -1.94539e-01
         6
  0.00000e+00  0.00000e+00 -1.80517e-02
         7
  0.00000e+00  0.00000e+00  3.20125e-02
         8
  0.00000e+00  0.00000e+00  4.09056e-02
         9
  0.00000e+00  0.00000e+00  7.36985e-02
        10
  0.00000e+00  0.00000e+00  6.18934e-02
        11
  0.00000e+00  0.00000e+00 -2.41159e-02
        12
  0.00000e+00  0.00000e+00 -6.30007e-03
        13
  0.00000e+00  0.00000e+00 -2.84961e-01
        14
  0.00000e+00  0.00000e+00 -5.15883e-01
        15
  0.00000e+00  0.00000e+00 -1.43016e-03
        16
  0.00000e+00  0.00000e+00 -1.78758e-01
        17
  0.00000e+00  0.00000e+00  1.96428e-01
        18
  0.00000e+00  0.00000e+00 -9.15876e-02
        19
  0.00000e+00  0.00000e+00 -3.73114e-02
        20
  0.00000e+00  0.00000e+00 -1.07895e-01
        21
  0.00000e+00  0.00000e+00 -9.32819e-02
        22
  0.00000e+00  0.00000e+00 -5.56129e-02
        23
  0.00000e+00  0.00000e+00  3.62110e-02
        24
  0.00000e+00  0.00000e+00  1.08612e-02
    -1
    -1
    55                                                                          
Mode 3                                                                          
EMA                                                                             
Acceleration shapes (Uz only)                                                   
LoadCase 1                                                                      
                                                                                
         1         2         2        12         2         3
         2         4         1         3
  1.26327e+01  0.00000e+00  0.00000e+00  0.00000e+00
         1
  0.00000e+00  0.00000e+00 -4.59431e-01
         2
  0.00000e+00  0.00000e+00  4.65567e-01
         3
  0.00000e+00  0.00000e+00  1.93104e-01
         4
  0.00000e+00  0.00000e+00  3.12790e-01
         5
  0.00000e+00  0.00000e+00  3.01426e-02
         6
  0.00000e+00  0.00000e+00  1.80774e-01
         7
  0.00000e+00  0.00000e+00  5.65385e-02
         8
  0.00000e+00  0.00000e+00  8.05523e-02
         9
  0.00000e+00  0.00000e+00  4.81094e-03
        10
  0.00000e+00  0.00000e+00  1.54226e-02
        11
  0.00000e+00  0.00000e+00 -1.70955e-02
        12
  0.00000e+00  0.00000e+00 -9.89806e-03
        13
  0.00000e+00  0.00000e+00 -5.21259e-01
        14
  0.00000e+00  0.00000e+00  2.22559e-01
        15
  0.00000e+00  0.00000e+00  9.05799e-02
        16
  0.00000e+00  0.00000e+00  1.52930e-01
        17
  0.00000e+00  0.00000e+00  1.31754e-01
        18
  0.00000e+00  0.00000e+00  9.39011e-02
        19
  0.00000e+00  0.00000e+00  4.86182e-02
        20
  0.00000e+00  0.00000e+00  7.39617e-02
        21
  0.00000e+00  0.00000e+00  3.87099e-02
        22
  0.00000e+00  0.00000e+00  4.82459e-02
        23
  0.00000e+00  0.00000e+00  3.76594e-02
        24
  0.00000e+00  0.00000e+00  3.20781e-02
    -1
    -1
    55                                                                          
Mode 4                                                                          
EMA                                                                             
Acceleration shapes (Uz only)                                                   
LoadCase 1                                                                      
                                                                                
         1         2         2        12         2         3
         2         4         1         4
  1.40083e+01  0.00000e+00  0.00000e+00  0.00000e+00
         1
  0.00000e+00  0.00000e+00  1.58945e-01
         2
  0.00000e+00  0.00000e+00 -4.22502e-01
         3
  0.00000e+00  0.00000e+00 -2.45409e-01
         4
  0.00000e+00  0.00000e+00 -3.22324e-01
         5
  0.00000e+00  0.00000e+00 -7.91868e-02
         6
  0.00000e+00  0.00000e+00 -1.64443e-01
         7
  0.00000e+00  0.00000e+00 -2.98301e-03
         8
  0.00000e+00  0.00000e+00 -5.01982e-02
         9
  0.00000e+00  0.00000e+00  4.97459e-02
        10
  0.00000e+00  0.00000e+00  2.13756e-02
        11
  0.00000e+00  0.00000e+00  4.19246e-02
        12
  0.00000e+00  0.00000e+00  3.53172e-02
        13
  0.00000e+00  0.00000e+00 -3.32362e-01
        14
  0.00000e+00  0.00000e+00  4.83659e-01
        15
  0.00000e+00  0.00000e+00  2.51902e-01
        16
  0.00000e+00  0.00000e+00  3.55552e-01
        17
  0.00000e+00  0.00000e+00  9.89756e-02
        18
  0.00000e+00  0.00000e+00  1.91112e-01
        19
  0.00000e+00  0.00000e+00  2.66863e-02
        20
  0.00000e+00  0.00000e+00  8.50982e-02
        21
  0.00000e+00  0.00000e+00 -2.62255e-02
        22
  0.00000e+00  0.00000e+00  8.22579e-03
        23
  0.00000e+00  0.00000e+00 -2.33625e-02
        24
  0.00000e+00  0.00000e+00 -2.22696e-02
    -1
    -1
    55                                                                          
Mode 5                                                                          
EMA                                                                             
Acceleration shapes (Uz only)                                                   
LoadCase 1                                                                      
                                                                                
         1         2         2        12         2         3
         2         4         1         5
  1.59223e+01  0.00000e+00  0.00000e+00  0.00000e+00
         1
  0.00000e+00  0.00000e+00  2.01160e-01
         2
  0.00000e+00  0.00000e+00  5.69366e-01
         3
  0.00000e+00  0.00000e+00  4.62523e-02
         4
  0.00000e+00  0.00000e+00  2.07819e-01
         5
  0.00000e+00  0.00000e+00 -2.07868e-01
         6
  0.00000e+00  0.00000e+00 -2.18469e-02
         7
  0.00000e+00  0.00000e+00  9.86508e-03
         8
  0.00000e+00  0.00000e+00  2.30573e-02
         9
  0.00000e+00  0.00000e+00  7.07836e-02
        10
  0.00000e+00  0.00000e+00  5.71573e-02
        11
  0.00000e+00  0.00000e+00 -1.16445e-02
        12
  0.00000e+00  0.00000e+00  4.18240e-03
        13
  0.00000e+00  0.00000e+00 -1.42580e-01
        14
  0.00000e+00  0.00000e+00 -6.13902e-01
        15
  0.00000e+00  0.00000e+00 -7.46202e-02
        16
  0.00000e+00  0.00000e+00 -2.69188e-01
        17
  0.00000e+00  0.00000e+00  1.80510e-01
        18
  0.00000e+00  0.00000e+00 -1.10220e-01
        19
  0.00000e+00  0.00000e+00 -9.70572e-03
        20
  0.00000e+00  0.00000e+00 -9.29649e-02
        21
  0.00000e+00  0.00000e+00 -5.91011e-02
        22
  0.00000e+00  0.00000e+00 -4.14080e-02
        23
  0.00000e+00  0.00000e+00  5.11097e-02
        24
  0.00000e+00  0.00000e+00  2.75481e-02
    -1
    -1
    55                                                                          
Mode 6                                                                          
EMA                                                                             
Acceleration shapes (Uz only)                                                   
LoadCase 1                                                                      
                                                                                
         1         2         2        12         2         3
         2         4         1         6
  1.81229e+01  0.00000e+00  0.00000e+00  0.00000e+00
         1
  0.00000e+00  0.00000e+00  2.18585e-01
         2
  0.00000e+00  0.00000e+00  5.92949e-01
         3
  0.00000e+00  0.00000e+00  6.80249e-02
         4
  0.00000e+00  0.00000e+00  2.26088e-01
         5
  0.00000e+00  0.00000e+00 -2.14873e-01
         6
  0.00000e+00  0.00000e+00 -2.29305e-02
         7
  0.00000e+00  0.00000e+00 -7.05113e-03
         8
  0.00000e+00  0.00000e+00  1.06105e-02
         9
  0.00000e+00  0.00000e+00  6.08672e-02
        10
  0.00000e+00  0.00000e+00  4.98078e-02
        11
  0.00000e+00  0.00000e+00 -1.73614e-02
        12
  0.00000e+00  0.00000e+00  4.49368e-04
        13
  0.00000e+00  0.00000e+00 -1.67181e-01
        14
  0.00000e+00  0.00000e+00 -5.84865e-01
        15
  0.00000e+00  0.00000e+00 -6.43303e-02
        16
  0.00000e+00  0.00000e+00 -2.45047e-01
        17
  0.00000e+00  0.00000e+00  1.94878e-01
        18
  0.00000e+00  0.00000e+00 -8.20155e-02
        19
  0.00000e+00  0.00000e+00  5.28392e-04
        20
  0.00000e+00  0.00000e+00 -7.08714e-02
        21
  0.00000e+00  0.00000e+00 -6.08242e-02
        22
  0.00000e+00  0.00000e+00 -3.73326e-02
        23
  0.00000e+00  0.00000e+00  4.39104e-02
        24
  0.00000e+00  0.00000e+00  2.43220e-02
    -1
    -1
    55                                                                          
Mode 7                                                                          
EMA                                                                             
Acceleration shapes (Uz only)                                                   
LoadCase 1                                                                      
                                                                                
         1         2         2        12         2         3
         2         4         1         7
  2.32211e+01  0.00000e+00  0.00000e+00  0.00000e+00
         1
  0.00000e+00  0.00000e+00 -2.36963e-01
         2
  0.00000e+00  0.00000e+00 -5.48639e-01
         3
  0.00000e+00  0.00000e+00 -1.74662e-01
         4
  0.00000e+00  0.00000e+00 -2.98257e-01
         5
  0.00000e+00  0.00000e+00  1.18530e-01
         6
  0.00000e+00  0.00000e+00  8.53871e-03
         7
  0.00000e+00  0.00000e+00  1.16731e-01
         8
  0.00000e+00  0.00000e+00  4.20074e-02
         9
  0.00000e+00  0.00000e+00  9.19579e-03
        10
  0.00000e+00  0.00000e+00 -6.66066e-04
        11
  0.00000e+00  0.00000e+00  2.50384e-03
        12
  0.00000e+00  0.00000e+00 -7.66939e-04
        13
  0.00000e+00  0.00000e+00  1.26255e-01
        14
  0.00000e+00  0.00000e+00  5.74448e-01
        15
  0.00000e+00  0.00000e+00  1.71776e-01
        16
  0.00000e+00  0.00000e+00  3.11070e-01
        17
  0.00000e+00  0.00000e+00 -1.04284e-01
        18
  0.00000e+00  0.00000e+00  1.55461e-02
        19
  0.00000e+00  0.00000e+00 -9.63289e-02
        20
  0.00000e+00  0.00000e+00 -2.88027e-02
        21
  0.00000e+00  0.00000e+00 -1.36363e-03
        22
  0.00000e+00  0.00000e+00 -4.70149e-03
        23
  0.00000e+00  0.00000e+00 -1.44836e-02
        24
  0.00000e+00  0.00000e+00 -1.06389e-02
    -1
    -1
    55                                                                          
Mode 8                                                                          
EMA                                                                             
Acceleration shapes (Uz only)                                                   
LoadCase 1                                                                      
                                                                                
         1         2         2        12         2         3
         2         4         1         8
  2.61235e+01  0.00000e+00  0.00000e+00  0.00000e+00
         1
  0.00000e+00  0.00000e+00  2.14743e-01
         2
  0.00000e+00  0.00000e+00  4.23937e-01
         3
  0.00000e+00  0.00000e+00  9.72283e-02
         4
  0.00000e+00  0.00000e+00  1.66731e-01
         5
  0.00000e+00  0.00000e+00 -9.83374e-02
         6
  0.00000e+00  0.00000e+00 -4.71160e-02
         7
  0.00000e+00  0.00000e+00 -6.13667e-02
         8
  0.00000e+00  0.00000e+00 -1.45129e-02
         9
  0.00000e+00  0.00000e+00  3.72281e-02
        10
  0.00000e+00  0.00000e+00  4.96204e-02
        11
  0.00000e+00  0.00000e+00  1.04581e-02
        12
  0.00000e+00  0.00000e+00  2.73730e-02
        13
  0.00000e+00  0.00000e+00 -1.82313e-01
        14
  0.00000e+00  0.00000e+00 -6.78211e-01
        15
  0.00000e+00  0.00000e+00 -2.40982e-01
        16
  0.00000e+00  0.00000e+00 -3.50658e-01
        17
  0.00000e+00  0.00000e+00  1.23316e-01
        18
  0.00000e+00  0.00000e+00  3.93954e-02
        19
  0.00000e+00  0.00000e+00  1.27262e-01
        20
  0.00000e+00  0.00000e+00  9.25946e-02
        21
  0.00000e+00  0.00000e+00 -3.15693e-03
        22
  0.00000e+00  0.00000e+00  2.33281e-02
        23
  0.00000e+00  0.00000e+00  3.13134e-03
        24
  0.00000e+00  0.00000e+00 -1.74759e-03
    -1
    -1
    55                                                                          
Mode 9                                                                          
EMA                                                                             
Acceleration shapes (Uz only)                                                   
LoadCase 1                                                                      
                                                                                
         1         2         2        12         2         3
         2         4         1         9
  2.98024e+01  0.00000e+00  0.00000e+00  0.00000e+00
         1
  0.00000e+00  0.00000e+00 -4.04348e-01
         2
  0.00000e+00  0.00000e+00  6.53910e-01
         3
  0.00000e+00  0.00000e+00  8.70120e-02
         4
  0.00000e+00  0.00000e+00  3.04435e-01
         5
  0.00000e+00  0.00000e+00 -1.56038e-01
         6
  0.00000e+00  0.00000e+00  8.41746e-02
         7
  0.00000e+00  0.00000e+00 -7.61308e-02
         8
  0.00000e+00  0.00000e+00  4.26206e-02
         9
  0.00000e+00  0.00000e+00  1.52671e-02
        10
  0.00000e+00  0.00000e+00  4.77370e-02
        11
  0.00000e+00  0.00000e+00  2.59444e-03
        12
  0.00000e+00  0.00000e+00  1.09033e-02
        13
  0.00000e+00  0.00000e+00 -1.24023e-01
        14
  0.00000e+00  0.00000e+00 -4.13928e-01
        15
  0.00000e+00  0.00000e+00 -8.57204e-02
        16
  0.00000e+00  0.00000e+00 -1.95660e-01
        17
  0.00000e+00  0.00000e+00  1.60733e-01
        18
  0.00000e+00  0.00000e+00  1.51767e-02
        19
  0.00000e+00  0.00000e+00  7.79552e-02
        20
  0.00000e+00  0.00000e+00  2.98017e-02
        21
  0.00000e+00  0.00000e+00 -2.65769e-02
        22
  0.00000e+00  0.00000e+00 -2.06634e-02
        23
  0.00000e+00  0.00000e+00 -8.77451e-03
        24
  0.00000e+00  0.00000e+00 -1.94953e-02
    -1
    -1
    55                                                                          
Mode 10                                                                         
EMA                                                                             
Acceleration shapes (Uz only)                                                   
LoadCase 1                                                                      
                                                                                
         1         2         2        12         2         3
         2         4         1        10
  3.31456e+01  0.00000e+00  0.00000e+00  0.00000e+00
         1
  0.00000e+00  0.00000e+00  1.19136e-02
         2
  0.00000e+00  0.00000e+00  4.78205e-01
         3
  0.00000e+00  0.00000e+00  2.34031e-01
         4
  0.00000e+00  0.00000e+00  3.14260e-01
         5
  0.00000e+00  0.00000e+00 -3.74838e-02
         6
  0.00000e+00  0.00000e+00 -6.09958e-02
         7
  0.00000e+00  0.00000e+00 -2.30171e-01
         8
  0.00000e+00  0.00000e+00 -1.34485e-01
         9
  0.00000e+00  0.00000e+00 -2.42184e-03
        10
  0.00000e+00  0.00000e+00 -4.64965e-03
        11
  0.00000e+00  0.00000e+00  8.92991e-02
        12
  0.00000e+00  0.00000e+00  7.24294e-02
        13
  0.00000e+00  0.00000e+00 -4.70660e-02
        14
  0.00000e+00  0.00000e+00 -4.87864e-01
        15
  0.00000e+00  0.00000e+00 -2.65614e-01
        16
  0.00000e+00  0.00000e+00 -3.05353e-01
        17
  0.00000e+00  0.00000e+00  2.61803e-02
        18
  0.00000e+00  0.00000e+00  1.60390e-01
        19
  0.00000e+00  0.00000e+00  2.00551e-01
        20
  0.00000e+00  0.00000e+00  2.05668e-01
        21
  0.00000e+00  0.00000e+00 -3.46854e-03
        22
  0.00000e+00  0.00000e+00  2.00073e-02
        23
  0.00000e+00  0.00000e+00 -9.25588e-02
        24
  0.00000e+00  0.00000e+00 -7.92578e-02
    -1
    -1
    55                                                                          
Mode 11                                                                         
EMA                                                                             
Acceleration shapes (Uz only)                                                   
LoadCase 1                                                                      
                                                                                
         1         2         2        12         2         3
         2         4         1        11
  3.42882e+01  0.00000e+00  0.00000e+00  0.00000e+00
         1
  0.00000e+00  0.00000e+00  1.94409e-02
         2
  0.00000e+00  0.00000e+00  2.58709e-01
         3
  0.00000e+00  0.00000e+00  2.88375e-01
         4
  0.00000e+00  0.00000e+00  2.93527e-01
         5
  0.00000e+00  0.00000e+00  6.22228e-02
         6
  0.00000e+00  0.00000e+00 -3.12889e-02
         7
  0.00000e+00  0.00000e+00 -3.17730e-01
         8
  0.00000e+00  0.00000e+00 -1.50042e-01
         9
  0.00000e+00  0.00000e+00 -9.84977e-02
        10
  0.00000e+00  0.00000e+00 -1.42738e-02
        11
  0.00000e+00  0.00000e+00  9.96234e-02
        12
  0.00000e+00  0.00000e+00  9.90309e-02
        13
  0.00000e+00  0.00000e+00  2.00134e-01
        14
  0.00000e+00  0.00000e+00 -4.36507e-01
        15
  0.00000e+00  0.00000e+00 -2.96265e-01
        16
  0.00000e+00  0.00000e+00 -3.33489e-01
        17
  0.00000e+00  0.00000e+00 -5.00794e-02
        18
  0.00000e+00  0.00000e+00  1.26982e-01
        19
  0.00000e+00  0.00000e+00  2.78442e-01
        20
  0.00000e+00  0.00000e+00  2.16637e-01
        21
  0.00000e+00  0.00000e+00  7.82139e-02
        22
  0.00000e+00  0.00000e+00  2.17531e-02
        23
  0.00000e+00  0.00000e+00 -1.17740e-01
        24
  0.00000e+00  0.00000e+00 -1.10876e-01
    -1
    -1
    55                                                                          
Mode 12                                                                         
EMA                                                                             
Acceleration shapes (Uz only)                                                   
LoadCase 1                                                                      
                                                                                
         1         2         2        12         2         3
         2         4         1        12
  3.93316e+01  0.00000e+00  0.00000e+00  0.00000e+00
         1
  0.00000e+00  0.00000e+00 -2.88853e-01
         2
  0.00000e+00  0.00000e+00  5.87106e-01
         3
  0.00000e+00  0.00000e+00  4.34012e-02
         4
  0.00000e+00  0.00000e+00  2.16488e-01
         5
  0.00000e+00  0.00000e+00 -1.38656e-01
         6
  0.00000e+00  0.00000e+00 -1.05478e-01
         7
  0.00000e+00  0.00000e+00  1.79043e-01
         8
  0.00000e+00  0.00000e+00 -1.23677e-01
         9
  0.00000e+00  0.00000e+00  2.15577e-01
        10
  0.00000e+00  0.00000e+00 -6.20517e-02
        11
  0.00000e+00  0.00000e+00  3.34799e-04
        12
  0.00000e+00  0.00000e+00 -8.51305e-03
        13
  0.00000e+00  0.00000e+00 -1.27208e-01
        14
  0.00000e+00  0.00000e+00 -5.06151e-01
        15
  0.00000e+00  0.00000e+00  4.23657e-03
        16
  0.00000e+00  0.00000e+00 -1.69274e-01
        17
  0.00000e+00  0.00000e+00  2.63899e-01
        18
  0.00000e+00  0.00000e+00 -4.50028e-02
        19
  0.00000e+00  0.00000e+00 -1.06653e-02
        20
  0.00000e+00  0.00000e+00 -7.48241e-02
        21
  0.00000e+00  0.00000e+00 -1.05197e-01
        22
  0.00000e+00  0.00000e+00 -6.91011e-02
        23
  0.00000e+00  0.00000e+00  2.48072e-02
        24
  0.00000e+00  0.00000e+00  1.18204e-02
    -1
    -1
    55                                                                          
Mode 13                                                                         
EMA                                                                             
Acceleration shapes (Uz only)                                                   
LoadCase 1                                                                      
                                                                                
         1         2         2        12         2         3
         2         4         1        13
  4.67151e+01  0.00000e+00  0.00000e+00  0.00000e+00
         1
  0.00000e+00  0.00000e+00 -5.67031e-02
         2
  0.00000e+00  0.00000e+00 -5.57297e-01
         3
  0.00000e+00  0.00000e+00 -1.17806e-01
         4
  0.00000e+00  0.00000e+00 -2.44227e-01
         5
  0.00000e+00  0.00000e+00  1.88163e-01
         6
  0.00000e+00  0.00000e+00  1.11754e-01
         7
  0.00000e+00  0.00000e+00  6.98172e-02
         8
  0.00000e+00  0.00000e+00  6.79691e-02
         9
  0.00000e+00  0.00000e+00 -1.61618e-01
        10
  0.00000e+00  0.00000e+00 -7.92558e-02
        11
  0.00000e+00  0.00000e+00 -6.35462e-02
        12
  0.00000e+00  0.00000e+00 -3.76465e-02
        13
  0.00000e+00  0.00000e+00  1.91171e-01
        14
  0.00000e+00  0.00000e+00  5.46153e-01
        15
  0.00000e+00  0.00000e+00  9.42300e-02
        16
  0.00000e+00  0.00000e+00  2.28136e-01
        17
  0.00000e+00  0.00000e+00 -2.48781e-01
        18
  0.00000e+00  0.00000e+00 -5.34264e-02
        19
  0.00000e+00  0.00000e+00 -1.22014e-01
        20
  0.00000e+00  0.00000e+00 -1.04709e-02
        21
  0.00000e+00  0.00000e+00  1.37424e-01
        22
  0.00000e+00  0.00000e+00  1.21522e-01
        23
  0.00000e+00  0.00000e+00  7.81336e-02
        24
  0.00000e+00  0.00000e+00  4.66774e-02
    -1
    -1
    55                                                                          
Mode 14                                                                         
EMA                                                                             
Acceleration shapes (Uz only)                                                   
LoadCase 1                                                                      
                                                                                
         1         2         2        12         2         3
         2         4         1        14
  4.96283e+01  0.00000e+00  0.00000e+00  0.00000e+00
         1
  0.00000e+00  0.00000e+00  1.92526e-03
         2
  0.00000e+00  0.00000e+00  4.75443e-01
         3
  0.00000e+00  0.00000e+00  1.51932e-01
         4
  0.00000e+00  0.00000e+00  2.07913e-01
         5
  0.00000e+00  0.00000e+00 -5.45832e-02
         6
  0.00000e+00  0.00000e+00 -2.14805e-01
         7
  0.00000e+00  0.00000e+00 -6.78762e-02
         8
  0.00000e+00  0.00000e+00 -1.25644e-01
         9
  0.00000e+00  0.00000e+00  1.84728e-01
        10
  0.00000e+00  0.00000e+00  7.72114e-02
        11
  0.00000e+00  0.00000e+00  8.48961e-02
        12
  0.00000e+00  0.00000e+00  6.79727e-02
        13
  0.00000e+00  0.00000e+00  7.11755e-02
        14
  0.00000e+00  0.00000e+00 -5.41265e-01
        15
  0.00000e+00  0.00000e+00 -1.81011e-01
        16
  0.00000e+00  0.00000e+00 -2.28784e-01
        17
  0.00000e+00  0.00000e+00  4.88523e-02
        18
  0.00000e+00  0.00000e+00  3.14407e-01
        19
  0.00000e+00  0.00000e+00  4.78276e-02
        20
  0.00000e+00  0.00000e+00  2.20534e-01
        21
  0.00000e+00  0.00000e+00 -1.90060e-01
        22
  0.00000e+00  0.00000e+00 -5.53733e-02
        23
  0.00000e+00  0.00000e+00 -8.63613e-02
        24
  0.00000e+00  0.00000e+00 -6.52881e-02
    -1
