    -1
    15
         1         0         0         0      7.81760     -4.63530      0.63576
         2         0         0         0      9.70720     -4.63530      0.73676
         3         0         0         0      9.02168     -4.53370      0.69505
         4         0         0         0      9.37747     -4.53370      0.69810
         5         0         0         0      8.56214     -3.82250      0.69839
         6         0         0         0      9.24877     -3.82250      0.69834
         7         0         0         0      8.12068     -3.06050      0.70675
         8         0         0         0      9.10008     -3.06050      0.70036
         9         0         0         0      7.43669     -2.01910      0.71479
        10         0         0         0      8.88655     -1.99370      0.70320
        11         0         0         0      7.48304     -1.08778      0.75700
        12         0         0         0      8.36919     -1.08570      0.73723
        13         0         0         0      7.81760      4.63530      0.63576
        14         0         0         0      9.70720      4.63530      0.73676
        15         0         0         0      9.02168      4.53370      0.69505
        16         0         0         0      9.37747      4.53370      0.69810
        17         0         0         0      8.56214      3.82250      0.69839
        18         0         0         0      9.24877      3.82250      0.69834
        19         0         0         0      8.12068      3.06050      0.70675
        20         0         0         0      9.10008      3.06050      0.70036
        21         0         0         0      7.43669      2.01910      0.71479
        22         0         0         0      8.88655      1.99370      0.70320
        23         0         0         0      7.48304      1.08778      0.75700
        24         0         0         0      8.36919      1.08570      0.73723
    -1
    -1
    55                                                                          
Mode 1                                                                          
EMA                                                                             
Acceleration shapes (Uz only)                                                   
LoadCase 1                                                                      
                                                                                
         1         2         2        12         2         3
         2         4         1         1
  4.56812e+00  0.00000e+00  0.00000e+00  0.00000e+00
         1
  0.00000e+00  0.00000e+00  2.97830e-01
         2
  0.00000e+00  0.00000e+00  4.07464e-01
         3
  0.00000e+00  0.00000e+00  2.24811e-01
         4
  0.00000e+00  0.00000e+00  2.90582e-01
         5
  0.00000e+00  0.00000e+00  8.38664e-02
         6
  0.00000e+00  0.00000e+00  1.44532e-01
         7
  0.00000e+00  0.00000e+00  1.19505e-01
         8
  0.00000e+00  0.00000e+00  9.35473e-02
         9
  0.00000e+00  0.00000e+00  4.26515e-02
        10
  0.00000e+00  0.00000e+00  7.35128e-02
        11
  0.00000e+00  0.00000e+00  2.23821e-02
        12
  0.00000e+00  0.00000e+00  3.37050e-02
        13
  0.00000e+00  0.00000e+00 -3.41102e-01
        14
  0.00000e+00  0.00000e+00 -3.97316e-01
        15
  0.00000e+00  0.00000e+00 -2.21905e-01
        16
  0.00000e+00  0.00000e+00 -3.00395e-01
        17
  0.00000e+00  0.00000e+00 -1.11302e-01
        18
  0.00000e+00  0.00000e+00 -2.18532e-01
        19
  0.00000e+00  0.00000e+00 -1.56714e-01
        20
  0.00000e+00  0.00000e+00 -1.50660e-01
        21
  0.00000e+00  0.00000e+00 -1.34588e-01
        22
  0.00000e+00  0.00000e+00 -9.75977e-02
        23
  0.00000e+00  0.00000e+00 -1.48853e-02
        24
  0.00000e+00  0.00000e+00 -3.90389e-02
    -1
    -1
    55                                                                          
Mode 2                                                                          
EMA                                                                             
Acceleration shapes (Uz only)                                                   
LoadCase 1                                                                      
                                                                                
         1         2         2        12         2         3
         2         4         1         2
  8.41691e+00  0.00000e+00  0.00000e+00  0.00000e+00
         1
  0.00000e+00  0.00000e+00 -3.68603e-01
         2
  0.00000e+00  0.00000e+00 -5.09538e-02
         3
  0.00000e+00  0.00000e+00 -2.22278e-01
         4
  0.00000e+00  0.00000e+00 -1.65494e-01
         5
  0.00000e+00  0.00000e+00 -9.72674e-02
         6
  0.00000e+00  0.00000e+00 -1.37579e-01
         7
  0.00000e+00  0.00000e+00 -4.92682e-02
         8
  0.00000e+00  0.00000e+00 -1.89332e-02
         9
  0.00000e+00  0.00000e+00  3.02760e-02
        10
  0.00000e+00  0.00000e+00  2.30182e-02
        11
  0.00000e+00  0.00000e+00  2.50654e-02
        12
  0.00000e+00  0.00000e+00  1.00706e-02
        13
  0.00000e+00  0.00000e+00 -5.23308e-01
        14
  0.00000e+00  0.00000e+00 -4.26877e-01
        15
  0.00000e+00  0.00000e+00 -2.98047e-01
        16
  0.00000e+00  0.00000e+00 -3.14063e-01
        17
  0.00000e+00  0.00000e+00 -1.96976e-01
        18
  0.00000e+00  0.00000e+00 -1.82546e-01
        19
  0.00000e+00  0.00000e+00 -1.00193e-01
        20
  0.00000e+00  0.00000e+00 -1.35609e-01
        21
  0.00000e+00  0.00000e+00 -5.96083e-02
        22
  0.00000e+00  0.00000e+00 -5.88684e-02
        23
  0.00000e+00  0.00000e+00 -1.01289e-02
        24
  0.00000e+00  0.00000e+00 -1.31594e-02
    -1
    -1
    55                                                                          
Mode 3                                                                          
EMA                                                                             
Acceleration shapes (Uz only)                                                   
LoadCase 1                                                                      
                                                                                
         1         2         2        12         2         3
         2         4         1         3
  1.26335e+01  0.00000e+00  0.00000e+00  0.00000e+00
         1
  0.00000e+00  0.00000e+00  5.18195e-01
         2
  0.00000e+00  0.00000e+00 -3.57047e-01
         3
  0.00000e+00  0.00000e+00 -2.04112e-01
         4
  0.00000e+00  0.00000e+00 -2.89730e-01
         5
  0.00000e+00  0.00000e+00 -9.12791e-02
         6
  0.00000e+00  0.00000e+00 -2.03451e-01
         7
  0.00000e+00  0.00000e+00 -6.13141e-02
         8
  0.00000e+00  0.00000e+00 -8.28264e-02
         9
  0.00000e+00  0.00000e+00  8.74616e-03
        10
  0.00000e+00  0.00000e+00 -6.21111e-03
        11
  0.00000e+00  0.00000e+00  8.16694e-03
        12
  0.00000e+00  0.00000e+00  6.10100e-03
        13
  0.00000e+00  0.00000e+00  4.99112e-01
        14
  0.00000e+00  0.00000e+00 -3.12174e-01
        15
  0.00000e+00  0.00000e+00 -7.23661e-02
        16
  0.00000e+00  0.00000e+00 -1.74043e-01
        17
  0.00000e+00  0.00000e+00 -7.99642e-02
        18
  0.00000e+00  0.00000e+00 -1.06454e-01
        19
  0.00000e+00  0.00000e+00 -4.63518e-02
        20
  0.00000e+00  0.00000e+00 -9.33772e-02
        21
  0.00000e+00  0.00000e+00 -4.92110e-02
        22
  0.00000e+00  0.00000e+00 -5.55152e-02
        23
  0.00000e+00  0.00000e+00 -2.96473e-02
        24
  0.00000e+00  0.00000e+00 -2.74532e-02
    -1
    -1
    55                                                                          
Mode 4                                                                          
EMA                                                                             
Acceleration shapes (Uz only)                                                   
LoadCase 1                                                                      
                                                                                
         1         2         2        12         2         3
         2         4         1         4
  1.40089e+01  0.00000e+00  0.00000e+00  0.00000e+00
         1
  0.00000e+00  0.00000e+00  1.64659e-01
         2
  0.00000e+00  0.00000e+00 -4.06661e-01
         3
  0.00000e+00  0.00000e+00 -2.46645e-01
         4
  0.00000e+00  0.00000e+00 -3.18356e-01
         5
  0.00000e+00  0.00000e+00 -8.75356e-02
         6
  0.00000e+00  0.00000e+00 -1.66411e-01
         7
  0.00000e+00  0.00000e+00 -3.36699e-03
         8
  0.00000e+00  0.00000e+00 -4.98572e-02
         9
  0.00000e+00  0.00000e+00  5.14627e-02
        10
  0.00000e+00  0.00000e+00  2.26137e-02
        11
  0.00000e+00  0.00000e+00  4.03914e-02
        12
  0.00000e+00  0.00000e+00  3.45077e-02
        13
  0.00000e+00  0.00000e+00 -3.42448e-01
        14
  0.00000e+00  0.00000e+00  4.80651e-01
        15
  0.00000e+00  0.00000e+00  2.58407e-01
        16
  0.00000e+00  0.00000e+00  3.58760e-01
        17
  0.00000e+00  0.00000e+00  1.07227e-01
        18
  0.00000e+00  0.00000e+00  1.91515e-01
        19
  0.00000e+00  0.00000e+00  2.72939e-02
        20
  0.00000e+00  0.00000e+00  8.35235e-02
        21
  0.00000e+00  0.00000e+00 -2.75955e-02
        22
  0.00000e+00  0.00000e+00  7.71283e-03
        23
  0.00000e+00  0.00000e+00 -2.26971e-02
        24
  0.00000e+00  0.00000e+00 -2.19782e-02
    -1
    -1
    55                                                                          
Mode 5                                                                          
EMA                                                                             
Acceleration shapes (Uz only)                                                   
LoadCase 1                                                                      
                                                                                
         1         2         2        12         2         3
         2         4         1         5
  1.59214e+01  0.00000e+00  0.00000e+00  0.00000e+00
         1
  0.00000e+00  0.00000e+00  1.59059e-01
         2
  0.00000e+00  0.00000e+00  3.69458e-02
         3
  0.00000e+00  0.00000e+00 -3.52594e-01
         4
  0.00000e+00  0.00000e+00 -2.85193e-01
         5
  0.00000e+00  0.00000e+00 -1.02712e-01
         6
  0.00000e+00  0.00000e+00 -3.41407e-01
         7
  0.00000e+00  0.00000e+00 -8.29310e-02
         8
  0.00000e+00  0.00000e+00  2.81374e-02
         9
  0.00000e+00  0.00000e+00  2.38876e-01
        10
  0.00000e+00  0.00000e+00  2.09256e-01
        11
  0.00000e+00  0.00000e+00  1.52862e-01
        12
  0.00000e+00  0.00000e+00  1.32908e-01
        13
  0.00000e+00  0.00000e+00  2.30770e-01
        14
  0.00000e+00  0.00000e+00 -5.89766e-01
        15
  0.00000e+00  0.00000e+00 -5.54788e-02
        16
  0.00000e+00  0.00000e+00 -2.26659e-01
        17
  0.00000e+00  0.00000e+00 -1.06093e-01
        18
  0.00000e+00  0.00000e+00  5.15480e-02
        19
  0.00000e+00  0.00000e+00  1.27893e-01
        20
  0.00000e+00  0.00000e+00 -3.94374e-02
        21
  0.00000e+00  0.00000e+00 -1.44393e-02
        22
  0.00000e+00  0.00000e+00 -5.62321e-02
        23
  0.00000e+00  0.00000e+00 -1.71012e-02
        24
  0.00000e+00  0.00000e+00  1.54274e-04
    -1
    -1
    55                                                                          
Mode 6                                                                          
EMA                                                                             
Acceleration shapes (Uz only)                                                   
LoadCase 1                                                                      
                                                                                
         1         2         2        12         2         3
         2         4         1         6
  1.81992e+01  0.00000e+00  0.00000e+00  0.00000e+00
         1
  0.00000e+00  0.00000e+00  1.72969e-01
         2
  0.00000e+00  0.00000e+00  4.59082e-01
         3
  0.00000e+00  0.00000e+00  1.04729e-01
         4
  0.00000e+00  0.00000e+00  1.90059e-01
         5
  0.00000e+00  0.00000e+00 -3.37158e-01
         6
  0.00000e+00  0.00000e+00 -1.79410e-01
         7
  0.00000e+00  0.00000e+00 -2.30909e-01
         8
  0.00000e+00  0.00000e+00 -2.07906e-01
         9
  0.00000e+00  0.00000e+00 -4.77976e-02
        10
  0.00000e+00  0.00000e+00 -3.35795e-02
        11
  0.00000e+00  0.00000e+00 -5.77425e-02
        12
  0.00000e+00  0.00000e+00 -4.41947e-03
        13
  0.00000e+00  0.00000e+00  9.68266e-02
        14
  0.00000e+00  0.00000e+00 -4.51913e-01
        15
  0.00000e+00  0.00000e+00 -1.10015e-01
        16
  0.00000e+00  0.00000e+00 -2.50329e-01
        17
  0.00000e+00  0.00000e+00  2.41476e-01
        18
  0.00000e+00  0.00000e+00  7.47522e-02
        19
  0.00000e+00  0.00000e+00  2.34083e-01
        20
  0.00000e+00  0.00000e+00  1.22845e-01
        21
  0.00000e+00  0.00000e+00  1.52208e-01
        22
  0.00000e+00  0.00000e+00  7.42061e-02
        23
  0.00000e+00  0.00000e+00  6.53454e-02
        24
  0.00000e+00  0.00000e+00  8.92477e-02
    -1
    -1
    55                                                                          
Mode 7                                                                          
EMA                                                                             
Acceleration shapes (Uz only)                                                   
LoadCase 1                                                                      
                                                                                
         1         2         2        12         2         3
         2         4         1         7
  2.32211e+01  0.00000e+00  0.00000e+00  0.00000e+00
         1
  0.00000e+00  0.00000e+00 -1.72321e-01
         2
  0.00000e+00  0.00000e+00 -5.08336e-01
         3
  0.00000e+00  0.00000e+00 -2.25080e-01
         4
  0.00000e+00  0.00000e+00 -3.35540e-01
         5
  0.00000e+00  0.00000e+00  3.21080e-02
         6
  0.00000e+00  0.00000e+00 -1.03386e-02
         7
  0.00000e+00  0.00000e+00  2.05309e-01
         8
  0.00000e+00  0.00000e+00  5.93249e-02
         9
  0.00000e+00  0.00000e+00  7.39961e-02
        10
  0.00000e+00  0.00000e+00  2.99223e-02
        11
  0.00000e+00  0.00000e+00  4.52159e-03
        12
  0.00000e+00  0.00000e+00  6.24076e-03
        13
  0.00000e+00  0.00000e+00  3.75964e-02
        14
  0.00000e+00  0.00000e+00  5.07973e-01
        15
  0.00000e+00  0.00000e+00  2.41998e-01
        16
  0.00000e+00  0.00000e+00  3.46123e-01
        17
  0.00000e+00  0.00000e+00  1.52374e-02
        18
  0.00000e+00  0.00000e+00  8.22198e-04
        19
  0.00000e+00  0.00000e+00 -1.92531e-01
        20
  0.00000e+00  0.00000e+00 -8.21805e-02
        21
  0.00000e+00  0.00000e+00 -1.04566e-01
        22
  0.00000e+00  0.00000e+00 -4.98519e-02
        23
  0.00000e+00  0.00000e+00 -3.91457e-03
        24
  0.00000e+00  0.00000e+00 -1.04685e-02
    -1
    -1
    55                                                                          
Mode 8                                                                          
EMA                                                                             
Acceleration shapes (Uz only)                                                   
LoadCase 1                                                                      
                                                                                
         1         2         2        12         2         3
         2         4         1         8
  2.61235e+01  0.00000e+00  0.00000e+00  0.00000e+00
         1
  0.00000e+00  0.00000e+00 -1.04715e-01
         2
  0.00000e+00  0.00000e+00 -5.88154e-01
         3
  0.00000e+00  0.00000e+00 -2.63328e-01
         4
  0.00000e+00  0.00000e+00 -3.02390e-01
         5
  0.00000e+00  0.00000e+00 -1.48188e-02
         6
  0.00000e+00  0.00000e+00  4.04540e-02
         7
  0.00000e+00  0.00000e+00  1.76506e-01
         8
  0.00000e+00  0.00000e+00  8.39491e-02
         9
  0.00000e+00  0.00000e+00  4.56742e-02
        10
  0.00000e+00  0.00000e+00  1.24172e-02
        11
  0.00000e+00  0.00000e+00 -6.58801e-03
        12
  0.00000e+00  0.00000e+00 -2.18075e-02
        13
  0.00000e+00  0.00000e+00  3.25704e-02
        14
  0.00000e+00  0.00000e+00  4.93745e-01
        15
  0.00000e+00  0.00000e+00  2.59952e-01
        16
  0.00000e+00  0.00000e+00  2.73471e-01
        17
  0.00000e+00  0.00000e+00  5.58137e-02
        18
  0.00000e+00  0.00000e+00 -4.89500e-02
        19
  0.00000e+00  0.00000e+00 -1.65245e-01
        20
  0.00000e+00  0.00000e+00 -1.04505e-01
        21
  0.00000e+00  0.00000e+00 -7.93735e-02
        22
  0.00000e+00  0.00000e+00 -4.01716e-02
        23
  0.00000e+00  0.00000e+00  7.52495e-03
        24
  0.00000e+00  0.00000e+00  2.44343e-02
    -1
    -1
    55                                                                          
Mode 9                                                                          
EMA                                                                             
Acceleration shapes (Uz only)                                                   
LoadCase 1                                                                      
                                                                                
         1         2         2        12         2         3
         2         4         1         9
  2.98024e+01  0.00000e+00  0.00000e+00  0.00000e+00
         1
  0.00000e+00  0.00000e+00 -6.00384e-01
         2
  0.00000e+00  0.00000e+00  5.99232e-01
         3
  0.00000e+00  0.00000e+00  8.02838e-02
         4
  0.00000e+00  0.00000e+00  2.95054e-01
         5
  0.00000e+00  0.00000e+00 -1.35406e-01
         6
  0.00000e+00  0.00000e+00  9.27485e-02
         7
  0.00000e+00  0.00000e+00 -1.15338e-01
         8
  0.00000e+00  0.00000e+00  3.03260e-02
         9
  0.00000e+00  0.00000e+00 -1.51420e-02
        10
  0.00000e+00  0.00000e+00  3.81681e-02
        11
  0.00000e+00  0.00000e+00  2.61096e-03
        12
  0.00000e+00  0.00000e+00  1.24207e-02
        13
  0.00000e+00  0.00000e+00 -6.34429e-02
        14
  0.00000e+00  0.00000e+00 -2.67595e-01
        15
  0.00000e+00  0.00000e+00 -7.61111e-02
        16
  0.00000e+00  0.00000e+00 -1.48399e-01
        17
  0.00000e+00  0.00000e+00  1.26500e-01
        18
  0.00000e+00  0.00000e+00  4.10685e-02
        19
  0.00000e+00  0.00000e+00  1.28305e-01
        20
  0.00000e+00  0.00000e+00  6.52981e-02
        21
  0.00000e+00  0.00000e+00  2.87484e-02
        22
  0.00000e+00  0.00000e+00 -1.53054e-03
        23
  0.00000e+00  0.00000e+00 -2.23418e-02
        24
  0.00000e+00  0.00000e+00 -2.75766e-02
    -1
    -1
    55                                                                          
Mode 10                                                                         
EMA                                                                             
Acceleration shapes (Uz only)                                                   
LoadCase 1                                                                      
                                                                                
         1         2         2        12         2         3
         2         4         1        10
  3.29618e+01  0.00000e+00  0.00000e+00  0.00000e+00
         1
  0.00000e+00  0.00000e+00  9.36408e-03
         2
  0.00000e+00  0.00000e+00  5.44828e-01
         3
  0.00000e+00  0.00000e+00  2.37198e-01
         4
  0.00000e+00  0.00000e+00  3.39392e-01
         5
  0.00000e+00  0.00000e+00 -6.74890e-02
         6
  0.00000e+00  0.00000e+00 -3.83199e-02
         7
  0.00000e+00  0.00000e+00 -2.00941e-01
         8
  0.00000e+00  0.00000e+00 -1.27345e-01
         9
  0.00000e+00  0.00000e+00 -2.74676e-03
        10
  0.00000e+00  0.00000e+00 -1.73394e-02
        11
  0.00000e+00  0.00000e+00  7.10508e-02
        12
  0.00000e+00  0.00000e+00  5.92414e-02
        13
  0.00000e+00  0.00000e+00 -5.08050e-02
        14
  0.00000e+00  0.00000e+00 -4.78774e-01
        15
  0.00000e+00  0.00000e+00 -2.42076e-01
        16
  0.00000e+00  0.00000e+00 -2.97341e-01
        17
  0.00000e+00  0.00000e+00  4.25853e-02
        18
  0.00000e+00  0.00000e+00  1.00535e-01
        19
  0.00000e+00  0.00000e+00  1.77012e-01
        20
  0.00000e+00  0.00000e+00  1.67994e-01
        21
  0.00000e+00  0.00000e+00  1.12862e-02
        22
  0.00000e+00  0.00000e+00  3.25932e-02
        23
  0.00000e+00  0.00000e+00 -7.03608e-02
        24
  0.00000e+00  0.00000e+00 -6.08804e-02
    -1
    -1
    55                                                                          
Mode 11                                                                         
EMA                                                                             
Acceleration shapes (Uz only)                                                   
LoadCase 1                                                                      
                                                                                
         1         2         2        12         2         3
         2         4         1        11
  3.43905e+01  0.00000e+00  0.00000e+00  0.00000e+00
         1
  0.00000e+00  0.00000e+00 -8.39717e-02
         2
  0.00000e+00  0.00000e+00 -4.20853e-01
         3
  0.00000e+00  0.00000e+00 -2.42652e-01
         4
  0.00000e+00  0.00000e+00 -3.17230e-01
         5
  0.00000e+00  0.00000e+00  3.25023e-02
         6
  0.00000e+00  0.00000e+00 -1.93532e-02
         7
  0.00000e+00  0.00000e+00  2.24807e-01
         8
  0.00000e+00  0.00000e+00  7.40732e-02
         9
  0.00000e+00  0.00000e+00  5.76629e-02
        10
  0.00000e+00  0.00000e+00 -1.11344e-02
        11
  0.00000e+00  0.00000e+00 -6.20825e-02
        12
  0.00000e+00  0.00000e+00 -7.09556e-02
        13
  0.00000e+00  0.00000e+00 -1.41168e-01
        14
  0.00000e+00  0.00000e+00  5.67877e-01
        15
  0.00000e+00  0.00000e+00  2.38881e-01
        16
  0.00000e+00  0.00000e+00  3.50539e-01
        17
  0.00000e+00  0.00000e+00 -4.16562e-02
        18
  0.00000e+00  0.00000e+00 -2.20345e-02
        19
  0.00000e+00  0.00000e+00 -1.95084e-01
        20
  0.00000e+00  0.00000e+00 -1.10733e-01
        21
  0.00000e+00  0.00000e+00 -3.43107e-02
        22
  0.00000e+00  0.00000e+00 -4.53116e-04
        23
  0.00000e+00  0.00000e+00  6.96304e-02
        24
  0.00000e+00  0.00000e+00  7.48501e-02
    -1
    -1
    55                                                                          
Mode 12                                                                         
EMA                                                                             
Acceleration shapes (Uz only)                                                   
LoadCase 1                                                                      
                                                                                
         1         2         2        12         2         3
         2         4         1        12
  3.93025e+01  0.00000e+00  0.00000e+00  0.00000e+00
         1
  0.00000e+00  0.00000e+00  7.51218e-01
         2
  0.00000e+00  0.00000e+00 -5.01116e-02
         3
  0.00000e+00  0.00000e+00 -1.14583e-02
         4
  0.00000e+00  0.00000e+00 -2.34235e-02
         5
  0.00000e+00  0.00000e+00 -1.02696e-01
         6
  0.00000e+00  0.00000e+00  1.83275e-01
         7
  0.00000e+00  0.00000e+00 -3.62234e-01
         8
  0.00000e+00  0.00000e+00  3.15064e-01
         9
  0.00000e+00  0.00000e+00 -1.60078e-01
        10
  0.00000e+00  0.00000e+00  2.75034e-01
        11
  0.00000e+00  0.00000e+00  4.60350e-02
        12
  0.00000e+00  0.00000e+00  5.05048e-02
        13
  0.00000e+00  0.00000e+00 -2.02972e-02
        14
  0.00000e+00  0.00000e+00  4.65736e-02
        15
  0.00000e+00  0.00000e+00 -5.48403e-02
        16
  0.00000e+00  0.00000e+00 -7.54472e-03
        17
  0.00000e+00  0.00000e+00 -1.66833e-01
        18
  0.00000e+00  0.00000e+00  7.76786e-02
        19
  0.00000e+00  0.00000e+00  6.07327e-02
        20
  0.00000e+00  0.00000e+00  6.36219e-02
        21
  0.00000e+00  0.00000e+00  1.25159e-04
        22
  0.00000e+00  0.00000e+00  4.48133e-03
        23
  0.00000e+00  0.00000e+00 -5.92973e-02
        24
  0.00000e+00  0.00000e+00 -3.37885e-02
    -1
    -1
    55                                                                          
Mode 13                                                                         
EMA                                                                             
Acceleration shapes (Uz only)                                                   
LoadCase 1                                                                      
                                                                                
         1         2         2        12         2         3
         2         4         1        13
  4.68216e+01  0.00000e+00  0.00000e+00  0.00000e+00
         1
  0.00000e+00  0.00000e+00  3.93916e-02
         2
  0.00000e+00  0.00000e+00  6.39974e-01
         3
  0.00000e+00  0.00000e+00  1.49334e-01
         4
  0.00000e+00  0.00000e+00  2.89701e-01
         5
  0.00000e+00  0.00000e+00 -2.11672e-01
         6
  0.00000e+00  0.00000e+00 -1.56706e-01
         7
  0.00000e+00  0.00000e+00 -1.03268e-01
         8
  0.00000e+00  0.00000e+00 -1.13877e-01
         9
  0.00000e+00  0.00000e+00  1.91367e-01
        10
  0.00000e+00  0.00000e+00  7.70240e-02
        11
  0.00000e+00  0.00000e+00  8.58857e-02
        12
  0.00000e+00  0.00000e+00  4.32362e-02
        13
  0.00000e+00  0.00000e+00 -2.40908e-01
        14
  0.00000e+00  0.00000e+00 -3.72140e-01
        15
  0.00000e+00  0.00000e+00 -5.41210e-02
        16
  0.00000e+00  0.00000e+00 -1.62162e-01
        17
  0.00000e+00  0.00000e+00  2.12843e-01
        18
  0.00000e+00  0.00000e+00 -1.01125e-02
        19
  0.00000e+00  0.00000e+00  1.78264e-01
        20
  0.00000e+00  0.00000e+00 -3.54915e-02
        21
  0.00000e+00  0.00000e+00 -7.89455e-02
        22
  0.00000e+00  0.00000e+00 -1.25026e-01
        23
  0.00000e+00  0.00000e+00 -9.57045e-02
        24
  0.00000e+00  0.00000e+00 -5.14215e-02
    -1
    -1
    55                                                                          
Mode 14                                                                         
EMA                                                                             
Acceleration shapes (Uz only)                                                   
LoadCase 1                                                                      
                                                                                
         1         2         2        12         2         3
         2         4         1        14
  4.96050e+01  0.00000e+00  0.00000e+00  0.00000e+00
         1
  0.00000e+00  0.00000e+00  3.79631e-02
         2
  0.00000e+00  0.00000e+00  6.71297e-01
         3
  0.00000e+00  0.00000e+00  1.98904e-01
         4
  0.00000e+00  0.00000e+00  3.29754e-01
         5
  0.00000e+00  0.00000e+00 -1.58632e-01
         6
  0.00000e+00  0.00000e+00 -2.11944e-01
         7
  0.00000e+00  0.00000e+00 -1.27435e-01
         8
  0.00000e+00  0.00000e+00 -1.64846e-01
         9
  0.00000e+00  0.00000e+00  2.28654e-01
        10
  0.00000e+00  0.00000e+00  7.22780e-02
        11
  0.00000e+00  0.00000e+00  1.26290e-01
        12
  0.00000e+00  0.00000e+00  7.50312e-02
        13
  0.00000e+00  0.00000e+00 -9.46201e-02
        14
  0.00000e+00  0.00000e+00 -3.07700e-01
        15
  0.00000e+00  0.00000e+00 -1.01332e-01
        16
  0.00000e+00  0.00000e+00 -1.53501e-01
        17
  0.00000e+00  0.00000e+00  6.41836e-02
        18
  0.00000e+00  0.00000e+00  1.05001e-01
        19
  0.00000e+00  0.00000e+00  1.36037e-01
        20
  0.00000e+00  0.00000e+00  7.34145e-02
        21
  0.00000e+00  0.00000e+00 -1.05565e-01
        22
  0.00000e+00  0.00000e+00 -5.88446e-02
        23
  0.00000e+00  0.00000e+00 -1.10563e-01
        24
  0.00000e+00  0.00000e+00 -6.08369e-02
    -1
    -1
    55                                                                          
Mode 15                                                                         
EMA                                                                             
Acceleration shapes (Uz only)                                                   
LoadCase 1                                                                      
                                                                                
         1         2         2        12         2         3
         2         4         1        15
  5.73758e+01  0.00000e+00  0.00000e+00  0.00000e+00
         1
  0.00000e+00  0.00000e+00  2.81674e-01
         2
  0.00000e+00  0.00000e+00  4.19034e-01
         3
  0.00000e+00  0.00000e+00 -2.98763e-02
         4
  0.00000e+00  0.00000e+00  1.45485e-01
         5
  0.00000e+00  0.00000e+00 -2.11441e-01
         6
  0.00000e+00  0.00000e+00  1.62555e-01
         7
  0.00000e+00  0.00000e+00 -9.32662e-02
         8
  0.00000e+00  0.00000e+00  1.99747e-01
         9
  0.00000e+00  0.00000e+00  7.77515e-02
        10
  0.00000e+00  0.00000e+00  1.53751e-01
        11
  0.00000e+00  0.00000e+00  2.29856e-02
        12
  0.00000e+00  0.00000e+00  3.95633e-02
        13
  0.00000e+00  0.00000e+00 -9.47121e-02
        14
  0.00000e+00  0.00000e+00 -6.26498e-01
        15
  0.00000e+00  0.00000e+00 -8.32985e-02
        16
  0.00000e+00  0.00000e+00 -2.28101e-01
        17
  0.00000e+00  0.00000e+00  2.10791e-01
        18
  0.00000e+00  0.00000e+00  1.45911e-01
        19
  0.00000e+00  0.00000e+00  2.81342e-02
        20
  0.00000e+00  0.00000e+00  6.57146e-02
        21
  0.00000e+00  0.00000e+00 -1.84673e-01
        22
  0.00000e+00  0.00000e+00 -6.85289e-02
        23
  0.00000e+00  0.00000e+00 -3.63626e-02
        24
  0.00000e+00  0.00000e+00 -1.04791e-02
    -1
