    -1
    15
         1         0         0         0      7.81760     -4.63530      0.63576
         2         0         0         0      9.70720     -4.63530      0.73676
         3         0         0         0      9.02168     -4.53370      0.69505
         4         0         0         0      9.37747     -4.53370      0.69810
         5         0         0         0      8.56214     -3.82250      0.69839
         6         0         0         0      9.24877     -3.82250      0.69834
         7         0         0         0      8.12068     -3.06050      0.70675
         8         0         0         0      9.10008     -3.06050      0.70036
         9         0         0         0      7.43669     -2.01910      0.71479
        10         0         0         0      8.88655     -1.99370      0.70320
        11         0         0         0      7.48304     -1.08778      0.75700
        12         0         0         0      8.36919     -1.08570      0.73723
    -1
    -1
    55                                                                          
Mode 1                                                                          
EMA                                                                             
Acceleration shapes (Uz only)                                                   
LoadCase 1                                                                      
                                                                                
         1         2         2        12         2         3
         2         4         1         1
  8.79534e+00  0.00000e+00  0.00000e+00  0.00000e+00
         1
  0.00000e+00  0.00000e+00  7.01801e-01
         2
  0.00000e+00  0.00000e+00  3.23613e-01
         3
  0.00000e+00  0.00000e+00  3.86072e-01
         4
  0.00000e+00  0.00000e+00  3.51093e-01
         5
  0.00000e+00  0.00000e+00  2.31627e-01
         6
  0.00000e+00  0.00000e+00  2.26043e-01
         7
  0.00000e+00  0.00000e+00  1.04686e-01
         8
  0.00000e+00  0.00000e+00  1.16655e-01
         9
  0.00000e+00  0.00000e+00  1.52023e-02
        10
  0.00000e+00  0.00000e+00  2.52107e-02
        11
  0.00000e+00  0.00000e+00 -1.14214e-02
        12
  0.00000e+00  0.00000e+00 -1.10176e-02
    -1
    -1
    55                                                                          
Mode 2                                                                          
EMA                                                                             
Acceleration shapes (Uz only)                                                   
LoadCase 1                                                                      
                                                                                
         1         2         2        12         2         3
         2         4         1         2
  1.32147e+01  0.00000e+00  0.00000e+00  0.00000e+00
         1
  0.00000e+00  0.00000e+00 -6.40896e-01
         2
  0.00000e+00  0.00000e+00  5.21155e-01
         3
  0.00000e+00  0.00000e+00  2.48097e-01
         4
  0.00000e+00  0.00000e+00  3.76919e-01
         5
  0.00000e+00  0.00000e+00  1.40595e-01
         6
  0.00000e+00  0.00000e+00  2.48954e-01
         7
  0.00000e+00  0.00000e+00  8.43672e-02
         8
  0.00000e+00  0.00000e+00  1.45878e-01
         9
  0.00000e+00  0.00000e+00  2.68149e-02
        10
  0.00000e+00  0.00000e+00  5.45161e-02
        11
  0.00000e+00  0.00000e+00  1.01269e-02
        12
  0.00000e+00  0.00000e+00  9.61950e-03
    -1
    -1
    55                                                                          
Mode 3                                                                          
EMA                                                                             
Acceleration shapes (Uz only)                                                   
LoadCase 1                                                                      
                                                                                
         1         2         2        12         2         3
         2         4         1         3
  1.45056e+01  0.00000e+00  0.00000e+00  0.00000e+00
         1
  0.00000e+00  0.00000e+00 -6.05574e-01
         2
  0.00000e+00  0.00000e+00 -6.52721e-01
         3
  0.00000e+00  0.00000e+00  2.73855e-02
         4
  0.00000e+00  0.00000e+00 -1.20746e-01
         5
  0.00000e+00  0.00000e+00  2.81758e-01
         6
  0.00000e+00  0.00000e+00  2.48192e-01
         7
  0.00000e+00  0.00000e+00 -8.76831e-02
         8
  0.00000e+00  0.00000e+00  6.94899e-02
         9
  0.00000e+00  0.00000e+00 -1.78311e-01
        10
  0.00000e+00  0.00000e+00 -7.93817e-02
        11
  0.00000e+00  0.00000e+00 -1.16123e-02
        12
  0.00000e+00  0.00000e+00 -1.30710e-02
    -1
    -1
    55                                                                          
Mode 4                                                                          
EMA                                                                             
Acceleration shapes (Uz only)                                                   
LoadCase 1                                                                      
                                                                                
         1         2         2        12         2         3
         2         4         1         4
  1.50590e+01  0.00000e+00  0.00000e+00  0.00000e+00
         1
  0.00000e+00  0.00000e+00 -2.51304e-01
         2
  0.00000e+00  0.00000e+00 -8.50256e-01
         3
  0.00000e+00  0.00000e+00 -1.95389e-01
         4
  0.00000e+00  0.00000e+00 -3.75369e-01
         5
  0.00000e+00  0.00000e+00  1.41276e-01
         6
  0.00000e+00  0.00000e+00  2.92831e-02
         7
  0.00000e+00  0.00000e+00 -4.82203e-02
         8
  0.00000e+00  0.00000e+00  1.07509e-03
         9
  0.00000e+00  0.00000e+00 -5.45967e-02
        10
  0.00000e+00  0.00000e+00 -3.51224e-02
        11
  0.00000e+00  0.00000e+00  6.98875e-02
        12
  0.00000e+00  0.00000e+00  5.08967e-02
    -1
    -1
    55                                                                          
Mode 5                                                                          
EMA                                                                             
Acceleration shapes (Uz only)                                                   
LoadCase 1                                                                      
                                                                                
         1         2         2        12         2         3
         2         4         1         5
  2.76944e+01  0.00000e+00  0.00000e+00  0.00000e+00
         1
  0.00000e+00  0.00000e+00  1.83195e-01
         2
  0.00000e+00  0.00000e+00  7.45716e-01
         3
  0.00000e+00  0.00000e+00  3.04342e-01
         4
  0.00000e+00  0.00000e+00  4.49616e-01
         5
  0.00000e+00  0.00000e+00 -1.31353e-01
         6
  0.00000e+00  0.00000e+00 -1.53500e-02
         7
  0.00000e+00  0.00000e+00 -2.38471e-01
         8
  0.00000e+00  0.00000e+00 -1.53378e-01
         9
  0.00000e+00  0.00000e+00 -8.61083e-02
        10
  0.00000e+00  0.00000e+00 -9.86820e-02
        11
  0.00000e+00  0.00000e+00 -6.20245e-03
        12
  0.00000e+00  0.00000e+00 -2.22361e-02
    -1
    -1
    55                                                                          
Mode 6                                                                          
EMA                                                                             
Acceleration shapes (Uz only)                                                   
LoadCase 1                                                                      
                                                                                
         1         2         2        12         2         3
         2         4         1         6
  3.09595e+01  0.00000e+00  0.00000e+00  0.00000e+00
         1
  0.00000e+00  0.00000e+00  1.54142e-01
         2
  0.00000e+00  0.00000e+00  6.61600e-01
         3
  0.00000e+00  0.00000e+00  3.50416e-01
         4
  0.00000e+00  0.00000e+00  4.47390e-01
         5
  0.00000e+00  0.00000e+00 -1.55065e-01
         6
  0.00000e+00  0.00000e+00 -6.27335e-02
         7
  0.00000e+00  0.00000e+00 -3.12201e-01
         8
  0.00000e+00  0.00000e+00 -2.43552e-01
         9
  0.00000e+00  0.00000e+00 -1.27850e-01
        10
  0.00000e+00  0.00000e+00 -1.14285e-01
        11
  0.00000e+00  0.00000e+00  2.10210e-02
        12
  0.00000e+00  0.00000e+00  3.09801e-02
    -1
    -1
    55                                                                          
Mode 7                                                                          
EMA                                                                             
Acceleration shapes (Uz only)                                                   
LoadCase 1                                                                      
                                                                                
         1         2         2        12         2         3
         2         4         1         7
  3.65300e+01  0.00000e+00  0.00000e+00  0.00000e+00
         1
  0.00000e+00  0.00000e+00  8.97874e-01
         2
  0.00000e+00  0.00000e+00 -1.79820e-01
         3
  0.00000e+00  0.00000e+00 -1.50550e-01
         4
  0.00000e+00  0.00000e+00 -2.13151e-01
         5
  0.00000e+00  0.00000e+00 -2.06522e-01
         6
  0.00000e+00  0.00000e+00 -1.48478e-01
         7
  0.00000e+00  0.00000e+00  5.81273e-02
         8
  0.00000e+00  0.00000e+00  3.30569e-02
         9
  0.00000e+00  0.00000e+00  1.26801e-01
        10
  0.00000e+00  0.00000e+00  8.93020e-02
        11
  0.00000e+00  0.00000e+00  1.67933e-03
        12
  0.00000e+00  0.00000e+00 -1.27968e-02
    -1
    -1
    55                                                                          
Mode 8                                                                          
EMA                                                                             
Acceleration shapes (Uz only)                                                   
LoadCase 1                                                                      
                                                                                
         1         2         2        12         2         3
         2         4         1         8
  5.96771e+01  0.00000e+00  0.00000e+00  0.00000e+00
         1
  0.00000e+00  0.00000e+00  4.92235e-01
         2
  0.00000e+00  0.00000e+00  4.90240e-01
         3
  0.00000e+00  0.00000e+00 -1.63352e-01
         4
  0.00000e+00  0.00000e+00  1.07409e-01
         5
  0.00000e+00  0.00000e+00 -2.92224e-01
         6
  0.00000e+00  0.00000e+00  3.67583e-01
         7
  0.00000e+00  0.00000e+00  1.05828e-01
         8
  0.00000e+00  0.00000e+00  4.28218e-01
         9
  0.00000e+00  0.00000e+00  1.15406e-01
        10
  0.00000e+00  0.00000e+00  2.23277e-01
        11
  0.00000e+00  0.00000e+00 -2.74857e-02
        12
  0.00000e+00  0.00000e+00 -1.18476e-02
    -1
