    -1
    15
         1         0         0         0      7.81760      4.63530      0.63576
         2         0         0         0      9.70720      4.63530      0.73676
         3         0         0         0      9.02168      4.53370      0.69505
         4         0         0         0      9.37747      4.53370      0.69810
         5         0         0         0      8.56214      3.82250      0.69839
         6         0         0         0      9.24877      3.82250      0.69834
         7         0         0         0      8.12068      3.06050      0.70675
         8         0         0         0      9.10008      3.06050      0.70036
         9         0         0         0      7.43669      2.01910      0.71479
        10         0         0         0      8.88655      1.99370      0.70320
        11         0         0         0      7.48304      1.08778      0.75700
        12         0         0         0      8.36919      1.08570      0.73723
    -1
    -1
    55                                                                          
Mode 1                                                                          
EMA                                                                             
Acceleration shapes (Uz only)                                                   
LoadCase 1                                                                      
                                                                                
         1         2         2        12         2         3
         2         4         1         1
  8.87345e+00  0.00000e+00  0.00000e+00  0.00000e+00
         1
  0.00000e+00  0.00000e+00  6.09783e-01
         2
  0.00000e+00  0.00000e+00  6.49829e-01
         3
  0.00000e+00  0.00000e+00  1.84252e-01
         4
  0.00000e+00  0.00000e+00  3.09492e-01
         5
  0.00000e+00  0.00000e+00  5.00400e-02
         6
  0.00000e+00  0.00000e+00  1.09525e-01
         7
  0.00000e+00  0.00000e+00  1.70195e-01
         8
  0.00000e+00  0.00000e+00  1.29082e-01
         9
  0.00000e+00  0.00000e+00  9.78151e-02
        10
  0.00000e+00  0.00000e+00  7.62917e-02
        11
  0.00000e+00  0.00000e+00 -2.46745e-02
        12
  0.00000e+00  0.00000e+00 -5.25439e-03
    -1
    -1
    55                                                                          
Mode 2                                                                          
EMA                                                                             
Acceleration shapes (Uz only)                                                   
LoadCase 1                                                                      
                                                                                
         1         2         2        12         2         3
         2         4         1         2
  1.13174e+01  0.00000e+00  0.00000e+00  0.00000e+00
         1
  0.00000e+00  0.00000e+00 -7.96470e-01
         2
  0.00000e+00  0.00000e+00 -5.57360e-01
         3
  0.00000e+00  0.00000e+00 -4.80560e-02
         4
  0.00000e+00  0.00000e+00 -1.73715e-01
         5
  0.00000e+00  0.00000e+00  7.47000e-02
         6
  0.00000e+00  0.00000e+00  3.57127e-02
         7
  0.00000e+00  0.00000e+00 -8.57467e-02
         8
  0.00000e+00  0.00000e+00 -3.29091e-02
         9
  0.00000e+00  0.00000e+00 -6.42975e-02
        10
  0.00000e+00  0.00000e+00 -3.06807e-02
        11
  0.00000e+00  0.00000e+00  4.16164e-02
        12
  0.00000e+00  0.00000e+00  2.00035e-02
    -1
    -1
    55                                                                          
Mode 3                                                                          
EMA                                                                             
Acceleration shapes (Uz only)                                                   
LoadCase 1                                                                      
                                                                                
         1         2         2        12         2         3
         2         4         1         3
  1.31409e+01  0.00000e+00  0.00000e+00  0.00000e+00
         1
  0.00000e+00  0.00000e+00 -3.63509e-01
         2
  0.00000e+00  0.00000e+00  6.86009e-01
         3
  0.00000e+00  0.00000e+00  2.88597e-01
         4
  0.00000e+00  0.00000e+00  4.46215e-01
         5
  0.00000e+00  0.00000e+00  1.90736e-01
         6
  0.00000e+00  0.00000e+00  2.21543e-01
         7
  0.00000e+00  0.00000e+00  6.88221e-02
         8
  0.00000e+00  0.00000e+00  1.44917e-01
         9
  0.00000e+00  0.00000e+00  2.06653e-02
        10
  0.00000e+00  0.00000e+00  5.66955e-02
        11
  0.00000e+00  0.00000e+00  2.30069e-03
        12
  0.00000e+00  0.00000e+00  3.43184e-03
    -1
    -1
    55                                                                          
Mode 4                                                                          
EMA                                                                             
Acceleration shapes (Uz only)                                                   
LoadCase 1                                                                      
                                                                                
         1         2         2        12         2         3
         2         4         1         4
  1.46131e+01  0.00000e+00  0.00000e+00  0.00000e+00
         1
  0.00000e+00  0.00000e+00 -3.22020e-01
         2
  0.00000e+00  0.00000e+00  6.63050e-01
         3
  0.00000e+00  0.00000e+00  3.57178e-01
         4
  0.00000e+00  0.00000e+00  4.85530e-01
         5
  0.00000e+00  0.00000e+00  1.34073e-01
         6
  0.00000e+00  0.00000e+00  2.44584e-01
         7
  0.00000e+00  0.00000e+00  3.71198e-02
         8
  0.00000e+00  0.00000e+00  1.02875e-01
         9
  0.00000e+00  0.00000e+00 -3.36167e-02
        10
  0.00000e+00  0.00000e+00  7.37863e-03
        11
  0.00000e+00  0.00000e+00 -3.61798e-02
        12
  0.00000e+00  0.00000e+00 -3.31661e-02
    -1
    -1
    55                                                                          
Mode 5                                                                          
EMA                                                                             
Acceleration shapes (Uz only)                                                   
LoadCase 1                                                                      
                                                                                
         1         2         2        12         2         3
         2         4         1         5
  1.67056e+01  0.00000e+00  0.00000e+00  0.00000e+00
         1
  0.00000e+00  0.00000e+00  9.10568e-02
         2
  0.00000e+00  0.00000e+00 -7.78714e-01
         3
  0.00000e+00  0.00000e+00 -3.12564e-01
         4
  0.00000e+00  0.00000e+00 -4.85815e-01
         5
  0.00000e+00  0.00000e+00  7.56035e-02
         6
  0.00000e+00  0.00000e+00 -1.71592e-01
         7
  0.00000e+00  0.00000e+00 -8.56625e-03
         8
  0.00000e+00  0.00000e+00 -3.37276e-02
         9
  0.00000e+00  0.00000e+00  5.32542e-02
        10
  0.00000e+00  0.00000e+00  2.86652e-02
        11
  0.00000e+00  0.00000e+00  8.63237e-02
        12
  0.00000e+00  0.00000e+00  6.41892e-02
    -1
    -1
    55                                                                          
Mode 6                                                                          
EMA                                                                             
Acceleration shapes (Uz only)                                                   
LoadCase 1                                                                      
                                                                                
         1         2         2        12         2         3
         2         4         1         6
  1.85063e+01  0.00000e+00  0.00000e+00  0.00000e+00
         1
  0.00000e+00  0.00000e+00 -2.45705e-01
         2
  0.00000e+00  0.00000e+00 -8.69372e-01
         3
  0.00000e+00  0.00000e+00 -1.07114e-01
         4
  0.00000e+00  0.00000e+00 -3.35827e-01
         5
  0.00000e+00  0.00000e+00  2.28892e-01
         6
  0.00000e+00  0.00000e+00  2.31428e-03
         7
  0.00000e+00  0.00000e+00 -2.18014e-02
         8
  0.00000e+00  0.00000e+00  9.04263e-03
         9
  0.00000e+00  0.00000e+00 -4.63359e-02
        10
  0.00000e+00  0.00000e+00 -9.39952e-03
        11
  0.00000e+00  0.00000e+00  5.79049e-02
        12
  0.00000e+00  0.00000e+00  3.20159e-02
    -1
    -1
    55                                                                          
Mode 7                                                                          
EMA                                                                             
Acceleration shapes (Uz only)                                                   
LoadCase 1                                                                      
                                                                                
         1         2         2        12         2         3
         2         4         1         7
  2.39583e+01  0.00000e+00  0.00000e+00  0.00000e+00
         1
  0.00000e+00  0.00000e+00 -3.16553e-01
         2
  0.00000e+00  0.00000e+00 -7.69263e-01
         3
  0.00000e+00  0.00000e+00 -2.33950e-01
         4
  0.00000e+00  0.00000e+00 -4.12269e-01
         5
  0.00000e+00  0.00000e+00  1.02677e-01
         6
  0.00000e+00  0.00000e+00  5.23252e-02
         7
  0.00000e+00  0.00000e+00  2.09502e-01
         8
  0.00000e+00  0.00000e+00  1.15150e-01
         9
  0.00000e+00  0.00000e+00  8.85265e-02
        10
  0.00000e+00  0.00000e+00  6.33505e-02
        11
  0.00000e+00  0.00000e+00  2.36938e-02
        12
  0.00000e+00  0.00000e+00  2.20737e-02
    -1
    -1
    55                                                                          
Mode 8                                                                          
EMA                                                                             
Acceleration shapes (Uz only)                                                   
LoadCase 1                                                                      
                                                                                
         1         2         2        12         2         3
         2         4         1         8
  2.83385e+01  0.00000e+00  0.00000e+00  0.00000e+00
         1
  0.00000e+00  0.00000e+00  5.43747e-01
         2
  0.00000e+00  0.00000e+00  6.78333e-01
         3
  0.00000e+00  0.00000e+00  1.65125e-01
         4
  0.00000e+00  0.00000e+00  2.91035e-01
         5
  0.00000e+00  0.00000e+00 -1.88867e-01
         6
  0.00000e+00  0.00000e+00 -1.67284e-01
         7
  0.00000e+00  0.00000e+00 -1.87914e-01
         8
  0.00000e+00  0.00000e+00 -1.73761e-01
         9
  0.00000e+00  0.00000e+00  5.50112e-03
        10
  0.00000e+00  0.00000e+00 -4.22762e-02
        11
  0.00000e+00  0.00000e+00  2.84612e-02
        12
  0.00000e+00  0.00000e+00  2.11862e-02
    -1
    -1
    55                                                                          
Mode 9                                                                          
EMA                                                                             
Acceleration shapes (Uz only)                                                   
LoadCase 1                                                                      
                                                                                
         1         2         2        12         2         3
         2         4         1         9
  3.12738e+01  0.00000e+00  0.00000e+00  0.00000e+00
         1
  0.00000e+00  0.00000e+00  5.36026e-01
         2
  0.00000e+00  0.00000e+00  6.07233e-01
         3
  0.00000e+00  0.00000e+00  1.81560e-01
         4
  0.00000e+00  0.00000e+00  3.04096e-01
         5
  0.00000e+00  0.00000e+00 -1.32914e-01
         6
  0.00000e+00  0.00000e+00 -2.01532e-01
         7
  0.00000e+00  0.00000e+00 -3.25530e-01
         8
  0.00000e+00  0.00000e+00 -1.98995e-01
         9
  0.00000e+00  0.00000e+00 -4.42990e-02
        10
  0.00000e+00  0.00000e+00 -2.31535e-02
        11
  0.00000e+00  0.00000e+00  7.90778e-02
        12
  0.00000e+00  0.00000e+00  7.68382e-02
    -1
    -1
    55                                                                          
Mode 10                                                                         
EMA                                                                             
Acceleration shapes (Uz only)                                                   
LoadCase 1                                                                      
                                                                                
         1         2         2        12         2         3
         2         4         1        10
  3.43289e+01  0.00000e+00  0.00000e+00  0.00000e+00
         1
  0.00000e+00  0.00000e+00  1.70619e-01
         2
  0.00000e+00  0.00000e+00 -7.49705e-01
         3
  0.00000e+00  0.00000e+00 -2.75642e-01
         4
  0.00000e+00  0.00000e+00 -4.42088e-01
         5
  0.00000e+00  0.00000e+00  1.80410e-01
         6
  0.00000e+00  0.00000e+00  2.92635e-02
         7
  0.00000e+00  0.00000e+00  2.64082e-01
         8
  0.00000e+00  0.00000e+00  1.51683e-01
         9
  0.00000e+00  0.00000e+00  7.72448e-02
        10
  0.00000e+00  0.00000e+00  3.62491e-02
        11
  0.00000e+00  0.00000e+00 -4.14851e-02
        12
  0.00000e+00  0.00000e+00 -4.75297e-02
    -1
    -1
    55                                                                          
Mode 11                                                                         
EMA                                                                             
Acceleration shapes (Uz only)                                                   
LoadCase 1                                                                      
                                                                                
         1         2         2        12         2         3
         2         4         1        11
  3.90652e+01  0.00000e+00  0.00000e+00  0.00000e+00
         1
  0.00000e+00  0.00000e+00  1.45219e-01
         2
  0.00000e+00  0.00000e+00  8.23445e-01
         3
  0.00000e+00  0.00000e+00 -1.81908e-01
         4
  0.00000e+00  0.00000e+00  1.34605e-01
         5
  0.00000e+00  0.00000e+00 -3.39151e-01
         6
  0.00000e+00  0.00000e+00 -1.97017e-02
         7
  0.00000e+00  0.00000e+00  1.31398e-01
         8
  0.00000e+00  0.00000e+00  1.14698e-01
         9
  0.00000e+00  0.00000e+00  2.82926e-01
        10
  0.00000e+00  0.00000e+00  1.52929e-01
        11
  0.00000e+00  0.00000e+00  1.70016e-02
        12
  0.00000e+00  0.00000e+00  9.17982e-03
    -1
    -1
    55                                                                          
Mode 12                                                                         
EMA                                                                             
Acceleration shapes (Uz only)                                                   
LoadCase 1                                                                      
                                                                                
         1         2         2        12         2         3
         2         4         1        12
  4.57316e+01  0.00000e+00  0.00000e+00  0.00000e+00
         1
  0.00000e+00  0.00000e+00 -4.70827e-01
         2
  0.00000e+00  0.00000e+00 -6.59651e-01
         3
  0.00000e+00  0.00000e+00  3.44992e-02
         4
  0.00000e+00  0.00000e+00 -2.06451e-01
         5
  0.00000e+00  0.00000e+00  3.96541e-01
         6
  0.00000e+00  0.00000e+00 -7.16803e-02
         7
  0.00000e+00  0.00000e+00  2.11807e-01
         8
  0.00000e+00  0.00000e+00 -1.42112e-01
         9
  0.00000e+00  0.00000e+00 -1.22171e-01
        10
  0.00000e+00  0.00000e+00 -2.07163e-01
        11
  0.00000e+00  0.00000e+00 -9.58342e-02
        12
  0.00000e+00  0.00000e+00 -7.00287e-02
    -1
    -1
    55                                                                          
Mode 13                                                                         
EMA                                                                             
Acceleration shapes (Uz only)                                                   
LoadCase 1                                                                      
                                                                                
         1         2         2        12         2         3
         2         4         1        13
  5.00431e+01  0.00000e+00  0.00000e+00  0.00000e+00
         1
  0.00000e+00  0.00000e+00  2.52840e-01
         2
  0.00000e+00  0.00000e+00  7.49812e-01
         3
  0.00000e+00  0.00000e+00  8.41619e-02
         4
  0.00000e+00  0.00000e+00  3.12825e-01
         5
  0.00000e+00  0.00000e+00 -3.34227e-01
         6
  0.00000e+00  0.00000e+00 -9.01311e-02
         7
  0.00000e+00  0.00000e+00 -2.22649e-01
         8
  0.00000e+00  0.00000e+00 -5.07265e-02
         9
  0.00000e+00  0.00000e+00  2.13756e-01
        10
  0.00000e+00  0.00000e+00  1.18293e-01
        11
  0.00000e+00  0.00000e+00  1.68646e-01
        12
  0.00000e+00  0.00000e+00  9.38483e-02
    -1
    -1
    55                                                                          
Mode 14                                                                         
EMA                                                                             
Acceleration shapes (Uz only)                                                   
LoadCase 1                                                                      
                                                                                
         1         2         2        12         2         3
         2         4         1        14
  6.13217e+01  0.00000e+00  0.00000e+00  0.00000e+00
         1
  0.00000e+00  0.00000e+00 -1.04264e-01
         2
  0.00000e+00  0.00000e+00 -8.19656e-01
         3
  0.00000e+00  0.00000e+00 -7.14680e-02
         4
  0.00000e+00  0.00000e+00 -2.48315e-01
         5
  0.00000e+00  0.00000e+00  2.25551e-01
         6
  0.00000e+00  0.00000e+00  2.97947e-01
         7
  0.00000e+00  0.00000e+00 -2.65034e-02
         8
  0.00000e+00  0.00000e+00  1.53111e-01
         9
  0.00000e+00  0.00000e+00 -2.86437e-01
        10
  0.00000e+00  0.00000e+00 -5.80507e-02
        11
  0.00000e+00  0.00000e+00 -3.34123e-02
        12
  0.00000e+00  0.00000e+00 -1.42019e-02
    -1
