    -1
    15
         1         0         0         0      7.81760     -4.63530      0.63576
         2         0         0         0      9.70720     -4.63530      0.73676
         3         0         0         0      9.02168     -4.53370      0.69505
         4         0         0         0      9.37747     -4.53370      0.69810
         5         0         0         0      8.56214     -3.82250      0.69839
         6         0         0         0      9.24877     -3.82250      0.69834
         7         0         0         0      8.12068     -3.06050      0.70675
         8         0         0         0      9.10008     -3.06050      0.70036
         9         0         0         0      7.43669     -2.01910      0.71479
        10         0         0         0      8.88655     -1.99370      0.70320
        11         0         0         0      7.48304     -1.08778      0.75700
        12         0         0         0      8.36919     -1.08570      0.73723
    -1
    -1
    55                                                                          
Mode 1                                                                          
EMA                                                                             
Acceleration shapes (Uz only)                                                   
LoadCase 1                                                                      
                                                                                
         1         2         2        12         2         3
         2         4         1         1
  8.87378e+00  0.00000e+00  0.00000e+00  0.00000e+00
         1
  0.00000e+00  0.00000e+00 -5.77321e-01
         2
  0.00000e+00  0.00000e+00 -7.27723e-01
         3
  0.00000e+00  0.00000e+00 -1.35296e-01
         4
  0.00000e+00  0.00000e+00 -2.78859e-01
         5
  0.00000e+00  0.00000e+00  1.17909e-01
         6
  0.00000e+00  0.00000e+00 -1.02037e-02
         7
  0.00000e+00  0.00000e+00 -1.48386e-01
         8
  0.00000e+00  0.00000e+00 -2.92273e-03
         9
  0.00000e+00  0.00000e+00 -6.05782e-02
        10
  0.00000e+00  0.00000e+00  1.46031e-02
        11
  0.00000e+00  0.00000e+00  2.49444e-02
        12
  0.00000e+00  0.00000e+00  2.26707e-02
    -1
    -1
    55                                                                          
Mode 2                                                                          
EMA                                                                             
Acceleration shapes (Uz only)                                                   
LoadCase 1                                                                      
                                                                                
         1         2         2        12         2         3
         2         4         1         2
  1.13178e+01  0.00000e+00  0.00000e+00  0.00000e+00
         1
  0.00000e+00  0.00000e+00 -7.66446e-01
         2
  0.00000e+00  0.00000e+00 -5.88658e-01
         3
  0.00000e+00  0.00000e+00 -7.92763e-02
         4
  0.00000e+00  0.00000e+00 -1.84298e-01
         5
  0.00000e+00  0.00000e+00  7.44583e-02
         6
  0.00000e+00  0.00000e+00  7.97835e-02
         7
  0.00000e+00  0.00000e+00 -8.48072e-02
         8
  0.00000e+00  0.00000e+00  5.03102e-02
         9
  0.00000e+00  0.00000e+00 -3.46308e-02
        10
  0.00000e+00  0.00000e+00  4.18636e-02
        11
  0.00000e+00  0.00000e+00  2.10299e-02
        12
  0.00000e+00  0.00000e+00  2.76441e-02
    -1
    -1
    55                                                                          
Mode 3                                                                          
EMA                                                                             
Acceleration shapes (Uz only)                                                   
LoadCase 1                                                                      
                                                                                
         1         2         2        12         2         3
         2         4         1         3
  1.31606e+01  0.00000e+00  0.00000e+00  0.00000e+00
         1
  0.00000e+00  0.00000e+00  8.22800e-02
         2
  0.00000e+00  0.00000e+00  8.98911e-01
         3
  0.00000e+00  0.00000e+00  1.22806e-01
         4
  0.00000e+00  0.00000e+00  3.45190e-01
         5
  0.00000e+00  0.00000e+00 -1.79946e-01
         6
  0.00000e+00  0.00000e+00  2.16362e-02
         7
  0.00000e+00  0.00000e+00  1.16241e-01
         8
  0.00000e+00  0.00000e+00 -2.87227e-03
         9
  0.00000e+00  0.00000e+00  5.29951e-02
        10
  0.00000e+00  0.00000e+00 -1.35574e-02
        11
  0.00000e+00  0.00000e+00 -3.12517e-02
        12
  0.00000e+00  0.00000e+00 -2.47591e-02
    -1
    -1
    55                                                                          
Mode 4                                                                          
EMA                                                                             
Acceleration shapes (Uz only)                                                   
LoadCase 1                                                                      
                                                                                
         1         2         2        12         2         3
         2         4         1         4
  1.44989e+01  0.00000e+00  0.00000e+00  0.00000e+00
         1
  0.00000e+00  0.00000e+00 -2.69649e-01
         2
  0.00000e+00  0.00000e+00  6.43322e-01
         3
  0.00000e+00  0.00000e+00  3.86788e-01
         4
  0.00000e+00  0.00000e+00  4.99005e-01
         5
  0.00000e+00  0.00000e+00  1.56231e-01
         6
  0.00000e+00  0.00000e+00  2.68207e-01
         7
  0.00000e+00  0.00000e+00  3.72325e-02
         8
  0.00000e+00  0.00000e+00  1.09132e-01
         9
  0.00000e+00  0.00000e+00 -4.47819e-02
        10
  0.00000e+00  0.00000e+00 -7.06344e-04
        11
  0.00000e+00  0.00000e+00 -4.20375e-02
        12
  0.00000e+00  0.00000e+00 -3.74477e-02
    -1
    -1
    55                                                                          
Mode 5                                                                          
EMA                                                                             
Acceleration shapes (Uz only)                                                   
LoadCase 1                                                                      
                                                                                
         1         2         2        12         2         3
         2         4         1         5
  1.67071e+01  0.00000e+00  0.00000e+00  0.00000e+00
         1
  0.00000e+00  0.00000e+00  1.90921e-01
         2
  0.00000e+00  0.00000e+00  8.27837e-01
         3
  0.00000e+00  0.00000e+00  2.03200e-01
         4
  0.00000e+00  0.00000e+00  3.90409e-01
         5
  0.00000e+00  0.00000e+00 -2.50189e-01
         6
  0.00000e+00  0.00000e+00  3.51398e-02
         7
  0.00000e+00  0.00000e+00  5.38766e-03
         8
  0.00000e+00  0.00000e+00 -6.22600e-02
         9
  0.00000e+00  0.00000e+00 -4.57729e-02
        10
  0.00000e+00  0.00000e+00 -6.39237e-02
        11
  0.00000e+00  0.00000e+00 -8.29451e-02
        12
  0.00000e+00  0.00000e+00 -6.10724e-02
    -1
    -1
    55                                                                          
Mode 6                                                                          
EMA                                                                             
Acceleration shapes (Uz only)                                                   
LoadCase 1                                                                      
                                                                                
         1         2         2        12         2         3
         2         4         1         6
  1.86267e+01  0.00000e+00  0.00000e+00  0.00000e+00
         1
  0.00000e+00  0.00000e+00  2.63839e-01
         2
  0.00000e+00  0.00000e+00  8.79003e-01
         3
  0.00000e+00  0.00000e+00  9.00411e-02
         4
  0.00000e+00  0.00000e+00  2.96875e-01
         5
  0.00000e+00  0.00000e+00 -2.05765e-01
         6
  0.00000e+00  0.00000e+00 -8.19321e-02
         7
  0.00000e+00  0.00000e+00  3.05780e-02
         8
  0.00000e+00  0.00000e+00 -8.25960e-02
         9
  0.00000e+00  0.00000e+00  2.86279e-02
        10
  0.00000e+00  0.00000e+00 -4.22082e-02
        11
  0.00000e+00  0.00000e+00 -3.58915e-02
        12
  0.00000e+00  0.00000e+00 -2.83172e-02
    -1
    -1
    55                                                                          
Mode 7                                                                          
EMA                                                                             
Acceleration shapes (Uz only)                                                   
LoadCase 1                                                                      
                                                                                
         1         2         2        12         2         3
         2         4         1         7
  2.39369e+01  0.00000e+00  0.00000e+00  0.00000e+00
         1
  0.00000e+00  0.00000e+00 -5.88762e-02
         2
  0.00000e+00  0.00000e+00 -8.16608e-01
         3
  0.00000e+00  0.00000e+00 -2.62181e-01
         4
  0.00000e+00  0.00000e+00 -4.57274e-01
         5
  0.00000e+00  0.00000e+00  3.82109e-02
         6
  0.00000e+00  0.00000e+00 -4.02869e-03
         7
  0.00000e+00  0.00000e+00  1.53894e-01
         8
  0.00000e+00  0.00000e+00  9.87034e-02
         9
  0.00000e+00  0.00000e+00  8.55757e-02
        10
  0.00000e+00  0.00000e+00  8.38587e-02
        11
  0.00000e+00  0.00000e+00  3.41606e-02
        12
  0.00000e+00  0.00000e+00  3.77121e-02
    -1
    -1
    55                                                                          
Mode 8                                                                          
EMA                                                                             
Acceleration shapes (Uz only)                                                   
LoadCase 1                                                                      
                                                                                
         1         2         2        12         2         3
         2         4         1         8
  3.15346e+01  0.00000e+00  0.00000e+00  0.00000e+00
         1
  0.00000e+00  0.00000e+00 -3.76419e-01
         2
  0.00000e+00  0.00000e+00  8.16092e-01
         3
  0.00000e+00  0.00000e+00 -1.56133e-03
         4
  0.00000e+00  0.00000e+00  2.91365e-01
         5
  0.00000e+00  0.00000e+00 -3.13318e-01
         6
  0.00000e+00  0.00000e+00 -1.68511e-03
         7
  0.00000e+00  0.00000e+00 -4.95397e-02
         8
  0.00000e+00  0.00000e+00 -2.25952e-02
         9
  0.00000e+00  0.00000e+00  6.15260e-02
        10
  0.00000e+00  0.00000e+00  3.85126e-02
        11
  0.00000e+00  0.00000e+00  1.96434e-02
        12
  0.00000e+00  0.00000e+00  2.48124e-02
    -1
    -1
    55                                                                          
Mode 9                                                                          
EMA                                                                             
Acceleration shapes (Uz only)                                                   
LoadCase 1                                                                      
                                                                                
         1         2         2        12         2         3
         2         4         1         9
  3.44629e+01  0.00000e+00  0.00000e+00  0.00000e+00
         1
  0.00000e+00  0.00000e+00 -2.60351e-01
         2
  0.00000e+00  0.00000e+00  6.99192e-01
         3
  0.00000e+00  0.00000e+00  3.19758e-01
         4
  0.00000e+00  0.00000e+00  4.58993e-01
         5
  0.00000e+00  0.00000e+00 -1.37017e-01
         6
  0.00000e+00  0.00000e+00 -4.43976e-03
         7
  0.00000e+00  0.00000e+00 -2.62339e-01
         8
  0.00000e+00  0.00000e+00 -1.72802e-01
         9
  0.00000e+00  0.00000e+00 -8.12156e-02
        10
  0.00000e+00  0.00000e+00 -6.21414e-02
        11
  0.00000e+00  0.00000e+00  3.43965e-02
        12
  0.00000e+00  0.00000e+00  3.62248e-02
    -1
    -1
    55                                                                          
Mode 10                                                                         
EMA                                                                             
Acceleration shapes (Uz only)                                                   
LoadCase 1                                                                      
                                                                                
         1         2         2        12         2         3
         2         4         1        10
  4.24323e+01  0.00000e+00  0.00000e+00  0.00000e+00
         1
  0.00000e+00  0.00000e+00  8.15461e-01
         2
  0.00000e+00  0.00000e+00  3.01510e-01
         3
  0.00000e+00  0.00000e+00 -4.78934e-02
         4
  0.00000e+00  0.00000e+00  2.43992e-02
         5
  0.00000e+00  0.00000e+00 -1.86794e-01
         6
  0.00000e+00  0.00000e+00  9.52299e-02
         7
  0.00000e+00  0.00000e+00 -2.77613e-01
         8
  0.00000e+00  0.00000e+00  2.49810e-01
         9
  0.00000e+00  0.00000e+00 -3.50585e-02
        10
  0.00000e+00  0.00000e+00  2.31406e-01
        11
  0.00000e+00  0.00000e+00  3.46507e-02
        12
  0.00000e+00  0.00000e+00  4.25788e-02
    -1
    -1
    55                                                                          
Mode 11                                                                         
EMA                                                                             
Acceleration shapes (Uz only)                                                   
LoadCase 1                                                                      
                                                                                
         1         2         2        12         2         3
         2         4         1        11
  4.72329e+01  0.00000e+00  0.00000e+00  0.00000e+00
         1
  0.00000e+00  0.00000e+00  2.19424e-01
         2
  0.00000e+00  0.00000e+00  7.80165e-01
         3
  0.00000e+00  0.00000e+00  1.26555e-01
         4
  0.00000e+00  0.00000e+00  3.16473e-01
         5
  0.00000e+00  0.00000e+00 -2.49523e-01
         6
  0.00000e+00  0.00000e+00 -2.06971e-01
         7
  0.00000e+00  0.00000e+00 -1.45511e-01
         8
  0.00000e+00  0.00000e+00 -1.65944e-01
         9
  0.00000e+00  0.00000e+00  2.23149e-01
        10
  0.00000e+00  0.00000e+00  5.24874e-02
        11
  0.00000e+00  0.00000e+00  1.24140e-01
        12
  0.00000e+00  0.00000e+00  7.24842e-02
    -1
    -1
    55                                                                          
Mode 12                                                                         
EMA                                                                             
Acceleration shapes (Uz only)                                                   
LoadCase 1                                                                      
                                                                                
         1         2         2        12         2         3
         2         4         1        12
  4.99906e+01  0.00000e+00  0.00000e+00  0.00000e+00
         1
  0.00000e+00  0.00000e+00  1.71248e-01
         2
  0.00000e+00  0.00000e+00  7.48910e-01
         3
  0.00000e+00  0.00000e+00  1.59098e-01
         4
  0.00000e+00  0.00000e+00  3.32727e-01
         5
  0.00000e+00  0.00000e+00 -2.68657e-01
         6
  0.00000e+00  0.00000e+00 -2.04547e-01
         7
  0.00000e+00  0.00000e+00 -1.85608e-01
         8
  0.00000e+00  0.00000e+00 -1.77660e-01
         9
  0.00000e+00  0.00000e+00  2.44119e-01
        10
  0.00000e+00  0.00000e+00  6.12957e-02
        11
  0.00000e+00  0.00000e+00  1.50207e-01
        12
  0.00000e+00  0.00000e+00  8.85775e-02
    -1
    -1
    55                                                                          
Mode 13                                                                         
EMA                                                                             
Acceleration shapes (Uz only)                                                   
LoadCase 1                                                                      
                                                                                
         1         2         2        12         2         3
         2         4         1        13
  5.78903e+01  0.00000e+00  0.00000e+00  0.00000e+00
         1
  0.00000e+00  0.00000e+00 -1.38809e-01
         2
  0.00000e+00  0.00000e+00  4.70186e-01
         3
  0.00000e+00  0.00000e+00  1.92894e-01
         4
  0.00000e+00  0.00000e+00  1.51138e-01
         5
  0.00000e+00  0.00000e+00  4.69747e-02
         6
  0.00000e+00  0.00000e+00 -5.93521e-01
         7
  0.00000e+00  0.00000e+00  5.52717e-02
         8
  0.00000e+00  0.00000e+00 -4.79023e-01
         9
  0.00000e+00  0.00000e+00  2.88829e-01
        10
  0.00000e+00  0.00000e+00 -1.62938e-01
        11
  0.00000e+00  0.00000e+00  2.22994e-02
        12
  0.00000e+00  0.00000e+00 -4.63385e-02
    -1
    -1
    55                                                                          
Mode 14                                                                         
EMA                                                                             
Acceleration shapes (Uz only)                                                   
LoadCase 1                                                                      
                                                                                
         1         2         2        12         2         3
         2         4         1        14
  6.34097e+01  0.00000e+00  0.00000e+00  0.00000e+00
         1
  0.00000e+00  0.00000e+00  4.41125e-01
         2
  0.00000e+00  0.00000e+00  7.48668e-01
         3
  0.00000e+00  0.00000e+00 -1.06708e-01
         4
  0.00000e+00  0.00000e+00  2.01130e-01
         5
  0.00000e+00  0.00000e+00 -2.09009e-01
         6
  0.00000e+00  0.00000e+00  1.81794e-01
         7
  0.00000e+00  0.00000e+00  2.17020e-02
         8
  0.00000e+00  0.00000e+00  2.50438e-01
         9
  0.00000e+00  0.00000e+00  1.32106e-01
        10
  0.00000e+00  0.00000e+00  1.86180e-01
        11
  0.00000e+00  0.00000e+00 -1.55244e-02
        12
  0.00000e+00  0.00000e+00  2.80359e-02
    -1
