    -1
    15
         1         0         0         0      7.81760     -4.63530      0.63576
         2         0         0         0      9.70720     -4.63530      0.73676
         3         0         0         0      9.02168     -4.53370      0.69505
         4         0         0         0      9.37747     -4.53370      0.69810
         5         0         0         0      8.56214     -3.82250      0.69839
         6         0         0         0      9.24877     -3.82250      0.69834
         7         0         0         0      8.12068     -3.06050      0.70675
         8         0         0         0      9.10008     -3.06050      0.70036
         9         0         0         0      7.43669     -2.01910      0.71479
        10         0         0         0      8.88655     -1.99370      0.70320
        11         0         0         0      7.48304     -1.08778      0.75700
        12         0         0         0      8.36919     -1.08570      0.73723
        13         0         0         0      7.81760      4.63530      0.63576
        14         0         0         0      9.70720      4.63530      0.73676
        15         0         0         0      9.02168      4.53370      0.69505
        16         0         0         0      9.37747      4.53370      0.69810
        17         0         0         0      8.56214      3.82250      0.69839
        18         0         0         0      9.24877      3.82250      0.69834
        19         0         0         0      8.12068      3.06050      0.70675
        20         0         0         0      9.10008      3.06050      0.70036
        21         0         0         0      7.43669      2.01910      0.71479
        22         0         0         0      8.88655      1.99370      0.70320
        23         0         0         0      7.48304      1.08778      0.75700
        24         0         0         0      8.36919      1.08570      0.73723
    -1
    -1
    55                                                                          
Mode 1                                                                          
EMA                                                                             
Acceleration shapes (Uz only)                                                   
LoadCase 1                                                                      
                                                                                
         1         2         2        12         2         3
         2         4         1         1
  8.83052e+00  0.00000e+00  0.00000e+00  0.00000e+00
         1
  0.00000e+00  0.00000e+00  5.23962e-01
         2
  0.00000e+00  0.00000e+00  2.33186e-01
         3
  0.00000e+00  0.00000e+00  2.80653e-01
         4
  0.00000e+00  0.00000e+00  2.51950e-01
         5
  0.00000e+00  0.00000e+00  1.68537e-01
         6
  0.00000e+00  0.00000e+00  1.57316e-01
         7
  0.00000e+00  0.00000e+00  7.89189e-02
         8
  0.00000e+00  0.00000e+00  8.22674e-02
         9
  0.00000e+00  0.00000e+00  1.21033e-02
        10
  0.00000e+00  0.00000e+00  1.93552e-02
        11
  0.00000e+00  0.00000e+00 -7.82592e-03
        12
  0.00000e+00  0.00000e+00 -7.36677e-03
        13
  0.00000e+00  0.00000e+00  4.75736e-01
        14
  0.00000e+00  0.00000e+00  2.29501e-01
        15
  0.00000e+00  0.00000e+00  2.61479e-01
        16
  0.00000e+00  0.00000e+00  2.36990e-01
        17
  0.00000e+00  0.00000e+00  1.57212e-01
        18
  0.00000e+00  0.00000e+00  1.46583e-01
        19
  0.00000e+00  0.00000e+00  7.30066e-02
        20
  0.00000e+00  0.00000e+00  7.89955e-02
        21
  0.00000e+00  0.00000e+00  1.18783e-02
        22
  0.00000e+00  0.00000e+00  2.26581e-02
        23
  0.00000e+00  0.00000e+00 -7.16631e-03
        24
  0.00000e+00  0.00000e+00 -6.95738e-03
    -1
    -1
    55                                                                          
Mode 2                                                                          
EMA                                                                             
Acceleration shapes (Uz only)                                                   
LoadCase 1                                                                      
                                                                                
         1         2         2        12         2         3
         2         4         1         2
  1.13138e+01  0.00000e+00  0.00000e+00  0.00000e+00
         1
  0.00000e+00  0.00000e+00  3.72478e-01
         2
  0.00000e+00  0.00000e+00  5.12022e-01
         3
  0.00000e+00  0.00000e+00 -3.74815e-03
         4
  0.00000e+00  0.00000e+00  1.58703e-01
         5
  0.00000e+00  0.00000e+00 -1.92716e-01
         6
  0.00000e+00  0.00000e+00  1.52890e-02
         7
  0.00000e+00  0.00000e+00  4.09923e-02
         8
  0.00000e+00  0.00000e+00  4.14634e-02
         9
  0.00000e+00  0.00000e+00  1.74240e-01
        10
  0.00000e+00  0.00000e+00  5.48623e-02
        11
  0.00000e+00  0.00000e+00 -3.14039e-03
        12
  0.00000e+00  0.00000e+00 -6.98973e-03
        13
  0.00000e+00  0.00000e+00  2.24601e-01
        14
  0.00000e+00  0.00000e+00  5.70565e-01
        15
  0.00000e+00  0.00000e+00  3.04748e-02
        16
  0.00000e+00  0.00000e+00  1.92188e-01
        17
  0.00000e+00  0.00000e+00 -2.06955e-01
        18
  0.00000e+00  0.00000e+00 -5.43435e-02
        19
  0.00000e+00  0.00000e+00  4.77352e-02
        20
  0.00000e+00  0.00000e+00 -1.69731e-02
        21
  0.00000e+00  0.00000e+00  1.90315e-01
        22
  0.00000e+00  0.00000e+00  3.05074e-02
        23
  0.00000e+00  0.00000e+00  1.13306e-02
        24
  0.00000e+00  0.00000e+00 -1.44233e-02
    -1
    -1
    55                                                                          
Mode 3                                                                          
EMA                                                                             
Acceleration shapes (Uz only)                                                   
LoadCase 1                                                                      
                                                                                
         1         2         2        12         2         3
         2         4         1         3
  1.31267e+01  0.00000e+00  0.00000e+00  0.00000e+00
         1
  0.00000e+00  0.00000e+00 -3.91033e-01
         2
  0.00000e+00  0.00000e+00  3.97618e-01
         3
  0.00000e+00  0.00000e+00  1.96000e-01
         4
  0.00000e+00  0.00000e+00  2.86370e-01
         5
  0.00000e+00  0.00000e+00  1.05986e-01
         6
  0.00000e+00  0.00000e+00  1.80453e-01
         7
  0.00000e+00  0.00000e+00  6.49395e-02
         8
  0.00000e+00  0.00000e+00  1.05532e-01
         9
  0.00000e+00  0.00000e+00  2.04521e-02
        10
  0.00000e+00  0.00000e+00  3.86429e-02
        11
  0.00000e+00  0.00000e+00  4.99865e-03
        12
  0.00000e+00  0.00000e+00  4.77516e-03
        13
  0.00000e+00  0.00000e+00 -4.44268e-01
        14
  0.00000e+00  0.00000e+00  3.87440e-01
        15
  0.00000e+00  0.00000e+00  1.76076e-01
        16
  0.00000e+00  0.00000e+00  2.73639e-01
        17
  0.00000e+00  0.00000e+00  9.80262e-02
        18
  0.00000e+00  0.00000e+00  1.69512e-01
        19
  0.00000e+00  0.00000e+00  5.87670e-02
        20
  0.00000e+00  0.00000e+00  1.00661e-01
        21
  0.00000e+00  0.00000e+00  2.09701e-02
        22
  0.00000e+00  0.00000e+00  4.07775e-02
        23
  0.00000e+00  0.00000e+00  5.48109e-03
        24
  0.00000e+00  0.00000e+00  5.69087e-03
    -1
    -1
    55                                                                          
Mode 4                                                                          
EMA                                                                             
Acceleration shapes (Uz only)                                                   
LoadCase 1                                                                      
                                                                                
         1         2         2        12         2         3
         2         4         1         4
  1.44974e+01  0.00000e+00  0.00000e+00  0.00000e+00
         1
  0.00000e+00  0.00000e+00  3.58659e-01
         2
  0.00000e+00  0.00000e+00  4.68546e-01
         3
  0.00000e+00  0.00000e+00 -2.77119e-02
         4
  0.00000e+00  0.00000e+00  1.24673e-01
         5
  0.00000e+00  0.00000e+00 -2.04944e-01
         6
  0.00000e+00  0.00000e+00 -1.96861e-02
         7
  0.00000e+00  0.00000e+00  2.59037e-02
         8
  0.00000e+00  0.00000e+00  1.88587e-02
         9
  0.00000e+00  0.00000e+00  1.74521e-01
        10
  0.00000e+00  0.00000e+00  5.00716e-02
        11
  0.00000e+00  0.00000e+00  3.76856e-03
        12
  0.00000e+00  0.00000e+00 -1.03278e-03
        13
  0.00000e+00  0.00000e+00  2.62025e-01
        14
  0.00000e+00  0.00000e+00  5.99652e-01
        15
  0.00000e+00  0.00000e+00  5.38469e-02
        16
  0.00000e+00  0.00000e+00  2.14477e-01
        17
  0.00000e+00  0.00000e+00 -2.05490e-01
        18
  0.00000e+00  0.00000e+00 -5.96380e-02
        19
  0.00000e+00  0.00000e+00  3.28294e-02
        20
  0.00000e+00  0.00000e+00 -2.70383e-02
        21
  0.00000e+00  0.00000e+00  1.82630e-01
        22
  0.00000e+00  0.00000e+00  2.65957e-02
        23
  0.00000e+00  0.00000e+00  1.22307e-02
        24
  0.00000e+00  0.00000e+00 -1.33936e-02
    -1
    -1
    55                                                                          
Mode 5                                                                          
EMA                                                                             
Acceleration shapes (Uz only)                                                   
LoadCase 1                                                                      
                                                                                
         1         2         2        12         2         3
         2         4         1         5
  1.50996e+01  0.00000e+00  0.00000e+00  0.00000e+00
         1
  0.00000e+00  0.00000e+00 -1.91253e-01
         2
  0.00000e+00  0.00000e+00 -5.26966e-01
         3
  0.00000e+00  0.00000e+00 -1.06986e-01
         4
  0.00000e+00  0.00000e+00 -2.44239e-01
         5
  0.00000e+00  0.00000e+00  1.11282e-01
         6
  0.00000e+00  0.00000e+00 -6.32652e-02
         7
  0.00000e+00  0.00000e+00 -5.08705e-03
         8
  0.00000e+00  0.00000e+00 -3.34844e-02
         9
  0.00000e+00  0.00000e+00 -6.58965e-02
        10
  0.00000e+00  0.00000e+00 -1.52624e-02
        11
  0.00000e+00  0.00000e+00  5.55282e-02
        12
  0.00000e+00  0.00000e+00  4.50640e-02
        13
  0.00000e+00  0.00000e+00 -1.19534e-01
        14
  0.00000e+00  0.00000e+00 -6.43333e-01
        15
  0.00000e+00  0.00000e+00 -1.73657e-01
        16
  0.00000e+00  0.00000e+00 -3.24077e-01
        17
  0.00000e+00  0.00000e+00  1.07849e-01
        18
  0.00000e+00  0.00000e+00 -4.32319e-02
        19
  0.00000e+00  0.00000e+00 -5.97660e-03
        20
  0.00000e+00  0.00000e+00 -2.52848e-03
        21
  0.00000e+00  0.00000e+00 -6.83484e-02
        22
  0.00000e+00  0.00000e+00  1.23435e-03
        23
  0.00000e+00  0.00000e+00  5.26437e-02
        24
  0.00000e+00  0.00000e+00  5.54327e-02
    -1
    -1
    55                                                                          
Mode 6                                                                          
EMA                                                                             
Acceleration shapes (Uz only)                                                   
LoadCase 1                                                                      
                                                                                
         1         2         2        12         2         3
         2         4         1         6
  2.77913e+01  0.00000e+00  0.00000e+00  0.00000e+00
         1
  0.00000e+00  0.00000e+00 -1.69801e-01
         2
  0.00000e+00  0.00000e+00 -4.43123e-01
         3
  0.00000e+00  0.00000e+00 -2.59324e-01
         4
  0.00000e+00  0.00000e+00 -3.10118e-01
         5
  0.00000e+00  0.00000e+00  6.50506e-02
         6
  0.00000e+00  0.00000e+00  7.61276e-02
         7
  0.00000e+00  0.00000e+00  2.03597e-01
         8
  0.00000e+00  0.00000e+00  1.95116e-01
         9
  0.00000e+00  0.00000e+00  8.27403e-02
        10
  0.00000e+00  0.00000e+00  1.18159e-01
        11
  0.00000e+00  0.00000e+00  6.82886e-03
        12
  0.00000e+00  0.00000e+00  2.58756e-02
        13
  0.00000e+00  0.00000e+00 -1.84199e-01
        14
  0.00000e+00  0.00000e+00 -4.65382e-01
        15
  0.00000e+00  0.00000e+00 -2.52869e-01
        16
  0.00000e+00  0.00000e+00 -3.01688e-01
        17
  0.00000e+00  0.00000e+00  7.83273e-02
        18
  0.00000e+00  0.00000e+00  8.38722e-02
        19
  0.00000e+00  0.00000e+00  1.84633e-01
        20
  0.00000e+00  0.00000e+00  1.75745e-01
        21
  0.00000e+00  0.00000e+00  7.41580e-02
        22
  0.00000e+00  0.00000e+00  1.03072e-01
        23
  0.00000e+00  0.00000e+00 -3.06567e-04
        24
  0.00000e+00  0.00000e+00  2.40254e-02
    -1
    -1
    55                                                                          
Mode 7                                                                          
EMA                                                                             
Acceleration shapes (Uz only)                                                   
LoadCase 1                                                                      
                                                                                
         1         2         2        12         2         3
         2         4         1         7
  3.11728e+01  0.00000e+00  0.00000e+00  0.00000e+00
         1
  0.00000e+00  0.00000e+00 -1.03507e-01
         2
  0.00000e+00  0.00000e+00  5.21360e-01
         3
  0.00000e+00  0.00000e+00  2.42526e-01
         4
  0.00000e+00  0.00000e+00  3.42995e-01
         5
  0.00000e+00  0.00000e+00 -1.00231e-01
         6
  0.00000e+00  0.00000e+00 -2.17537e-02
         7
  0.00000e+00  0.00000e+00 -2.25938e-01
         8
  0.00000e+00  0.00000e+00 -1.49196e-01
         9
  0.00000e+00  0.00000e+00 -1.08466e-01
        10
  0.00000e+00  0.00000e+00 -6.56122e-02
        11
  0.00000e+00  0.00000e+00  1.31930e-02
        12
  0.00000e+00  0.00000e+00  2.24777e-02
        13
  0.00000e+00  0.00000e+00 -8.21651e-02
        14
  0.00000e+00  0.00000e+00  4.67946e-01
        15
  0.00000e+00  0.00000e+00  2.05338e-01
        16
  0.00000e+00  0.00000e+00  3.00106e-01
        17
  0.00000e+00  0.00000e+00 -1.03789e-01
        18
  0.00000e+00  0.00000e+00 -2.18903e-02
        19
  0.00000e+00  0.00000e+00 -2.05445e-01
        20
  0.00000e+00  0.00000e+00 -1.19865e-01
        21
  0.00000e+00  0.00000e+00 -1.06226e-01
        22
  0.00000e+00  0.00000e+00 -5.09446e-02
        23
  0.00000e+00  0.00000e+00  1.46993e-02
        24
  0.00000e+00  0.00000e+00  2.35638e-02
    -1
    -1
    55                                                                          
Mode 8                                                                          
EMA                                                                             
Acceleration shapes (Uz only)                                                   
LoadCase 1                                                                      
                                                                                
         1         2         2        12         2         3
         2         4         1         8
  3.62748e+01  0.00000e+00  0.00000e+00  0.00000e+00
         1
  0.00000e+00  0.00000e+00  1.04754e-01
         2
  0.00000e+00  0.00000e+00 -6.30091e-01
         3
  0.00000e+00  0.00000e+00 -5.60389e-02
         4
  0.00000e+00  0.00000e+00 -2.72705e-01
         5
  0.00000e+00  0.00000e+00  2.74337e-01
         6
  0.00000e+00  0.00000e+00 -9.86507e-02
         7
  0.00000e+00  0.00000e+00  1.39369e-02
         8
  0.00000e+00  0.00000e+00 -4.77859e-02
         9
  0.00000e+00  0.00000e+00 -7.07486e-02
        10
  0.00000e+00  0.00000e+00 -4.30718e-02
        11
  0.00000e+00  0.00000e+00  3.43209e-02
        12
  0.00000e+00  0.00000e+00  2.72389e-02
        13
  0.00000e+00  0.00000e+00  1.88390e-01
        14
  0.00000e+00  0.00000e+00 -5.24648e-01
        15
  0.00000e+00  0.00000e+00 -4.74790e-02
        16
  0.00000e+00  0.00000e+00 -2.14332e-01
        17
  0.00000e+00  0.00000e+00  1.99048e-01
        18
  0.00000e+00  0.00000e+00 -5.65418e-02
        19
  0.00000e+00  0.00000e+00 -5.03032e-02
        20
  0.00000e+00  0.00000e+00 -1.13619e-02
        21
  0.00000e+00  0.00000e+00 -1.00068e-01
        22
  0.00000e+00  0.00000e+00 -1.08719e-02
        23
  0.00000e+00  0.00000e+00  4.26385e-02
        24
  0.00000e+00  0.00000e+00  4.34346e-02
    -1
    -1
    55                                                                          
Mode 9                                                                          
EMA                                                                             
Acceleration shapes (Uz only)                                                   
LoadCase 1                                                                      
                                                                                
         1         2         2        12         2         3
         2         4         1         9
  4.44884e+01  0.00000e+00  0.00000e+00  0.00000e+00
         1
  0.00000e+00  0.00000e+00 -1.47510e-01
         2
  0.00000e+00  0.00000e+00  4.25324e-01
         3
  0.00000e+00  0.00000e+00  3.68424e-02
         4
  0.00000e+00  0.00000e+00  1.50151e-01
         5
  0.00000e+00  0.00000e+00 -1.15668e-01
         6
  0.00000e+00  0.00000e+00 -9.39735e-02
         7
  0.00000e+00  0.00000e+00  1.34457e-01
         8
  0.00000e+00  0.00000e+00 -1.02124e-01
         9
  0.00000e+00  0.00000e+00  1.64312e-01
        10
  0.00000e+00  0.00000e+00 -2.72507e-02
        11
  0.00000e+00  0.00000e+00 -1.99157e-02
        12
  0.00000e+00  0.00000e+00 -1.68759e-02
        13
  0.00000e+00  0.00000e+00 -2.54531e-01
        14
  0.00000e+00  0.00000e+00  5.87711e-01
        15
  0.00000e+00  0.00000e+00  1.18352e-01
        16
  0.00000e+00  0.00000e+00  2.35996e-01
        17
  0.00000e+00  0.00000e+00 -1.26401e-01
        18
  0.00000e+00  0.00000e+00 -2.27552e-01
        19
  0.00000e+00  0.00000e+00  1.45930e-01
        20
  0.00000e+00  0.00000e+00 -2.45058e-01
        21
  0.00000e+00  0.00000e+00  2.34804e-01
        22
  0.00000e+00  0.00000e+00 -9.84414e-02
        23
  0.00000e+00  0.00000e+00  8.26546e-03
        24
  0.00000e+00  0.00000e+00 -2.01926e-02
    -1
    -1
    55                                                                          
Mode 10                                                                         
EMA                                                                             
Acceleration shapes (Uz only)                                                   
LoadCase 1                                                                      
                                                                                
         1         2         2        12         2         3
         2         4         1        10
  6.68807e+01  0.00000e+00  0.00000e+00  0.00000e+00
         1
  0.00000e+00  0.00000e+00  2.57601e-01
         2
  0.00000e+00  0.00000e+00  5.08166e-01
         3
  0.00000e+00  0.00000e+00 -5.00879e-02
         4
  0.00000e+00  0.00000e+00  1.52657e-01
         5
  0.00000e+00  0.00000e+00 -2.05555e-01
         6
  0.00000e+00  0.00000e+00  1.14193e-01
         7
  0.00000e+00  0.00000e+00  1.56980e-02
         8
  0.00000e+00  0.00000e+00  1.16814e-01
         9
  0.00000e+00  0.00000e+00  1.35573e-01
        10
  0.00000e+00  0.00000e+00  6.50663e-02
        11
  0.00000e+00  0.00000e+00 -1.13870e-02
        12
  0.00000e+00  0.00000e+00 -1.56406e-02
        13
  0.00000e+00  0.00000e+00  3.44414e-01
        14
  0.00000e+00  0.00000e+00  4.95161e-01
        15
  0.00000e+00  0.00000e+00 -9.80278e-02
        16
  0.00000e+00  0.00000e+00  1.47850e-01
        17
  0.00000e+00  0.00000e+00 -2.32400e-01
        18
  0.00000e+00  0.00000e+00  2.35073e-01
        19
  0.00000e+00  0.00000e+00 -4.99071e-03
        20
  0.00000e+00  0.00000e+00  1.80469e-01
        21
  0.00000e+00  0.00000e+00  1.29644e-01
        22
  0.00000e+00  0.00000e+00  5.59338e-02
        23
  0.00000e+00  0.00000e+00 -4.65406e-03
        24
  0.00000e+00  0.00000e+00 -1.81079e-02
    -1
