    -1
    15
         1         0         0         0      7.81760     -4.63530      0.63576
         2         0         0         0      9.70720     -4.63530      0.73676
         3         0         0         0      9.02168     -4.53370      0.69505
         4         0         0         0      9.37747     -4.53370      0.69810
         5         0         0         0      8.56214     -3.82250      0.69839
         6         0         0         0      9.24877     -3.82250      0.69834
         7         0         0         0      8.12068     -3.06050      0.70675
         8         0         0         0      9.10008     -3.06050      0.70036
         9         0         0         0      7.43669     -2.01910      0.71479
        10         0         0         0      8.88655     -1.99370      0.70320
        11         0         0         0      7.48304     -1.08778      0.75700
        12         0         0         0      8.36919     -1.08570      0.73723
        13         0         0         0      7.81760      4.63530      0.63576
        14         0         0         0      9.70720      4.63530      0.73676
        15         0         0         0      9.02168      4.53370      0.69505
        16         0         0         0      9.37747      4.53370      0.69810
        17         0         0         0      8.56214      3.82250      0.69839
        18         0         0         0      9.24877      3.82250      0.69834
        19         0         0         0      8.12068      3.06050      0.70675
        20         0         0         0      9.10008      3.06050      0.70036
        21         0         0         0      7.43669      2.01910      0.71479
        22         0         0         0      8.88655      1.99370      0.70320
        23         0         0         0      7.48304      1.08778      0.75700
        24         0         0         0      8.36919      1.08570      0.73723
    -1
    -1
    55                                                                          
Mode 1                                                                          
EMA                                                                             
Acceleration shapes (Uz only)                                                   
LoadCase 1                                                                      
                                                                                
         1         2         2        12         2         3
         2         4         1         1
  8.76722e+00  0.00000e+00  0.00000e+00  0.00000e+00
         1
  0.00000e+00  0.00000e+00 -1.80926e-01
         2
  0.00000e+00  0.00000e+00  8.85036e-01
         3
  0.00000e+00  0.00000e+00 -5.88202e-02
         4
  0.00000e+00  0.00000e+00  2.28243e-01
         5
  0.00000e+00  0.00000e+00  1.13251e-01
         6
  0.00000e+00  0.00000e+00 -1.21130e-01
         7
  0.00000e+00  0.00000e+00  1.44320e-01
         8
  0.00000e+00  0.00000e+00 -2.08652e-01
         9
  0.00000e+00  0.00000e+00 -3.48673e-02
        10
  0.00000e+00  0.00000e+00 -1.37541e-01
        11
  0.00000e+00  0.00000e+00 -2.71781e-02
        12
  0.00000e+00  0.00000e+00 -2.82434e-02
        13
  0.00000e+00  0.00000e+00 -9.53551e-02
        14
  0.00000e+00  0.00000e+00  3.51664e-02
        15
  0.00000e+00  0.00000e+00  2.71697e-02
        16
  0.00000e+00  0.00000e+00  3.74850e-02
        17
  0.00000e+00  0.00000e+00  2.99529e-02
        18
  0.00000e+00  0.00000e+00  2.51437e-02
        19
  0.00000e+00  0.00000e+00  4.55544e-03
        20
  0.00000e+00  0.00000e+00  1.59669e-02
        21
  0.00000e+00  0.00000e+00 -1.14225e-03
        22
  0.00000e+00  0.00000e+00  1.80975e-02
        23
  0.00000e+00  0.00000e+00  1.13060e-02
        24
  0.00000e+00  0.00000e+00  1.25506e-02
    -1
    -1
    55                                                                          
Mode 2                                                                          
EMA                                                                             
Acceleration shapes (Uz only)                                                   
LoadCase 1                                                                      
                                                                                
         1         2         2        12         2         3
         2         4         1         2
  1.05943e+01  0.00000e+00  0.00000e+00  0.00000e+00
         1
  0.00000e+00  0.00000e+00 -2.20804e-01
         2
  0.00000e+00  0.00000e+00  8.80330e-01
         3
  0.00000e+00  0.00000e+00 -8.58711e-02
         4
  0.00000e+00  0.00000e+00  2.10310e-01
         5
  0.00000e+00  0.00000e+00  8.43740e-02
         6
  0.00000e+00  0.00000e+00 -1.31402e-01
         7
  0.00000e+00  0.00000e+00  1.32801e-01
         8
  0.00000e+00  0.00000e+00 -2.10461e-01
         9
  0.00000e+00  0.00000e+00 -3.21108e-02
        10
  0.00000e+00  0.00000e+00 -1.34022e-01
        11
  0.00000e+00  0.00000e+00 -2.61633e-02
        12
  0.00000e+00  0.00000e+00 -2.72358e-02
        13
  0.00000e+00  0.00000e+00 -1.28932e-01
        14
  0.00000e+00  0.00000e+00  1.06852e-02
        15
  0.00000e+00  0.00000e+00  1.03837e-03
        16
  0.00000e+00  0.00000e+00  1.29450e-02
        17
  0.00000e+00  0.00000e+00  1.26275e-02
        18
  0.00000e+00  0.00000e+00  1.22612e-02
        19
  0.00000e+00  0.00000e+00 -3.47244e-03
        20
  0.00000e+00  0.00000e+00  1.03264e-02
        21
  0.00000e+00  0.00000e+00 -2.65026e-03
        22
  0.00000e+00  0.00000e+00  1.69627e-02
        23
  0.00000e+00  0.00000e+00  1.15620e-02
        24
  0.00000e+00  0.00000e+00  1.27624e-02
    -1
    -1
    55                                                                          
Mode 3                                                                          
EMA                                                                             
Acceleration shapes (Uz only)                                                   
LoadCase 1                                                                      
                                                                                
         1         2         2        12         2         3
         2         4         1         3
  1.29526e+01  0.00000e+00  0.00000e+00  0.00000e+00
         1
  0.00000e+00  0.00000e+00 -1.33229e-01
         2
  0.00000e+00  0.00000e+00  9.31163e-01
         3
  0.00000e+00  0.00000e+00 -6.79682e-02
         4
  0.00000e+00  0.00000e+00  2.44561e-01
         5
  0.00000e+00  0.00000e+00 -2.65918e-02
         6
  0.00000e+00  0.00000e+00 -9.20618e-02
         7
  0.00000e+00  0.00000e+00  8.65803e-02
         8
  0.00000e+00  0.00000e+00 -1.50236e-01
         9
  0.00000e+00  0.00000e+00  6.23776e-03
        10
  0.00000e+00  0.00000e+00 -8.04116e-02
        11
  0.00000e+00  0.00000e+00 -2.23923e-02
        12
  0.00000e+00  0.00000e+00 -2.39090e-02
        13
  0.00000e+00  0.00000e+00 -2.77890e-02
        14
  0.00000e+00  0.00000e+00 -1.72426e-03
        15
  0.00000e+00  0.00000e+00 -1.29605e-02
        16
  0.00000e+00  0.00000e+00 -2.24609e-03
        17
  0.00000e+00  0.00000e+00 -1.13412e-02
        18
  0.00000e+00  0.00000e+00  2.58688e-02
        19
  0.00000e+00  0.00000e+00 -1.06074e-02
        20
  0.00000e+00  0.00000e+00  3.27080e-02
        21
  0.00000e+00  0.00000e+00 -1.90276e-04
        22
  0.00000e+00  0.00000e+00  2.92116e-02
        23
  0.00000e+00  0.00000e+00  8.00577e-03
        24
  0.00000e+00  0.00000e+00  9.09632e-03
    -1
    -1
    55                                                                          
Mode 4                                                                          
EMA                                                                             
Acceleration shapes (Uz only)                                                   
LoadCase 1                                                                      
                                                                                
         1         2         2        12         2         3
         2         4         1         4
  1.49644e+01  0.00000e+00  0.00000e+00  0.00000e+00
         1
  0.00000e+00  0.00000e+00 -1.70447e-01
         2
  0.00000e+00  0.00000e+00  9.26010e-01
         3
  0.00000e+00  0.00000e+00 -5.65263e-02
         4
  0.00000e+00  0.00000e+00  2.52588e-01
         5
  0.00000e+00  0.00000e+00 -3.55230e-02
         6
  0.00000e+00  0.00000e+00 -8.48025e-02
         7
  0.00000e+00  0.00000e+00  8.21670e-02
         8
  0.00000e+00  0.00000e+00 -1.39740e-01
         9
  0.00000e+00  0.00000e+00  1.38784e-02
        10
  0.00000e+00  0.00000e+00 -7.12991e-02
        11
  0.00000e+00  0.00000e+00 -2.09071e-02
        12
  0.00000e+00  0.00000e+00 -2.26522e-02
        13
  0.00000e+00  0.00000e+00 -3.07162e-02
        14
  0.00000e+00  0.00000e+00  7.08176e-03
        15
  0.00000e+00  0.00000e+00 -1.55362e-02
        16
  0.00000e+00  0.00000e+00  9.95821e-06
        17
  0.00000e+00  0.00000e+00 -1.53705e-02
        18
  0.00000e+00  0.00000e+00  3.29230e-02
        19
  0.00000e+00  0.00000e+00 -1.12769e-02
        20
  0.00000e+00  0.00000e+00  3.99994e-02
        21
  0.00000e+00  0.00000e+00  6.21899e-04
        22
  0.00000e+00  0.00000e+00  3.28723e-02
        23
  0.00000e+00  0.00000e+00  7.63397e-03
        24
  0.00000e+00  0.00000e+00  8.81235e-03
    -1
    -1
    55                                                                          
Mode 5                                                                          
EMA                                                                             
Acceleration shapes (Uz only)                                                   
LoadCase 1                                                                      
                                                                                
         1         2         2        12         2         3
         2         4         1         5
  2.12380e+01  0.00000e+00  0.00000e+00  0.00000e+00
         1
  0.00000e+00  0.00000e+00 -8.20223e-01
         2
  0.00000e+00  0.00000e+00  4.39519e-01
         3
  0.00000e+00  0.00000e+00  8.04531e-02
         4
  0.00000e+00  0.00000e+00  2.50619e-01
         5
  0.00000e+00  0.00000e+00 -1.19693e-03
         6
  0.00000e+00  0.00000e+00  1.97388e-01
         7
  0.00000e+00  0.00000e+00  6.04235e-03
         8
  0.00000e+00  0.00000e+00  1.38932e-01
         9
  0.00000e+00  0.00000e+00  7.69217e-03
        10
  0.00000e+00  0.00000e+00  5.82043e-02
        11
  0.00000e+00  0.00000e+00 -5.39051e-03
        12
  0.00000e+00  0.00000e+00 -1.38685e-05
        13
  0.00000e+00  0.00000e+00  2.61526e-02
        14
  0.00000e+00  0.00000e+00 -3.32344e-02
        15
  0.00000e+00  0.00000e+00 -1.79292e-02
        16
  0.00000e+00  0.00000e+00 -2.41566e-02
        17
  0.00000e+00  0.00000e+00 -2.00238e-03
        18
  0.00000e+00  0.00000e+00 -3.79975e-03
        19
  0.00000e+00  0.00000e+00  9.75432e-03
        20
  0.00000e+00  0.00000e+00  6.26136e-03
        21
  0.00000e+00  0.00000e+00  1.06623e-02
        22
  0.00000e+00  0.00000e+00  5.69857e-03
        23
  0.00000e+00  0.00000e+00  1.96453e-03
        24
  0.00000e+00  0.00000e+00  1.25404e-03
    -1
    -1
    55                                                                          
Mode 6                                                                          
EMA                                                                             
Acceleration shapes (Uz only)                                                   
LoadCase 1                                                                      
                                                                                
         1         2         2        12         2         3
         2         4         1         6
  2.36759e+01  0.00000e+00  0.00000e+00  0.00000e+00
         1
  0.00000e+00  0.00000e+00 -7.84124e-01
         2
  0.00000e+00  0.00000e+00  3.09775e-01
         3
  0.00000e+00  0.00000e+00  4.59403e-02
         4
  0.00000e+00  0.00000e+00  1.89478e-01
         5
  0.00000e+00  0.00000e+00 -5.09496e-04
         6
  0.00000e+00  0.00000e+00  2.04129e-01
         7
  0.00000e+00  0.00000e+00 -1.18454e-03
         8
  0.00000e+00  0.00000e+00  1.56819e-01
         9
  0.00000e+00  0.00000e+00  1.87230e-05
        10
  0.00000e+00  0.00000e+00  6.37640e-02
        11
  0.00000e+00  0.00000e+00 -4.13443e-03
        12
  0.00000e+00  0.00000e+00  1.51987e-03
        13
  0.00000e+00  0.00000e+00 -3.95208e-01
        14
  0.00000e+00  0.00000e+00  1.13090e-01
        15
  0.00000e+00  0.00000e+00 -1.55308e-02
        16
  0.00000e+00  0.00000e+00  4.99843e-02
        17
  0.00000e+00  0.00000e+00  2.17007e-02
        18
  0.00000e+00  0.00000e+00  6.13804e-02
        19
  0.00000e+00  0.00000e+00  3.35551e-02
        20
  0.00000e+00  0.00000e+00  5.29803e-02
        21
  0.00000e+00  0.00000e+00  1.79575e-02
        22
  0.00000e+00  0.00000e+00  2.45232e-02
        23
  0.00000e+00  0.00000e+00  1.81155e-03
        24
  0.00000e+00  0.00000e+00  3.59543e-03
    -1
    -1
    55                                                                          
Mode 7                                                                          
EMA                                                                             
Acceleration shapes (Uz only)                                                   
LoadCase 1                                                                      
                                                                                
         1         2         2        12         2         3
         2         4         1         7
  2.59632e+01  0.00000e+00  0.00000e+00  0.00000e+00
         1
  0.00000e+00  0.00000e+00 -8.59358e-01
         2
  0.00000e+00  0.00000e+00  2.52177e-01
         3
  0.00000e+00  0.00000e+00  2.41544e-03
         4
  0.00000e+00  0.00000e+00  1.37688e-01
         5
  0.00000e+00  0.00000e+00  5.76551e-02
         6
  0.00000e+00  0.00000e+00  1.66083e-01
         7
  0.00000e+00  0.00000e+00  3.94454e-02
         8
  0.00000e+00  0.00000e+00  1.27870e-01
         9
  0.00000e+00  0.00000e+00 -7.45108e-03
        10
  0.00000e+00  0.00000e+00  4.60769e-02
        11
  0.00000e+00  0.00000e+00 -3.55476e-03
        12
  0.00000e+00  0.00000e+00  3.90392e-03
        13
  0.00000e+00  0.00000e+00 -3.37655e-01
        14
  0.00000e+00  0.00000e+00  4.23042e-02
        15
  0.00000e+00  0.00000e+00 -4.22407e-02
        16
  0.00000e+00  0.00000e+00  5.76270e-03
        17
  0.00000e+00  0.00000e+00  2.99546e-02
        18
  0.00000e+00  0.00000e+00  5.36817e-02
        19
  0.00000e+00  0.00000e+00  4.25277e-02
        20
  0.00000e+00  0.00000e+00  5.73044e-02
        21
  0.00000e+00  0.00000e+00  2.01753e-02
        22
  0.00000e+00  0.00000e+00  3.05295e-02
        23
  0.00000e+00  0.00000e+00  4.46478e-03
        24
  0.00000e+00  0.00000e+00  8.78543e-03
    -1
    -1
    55                                                                          
Mode 8                                                                          
EMA                                                                             
Acceleration shapes (Uz only)                                                   
LoadCase 1                                                                      
                                                                                
         1         2         2        12         2         3
         2         4         1         8
  3.17293e+01  0.00000e+00  0.00000e+00  0.00000e+00
         1
  0.00000e+00  0.00000e+00 -6.35599e-01
         2
  0.00000e+00  0.00000e+00  6.90205e-01
         3
  0.00000e+00  0.00000e+00  6.33262e-02
         4
  0.00000e+00  0.00000e+00  2.99756e-01
         5
  0.00000e+00  0.00000e+00 -4.72896e-02
         6
  0.00000e+00  0.00000e+00  6.54861e-02
         7
  0.00000e+00  0.00000e+00 -3.47682e-02
         8
  0.00000e+00  0.00000e+00 -7.44800e-03
         9
  0.00000e+00  0.00000e+00 -2.39149e-02
        10
  0.00000e+00  0.00000e+00 -1.98520e-03
        11
  0.00000e+00  0.00000e+00 -9.27734e-03
        12
  0.00000e+00  0.00000e+00 -7.51439e-03
        13
  0.00000e+00  0.00000e+00  9.65145e-03
        14
  0.00000e+00  0.00000e+00  8.38362e-02
        15
  0.00000e+00  0.00000e+00  1.57158e-02
        16
  0.00000e+00  0.00000e+00  4.41836e-02
        17
  0.00000e+00  0.00000e+00 -4.67116e-02
        18
  0.00000e+00  0.00000e+00  3.67654e-02
        19
  0.00000e+00  0.00000e+00 -5.15439e-02
        20
  0.00000e+00  0.00000e+00  2.58128e-02
        21
  0.00000e+00  0.00000e+00 -2.31021e-02
        22
  0.00000e+00  0.00000e+00  2.22034e-02
        23
  0.00000e+00  0.00000e+00  2.59496e-03
        24
  0.00000e+00  0.00000e+00  6.99006e-03
    -1
    -1
    55                                                                          
Mode 9                                                                          
EMA                                                                             
Acceleration shapes (Uz only)                                                   
LoadCase 1                                                                      
                                                                                
         1         2         2        12         2         3
         2         4         1         9
  3.40126e+01  0.00000e+00  0.00000e+00  0.00000e+00
         1
  0.00000e+00  0.00000e+00 -5.70288e-01
         2
  0.00000e+00  0.00000e+00  6.65939e-01
         3
  0.00000e+00  0.00000e+00  2.77310e-02
         4
  0.00000e+00  0.00000e+00  2.66012e-01
         5
  0.00000e+00  0.00000e+00 -5.01108e-02
         6
  0.00000e+00  0.00000e+00  6.47607e-02
         7
  0.00000e+00  0.00000e+00 -2.44264e-02
         8
  0.00000e+00  0.00000e+00  9.47505e-03
         9
  0.00000e+00  0.00000e+00 -2.08106e-02
        10
  0.00000e+00  0.00000e+00  1.15402e-02
        11
  0.00000e+00  0.00000e+00 -1.05986e-02
        12
  0.00000e+00  0.00000e+00 -8.63212e-03
        13
  0.00000e+00  0.00000e+00  3.14712e-01
        14
  0.00000e+00  0.00000e+00 -2.00172e-01
        15
  0.00000e+00  0.00000e+00 -2.21645e-02
        16
  0.00000e+00  0.00000e+00 -1.03382e-01
        17
  0.00000e+00  0.00000e+00 -9.03953e-03
        18
  0.00000e+00  0.00000e+00 -2.88541e-02
        19
  0.00000e+00  0.00000e+00 -3.79325e-03
        20
  0.00000e+00  0.00000e+00  6.92900e-03
        21
  0.00000e+00  0.00000e+00  3.61620e-03
        22
  0.00000e+00  0.00000e+00  1.67215e-02
        23
  0.00000e+00  0.00000e+00  5.16069e-03
        24
  0.00000e+00  0.00000e+00  5.77617e-03
    -1
