    -1
   151
Unknown                                                                         
Unknown                                                                         
NX: Advanced Simulation                                                         
Unknown   Unknown            0         0         0
Unknown   Unknown   
NX: Correlation                                                                 
24-NOV-25   23:38:50 2412    1    0    0    0
    -1
    -1
   164
         1Meter (newton)               2
  1.00000000000000000D+00  1.00000000000000000D+00  1.00000000000000000D+00
  2.73149999999999977D+02
    -1
    -1
  2400
          13     7    -1           0
Fem1                                                                            
                                                                                
 0 0 0 0 0 0 0 0 0 0 0 0 0 0 0 0 0 0 0 0 0 0 0 0 0 0 0 0 0 0 0 0
24-NOV-25   23:38:50           0           0           0
           0
    -1
    -1
  2420
         1
Part1
         1         0         2
CS1
   1.0000000000000000D+00   0.0000000000000000D+00   0.0000000000000000D+00
   0.0000000000000000D+00   1.0000000000000000D+00   0.0000000000000000D+00
   0.0000000000000000D+00   0.0000000000000000D+00   1.0000000000000000D+00
   0.0000000000000000D+00   0.0000000000000000D+00   0.0000000000000000D+00
    -1
    -1
  2411
    121464         1         1        11
   7.7633977539062498D+00  -4.6349501953125003D+00   5.9896598510742183D-01
    121479         1         1        11
   9.7662650634765633D+00  -4.6349501953125003D+00   7.0601349334716790D-01
    126150         1         1        11
   7.4909513882562253D+00  -1.0741667407773539D+00   7.4128540321371361D-01
    127032         1         1        11
   8.3861453033007329D+00  -1.0920785407841458D+00   7.2874391085275392D-01
    129813         1         1        11
   8.5656689347244654D+00  -3.8111213984168755D+00   6.9914563100762928D-01
    130039         1         1        11
   9.0211216883366543D+00  -4.5241315656325600D+00   6.9534800882421632D-01
    130066         1         1        11
   9.2332402546547243D+00  -3.8177943888344319D+00   6.9910134570535176D-01
    130937         1         1        11
   9.3928190460087997D+00  -4.5197577996729503D+00   6.9750946620827758D-01
    131560         1         1        11
   8.1099279676167271D+00  -3.0434831234195618D+00   7.0689627574046965D-01
    131964         1         1        11
   9.0998983367384891D+00  -3.0465422571204837D+00   7.0021699626639800D-01
    159845         1         1        11
   7.4487767072902997D+00  -2.0175918461390450D+00   7.1562637418263941D-01
    160320         1         1        11
   8.8802468252267932D+00  -1.9924144139216009D+00   7.0361227683766414D-01
    185255         1         1        11
   7.7633977539062498D+00   4.6349501953125003D+00   5.9896598510742183D-01
    185270         1         1        11
   9.7662650634765633D+00   4.6349501953125003D+00   7.0601349334716790D-01
    185574         1         1        11
   7.4909513882562253D+00   1.0741667407773539D+00   7.4128540321371361D-01
    185906         1         1        11
   8.3861453033007329D+00   1.0920785407841458D+00   7.2874391085275392D-01 
    187401         1         1        11
   8.5656689347244654D+00   3.8111213984168755D+00   6.9914563100762928D-01
    187627         1         1        11
   9.0211216883366543D+00   4.5241315656325600D+00   6.9534800882421632D-01
    187654         1         1        11
   9.2332402546547243D+00   3.8177943888344319D+00   6.9910134570535176D-01
    189148         1         1        11
   8.1099279676167271D+00   3.0434831234195618D+00   7.0689627574046965D-01
    189552         1         1        11
   9.0998983367384891D+00   3.0465422571204837D+00   7.0021699626639800D-01
    192710         1         1        11
   9.3927219559900177D+00   4.5191951370287216D+00   6.7276369575045269D-01
    193875         1         1        11
   7.4487767072902997D+00   2.0175918461390450D+00   7.1562637418263941D-01
    194350         1         1        11
   8.8802468252267932D+00   1.9924144139216009D+00   7.0361227683766414D-01
    -1
    -1
    82
         1         2         4
Uz                                                                              
    121464    129813
    -1
    -1
    82
         2         2         4
Uz                                                                              
    121464    130039
    -1
    -1
    82
         3         2         4
Uz                                                                              
    121464    131560
    -1
    -1
    82
         4         2         4
Uz                                                                              
    121479    130066
    -1
    -1
    82
         5         2         4
Uz                                                                              
    121479    130937
    -1
    -1
    82
         6         2         4
Uz                                                                              
    126150    127032
    -1
    -1
    82
         7         2         4
Uz                                                                              
    126150    159845
    -1
    -1
    82
         8         2         4
Uz                                                                              
    126150    160320
    -1
    -1
    82
         9         2         4
Uz                                                                              
    127032    159845
    -1
    -1
    82
        10         2         4
Uz                                                                              
    127032    160320
    -1
    -1
    82
        11         2         4
Uz                                                                              
    129813    130039
    -1
    -1
    82
        12         2         4
Uz                                                                              
    129813    130066
    -1
    -1
    82
        13         2         4
Uz                                                                              
    129813    131560
    -1
    -1
    82
        14         2         4
Uz                                                                              
    130039    130066
    -1
    -1
    82
        15         2         4
Uz                                                                              
    130039    130937
    -1
    -1
    82
        16         2         4
Uz                                                                              
    130066    131964
    -1
    -1
    82
        17         2         4
Uz                                                                              
    131560    131964
    -1
    -1
    82
        18         2         4
Uz                                                                              
    131560    159845
    -1
    -1
    82
        19         2         4
Uz                                                                              
    131964    160320
    -1
    -1
    82
        20         2         4
Uz                                                                              
    159845    160320
    -1
    -1
    82
        21         2         4
Uz                                                                              
    185255    187401
    -1
    -1
    82
        22         2         4
Uz                                                                              
    185255    187627
    -1
    -1
    82
        23         2         4
Uz                                                                              
    185255    189148
    -1
    -1
    82
        24         2         4
Uz                                                                              
    185270    187654
    -1
    -1
    82
        25         2         4
Uz                                                                              
    185270    192710
    -1
    -1
    82
        26         2         4
Uz                                                                              
    185574    185906
    -1
    -1
    82
        27         2         4
Uz                                                                              
    185574    193875
    -1
    -1
    82
        28         2         4
Uz                                                                              
    185574    194350
    -1
    -1
    82
        29         2         4
Uz                                                                              
    185906    193875
    -1
    -1
    82
        30         2         4
Uz                                                                              
    185906    194350
    -1
    -1
    82
        31         2         4
Uz                                                                              
    187401    187627
    -1
    -1
    82
        32         2         4
Uz                                                                              
    187401    187654
    -1
    -1
    82
        33         2         4
Uz                                                                              
    187401    189148
    -1
    -1
    82
        34         2         4
Uz                                                                              
    187627    187654
    -1
    -1
    82
        35         2         4
Uz                                                                              
    187627    192710
    -1
    -1
    82
        36         2         4
Uz                                                                              
    187654    189552
    -1
    -1
    82
        37         2         4
Uz                                                                              
    189148    189552
    -1
    -1
    82
        38         2         4
Uz                                                                              
    189148    193875
    -1
    -1
    82
        39         2         4
Uz                                                                              
    189552    194350
    -1
    -1
    82
        40         2         4
Uz                                                                              
    193875    194350
    -1
    -1
  2414
         1
Mode shape record 1
         1
NONE
NONE
NONE
NONE
NONE
         1         2         2         8         2         3
         0         0         1         0         0         1         0         0
         0         0
  0.00000E+00  8.41620E+00  0.00000E+00  1.00000E+00  0.00000E+00  0.00000E+00
  0.00000E+00  0.00000E+00  0.00000E+00  0.00000E+00  0.00000E+00  0.00000E+00
        121464
  0.00000e+00  0.00000e+00 -1.63183e-01
        121479
  0.00000e+00  0.00000e+00 -5.88485e-01
        130039
  0.00000e+00  0.00000e+00 -2.42557e-02
        130937
  0.00000e+00  0.00000e+00 -1.95952e-01
        129813
  0.00000e+00  0.00000e+00  1.97610e-01
        130066
  0.00000e+00  0.00000e+00  1.84218e-02
        131560
  0.00000e+00  0.00000e+00 -4.44895e-02
        131964
  0.00000e+00  0.00000e+00 -4.30262e-02
        159845
  0.00000e+00  0.00000e+00 -7.55453e-02
        160320
  0.00000e+00  0.00000e+00 -6.02726e-02
        126150
  0.00000e+00  0.00000e+00  2.13082e-02
        127032
  0.00000e+00  0.00000e+00  6.02805e-03
        185255
  0.00000e+00  0.00000e+00  2.88000e-01
        185270
  0.00000e+00  0.00000e+00  5.61085e-01
        187627
  0.00000e+00  0.00000e+00  4.52140e-02
        192710
  0.00000e+00  0.00000e+00  2.25048e-01
        187401
  0.00000e+00  0.00000e+00 -1.65412e-01
        187654
  0.00000e+00  0.00000e+00  1.42435e-01
        189148
  0.00000e+00  0.00000e+00  6.08206e-02
        189552
  0.00000e+00  0.00000e+00  1.38685e-01
        193875
  0.00000e+00  0.00000e+00  9.05449e-02
        194350
  0.00000e+00  0.00000e+00  6.05824e-02
        185574
  0.00000e+00  0.00000e+00 -4.35977e-02
        185906
  0.00000e+00  0.00000e+00 -1.47845e-02
    -1
    -1
  2414
         2
Mode shape record 2
         1
NONE
NONE
NONE
NONE
NONE
         1         2         2         8         2         3
         0         0         1         0         0         2         0         0
         0         0
  0.00000E+00  1.12061E+01  0.00000E+00  1.00000E+00  0.00000E+00  0.00000E+00
  0.00000E+00  0.00000E+00  0.00000E+00  0.00000E+00  0.00000E+00  0.00000E+00
        121464
  0.00000e+00  0.00000e+00  2.47916e-01
        121479
  0.00000e+00  0.00000e+00  6.20061e-01
        130039
  0.00000e+00  0.00000e+00  4.97266e-02
        130937
  0.00000e+00  0.00000e+00  2.19802e-01
        129813
  0.00000e+00  0.00000e+00 -1.94539e-01
        130066
  0.00000e+00  0.00000e+00 -1.80517e-02
        131560
  0.00000e+00  0.00000e+00  3.20125e-02
        131964
  0.00000e+00  0.00000e+00  4.09056e-02
        159845
  0.00000e+00  0.00000e+00  7.36985e-02
        160320
  0.00000e+00  0.00000e+00  6.18934e-02
        126150
  0.00000e+00  0.00000e+00 -2.41159e-02
        127032
  0.00000e+00  0.00000e+00 -6.30007e-03
        185255
  0.00000e+00  0.00000e+00 -2.84961e-01
        185270
  0.00000e+00  0.00000e+00 -5.15883e-01
        187627
  0.00000e+00  0.00000e+00 -1.43016e-03
        192710
  0.00000e+00  0.00000e+00 -1.78758e-01
        187401
  0.00000e+00  0.00000e+00  1.96428e-01
        187654
  0.00000e+00  0.00000e+00 -9.15876e-02
        189148
  0.00000e+00  0.00000e+00 -3.73114e-02
        189552
  0.00000e+00  0.00000e+00 -1.07895e-01
        193875
  0.00000e+00  0.00000e+00 -9.32819e-02
        194350
  0.00000e+00  0.00000e+00 -5.56129e-02
        185574
  0.00000e+00  0.00000e+00  3.62110e-02
        185906
  0.00000e+00  0.00000e+00  1.08612e-02
    -1
    -1
  2414
         3
Mode shape record 3
         1
NONE
NONE
NONE
NONE
NONE
         1         2         2         8         2         3
         0         0         1         0         0         3         0         0
         0         0
  0.00000E+00  1.26327E+01  0.00000E+00  1.00000E+00  0.00000E+00  0.00000E+00
  0.00000E+00  0.00000E+00  0.00000E+00  0.00000E+00  0.00000E+00  0.00000E+00
        121464
  0.00000e+00  0.00000e+00 -4.59431e-01
        121479
  0.00000e+00  0.00000e+00  4.65567e-01
        130039
  0.00000e+00  0.00000e+00  1.93104e-01
        130937
  0.00000e+00  0.00000e+00  3.12790e-01
        129813
  0.00000e+00  0.00000e+00  3.01426e-02
        130066
  0.00000e+00  0.00000e+00  1.80774e-01
        131560
  0.00000e+00  0.00000e+00  5.65385e-02
        131964
  0.00000e+00  0.00000e+00  8.05523e-02
        159845
  0.00000e+00  0.00000e+00  4.81094e-03
        160320
  0.00000e+00  0.00000e+00  1.54226e-02
        126150
  0.00000e+00  0.00000e+00 -1.70955e-02
        127032
  0.00000e+00  0.00000e+00 -9.89806e-03
        185255
  0.00000e+00  0.00000e+00 -5.21259e-01
        185270
  0.00000e+00  0.00000e+00  2.22559e-01
        187627
  0.00000e+00  0.00000e+00  9.05799e-02
        192710
  0.00000e+00  0.00000e+00  1.52930e-01
        187401
  0.00000e+00  0.00000e+00  1.31754e-01
        187654
  0.00000e+00  0.00000e+00  9.39011e-02
        189148
  0.00000e+00  0.00000e+00  4.86182e-02
        189552
  0.00000e+00  0.00000e+00  7.39617e-02
        193875
  0.00000e+00  0.00000e+00  3.87099e-02
        194350
  0.00000e+00  0.00000e+00  4.82459e-02
        185574
  0.00000e+00  0.00000e+00  3.76594e-02
        185906
  0.00000e+00  0.00000e+00  3.20781e-02
    -1
    -1
  2414
         4
Mode shape record 4
         1
NONE
NONE
NONE
NONE
NONE
         1         2         2         8         2         3
         0         0         1         0         0         4         0         0
         0         0
  0.00000E+00  1.40083E+01  0.00000E+00  1.00000E+00  0.00000E+00  0.00000E+00
  0.00000E+00  0.00000E+00  0.00000E+00  0.00000E+00  0.00000E+00  0.00000E+00
        121464
  0.00000e+00  0.00000e+00  1.58945e-01
        121479
  0.00000e+00  0.00000e+00 -4.22502e-01
        130039
  0.00000e+00  0.00000e+00 -2.45409e-01
        130937
  0.00000e+00  0.00000e+00 -3.22324e-01
        129813
  0.00000e+00  0.00000e+00 -7.91868e-02
        130066
  0.00000e+00  0.00000e+00 -1.64443e-01
        131560
  0.00000e+00  0.00000e+00 -2.98301e-03
        131964
  0.00000e+00  0.00000e+00 -5.01982e-02
        159845
  0.00000e+00  0.00000e+00  4.97459e-02
        160320
  0.00000e+00  0.00000e+00  2.13756e-02
        126150
  0.00000e+00  0.00000e+00  4.19246e-02
        127032
  0.00000e+00  0.00000e+00  3.53172e-02
        185255
  0.00000e+00  0.00000e+00 -3.32362e-01
        185270
  0.00000e+00  0.00000e+00  4.83659e-01
        187627
  0.00000e+00  0.00000e+00  2.51902e-01
        192710
  0.00000e+00  0.00000e+00  3.55552e-01
        187401
  0.00000e+00  0.00000e+00  9.89756e-02
        187654
  0.00000e+00  0.00000e+00  1.91112e-01
        189148
  0.00000e+00  0.00000e+00  2.66863e-02
        189552
  0.00000e+00  0.00000e+00  8.50982e-02
        193875
  0.00000e+00  0.00000e+00 -2.62255e-02
        194350
  0.00000e+00  0.00000e+00  8.22579e-03
        185574
  0.00000e+00  0.00000e+00 -2.33625e-02
        185906
  0.00000e+00  0.00000e+00 -2.22696e-02
    -1
    -1
  2414
         5
Mode shape record 5
         1
NONE
NONE
NONE
NONE
NONE
         1         2         2         8         2         3
         0         0         1         0         0         5         0         0
         0         0
  0.00000E+00  1.59223E+01  0.00000E+00  1.00000E+00  0.00000E+00  0.00000E+00
  0.00000E+00  0.00000E+00  0.00000E+00  0.00000E+00  0.00000E+00  0.00000E+00
        121464
  0.00000e+00  0.00000e+00  2.01160e-01
        121479
  0.00000e+00  0.00000e+00  5.69366e-01
        130039
  0.00000e+00  0.00000e+00  4.62523e-02
        130937
  0.00000e+00  0.00000e+00  2.07819e-01
        129813
  0.00000e+00  0.00000e+00 -2.07868e-01
        130066
  0.00000e+00  0.00000e+00 -2.18469e-02
        131560
  0.00000e+00  0.00000e+00  9.86508e-03
        131964
  0.00000e+00  0.00000e+00  2.30573e-02
        159845
  0.00000e+00  0.00000e+00  7.07836e-02
        160320
  0.00000e+00  0.00000e+00  5.71573e-02
        126150
  0.00000e+00  0.00000e+00 -1.16445e-02
        127032
  0.00000e+00  0.00000e+00  4.18240e-03
        185255
  0.00000e+00  0.00000e+00 -1.42580e-01
        185270
  0.00000e+00  0.00000e+00 -6.13902e-01
        187627
  0.00000e+00  0.00000e+00 -7.46202e-02
        192710
  0.00000e+00  0.00000e+00 -2.69188e-01
        187401
  0.00000e+00  0.00000e+00  1.80510e-01
        187654
  0.00000e+00  0.00000e+00 -1.10220e-01
        189148
  0.00000e+00  0.00000e+00 -9.70572e-03
        189552
  0.00000e+00  0.00000e+00 -9.29649e-02
        193875
  0.00000e+00  0.00000e+00 -5.91011e-02
        194350
  0.00000e+00  0.00000e+00 -4.14080e-02
        185574
  0.00000e+00  0.00000e+00  5.11097e-02
        185906
  0.00000e+00  0.00000e+00  2.75481e-02
    -1
    -1
  2414
         6
Mode shape record 6
         1
NONE
NONE
NONE
NONE
NONE
         1         2         2         8         2         3
         0         0         1         0         0         6         0         0
         0         0
  0.00000E+00  1.81229E+01  0.00000E+00  1.00000E+00  0.00000E+00  0.00000E+00
  0.00000E+00  0.00000E+00  0.00000E+00  0.00000E+00  0.00000E+00  0.00000E+00
        121464
  0.00000e+00  0.00000e+00  2.18585e-01
        121479
  0.00000e+00  0.00000e+00  5.92949e-01
        130039
  0.00000e+00  0.00000e+00  6.80249e-02
        130937
  0.00000e+00  0.00000e+00  2.26088e-01
        129813
  0.00000e+00  0.00000e+00 -2.14873e-01
        130066
  0.00000e+00  0.00000e+00 -2.29305e-02
        131560
  0.00000e+00  0.00000e+00 -7.05113e-03
        131964
  0.00000e+00  0.00000e+00  1.06105e-02
        159845
  0.00000e+00  0.00000e+00  6.08672e-02
        160320
  0.00000e+00  0.00000e+00  4.98078e-02
        126150
  0.00000e+00  0.00000e+00 -1.73614e-02
        127032
  0.00000e+00  0.00000e+00  4.49368e-04
        185255
  0.00000e+00  0.00000e+00 -1.67181e-01
        185270
  0.00000e+00  0.00000e+00 -5.84865e-01
        187627
  0.00000e+00  0.00000e+00 -6.43303e-02
        192710
  0.00000e+00  0.00000e+00 -2.45047e-01
        187401
  0.00000e+00  0.00000e+00  1.94878e-01
        187654
  0.00000e+00  0.00000e+00 -8.20155e-02
        189148
  0.00000e+00  0.00000e+00  5.28392e-04
        189552
  0.00000e+00  0.00000e+00 -7.08714e-02
        193875
  0.00000e+00  0.00000e+00 -6.08242e-02
        194350
  0.00000e+00  0.00000e+00 -3.73326e-02
        185574
  0.00000e+00  0.00000e+00  4.39104e-02
        185906
  0.00000e+00  0.00000e+00  2.43220e-02
    -1
    -1
  2414
         7
Mode shape record 7
         1
NONE
NONE
NONE
NONE
NONE
         1         2         2         8         2         3
         0         0         1         0         0         7         0         0
         0         0
  0.00000E+00  2.32211E+01  0.00000E+00  1.00000E+00  0.00000E+00  0.00000E+00
  0.00000E+00  0.00000E+00  0.00000E+00  0.00000E+00  0.00000E+00  0.00000E+00
        121464
  0.00000e+00  0.00000e+00 -2.36963e-01
        121479
  0.00000e+00  0.00000e+00 -5.48639e-01
        130039
  0.00000e+00  0.00000e+00 -1.74662e-01
        130937
  0.00000e+00  0.00000e+00 -2.98257e-01
        129813
  0.00000e+00  0.00000e+00  1.18530e-01
        130066
  0.00000e+00  0.00000e+00  8.53871e-03
        131560
  0.00000e+00  0.00000e+00  1.16731e-01
        131964
  0.00000e+00  0.00000e+00  4.20074e-02
        159845
  0.00000e+00  0.00000e+00  9.19579e-03
        160320
  0.00000e+00  0.00000e+00 -6.66066e-04
        126150
  0.00000e+00  0.00000e+00  2.50384e-03
        127032
  0.00000e+00  0.00000e+00 -7.66939e-04
        185255
  0.00000e+00  0.00000e+00  1.26255e-01
        185270
  0.00000e+00  0.00000e+00  5.74448e-01
        187627
  0.00000e+00  0.00000e+00  1.71776e-01
        192710
  0.00000e+00  0.00000e+00  3.11070e-01
        187401
  0.00000e+00  0.00000e+00 -1.04284e-01
        187654
  0.00000e+00  0.00000e+00  1.55461e-02
        189148
  0.00000e+00  0.00000e+00 -9.63289e-02
        189552
  0.00000e+00  0.00000e+00 -2.88027e-02
        193875
  0.00000e+00  0.00000e+00 -1.36363e-03
        194350
  0.00000e+00  0.00000e+00 -4.70149e-03
        185574
  0.00000e+00  0.00000e+00 -1.44836e-02
        185906
  0.00000e+00  0.00000e+00 -1.06389e-02
    -1
    -1
  2414
         8
Mode shape record 8
         1
NONE
NONE
NONE
NONE
NONE
         1         2         2         8         2         3
         0         0         1         0         0         8         0         0
         0         0
  0.00000E+00  2.61235E+01  0.00000E+00  1.00000E+00  0.00000E+00  0.00000E+00
  0.00000E+00  0.00000E+00  0.00000E+00  0.00000E+00  0.00000E+00  0.00000E+00
        121464
  0.00000e+00  0.00000e+00  2.14743e-01
        121479
  0.00000e+00  0.00000e+00  4.23937e-01
        130039
  0.00000e+00  0.00000e+00  9.72283e-02
        130937
  0.00000e+00  0.00000e+00  1.66731e-01
        129813
  0.00000e+00  0.00000e+00 -9.83374e-02
        130066
  0.00000e+00  0.00000e+00 -4.71160e-02
        131560
  0.00000e+00  0.00000e+00 -6.13667e-02
        131964
  0.00000e+00  0.00000e+00 -1.45129e-02
        159845
  0.00000e+00  0.00000e+00  3.72281e-02
        160320
  0.00000e+00  0.00000e+00  4.96204e-02
        126150
  0.00000e+00  0.00000e+00  1.04581e-02
        127032
  0.00000e+00  0.00000e+00  2.73730e-02
        185255
  0.00000e+00  0.00000e+00 -1.82313e-01
        185270
  0.00000e+00  0.00000e+00 -6.78211e-01
        187627
  0.00000e+00  0.00000e+00 -2.40982e-01
        192710
  0.00000e+00  0.00000e+00 -3.50658e-01
        187401
  0.00000e+00  0.00000e+00  1.23316e-01
        187654
  0.00000e+00  0.00000e+00  3.93954e-02
        189148
  0.00000e+00  0.00000e+00  1.27262e-01
        189552
  0.00000e+00  0.00000e+00  9.25946e-02
        193875
  0.00000e+00  0.00000e+00 -3.15693e-03
        194350
  0.00000e+00  0.00000e+00  2.33281e-02
        185574
  0.00000e+00  0.00000e+00  3.13134e-03
        185906
  0.00000e+00  0.00000e+00 -1.74759e-03
    -1
    -1
  2414
         9
Mode shape record 9
         1
NONE
NONE
NONE
NONE
NONE
         1         2         2         8         2         3
         0         0         1         0         0         9         0         0
         0         0
  0.00000E+00  2.98024E+01  0.00000E+00  1.00000E+00  0.00000E+00  0.00000E+00
  0.00000E+00  0.00000E+00  0.00000E+00  0.00000E+00  0.00000E+00  0.00000E+00
        121464
  0.00000e+00  0.00000e+00 -4.04348e-01
        121479
  0.00000e+00  0.00000e+00  6.53910e-01
        130039
  0.00000e+00  0.00000e+00  8.70120e-02
        130937
  0.00000e+00  0.00000e+00  3.04435e-01
        129813
  0.00000e+00  0.00000e+00 -1.56038e-01
        130066
  0.00000e+00  0.00000e+00  8.41746e-02
        131560
  0.00000e+00  0.00000e+00 -7.61308e-02
        131964
  0.00000e+00  0.00000e+00  4.26206e-02
        159845
  0.00000e+00  0.00000e+00  1.52671e-02
        160320
  0.00000e+00  0.00000e+00  4.77370e-02
        126150
  0.00000e+00  0.00000e+00  2.59444e-03
        127032
  0.00000e+00  0.00000e+00  1.09033e-02
        185255
  0.00000e+00  0.00000e+00 -1.24023e-01
        185270
  0.00000e+00  0.00000e+00 -4.13928e-01
        187627
  0.00000e+00  0.00000e+00 -8.57204e-02
        192710
  0.00000e+00  0.00000e+00 -1.95660e-01
        187401
  0.00000e+00  0.00000e+00  1.60733e-01
        187654
  0.00000e+00  0.00000e+00  1.51767e-02
        189148
  0.00000e+00  0.00000e+00  7.79552e-02
        189552
  0.00000e+00  0.00000e+00  2.98017e-02
        193875
  0.00000e+00  0.00000e+00 -2.65769e-02
        194350
  0.00000e+00  0.00000e+00 -2.06634e-02
        185574
  0.00000e+00  0.00000e+00 -8.77451e-03
        185906
  0.00000e+00  0.00000e+00 -1.94953e-02
    -1
    -1
  1802
         1Sensors                     24
Sensor DOFs                                                                     
    121464Z+      121479Z+      126150Z+      127032Z+      129813Z+  
    130039Z+      130066Z+      130937Z+      131560Z+      131964Z+  
    159845Z+      160320Z+      185255Z+      185270Z+      185574Z+  
    185906Z+      187401Z+      187627Z+      187654Z+      189148Z+  
    189552Z+      192710Z+      193875Z+      194350Z+  
    -1
