    -1
   151
Unknown                                                                         
Unknown                                                                         
NX: Advanced Simulation                                                         
Unknown   Unknown            0         0         0
Unknown   Unknown   
NX: Correlation                                                                 
24-NOV-25   23:38:50 2412    1    0    0    0
    -1
    -1
   164
         1Meter (newton)               2
  1.00000000000000000D+00  1.00000000000000000D+00  1.00000000000000000D+00
  2.73149999999999977D+02
    -1
    -1
  2400
          13     7    -1           0
Fem1                                                                            
                                                                                
 0 0 0 0 0 0 0 0 0 0 0 0 0 0 0 0 0 0 0 0 0 0 0 0 0 0 0 0 0 0 0 0
24-NOV-25   23:38:50           0           0           0
           0
    -1
    -1
  2420
         1
Part1
         1         0         2
CS1
   1.0000000000000000D+00   0.0000000000000000D+00   0.0000000000000000D+00
   0.0000000000000000D+00   1.0000000000000000D+00   0.0000000000000000D+00
   0.0000000000000000D+00   0.0000000000000000D+00   1.0000000000000000D+00
   0.0000000000000000D+00   0.0000000000000000D+00   0.0000000000000000D+00
    -1
    -1
  2411
    121464         1         1        11
   7.7633977539062498D+00  -4.6349501953125003D+00   5.9896598510742183D-01
    121479         1         1        11
   9.7662650634765633D+00  -4.6349501953125003D+00   7.0601349334716790D-01
    126150         1         1        11
   7.4909513882562253D+00  -1.0741667407773539D+00   7.4128540321371361D-01
    127032         1         1        11
   8.3861453033007329D+00  -1.0920785407841458D+00   7.2874391085275392D-01
    129813         1         1        11
   8.5656689347244654D+00  -3.8111213984168755D+00   6.9914563100762928D-01
    130039         1         1        11
   9.0211216883366543D+00  -4.5241315656325600D+00   6.9534800882421632D-01
    130066         1         1        11
   9.2332402546547243D+00  -3.8177943888344319D+00   6.9910134570535176D-01
    130937         1         1        11
   9.3928190460087997D+00  -4.5197577996729503D+00   6.9750946620827758D-01
    131560         1         1        11
   8.1099279676167271D+00  -3.0434831234195618D+00   7.0689627574046965D-01
    131964         1         1        11
   9.0998983367384891D+00  -3.0465422571204837D+00   7.0021699626639800D-01
    159845         1         1        11
   7.4487767072902997D+00  -2.0175918461390450D+00   7.1562637418263941D-01
    160320         1         1        11
   8.8802468252267932D+00  -1.9924144139216009D+00   7.0361227683766414D-01
    185255         1         1        11
   7.7633977539062498D+00   4.6349501953125003D+00   5.9896598510742183D-01
    185270         1         1        11
   9.7662650634765633D+00   4.6349501953125003D+00   7.0601349334716790D-01
    185574         1         1        11
   7.4909513882562253D+00   1.0741667407773539D+00   7.4128540321371361D-01
    185906         1         1        11
   8.3861453033007329D+00   1.0920785407841458D+00   7.2874391085275392D-01 
    187401         1         1        11
   8.5656689347244654D+00   3.8111213984168755D+00   6.9914563100762928D-01
    187627         1         1        11
   9.0211216883366543D+00   4.5241315656325600D+00   6.9534800882421632D-01
    187654         1         1        11
   9.2332402546547243D+00   3.8177943888344319D+00   6.9910134570535176D-01
    189148         1         1        11
   8.1099279676167271D+00   3.0434831234195618D+00   7.0689627574046965D-01
    189552         1         1        11
   9.0998983367384891D+00   3.0465422571204837D+00   7.0021699626639800D-01
    192710         1         1        11
   9.3927219559900177D+00   4.5191951370287216D+00   6.7276369575045269D-01
    193875         1         1        11
   7.4487767072902997D+00   2.0175918461390450D+00   7.1562637418263941D-01
    194350         1         1        11
   8.8802468252267932D+00   1.9924144139216009D+00   7.0361227683766414D-01
    -1
    -1
    82
         1         2         4
Uz                                                                              
    121464    129813
    -1
    -1
    82
         2         2         4
Uz                                                                              
    121464    130039
    -1
    -1
    82
         3         2         4
Uz                                                                              
    121464    131560
    -1
    -1
    82
         4         2         4
Uz                                                                              
    121479    130066
    -1
    -1
    82
         5         2         4
Uz                                                                              
    121479    130937
    -1
    -1
    82
         6         2         4
Uz                                                                              
    126150    127032
    -1
    -1
    82
         7         2         4
Uz                                                                              
    126150    159845
    -1
    -1
    82
         8         2         4
Uz                                                                              
    126150    160320
    -1
    -1
    82
         9         2         4
Uz                                                                              
    127032    159845
    -1
    -1
    82
        10         2         4
Uz                                                                              
    127032    160320
    -1
    -1
    82
        11         2         4
Uz                                                                              
    129813    130039
    -1
    -1
    82
        12         2         4
Uz                                                                              
    129813    130066
    -1
    -1
    82
        13         2         4
Uz                                                                              
    129813    131560
    -1
    -1
    82
        14         2         4
Uz                                                                              
    130039    130066
    -1
    -1
    82
        15         2         4
Uz                                                                              
    130039    130937
    -1
    -1
    82
        16         2         4
Uz                                                                              
    130066    131964
    -1
    -1
    82
        17         2         4
Uz                                                                              
    131560    131964
    -1
    -1
    82
        18         2         4
Uz                                                                              
    131560    159845
    -1
    -1
    82
        19         2         4
Uz                                                                              
    131964    160320
    -1
    -1
    82
        20         2         4
Uz                                                                              
    159845    160320
    -1
    -1
    82
        21         2         4
Uz                                                                              
    185255    187401
    -1
    -1
    82
        22         2         4
Uz                                                                              
    185255    187627
    -1
    -1
    82
        23         2         4
Uz                                                                              
    185255    189148
    -1
    -1
    82
        24         2         4
Uz                                                                              
    185270    187654
    -1
    -1
    82
        25         2         4
Uz                                                                              
    185270    192710
    -1
    -1
    82
        26         2         4
Uz                                                                              
    185574    185906
    -1
    -1
    82
        27         2         4
Uz                                                                              
    185574    193875
    -1
    -1
    82
        28         2         4
Uz                                                                              
    185574    194350
    -1
    -1
    82
        29         2         4
Uz                                                                              
    185906    193875
    -1
    -1
    82
        30         2         4
Uz                                                                              
    185906    194350
    -1
    -1
    82
        31         2         4
Uz                                                                              
    187401    187627
    -1
    -1
    82
        32         2         4
Uz                                                                              
    187401    187654
    -1
    -1
    82
        33         2         4
Uz                                                                              
    187401    189148
    -1
    -1
    82
        34         2         4
Uz                                                                              
    187627    187654
    -1
    -1
    82
        35         2         4
Uz                                                                              
    187627    192710
    -1
    -1
    82
        36         2         4
Uz                                                                              
    187654    189552
    -1
    -1
    82
        37         2         4
Uz                                                                              
    189148    189552
    -1
    -1
    82
        38         2         4
Uz                                                                              
    189148    193875
    -1
    -1
    82
        39         2         4
Uz                                                                              
    189552    194350
    -1
    -1
    82
        40         2         4
Uz                                                                              
    193875    194350
    -1
    -1
  2414
         1
Mode shape record 1
         1
NONE
NONE
NONE
NONE
NONE
         1         2         2         8         2         3
         0         0         1         0         0         1         0         0
         0         0
  0.00000E+00  4.59663E+00  0.00000E+00  1.00000E+00  0.00000E+00  0.00000E+00
  0.00000E+00  0.00000E+00  0.00000E+00  0.00000E+00  0.00000E+00  0.00000E+00
        121464
  0.00000e+00  0.00000e+00  2.93291e-01
        121479
  0.00000e+00  0.00000e+00  4.90790e-01
        130039
  0.00000e+00  0.00000e+00  1.54394e-01
        130937
  0.00000e+00  0.00000e+00  2.39105e-01
        129813
  0.00000e+00  0.00000e+00 -1.17821e-01
        130066
  0.00000e+00  0.00000e+00 -2.39735e-04
        131560
  0.00000e+00  0.00000e+00  5.26483e-02
        131964
  0.00000e+00  0.00000e+00  4.74630e-02
        159845
  0.00000e+00  0.00000e+00  9.90590e-02
        160320
  0.00000e+00  0.00000e+00  8.99382e-02
        126150
  0.00000e+00  0.00000e+00 -1.28052e-02
        127032
  0.00000e+00  0.00000e+00  1.00068e-03
        185255
  0.00000e+00  0.00000e+00  3.72566e-01
        185270
  0.00000e+00  0.00000e+00  5.33843e-01
        187627
  0.00000e+00  0.00000e+00  8.64226e-02
        192710
  0.00000e+00  0.00000e+00  2.30768e-01
        187401
  0.00000e+00  0.00000e+00 -1.76792e-01
        187654
  0.00000e+00  0.00000e+00  6.75354e-02
        189148
  0.00000e+00  0.00000e+00  4.48795e-02
        189552
  0.00000e+00  0.00000e+00  9.00095e-02
        193875
  0.00000e+00  0.00000e+00  1.28741e-01
        194350
  0.00000e+00  0.00000e+00  8.97949e-02
        185574
  0.00000e+00  0.00000e+00 -1.68022e-03
        185906
  0.00000e+00  0.00000e+00 -5.89217e-03
    -1
    -1
  2414
         2
Mode shape record 2
         1
NONE
NONE
NONE
NONE
NONE
         1         2         2         8         2         3
         0         0         1         0         0         2         0         0
         0         0
  0.00000E+00  8.29898E+00  0.00000E+00  1.00000E+00  0.00000E+00  0.00000E+00
  0.00000E+00  0.00000E+00  0.00000E+00  0.00000E+00  0.00000E+00  0.00000E+00
        121464
  0.00000e+00  0.00000e+00  4.82900e-01
        121479
  0.00000e+00  0.00000e+00  2.51376e-01
        130039
  0.00000e+00  0.00000e+00  2.96128e-01
        130937
  0.00000e+00  0.00000e+00  2.72739e-01
        129813
  0.00000e+00  0.00000e+00  1.83807e-01
        130066
  0.00000e+00  0.00000e+00  1.80523e-01
        131560
  0.00000e+00  0.00000e+00  7.82113e-02
        131964
  0.00000e+00  0.00000e+00  8.86053e-02
        159845
  0.00000e+00  0.00000e+00  4.80604e-03
        160320
  0.00000e+00  0.00000e+00  1.12517e-02
        126150
  0.00000e+00  0.00000e+00 -1.25484e-02
        127032
  0.00000e+00  0.00000e+00 -1.23440e-02
        185255
  0.00000e+00  0.00000e+00  4.36431e-01
        185270
  0.00000e+00  0.00000e+00  2.37586e-01
        187627
  0.00000e+00  0.00000e+00  2.77222e-01
        192710
  0.00000e+00  0.00000e+00  2.51840e-01
        187401
  0.00000e+00  0.00000e+00  1.79506e-01
        187654
  0.00000e+00  0.00000e+00  1.61922e-01
        189148
  0.00000e+00  0.00000e+00  8.18678e-02
        189552
  0.00000e+00  0.00000e+00  8.74778e-02
        193875
  0.00000e+00  0.00000e+00  1.07601e-02
        194350
  0.00000e+00  0.00000e+00  2.30602e-02
        185574
  0.00000e+00  0.00000e+00 -7.09529e-03
        185906
  0.00000e+00  0.00000e+00 -7.06530e-03
    -1
    -1
  2414
         3
Mode shape record 3
         1
NONE
NONE
NONE
NONE
NONE
         1         2         2         8         2         3
         0         0         1         0         0         3         0         0
         0         0
  0.00000E+00  1.11400E+01  0.00000E+00  1.00000E+00  0.00000E+00  0.00000E+00
  0.00000E+00  0.00000E+00  0.00000E+00  0.00000E+00  0.00000E+00  0.00000E+00
        121464
  0.00000e+00  0.00000e+00 -8.11244e-01
        121479
  0.00000e+00  0.00000e+00 -2.43153e-01
        130039
  0.00000e+00  0.00000e+00 -1.75491e-01
        130937
  0.00000e+00  0.00000e+00 -1.61120e-01
        129813
  0.00000e+00  0.00000e+00 -1.25065e-02
        130066
  0.00000e+00  0.00000e+00  1.32948e-02
        131560
  0.00000e+00  0.00000e+00  4.12680e-03
        131964
  0.00000e+00  0.00000e+00  1.45170e-02
        159845
  0.00000e+00  0.00000e+00 -5.05973e-03
        160320
  0.00000e+00  0.00000e+00  4.88570e-03
        126150
  0.00000e+00  0.00000e+00  2.82449e-02
        127032
  0.00000e+00  0.00000e+00  2.45098e-02
        185255
  0.00000e+00  0.00000e+00  2.78508e-01
        185270
  0.00000e+00  0.00000e+00 -3.27317e-01
        187627
  0.00000e+00  0.00000e+00  4.93471e-03
        192710
  0.00000e+00  0.00000e+00 -1.23704e-01
        187401
  0.00000e+00  0.00000e+00  4.43231e-02
        187654
  0.00000e+00  0.00000e+00 -5.10634e-02
        189148
  0.00000e+00  0.00000e+00 -3.08411e-02
        189552
  0.00000e+00  0.00000e+00 -7.30205e-02
        193875
  0.00000e+00  0.00000e+00 -8.72708e-02
        194350
  0.00000e+00  0.00000e+00 -6.78722e-02
        185574
  0.00000e+00  0.00000e+00 -2.36341e-02
        185906
  0.00000e+00  0.00000e+00 -1.81164e-02
    -1
    -1
  2414
         4
Mode shape record 4
         1
NONE
NONE
NONE
NONE
NONE
         1         2         2         8         2         3
         0         0         1         0         0         4         0         0
         0         0
  0.00000E+00  1.25788E+01  0.00000E+00  1.00000E+00  0.00000E+00  0.00000E+00
  0.00000E+00  0.00000E+00  0.00000E+00  0.00000E+00  0.00000E+00  0.00000E+00
        121464
  0.00000e+00  0.00000e+00 -4.31922e-01
        121479
  0.00000e+00  0.00000e+00  4.14997e-01
        130039
  0.00000e+00  0.00000e+00  1.99546e-01
        130937
  0.00000e+00  0.00000e+00  2.98305e-01
        129813
  0.00000e+00  0.00000e+00  9.58722e-02
        130066
  0.00000e+00  0.00000e+00  1.80881e-01
        131560
  0.00000e+00  0.00000e+00  4.53991e-02
        131964
  0.00000e+00  0.00000e+00  9.41989e-02
        159845
  0.00000e+00  0.00000e+00  1.43311e-03
        160320
  0.00000e+00  0.00000e+00  2.30618e-02
        126150
  0.00000e+00  0.00000e+00 -6.74993e-03
        127032
  0.00000e+00  0.00000e+00 -6.72886e-03
        185255
  0.00000e+00  0.00000e+00 -5.59070e-01
        185270
  0.00000e+00  0.00000e+00  2.77887e-01
        187627
  0.00000e+00  0.00000e+00  8.31522e-02
        192710
  0.00000e+00  0.00000e+00  1.77611e-01
        187401
  0.00000e+00  0.00000e+00  5.50848e-02
        187654
  0.00000e+00  0.00000e+00  1.23453e-01
        189148
  0.00000e+00  0.00000e+00  4.79191e-02
        189552
  0.00000e+00  0.00000e+00  8.58200e-02
        193875
  0.00000e+00  0.00000e+00  2.71367e-02
        194350
  0.00000e+00  0.00000e+00  4.21280e-02
        185574
  0.00000e+00  0.00000e+00  1.14274e-02
        185906
  0.00000e+00  0.00000e+00  1.13662e-02
    -1
    -1
  2414
         5
Mode shape record 5
         1
NONE
NONE
NONE
NONE
NONE
         1         2         2         8         2         3
         0         0         1         0         0         5         0         0
         0         0
  0.00000E+00  1.43250E+01  0.00000E+00  1.00000E+00  0.00000E+00  0.00000E+00
  0.00000E+00  0.00000E+00  0.00000E+00  0.00000E+00  0.00000E+00  0.00000E+00
        121464
  0.00000e+00  0.00000e+00 -1.71284e-01
        121479
  0.00000e+00  0.00000e+00 -6.01657e-02
        130039
  0.00000e+00  0.00000e+00  1.73578e-02
        130937
  0.00000e+00  0.00000e+00  6.86125e-04
        129813
  0.00000e+00  0.00000e+00  8.64450e-02
        130066
  0.00000e+00  0.00000e+00  5.99463e-02
        131560
  0.00000e+00  0.00000e+00  2.13670e-02
        131964
  0.00000e+00  0.00000e+00  1.69450e-02
        159845
  0.00000e+00  0.00000e+00 -1.54717e-02
        160320
  0.00000e+00  0.00000e+00 -2.22569e-02
        126150
  0.00000e+00  0.00000e+00  1.99018e-02
        127032
  0.00000e+00  0.00000e+00  1.44321e-02
        185255
  0.00000e+00  0.00000e+00  1.97877e-01
        185270
  0.00000e+00  0.00000e+00 -7.17675e-01
        187627
  0.00000e+00  0.00000e+00 -3.19666e-01
        192710
  0.00000e+00  0.00000e+00 -4.76708e-01
        187401
  0.00000e+00  0.00000e+00 -5.19994e-02
        187654
  0.00000e+00  0.00000e+00 -2.22642e-01
        189148
  0.00000e+00  0.00000e+00 -9.34655e-04
        189552
  0.00000e+00  0.00000e+00 -1.05593e-01
        193875
  0.00000e+00  0.00000e+00  2.62036e-02
        194350
  0.00000e+00  0.00000e+00 -2.25734e-02
        185574
  0.00000e+00  0.00000e+00  5.68843e-02
        185906
  0.00000e+00  0.00000e+00  4.56673e-02
    -1
    -1
  2414
         6
Mode shape record 6
         1
NONE
NONE
NONE
NONE
NONE
         1         2         2         8         2         3
         0         0         1         0         0         6         0         0
         0         0
  0.00000E+00  2.59230E+01  0.00000E+00  1.00000E+00  0.00000E+00  0.00000E+00
  0.00000E+00  0.00000E+00  0.00000E+00  0.00000E+00  0.00000E+00  0.00000E+00
        121464
  0.00000e+00  0.00000e+00 -3.44326e-01
        121479
  0.00000e+00  0.00000e+00 -3.62521e-01
        130039
  0.00000e+00  0.00000e+00 -2.60113e-01
        130937
  0.00000e+00  0.00000e+00 -2.72997e-01
        129813
  0.00000e+00  0.00000e+00  4.36030e-02
        130066
  0.00000e+00  0.00000e+00  5.28812e-02
        131560
  0.00000e+00  0.00000e+00  1.51781e-01
        131964
  0.00000e+00  0.00000e+00  1.72534e-01
        159845
  0.00000e+00  0.00000e+00  5.95099e-02
        160320
  0.00000e+00  0.00000e+00  1.06071e-01
        126150
  0.00000e+00  0.00000e+00 -4.26985e-03
        127032
  0.00000e+00  0.00000e+00  9.90005e-03
        185255
  0.00000e+00  0.00000e+00 -9.78753e-02
        185270
  0.00000e+00  0.00000e+00 -5.05567e-01
        187627
  0.00000e+00  0.00000e+00 -2.81236e-01
        192710
  0.00000e+00  0.00000e+00 -3.47789e-01
        187401
  0.00000e+00  0.00000e+00  5.44219e-02
        187654
  0.00000e+00  0.00000e+00  1.70489e-02
        189148
  0.00000e+00  0.00000e+00  1.71484e-01
        189552
  0.00000e+00  0.00000e+00  1.42594e-01
        193875
  0.00000e+00  0.00000e+00  9.01506e-02
        194350
  0.00000e+00  0.00000e+00  9.35620e-02
        185574
  0.00000e+00  0.00000e+00  4.85141e-03
        185906
  0.00000e+00  0.00000e+00  1.72016e-02
    -1
    -1
  2414
         7
Mode shape record 7
         1
NONE
NONE
NONE
NONE
NONE
         1         2         2         8         2         3
         0         0         1         0         0         7         0         0
         0         0
  0.00000E+00  2.89417E+01  0.00000E+00  1.00000E+00  0.00000E+00  0.00000E+00
  0.00000E+00  0.00000E+00  0.00000E+00  0.00000E+00  0.00000E+00  0.00000E+00
        121464
  0.00000e+00  0.00000e+00 -3.74395e-01
        121479
  0.00000e+00  0.00000e+00  6.10073e-01
        130039
  0.00000e+00  0.00000e+00  2.10767e-01
        130937
  0.00000e+00  0.00000e+00  3.70984e-01
        129813
  0.00000e+00  0.00000e+00 -6.22322e-02
        130066
  0.00000e+00  0.00000e+00  8.66652e-02
        131560
  0.00000e+00  0.00000e+00 -1.67547e-01
        131964
  0.00000e+00  0.00000e+00 -5.19804e-02
        159845
  0.00000e+00  0.00000e+00 -7.94966e-02
        160320
  0.00000e+00  0.00000e+00 -2.83595e-02
        126150
  0.00000e+00  0.00000e+00  1.36574e-02
        127032
  0.00000e+00  0.00000e+00  3.04399e-02
        185255
  0.00000e+00  0.00000e+00  4.52019e-02
        185270
  0.00000e+00  0.00000e+00  3.48852e-01
        187627
  0.00000e+00  0.00000e+00  1.79486e-01
        192710
  0.00000e+00  0.00000e+00  2.34548e-01
        187401
  0.00000e+00  0.00000e+00 -5.53304e-02
        187654
  0.00000e+00  0.00000e+00 -2.13370e-02
        189148
  0.00000e+00  0.00000e+00 -1.50588e-01
        189552
  0.00000e+00  0.00000e+00 -1.00265e-01
        193875
  0.00000e+00  0.00000e+00 -7.38291e-02
        194350
  0.00000e+00  0.00000e+00 -3.69382e-02
        185574
  0.00000e+00  0.00000e+00  1.74662e-02
        185906
  0.00000e+00  0.00000e+00  2.92702e-02
    -1
    -1
  1802
         1Sensors                     24
Sensor DOFs                                                                     
    121464Z+      121479Z+      126150Z+      127032Z+      129813Z+  
    130039Z+      130066Z+      130937Z+      131560Z+      131964Z+  
    159845Z+      160320Z+      185255Z+      185270Z+      185574Z+  
    185906Z+      187401Z+      187627Z+      187654Z+      189148Z+  
    189552Z+      192710Z+      193875Z+      194350Z+  
    -1
